<?xml version="1.0" encoding="UTF-8" standalone="no"?>
<svg
   width="511.99997"
   height="511.99997"
   viewBox="0 0 135.46666 135.46666"
   version="1.1"
   id="svg8"
   inkscape:version="1.1.1 (3bf5ae0d25, 2021-09-20)"
   sodipodi:docname="Burglar's_Best_Friend.svg"
   xmlns:inkscape="http://www.inkscape.org/namespaces/inkscape"
   xmlns:sodipodi="http://sodipodi.sourceforge.net/DTD/sodipodi-0.dtd"
   xmlns="http://www.w3.org/2000/svg"
   xmlns:svg="http://www.w3.org/2000/svg"
   xmlns:rdf="http://www.w3.org/1999/02/22-rdf-syntax-ns#"
   xmlns:cc="http://creativecommons.org/ns#"
   xmlns:dc="http://purl.org/dc/elements/1.1/">
  <defs
     id="defs2" />
  <sodipodi:namedview
     id="base"
     pagecolor="#ffffff"
     bordercolor="#666666"
     borderopacity="1.0"
     inkscape:pageopacity="0.0"
     inkscape:pageshadow="2"
     inkscape:zoom="0.35"
     inkscape:cx="-130"
     inkscape:cy="241.42857"
     inkscape:document-units="mm"
     inkscape:current-layer="layer1"
     inkscape:document-rotation="0"
     showgrid="false"
     inkscape:pagecheckerboard="true"
     inkscape:object-nodes="true"
     fit-margin-top="0"
     fit-margin-left="0"
     fit-margin-right="0"
     fit-margin-bottom="0"
     inkscape:window-width="1366"
     inkscape:window-height="697"
     inkscape:window-x="-8"
     inkscape:window-y="-8"
     inkscape:window-maximized="1"
     units="px" />
  <metadata
     id="metadata5">
    <rdf:RDF>
      <cc:Work
         rdf:about="">
        <dc:format>image/svg+xml</dc:format>
        <dc:type
           rdf:resource="http://purl.org/dc/dcmitype/StillImage" />
      </cc:Work>
    </rdf:RDF>
  </metadata>
  <g
     inkscape:label="Layer 1"
     inkscape:groupmode="layer"
     id="layer1"
     transform="translate(-59.62574,-110.15787)">
    <path
       style="fill:#000000;stroke-width:0.264583"
       id="path853"
       d="" />
    <path
       style="fill:#000000;stroke-width:0.264583"
       id="path849"
       d="" />
    <g
       id="g1243"
       transform="matrix(1.0800363,0,0,1.0800363,-9.508024,-16.269153)">
      <path
         id="path1211"
         style="fill:#273839;fill-opacity:1;stroke-width:1.44004"
         d="m 448.32617,369.13086 c -127.78632,58.1341 -254.6811,58.01176 -384.505858,0.002 v 55.43946 c 135.362908,81.4437 263.319498,76.33858 385.216798,0 0,-14.11843 -0.3207,-55.44141 -0.71094,-55.44141 z m -293.05859,45.1543 c 11.19386,1.4e-4 20.26807,8.59514 20.26758,19.19726 -6.5e-4,10.60136 -9.07452,19.19517 -20.26758,19.19531 -11.19306,-1.4e-4 -20.26693,-8.59395 -20.26758,-19.19531 -4.9e-4,-10.60212 9.07372,-19.19712 20.26758,-19.19726 z m 201.69531,0.24023 c 11.19382,-8.8e-4 20.26888,8.59323 20.26953,19.19531 4.9e-4,10.60284 -9.0749,19.19815 -20.26953,19.19727 -11.19387,-1.4e-4 -20.26807,-8.59515 -20.26758,-19.19727 6.5e-4,-10.60136 9.07452,-19.19517 20.26758,-19.19531 z m -100.51367,5.70034 29.0918,26.5145 -29.0918,27.38505 -28.13086,-27.38505 z"
         transform="matrix(0.24497633,0,0,0.24497633,64.010593,117.05812)"
         sodipodi:nodetypes="cccccccccccccccccccc" />
      <path
         style="fill:#273839;fill-opacity:0.80000001;stroke-width:0.352778"
         d="m 101.69451,131.89497 v -11.89713 l 25.1399,13.80047 23.95197,-13.80047 v 11.91268 l -23.95197,13.82795 z"
         id="path1229"
         sodipodi:nodetypes="ccccccc" />
      <path
         style="fill:#273839;fill-opacity:0.69999999;stroke-width:0.352778"
         d="m 107.25636,153.68812 v -7.58473 l 19.57805,11.04336 20.19191,-11.04336 v 7.52915 l -20.19191,11.51292 z"
         id="path1227"
         sodipodi:nodetypes="ccccccc" />
      <path
         style="fill:#273839;fill-opacity:0.60000002;stroke-width:0.352778"
         d="m 110.86643,172.83741 v -5.92013 l 15.96798,8.70853 16.13464,-8.70853 v 5.91469 l -16.13464,9.21585 z"
         id="path1225"
         sodipodi:nodetypes="ccccccc" />
      <path
         style="fill:#273839;fill-opacity:0.5;stroke-width:0.352778"
         d="m 158.38751,201.1132 c -0.73641,-0.97212 -2.40329,-2.55449 -3.70417,-3.5164 -3.91399,-2.89409 -11.97308,-6.53478 -17.1819,-7.76191 -2.44483,-0.57597 -2.47051,-0.59421 -2.57638,-1.82914 -0.1,-1.16636 -0.0297,-1.26185 1.08262,-1.47052 1.43344,-0.26891 7.00177,0.27389 10.74822,1.04774 7.8129,1.6138 18.34128,6.19274 22.4951,9.78344 l 1.35853,1.17436 -1.68356,1.2855 c -2.01176,1.53608 -4.61088,2.55393 -7.25925,2.84279 l -1.94028,0.21163 z"
         id="path1223" />
      <path
         style="fill:#273839;fill-opacity:0.5;stroke-width:0.352778"
         d="m 90.75838,202.54808 c -2.9174,-0.49537 -7.40833,-2.96303 -7.40833,-4.0707 0,-1.06774 6.20201,-4.87232 11.56559,-7.09483 3.99551,-1.65562 8.66078,-3.1487 11.98191,-3.83469 3.49809,-0.72256 9.33466,-1.26595 10.68871,-0.99514 0.98572,0.19715 1.06929,0.32253 0.97182,1.45804 -0.10545,1.2285 -0.1342,1.24887 -2.57608,1.82646 -8.0507,1.90426 -18.58678,7.71071 -21.34306,11.7622 -0.93026,1.36739 -1.12872,1.41591 -3.88056,0.94866 z"
         id="path1221" />
      <path
         style="fill:#273839;fill-opacity:1;stroke-width:0.352778"
         d="m 118.45144,216.25832 c -12.63484,-1.08754 -23.90644,-3.81314 -33.46539,-8.09233 -5.43801,-2.4344 -5.51656,-2.49693 -5.51656,-4.39156 0,-1.77413 0.29906,-1.91687 1.79072,-0.85471 0.55973,0.39856 2.49202,1.42306 4.29399,2.27666 12.40956,5.87846 31.18693,8.56818 50.35974,7.21365 13.23729,-0.93519 24.35818,-3.6342 33.37452,-8.09991 2.34869,-1.16328 4.37275,-2.11506 4.49792,-2.11506 0.12516,0 0.22756,0.70357 0.22756,1.56348 0,1.93354 -0.38758,2.24239 -5.9769,4.76284 -14.19042,6.39904 -32.30026,9.22476 -49.5856,7.73694 z"
         id="path1219" />
      <path
         style="fill:#273839;fill-opacity:1;stroke-width:0.352778"
         d="m 120.21533,239.22759 c -16.24246,-0.89246 -31.25656,-5.96385 -39.37773,-13.30085 -1.23138,-1.11248 -1.74617,-2.42213 -1.17613,-2.99217 0.10559,-0.10559 1.49465,0.59409 3.08681,1.55484 21.77771,13.14123 51.987,15.65279 75.56705,6.28255 3.9732,-1.57887 9.30723,-4.37176 12.57513,-6.5843 1.53067,-1.03634 2.85964,-1.88426 2.95326,-1.88426 0.0936,0 0.17022,0.53917 0.17022,1.19817 0,1.38643 -1.15213,2.55268 -4.92812,4.9885 -7.3759,4.75806 -17.37111,8.29594 -27.87435,9.86635 -3.11149,0.46522 -14.92102,1.32673 -16.05725,1.17138 -0.19403,-0.0265 -2.41653,-0.16162 -4.93889,-0.30021 z"
         id="path1185" />
    </g>
  </g>
</svg>
