<?xml version="1.0" encoding="UTF-8" standalone="no"?>
<svg
   xmlns:osb="http://www.openswatchbook.org/uri/2009/osb"
   xmlns:dc="http://purl.org/dc/elements/1.1/"
   xmlns:cc="http://creativecommons.org/ns#"
   xmlns:rdf="http://www.w3.org/1999/02/22-rdf-syntax-ns#"
   xmlns:svg="http://www.w3.org/2000/svg"
   xmlns="http://www.w3.org/2000/svg"
   xmlns:sodipodi="http://sodipodi.sourceforge.net/DTD/sodipodi-0.dtd"
   xmlns:inkscape="http://www.inkscape.org/namespaces/inkscape"
   width="512"
   height="512"
   viewBox="0 0 135.46667 135.46667"
   version="1.1"
   id="svg8"
   inkscape:version="1.0.1 (3bc2e813f5, 2020-09-07)"
   sodipodi:docname="Launch Pad.svg">
  <defs
     id="defs2">
    <linearGradient
       id="linearGradient1099-6-5"
       osb:paint="gradient">
      <stop
         style="stop-color:#273839;stop-opacity:0.5"
         offset="0"
         id="stop1151" />
      <stop
         style="stop-color:#273839;stop-opacity:1"
         offset="1"
         id="stop1153" />
    </linearGradient>
  </defs>
  <sodipodi:namedview
     id="base"
     pagecolor="#ffffff"
     bordercolor="#666666"
     borderopacity="1.0"
     inkscape:pageopacity="0.0"
     inkscape:pageshadow="2"
     inkscape:zoom="0.98994949"
     inkscape:cx="166.47703"
     inkscape:cy="177.69942"
     inkscape:document-units="px"
     inkscape:current-layer="g1320"
     inkscape:document-rotation="0"
     showgrid="false"
     inkscape:pagecheckerboard="true"
     inkscape:object-nodes="true"
     fit-margin-top="0"
     fit-margin-left="0"
     fit-margin-right="0"
     fit-margin-bottom="0"
     inkscape:window-width="1600"
     inkscape:window-height="837"
     inkscape:window-x="-8"
     inkscape:window-y="-8"
     inkscape:window-maximized="1"
     units="px" />
  <metadata
     id="metadata5">
    <rdf:RDF>
      <cc:Work
         rdf:about="">
        <dc:format>image/svg+xml</dc:format>
        <dc:type
           rdf:resource="http://purl.org/dc/dcmitype/StillImage" />
        <dc:title></dc:title>
      </cc:Work>
    </rdf:RDF>
  </metadata>
  <g
     inkscape:label="Layer 1"
     inkscape:groupmode="layer"
     id="layer1"
     transform="translate(-59.62574,-110.15787)">
    <path
       style="fill:#000000;stroke-width:0.264583"
       id="path853"
       d="" />
    <path
       style="fill:#000000;stroke-width:0.264583"
       id="path849"
       d="" />
    <g
       id="g1061"
       transform="translate(9.0714285,1.8898814)">
      <g
         id="g1320"
         transform="translate(7.2162774,44.901282)">
        <path
           style="fill:#273839;fill-opacity:1;stroke-width:0.33279"
           d="m 115.61305,178.74229 c -0.0298,-0.0225 -4.58747,-0.11898 -10.12805,-0.21454 -7.2005,-0.12414 -10.213,-0.28923 -10.56187,-0.57876 -0.28565,-0.23707 -0.73139,-0.2987 -1.07471,-0.14862 -0.32264,0.14106 -0.73638,0.21652 -0.91941,0.16769 -0.18304,-0.0488 -3.10056,-0.3757 -6.48339,-0.72638 -3.382837,-0.35067 -6.677466,-0.77911 -7.321402,-0.95208 -0.643937,-0.17299 -1.919575,-0.39717 -2.834749,-0.49821 -3.629852,-0.40071 -15.132344,-3.50289 -17.426288,-4.69981 -0.482463,-0.25173 -1.074116,-0.45861 -1.314785,-0.45975 -0.872929,-0.004 -6.240001,-3.07706 -7.99932,-4.58009 -3.983524,-3.40324 -4.050224,-7.48188 -0.181223,-11.0817 1.59824,-1.48704 5.007164,-3.68178 6.41041,-4.12715 0.665739,-0.2113 0.710153,-0.11194 0.710153,1.58911 0,1.58007 -0.110183,1.88668 -0.852841,2.3733 -1.211291,0.79367 -2.807857,3.45247 -2.807857,4.676 0,4.11411 7.1536,8.39508 19.135471,11.45136 2.258042,0.57598 13.601033,2.57128 15.141981,2.66358 0.27455,0.0165 1.54748,0.16735 2.82872,0.33535 10.94949,1.43569 35.15075,1.19719 46.42433,-0.45751 0.82365,-0.12087 2.39609,-0.35017 3.49429,-0.50951 16.82901,-2.44174 28.30496,-7.28959 29.76657,-12.5745 0.46478,-1.68055 -0.11509,-3.01589 -2.26799,-5.22334 -1.45848,-1.49542 -2.00516,-2.31965 -2.14012,-3.22671 -0.0997,-0.67002 -0.0997,-1.29977 -8e-5,-1.39942 0.24551,-0.2455 3.17834,1.26293 5.44955,2.80287 3.19629,2.16716 5.08563,4.86848 4.7249,6.75551 -0.0935,0.48901 -0.0165,0.87987 0.17335,0.87987 0.18785,0 -0.0101,0.72832 -0.43925,1.61849 -3.33661,6.91646 -19.04849,12.5565 -41.3196,14.83237 -2.77987,0.28407 -5.28827,0.42672 -5.57424,0.31698 -0.28597,-0.10968 -0.78202,-0.0789 -1.10233,0.0686 -0.46125,0.21227 -11.30008,1.08528 -11.51022,0.92708 z M 99.08564,165.63368 c -14.453115,-1.08553 -26.577097,-3.81629 -33.07364,-7.44935 -2.327847,-1.30181 -5.167547,-4.17622 -5.247487,-5.31164 -0.246028,-3.49437 1.419586,-5.46414 7.038791,-8.32407 6.890619,-3.50703 7.518713,-3.80288 9.83058,-4.6305 3.877698,-1.38815 11.331396,-2.87648 18.587766,-3.71154 l 1.62869,-0.18743 2.99606,2.94803 c 1.78451,1.75589 2.90107,3.10172 2.76115,3.32811 -0.1292,0.20904 -0.73101,0.38009 -1.33736,0.38009 -1.77727,0 -7.37816,1.55018 -9.25565,2.56172 -0.95202,0.5129 -1.95667,1.33754 -2.23257,1.83249 -0.46103,0.8271 -0.44723,0.97523 0.17045,1.83035 0.99271,1.37434 4.55208,3.02036 8.31307,3.84437 2.92093,0.63995 4.30225,0.7254 11.63422,0.71971 7.33541,-0.006 8.71001,-0.0931 11.618,-0.73859 7.47799,-1.65994 10.23459,-4.14576 7.37836,-6.65356 -1.42098,-1.24763 -4.05054,-2.24482 -7.87941,-2.98806 -1.62874,-0.31616 -2.96184,-0.65267 -2.96245,-0.7478 -6.7e-4,-0.0951 1.38412,-1.5455 3.0772,-3.22304 l 3.07832,-3.05007 4.32627,0.63404 c 9.16377,1.34298 15.76889,3.12992 19.73238,5.33835 1.04446,0.58196 2.23005,1.22613 2.63464,1.43149 0.40459,0.20535 1.13745,1.16684 1.6286,2.13665 0.80656,1.59263 0.8555,1.88837 0.50572,3.05586 -0.44403,1.482 -2.69817,3.64453 -5.03308,4.8285 -4.24306,2.15154 -12.25858,4.19519 -21.13222,5.38789 -5.50714,0.74019 -26.9223,0.85578 -32.4471,0.17511 -8.49259,-1.04631 -16.600643,-2.95091 -20.857547,-4.89949 -5.064175,-2.3181 -6.981076,-4.32855 -6.679364,-7.00534 0.09147,-0.81151 0.05532,-1.47548 -0.08035,-1.47548 -0.529431,0 -2.001059,2.58448 -1.999882,3.5122 0.005,3.94964 7.74686,7.76534 20.1326,9.92268 22.261043,3.87739 52.293203,1.96865 64.943903,-4.12759 3.05114,-1.47031 4.57147,-2.62222 5.28692,-4.00576 0.90897,-1.75776 0.49512,-3.37885 -1.31935,-5.16789 -0.58081,-0.57265 -0.58839,-0.64311 -0.0799,-0.74106 0.67604,-0.13022 2.58322,1.0057 4.32068,2.57343 5.82287,5.25402 0.27736,10.92824 -14.37185,14.70536 -4.31329,1.11214 -10.10575,2.09663 -16.68244,2.83537 -5.30664,0.59607 -23.31406,0.87997 -28.9528,0.45646 z M 85.025228,119.13544 C 70.611226,104.71784 58.817952,92.809651 58.817952,92.672816 c 0,-0.136848 0.187195,-0.243635 0.415989,-0.237295 0.427717,0.01132 1.796852,1.116366 19.399111,15.649779 5.666359,4.67846 15.079358,12.44878 20.917768,17.26737 l 10.6153,8.76106 3.52213,-3.62295 c 12.00468,-12.34832 27.64358,-28.53748 33.50392,-34.682781 1.45425,-1.524946 2.69476,-2.912479 2.7567,-3.083413 0.062,-0.170933 -1.84744,-2.22888 -4.24308,-4.573201 -2.39564,-2.344335 -4.35571,-4.363738 -4.35571,-4.487571 0,-0.12383 6.06511,-0.225154 13.47802,-0.225154 h 13.47803 v 13.311625 c 0,7.321385 -0.12594,13.311615 -0.27988,13.311615 -0.15393,0 -2.13053,-1.87194 -4.39243,-4.15988 -2.2619,-2.28793 -4.21198,-4.15988 -4.3335,-4.15988 -0.12151,0 -3.42814,2.95767 -7.34804,6.57262 -3.91989,3.61494 -14.51588,13.38648 -23.54664,21.71458 -9.03076,8.32808 -16.58912,15.18201 -16.79636,15.23095 -0.20722,0.0489 -12.17005,-11.70724 -26.584052,-26.12485 z m -4.076688,17.86601 c -2.589708,-0.72924 -5.257112,-1.4204 -8.133236,-2.10743 -1.727757,-0.4127 -3.195137,-0.91166 -3.260846,-1.10879 -0.06812,-0.20436 0.495397,-0.42714 1.311026,-0.5183 3.821425,-0.42711 9.58387,-1.36709 9.58387,-1.56332 0,-0.20436 -8.512473,-8.00586 -14.892389,-13.64856 -2.699428,-2.38749 -3.314601,-3.33531 -2.163139,-3.33282 0.320311,6.7e-4 3.27799,1.74178 6.572618,3.86908 3.294629,2.1273 6.739013,4.32891 7.654189,4.89248 3.662283,2.25521 4.813672,3.26982 8.570304,7.55226 3.051823,3.47896 3.819623,4.54201 3.494303,4.83797 -0.39298,0.35751 -6.222389,1.51615 -7.25829,1.44264 -0.264019,-0.0187 -0.929305,-0.16057 -1.47841,-0.31521 z m 54.74409,0.0237 c -2.3893,-0.31108 -3.33151,-0.62719 -3.31219,-1.11121 0.009,-0.21645 2.44218,-2.45995 5.40785,-4.98552 3.66593,-3.12194 6.40423,-5.15356 8.55365,-6.34619 10.26456,-5.69541 17.66085,-9.55356 17.96012,-9.36859 0.71716,0.44322 0.2499,1.0589 -2.07867,2.73902 -3.01838,2.1778 -11.35924,8.13905 -15.63187,11.17216 -1.78458,1.26687 -3.2447,2.41501 -3.2447,2.55142 0,0.20955 6.07837,1.2067 9.07064,1.48802 1.96983,0.18518 1.56032,1.0191 -0.66358,1.35129 -0.87166,0.13022 -3.90508,0.82139 -6.74091,1.53597 -5.2219,1.3158 -6.03773,1.40103 -9.32034,0.97363 z"
           id="path1693" />
      </g>
    </g>
  </g>
</svg>
