<svg height="275.10101" viewBox="0 0 512 275.10103" width="512" xmlns="http://www.w3.org/2000/svg"><path d="m255.35496 174.34427q-54.22233 88.75678-123.29124 88.75678-53.254072 0-86.820273-34.2117-33.24345-34.53446-33.24345-90.04779 0-52.285817 34.857209-89.40229 34.85721-37.439225 85.206514-37.439225 76.16946 0 124.58225 88.111275 52.93132-88.111275 122.64573-88.111275 53.57683 0 87.14303 34.534458 33.5662 34.211705 33.5662 89.725037 0 51.96306-34.85721 89.40229-34.85721 37.43922-85.85202 37.43922-72.94193 0-123.93674-88.75678zm20.97888-36.79372q42.2805 83.9155 102.95786 83.9155 35.17997 0 56.15884-23.23814 21.30163-23.56089 21.30163-61.96837 0-36.14822-21.94713-60.031859-21.94713-23.883643-55.51334-23.883643-55.83608 0-102.95786 85.206512zm-40.9895-.6455q-42.60326-84.561012-103.28062-84.561012-35.502715 0-56.804343 24.206395-20.978876 24.206397-20.978876 62.291127 0 35.50271 21.62438 59.0636 21.947132 23.56089 56.158839 23.56089 56.80434 0 103.28062-84.561z" fill="#273839"/></svg>