<?xml version="1.0" encoding="UTF-8" standalone="no"?>
<svg
   xmlns:osb="http://www.openswatchbook.org/uri/2009/osb"
   xmlns:dc="http://purl.org/dc/elements/1.1/"
   xmlns:cc="http://creativecommons.org/ns#"
   xmlns:rdf="http://www.w3.org/1999/02/22-rdf-syntax-ns#"
   xmlns:svg="http://www.w3.org/2000/svg"
   xmlns="http://www.w3.org/2000/svg"
   xmlns:sodipodi="http://sodipodi.sourceforge.net/DTD/sodipodi-0.dtd"
   xmlns:inkscape="http://www.inkscape.org/namespaces/inkscape"
   width="512"
   height="512"
   viewBox="0 0 135.46667 135.46667"
   version="1.1"
   id="svg8"
   inkscape:version="1.0.1 (3bc2e813f5, 2020-09-07)"
   sodipodi:docname="Silence.svg">
  <defs
     id="defs2">
    <linearGradient
       id="linearGradient1099-6-5"
       osb:paint="gradient">
      <stop
         style="stop-color:#273839;stop-opacity:0.5"
         offset="0"
         id="stop1151" />
      <stop
         style="stop-color:#273839;stop-opacity:1"
         offset="1"
         id="stop1153" />
    </linearGradient>
  </defs>
  <sodipodi:namedview
     id="base"
     pagecolor="#ffffff"
     bordercolor="#666666"
     borderopacity="1.0"
     inkscape:pageopacity="0.0"
     inkscape:pageshadow="2"
     inkscape:zoom="0.49497475"
     inkscape:cx="21.208273"
     inkscape:cy="308.48754"
     inkscape:document-units="px"
     inkscape:current-layer="g1320"
     inkscape:document-rotation="0"
     showgrid="false"
     inkscape:pagecheckerboard="true"
     inkscape:object-nodes="true"
     fit-margin-top="0"
     fit-margin-left="0"
     fit-margin-right="0"
     fit-margin-bottom="0"
     inkscape:window-width="1600"
     inkscape:window-height="837"
     inkscape:window-x="-8"
     inkscape:window-y="-8"
     inkscape:window-maximized="1"
     units="px" />
  <metadata
     id="metadata5">
    <rdf:RDF>
      <cc:Work
         rdf:about="">
        <dc:format>image/svg+xml</dc:format>
        <dc:type
           rdf:resource="http://purl.org/dc/dcmitype/StillImage" />
        <dc:title></dc:title>
      </cc:Work>
    </rdf:RDF>
  </metadata>
  <g
     inkscape:label="Layer 1"
     inkscape:groupmode="layer"
     id="layer1"
     transform="translate(-59.62574,-110.15787)">
    <path
       style="fill:#000000;stroke-width:0.264583"
       id="path853"
       d="" />
    <path
       style="fill:#000000;stroke-width:0.264583"
       id="path849"
       d="" />
    <g
       id="g1061"
       transform="translate(9.0714285,1.8898814)">
      <g
         id="g1320"
         transform="translate(7.2162774,44.901282)">
        <g
           id="g2176"
           transform="matrix(1.4024088,0,0,1.40241,-47.975834,-52.599081)">
          <path
             style="fill:#273839;stroke-width:0.352778;fill-opacity:1"
             d="m 105.45187,138.51289 c -0.93825,-0.99871 -0.71499,-1.61361 0.58587,-1.61361 0.50684,0 1.21185,-0.26273 1.56668,-0.58385 0.69536,-0.6293 0.91216,-0.17707 0.2382,0.49689 -0.22381,0.22381 -0.39318,0.89056 -0.37637,1.48166 0.0384,1.35216 -0.85821,1.44961 -2.01438,0.21891 z"
             id="path2091" />
          <g
             id="g2157">
            <path
               style="fill:#273839;fill-opacity:0.560784;stroke-width:0.352778"
               d="m 92.935195,91.794649 c -0.426611,-0.690275 5.701648,-2.914542 11.433805,-4.149925 2.2812,-0.491641 4.47562,-0.643225 9.17222,-0.633589 5.37018,0.01102 6.67863,0.131123 10.05417,0.922888 4.30208,1.009094 10.03381,3.085665 10.02862,3.633308 -0.005,0.543695 -0.87886,0.34518 -5.26612,-1.196512 -5.00344,-1.758217 -9.47236,-2.504818 -14.99306,-2.504818 -5.47129,0 -9.94753,0.743064 -14.993054,2.488874 -2.23132,0.772063 -4.31684,1.493602 -4.634491,1.60342 -0.317652,0.109818 -0.678589,0.03618 -0.80209,-0.163646 z"
               id="path2101" />
            <path
               style="fill:#273839;fill-opacity:0.560784;stroke-width:0.352778"
               d="m 100.53462,99.377597 -0.801901,-0.853585 1.524391,-0.565226 c 4.70627,-1.745029 10.67042,-2.524395 15.30006,-1.999338 3.31817,0.376321 8.17103,1.520725 9.5807,2.259328 l 0.83193,0.435887 -0.83489,0.784333 c -0.7778,0.730704 -0.91728,0.750234 -2.03998,0.285634 -5.33392,-2.207302 -16.9413,-2.068943 -22.21231,0.264769 -0.34677,0.153531 -0.83879,-0.06977 -1.348,-0.611802 z"
               id="path2099" />
            <path
               style="fill:#273839;fill-opacity:0.560784;stroke-width:0.352778"
               d="m 144.98854,143.83177 c -0.76423,-0.81349 -0.77585,-0.9096 -0.25932,-2.14582 0.99738,-2.38707 1.62033,-6.46523 1.62033,-10.60751 0,-4.14227 -0.62295,-8.22044 -1.62033,-10.6075 -0.51653,-1.23622 -0.50491,-1.33234 0.25932,-2.14582 l 0.80007,-0.85164 0.43589,0.83192 c 1.63287,3.11645 2.78956,11.2901 2.25933,15.96538 -0.37632,3.31817 -1.52073,8.17103 -2.25933,9.5807 l -0.43589,0.83193 z"
               id="path2089" />
            <path
               style="fill:#273839;fill-opacity:0.560784;stroke-width:0.352778"
               d="m 80.24969,143.19799 c -1.721957,-4.64298 -2.482971,-10.51245 -1.983035,-15.29455 0.343415,-3.2849 1.476696,-8.14406 2.23851,-9.59804 l 0.435887,-0.83192 0.808087,0.86017 c 0.674104,0.71755 0.741621,0.98436 0.407214,1.60921 -0.910353,1.70101 -1.803381,7.21531 -1.803381,11.13558 0,3.93043 0.89354,9.43554 1.809192,11.14645 0.34516,0.64494 0.274356,0.89222 -0.468026,1.6346 l -0.874708,0.87471 z"
               id="path2087" />
            <path
               style="fill:#273839;fill-opacity:0.560784;stroke-width:0.352778"
               d="m 153.25317,152.10829 c -0.10646,-0.17227 0.51481,-1.80863 1.38062,-3.63636 5.12261,-10.81394 5.12261,-23.97304 0,-34.78698 -1.44947,-3.05984 -1.65315,-3.94956 -0.90417,-3.94956 0.15557,0 0.85914,1.2607 1.56349,2.80157 5.53605,12.11091 5.53441,24.97565 -0.005,37.09331 -1.22631,2.68274 -1.61568,3.15682 -2.03521,2.47802 z"
               id="path2085" />
            <path
               style="fill:#273839;fill-opacity:0.560784;stroke-width:0.352778"
               d="m 71.242038,149.19628 c -3.064721,-6.69013 -4.106017,-12.14394 -3.820733,-20.01114 0.216576,-5.97249 1.157812,-10.1601 3.459793,-15.39281 1.784649,-4.05674 1.958518,-4.33021 2.444254,-3.84448 0.275423,0.27542 -0.0073,1.16613 -1.006987,3.17205 -2.770702,5.55976 -4.052281,11.2547 -4.04136,17.95854 0.01103,6.76798 1.2803,12.4181 4.028538,17.93285 1.263971,2.53634 1.442233,3.41021 0.69566,3.41021 -0.154941,0 -0.946565,-1.45135 -1.759165,-3.22522 z"
               id="path2083" />
            <path
               style="fill:#273839;fill-opacity:0.560784;stroke-width:0.352778"
               d="m 109.60679,166.16594 c -2.67258,-0.31195 -7.75053,-1.56531 -9.00518,-2.22268 l -0.841742,-0.44104 0.860172,-0.80809 c 0.71714,-0.67371 0.98457,-0.7415 1.60834,-0.40767 1.75511,0.9393 6.95293,1.76144 11.13645,1.76144 4.18352,0 9.38135,-0.82214 11.13645,-1.76144 0.62377,-0.33383 0.8912,-0.26604 1.60834,0.40767 l 0.86018,0.80809 -0.80527,0.41746 c -1.49309,0.77404 -6.07536,1.88456 -9.27192,2.24708 -3.49683,0.39656 -3.88175,0.39652 -7.28582,-7.1e-4 z"
               id="path2081" />
            <path
               style="fill:#273839;fill-opacity:0.560784;stroke-width:0.352778"
               d="m 107.19122,174.99081 c -5.12332,-0.71972 -14.330637,-3.61437 -14.05159,-4.41762 0.167336,-0.48168 0.698426,-0.35781 5.232146,1.22036 10.495584,3.65348 22.160044,3.34692 32.567344,-0.85592 1.70068,-0.68679 2.51483,-0.86118 2.78045,-0.59556 0.26563,0.26563 -0.0254,0.54772 -0.99373,0.96338 -5.84356,2.50826 -11.30913,3.68494 -17.9499,3.86445 -2.91041,0.0787 -6.32354,-0.002 -7.58472,-0.17909 z"
               id="path2079" />
            <g
               id="g2140">
              <g
                 id="g2132">
                <path
                   id="path2069"
                   style="fill:#273839;stroke-width:1.33333;fill-opacity:1"
                   d="m 106.73438,87.251953 c -6.27839,0 -10.732427,4.375868 -10.732427,10.544922 0,4.275075 1.527997,6.279005 15.351567,20.138675 l 15.35156,15.39257 -6.01953,5.90626 c -5.81681,5.70878 -6.01758,6.17403 -6.01758,13.94531 v 8.04101 l 20.31836,20.34961 20.3164,20.34766 h 7.30274 c 6.91316,0 7.64628,-0.33467 13.68164,-6.2793 l 6.375,-6.28125 6.00781,5.89649 6.00781,5.89648 -6.0039,6.0957 c -5.76271,5.85067 -6.00586,6.41688 -6.00586,14.03516 v 7.93945 l 20.31836,20.34961 20.3164,20.34766 h 7.30274 c 6.91317,0 7.64626,-0.33471 13.68164,-6.2793 l 6.375,-6.28125 6.00781,5.89649 6.00781,5.89648 -6.0039,6.0957 c -5.76269,5.85067 -6.00586,6.41684 -6.00586,14.03516 v 7.93945 l 20.31836,20.34961 20.3164,20.34766 h 7.30274 c 6.91627,0 7.6429,-0.3336 13.69922,-6.29883 l 6.39648,-6.29883 6.28321,6.28321 6.2832,6.28125 -6.30078,6.39648 c -5.95847,6.04944 -6.29883,6.78957 -6.29883,13.66797 v 7.27148 l 20.31836,20.34961 20.3164,20.34766 h 7.56055 c 7.18178,0 7.87619,-0.30647 13.87305,-6.13477 l 6.3125,-6.13672 15.27344,15.27344 c 14.81034,14.81042 15.43282,15.26077 20.57226,14.89453 6.38929,-0.45509 10.43945,-4.49611 10.43945,-10.41406 0,-3.46409 -2.44043,-6.55654 -15.55078,-19.70117 l -15.55273,-15.59375 6.21875,-6.04297 c 6.10023,-5.92868 6.21875,-6.2049 6.21875,-14.41211 v -8.36719 l -19.65039,-19.68164 -19.64844,-19.68359 h -7.97266 c -7.71174,0 -8.17765,0.20426 -14.36523,6.29883 l -6.39648,6.30078 -6.28321,-6.2832 -6.28125,-6.28321 6.29883,-6.39648 c 6.08886,-6.18168 6.29883,-6.6594 6.29883,-14.33203 v -7.93946 l -19.65039,-19.68164 -19.64844,-19.68359 h -8.63867 c -8.44679,0 -8.7724,0.13349 -14.73438,6.00586 l -6.0957,6.0039 -5.89648,-6.00781 -5.89649,-6.00781 6.28125,-6.375 c 6.08047,-6.17329 6.2793,-6.63162 6.2793,-14.38672 v -8.00977 l -20.42969,-20.27734 -20.43164,-20.27734 h -6.98242 c -6.54561,0 -7.42203,0.41523 -13.99414,6.63086 l -7.00977,6.6289 -5.85742,-5.96679 -5.85547,-5.9668 6.28125,-6.375 c 6.08047,-6.17329 6.2793,-6.63166 6.2793,-14.38672 v -8.00977 l -20.42969,-20.27734 -20.43164,-20.27734 h -7.28516 c -6.98157,0 -7.56321,0.27944 -13.86914,6.68164 l -6.58007,6.68164 -15.38868,-15.34961 C 113.06306,89.01456 110.77109,87.251953 106.73438,87.251953 Z m 55.83398,35.999997 c 4.3055,0 6.13292,1.31744 17.12695,12.35743 11.48642,11.53437 12.30664,12.72234 12.30664,17.79492 0,3.56277 -0.83677,6.19105 -2.42773,7.63086 -2.27628,2.05999 -2.66498,1.94899 -6.25,-1.79297 -7.6083,-7.94136 -19.32227,-3.53189 -19.32227,7.27343 0,2.96534 1.19821,5.38567 3.99024,8.06055 3.74196,3.58503 3.85297,3.97175 1.79297,6.24805 -1.41658,1.56529 -4.06294,2.42773 -7.45313,2.42773 -4.86028,0 -6.20121,-0.946 -17.79297,-12.55664 -10.94538,-10.96316 -12.53711,-13.13755 -12.53711,-17.12695 0,-2.88915 0.98886,-5.46488 2.68946,-7.00391 2.61916,-2.37029 2.78699,-2.34053 6.40625,1.12696 4.57677,4.38482 13.21909,4.96442 16.69726,1.12109 3.52556,-3.89571 2.85355,-12.07361 -1.35351,-16.46484 -3.46747,-3.61926 -3.49728,-3.78709 -1.12696,-6.40625 1.58584,-1.75234 4.11382,-2.68946 7.25391,-2.68946 z m 68,68 c 4.30549,0 6.13291,1.31748 17.12695,12.35743 11.48644,11.53439 12.30664,12.7223 12.30664,17.79492 0,3.56273 -0.83678,6.19105 -2.42773,7.63086 -2.27626,2.06003 -2.66497,1.94899 -6.25,-1.79297 -4.92238,-5.13785 -11.34312,-5.4245 -16.05078,-0.7168 -4.70771,4.70767 -4.4191,11.1284 0.71875,16.05078 3.74196,3.58503 3.853,3.97179 1.79297,6.24805 -1.46574,1.61964 -4.0126,2.40807 -7.65625,2.36914 -5.08521,-0.0545 -6.2694,-0.88089 -17.23047,-12.03711 -10.33963,-10.52368 -11.81335,-12.61799 -12.14258,-17.24023 -0.27009,-3.79204 0.32308,-5.89273 2.125,-7.52344 2.3687,-2.14367 2.69542,-2.07486 6.2168,1.29883 4.57677,4.38482 13.21908,4.96445 16.69726,1.12109 3.52555,-3.89567 2.85355,-12.0736 -1.35351,-16.46484 -3.46746,-3.61924 -3.49729,-3.78708 -1.12696,-6.40625 1.58586,-1.75231 4.1138,-2.68946 7.25391,-2.68946 z m 68,68 c 4.30549,0 6.13291,1.31745 17.12695,12.35743 11.6987,11.74756 12.30664,12.64241 12.30664,18.0957 0,3.42493 -0.83957,6.57782 -2.08398,7.82226 -1.89041,1.89037 -2.48757,1.69486 -6.39844,-2.0957 -5.42343,-5.2566 -11.07818,-5.57207 -15.5,-0.86523 -4.64659,4.94604 -4.44097,11.04943 0.55274,16.44531 3.9801,4.30072 4.0224,4.48141 1.50781,6.33398 -1.42349,1.04871 -4.8738,1.90625 -7.66797,1.90625 -4.61998,0 -6.19136,-1.10442 -17.33008,-12.17968 -11.79609,-11.72863 -12.23514,-12.38069 -11.93164,-17.66602 0.17333,-3.01844 1.1764,-6.35824 2.23047,-7.42187 1.67263,-1.6878 2.39587,-1.47636 5.67578,1.66601 2.81571,2.6976 5.10841,3.60156 9.14453,3.60156 6.54433,0 9.40509,-2.75793 9.97852,-9.61914 0.33173,-3.9693 -0.35194,-5.74983 -3.44336,-8.97656 -3.75904,-3.9236 -3.79448,-4.09317 -1.42188,-6.71484 1.58582,-1.75234 4.1138,-2.68946 7.25391,-2.68946 z m 67.01367,69.08594 c 0.44425,10e-4 0.90966,0.0157 1.39649,0.043 5.23415,0.29382 6.67877,1.30068 18.02343,12.56836 13.46529,13.37393 15.07734,17.30402 9.77149,23.82226 l -2.5625,3.14649 -3.84375,-3.66602 c -4.70627,-4.48909 -13.30706,-5.11708 -16.82617,-1.22851 -3.51561,3.88467 -2.85296,12.07522 1.33007,16.4414 2.95367,3.08293 3.25752,4.02771 1.83789,5.73828 -1.03714,1.24967 -3.89289,2.04883 -7.32421,2.04883 -5.28911,0 -6.35236,-0.7155 -17.83789,-12.00586 -11.70327,-11.50439 -12.2129,-12.24771 -12.2129,-17.83593 0,-8.28272 2.886,-10.39278 7.78907,-5.69532 7.47511,7.1616 20.21093,3.07395 20.21093,-6.48632 0,-2.52719 -1.46868,-5.36601 -4.27343,-8.25977 -4.00948,-4.13673 -4.13427,-4.54734 -2.02344,-6.6582 1.34734,-1.34731 3.4352,-1.98138 6.54492,-1.97266 z"
                   transform="matrix(0.26458334,0,0,0.26458334,43.338034,63.366707)" />
                <g
                   id="g2126">
                  <path
                     style="fill:#273839;stroke-width:0.352778;fill-opacity:1"
                     d="m 117.77455,126.53334 c 0,-0.0752 0.23715,-0.59145 0.527,-1.14721 0.28984,-0.55576 0.52797,-1.44703 0.52916,-1.9806 0.003,-1.22096 1.0595,-1.32039 2.1051,-0.19807 0.92615,0.99411 0.99034,2.5365 0.0937,2.25192 -0.34407,-0.10921 -1.21719,0.11853 -1.94028,0.50608 -0.72307,0.38755 -1.31469,0.64309 -1.31469,0.56788 z"
                     id="path2097" />
                  <path
                     id="path2093"
                     style="fill:#273839;stroke-width:1.33333;fill-opacity:1"
                     d="m 422.92383,87.251953 c -4.44805,0 -6.25428,1.366973 -20.27149,15.347657 l -15.38867,15.34961 -6.58008,-6.68164 c -6.30595,-6.4022 -6.88756,-6.6836 -13.86914,-6.6836 h -7.28515 l -20.43164,20.27735 -20.42969,20.27929 v 8.00977 c 0,7.75506 0.20078,8.21343 6.28125,14.38672 l 6.2793,6.375 -5.89649,6.00781 -5.89453,6.00781 -6.32227,-6.22656 c -6.28229,-6.18769 -6.37194,-6.22443 -14.71679,-5.93945 l -8.39649,0.28711 -8.90429,8.80469 -8.90625,8.80468 4.23828,5.10547 c 2.33098,2.80842 4.86691,5.11574 5.63476,5.13086 0.76785,0.0132 3.7392,-2.37526 6.60352,-5.30859 4.19172,-4.29268 6.15589,-5.33399 10.06445,-5.33399 3.17662,0 5.69683,0.93005 7.28906,2.68946 2.372,2.62102 2.33851,2.78955 -1.33984,6.6289 -7.6775,8.01362 -3.97842,18.68164 6.47852,18.68164 3.98419,0 6.30947,-0.90894 9.05273,-3.53711 3.08292,-2.95366 4.02966,-3.2556 5.74023,-1.83593 1.24449,1.03279 2.04883,3.88795 2.04883,7.27539 0,4.62123 -0.79981,6.34851 -4.66797,10.09765 -2.56663,2.48773 -4.66601,5.06902 -4.66601,5.73633 0,0.66728 1.88768,3.59617 4.19531,6.50977 l 4.19531,5.29883 9.80469,-9.74024 9.80469,-9.73828 v -7.98828 c 0,-7.67641 -0.23287,-8.22485 -6.00391,-14.08399 l -6.00586,-6.0957 6.00782,-5.89648 6.00781,-5.89649 6.37695,6.28125 c 6.02854,5.93798 6.77314,6.2793 13.64844,6.2793 h 7.27148 l 20.34766,-20.31641 20.34961,-20.31836 v -8.07031 c 0,-7.80896 -0.1956,-8.26466 -6.01758,-13.97851 l -6.01758,-5.90626 15.35157,-15.39257 c 12.96846,-13.00234 15.3496,-16.03155 15.3496,-19.523441 0,-6.331521 -4.504,-11.160156 -10.41015,-11.160156 z m -56.10352,35.999997 c 3.08856,0 5.62454,0.9473 7.20117,2.68946 2.37034,2.61916 2.34246,2.78699 -1.125,6.40625 -4.38481,4.57677 -4.96641,13.21911 -1.12304,16.69726 3.89571,3.52558 12.0736,2.85355 16.46484,-1.35351 3.61924,-3.46749 3.78708,-3.49725 6.40625,-1.12696 1.60029,1.44824 2.68945,4.11575 2.68945,6.58594 0,3.47781 -2.1136,6.25805 -13.02343,17.12695 -11.5273,11.48402 -13.56142,12.97461 -17.71289,12.97461 -2.60285,0 -5.68286,-0.99149 -6.91797,-2.22656 -2.07867,-2.0787 -1.96491,-2.52189 1.71484,-6.71289 4.68299,-5.33359 5.08157,-10.58398 1.17774,-15.54688 -4.02422,-5.11596 -11.40603,-4.90363 -16.56055,0.47657 -3.58503,3.74196 -3.97374,3.85296 -6.25,1.79297 -1.59806,-1.44624 -2.42774,-4.07113 -2.42774,-7.6836 0,-5.14643 0.76666,-6.24848 12.35938,-17.79297 10.96804,-10.92241 12.89509,-12.30664 17.12695,-12.30664 z"
                     transform="matrix(0.26458334,0,0,0.26458334,43.338034,63.366707)" />
                </g>
              </g>
              <path
                 id="path2063"
                 style="fill:#273839;stroke-width:1.33333;fill-opacity:1"
                 d="m 200.77539,264.58594 c -0.75308,0 -5.13522,3.73081 -9.73828,8.29297 l -8.36914,8.29492 v 7.99414 c 0,7.73779 0.20039,8.19517 6.29883,14.38672 l 6.30078,6.39648 -6.2832,6.28321 -6.28321,6.2832 -6.39648,-6.30078 c -6.18761,-6.09453 -6.6535,-6.29883 -14.36524,-6.29883 h -7.9707 l -19.65039,19.68359 -19.65039,19.68164 v 8.70703 c 0,8.56109 0.0999,8.80555 6.01758,14.61329 l 6.01953,5.90625 -15.35156,15.39062 c -13.331853,13.36668 -15.351567,15.96709 -15.351567,19.76563 0,2.7761 1.095923,5.44688 3,7.3125 2.024037,1.98315 4.623977,2.93516 7.994137,2.92382 4.57845,-0.0156 6.26184,-1.2798 20.16993,-15.14843 l 15.17382,-15.13086 5.66797,6.14648 c 5.54867,6.01958 5.83687,6.14844 13.81446,6.14844 h 8.14843 l 20.34766,-20.31641 20.34961,-20.31836 v -7.30273 c 0,-6.91627 -0.33357,-7.64291 -6.29883,-13.69922 l -6.29883,-6.39648 6.28125,-6.28125 6.28321,-6.28321 6.39648,6.29883 c 6.06051,5.96942 6.77905,6.29883 13.71875,6.29883 7.274,0 7.38418,-0.0614 16.30273,-9.04883 l 8.97852,-9.04687 -5.34766,-5.22266 -5.34961,-5.22266 -5.05468,4.9375 c -4.16126,4.06337 -6.0209,4.9375 -10.50391,4.9375 -3.27235,0 -6.12529,-0.81836 -7.14648,-2.04883 -1.41963,-1.71057 -1.11773,-2.65535 1.83593,-5.73828 7.07615,-7.38595 3.07917,-20.21289 -6.29882,-20.21289 -2.73744,0 -5.45783,1.37594 -8.44727,4.27344 -4.02779,3.90387 -4.59115,4.09046 -6.52539,2.15625 -1.16455,-1.16455 -2.26444,-4.43758 -2.44336,-7.27344 -0.27882,-4.41906 0.4459,-5.96486 5.06641,-10.81445 l 5.39062,-5.6582 -4.53125,-4.67578 c -2.49209,-2.57122 -5.14731,-4.67383 -5.90039,-4.67383 z m -37.91211,64 c 3.90827,0 6.76509,0.74791 7.84961,2.05468 1.43315,1.72683 1.03521,2.74709 -2.50195,6.39649 -5.32343,5.49241 -5.61512,11.09571 -0.81055,15.60937 4.48452,4.21297 11.81558,3.76145 16.88672,-1.04101 4.76393,-4.51151 7.71484,-2.4075 7.71484,5.50195 0,5.20116 -0.73529,6.26214 -12.35937,17.83789 -11.56647,11.51838 -12.70865,12.30664 -17.83594,12.30664 -3.30036,0 -6.15367,-0.81488 -7.17773,-2.04883 -1.41967,-1.71057 -1.11771,-2.65535 1.83593,-5.73828 4.36091,-4.55183 4.93023,-13.20539 1.09766,-16.67382 -3.89571,-3.52555 -12.07361,-2.8516 -16.46484,1.35546 -3.61926,3.46746 -3.78709,3.49729 -6.40625,1.12696 -1.75234,-1.58585 -2.68946,-4.1138 -2.68946,-7.25391 0,-4.30549 1.31747,-6.13291 12.35743,-17.12695 12.00245,-11.95249 12.53586,-12.30664 18.5039,-12.30664 z"
                 transform="matrix(0.26458334,0,0,0.26458334,43.338034,63.366707)" />
            </g>
          </g>
        </g>
      </g>
    </g>
  </g>
</svg>
