<svg viewBox="0 0 37 37" xmlns="http://www.w3.org/2000/svg"><g fill="#273839"><path d="m14.882 34.293h7.234v2.373h-7.234z"/><path d="m15.541 17.824h5.917a.66.66 0 0 1 .659.659v14.617h-7.235v-14.617a.66.66 0 0 1 .659-.659z"/><path d="m20.711 11.276h-4.424s-.779 4.891-1.249 5.339h6.922c-.47-.448-1.249-5.339-1.249-5.339z"/><path d="m18.5.333c-2.084 1.767-2.342 7.508-2.374 8.975a.37.37 0 0 0 .395.343h3.951a.371.371 0 0 0 .4-.338v-.005c-.032-1.467-.29-7.208-2.372-8.975z"/><path d="m23.716 34.293h7.234v2.373h-7.234z"/><path d="m24.375 20.175h5.917a.66.66 0 0 1 .659.659v12.266h-7.235v-12.267a.659.659 0 0 1 .659-.658z"/><path d="m29.544 13.629h-4.423s-.779 4.891-1.249 5.339h6.921c-.47-.449-1.249-5.339-1.249-5.339z"/><path d="m27.332 2.685c-2.082 1.767-2.341 7.507-2.373 8.973a.371.371 0 0 0 .4.345h3.941a.369.369 0 0 0 .4-.337v-.007c-.027-1.466-.285-7.207-2.368-8.974z"/><path d="m6.049 34.293h7.234v2.373h-7.234z"/><path d="m6.708 20.175h5.916a.66.66 0 0 1 .659.659v12.266h-7.234v-12.267a.659.659 0 0 1 .659-.658z"/><path d="m11.877 13.629h-4.423s-.779 4.891-1.249 5.339h6.921c-.47-.449-1.249-5.339-1.249-5.339z"/><path d="m9.666 2.685c-2.083 1.767-2.341 7.507-2.373 8.973a.37.37 0 0 0 .394.342h3.951a.371.371 0 0 0 .4-.339v-.005c-.031-1.463-.29-7.204-2.372-8.971z"/></g></svg>