<svg viewBox="0 0 35.333 35.333" xmlns="http://www.w3.org/2000/svg" xmlns:xlink="http://www.w3.org/1999/xlink"><linearGradient id="a" gradientUnits="userSpaceOnUse" x1="23.764" x2="26.429" y1="6.222" y2="15.516"><stop offset=".192" stop-color="#273839" stop-opacity=".980392"/><stop offset=".795" stop-color="#273839" stop-opacity=".521569"/><stop offset="1" stop-color="#273839" stop-opacity="0"/></linearGradient><path d="m19.992 14.538 4.216-9.913 5.144.89 5.16 11.319-15.247.566z" fill="url(#a)"/><path d="m18.5.833a17.667 17.667 0 1 0 17.667 17.667 17.667 17.667 0 0 0 -17.667-17.667zm0 31.355a13.688 13.688 0 1 1 4.357-26.655l-1.24 2.917a10.546 10.546 0 0 0 -8.14.805 2.226 2.226 0 0 0 -3.25 2.761 10.514 10.514 0 1 0 13.349-2.729l1.242-2.922a13.683 13.683 0 0 1 -6.318 25.823zm-4.076-21.615a8.843 8.843 0 0 1 6.56-.634l-2 4.7a3.854 3.854 0 0 0 -.483-.048 3.949 3.949 0 1 0 2.444.881l2-4.7a8.925 8.925 0 1 1 -11.576 2.388 2.21 2.21 0 0 0 3.057-2.589z" fill="#273839" transform="translate(-.833 -.833)"/></svg>