<svg height="512" viewBox="0 0 135.46667 135.46667" width="512" xmlns="http://www.w3.org/2000/svg"><g fill="#273839" stroke-width=".264583" transform="matrix(1.4791837 0 0 1.4791843 -91.057674 -138.568814)"><g fill-opacity=".501961"><path d="m137.38064 104.80343v-4.5699l2.19662-2.185214c1.20814-1.201866 2.27971-2.102128 2.38125-2.000582.10155.101546.18463 2.129316.18463 4.506156v4.32153h4.42593 4.42593l-2.23728 2.24896-2.23727 2.24895h-4.56991-4.5699z"/><path d="m65.943139 107.12438-2.237276-2.24896h4.419682 4.419682l.07239-4.52488.07239-4.524879 2.315104 2.289647 2.315104 2.289652v4.48419 4.48418h-4.569904-4.569904z"/><path d="m102.8003 107.45511 1.11055-3.24115 11.04646-.0691 11.04646-.069-1.64885 3.3102-1.64885 3.31019h-10.50816-10.50817z"/><path d="m98.232879 120.68427c.0058-.0364.466622-1.37583 1.024019-2.97656l1.013452-2.91042 10.1782-.0692 10.17821-.0692-1.55633 3.04577-1.55633 3.04578h-9.6459c-5.30524 0-9.641137-.0298-9.635321-.0662z"/><path d="m95.05641 130.07698c.005-.10914.406834-1.32953.892945-2.71198l.883838-2.51354 9.282157-.0695 9.28216-.0695-.33048.73098c-.18177.40204-.79808 1.65371-1.36958 2.7815l-1.0391 2.05052h-8.80552c-4.843039 0-8.801426-.0893-8.79642-.19844z"/></g><path d="m92.351149 137.48531c.538562-1.56434 1.074888-2.99309 1.191837-3.175.245694-.38215 10.379804-.44752 24.298294-.15673l8.32819.17399-1.66907 2.80257c-.91799 1.54141-1.66969 2.89187-1.67046 3.00101-.00079.10914-7.07912.19844-15.72969.19844h-15.728303z"/><path d="m105.96809 149.78174c.0712-.18559.40129-1.55481.7335-3.04271l.60402-2.70528h6.58585 6.58584l-.68345 1.12448c-.3759.61846-1.18024 1.98768-1.78743 3.04271l-1.10398 1.91823h-5.53192c-4.37542 0-5.50484-.0705-5.40243-.33743z"/><path d="m103.77856 159.52829c0-.38192.59654-3.12368 1.08295-4.97735l.26036-.99219h4.7523c2.61377 0 4.7523.0767 4.7523.17033 0 .0937-.79158 1.52243-1.75906 3.175l-1.75907 3.00467h-3.66489c-3.011 0-3.66489-.0679-3.66489-.38046z"/><path d="m101.39731 169.45464c0-.246.97215-4.52119 1.22308-5.3787.11883-.40607.50754-.46302 3.16037-.46302 1.66368 0 3.02488.0496 3.02488.11022 0 .0606-.77856 1.42984-1.73014 3.04271l-1.73014 2.93249h-1.97403c-1.08571 0-1.97402-.10967-1.97402-.2437z"/><path d="m89.555172 169.2077c-12.387459-7.44508-18.884416-21.49213-16.470651-35.61114 1.219263-7.13192 4.154125-12.95687 9.120363-18.10159 3.035447-3.14454 5.865272-5.25234 9.485177-7.06507 2.79568-1.39998 6.415508-2.70108 6.706153-2.41043.08019.0802-.260953 1.36604-.758095 2.85746l-.903888 2.71167-2.658949 1.33977c-2.814748 1.41826-5.796277 3.55601-7.748169 5.55543-1.150688 1.1787-1.219855 1.20828-2.825131 1.20828h-1.645563l-1.336773 1.99865c-2.208067 3.30133-3.923409 7.4289-4.832136 11.6274-.455091 2.10261-.455091 10.06822 0 12.17083.872011 4.02886 3.099957 9.27333 5.087766 11.97633.796434 1.08298.873052 1.12055 2.285595 1.12055 1.454409 0 1.471786.01 3.562829 1.97674 1.155711 1.08721 3.196392 2.70724 4.534845 3.60007s2.462178 1.64919 2.497164 1.68079c.154212.13931-1.450885 4.49371-1.685245 4.57183-.143669.0479-1.230551-.49551-2.415292-1.20757z"/><path d="m111.45147 173.56265c0-.16012.36098-1.37465.80217-2.69896l.80217-2.40783 1.51294-.33448c2.06941-.4575 5.61595-1.91089 7.73529-3.16997 2.07504-1.23276 5.60523-4.03431 6.80403-5.39968.79873-.90969.94034-.96589 2.4338-.96589h1.58572l1.03228-1.52136c5.36515-7.90702 6.79292-18.5318 3.72342-27.70784-.88454-2.64424-2.82962-6.5162-4.22598-8.41241-.89927-1.22118-.91999-1.23159-2.47046-1.24183-1.51843-.01-1.60628-.0506-3.04271-1.40551-.81352-.76735-1.92911-1.75991-2.4791-2.20568l-.99997-.81049 1.06228-2.31023c.74452-1.61917 1.16235-2.25202 1.39684-2.11565 1.07664.6261 3.80272 2.99368 5.53649 4.8084 4.41712 4.62334 7.44222 10.51372 8.86314 17.25801.65617 3.11448.65674 9.8454.001 12.96459-2.68296 12.76397-11.58048 22.73883-23.69713 26.56648-2.76717.87417-6.37628 1.50263-6.37628 1.11033z"/><path d="m98.914096 179.79928c.08217-.41083.466143-2.04794.853282-3.63802l.703882-2.89105 1.25678-.0806c.7864-.0505 1.25677.0283 1.25677.21036 0 .30204-3.947222 7.14632-4.121418 7.14632-.05428 0-.03146-.33613.0507-.74697z"/><path d="m139.54315 180.54355-2.16251-2.11936v-4.49522-4.49522h4.5699 4.56991l2.23727 2.24896 2.23728 2.24896h-4.42593-4.42593v4.36562c0 2.4011-.0984 4.36563-.21874 4.36563-.12031 0-1.19187-.95371-2.38125-2.11937z" fill-opacity=".501961"/><path d="m72.557722 178.49022v-4.55855h-4.425929-4.42593l2.237276-2.24896 2.237275-2.24896h4.569904 4.569904v4.43729 4.43729l-2.38125 2.37021-2.38125 2.37022z" fill-opacity=".501961"/></g></svg>