<?xml version="1.0" encoding="UTF-8" standalone="no"?>
<svg
   xmlns:osb="http://www.openswatchbook.org/uri/2009/osb"
   xmlns:dc="http://purl.org/dc/elements/1.1/"
   xmlns:cc="http://creativecommons.org/ns#"
   xmlns:rdf="http://www.w3.org/1999/02/22-rdf-syntax-ns#"
   xmlns:svg="http://www.w3.org/2000/svg"
   xmlns="http://www.w3.org/2000/svg"
   xmlns:sodipodi="http://sodipodi.sourceforge.net/DTD/sodipodi-0.dtd"
   xmlns:inkscape="http://www.inkscape.org/namespaces/inkscape"
   width="512"
   height="512"
   viewBox="0 0 135.46667 135.46667"
   version="1.1"
   id="svg8"
   inkscape:version="1.0.1 (3bc2e813f5, 2020-09-07)"
   sodipodi:docname="Spark of Genius.svg">
  <defs
     id="defs2">
    <linearGradient
       id="linearGradient1099-6-5"
       osb:paint="gradient">
      <stop
         style="stop-color:#273839;stop-opacity:0.5"
         offset="0"
         id="stop1151" />
      <stop
         style="stop-color:#273839;stop-opacity:1"
         offset="1"
         id="stop1153" />
    </linearGradient>
  </defs>
  <sodipodi:namedview
     id="base"
     pagecolor="#ffffff"
     bordercolor="#666666"
     borderopacity="1.0"
     inkscape:pageopacity="0.0"
     inkscape:pageshadow="2"
     inkscape:zoom="0.7"
     inkscape:cx="193.68173"
     inkscape:cy="422.52928"
     inkscape:document-units="px"
     inkscape:current-layer="g1320"
     inkscape:document-rotation="0"
     showgrid="false"
     inkscape:pagecheckerboard="true"
     inkscape:object-nodes="true"
     fit-margin-top="0"
     fit-margin-left="0"
     fit-margin-right="0"
     fit-margin-bottom="0"
     inkscape:window-width="1600"
     inkscape:window-height="837"
     inkscape:window-x="-8"
     inkscape:window-y="-8"
     inkscape:window-maximized="1"
     units="px" />
  <metadata
     id="metadata5">
    <rdf:RDF>
      <cc:Work
         rdf:about="">
        <dc:format>image/svg+xml</dc:format>
        <dc:type
           rdf:resource="http://purl.org/dc/dcmitype/StillImage" />
        <dc:title></dc:title>
      </cc:Work>
    </rdf:RDF>
  </metadata>
  <g
     inkscape:label="Layer 1"
     inkscape:groupmode="layer"
     id="layer1"
     transform="translate(-59.62574,-110.15787)">
    <path
       style="fill:#000000;stroke-width:0.264583"
       id="path853"
       d="" />
    <path
       style="fill:#000000;stroke-width:0.264583"
       id="path849"
       d="" />
    <g
       id="g1061"
       transform="translate(9.0714285,1.8898814)">
      <g
         id="g1320"
         transform="translate(7.2162774,44.901282)">
        <g
           id="g2003"
           transform="matrix(1.4400768,0,0,1.4400767,-27.403839,-69.028976)">
          <path
             style="fill:#273839;fill-opacity:0.501961;stroke-width:0.264583"
             d="m 136.61711,183.14762 c -3.46522,-1.19024 -11.51341,-4.67205 -20.37292,-8.81373 -6.00267,-2.80614 -21.038892,-10.10276 -21.246296,-10.31016 -0.116121,-0.11612 0.898599,-1.9472 1.592043,-2.87287 0.340307,-0.45427 0.676518,-0.32243 5.642433,2.21268 12.34292,6.30107 21.48886,11.15976 27.77015,14.75263 3.86024,2.20804 8.33438,5.01989 8.33438,5.23789 0,0.18526 -0.89071,0.0783 -1.71979,-0.20644 z m -0.52917,-15.12932 c -4.57428,-1.66207 -20.18492,-8.74807 -31.40535,-14.25554 l -2.83035,-1.38926 0.92813,-1.6392 c 0.72963,-1.28861 1.02518,-1.59984 1.38186,-1.45521 1.42659,0.5785 21.11626,10.96557 24.64967,13.00367 7.82667,4.5145 11.01607,6.60919 10.05417,6.60323 -0.21829,-0.001 -1.46844,-0.39181 -2.77813,-0.86769 z m -51.064584,-8.95821 c -13.939903,-7.00781 -32.367194,-17.25617 -33.496692,-18.62921 -0.339055,-0.41217 -0.29412,-0.43472 0.537678,-0.2699 2.329909,0.46167 12.461195,4.88492 26.609014,11.61732 9.217636,4.38631 9.42521,4.49449 9.291661,4.84252 -0.06653,0.17338 -0.204888,0.896 -0.307459,1.60583 -0.102574,0.70983 -0.26098,1.42716 -0.352015,1.59406 -0.112151,0.20561 -0.848013,-0.0396 -2.282187,-0.76062 z m 52.122914,-5.60336 c -3.23902,-1.18982 -6.36039,-2.52268 -13.22916,-5.64902 -5.86942,-2.67149 -14.68128,-6.85229 -14.8968,-7.06782 -0.0994,-0.0994 0.68633,-1.54609 1.49099,-2.74499 0.18889,-0.28145 0.83967,-0.0542 3.11809,1.08865 11.02991,5.53275 26.29501,14.26133 26.29501,15.03547 0,0.34095 -0.13398,0.30901 -2.77813,-0.66229 z m -50.270831,-8.5711 -2.38125,-1.24338 2.622508,-0.0762 c 1.442379,-0.0419 2.703153,0.0176 2.801723,0.13229 0.215405,0.25063 -0.218096,2.46319 -0.478864,2.4441 -0.100576,-0.007 -1.254429,-0.57291 -2.564117,-1.25677 z M 72.587086,137.50332 C 62.222857,132.02353 52.08273,126.0783 52.08273,125.48145 c 0,-0.52467 6.826193,2.0938 13.892092,5.32887 6.926876,3.17143 12.205948,5.65937 12.417226,5.85203 0.251,0.2289 -0.482754,3.0121 -0.854702,3.24198 -0.103738,0.0641 -2.331355,-1.01635 -4.95026,-2.40101 z m 66.014394,1.5224 c -2.05668,-0.70341 -3.91355,-1.46377 -9.92187,-4.06286 -2.91744,-1.26202 -13.02815,-5.99626 -18.841,-8.82211 l -4.81808,-2.34225 0.94165,-1.6573 0.94166,-1.6573 4.67018,2.4266 c 17.86431,9.28219 29.40871,15.82528 29.40871,16.66817 0,0.28693 0.23189,0.34078 -2.38125,-0.55295 z M 80.260856,126.45539 c -0.582084,-0.32861 -3.847968,-2.07287 -7.257523,-3.87614 -11.908316,-6.29815 -19.86227,-10.94627 -19.86227,-11.6071 0,-0.36182 -0.09459,-0.38226 2.558607,0.55286 3.850655,1.35716 19.997009,8.57601 26.331023,11.77231 l 1.240671,0.62607 -0.537355,1.5912 c -0.606044,1.79459 -0.817981,1.87521 -2.473153,0.9408 z M 79.863981,111.14626 C 68.119463,105.00115 60.782059,100.93491 56.538565,98.219797 54.55608,96.951343 53.619633,96.149539 54.120658,96.149539 c 1.00753,0 9.003934,3.291636 17.673531,7.275121 4.747763,2.18149 15.739182,7.44982 15.920043,7.63069 0.19908,0.19908 -1.049269,3.35014 -1.326102,3.34732 -0.168543,-0.002 -3.10441,-1.4671 -6.524149,-3.25641 z"
             id="path1999"
             sodipodi:nodetypes="csssssscsscscscscsssssscsssscssccssccccsssscssscccsssssssscsscsssscc" />
          <path
             style="fill:#273839;fill-opacity:1;stroke-width:0.264583"
             d="m 87.528111,169.14043 c 0.408765,-1.65473 1.290325,-5.33032 1.959022,-8.16797 2.523474,-10.7085 4.421762,-18.66911 4.558441,-19.11615 0.131188,-0.42907 -0.233151,-0.46555 -4.969492,-0.4976 -2.811084,-0.019 -5.953922,-0.10832 -6.984087,-0.19844 l -1.873026,-0.16385 5.422596,-15.67657 5.422593,-15.67656 8.621266,0.004 c 4.741696,0.002 8.786036,0.10841 8.987426,0.23595 0.29113,0.18438 -0.0406,1.01044 -1.61858,4.03085 -4.54139,8.69256 -8.934039,17.37224 -8.934039,17.65328 0,0.20897 1.030428,0.30129 3.373439,0.30224 1.85539,7.9e-4 4.54,0.0786 5.9658,0.17303 2.22442,0.14729 2.56939,0.2316 2.43053,0.59394 -0.089,0.23226 -2.55567,4.52994 -5.48146,9.55041 -2.92579,5.02047 -7.991247,13.71203 -11.256562,19.31458 -3.265316,5.60256 -6.033718,10.29018 -6.152005,10.41694 -0.11829,0.12676 0.119372,-1.1234 0.528138,-2.77813 z"
             id="path1997" />
        </g>
      </g>
    </g>
  </g>
</svg>
