<svg height="512" viewBox="0 0 135.46667 135.46667" width="512" xmlns="http://www.w3.org/2000/svg"><g fill="#273839" stroke-width=".264583" transform="matrix(1.4400768 0 0 1.4400767 -70.741873 -132.395683)"><path d="m136.61711 183.14762c-3.46522-1.19024-11.51341-4.67205-20.37292-8.81373-6.00267-2.80614-21.038892-10.10276-21.246296-10.31016-.116121-.11612.898599-1.9472 1.592043-2.87287.340307-.45427.676518-.32243 5.642433 2.21268 12.34292 6.30107 21.48886 11.15976 27.77015 14.75263 3.86024 2.20804 8.33438 5.01989 8.33438 5.23789 0 .18526-.89071.0783-1.71979-.20644zm-.52917-15.12932c-4.57428-1.66207-20.18492-8.74807-31.40535-14.25554l-2.83035-1.38926.92813-1.6392c.72963-1.28861 1.02518-1.59984 1.38186-1.45521 1.42659.5785 21.11626 10.96557 24.64967 13.00367 7.82667 4.5145 11.01607 6.60919 10.05417 6.60323-.21829-.001-1.46844-.39181-2.77813-.86769zm-51.064584-8.95821c-13.939903-7.00781-32.367194-17.25617-33.496692-18.62921-.339055-.41217-.29412-.43472.537678-.2699 2.329909.46167 12.461195 4.88492 26.609014 11.61732 9.217636 4.38631 9.42521 4.49449 9.291661 4.84252-.06653.17338-.204888.896-.307459 1.60583-.102574.70983-.26098 1.42716-.352015 1.59406-.112151.20561-.848013-.0396-2.282187-.76062zm52.122914-5.60336c-3.23902-1.18982-6.36039-2.52268-13.22916-5.64902-5.86942-2.67149-14.68128-6.85229-14.8968-7.06782-.0994-.0994.68633-1.54609 1.49099-2.74499.18889-.28145.83967-.0542 3.11809 1.08865 11.02991 5.53275 26.29501 14.26133 26.29501 15.03547 0 .34095-.13398.30901-2.77813-.66229zm-50.270831-8.5711-2.38125-1.24338 2.622508-.0762c1.442379-.0419 2.703153.0176 2.801723.13229.215405.25063-.218096 2.46319-.478864 2.4441-.100576-.007-1.254429-.57291-2.564117-1.25677zm-14.288353-7.38231c-10.364229-5.47979-20.504356-11.42502-20.504356-12.02187 0-.52467 6.826193 2.0938 13.892092 5.32887 6.926876 3.17143 12.205948 5.65937 12.417226 5.85203.251.2289-.482754 3.0121-.854702 3.24198-.103738.0641-2.331355-1.01635-4.95026-2.40101zm66.014394 1.5224c-2.05668-.70341-3.91355-1.46377-9.92187-4.06286-2.91744-1.26202-13.02815-5.99626-18.841-8.82211l-4.81808-2.34225.94165-1.6573.94166-1.6573 4.67018 2.4266c17.86431 9.28219 29.40871 15.82528 29.40871 16.66817 0 .28693.23189.34078-2.38125-.55295zm-58.340624-12.57033c-.582084-.32861-3.847968-2.07287-7.257523-3.87614-11.908316-6.29815-19.86227-10.94627-19.86227-11.6071 0-.36182-.09459-.38226 2.558607.55286 3.850655 1.35716 19.997009 8.57601 26.331023 11.77231l1.240671.62607-.537355 1.5912c-.606044 1.79459-.817981 1.87521-2.473153.9408zm-.396875-15.30913c-11.744518-6.14511-19.081922-10.21135-23.325416-12.926463-1.982485-1.268454-2.918932-2.070258-2.417907-2.070258 1.00753 0 9.003934 3.291636 17.673531 7.275121 4.747763 2.18149 15.739182 7.44982 15.920043 7.63069.19908.19908-1.049269 3.35014-1.326102 3.34732-.168543-.002-3.10441-1.4671-6.524149-3.25641z" fill-opacity=".501961"/><path d="m87.528111 169.14043c.408765-1.65473 1.290325-5.33032 1.959022-8.16797 2.523474-10.7085 4.421762-18.66911 4.558441-19.11615.131188-.42907-.233151-.46555-4.969492-.4976-2.811084-.019-5.953922-.10832-6.984087-.19844l-1.873026-.16385 5.422596-15.67657 5.422593-15.67656 8.621266.004c4.741696.002 8.786036.10841 8.987426.23595.29113.18438-.0406 1.01044-1.61858 4.03085-4.54139 8.69256-8.934039 17.37224-8.934039 17.65328 0 .20897 1.030428.30129 3.373439.30224 1.85539.00079 4.54.0786 5.9658.17303 2.22442.14729 2.56939.2316 2.43053.59394-.089.23226-2.55567 4.52994-5.48146 9.55041s-7.991247 13.71203-11.256562 19.31458c-3.265316 5.60256-6.033718 10.29018-6.152005 10.41694-.11829.12676.119372-1.1234.528138-2.77813z"/></g></svg>