<svg height="512" viewBox="0 0 135.46667 135.46667" width="512" xmlns="http://www.w3.org/2000/svg"><g fill="#273839" transform="matrix(1.4779684 0 0 1.4779684 -93.451836 -133.144882)"><path d="m80.918275 165.94671c-.226321-.58978-.199453-1.16898.05423-1.16898.118154 0 .478906.35719.801671.79375l.586845.79375h-.641072c-.35259 0-.713342-.18833-.801671-.41852zm1.693144-.67951c-.437475-.60392-.79541-1.17507-.79541-1.26922 0-.39905 2.04495-2.10985 2.72044-2.27591 1.09733-.26977 6.126997-7.51694 6.181937-8.90746.04078-1.03215.756203-2.41353 1.685574-3.2546 1.310042-1.18557 3.787743-.0852 3.787743 1.6822 0 1.14832-1.569829 3.48135-2.342502 3.48135-.69029 0-1.0776.4565-4.311404 5.08161-1.531498 2.1904-2.165538 3.32766-2.165538 3.88426 0 .43286-.26789 1.20696-.595312 1.72021-.555121.87019-.688982.93395-1.982716.94439-1.327684.0107-1.42164-.0361-2.182812-1.08683zm3.008205-1.07982c.221904-.35237.187397-.55911-.149563-.89607-.792614-.79262-1.975146.24327-1.260588 1.10426.411399.4957 1.023817.40529 1.410151-.20819zm9.274361-11.73168c.479798-.47979.534816-1.24866.141883-1.98287-.545343-1.01898-2.636525-.34309-2.636525.85216 0 .63875.920721 1.54649 1.5686 1.54649.280649 0 .697368-.1871.926042-.41578zm36.663695 13.61226c0-.17739-.20093-.54454-.4465-.8159-.24558-.27135-.51347-.9729-.59531-1.559-.222-1.58967-5.1477-8.65356-6.19316-8.88154-1.06749-.23278-2.53945-2.29768-2.54806-3.57448-.0108-1.60997 1.99885-2.81479 3.28716-1.97066 1.08725.71239 2.30107 2.69798 2.11137 3.45381-.24276.96722 5.14172 8.77436 6.21398 9.00987.40255.0884 1.18204.62174 1.73222 1.18517l1.00032 1.02442-.63131 1.14664c-.62976 1.14383-.63537 1.14684-2.28101 1.22542-1.16406.0556-1.6497-.0162-1.6497-.24375zm2.32787-1.97484c.0434-.30378-.10391-.70405-.32736-.8895-.80653-.66936-1.86273.38684-1.19337 1.19337.46923.56538 1.42378.37464 1.52073-.30387zm-8.94246-11.75081c.96266-.96266.41098-2.38125-.92604-2.38125-1.36993 0-1.9692 1.72665-.86717 2.49854.77717.54435 1.15638.51954 1.79321-.11729zm11.28688 13.22917c.38946-.65929 1.14854-1.10469 1.14854-.67391 0 .53519-.70889 1.46766-1.11576 1.46766-.4852 0-.48628-.026-.0328-.79375zm-37.99381-7.82225c-1.309736-1.18326-1.852491-3.19114-1.299867-4.80874.186971-.54728.366067-1.03699.397997-1.08825.07418-.11909 3.81963 3.0583 4.25932 3.61331.58664.74052.40449 2.072-.36641 2.67839-1.00014.78671-1.800214.68113-2.99104-.39471zm2.47866-.26644c.92971-.92971-.0643-2.2594-1.237873-1.65583-.864732.44475-.374856 2.01796.642563 2.06356.0987.004.36663-.17906.59531-.40773zm15.88126.50943c-1.09084-1.17705-.87662-1.95902 1.00483-3.66787.9095-.82607 1.98106-1.73714 2.38125-2.02459.69491-.49916.7276-.50071.7276-.0343 0 .26857.17386.73653.38635 1.03991.34134.48733.33205.74416-.0797 2.20449-.38141 1.35258-.65247 1.79187-1.49182 2.4177-1.27406.94996-2.09129.96802-2.92846.0647zm2.17602-.78928c.44121-.67338.43639-.71135-.15076-1.18679-.47068-.38113-.72294-.42887-1.1261-.21311-.82107.43943-.91393 1.06175-.23987 1.60757.79422.64312.97554.61829 1.51673-.20767zm-16.05401-1.13768c0-.15501-.41934-.746-.93187-1.31331l-.93188-1.03148 1.23371-1.08595c.67854-.59728 1.33303-1.08596 1.45443-1.08596s.15148.34621.0669.76935c-.12298.61487-.0355.83272.43572 1.0849.49618.26555.67254.2326 1.11309-.20795.4303-.43031.47001-.62343.22304-1.0849-.24102-.45033-.2257-.5614.0774-.5614.38633 0 .69908.54199.69908 1.21151 0 .44762-1.62963 2.29822-2.68652 3.05079-.41419.29493-.75307.40941-.75307.2544zm10.8756-.99502c-1.56245-1.36678-2.02314-2.23023-1.60591-3.00983.41314-.77197.7917-.61408.61738.2575-.11858.5929-.0344.83328.36694 1.04809.79113.4234 1.51773-.20485 1.28934-1.11481-.26381-1.05112.33235-.89108 1.63859.43987l1.12128 1.14251-.57491.51114c-.3162.28113-.77385.83368-1.01701 1.22788l-.44211.71674zm-9.81726-5.14668c0-.87264-.16167-1.25033-.79375-1.85438-.43657-.41721-.79375-.81705-.79375-.88854 0-.0715 3.09562-.12999 6.87916-.12999s6.87917.0469 6.87917.1043-.35719.48669-.79375.95403c-.6006.64294-.79375 1.10044-.79375 1.88006v1.03036h-5.29167-5.29166zm-1.86943-4.10917c-.14786-.3889-.21476-.84801-.14866-1.02025s1.08298-.98782 2.25975-1.81241c1.17677-.82458 2.13959-1.58875 2.13959-1.69816 0-.1094-1.13872-.76457-2.53048-1.45593-2.34984-1.16728-2.52454-1.30847-2.44739-1.97794.068-.59.6071-1.06929 2.96856-2.63916 1.58703-1.05503 3.04849-1.91823 3.2477-1.91823s.4692.28142.59997.62538c.42089 1.10703 1.45688 1.11164 1.87635.008.13252-.34854.42812-.63371.6569-.63371.22877 0 1.77953.88908 3.44613 1.97574 3.99735 2.60635 3.99079 2.92046-.10217 4.88839-1.04211.50106-1.89474 1.00642-1.89474 1.12303 0 .1166.95068.83774 2.11262 1.60253 1.16195.76478 2.17701 1.58315 2.2557 1.81859.0787.23544.0239.74146-.1217 1.12448-.2259.59417-.42232.69641-1.33796.69641-.7133 0-1.12463-.13406-1.22658-.39975-.13042-.33986-4.15315-3.30442-4.4839-3.30442-.32433 0-4.59204 3.02024-4.71295 3.33533-.0888.23151-.54112.36884-1.21473.36884-.91974 0-1.11162-.1011-1.34201-.70709zm7.79497-4.09632c.72565-1.03601-.4852-2.1186-1.37471-1.22909-.46053.46053-.38924 1.20192.14552 1.51339.65855.38357.78127.35519 1.22919-.2843zm1.25193-3.01878c1.02992-.51866 1.82134-.99428 1.7587-1.05692-.0626-.0626-.92589-.63634-1.91832-1.27488l-1.80443-1.16098-1.61452 1.04226c-.88799.57325-1.71857 1.14552-1.84572 1.27171-.13109.13009.55628.63349 1.5875 1.16262 1.00028.51325 1.85143.93904 1.89144.9462.04.007.91542-.41135 1.94535-.93001zm-7.29517-.69046c.24133-.76038-.5275-1.37506-1.24177-.99279-.48415.25911-.66275 1.04503-.31623 1.39155.40722.40722 1.38132.1579 1.558-.39876zm12.50302-.13455c.11518-.809-.81618-1.29665-1.38674-.72609-.50099.50099-.51641.69963-.0876 1.12843.49961.49961 1.38016.25931 1.47435-.40234zm-12.5294-5.7079c-.0724-.18862-.0993-2.84019-.0599-5.89236l.0717-5.54942h5.55625 5.55625v5.82084 5.82083l-5.49634.0715c-4.30934.0561-5.52476-.003-5.62794-.27142zm-10.529091-2.06714c-.871932-2.46162-.444545-2.34106-5.5902-1.57689-1.887091.28025-3.468098.47252-3.513348.42728-.04525-.0453-.492417-2.27158-.993705-4.9474-.501289-2.67582-.982536-5.16278-1.069438-5.52659-.307529-1.28742.354423-.13164 1.985632 3.46693l1.631501 3.59922 2.562926.16972c1.409608.0934 3.235788.17035 4.058177.1711l1.495253.001.190844 3.05436c.104963 1.67989.144687 3.10051.08827 3.15692-.05642.0564-.437076-.84179-.845915-1.99602zm8.554761 1.40713c-.31313-.40018-1.27899-1.46427-2.146362-2.36465-1.342454-1.39353-1.623426-1.85819-1.888869-3.1237-.222866-1.06251-.230047-1.53903-.02519-1.67024.157662-.10098.370258-.45148.47244-.77891.173392-.55561.334581-.59531 2.416911-.59531h2.23113v4.63021c0 2.66884-.10394 4.63021-.24538 4.63021-.13496 0-.50157-.32742-.8147-.72761zm14.02466-3.9026v-4.63021h2.24391c2.17286 0 2.24918.021 2.40994.66146.0913.3638.27217.66146.40191.66146.12975 0 .2359.25407.2359.56461 0 1.22241-.66632 2.66731-1.78322 3.86684-.64378.6914-1.59182 1.76311-2.10676 2.38157s-1.04098 1.12448-1.16897 1.12448-.23271-2.0836-.23271-4.63021zm9.14066 2.64583c.0784-1.16416.20171-2.60567.27399-3.20335l.13144-1.0867 3.89206-.18724c2.14063-.10299 3.97601-.26943 4.07862-.36988s.8585-1.6703 1.67975-3.48856c1.57619-3.48974 2.14689-4.41089 1.88424-3.04135-.0837.43656-.52997 2.81781-.99166 5.29167-.46169 2.47385-.91708 4.5842-1.01197 4.68967-.0949.10547-1.70419-.0434-3.57623-.33073-4.96831-.76266-4.73187-.80725-5.29672.99887-.26168.83674-.6401 1.81901-.84093 2.18281-.32762.59348-.3505.44392-.22259-1.45521zm-28.521393-7.99063c-.948735-.24171-.379333-.54296 2.814897-1.48929 3.812876-1.12961 4.190756-1.17845 3.459456-.44715-.28818.28818-1.53503.82599-2.770775 1.19514-2.91366.87036-2.959198.88-3.503578.7413zm22.225123-.57617c-2.11613-.65108-3.42244-1.39439-3.06999-1.74684.0769-.0769.48652-.0268.9103.11131.42378.1381 1.99414.62101 3.4897 1.07312s2.64939.93496 2.56407 1.07301c-.24972.40405-1.42011.25059-3.89408-.5106zm-23.308251-2.99716c-.08396-.32107-.120054-.61636-.08021-.65621.03984-.0398 1.43115-.48494 3.091789-.9891 3.053872-.92715 3.538272-.91249 3.361312.10172-.0591.33881-5.013699 2.11697-5.920365 2.12476-.164928.001-.368565-.26011-.452528-.58117zm26.416981.44882c-.14552-.0512-1.30638-.40286-2.57969-.78137-2.0991-.62399-2.3151-.74913-2.3151-1.34116 0-.35912.14816-.65295.32924-.65295s1.60983.37636 3.175.83636c2.56845.75486 2.84576.89667 2.84576 1.45521 0 .47156-.14168.61387-.59531.59796-.32742-.0115-.71438-.0628-.8599-.11405zm-.92529-4.46847c-2.71124-.83014-3.19328-1.17691-2.69894-1.94155.16178-.25022.92455-.11805 3.24082.56156 1.66609.48884 3.01734 1.02306 3.00279 1.18714-.11818 1.33257.13305 1.3189-3.54467.19285zm-26.563068.21614c-.08833-.23018-.160599-.51104-.160599-.62413 0-.2213 6.033397-2.01517 6.190097-1.84046.0518.0577.16996.35223.2626.65442.15321.49979-.0805.62528-2.587063 1.38906-3.149706.95975-3.483769.99772-3.705035.42111zm-1.218933-3.34396c0-.19721.327422-.73218.727604-1.18884 1.265362-1.44392 4.761082-2.03963 5.654165-.96353.169521.20426.26149.41529.204372.46895-.08362.0786-4.057714 1.31779-6.12312 1.90935-.278431.0798-.463021-.0103-.463021-.22593zm30.956251.0519c-.3638-.12608-1.70326-.54061-2.97656-.92117-1.27331-.38056-2.31511-.78934-2.31511-.9084 0-.29941 1.4584-.87598 2.21576-.87598 1.78356 0 4.66341 1.68729 4.66341 2.73228 0 .29585-.69023.28423-1.5875-.0267zm-1.54442-2.96177c-1.15293-.36519-1.59137-.61643-1.40354-.80426.46954-.46954 3.92075.62288 3.60121 1.1399-.19026.30785-.1437.31496-2.19767-.33564zm-28.618081.0715c0-.13799.744141-.45969 1.653646-.71488 1.806274-.50682 1.866816-.51139 1.987296-.14994.04526.13578-.614415.44237-1.465953.6813-1.781373.49983-2.174989.53304-2.174989.18352z" stroke-width=".264583"/><g fill-opacity=".5"><path d="m86.852545 151.71876-1.417449 1.37001c-6.821198-12.49727-10.69329-25.6499-12.709412-39.21496 8.93333-2.05642 25.746061-12.5902 36.569276-21.639171 11.40332 8.470841 22.6223 17.310381 36.09665 21.639171-1.68797 14.58909-6.1449 27.4742-12.46141 39.21496l-1.34648-1.37001c6.43074-11.24391 10.06932-23.48501 11.51267-36.51012-13.28097-5.3496-23.4538-12.90079-33.80143-20.328168-10.50284 8.185828-21.760881 15.163348-34.151852 20.328168 1.330285 12.52492 5.211959 24.69792 11.709437 36.51012z"/><path d="m93.116984 161.45463-1.637024 1.06918c5.060564 5.82057 10.65294 11.5184 16.87149 17.07174 6.86895-4.83537 13.18147-10.28281 18.27445-17.07174l-1.40316-1.06918c-4.91331 5.94434-10.53255 11.13863-16.87129 15.56845-5.567-4.97222-10.459852-10.24406-15.234466-15.56845z"/></g></g></svg>