<?xml version="1.0" encoding="UTF-8" standalone="no"?>
<svg
   xmlns:osb="http://www.openswatchbook.org/uri/2009/osb"
   xmlns:dc="http://purl.org/dc/elements/1.1/"
   xmlns:cc="http://creativecommons.org/ns#"
   xmlns:rdf="http://www.w3.org/1999/02/22-rdf-syntax-ns#"
   xmlns:svg="http://www.w3.org/2000/svg"
   xmlns="http://www.w3.org/2000/svg"
   xmlns:sodipodi="http://sodipodi.sourceforge.net/DTD/sodipodi-0.dtd"
   xmlns:inkscape="http://www.inkscape.org/namespaces/inkscape"
   width="512"
   height="512"
   viewBox="0 0 135.46667 135.46667"
   version="1.1"
   id="svg8"
   inkscape:version="1.0.1 (3bc2e813f5, 2020-09-07)"
   sodipodi:docname="Interception Pylon.svg">
  <defs
     id="defs2">
    <linearGradient
       id="linearGradient1099-6-5"
       osb:paint="gradient">
      <stop
         style="stop-color:#273839;stop-opacity:0.5"
         offset="0"
         id="stop1151" />
      <stop
         style="stop-color:#273839;stop-opacity:1"
         offset="1"
         id="stop1153" />
    </linearGradient>
  </defs>
  <sodipodi:namedview
     id="base"
     pagecolor="#ffffff"
     bordercolor="#666666"
     borderopacity="1.0"
     inkscape:pageopacity="0.0"
     inkscape:pageshadow="2"
     inkscape:zoom="0.98994949"
     inkscape:cx="129.13725"
     inkscape:cy="266.4336"
     inkscape:document-units="px"
     inkscape:current-layer="g1320"
     inkscape:document-rotation="0"
     showgrid="false"
     inkscape:pagecheckerboard="true"
     inkscape:object-nodes="true"
     fit-margin-top="0"
     fit-margin-left="0"
     fit-margin-right="0"
     fit-margin-bottom="0"
     inkscape:window-width="1600"
     inkscape:window-height="837"
     inkscape:window-x="-8"
     inkscape:window-y="-8"
     inkscape:window-maximized="1"
     units="px" />
  <metadata
     id="metadata5">
    <rdf:RDF>
      <cc:Work
         rdf:about="">
        <dc:format>image/svg+xml</dc:format>
        <dc:type
           rdf:resource="http://purl.org/dc/dcmitype/StillImage" />
        <dc:title></dc:title>
      </cc:Work>
    </rdf:RDF>
  </metadata>
  <g
     inkscape:label="Layer 1"
     inkscape:groupmode="layer"
     id="layer1"
     transform="translate(-59.62574,-110.15787)">
    <path
       style="fill:#000000;stroke-width:0.264583"
       id="path853"
       d="" />
    <path
       style="fill:#000000;stroke-width:0.264583"
       id="path849"
       d="" />
    <g
       id="g1061"
       transform="translate(9.0714285,1.8898814)">
      <g
         id="g1320"
         transform="translate(7.2162774,44.901282)">
        <g
           id="g1610"
           transform="matrix(1.4779684,0,0,1.4779684,-50.113802,-69.778175)">
          <path
             style="fill:#273839;fill-opacity:1;stroke-width:0.264583"
             d="m 80.918275,165.94671 c -0.226321,-0.58978 -0.199453,-1.16898 0.05423,-1.16898 0.118154,0 0.478906,0.35719 0.801671,0.79375 l 0.586845,0.79375 h -0.641072 c -0.35259,0 -0.713342,-0.18833 -0.801671,-0.41852 z m 1.693144,-0.67951 c -0.437475,-0.60392 -0.79541,-1.17507 -0.79541,-1.26922 0,-0.39905 2.04495,-2.10985 2.72044,-2.27591 1.09733,-0.26977 6.126997,-7.51694 6.181937,-8.90746 0.04078,-1.03215 0.756203,-2.41353 1.685574,-3.2546 1.310042,-1.18557 3.787743,-0.0852 3.787743,1.6822 0,1.14832 -1.569829,3.48135 -2.342502,3.48135 -0.69029,0 -1.0776,0.4565 -4.311404,5.08161 -1.531498,2.1904 -2.165538,3.32766 -2.165538,3.88426 0,0.43286 -0.26789,1.20696 -0.595312,1.72021 -0.555121,0.87019 -0.688982,0.93395 -1.982716,0.94439 -1.327684,0.0107 -1.42164,-0.0361 -2.182812,-1.08683 z m 3.008205,-1.07982 c 0.221904,-0.35237 0.187397,-0.55911 -0.149563,-0.89607 -0.792614,-0.79262 -1.975146,0.24327 -1.260588,1.10426 0.411399,0.4957 1.023817,0.40529 1.410151,-0.20819 z m 9.274361,-11.73168 c 0.479798,-0.47979 0.534816,-1.24866 0.141883,-1.98287 -0.545343,-1.01898 -2.636525,-0.34309 -2.636525,0.85216 0,0.63875 0.920721,1.54649 1.5686,1.54649 0.280649,0 0.697368,-0.1871 0.926042,-0.41578 z m 36.663695,13.61226 c 0,-0.17739 -0.20093,-0.54454 -0.4465,-0.8159 -0.24558,-0.27135 -0.51347,-0.9729 -0.59531,-1.559 -0.222,-1.58967 -5.1477,-8.65356 -6.19316,-8.88154 -1.06749,-0.23278 -2.53945,-2.29768 -2.54806,-3.57448 -0.0108,-1.60997 1.99885,-2.81479 3.28716,-1.97066 1.08725,0.71239 2.30107,2.69798 2.11137,3.45381 -0.24276,0.96722 5.14172,8.77436 6.21398,9.00987 0.40255,0.0884 1.18204,0.62174 1.73222,1.18517 l 1.00032,1.02442 -0.63131,1.14664 c -0.62976,1.14383 -0.63537,1.14684 -2.28101,1.22542 -1.16406,0.0556 -1.6497,-0.0162 -1.6497,-0.24375 z m 2.32787,-1.97484 c 0.0434,-0.30378 -0.10391,-0.70405 -0.32736,-0.8895 -0.80653,-0.66936 -1.86273,0.38684 -1.19337,1.19337 0.46923,0.56538 1.42378,0.37464 1.52073,-0.30387 z m -8.94246,-11.75081 c 0.96266,-0.96266 0.41098,-2.38125 -0.92604,-2.38125 -1.36993,0 -1.9692,1.72665 -0.86717,2.49854 0.77717,0.54435 1.15638,0.51954 1.79321,-0.11729 z m 11.28688,13.22917 c 0.38946,-0.65929 1.14854,-1.10469 1.14854,-0.67391 0,0.53519 -0.70889,1.46766 -1.11576,1.46766 -0.4852,0 -0.48628,-0.026 -0.0328,-0.79375 z m -37.99381,-7.82225 c -1.309736,-1.18326 -1.852491,-3.19114 -1.299867,-4.80874 0.186971,-0.54728 0.366067,-1.03699 0.397997,-1.08825 0.07418,-0.11909 3.81963,3.0583 4.25932,3.61331 0.58664,0.74052 0.40449,2.072 -0.36641,2.67839 -1.00014,0.78671 -1.800214,0.68113 -2.99104,-0.39471 z m 2.47866,-0.26644 c 0.92971,-0.92971 -0.0643,-2.2594 -1.237873,-1.65583 -0.864732,0.44475 -0.374856,2.01796 0.642563,2.06356 0.0987,0.004 0.36663,-0.17906 0.59531,-0.40773 z m 15.88126,0.50943 c -1.09084,-1.17705 -0.87662,-1.95902 1.00483,-3.66787 0.9095,-0.82607 1.98106,-1.73714 2.38125,-2.02459 0.69491,-0.49916 0.7276,-0.50071 0.7276,-0.0343 0,0.26857 0.17386,0.73653 0.38635,1.03991 0.34134,0.48733 0.33205,0.74416 -0.0797,2.20449 -0.38141,1.35258 -0.65247,1.79187 -1.49182,2.4177 -1.27406,0.94996 -2.09129,0.96802 -2.92846,0.0647 z m 2.17602,-0.78928 c 0.44121,-0.67338 0.43639,-0.71135 -0.15076,-1.18679 -0.47068,-0.38113 -0.72294,-0.42887 -1.1261,-0.21311 -0.82107,0.43943 -0.91393,1.06175 -0.23987,1.60757 0.79422,0.64312 0.97554,0.61829 1.51673,-0.20767 z m -16.05401,-1.13768 c 0,-0.15501 -0.41934,-0.746 -0.93187,-1.31331 l -0.93188,-1.03148 1.23371,-1.08595 c 0.67854,-0.59728 1.33303,-1.08596 1.45443,-1.08596 0.1214,0 0.15148,0.34621 0.0669,0.76935 -0.12298,0.61487 -0.0355,0.83272 0.43572,1.0849 0.49618,0.26555 0.67254,0.2326 1.11309,-0.20795 0.4303,-0.43031 0.47001,-0.62343 0.22304,-1.0849 -0.24102,-0.45033 -0.2257,-0.5614 0.0774,-0.5614 0.38633,0 0.69908,0.54199 0.69908,1.21151 0,0.44762 -1.62963,2.29822 -2.68652,3.05079 -0.41419,0.29493 -0.75307,0.40941 -0.75307,0.2544 z m 10.8756,-0.99502 c -1.56245,-1.36678 -2.02314,-2.23023 -1.60591,-3.00983 0.41314,-0.77197 0.7917,-0.61408 0.61738,0.2575 -0.11858,0.5929 -0.0344,0.83328 0.36694,1.04809 0.79113,0.4234 1.51773,-0.20485 1.28934,-1.11481 -0.26381,-1.05112 0.33235,-0.89108 1.63859,0.43987 l 1.12128,1.14251 -0.57491,0.51114 c -0.3162,0.28113 -0.77385,0.83368 -1.01701,1.22788 l -0.44211,0.71674 z m -9.81726,-5.14668 c 0,-0.87264 -0.16167,-1.25033 -0.79375,-1.85438 -0.43657,-0.41721 -0.79375,-0.81705 -0.79375,-0.88854 0,-0.0715 3.09562,-0.12999 6.87916,-0.12999 3.78354,0 6.87917,0.0469 6.87917,0.1043 0,0.0574 -0.35719,0.48669 -0.79375,0.95403 -0.6006,0.64294 -0.79375,1.10044 -0.79375,1.88006 v 1.03036 h -5.29167 -5.29166 z m -1.86943,-4.10917 c -0.14786,-0.3889 -0.21476,-0.84801 -0.14866,-1.02025 0.0661,-0.17224 1.08298,-0.98782 2.25975,-1.81241 1.17677,-0.82458 2.13959,-1.58875 2.13959,-1.69816 0,-0.1094 -1.13872,-0.76457 -2.53048,-1.45593 -2.34984,-1.16728 -2.52454,-1.30847 -2.44739,-1.97794 0.068,-0.59 0.6071,-1.06929 2.96856,-2.63916 1.58703,-1.05503 3.04849,-1.91823 3.2477,-1.91823 0.19921,0 0.4692,0.28142 0.59997,0.62538 0.42089,1.10703 1.45688,1.11164 1.87635,0.008 0.13252,-0.34854 0.42812,-0.63371 0.6569,-0.63371 0.22877,0 1.77953,0.88908 3.44613,1.97574 3.99735,2.60635 3.99079,2.92046 -0.10217,4.88839 -1.04211,0.50106 -1.89474,1.00642 -1.89474,1.12303 0,0.1166 0.95068,0.83774 2.11262,1.60253 1.16195,0.76478 2.17701,1.58315 2.2557,1.81859 0.0787,0.23544 0.0239,0.74146 -0.1217,1.12448 -0.2259,0.59417 -0.42232,0.69641 -1.33796,0.69641 -0.7133,0 -1.12463,-0.13406 -1.22658,-0.39975 -0.13042,-0.33986 -4.15315,-3.30442 -4.4839,-3.30442 -0.32433,0 -4.59204,3.02024 -4.71295,3.33533 -0.0888,0.23151 -0.54112,0.36884 -1.21473,0.36884 -0.91974,0 -1.11162,-0.1011 -1.34201,-0.70709 z m 7.79497,-4.09632 c 0.72565,-1.03601 -0.4852,-2.1186 -1.37471,-1.22909 -0.46053,0.46053 -0.38924,1.20192 0.14552,1.51339 0.65855,0.38357 0.78127,0.35519 1.22919,-0.2843 z m 1.25193,-3.01878 c 1.02992,-0.51866 1.82134,-0.99428 1.7587,-1.05692 -0.0626,-0.0626 -0.92589,-0.63634 -1.91832,-1.27488 l -1.80443,-1.16098 -1.61452,1.04226 c -0.88799,0.57325 -1.71857,1.14552 -1.84572,1.27171 -0.13109,0.13009 0.55628,0.63349 1.5875,1.16262 1.00028,0.51325 1.85143,0.93904 1.89144,0.9462 0.04,0.007 0.91542,-0.41135 1.94535,-0.93001 z m -7.29517,-0.69046 c 0.24133,-0.76038 -0.5275,-1.37506 -1.24177,-0.99279 -0.48415,0.25911 -0.66275,1.04503 -0.31623,1.39155 0.40722,0.40722 1.38132,0.1579 1.558,-0.39876 z m 12.50302,-0.13455 c 0.11518,-0.809 -0.81618,-1.29665 -1.38674,-0.72609 -0.50099,0.50099 -0.51641,0.69963 -0.0876,1.12843 0.49961,0.49961 1.38016,0.25931 1.47435,-0.40234 z m -12.5294,-5.7079 c -0.0724,-0.18862 -0.0993,-2.84019 -0.0599,-5.89236 l 0.0717,-5.54942 h 5.55625 5.55625 v 5.82084 5.82083 l -5.49634,0.0715 c -4.30934,0.0561 -5.52476,-0.003 -5.62794,-0.27142 z m -10.529091,-2.06714 c -0.871932,-2.46162 -0.444545,-2.34106 -5.5902,-1.57689 -1.887091,0.28025 -3.468098,0.47252 -3.513348,0.42728 -0.04525,-0.0453 -0.492417,-2.27158 -0.993705,-4.9474 -0.501289,-2.67582 -0.982536,-5.16278 -1.069438,-5.52659 -0.307529,-1.28742 0.354423,-0.13164 1.985632,3.46693 l 1.631501,3.59922 2.562926,0.16972 c 1.409608,0.0934 3.235788,0.17035 4.058177,0.1711 l 1.495253,0.001 0.190844,3.05436 c 0.104963,1.67989 0.144687,3.10051 0.08827,3.15692 -0.05642,0.0564 -0.437076,-0.84179 -0.845915,-1.99602 z m 8.554761,1.40713 c -0.31313,-0.40018 -1.27899,-1.46427 -2.146362,-2.36465 -1.342454,-1.39353 -1.623426,-1.85819 -1.888869,-3.1237 -0.222866,-1.06251 -0.230047,-1.53903 -0.02519,-1.67024 0.157662,-0.10098 0.370258,-0.45148 0.47244,-0.77891 0.173392,-0.55561 0.334581,-0.59531 2.416911,-0.59531 h 2.23113 v 4.63021 c 0,2.66884 -0.10394,4.63021 -0.24538,4.63021 -0.13496,0 -0.50157,-0.32742 -0.8147,-0.72761 z m 14.02466,-3.9026 v -4.63021 h 2.24391 c 2.17286,0 2.24918,0.021 2.40994,0.66146 0.0913,0.3638 0.27217,0.66146 0.40191,0.66146 0.12975,0 0.2359,0.25407 0.2359,0.56461 0,1.22241 -0.66632,2.66731 -1.78322,3.86684 -0.64378,0.6914 -1.59182,1.76311 -2.10676,2.38157 -0.51494,0.61846 -1.04098,1.12448 -1.16897,1.12448 -0.12799,0 -0.23271,-2.0836 -0.23271,-4.63021 z m 9.14066,2.64583 c 0.0784,-1.16416 0.20171,-2.60567 0.27399,-3.20335 l 0.13144,-1.0867 3.89206,-0.18724 c 2.14063,-0.10299 3.97601,-0.26943 4.07862,-0.36988 0.10261,-0.10045 0.8585,-1.6703 1.67975,-3.48856 1.57619,-3.48974 2.14689,-4.41089 1.88424,-3.04135 -0.0837,0.43656 -0.52997,2.81781 -0.99166,5.29167 -0.46169,2.47385 -0.91708,4.5842 -1.01197,4.68967 -0.0949,0.10547 -1.70419,-0.0434 -3.57623,-0.33073 -4.96831,-0.76266 -4.73187,-0.80725 -5.29672,0.99887 -0.26168,0.83674 -0.6401,1.81901 -0.84093,2.18281 -0.32762,0.59348 -0.3505,0.44392 -0.22259,-1.45521 z m -28.521393,-7.99063 c -0.948735,-0.24171 -0.379333,-0.54296 2.814897,-1.48929 3.812876,-1.12961 4.190756,-1.17845 3.459456,-0.44715 -0.28818,0.28818 -1.53503,0.82599 -2.770775,1.19514 -2.91366,0.87036 -2.959198,0.88 -3.503578,0.7413 z m 22.225123,-0.57617 c -2.11613,-0.65108 -3.42244,-1.39439 -3.06999,-1.74684 0.0769,-0.0769 0.48652,-0.0268 0.9103,0.11131 0.42378,0.1381 1.99414,0.62101 3.4897,1.07312 1.49556,0.45211 2.64939,0.93496 2.56407,1.07301 -0.24972,0.40405 -1.42011,0.25059 -3.89408,-0.5106 z m -23.308251,-2.99716 c -0.08396,-0.32107 -0.120054,-0.61636 -0.08021,-0.65621 0.03984,-0.0398 1.43115,-0.48494 3.091789,-0.9891 3.053872,-0.92715 3.538272,-0.91249 3.361312,0.10172 -0.0591,0.33881 -5.013699,2.11697 -5.920365,2.12476 -0.164928,10e-4 -0.368565,-0.26011 -0.452528,-0.58117 z m 26.416981,0.44882 c -0.14552,-0.0512 -1.30638,-0.40286 -2.57969,-0.78137 -2.0991,-0.62399 -2.3151,-0.74913 -2.3151,-1.34116 0,-0.35912 0.14816,-0.65295 0.32924,-0.65295 0.18108,0 1.60983,0.37636 3.175,0.83636 2.56845,0.75486 2.84576,0.89667 2.84576,1.45521 0,0.47156 -0.14168,0.61387 -0.59531,0.59796 -0.32742,-0.0115 -0.71438,-0.0628 -0.8599,-0.11405 z m -0.92529,-4.46847 c -2.71124,-0.83014 -3.19328,-1.17691 -2.69894,-1.94155 0.16178,-0.25022 0.92455,-0.11805 3.24082,0.56156 1.66609,0.48884 3.01734,1.02306 3.00279,1.18714 -0.11818,1.33257 0.13305,1.3189 -3.54467,0.19285 z m -26.563068,0.21614 c -0.08833,-0.23018 -0.160599,-0.51104 -0.160599,-0.62413 0,-0.2213 6.033397,-2.01517 6.190097,-1.84046 0.0518,0.0577 0.16996,0.35223 0.2626,0.65442 0.15321,0.49979 -0.0805,0.62528 -2.587063,1.38906 -3.149706,0.95975 -3.483769,0.99772 -3.705035,0.42111 z m -1.218933,-3.34396 c 0,-0.19721 0.327422,-0.73218 0.727604,-1.18884 1.265362,-1.44392 4.761082,-2.03963 5.654165,-0.96353 0.169521,0.20426 0.26149,0.41529 0.204372,0.46895 -0.08362,0.0786 -4.057714,1.31779 -6.12312,1.90935 -0.278431,0.0798 -0.463021,-0.0103 -0.463021,-0.22593 z m 30.956251,0.0519 c -0.3638,-0.12608 -1.70326,-0.54061 -2.97656,-0.92117 -1.27331,-0.38056 -2.31511,-0.78934 -2.31511,-0.9084 0,-0.29941 1.4584,-0.87598 2.21576,-0.87598 1.78356,0 4.66341,1.68729 4.66341,2.73228 0,0.29585 -0.69023,0.28423 -1.5875,-0.0267 z m -1.54442,-2.96177 c -1.15293,-0.36519 -1.59137,-0.61643 -1.40354,-0.80426 0.46954,-0.46954 3.92075,0.62288 3.60121,1.1399 -0.19026,0.30785 -0.1437,0.31496 -2.19767,-0.33564 z m -28.618081,0.0715 c 0,-0.13799 0.744141,-0.45969 1.653646,-0.71488 1.806274,-0.50682 1.866816,-0.51139 1.987296,-0.14994 0.04526,0.13578 -0.614415,0.44237 -1.465953,0.6813 -1.781373,0.49983 -2.174989,0.53304 -2.174989,0.18352 z"
             id="path1599" />
          <path
             style="fill:#273839;fill-opacity:0.5;stroke:none;stroke-width:0.264583px;stroke-linecap:butt;stroke-linejoin:miter;stroke-opacity:1"
             d="m 86.852545,151.71876 -1.417449,1.37001 c -6.821198,-12.49727 -10.69329,-25.6499 -12.709412,-39.21496 8.93333,-2.05642 25.746061,-12.5902 36.569276,-21.639171 11.40332,8.470841 22.6223,17.310381 36.09665,21.639171 -1.68797,14.58909 -6.1449,27.4742 -12.46141,39.21496 l -1.34648,-1.37001 c 6.43074,-11.24391 10.06932,-23.48501 11.51267,-36.51012 -13.28097,-5.3496 -23.4538,-12.90079 -33.80143,-20.328168 -10.50284,8.185828 -21.760881,15.163348 -34.151852,20.328168 1.330285,12.52492 5.211959,24.69792 11.709437,36.51012 z"
             id="path1603"
             sodipodi:nodetypes="ccccccccccc" />
          <path
             style="fill:#273839;fill-opacity:0.5;stroke:none;stroke-width:0.264583px;stroke-linecap:butt;stroke-linejoin:miter;stroke-opacity:1"
             d="m 93.116984,161.45463 -1.637024,1.06918 c 5.060564,5.82057 10.65294,11.5184 16.87149,17.07174 6.86895,-4.83537 13.18147,-10.28281 18.27445,-17.07174 l -1.40316,-1.06918 c -4.91331,5.94434 -10.53255,11.13863 -16.87129,15.56845 -5.567,-4.97222 -10.459852,-10.24406 -15.234466,-15.56845 z"
             id="path1605"
             sodipodi:nodetypes="ccccccc" />
        </g>
      </g>
    </g>
  </g>
</svg>
