<svg height="512" viewBox="0 0 135.46667 135.46667" width="512" xmlns="http://www.w3.org/2000/svg"><g fill="#273839" stroke-width=".264583" transform="matrix(1.4395287 0 0 1.4395287 -91.596485 -116.017257)"><path d="m104.36484 171.89794c-.12021-.32742-.54873-1.96453-.95228-3.63802-.40354-1.67349-.8928-3.17142-1.08723-3.32873-.28205-.22819-.12832-.50448.76038-1.3666l1.11391-1.08058 1.4552.2658c2.09767.38316 8.26478.38085 10.58334-.004 1.0914-.18114 3.36053-.7888 5.04251-1.35034 13.12723-4.38266 22.20382-16.17691 23.5456-30.59549.26167-2.81184-.009-8.7222-.43034-9.40428-.0761-.12311.31643-.71138.87227-1.30727l1.01061-1.08343 2.11145.54838c1.16129.30161 2.82581.76466 3.69894 1.029l1.5875.48061.0707 6.6537.0707 6.65369-.99671.27286c-.54818.15007-2.17828.61063-3.62242 1.02347l-2.62572.75061-.56697 2.0968c-.67629 2.5011-1.98617 5.80304-3.06062 7.71519-.42804.76178-.77827 1.50808-.77827 1.65845 0 .15036.77588 1.66429 1.72418 3.36428s1.69244 3.17451 1.65365 3.2767c-.15955.4203-8.76358 9.23322-9.01437 9.23322-.14976 0-1.56893-.7739-3.15369-1.71979-2.93464-1.75157-3.34684-1.91137-3.7907-1.46964-.566.56328-5.78599 2.94226-7.9069 3.60353-1.25147.39018-2.34186.81697-2.4231.94842-.0812.13145-.49881 1.63483-.92794 3.34084-.42912 1.70602-.84489 3.31021-.92392 3.56487-.13162.42409-.67667.46302-6.48242.46302-6.33234 0-6.33894-.00053-6.55727-.59531zm-32.179809-36.46268c-1.455208-.42948-3.094351-.9043-3.64254-1.05515l-.996707-.27427.07067-6.6442.07066-6.6442 1.322917-.44936c.727604-.24714 2.422334-.72742 3.766066-1.06727l2.443149-.61792.407166-1.47138c.631297-2.28133 1.691209-4.98347 2.812185-7.1694.562362-1.09662 1.022476-2.14244 1.022476-2.32405 0-.18162-.842934-1.81897-1.873187-3.63858l-1.873188-3.30837 3.962728-4.157158c2.1795-2.286438 4.248326-4.42301 4.597392-4.747937l.634664-.590778 2.839765 1.689267c1.561872.929097 3.016636 1.836056 3.232811 2.015466.322498.267648.95037.04057 3.498009-1.265087 1.707732-.875208 4.0885-1.913471 5.2906-2.307253 1.202103-.393781 2.286483-.914124 2.409743-1.156318s.61208-2.017931 1.08626-3.946082l.86215-3.50573h6.4207 6.4207l.13198.595313c.57747 2.604678 1.85218 6.961988 2.05762 7.033507.47944.166908.25139.735931-.64197 1.601811l-.89531.867768-3.12465-.322152c-16.341149-1.684775-31.277566 8.549653-36.123586 24.751883-1.460125 4.88179-1.918355 10.21079-1.275461 14.83303l.283603 2.03903-.998758 1.02282c-.549317.56256-1.123423 1.01625-1.275791 1.00822-.152368-.008-1.467657-.36599-2.922866-.79547z" fill-opacity=".501961"/><path d="m106.49959 155.26495c-1.06334-1.1703-1.88377-2.2673-1.82318-2.43778.0606-.17048.41748-.28852.79308-.26231.53657.0374.70048-.0872.76486-.58172.051-.39187 1.62308-2.20711 4.16575-4.81015 13.61675-13.94002 14.05735-14.36724 14.81726-14.36724.55604 0 1.33469-.55172 3.18422-2.25625 3.00583-2.77017 7.33846-6.53439 9.20369-7.99622 1.387-1.08703 2.35749-1.56529 2.6278-1.29498.38966.38966-2.94206 4.79759-7.65797 10.13164-1.78204 2.01562-3.53772 4.27887-3.90153 5.02944-.49449 1.02021-2.69839 3.45522-8.73125 9.64687-10.04053 10.3048-9.51706 9.81308-10.2526 9.63097-.41284-.1022-.59531-.029-.59531.23892 0 .21246.11906.45988.26458.54982.49812.30786.27497.92621-.33073.91643-.40119-.006-1.22576-.70348-2.52867-2.13744zm-5.45017-5.78172c-2.041904-2.09825-2.525321-3.16789-1.33813-2.96081.285765.0498.63117.10938.76757.13229.1364.0229.25546-.21345.26459-.52526.0175-.59918 1.13913-1.80766 11.81341-12.72839 5.31506-5.43777 6.38739-6.41614 7.03237-6.41614.59541 0 1.36851-.56141 3.55246-2.57969 7.43299-6.86915 11.6173-10.05065 11.6173-8.83311 0 .69027-5.02022 7.03444-9.72905 12.29481-1.0998 1.22862-1.92129 2.4025-2.01733 2.88269-.11755.58779-1.4545 2.1244-4.87256 5.60028-2.5908 2.63462-6.66522 6.79071-9.05426 9.23575-3.66708 3.75304-4.43747 4.42199-4.94567 4.29444-.65319-.16394-.82975.31912-.30752.84136.33923.33923.0974.86972-.39647.86972-.18446 0-1.25848-.94858-2.38671-2.10794zm-5.535174-5.79918c-1.116639-1.14745-2.030256-2.1952-2.030256-2.32833 0-.52921.605576-.85478 1.098868-.59078.268747.14383.501287.16803.516757.0538.01548-.11426.04523-.39922.06615-.63323.0209-.23401 3.848021-4.33564 8.504685-9.11472 10.46489-10.74 9.57997-9.90668 10.52006-9.90668.61571 0 1.22216-.41911 2.80564-1.93893 6.34127-6.08638 12.20659-10.64635 12.20659-9.48995 0 .77097-3.00182 4.66913-8.05246 10.45693-1.75578 2.01204-3.29902 3.97657-3.42941 4.36562-.42284 1.26161.44993.31725-13.32965 14.42307-4.603689 4.71269-5.196525 5.23174-5.801932 5.07979-.574736-.14425-.645398-.0989-.478533.30722.875064 2.12966-.111429 1.86987-2.596505-.68378zm-4.972499-5.2559c-2.116633-2.18988-2.670959-2.98601-2.349098-3.37383.14719-.17735.545303-.26938.884695-.2045.485198.0927.612068.005.593632-.41197-.02339-.52884.839182-1.4483 12.857564-13.70544 4.47994-4.56894 5.36517-5.3532 6.22441-5.51439.55094-.10336 1.06151-.2745 1.1346-.38033.22423-.32463 6.67126-6.17512 8.04396-7.29965.71054-.58208 1.72154-1.41552 2.24667-1.85208 2.20023-1.82916 3.46831-2.44605 3.46831-1.68725 0 .67005-4.06237 5.80664-9.98802 12.62919-.90951 1.04717-1.65365 2.14946-1.65365 2.44955 0 .35889-3.01011 3.63884-8.79588 9.58435-4.837733 4.97131-9.00617 9.1952-9.263191 9.38642-.270521.20126-.70584.27197-1.033727.16791-.476724-.15131-.534374-.10162-.36408.31378.80646 1.9672-.04834 1.92385-2.006195-.10176zm-5.748736-6.01833c-2.650152-2.83302-3.0063-3.72946-1.350088-3.39822.682463.13649.77722.0849.717346-.39044-.05075-.4029 1.749859-2.41456 6.810179-7.60841 3.783542-3.88339 7.817303-8.05843 8.963914-9.27787 1.699788-1.80774 2.266438-2.24621 3.068698-2.37449.60799-.0972 1.37839-.5192 2.01629-1.10439 7.53357-6.91105 12.04312-10.639833 12.86772-10.639833 1.08328 0-1.98523 4.176843-8.69886 11.840863-1.2177 1.39008-2.54062 3.15832-2.93984 3.92942-.52965 1.02305-3.07728 3.80021-9.425508 10.27472-7.857569 8.01388-8.764561 8.85644-9.370066 8.70447-.581231-.14588-.643107-.10141-.46521.33436.783053 1.91816-.257493 1.78056-2.194575-.29018z"/></g></svg>