<svg clip-rule="evenodd" fill-rule="evenodd" height="512" image-rendering="optimizeQuality" shape-rendering="geometricPrecision" text-rendering="geometricPrecision" viewBox="0 0 512 512" width="512" xmlns="http://www.w3.org/2000/svg"><g fill="#273839" transform="matrix(1.685793 0 0 1.685793 -172.84046 -186.74323)"><path d="m109.646 291.828v24.34737l70.018.33582v9.23508l-70.018.50373v21.66h72.705l25.186-25.354h93.191l26.36155 25.354h72.03445v-22.332h-69.18v-9.823h69.18v-23.927h-72.37027l-26.02573 25.859h-93.191l-25.186-25.859z"/><path d="m109.646 173.451v109.478h75.2234l25.6903 25.813h88.1373l26.20972-25.813h74.21728v-109.478h-25.691v12.594l17.798 14.27216v74.55184h-99.40264l-14.10436 14.944-14.44042-14.944h-18.63806l-14.4403 14.944-14.77612-14.944h-99.2351v-74.71975l18.30276-12.59328-.33548-14.10497z"/><path d="m115.40616 357.142h69.45741l25.64581-25.884h87.97939l26.23947 25.88436 66.60787-.00036-6.29272 6.174h-22.67739v4.274h-217.515v-4.274h-22.79593z"/><g fill-opacity=".5"><path d="m239.12346 260.364 7.3613-12.929h21.60924l8.31087 12.929z"/><path d="m245.77238 238.172-11.39838-18.99528 11.75457-19.94872h22.44008l11.63535 19.82999-11.16042 19.11401z"/><path d="m242.80411 157.674-8.43011 14.01 11.63584 18.879h22.67754l11.51662-18.879-8.31089-14.01z"/><path d="m198.636 157.674 3.922 9.37998 22.915-.11898 4.50821-9.261z"/><path d="m149.24438 157.674-6.29238 9.49871v-3.91771h-12.348v-5.581z"/><path d="m142.952 175.60258v16.02863l-12.348 9.73592v13.05987h12.94132l11.39813-19.829z"/><path d="m130.604 223.92594v36.43806h13.6537l10.92322-17.68-12.11053-19.11425z"/><path d="m162.661 247.435-8.07374 12.929h37.9938l-8.19241-12.929z"/><g clip-rule="evenodd" fill-rule="evenodd" image-rendering="optimizeQuality" shape-rendering="geometricPrecision" text-rendering="geometricPrecision"><path d="m203.73337 260.364-11.62337-17.68 10.80419-18.878h22.915l10.68581 18.75913-11.042 17.79887z"/><path d="m202.558 214.663-10.448-20.065 10.448-19.234h22.915l11.042 19.234-11.042 20.065z"/><path d="m162.661 238.172-12.34445-19.59046 12.34445-19.35354h21.96869l11.51687 19.23481-11.04194 19.70919z"/></g><path d="m159.21776 157.674-8.54861 14.01 11.99185 18.879h22.20257l11.27941-18.879-7.24257-14.01z"/><path d="m281.27283 157.674 5.93617 9.261h22.44l5.69952-9.261z"/><path d="m324.9657 157.674-7.71749 14.01 11.27941 18.879h22.55881l11.51687-18.879-7.71749-14.01z"/><path d="m364.74045 157.674 4.39304 5.93679h9.26051l.4754-3.087-2.96827-2.84979z"/><path d="m363.55315 185.10103-5.46161 10.4483 11.6356 18.99667h8.66686v-11.38948l-15.12749-11.04195z"/><path d="m369.84587 223.56975-11.39814 19.11425 10.4483 17.68h9.49797v-36.794z"/><path d="m328.40888 247.435c-.83111.47493-7.48002 12.929-7.48002 12.929h37.87506l-8.31114-12.929z"/><path d="m309.649 260.364 11.51732-17.68-11.51732-19.233h-22.44l-11.39778 19.233 11.39778 17.68z"/><path clip-rule="evenodd" d="m328.17501 238.172-11.51687-18.9968 11.87306-19.9472h22.44008l11.51687 19.82847-11.04194 19.11553z" fill-rule="evenodd" image-rendering="optimizeQuality" shape-rendering="geometricPrecision" text-rendering="geometricPrecision"/><path clip-rule="evenodd" d="m287.209 215.13836-11.27545-19.59055 11.27545-19.35309 22.44-.11872 12.11456 19.35308-12.11456 20.06547z" fill-rule="evenodd" image-rendering="optimizeQuality" shape-rendering="geometricPrecision" text-rendering="geometricPrecision"/></g></g></svg>