<svg height="512" viewBox="0 0 135.46667 135.46667" width="512" xmlns="http://www.w3.org/2000/svg"><g fill="#273839" stroke-width=".264583" transform="matrix(1.4422948 0 0 1.4422948 -87.920068 -124.97148)"><path d="m101.2682 178.10671c-.0897-.14508-.14092-1.45389-.11389-2.90847.0314-1.69114-.0619-2.77842-.25871-3.0156-.20354-.24525-.28229-1.34398-.23245-3.2431l.0754-2.87217h6.61459 6.61458v3.0427 3.04271l2.77813-.0781c1.94495-.0547 3.03295-.20996 3.6278-.51768.64436-.33333 1.02685-.37725 1.58279-.18174 1.37674.48418 1.51504 2.64988.20726 3.24574-.99433.45305-1.39623.38687-2.13462-.35151-.62119-.6212-.82982-.66146-3.42755-.66146h-2.7661v2.38125 2.38125h-6.20209c-3.83673 0-6.26427-.1006-6.36512-.26378zm-5.953624-10.28823c0-2.5878.01799-2.66145 1.761855-7.2099 1.684899-4.39466 1.768684-4.72251 1.918229-7.5058l.156374-2.91041 1.785936-.0782c1.56894-.0687 1.78594-.14106 1.78594-.59531 0-.46278-.19053-.51708-1.81438-.51708h-1.814376l-.139075-8.13594c-.09941-5.81582-.05428-8.241.158276-8.50437.241099-.29874.992485-.33525 3.971845-.19303 2.02097.0965 3.77825.23953 3.90506.31791.12681.0784.23057.98005.23057 2.00373 0 1.63873-.0633 1.87778-.52917 1.99962-.51164.13379-.52917.3609-.52917 6.8544 0 5.7934.0545 6.71601.39688 6.71601.32758 0 .39687.48507.39687 2.77813 0 2.29305-.0693 2.77812-.39687 2.77812-.32758 0-.39688.48507-.39688 2.77813v2.77812h1.32292 1.32292v-2.65413c0-2.11516-.0806-2.68507-.39688-2.80644-.31755-.12185-.39687-.7019-.39687-2.90211 0-2.26789.0696-2.74982.39687-2.74982.34236 0 .39688-.92289.39688-6.71856 0-5.72799-.0585-6.74103-.39688-6.87087-.30027-.11522-.39687-.60134-.39687-1.99707 0-1.01462.10585-1.91019.23523-1.99015.12938-.08 1.7721-.22316 3.65049-.31823 4.46079-.22577 4.58094-.16601 4.58094 2.27816 0 1.00494-.11906 1.90074-.26458 1.99068-.16421.10149-.26458 2.51629-.26458 6.36562v6.20209h-1.98438c-1.79317 0-1.98437.0499-1.98437.51758 0 .45897.2172.52637 1.91823.59531l1.91822.0777.13571 2.91041c.13102 2.80978.19735 3.07191 1.91823 7.58072 1.75387 4.59523 1.78252 4.71128 1.78252 7.21983v2.54952l-2.44739-.0761-2.4474-.0761-.13229-3.175c-.12664-3.03932-.18317-3.29373-1.32292-5.95313l-1.19062-2.77812-.079 1.51041c-.0768 1.46823-.0491 1.53743.99219 2.47818.7805.70514 1.07121 1.17483 1.07121 1.73074v.76296h-6.74687c-6.24766 0-6.74718-.0343-6.75093-.46302-.003-.3957-.0413-.40532-.26053-.0662-.14107.21828-.25831 1.6768-.26053 3.24115l-.004 2.84427h-2.381254-2.38125zm7.340094-7.36132c.0613-1.46867.0478-1.50426-.32066-.8413-.21158.38074-.63118 1.31758-.93244 2.08189l-.54775 1.38964.8684-.54835c.80176-.50627.87331-.66602.93245-2.08188zm-7.340094-29.45935c-.800365-.27652-2.509512-1.01197-3.798107-1.63432l-2.342899-1.13154 1.152274-.17883c.633751-.0984 1.836883-.18765 2.673628-.19844.836745-.0108 1.517179-.1089 1.512078-.21804-.0051-.10915-.831887-1.44533-1.837304-2.9693-1.005414-1.52397-1.794539-2.80434-1.753613-2.84527.04093-.0409 1.224452.18446 2.630053.50085 1.405605.31639 2.602566.5252 2.659915.46402.05735-.0612-.165357-1.30187-.494906-2.75708-.329549-1.4552-.560107-2.68995-.51235-2.74387.04775-.0539.568569.2835 1.157364.74984l1.070534.84788v6.32776c0 4.89614-.07483 6.3234-.330729 6.30844-.181901-.0106-.985573-.24558-1.785938-.5221zm21.714374-5.47784.0186-6.01927 1.70125-1.12167c.93568-.61692 1.70124-1.01698 1.70124-.88902 0 .12795-.23927 1.39554-.53172 2.81685-.29245 1.42132-.49012 2.62582-.43927 2.67666.0508.0508 1.18664-.16273 2.52398-.47462 1.33735-.3119 2.49418-.50444 2.57073-.42789.0766.0766-.64802 1.3562-1.61018 2.84365-.96215 1.48744-1.68179 2.77202-1.59919 2.85461.0826.0826 1.30963.2247 2.72676.3158l2.5766.16561-2.77812 1.34375c-2.82082 1.36439-4.61047 1.93481-6.07029 1.93481h-.80888l.0186-6.01927zm-17.627424 5.15191c-.07138-.18601-.09741-2.71609-.05784-5.6224l.07193-5.2842.992194-.0821.99218-.0821v5.70451 5.70451h-.93434c-.514404 0-.99268-.152-1.064126-.33819zm8.801974.17434c-.10391-.10391-.18892-6.89611-.18892-15.09379v-14.90486h1.06052 1.06051l-.0683 15.01511-.0683 15.0151-.80326.0787c-.44179.0433-.88828-.006-.99219-.11025zm4.7625 0c-.1039-.10391-.18892-4.81252-.18892-10.46358v-10.27465h1.0614 1.0614l-.0692 10.3849-.0692 10.38489-.80326.0787c-.44179.0433-.88828-.006-.99219-.11025zm-9.44934-15.57886v-15.478121h1.05833 1.05834v15.478121 15.47813h-1.05834-1.05833zm13.49375 1.60974c0-1.6644.0207-1.71394 1.05833-2.53578.58209-.46102 1.05834-.7695 1.05834-.68551 0 .26676-1.90302 4.91885-2.01215 4.91885-.0575 0-.10452-.76391-.10452-1.69756zm-20.060526-1.70164c-.378384-1.24684-.308258-1.59906.197125-.99011.176186.21229.28245.78072.23614 1.26317l-.0842.87718zm2.068859-1.15443c0-1.62009.151003-2.5618.593966-3.70417.326681-.84248.661851-1.53179.744821-1.53179.083 0 .4122.74414.73163 1.65365.40736 1.15989.57997 2.2659.57809 3.70417l-.003 2.05052h-1.32292-1.322917zm13.229167-9.44554c0-1.96594.66378-4.678077 1.32178-5.400669.10895-.119648.51703.656907.90683 1.725679.56745 1.55586.69286 2.31124.62912 3.78942l-.0796 1.84619-1.38906.08-1.38906.08zm-4.32153-7.34389c-.41675-.416755-.16377-4.071491.38545-5.568373.30902-.842204.64815-1.626336.75364-1.742516.10548-.11618.47068.538664.81155 1.455209.72539 1.950464 1.00882 5.044763.51643 5.638059-.32695.393951-2.13155.553136-2.46707.217621zm-4.6743-2.96124c0-1.929023.66257-4.629124 1.32705-5.407982.0991-.11618.46305.538664.80873 1.455208.4666 1.237136.6303 2.21174.63543 3.783111l.007 2.116667-1.38906.07997-1.38907.07997v-2.10695z" fill-opacity=".5"/><path d="m101.39999 175.36018c0-2.35306-.0867-3.08223-.39687-3.33969-.30613-.25406-.39688-.95724-.39688-3.0751v-2.74573h6.6472 6.64719l-.11138 3.10885-.11138 3.10886 3.03849-.083c2.19382-.0599 3.11671-.18461 3.31991-.44854.52027-.67576 1.57235-.73218 2.3434-.12567.80668.63453.9135 1.44834.30428 2.31812-.53679.76638-1.96169.79827-2.63083.0589-.42528-.46993-.81491-.52917-3.48059-.52917h-3.0017v2.38125 2.38125h-6.08542-6.08542zm-5.909024-5.10358c-.09701-.097-.17639-1.20566-.17639-2.46365 0-2.19694.07837-2.49745 1.984375-7.60913 1.932684-5.18322 1.984375-5.3844 1.984375-7.7228v-2.40095h2.381254 2.38125v2.63921c0 2.63864-.00027 2.63999-1.5875 6.33515-.87313 2.03277-1.5875 3.81924-1.5875 3.96993s.54498-.11052 1.21107-.58047c1.18718-.83759 1.27685-.85619 4.54734-.94322 4.14368-.11026 5.39884.0703 6.41116.92207.59751.50277.79501.89317.79501 1.57148v.90252h-6.50706c-6.37251 0-6.51005-.0114-6.65129-.55153-.31639-1.20988-.59199.23823-.59593 3.13122l-.004 2.97656h-2.204864c-1.212675 0-2.284238-.0794-2.38125-.17639zm19.588994.01c-.10242-.10241-.18622-1.40268-.18622-2.88947 0-2.91284-.21538-3.60604-3.0216-9.72476-.89492-1.9513-.94715-2.21815-.94715-4.83895v-2.77377l2.31511.0764 2.3151.0765.15526 2.77812c.14743 2.63827.25116 3.0293 2.0604 7.76737 1.89415 4.96042 1.90472 5.00246 1.82912 7.27604l-.076 2.2868-2.12888.076c-1.17089.0418-2.21269-.008-2.31511-.11024zm-10.71282-17.34719.0756-2.72686h1.19063 1.19062v2.64583 2.64583l-1.26619.081-1.26619.081zm3.76046 2.34543c-.0742-.19342-.10025-1.41381-.0578-2.71198l.0771-2.36031 1.12448-.0814 1.12448-.0814v2.79333 2.79334h-1.06664c-.64311 0-1.12022-.13963-1.20159-.35166zm-8.844274-12.46501c0-3.84933-.10037-6.26413-.264583-6.36562-.145521-.0899-.264584-.97535-.264584-1.96759 0-2.4644.08692-2.51766 3.779451-2.31572 1.63209.0893 3.35438.2412 3.82732.33764l.8599.17536v1.78594 1.78593l-.82683.16537c-.45475.0909-1.16912.16536-1.5875.16536h-.76067v6.21771 6.21771h-2.38125-2.381254zm11.641664-.0156v-6.21771h-.94343c-1.67675-.00001-1.96698-.32866-1.96698-2.22742 0-1.99725-.15239-1.91485 4.01872-2.17304 2.03331-.12586 3.05572-.0808 3.63802.16042.79074.32754.80992.37791.80992 2.12716 0 1.34852-.0982 1.82934-.39687 1.94397-.33722.1294-.39688 1.08815-.39688 6.37831v6.22601h-2.38125-2.38125v-6.21771zm-11.316303-17.52865.07151-5.49011.859903-.0829.85989-.0829v5.57302 5.57301h-.93141-.931411zm4.172553-9.97126v-15.495081h.92818.92817l-.0683 15.411981-.0683 15.41198-.85989.0829-.8599.0829zm4.49792.49564v-14.96572l.8599.0829.85989.0829.0684 14.88282.0683 14.88281h-.92824-.92825zm4.49792 4.77096c0-11.08499-.0525-10.7125 1.4558-10.33394l.66086.16586v10.18142 10.18142h-1.05833-1.05833zm-13.758337-6.29032c0-1.82364.833292-5.21075 1.281937-5.21075.45703 0 1.3639 3.50747 1.3639 5.2751v1.86865h-1.32292-1.322917zm13.229167-9.68513c0-1.66205.71609-4.41683 1.33565-5.13817.39108-.455337 1.31018 3.07583 1.31018 5.03371v1.933h-1.32291-1.32292zm-4.32153-7.608263c-.59335-.593354.29617-5.856493 1.14763-6.790324.40375-.442801 1.32182 3.053379 1.32182 5.033712v1.933001h-1.14653c-.63059 0-1.22591-.07937-1.32292-.176389zm-4.48547-.7813c-.41468-.414685-.17786-3.649181.38315-5.232855.31458-.888066.65854-1.714545.76435-1.836621.1058-.122076.4492.54981.7631 1.493078.42514 1.277555.55075 2.211559.49242 3.66154l-.0783 1.946505-1.06793.0786c-.58737.04323-1.15291-.0064-1.25678-.110243z"/></g></svg>