<svg height="512" viewBox="0 0 135.46667 135.46667" width="512" xmlns="http://www.w3.org/2000/svg"><g fill="#273839" stroke-width=".352778" transform="matrix(1.1117351 0 0 1.1117349 -56.720895 -80.993009)"><path d="m98.152431 156.79719c-.43028-.97303-1.743132-4.94178-2.917452-8.81945-1.631346-5.38682-2.188001-7.79945-2.359226-10.22532-.123257-1.74625-.366067-3.73062-.53958-4.40972-.33581-1.31431.364285-6.8459.938177-7.41268.170123-.16802 1.658694-.80072 3.30793-1.40599s3.52362-1.40868 4.1653-1.78536c.64169-.37667 1.21745-.68486 1.27948-.68486.39734 0 1.72135 4.00936 1.87175 5.66802.17443 1.92364.10475 2.13517-1.80365 5.47558-2.3781 4.16253-2.485274 5.22802-.92948 9.2407 1.24363 3.20755 5.75703 10.46601 7.1458 11.49188 1.16414.85995 5.08705 1.02869 6.82749.29367 1.34996-.5701 4.80404-5.70811 7.14118-10.62262 2.25996-4.75224 2.22665-5.85301-.31047-10.26076-1.73812-3.01965-1.92401-3.54307-1.89035-5.32281.025-1.32183.34552-2.64704.97032-4.01179.80182-1.75141 1.009-1.97488 1.47346-1.58941.29725.2467 2.32123 1.11716 4.49773 1.93437l3.95727 1.48583.29059 2.4302c.15982 1.33661.44127 2.71167.62543 3.05568.2067.38614.20986.85901.008 1.23573-.17962.33563-.51763 2.51478-.75114 4.84256-.34042 3.3937-.84415 5.59545-2.54215 11.11151-1.16468 3.78354-2.46461 7.56232-2.88874 8.39729l-.77114 1.51812-13.00722.0694-13.007225.0694-.782327-1.76912zm9.899769-6.01726c-2.12751-2.7893-5.80426-9.45462-6.20623-11.25083-.38843-1.73568-.3545-1.995.49206-3.76073.5001-1.04308 1.49662-2.80863 2.21451-3.92345 1.77661-2.75896 1.90872-4.45829.68251-8.77916-.90494-3.18882-1.03617-3.41729-2.77286-4.8275-2.494443-2.02552-5.035952-2.93385-8.702132-3.11012-2.518812-.1211-3.196174-.0318-4.233334.55823-.679097.38632-2.425347 1.28206-3.880555 1.99053-1.455209.70847-2.716319 1.35245-2.80247 1.43106-.379423.3462 4.450672 4.70018 6.039919 5.44455l1.758262.82352-.224356 2.48403c-.123399 1.36622-.402499 2.84376-.620219 3.28344-.310466.62696-.272768 1.05753.174756 1.996.313838.65813.668789 2.2034.788779 3.43393s.297452 2.61902.394356 3.08552c.171849.82731.145521.82127-1.069276-.24534-1.399643-1.2289-2.642507-1.64269-6.727667-2.23989-4.184088-.61165-5.059273-1.58933-7.194567-8.03712-.605468-1.8283-1.100851-3.76463-1.100851-4.30296 0-.53834.626271-3.51968 1.391714-6.6252 1.24888-5.0669 1.527745-6.65501 1.925715-10.96672.113256-1.22705.122423-1.23301 3.627086-2.36181 5.770369-1.85854 14.231896-3.28758 19.463-3.28704l1.63832.00017.0877 2.02392c.26235 6.05584 3.74175 9.25011 9.61784 8.82967 2.83339-.20272 5.05495-1.29146 6.24728-3.06164 1.04583-1.55266 1.86248-4.3234 1.86248-6.31903v-1.57368l3.89896.24672c6.53472.41349 15.36598 2.18069 19.47284 3.89665 1.20408.50309 1.32264.67455 1.32264 1.9128 0 2.03345.92224 6.93551 2.32141 12.33914l1.24599 4.81206-.58591 2.09504c-1.01607 3.63318-2.6015 7.42401-3.61029 8.63238-.90951 1.08945-1.23556 1.20957-4.98672 1.83711-3.97978.66578-5.99626 1.48228-6.71879 2.72053-.87046 1.49177-.0825-5.19346.82706-7.01663.43809-.87818.44478-1.18467.0438-2.00663-.26027-.53358-.52592-2.00201-.59032-3.26319l-.1171-2.29306 2.10727-1.11895c1.74243-.92523 6.17182-4.91494 5.7704-5.19761-.0641-.0451-1.14843-.51983-2.40962-1.05486-1.26118-.53504-2.53699-1.19273-2.83513-1.46154-2.45442-2.21293-8.18956-2.04752-12.62029.36399-2.989 1.62681-3.80139 2.74241-4.84076 6.64746-1.16524 4.37794-1.02356 5.27457 1.48881 9.42207 2.20821 3.64538 2.56623 5.17991 1.76033 7.54511-.60219 1.76733-4.68377 8.73095-6.11311 10.42962-.85874 1.02055-.99882 1.05943-3.81683 1.05943h-2.92538zm6.49841-5.36653c.88596-.92821 2.29372-2.89559 3.12835-4.37198l1.51751-2.68433-1.62552-2.94817c-1.78216-3.23225-4.51352-6.29955-5.60961-6.29955-1.11598 0-4.1518 3.45842-5.72889 6.52639l-1.45077 2.82222 1.63294 2.73097c2.06972 3.46147 4.40041 5.91209 5.62274 5.91209.61778 0 1.41047-.53229 2.51325-1.68764zm-3.5518-4.045c-1.04571-.86193-3.91274-4.49792-3.54668-4.49792.20472 0 1.12055-.9525 2.03517-2.11667 2.12722-2.70761 2.74767-2.74205 4.7656-.26458.8297 1.01865 1.7245 2.03337 1.98843 2.25494.3905.32782.11151.83709-1.49778 2.73403-1.97838 2.332-2.74145 2.71717-3.74474 1.8902zm.0474-4.8507c0-.97014-.087-1.76389-.19331-1.76389-.10632 0-.55407.41941-.995.93202l-.80169.93203.73041.79461c1.08109 1.17611 1.25959 1.04931 1.25959-.89477zm3.175.88195.82854-.88195-.82854-.88194c-.4557-.48507-.91994-.88195-1.03163-.88195-.1117 0-.20309.79375-.20309 1.76389s.0914 1.76389.20309 1.76389.57593-.39687 1.03163-.88194zm-30.225837-3.44485c.287468-1.22272.215142-1.43569-.91078-2.68196-.672674-.74456-1.862629-2.63161-2.644344-4.19343l-1.4213-2.83967-1.330748 1.36281-1.330748 1.36281 1.305108 3.08309c.717808 1.6957 1.71102 3.61527 2.207136 4.26571.802047 1.05154 1.063382 1.17078 2.357719 1.07572 1.363783-.10015 1.475406-.19076 1.767957-1.43508zm60.034947.35804c.5013-.63059 1.54159-2.57129 2.31176-4.31268l1.40031-3.16614-1.36243-1.36243-1.36242-1.36242-1.52557 3.07961c-.83906 1.69379-2.05111 3.60515-2.69344 4.24749-.64233.64233-1.1039 1.37374-1.0257 1.62535s.23785.89403.35476 1.42761c.18803.85813.37299.97014 1.60193.97014 1.14532 0 1.54944-.20138 2.3008-1.14653zm-6.31712-.67983c.8035-1.5538-.089-3.40708-1.3987-2.90448-.43871.16834-.57389.70212-.57389 2.26611 0 1.8856.0564 2.03115.71969 1.8577.39582-.10352.95963-.65221 1.2529-1.21933zm-49.668178-.90424c-.120967-2.31537-.838866-2.85006-1.818731-1.3546-.539458.82331-.538452.97365.01425 2.1327.366712.769.846762 1.24694 1.252449 1.24694.577797 0 .644952-.24634.55202-2.02504zm20.712108-5.74243c.71818-1.13767.83868-1.63406.61047-2.51477l-.28434-1.0973-.90972 1.37468c-.66303 1.00189-.86435 1.68385-.7424 2.51477.092.62705.2267 1.14009.29925 1.14009.0726 0 .53459-.63786 1.02674-1.41747zm7.16131-2.21481c-.44843-.70221-.93439-1.28346-1.07991-1.29167-.57144-.0323-.22195 2.48643.51935 3.74283l.78392 1.32866.29598-1.25153c.24293-1.02719.14983-1.48041-.51934-2.52829zm-37.548748-2.47137c.539114-.94405.912244-2.28057 1.029078-3.68607.225435-2.71193 1.304354-4.67625 3.801767-6.92164 3.782074-3.4004 6.060595-3.139 18.180703 2.08581 9.65042 4.16017 11.76341 4.18659 20.60104.25758 5.96868-2.65353 10.62606-4.28399 13.06085-4.57236 2.4272-.28746 5.15661 1.07073 7.11813 3.54207 1.80293 2.27153 2.24591 3.34702 2.55556 6.20454.17533 1.6181.51801 2.65614 1.19122 3.60844 1.21504 1.71877 1.68227 1.73531.82018.029-.38154-.75517-.84087-2.83693-1.07029-4.8507-.36469-3.20114-.52702-3.70743-1.75324-5.46805-1.62951-2.33968-4.19912-4.37202-6.25593-4.94789-2.78904-.78088-8.23606.62547-15.3137 3.95381-4.3443 2.04295-7.00422 2.74557-10.42102 2.75275-3.26301.007-5.88457-.70262-10.39287-2.81261-4.52034-2.11563-8.210375-3.36665-11.564007-3.92049-2.242933-.37041-2.726062-.34475-4.214876.22383-1.938581.74035-5.085349 3.5658-6.267587 5.62759-.567102.98902-.931332 2.46269-1.20777 4.88663-.217691 1.90882-.630793 3.92499-.918004 4.4804-1.090589 2.10897-.224481 1.70791 1.020766-.47267zm30.150088.58851c.64073-.98874.77345-1.54781.59423-2.50313l-.23076-1.23006-.99256 1.36097c-.75851 1.04004-.95158 1.63134-.81878 2.5075.0956.63059.27483 1.14456.39833 1.14216.12349-.002.59579-.57725 1.04954-1.27744zm7.66502-2.27396c-.52699-.79632-1.01839-1.38762-1.09202-1.31399-.0736.0736-.17169.69543-.21791 1.38179-.0575.85373.18505 1.62583.76785 2.4443l.85189 1.19637.32417-1.1303c.27447-.95702.17727-1.35229-.63398-2.57817zm-31.249436-6.57418c.0059-.48498-1.091893-1.15894-1.887813-1.15894-.290586 0-.864486.47208-1.275334 1.04906l-.746996 1.04906.8097 1.09517.809698 1.09518 1.14275-1.35048c.628512-.74277 1.145109-1.54334 1.147995-1.77905zm57.304376 2.1201.82085-.95428-.74957-1.15801c-.41226-.63691-.93768-1.15998-1.16758-1.16238-.70105-.007-2.22783.66504-2.22783.9811 0 .29925 2.16568 3.24786 2.38548 3.24786.0648 0 .48719-.42943.93865-.95429zm-49.905486 3.9352c-1.200447-1.44645 2.729455-2.36645 4.445183-1.04063.677866.52382.677866.53452 0 1.05833-.919886.71084-3.850234.69917-4.445183-.0177zm34.964406.15962c-.77169-.30836-.80305-.39672-.31422-.88554 1.2242-1.2242 4.87562-1.25507 4.87562-.0412 0 1.23311-2.51561 1.74421-4.5614.92676zm-18.74599-11.36648c-1.78096-.94179-2.95729-2.93296-3.3205-5.62057l-.22646-1.6757h6.90079 6.90078l-.002.97014c-.003 1.45703-.6939 3.66609-1.50247 4.80361-1.62758 2.28973-5.89516 3.03229-8.75017 1.52252z"/><path d="m94.463317 190.75729c-.462298-.63059-3.52237-4.52325-6.800166-8.65034l-5.959623-7.50381-1.765472-12.17751-1.765472-12.17752 3.807207-3.95478c2.093963-2.17514 3.912472-4.00044 4.041127-4.05624.452867-.1964 3.849059 2.76389 4.405616 3.84016.30983.59914.511933 1.1297.449121 1.17901-.201055.15785-6.094885 5.23637-6.539407 5.63479-.334877.30015-.281312 2.5346.246253 10.27179l.674229 9.8882 4.112088 7.5743c2.261647 4.16587 4.583423 8.40774 5.159498 9.42639 1.191835 2.10746 1.166262 2.38504-.065.70556zm35.244353-1.32292c.76614-1.45521 3.07205-5.72584 5.12423-9.4903l3.73126-6.84447.51806-7.79581c.28494-4.2877.60315-8.75248.70714-9.92174l.18907-2.12594-2.67317-2.28379c-1.47024-1.25608-3.07375-2.6194-3.56337-3.02959-.86465-.72439-.87381-.77751-.31904-1.85032.53544-1.03543 3.86765-3.9889 4.37892-3.88121.12809.027 1.95171 1.83262 4.05249 4.01253l3.81958 3.96348-1.79316 12.26033-1.79316 12.26034-6.26897 7.83826c-3.44793 4.31104-6.54659 8.21981-6.88591 8.68616s.01-.34272.77603-1.79793zm-59.925854-23.47238-3.967768-6.91155.259124-7.60179.259125-7.6018 3.27193-3.39999 3.271929-3.39999 1.254018 1.28925c.861042.88524 1.698364 1.36433 2.671966 1.52882l1.417948.23956-2.548765 1.94854c-1.401821 1.0717-3.200988 2.44748-3.998148 3.0573l-1.449383 1.10875-.40498 5.29167c-.22274 2.91041-.402466 5.76791-.399393 6.35.0031.58208 1.021416 4.15396 2.262984 7.9375 1.241567 3.78354 2.214597 6.92329 2.162288 6.97723-.05231.0539-1.880602-3.01214-4.062875-6.8135zm80.142454 6.53905c.097-.29105 1.17439-3.53258 2.39417-7.20341l2.21779-6.67423-.49017-6.19325-.49017-6.19324-3.98864-3.08837-3.98864-3.08836 1.41468-.22622c.94303-.15079 1.81424-.62577 2.61309-1.42462l1.1984-1.1984 3.31584 3.38121c1.8237 1.85967 3.32445 3.48963 3.33499 3.62213.0105.13251.14451 3.52441.29771 7.53757l.27855 7.29664-3.79508 6.63808c-3.56881 6.24231-4.73722 8.08858-4.31252 6.81447zm-82.345178-49.99373-2.015687-2.04109-.514515-11.06085-.514515-11.060854 4.969836-6.930814c5.096882-7.107989 5.940361-8.211012 5.246122-6.860381-.219377.426795-1.748927 3.974796-3.399001 7.884449l-3.000133 7.108459.710248 8.694791c.640186 7.8371.780363 8.74767 1.421035 9.23093.673667.50815.684205.62797.201785 2.29438-.279951.96702-.639612 2.43859-.799245 3.27015l-.290243 1.51192zm85.880008-1.41794c-.79191-3.0634-.79248-3.08408-.0985-3.61597.6178-.47351.76033-1.34539 1.24091-7.59051.29861-3.88056.63155-7.77026.73987-8.64378.17746-1.431257-.13386-2.367189-3.15005-9.470117-1.84084-4.335043-3.29557-7.827219-3.23274-7.76039.0628.06683 2.4283 3.354243 5.25659 7.305364l5.14233 7.183857-.16444 1.988366c-.0904 1.0936-.33528 6.03649-.54409 10.9842l-.37964 8.99583-1.81551 1.85209c-.99853 1.01864-1.90163 1.85208-2.00689 1.85208-.10525 0-.54978-1.38646-.98785-3.08102zm-69.363838-23.129853c-.180361-.961401.231747-2.450586 2.031588-7.341293l2.257848-6.135246 6.42504-4.347132c3.533771-2.390923 6.485842-4.286329 6.560152-4.212015.0743.07431-2.075317 2.243207-4.776959 4.819762l-4.912082 4.684645-1.815705 5.447822c-1.713607 5.141493-1.784498 5.49545-1.260718 6.29484l.554986.847018-2.012149.41772c-1.106682.229747-2.195209.487967-2.418948.573824-.236245.09065-.501657-.349544-.633053-1.049945zm52.802308.543684-2.19442-.494947.5489-.837739c.51512-.786162.44389-1.15594-1.15696-6.006228l-1.70586-5.16849-5.29167-5.288856c-2.91042-2.90887-5.05031-5.154255-4.75532-4.989743.74559.415807 12.45002 8.265587 12.80643 8.588855.1595.14467 1.31468 3.020197 2.56707 6.390061 1.6395 4.411477 2.21745 6.398518 2.06411 7.096649-.11713.533294-.31981 1.02267-.45041 1.087505-.13059.06483-1.22493-.104846-2.43187-.377067z" fill-opacity=".501961"/></g></svg>