<svg height="512" viewBox="0 0 135.46667 135.46667" width="512" xmlns="http://www.w3.org/2000/svg"><g fill="#273839" transform="matrix(1.4024088 0 0 1.40241 -91.313868 -115.965788)"><g stroke-width=".352778"><path d="m105.45187 138.51289c-.93825-.99871-.71499-1.61361.58587-1.61361.50684 0 1.21185-.26273 1.56668-.58385.69536-.6293.91216-.17707.2382.49689-.22381.22381-.39318.89056-.37637 1.48166.0384 1.35216-.85821 1.44961-2.01438.21891z"/><path d="m92.935195 91.794649c-.426611-.690275 5.701648-2.914542 11.433805-4.149925 2.2812-.491641 4.47562-.643225 9.17222-.633589 5.37018.01102 6.67863.131123 10.05417.922888 4.30208 1.009094 10.03381 3.085665 10.02862 3.633308-.005.543695-.87886.34518-5.26612-1.196512-5.00344-1.758217-9.47236-2.504818-14.99306-2.504818-5.47129 0-9.94753.743064-14.993054 2.488874-2.23132.772063-4.31684 1.493602-4.634491 1.60342-.317652.109818-.678589.03618-.80209-.163646z" fill-opacity=".560784"/><path d="m100.53462 99.377597-.801901-.853585 1.524391-.565226c4.70627-1.745029 10.67042-2.524395 15.30006-1.999338 3.31817.376321 8.17103 1.520725 9.5807 2.259328l.83193.435887-.83489.784333c-.7778.730704-.91728.750234-2.03998.285634-5.33392-2.207302-16.9413-2.068943-22.21231.264769-.34677.153531-.83879-.06977-1.348-.611802z" fill-opacity=".560784"/><path d="m144.98854 143.83177c-.76423-.81349-.77585-.9096-.25932-2.14582.99738-2.38707 1.62033-6.46523 1.62033-10.60751 0-4.14227-.62295-8.22044-1.62033-10.6075-.51653-1.23622-.50491-1.33234.25932-2.14582l.80007-.85164.43589.83192c1.63287 3.11645 2.78956 11.2901 2.25933 15.96538-.37632 3.31817-1.52073 8.17103-2.25933 9.5807l-.43589.83193z" fill-opacity=".560784"/><path d="m80.24969 143.19799c-1.721957-4.64298-2.482971-10.51245-1.983035-15.29455.343415-3.2849 1.476696-8.14406 2.23851-9.59804l.435887-.83192.808087.86017c.674104.71755.741621.98436.407214 1.60921-.910353 1.70101-1.803381 7.21531-1.803381 11.13558 0 3.93043.89354 9.43554 1.809192 11.14645.34516.64494.274356.89222-.468026 1.6346l-.874708.87471z" fill-opacity=".560784"/><path d="m153.25317 152.10829c-.10646-.17227.51481-1.80863 1.38062-3.63636 5.12261-10.81394 5.12261-23.97304 0-34.78698-1.44947-3.05984-1.65315-3.94956-.90417-3.94956.15557 0 .85914 1.2607 1.56349 2.80157 5.53605 12.11091 5.53441 24.97565-.005 37.09331-1.22631 2.68274-1.61568 3.15682-2.03521 2.47802z" fill-opacity=".560784"/><path d="m71.242038 149.19628c-3.064721-6.69013-4.106017-12.14394-3.820733-20.01114.216576-5.97249 1.157812-10.1601 3.459793-15.39281 1.784649-4.05674 1.958518-4.33021 2.444254-3.84448.275423.27542-.0073 1.16613-1.006987 3.17205-2.770702 5.55976-4.052281 11.2547-4.04136 17.95854.01103 6.76798 1.2803 12.4181 4.028538 17.93285 1.263971 2.53634 1.442233 3.41021.69566 3.41021-.154941 0-.946565-1.45135-1.759165-3.22522z" fill-opacity=".560784"/><path d="m109.60679 166.16594c-2.67258-.31195-7.75053-1.56531-9.00518-2.22268l-.841742-.44104.860172-.80809c.71714-.67371.98457-.7415 1.60834-.40767 1.75511.9393 6.95293 1.76144 11.13645 1.76144s9.38135-.82214 11.13645-1.76144c.62377-.33383.8912-.26604 1.60834.40767l.86018.80809-.80527.41746c-1.49309.77404-6.07536 1.88456-9.27192 2.24708-3.49683.39656-3.88175.39652-7.28582-.00071z" fill-opacity=".560784"/><path d="m107.19122 174.99081c-5.12332-.71972-14.330637-3.61437-14.05159-4.41762.167336-.48168.698426-.35781 5.232146 1.22036 10.495584 3.65348 22.160044 3.34692 32.567344-.85592 1.70068-.68679 2.51483-.86118 2.78045-.59556.26563.26563-.0254.54772-.99373.96338-5.84356 2.50826-11.30913 3.68494-17.9499 3.86445-2.91041.0787-6.32354-.002-7.58472-.17909z" fill-opacity=".560784"/></g><path d="m106.73438 87.251953c-6.27839 0-10.732427 4.375868-10.732427 10.544922 0 4.275075 1.527997 6.279005 15.351567 20.138675l15.35156 15.39257-6.01953 5.90626c-5.81681 5.70878-6.01758 6.17403-6.01758 13.94531v8.04101l20.31836 20.34961 20.3164 20.34766h7.30274c6.91316 0 7.64628-.33467 13.68164-6.2793l6.375-6.28125 6.00781 5.89649 6.00781 5.89648-6.0039 6.0957c-5.76271 5.85067-6.00586 6.41688-6.00586 14.03516v7.93945l20.31836 20.34961 20.3164 20.34766h7.30274c6.91317 0 7.64626-.33471 13.68164-6.2793l6.375-6.28125 6.00781 5.89649 6.00781 5.89648-6.0039 6.0957c-5.76269 5.85067-6.00586 6.41684-6.00586 14.03516v7.93945l20.31836 20.34961 20.3164 20.34766h7.30274c6.91627 0 7.6429-.3336 13.69922-6.29883l6.39648-6.29883 6.28321 6.28321 6.2832 6.28125-6.30078 6.39648c-5.95847 6.04944-6.29883 6.78957-6.29883 13.66797v7.27148l20.31836 20.34961 20.3164 20.34766h7.56055c7.18178 0 7.87619-.30647 13.87305-6.13477l6.3125-6.13672 15.27344 15.27344c14.81034 14.81042 15.43282 15.26077 20.57226 14.89453 6.38929-.45509 10.43945-4.49611 10.43945-10.41406 0-3.46409-2.44043-6.55654-15.55078-19.70117l-15.55273-15.59375 6.21875-6.04297c6.10023-5.92868 6.21875-6.2049 6.21875-14.41211v-8.36719l-19.65039-19.68164-19.64844-19.68359h-7.97266c-7.71174 0-8.17765.20426-14.36523 6.29883l-6.39648 6.30078-6.28321-6.2832-6.28125-6.28321 6.29883-6.39648c6.08886-6.18168 6.29883-6.6594 6.29883-14.33203v-7.93946l-19.65039-19.68164-19.64844-19.68359h-8.63867c-8.44679 0-8.7724.13349-14.73438 6.00586l-6.0957 6.0039-5.89648-6.00781-5.89649-6.00781 6.28125-6.375c6.08047-6.17329 6.2793-6.63162 6.2793-14.38672v-8.00977l-20.42969-20.27734-20.43164-20.27734h-6.98242c-6.54561 0-7.42203.41523-13.99414 6.63086l-7.00977 6.6289-5.85742-5.96679-5.85547-5.9668 6.28125-6.375c6.08047-6.17329 6.2793-6.63166 6.2793-14.38672v-8.00977l-20.42969-20.27734-20.43164-20.27734h-7.28516c-6.98157 0-7.56321.27944-13.86914 6.68164l-6.58007 6.68164-15.38868-15.34961c-13.62053-13.58505-15.9125-15.347657-19.94921-15.347657zm55.83398 35.999997c4.3055 0 6.13292 1.31744 17.12695 12.35743 11.48642 11.53437 12.30664 12.72234 12.30664 17.79492 0 3.56277-.83677 6.19105-2.42773 7.63086-2.27628 2.05999-2.66498 1.94899-6.25-1.79297-7.6083-7.94136-19.32227-3.53189-19.32227 7.27343 0 2.96534 1.19821 5.38567 3.99024 8.06055 3.74196 3.58503 3.85297 3.97175 1.79297 6.24805-1.41658 1.56529-4.06294 2.42773-7.45313 2.42773-4.86028 0-6.20121-.946-17.79297-12.55664-10.94538-10.96316-12.53711-13.13755-12.53711-17.12695 0-2.88915.98886-5.46488 2.68946-7.00391 2.61916-2.37029 2.78699-2.34053 6.40625 1.12696 4.57677 4.38482 13.21909 4.96442 16.69726 1.12109 3.52556-3.89571 2.85355-12.07361-1.35351-16.46484-3.46747-3.61926-3.49728-3.78709-1.12696-6.40625 1.58584-1.75234 4.11382-2.68946 7.25391-2.68946zm68 68c4.30549 0 6.13291 1.31748 17.12695 12.35743 11.48644 11.53439 12.30664 12.7223 12.30664 17.79492 0 3.56273-.83678 6.19105-2.42773 7.63086-2.27626 2.06003-2.66497 1.94899-6.25-1.79297-4.92238-5.13785-11.34312-5.4245-16.05078-.7168-4.70771 4.70767-4.4191 11.1284.71875 16.05078 3.74196 3.58503 3.853 3.97179 1.79297 6.24805-1.46574 1.61964-4.0126 2.40807-7.65625 2.36914-5.08521-.0545-6.2694-.88089-17.23047-12.03711-10.33963-10.52368-11.81335-12.61799-12.14258-17.24023-.27009-3.79204.32308-5.89273 2.125-7.52344 2.3687-2.14367 2.69542-2.07486 6.2168 1.29883 4.57677 4.38482 13.21908 4.96445 16.69726 1.12109 3.52555-3.89567 2.85355-12.0736-1.35351-16.46484-3.46746-3.61924-3.49729-3.78708-1.12696-6.40625 1.58586-1.75231 4.1138-2.68946 7.25391-2.68946zm68 68c4.30549 0 6.13291 1.31745 17.12695 12.35743 11.6987 11.74756 12.30664 12.64241 12.30664 18.0957 0 3.42493-.83957 6.57782-2.08398 7.82226-1.89041 1.89037-2.48757 1.69486-6.39844-2.0957-5.42343-5.2566-11.07818-5.57207-15.5-.86523-4.64659 4.94604-4.44097 11.04943.55274 16.44531 3.9801 4.30072 4.0224 4.48141 1.50781 6.33398-1.42349 1.04871-4.8738 1.90625-7.66797 1.90625-4.61998 0-6.19136-1.10442-17.33008-12.17968-11.79609-11.72863-12.23514-12.38069-11.93164-17.66602.17333-3.01844 1.1764-6.35824 2.23047-7.42187 1.67263-1.6878 2.39587-1.47636 5.67578 1.66601 2.81571 2.6976 5.10841 3.60156 9.14453 3.60156 6.54433 0 9.40509-2.75793 9.97852-9.61914.33173-3.9693-.35194-5.74983-3.44336-8.97656-3.75904-3.9236-3.79448-4.09317-1.42188-6.71484 1.58582-1.75234 4.1138-2.68946 7.25391-2.68946zm67.01367 69.08594c.44425.001.90966.0157 1.39649.043 5.23415.29382 6.67877 1.30068 18.02343 12.56836 13.46529 13.37393 15.07734 17.30402 9.77149 23.82226l-2.5625 3.14649-3.84375-3.66602c-4.70627-4.48909-13.30706-5.11708-16.82617-1.22851-3.51561 3.88467-2.85296 12.07522 1.33007 16.4414 2.95367 3.08293 3.25752 4.02771 1.83789 5.73828-1.03714 1.24967-3.89289 2.04883-7.32421 2.04883-5.28911 0-6.35236-.7155-17.83789-12.00586-11.70327-11.50439-12.2129-12.24771-12.2129-17.83593 0-8.28272 2.886-10.39278 7.78907-5.69532 7.47511 7.1616 20.21093 3.07395 20.21093-6.48632 0-2.52719-1.46868-5.36601-4.27343-8.25977-4.00948-4.13673-4.13427-4.54734-2.02344-6.6582 1.34734-1.34731 3.4352-1.98138 6.54492-1.97266z" stroke-width="1.33333" transform="matrix(.26458334 0 0 .26458334 43.338034 63.366707)"/><path d="m117.77455 126.53334c0-.0752.23715-.59145.527-1.14721.28984-.55576.52797-1.44703.52916-1.9806.003-1.22096 1.0595-1.32039 2.1051-.19807.92615.99411.99034 2.5365.0937 2.25192-.34407-.10921-1.21719.11853-1.94028.50608-.72307.38755-1.31469.64309-1.31469.56788z" stroke-width=".352778"/><path d="m422.92383 87.251953c-4.44805 0-6.25428 1.366973-20.27149 15.347657l-15.38867 15.34961-6.58008-6.68164c-6.30595-6.4022-6.88756-6.6836-13.86914-6.6836h-7.28515l-20.43164 20.27735-20.42969 20.27929v8.00977c0 7.75506.20078 8.21343 6.28125 14.38672l6.2793 6.375-5.89649 6.00781-5.89453 6.00781-6.32227-6.22656c-6.28229-6.18769-6.37194-6.22443-14.71679-5.93945l-8.39649.28711-8.90429 8.80469-8.90625 8.80468 4.23828 5.10547c2.33098 2.80842 4.86691 5.11574 5.63476 5.13086.76785.0132 3.7392-2.37526 6.60352-5.30859 4.19172-4.29268 6.15589-5.33399 10.06445-5.33399 3.17662 0 5.69683.93005 7.28906 2.68946 2.372 2.62102 2.33851 2.78955-1.33984 6.6289-7.6775 8.01362-3.97842 18.68164 6.47852 18.68164 3.98419 0 6.30947-.90894 9.05273-3.53711 3.08292-2.95366 4.02966-3.2556 5.74023-1.83593 1.24449 1.03279 2.04883 3.88795 2.04883 7.27539 0 4.62123-.79981 6.34851-4.66797 10.09765-2.56663 2.48773-4.66601 5.06902-4.66601 5.73633 0 .66728 1.88768 3.59617 4.19531 6.50977l4.19531 5.29883 9.80469-9.74024 9.80469-9.73828v-7.98828c0-7.67641-.23287-8.22485-6.00391-14.08399l-6.00586-6.0957 6.00782-5.89648 6.00781-5.89649 6.37695 6.28125c6.02854 5.93798 6.77314 6.2793 13.64844 6.2793h7.27148l20.34766-20.31641 20.34961-20.31836v-8.07031c0-7.80896-.1956-8.26466-6.01758-13.97851l-6.01758-5.90626 15.35157-15.39257c12.96846-13.00234 15.3496-16.03155 15.3496-19.523441 0-6.331521-4.504-11.160156-10.41015-11.160156zm-56.10352 35.999997c3.08856 0 5.62454.9473 7.20117 2.68946 2.37034 2.61916 2.34246 2.78699-1.125 6.40625-4.38481 4.57677-4.96641 13.21911-1.12304 16.69726 3.89571 3.52558 12.0736 2.85355 16.46484-1.35351 3.61924-3.46749 3.78708-3.49725 6.40625-1.12696 1.60029 1.44824 2.68945 4.11575 2.68945 6.58594 0 3.47781-2.1136 6.25805-13.02343 17.12695-11.5273 11.48402-13.56142 12.97461-17.71289 12.97461-2.60285 0-5.68286-.99149-6.91797-2.22656-2.07867-2.0787-1.96491-2.52189 1.71484-6.71289 4.68299-5.33359 5.08157-10.58398 1.17774-15.54688-4.02422-5.11596-11.40603-4.90363-16.56055.47657-3.58503 3.74196-3.97374 3.85296-6.25 1.79297-1.59806-1.44624-2.42774-4.07113-2.42774-7.6836 0-5.14643.76666-6.24848 12.35938-17.79297 10.96804-10.92241 12.89509-12.30664 17.12695-12.30664z" stroke-width="1.33333" transform="matrix(.26458334 0 0 .26458334 43.338034 63.366707)"/><path d="m200.77539 264.58594c-.75308 0-5.13522 3.73081-9.73828 8.29297l-8.36914 8.29492v7.99414c0 7.73779.20039 8.19517 6.29883 14.38672l6.30078 6.39648-6.2832 6.28321-6.28321 6.2832-6.39648-6.30078c-6.18761-6.09453-6.6535-6.29883-14.36524-6.29883h-7.9707l-19.65039 19.68359-19.65039 19.68164v8.70703c0 8.56109.0999 8.80555 6.01758 14.61329l6.01953 5.90625-15.35156 15.39062c-13.331853 13.36668-15.351567 15.96709-15.351567 19.76563 0 2.7761 1.095923 5.44688 3 7.3125 2.024037 1.98315 4.623977 2.93516 7.994137 2.92382 4.57845-.0156 6.26184-1.2798 20.16993-15.14843l15.17382-15.13086 5.66797 6.14648c5.54867 6.01958 5.83687 6.14844 13.81446 6.14844h8.14843l20.34766-20.31641 20.34961-20.31836v-7.30273c0-6.91627-.33357-7.64291-6.29883-13.69922l-6.29883-6.39648 6.28125-6.28125 6.28321-6.28321 6.39648 6.29883c6.06051 5.96942 6.77905 6.29883 13.71875 6.29883 7.274 0 7.38418-.0614 16.30273-9.04883l8.97852-9.04687-5.34766-5.22266-5.34961-5.22266-5.05468 4.9375c-4.16126 4.06337-6.0209 4.9375-10.50391 4.9375-3.27235 0-6.12529-.81836-7.14648-2.04883-1.41963-1.71057-1.11773-2.65535 1.83593-5.73828 7.07615-7.38595 3.07917-20.21289-6.29882-20.21289-2.73744 0-5.45783 1.37594-8.44727 4.27344-4.02779 3.90387-4.59115 4.09046-6.52539 2.15625-1.16455-1.16455-2.26444-4.43758-2.44336-7.27344-.27882-4.41906.4459-5.96486 5.06641-10.81445l5.39062-5.6582-4.53125-4.67578c-2.49209-2.57122-5.14731-4.67383-5.90039-4.67383zm-37.91211 64c3.90827 0 6.76509.74791 7.84961 2.05468 1.43315 1.72683 1.03521 2.74709-2.50195 6.39649-5.32343 5.49241-5.61512 11.09571-.81055 15.60937 4.48452 4.21297 11.81558 3.76145 16.88672-1.04101 4.76393-4.51151 7.71484-2.4075 7.71484 5.50195 0 5.20116-.73529 6.26214-12.35937 17.83789-11.56647 11.51838-12.70865 12.30664-17.83594 12.30664-3.30036 0-6.15367-.81488-7.17773-2.04883-1.41967-1.71057-1.11771-2.65535 1.83593-5.73828 4.36091-4.55183 4.93023-13.20539 1.09766-16.67382-3.89571-3.52555-12.07361-2.8516-16.46484 1.35546-3.61926 3.46746-3.78709 3.49729-6.40625 1.12696-1.75234-1.58585-2.68946-4.1138-2.68946-7.25391 0-4.30549 1.31747-6.13291 12.35743-17.12695 12.00245-11.95249 12.53586-12.30664 18.5039-12.30664z" stroke-width="1.33333" transform="matrix(.26458334 0 0 .26458334 43.338034 63.366707)"/></g></svg>