<?xml version="1.0" encoding="UTF-8" standalone="no"?>
<svg
   xmlns:osb="http://www.openswatchbook.org/uri/2009/osb"
   xmlns:dc="http://purl.org/dc/elements/1.1/"
   xmlns:cc="http://creativecommons.org/ns#"
   xmlns:rdf="http://www.w3.org/1999/02/22-rdf-syntax-ns#"
   xmlns:svg="http://www.w3.org/2000/svg"
   xmlns="http://www.w3.org/2000/svg"
   xmlns:sodipodi="http://sodipodi.sourceforge.net/DTD/sodipodi-0.dtd"
   xmlns:inkscape="http://www.inkscape.org/namespaces/inkscape"
   width="512"
   height="512"
   viewBox="0 0 135.46667 135.46667"
   version="1.1"
   id="svg8"
   inkscape:version="1.0.1 (3bc2e813f5, 2020-09-07)"
   sodipodi:docname="Death Totem.svg">
  <defs
     id="defs2">
    <linearGradient
       id="linearGradient1099-6-5"
       osb:paint="gradient">
      <stop
         style="stop-color:#273839;stop-opacity:0.5"
         offset="0"
         id="stop1151" />
      <stop
         style="stop-color:#273839;stop-opacity:1"
         offset="1"
         id="stop1153" />
    </linearGradient>
  </defs>
  <sodipodi:namedview
     id="base"
     pagecolor="#ffffff"
     bordercolor="#666666"
     borderopacity="1.0"
     inkscape:pageopacity="0.0"
     inkscape:pageshadow="2"
     inkscape:zoom="0.7"
     inkscape:cx="54.577634"
     inkscape:cy="330.62653"
     inkscape:document-units="px"
     inkscape:current-layer="layer1"
     inkscape:document-rotation="0"
     showgrid="false"
     inkscape:pagecheckerboard="true"
     inkscape:object-nodes="true"
     fit-margin-top="0"
     fit-margin-left="0"
     fit-margin-right="0"
     fit-margin-bottom="0"
     inkscape:window-width="1600"
     inkscape:window-height="837"
     inkscape:window-x="-8"
     inkscape:window-y="-8"
     inkscape:window-maximized="1"
     units="px" />
  <metadata
     id="metadata5">
    <rdf:RDF>
      <cc:Work
         rdf:about="">
        <dc:format>image/svg+xml</dc:format>
        <dc:type
           rdf:resource="http://purl.org/dc/dcmitype/StillImage" />
        <dc:title></dc:title>
      </cc:Work>
    </rdf:RDF>
  </metadata>
  <g
     inkscape:label="Layer 1"
     inkscape:groupmode="layer"
     id="layer1"
     transform="translate(-59.62574,-110.15787)">
    <path
       style="fill:#000000;stroke-width:0.264583"
       id="path853"
       d="" />
    <path
       style="fill:#000000;stroke-width:0.264583"
       id="path849"
       d="" />
    <g
       id="g1004"
       transform="matrix(1.1631028,0,0,1.1631028,-22.905596,-25.590798)">
      <path
         id="path925"
         style="fill:#273839;fill-opacity:0.501961;stroke-width:1.33333"
         d="m 148.30273,316.98828 c -1.11837,0.0578 -2.57105,0.53031 -4.43554,1.3711 -6.26846,2.8267 -12.81573,9.24717 -14.80274,14.51757 -1.8647,4.94563 -1.81446,16.50922 0.0762,17.67774 0.9522,0.58855 1.19203,3.09742 0.66407,6.94922 -0.70829,5.16771 -0.33024,6.67741 2.64648,10.58007 2.23616,2.93175 4.19491,4.27578 5.50391,3.77344 2.47151,-0.94839 5.59414,2.83952 5.65234,6.85742 0.0233,1.60842 1.37605,3.85844 3.00586,5 3.37478,2.36376 13.74595,2.75422 19.09961,0.71875 l 3.57031,-1.35742 -3.42187,-2.6914 c -1.88111,-1.47969 -5.39864,-3.37912 -7.81641,-4.22071 -6.48077,-2.25585 -13.1615,-6.46634 -12.34765,-7.7832 0.39065,-0.63205 4.28913,-3.36019 8.66406,-6.06055 4.37495,-2.70036 7.95508,-5.04747 7.95508,-5.21679 0,-0.16921 -1.26804,-3.17494 -2.81836,-6.67969 -3.55163,-8.02897 -7.84269,-22.91206 -7.86914,-27.29688 -0.0268,-4.38622 -0.86576,-6.26573 -3.32618,-6.13867 z m -13.86132,27.56641 c 0.25896,-0.003 0.48873,0.0727 0.66211,0.24609 0.33562,0.33559 -0.30416,1.36923 -1.42188,2.29688 -1.26716,1.05169 -2.03125,1.15172 -2.03125,0.26757 0,-1.30926 1.66882,-2.79539 2.79102,-2.81054 z m 9.47851,6.6914 c 1.92657,0.0597 3.7674,0.70507 5.1875,1.99024 3.75486,3.39806 3.10541,6.65533 -1.94922,9.77929 -5.68614,3.51427 -6.54364,3.47961 -11.10156,-0.44921 l -3.74023,-3.22461 2.79882,-3.77539 c 2.14434,-2.89285 5.59374,-4.41983 8.80469,-4.32032 z m 12.86524,29.96289 c 3.47901,0.0157 7.00706,0.27856 7.5039,0.7754 0.32652,0.32647 -2.98033,0.65279 -7.34765,0.7246 -4.3673,0.072 -7.68442,-0.28403 -7.3711,-0.79101 0.30482,-0.49321 3.73583,-0.72471 7.21485,-0.70899 z"
         transform="matrix(0.26458334,0,0,0.26458334,59.62574,110.15787)" />
      <path
         id="path951"
         style="fill:#273839;fill-opacity:1;stroke-width:1.33333"
         d="m 261.93359,237.92578 c -14.60382,0.2828 -29.07681,6.41699 -40.9375,18.35352 -10.95065,11.02065 -13.3457,17.07284 -13.3457,33.72461 0,11.05863 0.43138,14.05409 2.33203,16.15429 2.80532,3.09982 3.31368,15.7509 0.66797,16.63282 -3.84986,1.28326 -1.60088,7.8947 5.69531,16.74023 7.32344,8.87853 9.4864,10.21087 12.18555,7.51172 2.42956,-2.42959 8.45117,6.08674 8.45117,11.95117 0,6.70311 6.50753,12.35322 16,13.89258 9.01633,1.46215 19.08828,0.77756 24.43946,-1.66016 7.32604,-3.3374 9.78834,-6.20553 11.37109,-13.25 1.59647,-7.10536 6.45889,-12.84345 9.05664,-10.6875 2.6903,2.23276 4.94468,0.74437 12.34375,-8.14648 6.77219,-8.13763 8.55675,-13.71864 5.39453,-16.88086 -2.74749,-2.74749 -2.02159,-12.13672 1.28516,-16.60938 2.88344,-3.90002 3.07296,-5.16428 2.47265,-16.64062 -0.82949,-15.85841 -4.56703,-24.0384 -15.6875,-34.33399 -12.38572,-11.46701 -27.12078,-17.03475 -41.72461,-16.75195 z m 43.22461,57.23438 c 0.16167,-0.0578 0.87421,0.57274 2.29688,1.83593 1.57338,1.39699 2.86133,2.74715 2.86133,3 0,1.68076 -2.84678,-0.0623 -4.14649,-2.53906 -0.78291,-1.49195 -1.17339,-2.23906 -1.01172,-2.29687 z m -84.70312,0.61523 c 0.72233,-0.0461 0.66998,0.90215 -0.7793,2.64844 -0.92761,1.11772 -2.30531,2.0332 -3.0625,2.0332 -0.75719,0 -0.28645,-1.2046 1.04492,-2.67578 1.20636,-1.33302 2.23506,-1.97003 2.79688,-2.00586 z m 18.16211,11.34766 c 4.03612,0 6.15086,0.91453 9.2207,3.98437 5.80362,5.80362 4.97144,11.18028 -2.625,16.95899 v 0.002 c -7.95027,6.04777 -15.59779,6.1483 -21.46094,0.28516 -4.79731,-4.79732 -5.11366,-7.94688 -1.40039,-13.95508 3.00783,-4.86675 8.39268,-7.27539 16.26563,-7.27539 z m 48.73047,0 c 7.87294,0 13.2578,2.40864 16.26562,7.27539 3.69736,5.98242 3.39608,9.57071 -1.19336,14.16015 -5.67987,5.67988 -13.79492,5.49549 -21.66601,-0.49218 -7.59644,-5.77871 -8.42862,-11.15537 -2.625,-16.95899 3.06984,-3.06984 5.18263,-3.98437 9.21875,-3.98437 z m -25.30664,19.01367 c 1.83129,0.064 5.25106,9.86071 6.44531,18.6543 0.92179,6.78723 0.57972,7.23896 -3.52149,4.67773 -2.10807,-1.31652 -3.1888,-1.31652 -5.29687,0 -3.80701,2.37759 -4.02783,2.19108 -3.9375,-3.3457 0.10201,-6.26268 4.10691,-19.28369 6.13867,-19.96094 0.0556,-0.0186 0.1128,-0.0275 0.17188,-0.0254 z"
         transform="matrix(0.26458334,0,0,0.26458334,59.62574,110.15787)" />
      <path
         id="path933"
         style="fill:#273839;fill-opacity:0.501961;stroke-width:1.33333"
         d="m 376.57812,315.77344 c -0.94791,-0.0328 -1.12747,0.69649 -1.43554,2.34375 -2.53565,13.55777 -5.41813,24.16141 -8.19922,30.16406 -1.80968,3.90603 -2.95027,7.65329 -2.5332,8.32813 0.41707,0.67483 -1.72041,4.04258 -4.75,7.48437 -4.08431,4.63997 -5.28235,6.96045 -4.63477,8.97656 0.48034,1.49549 1.19221,4.41799 1.58203,6.49219 0.40536,2.15713 1.92235,4.25964 3.54297,4.91406 1.55834,0.62933 6.00923,1.18203 9.89258,1.22852 5.78506,0.0692 7.65252,-0.506 10.33398,-3.1875 1.8,-1.8 3.27344,-4.42576 3.27344,-5.83594 0,-3.2211 3.03808,-5.84354 5.62305,-4.85156 1.23156,0.47255 3.33047,-1.03816 5.63281,-4.05664 3.30569,-4.33399 3.50714,-5.19738 2.04687,-8.72266 -1.35133,-3.26245 -1.26086,-4.458 0.53907,-7.20508 1.18718,-1.81186 2.14402,-5.86536 2.1289,-9.00781 -0.058,-11.32509 -6.95609,-20.6409 -19.01562,-25.67969 -2.08856,-0.87265 -3.29004,-1.35925 -4.02735,-1.38476 z m 15.8125,29.33008 c 0.32601,-0.0488 0.75168,0.0101 1.25977,0.20507 1.09999,0.42214 2,1.30216 2,1.95703 0,1.39771 -1.8371,1.57701 -3.11133,0.30274 -1.21467,-1.21467 -1.12632,-2.31849 -0.14844,-2.46484 z m -8.75781,5.91992 c 2.91076,0.0145 5.92597,1.07852 7.89063,3.57617 3.03265,3.85538 2.15128,7.34631 -2.48242,9.82617 -1.40164,0.75016 -3.0385,1.35509 -3.63672,1.34375 -2.33518,-0.0422 -7.55524,-3.44709 -9.25977,-6.04101 -3.2444,-4.93712 1.93138,-8.73279 7.48828,-8.70508 z m -14.70508,9.43359 c 1.61602,0 4.05469,6.55236 4.05469,10.89258 0,3.37875 -0.33068,3.82561 -1.88086,2.53906 -1.28606,-1.06737 -2.15347,-1.11979 -2.74414,-0.16406 -1.12089,1.81376 -3.375,1.80766 -3.375,-0.01 0,-3.04569 3.03917,-13.25781 3.94531,-13.25781 z m -2.78711,20.65235 c 1.44602,0.0435 2.94436,0.33888 3.46094,0.85546 0.37047,0.37051 -1.08462,0.67383 -3.23437,0.67383 -2.14976,0 -3.66546,-0.39136 -3.36914,-0.87109 0.30402,-0.492 1.69657,-0.70167 3.14257,-0.6582 z m 8.69336,0.0137 c 0.66286,0.0299 1.24668,0.2863 1.51758,0.72461 0.43344,0.70133 -0.44707,1.27539 -1.95703,1.27539 -3.21944,0 -3.54325,-0.74121 -0.78711,-1.79883 0.4037,-0.15491 0.82885,-0.21909 1.22656,-0.20117 z"
         transform="matrix(0.26458334,0,0,0.26458334,59.62574,110.15787)" />
      <path
         style="fill:#273839;fill-opacity:0.501961;stroke-width:0.352778"
         d="m 128.93865,150.75999 c 0.22243,-11.73084 0.68286,-16.75632 0.75147,-8.20208 0.0265,3.29847 0.1518,8.49753 0.27855,11.55347 0.22481,5.42055 0.21299,5.55625 -0.48424,5.55625 -0.70332,0 -0.712,-0.14169 -0.54578,-8.90764 z"
         id="path969" />
      <path
         style="fill:#273839;fill-opacity:0.501961;stroke-width:0.352778"
         d="m 112.09698,164.8896 c 0,-0.12148 1.91969,-5.27519 4.26597,-11.45268 8.23001,-21.66864 12.69997,-33.46154 12.87875,-33.97747 0.0992,-0.28638 1.53288,3.04737 3.18589,7.40833 7.1766,18.93334 9.0515,23.86466 11.69397,30.75718 1.99792,5.2113 2.62894,7.21387 2.20095,6.98482 -0.37738,-0.20197 -2.14357,-4.54903 -4.76002,-11.71566 -6.00742,-16.45474 -5.90949,-16.19455 -6.04466,-16.05937 -0.0952,0.0951 5.28831,21.97543 6.05628,24.61479 0.13054,0.44866 -0.36513,0.37712 -2.75271,-0.3973 -2.7332,-0.88652 -2.92274,-1.01258 -3.08831,-2.05392 l -0.17638,-1.10943 -1.3357,0.91077 c -0.89731,0.61185 -1.6982,0.8748 -2.44023,0.80118 -1.09993,-0.10914 -1.09509,-0.11611 1.15931,-1.6698 1.24511,-0.85811 2.31901,-1.6012 2.38644,-1.65131 0.0674,-0.0501 -0.8573,-5.45989 -2.05496,-12.02174 -1.89017,-10.35603 -2.27883,-12.01108 -2.94483,-12.54016 -0.98368,-0.78144 -1.03586,-0.7768 -1.8938,0.16855 -0.56047,0.61757 -1.05211,2.63381 -2.21504,9.08403 -0.82207,4.55965 -1.77723,9.84684 -2.12256,11.74931 l -0.62789,3.45905 2.48398,1.74443 c 2.47478,1.73797 2.47951,1.74443 1.27582,1.74443 -0.7074,0 -1.74609,-0.36554 -2.50605,-0.88194 -0.71384,-0.48507 -1.38569,-0.88195 -1.493,-0.88195 -0.10731,0 -0.19511,0.52382 -0.19511,1.16405 0,1.13689 -0.0597,1.18255 -2.55764,1.95734 -1.4067,0.4363 -2.72462,0.86773 -2.92872,0.95872 -0.2041,0.091 1.08677,-5.62943 2.86859,-12.71203 1.78182,-7.0826 3.09975,-12.79098 2.92872,-12.68528 -0.17102,0.10569 -0.31095,0.33872 -0.31095,0.51783 0,0.80242 -9.90029,26.9703 -10.38864,27.45864 -0.30111,0.30111 -0.54747,0.44808 -0.54747,0.32659 z"
         id="path967" />
      <path
         style="fill:#273839;fill-opacity:0.501961;stroke-width:0.352778"
         d="m 164.48173,191.59489 c -0.77763,-0.46945 -2.28575,-1.07568 -3.35139,-1.34718 -1.679,-0.42778 -1.95242,-0.61801 -2.04915,-1.42575 -0.1308,-1.09222 -0.12536,-1.09305 2.56694,-0.3918 3.17847,0.82789 4.77663,1.84917 4.77663,3.05243 0,1.1967 -0.13393,1.20444 -1.94303,0.1123 z"
         id="path965" />
      <path
         style="fill:#273839;fill-opacity:0.5;stroke-width:0.352778"
         d="m 109.47564,199.48985 c -2.35046,-5.87438 -2.07894,-12.49737 0.7485,-18.25723 0.99075,-2.01827 2.0298,-3.39721 4.15464,-5.5136 3.09027,-3.07799 5.81949,-4.66886 9.76886,-5.69426 2.7129,-0.70437 7.53467,-0.77766 10.17434,-0.15466 3.09802,0.73119 6.85062,2.69781 9.07198,4.75435 2.03317,1.88232 2.04008,1.89563 1.91828,3.69671 -0.13951,2.06288 -0.39207,2.24902 -1.04627,0.77107 -0.25234,-0.57008 -1.48055,-1.9923 -2.72935,-3.16049 -4.233,-3.95977 -9.86608,-5.85643 -14.84191,-4.99729 -5.24348,0.90536 -10.5084,4.5558 -12.85768,8.91489 -1.12748,2.09205 -1.20378,2.45415 -1.32693,6.29733 -0.12655,3.94895 -0.10071,4.12154 0.81843,5.46806 0.80334,1.17686 0.91658,1.63203 0.73734,2.96365 -0.11648,0.86529 -0.369,1.73047 -0.56116,1.92264 -0.19217,0.19216 -0.34939,0.87127 -0.34939,1.50913 0,0.96842 -0.23164,1.30597 -1.40411,2.04611 -0.77225,0.4875 -1.46939,0.88637 -1.54919,0.88637 -0.0798,0 -0.40667,-0.65375 -0.72638,-1.45278 z"
         id="path963" />
      <path
         style="fill:#273839;fill-opacity:0.5;stroke-width:0.352778"
         d="m 140.4731,206.80101 c 0.86388,-2.3865 1.70123,-3.9364 2.99228,-5.53858 1.81714,-2.25505 2.30051,-3.90423 1.40637,-4.79836 -0.21249,-0.21249 -0.41092,-1.15705 -0.44097,-2.09903 -0.041,-1.28373 0.14899,-1.99816 0.75836,-2.85249 0.74292,-1.04158 0.80761,-1.47744 0.75063,-5.05762 l -0.0624,-3.91782 1.10998,-0.67502 c 0.61049,-0.37126 1.25799,-0.67501 1.43888,-0.67501 0.54349,0 2.12466,5.55182 2.35406,8.26558 0.58635,6.93651 -2.96555,14.73129 -8.61034,18.89574 -1.30897,0.96569 -2.49616,1.7582 -2.6382,1.76113 -0.14203,0.003 0.28156,-1.4859 0.94131,-3.30852 z"
         id="path949" />
      <path
         style="fill:#273839;fill-opacity:0.5;stroke-width:0.352778"
         d="m 117.52907,209.26188 c -0.98897,-0.66601 -2.39954,-1.77813 -3.13459,-2.47137 -1.32217,-1.24698 -1.33393,-1.28199 -1.09971,-3.27484 0.46156,-3.92712 0.40943,-3.90373 2.56387,-1.15027 1.29264,1.65205 2.21055,3.29788 2.79086,5.00405 0.47559,1.39829 0.82263,2.66857 0.7712,2.82285 -0.0514,0.15428 -0.90266,-0.26441 -1.89163,-0.93042 z"
         id="path947" />
      <path
         style="fill:#273839;fill-opacity:1;stroke-width:0.352778"
         d="m 105.31097,209.80649 c -2.66515,-1.09158 -4.84796,-2.07231 -4.85069,-2.17939 -0.003,-0.10709 0.94582,-0.74209 2.10788,-1.41111 1.16207,-0.66903 2.11457,-1.34075 2.11667,-1.49272 0.002,-0.15198 -0.39096,-1.05537 -0.87347,-2.00755 -1.68301,-3.32128 -2.4402,-6.85612 -2.45788,-11.47448 -0.0187,-4.875 0.63121,-8.03584 2.49082,-12.11449 3.31742,-7.27602 9.27123,-12.60517 17.07213,-15.28096 3.17956,-1.09062 3.61365,-1.14956 8.46666,-1.14956 4.85803,0 5.28346,0.0579 8.45931,1.15189 1.83921,0.63354 4.19649,1.63962 5.23839,2.23574 1.76213,1.00819 1.87962,1.1576 1.68306,2.14041 -0.11622,0.5811 -0.21374,1.31452 -0.21671,1.62982 -0.0137,1.45466 -0.53922,1.50064 -2.64668,0.2316 -4.41367,-2.65778 -7.90919,-3.50578 -13.54447,-3.28586 -4.56981,0.17834 -7.66142,1.04696 -11.25273,3.16158 -2.53535,1.49285 -6.96261,5.90891 -8.43798,8.41663 -3.18646,5.41608 -4.29588,13.14784 -2.70624,18.86042 0.58158,2.09001 2.01301,5.46806 2.31706,5.46806 0.19293,0 1.2903,-0.55064 2.43861,-1.22364 1.1483,-0.67301 2.09288,-1.10957 2.09905,-0.97014 0.006,0.13942 -0.34696,2.75381 -0.78473,5.80975 -0.6376,4.45085 -0.90303,5.54754 -1.33414,5.51248 -0.296,-0.0241 -2.71876,-0.9369 -5.38392,-2.02848 z"
         id="path945" />
      <path
         style="fill:#273839;fill-opacity:0.5;stroke-width:0.352778"
         d="m 123.51243,211.99219 -1.81373,-0.53522 -0.96578,-3.40507 c -0.53118,-1.87279 -1.03864,-3.6432 -1.1277,-3.93424 -0.0891,-0.29104 0.24892,-0.0838 0.75104,0.46064 0.71342,0.7735 0.91294,1.35386 0.91294,2.65554 0,0.91615 0.23264,1.99785 0.51696,2.40378 1.21649,1.73677 5.65726,2.76545 9.55529,2.21342 3.7437,-0.53017 5.10116,-1.69351 5.61566,-4.81258 0.23373,-1.41695 1.32875,-3.27358 1.93072,-3.27358 0.31895,0 -1.56724,7.02806 -1.99505,7.43371 -1.40614,1.33328 -9.85364,1.83432 -13.38035,0.7936 z"
         id="path923" />
      <path
         style="fill:#273839;fill-opacity:0.501961;stroke-width:0.352778"
         d="m 88.182497,212.82424 -2.57143,-1.09239 1.22931,-0.63067 1.2293,-0.63067 -0.66214,-1.50073 c -2.50862,-5.68579 -1.14132,-12.57108 3.3376,-16.80706 1.93844,-1.83329 5.32658,-3.66187 7.50531,-4.05062 1.08244,-0.19314 1.14653,-0.14591 1.14653,0.84494 0,0.85311 -0.14853,1.04956 -0.79375,1.04979 -1.44982,3.5e-4 -5.16452,2.0493 -6.84611,3.77588 -2.38437,2.44815 -3.4029,4.88949 -3.57585,8.57106 -0.11522,2.45283 -0.002,3.36782 0.62388,5.02709 0.42061,1.11566 0.8479,2.02847 0.94952,2.02847 0.10163,0 0.66858,-0.3445 1.2599,-0.76555 l 1.07511,-0.76555 -0.2146,1.20652 c -0.11803,0.66359 -0.31996,2.03996 -0.44874,3.05861 -0.12878,1.01864 -0.33276,1.83435 -0.45328,1.81267 -0.12052,-0.0217 -1.37628,-0.53098 -2.79056,-1.13179 z"
         id="path921" />
      <path
         style="fill:#273839;fill-opacity:0.501961;stroke-width:0.352778"
         d="m 154.07754,217.23541 c -2.32528,-0.60834 -4.73366,-1.78691 -4.63834,-2.26983 0.0287,-0.14552 0.0522,-0.68606 0.0522,-1.20121 0,-0.87511 0.0412,-0.89936 0.62693,-0.36925 0.34481,0.31205 1.57512,1.00252 2.73402,1.53439 1.73852,0.79787 2.60226,0.96736 4.9378,0.96898 2.43272,0.002 3.1519,-0.1506 5.11528,-1.0831 3.14776,-1.49502 5.05106,-3.25849 6.32662,-5.86184 1.60592,-3.27758 1.95835,-5.75828 1.26244,-8.88626 -0.31242,-1.40425 -0.78105,-2.8445 -1.0414,-3.20056 -0.45468,-0.62181 -0.51111,-0.62265 -1.4287,-0.0214 -0.52543,0.34427 -1.02364,0.55763 -1.10714,0.47413 -0.0835,-0.0835 0.006,-1.24712 0.20001,-2.58583 0.19351,-1.3387 0.35497,-2.61803 0.35882,-2.84296 0.005,-0.27203 0.44993,-0.19851 1.3299,0.21959 0.72761,0.3457 1.91823,0.83943 2.64584,1.09719 0.7276,0.25775 1.32291,0.56127 1.32291,0.67448 0,0.11322 -0.46602,0.48114 -1.03561,0.8176 l -1.03561,0.61175 0.68256,1.54305 c 1.66567,3.76552 1.451,8.69883 -0.55662,12.79195 -2.02036,4.11908 -5.86934,6.97935 -10.55493,7.84363 -2.70545,0.49903 -3.4307,0.46924 -6.19701,-0.25448 z"
         id="path919" />
      <path
         style="fill:#273839;fill-opacity:0.501961;stroke-width:0.352778"
         d="m 98.107167,217.52843 c -1.85553,-0.39219 -4.91611,-1.6996 -5.431,-2.32 -0.21617,-0.26047 -0.2917,-0.79284 -0.16785,-1.18306 0.21826,-0.68769 0.28689,-0.67734 2.234,0.33689 4.10447,2.13798 8.454543,2.11987 12.341013,-0.0514 1.68617,-0.94201 1.93558,-0.99312 2.59433,-0.53172 0.71173,0.49852 0.69596,0.53222 -0.67291,1.43809 -3.07282,2.0335 -7.63428,3.0009 -10.897583,2.31117 z"
         id="path917" />
      <path
         style="fill:#273839;fill-opacity:1;stroke-width:0.352778"
         d="m 124.33945,218.74991 c -3.17004,-0.59979 -7.16525,-2.0803 -9.33444,-3.45906 l -1.50169,-0.95449 0.22778,-2.02255 c 0.12527,-1.1124 0.28077,-2.08436 0.34556,-2.15993 0.0648,-0.0756 0.63804,0.2591 1.27391,0.7437 1.71909,1.31012 4.3757,2.5754 7.33864,3.49521 3.72536,1.15649 9.30963,1.15649 13.03499,0 7.01384,-2.17737 11.95068,-6.31475 15.03066,-12.59663 3.29167,-6.71365 3.50825,-13.6153 0.65122,-20.75204 -0.51224,-1.27955 -0.98247,-2.32646 -1.04494,-2.32646 -0.0625,0 -1.08242,0.57713 -2.26655,1.28251 -1.18412,0.70538 -2.20888,1.22132 -2.27722,1.14653 -0.0684,-0.0748 0.0126,-1.08848 0.17994,-2.25265 0.16731,-1.16417 0.47584,-3.54542 0.6856,-5.29167 0.53403,-4.4457 0.55917,-4.51076 1.50742,-3.90108 0.42456,0.27297 2.59756,1.2371 4.82888,2.14251 2.23132,0.90541 4.25538,1.72816 4.49791,1.82833 0.73054,0.30171 0.51343,0.598 -1.05833,1.44431 -2.92974,1.57752 -2.90307,1.52718 -1.87931,3.54748 1.81253,3.57686 2.48815,6.85008 2.48686,12.04818 -0.001,5.55783 -0.47434,7.63943 -2.84936,12.54091 -2.80853,5.79615 -7.24358,10.23518 -13.01583,13.02753 -5.3173,2.57228 -11.51821,3.48039 -16.8617,2.46936 z"
         id="path915" />
      <path
         style="fill:#273839;fill-opacity:0.501961;stroke-width:0.352778"
         d="m 141.6144,221.85739 c -0.71302,-0.10936 -0.9396,-0.30489 -0.79375,-0.68497 0.11226,-0.29255 0.20411,-0.675 0.20411,-0.84989 0,-0.24922 2.21397,-1.58224 3.95438,-2.38093 0.13762,-0.0632 -0.12511,0.80907 -0.58383,1.93826 -0.85365,2.10131 -1.0524,2.24265 -2.78091,1.97753 z"
         id="path913" />
      <path
         style="fill:#273839;fill-opacity:0.501961;stroke-width:0.352778"
         d="m 114.71334,220.46353 c -0.37184,-0.93626 -0.73089,-1.82779 -0.79789,-1.98118 -0.067,-0.15338 0.7662,0.15664 1.85155,0.68894 1.08535,0.53231 2.06748,1.26434 2.1825,1.62674 0.26175,0.82472 0.23834,0.84517 -1.29588,1.13169 -1.24747,0.23298 -1.27316,0.21357 -1.94028,-1.46619 z"
         id="path911" />
      <path
         style="fill:#273839;fill-opacity:0.501961;stroke-width:0.352778"
         d="m 133.76606,226.4221 c 1.43007,-4.24646 1.82432,-5.01833 2.56329,-5.01833 0.52583,0 0.52563,0.0506 -0.002,0.63409 -0.31561,0.34875 -1.09428,2.20551 -1.73037,4.12614 -0.63609,1.92063 -1.34815,3.55125 -1.58236,3.6236 -0.25872,0.0799 0.0363,-1.24082 0.75185,-3.3655 z"
         id="path909" />
      <path
         style="fill:#273839;fill-opacity:0.501961;stroke-width:0.352778"
         d="m 125.1784,229.06383 c -0.16866,-0.44363 -0.65682,-1.99144 -1.08479,-3.43958 -0.42796,-1.44814 -1.00041,-2.8836 -1.27209,-3.18992 -0.66615,-0.75107 -0.62151,-0.99785 0.14427,-0.7976 0.45216,0.11825 0.98059,1.21437 1.81235,3.75934 0.64575,1.97583 1.24865,3.79086 1.33977,4.0334 0.0911,0.24253 -0.014,0.44097 -0.23358,0.44097 -0.21959,0 -0.53726,-0.36297 -0.70593,-0.80661 z"
         id="path907" />
      <path
         style="fill:#273839;fill-opacity:0.501961;stroke-width:0.352778"
         d="m 127.53101,230.35108 c -0.33955,-0.0988 -0.61736,-0.24402 -0.61736,-0.32277 0,-0.0787 -0.47625,-1.79137 -1.05833,-3.80584 -0.58209,-2.01446 -1.05834,-3.73379 -1.05834,-3.82071 0,-0.0869 2.06375,-0.1638 4.58611,-0.17082 2.52237,-0.007 4.58512,0.0818 4.58391,0.19739 -0.005,0.48353 -2.05027,7.49551 -2.24223,7.68747 -0.28315,0.28315 -3.42355,0.45933 -4.19376,0.23528 z"
         id="path903" />
    </g>
  </g>
</svg>
