<svg height="512" viewBox="0 0 512 512" width="512" xmlns="http://www.w3.org/2000/svg"><g transform="translate(-648.250049 149.53124)"><g transform="matrix(4.8436725 0 0 4.8436725 -2479.6607 601.99912)"><g transform="matrix(.6296875 0 0 .6296875 648.25001 -150.16093)"><path d="m18.380859 1-18.380859 31.220002 68 118.779998h24l68-118.779998-19-31.220002zm38.884766 3.7186908 4.158203 5.7580332h37.029297l3.759765-5.7580332h37.66992l15.35547 27.5013112-19.35351 33.441967-6.23829.560656-19.43554 33.111475 3.19922 6.39836-23.433598 41.34762h-19.595703l-23.914062-41.34762 3.199219-6.39836-18.714844-33.111475-7.03711-.560656-19.1152339-33.441967 15.1152339-27.5013112z" fill="#f3d573"/><path d="m54.099974 12.000002h-30.060396l-11.379752 20.22 16 26.95995c5.008728-.0028 7.032542-.05019 9.746112 4.522352l18.294377 30.827206c2.652744 5.397115-2.060428 9.74345-1.765901 10.27311l19.511245 35.0882h11.266132l19.534429-35.0882c-3.18618-4.874251-2.52837-7.244767-.74495-10.27311l19.36046-32.87516c1.80974-3.073033 5.59021-2.548881 8.106-3.006276l15.24052-26.428072-11.3666-20.22h-29.40177c-.41511 2.579544-3.99417 6.287541-7.135967 6.287541h-39.166416c-2.132701 0-6.037523-4.287541-6.037523-6.287541z" fill="#937f44" fill-opacity=".75" stroke="#f3d573"/></g><g fill="#f3d573"><path d="m696.76691-130.41h4.1291v68.232258h-4.1291z" stroke-linecap="round" stroke-linejoin="round" stroke-width=".258067"/><path d="m677.36015-130.41001 4.1291.00001v35.91l-4.1291-7.312z"/><path d="m719.88986-130.41h-4.1291v36.739999l4.1291-6.671179z"/><path d="m714.97964-116.04508c-3.44978 5.50688-3.27483 13.86956 0 19.373844z"/></g></g><g fill="#f3d573"><path d="m1011.25 37.954381c8.9119 14.226027 12.8297 32.386732 12.139 50.283174l-12.139 20.236795z"/><path d="m891.46651 39.91476c-16.70961 26.67353-15.86221 67.17961 0 93.84056z"/><path d="m919.25001 39.91476c16.70961 26.67353 15.86221 67.17961 0 93.84056z"/><path d="m797.46651 39.91476c-7.6316 12.182307-11.60094 27.249977-12.15021 42.566212l12.15021 20.336518z"/><path d="m825.25001 39.91476c16.70961 26.673535 15.86221 67.17961 0 93.84056z"/></g></g></svg>