<svg height="512" viewBox="0 0 512 512" width="512" xmlns="http://www.w3.org/2000/svg"><g transform="matrix(3.0833053 0 0 3.0833053 -5.971757 13.600631)"><g transform="matrix(.98919818 0 0 .99337748 5.828731 3.558314)"><path d="m54.099974 12.259931h-30.060396l-11.379752 19.960007 16 26.959867c5.008728-.0028 7.032551-.05001 9.746112 4.522532l18.294447 30.827461c2.652744 5.397115-2.060516 9.743332-1.76599 10.272992l19.511264 35.08815h11.266115l19.534406-35.08815c-2.85831-6.103766-2.4976-7.226858-.74491-10.272992l17.73759-30.827461c2.27912-3.961045 5.47429-5.565746 9.72887-4.522532l15.24052-26.959867-11.3666-20.219938h-29.40177c-.41511 2.579544-3.99425 5.97728-7.135967 6.000331l-39.166416.287361c-2.132644.01565-6.037523-4.027761-6.037523-6.027761z" fill="#616d1d" fill-opacity=".75" stroke="#cee255"/><path d="m18.380859 0-18.380859 32.219938 68 118.780062 24 .00007 68-118.780132-19-32.21993805zm38.884766 3.7435281 4.158203 5.8768238 37.029297-.080613 3.759765-5.7962108h36.80926l16.21613 28.4764099-19.35351 32.873244-6.23829.564174-19.43554 33.332288 3.19922 5.813146-23.433598 42.25116-19.595703-.00016-23.914062-42.251 3.199219-5.813146-18.714844-33.332288-7.03711-.564174-19.1152339-32.873244 15.8107489-28.4764099z" fill="#cee255"/></g><g fill="#e2ee9c"><path d="m107.32796 26.45587-51.442014 50.558031h18.738329l-12.283414 33.572159 1.353054 2.41249 48.760575-47.474916h-19.091885z"/><path d="m104.85998 99.058314 2.0625 6.937496c-12.000309 8.1906-21.434521 8.20694-34.062499 5.1875l5.875-5.8125c12.744494 1.90669 18.782988-1.10159 26.124999-6.312496z"/><path d="m109.55594 95.798178 15.73779-27.414896c-1.27073-11.510161-5.16436-21.737978-16.28639-29.729819l-2.65165 6.805903c20.10199 19.133567 12.14408 34.663082 3.20025 50.338812z"/><path d="m94.797481 31.683314-5.5 6.000001c-8.681708-1.130449-17.109096.473052-25.125 6.5l-2.625-7.25c12.5484-7.50562 22.996382-6.759597 33.25-5.250001z"/><path d="m46.672481 53.183315 7.75 1.875c-4.21164 7.65383-6.478955 14.164751-3.411612 22.976601l-7.161611-12.088387c-.142701-5.853431 1.412707-8.307678 2.823223-12.763214z"/><path d="m55.885946 34.49921-11.136932 12.81631 13.081475 2.916816 2.916816-3.093592z"/></g></g></svg>