<svg clip-rule="evenodd" fill-rule="evenodd" height="512" image-rendering="optimizeQuality" shape-rendering="geometricPrecision" text-rendering="geometricPrecision" viewBox="0 0 512 512" width="512" xmlns="http://www.w3.org/2000/svg"><g clip-rule="evenodd" fill-rule="evenodd" image-rendering="optimizeQuality" shape-rendering="geometricPrecision" text-rendering="geometricPrecision"><g transform="matrix(.953125 0 0 .953125 12 41.546875)"><path d="m324 375 45-79h23l49-56h40z" fill="#cb013f"/><path d="m281 360c1-2 1-1 0 0z" fill="#8a0020"/><path d="m231 360c-1-2-1-1 0 0z" fill="#8a0020"/><path d="m111 60 12 18-23 40h-19c13 24 25 45 39 68 8.52125-1.33487 16.42371.66969 20 7l49 82c5.37746 10.34667 3.58013 22.01169-3 31.04l46 75.96v-12h48v12l43.98019-75.96c-3.82415-9.19949-6.14581-20.8609-.98019-31.04l49-82c4.05898-6.89617 12.58627-7 20-7 14-23 26-44 39-68h-19l-23-40 12-18h-78c-1.56053 8.203883-8.98657 15.854679-17 16h-50-50c-7.62237-.10227-16.85396-8.475247-17-16z" fill="#ca003e" fill-opacity=".75" stroke="#ff2d59" stroke-width="10"/><path d="m456 145h56l-116 133h-16z" fill="#cb013f"/><path d="m470 68v35l-40-67h-15l47 81-176 306h-30-30l-176-306 47-81h-15l-40 67v-35l33-56h121l18 24h84l18-24h121zm-273-21h-93l-9 14 12 18-15 26h-22l-6 11 48 84h17l51 87-10 15 63 109h5l7.24296-27h24l4.75704 27h5l63-109-10-15 51-87h17l48-84-6-11h-22l-15-26 12-18-9-14h-93l-9 15h-100z" fill="#ca003e"/><g fill="#cb013f"><path d="m290 23 8-11 8-12c-17 0-33 0-50 0s-33 0-50 0l8 12 8 11h34z"/><path d="m201 398-97-83 106 135h92l106-135-97 83-20 34h-70zm-145-253h-56l116 133h16zm132 230-45-79h-23l-49-56h-40z"/></g></g><g fill="#8a0020"><g transform="matrix(.953125 0 0 .953125 12 41.546875)"><path d="m281 360c1-2 1-1 0 0z"/><path d="m231 360c-1-2-1-1 0 0z"/><path d="m275 170 5-10v-23h30v23l6 10zm41 109.54653c-.68643 3.37181-1.39075 6.69922-.71411 13.45347h-39.28589l-1-4v-109l2-2h37l2 2zm0 20.45347v5l-3 2v6h1.18577l-16.79971 29h-19.38606v-7l-3-1v-21h3v-6l-3-2v-5zm-102.36084 42-17.63916-29h3v-6l-3-2v-5h41v5l-3 2v6h3v21l-3 1v7zm-16.92516-49-.714-13.79871v-99.20129l2-2h37l2 2v109l-1 4zm20.286-212.127c14.95463 22.1048 15.44548 32.00895 15 49.127h-30c.5199-16.51572 1.10945-28.30436 15-49.127zm79.125 0c13.84837 20.21951 14.33135 31.70677 13.875 49.127h-30c.37525-17.58766.68059-28.22054 16.125-49.127zm-100.125 89.127 6-10v-23h30v23l5 10z"/></g><g><path d="m281 360c1-2 1-1 0 0z"/><path d="m231 360c-1-2-1-1 0 0z"/></g></g></g></svg>