<svg height="512" viewBox="0 0 512 512" width="512" xmlns="http://www.w3.org/2000/svg"><g transform="matrix(3.05 0 0 3.05 12 25.725)"><path d="m54.099974 12h-30.060396l-11.379752 19.36 15.999846 27.82c5.008728-.0028 7.032692-.05025 9.746266 4.522295l18.29439 30.827213c2.652744 5.397115-2.060951 9.743722-1.765933 10.273112l19.511264 35.0882h11.266115l19.534406-35.0882c.32946-.5976-4.12101-5.21037-.74491-10.273112l19.36046-30.827213c2.73737-4.358654 3.04923-4.474736 8.106-4.522295l15.24052-27.82-11.3666-19.36h-29.40177c-.41511 2.579544-3.99417 6.000328-7.135967 6.000328h-39.166416c-2.132701 0-6.037523-4.000328-6.037523-6.000328z" fill="#366654" fill-opacity=".75" stroke="#6bcea8"/><path d="m87.039016 120.99357 8.64321.005 9.100274-16.28775c-1.15653-3.02041-3.42528-5.111024-.89015-9.738634 1.63548-2.606044 3.44372-5.671877 5.44372-9.000001v-13.976119h-22.297054z" fill="#b5e5d3"/><path d="m18.380859 0-18.380859 31.36 68 119.64h24l68-119.64-19-31.36zm38.884766 3.7436066 4.158203 5.7960655h37.029297l3.759765-5.7960655h36.35844l16.66695 27.6163934-19.35351 33.975082-6.23829-.000056-19.43554 33.009564 3.19922 6.28-23.433598 42.42936h-19.595703l-23.914062-42.42936 3.199219-6.28-18.714844-33.009508h-7.03711l-19.1152339-33.975082 15.7709719-27.6163934z" fill="#6bcea8"/><g fill="#b5e5d3"><g transform="matrix(0 1.1586075 -1.3602268 0 142.72888 -16.392792)"><path d="m118.58102 50.541977v6.978827l-14.05588 6.656204c-1.21467-.338531-3.53216-2.730014-8.384829-1.463335-2.589315 1.193663-5.178631 2.531631-8.051152 4.001974h-11.800265l-.000023-16.173773z"/><path d="m58.16706 27.40842v11.404559c-8.631051 0-12.946442-2.095551-21.674125-5.70228 8.677658-3.222866 13.043074-5.702279 21.674125-5.702279z"/><path d="m58.16706 53.781553v11.063729c-8.631051 0-13.314102-2.097049-21.674125-5.531865 8.147784-3.241987 13.043074-5.531864 21.674125-5.531864z"/></g><path d="m54.724889 54h15.086545v8l4 6h-22.086545l3-6z"/><path d="m89.891475 54h15.825725v8l3.59428 6h-22.420005l3-6z"/><path d="m92.49903 127h-5.49903c2 1 2 5 0 6 0 1 0 2 1 2z"/><path d="m67.83011 127h5.540014c-2 1-2 5 0 6 0 1-.07614 2-1.07614 2z"/></g></g></svg>