<svg height="512" viewBox="0 0 512 512" width="512" xmlns="http://www.w3.org/2000/svg"><g transform="matrix(3.05 0 0 3.05 12 24.2)"><path d="m18.380859 1-18.380859 30.810713 68 119.189287h24l68-119.46875-19-30.53125zm38.884766 4.3593443 4.158203 5.1973767h37.029297l3.759765-5.1973767h37.66992l15.35547 26.2324517-19.35351 34.310547h-6.23829l-19.43554 32.791015 3.19922 6.238282-23.433598 42.14844h-19.595703l-23.914062-41.34766 3.199219-6.398436-18.714844-33.111328-7.03711-.560547-19.1152339-33.699052 15.5660539-26.6037127z" fill="#f49a4a"/><path d="m54.099974 12h-30.060396l-11.379752 19.886885 16 27.293115c5.008728-.0028 7.032498-.05024 9.746076 4.522295l18.294483 30.827213c2.652744 5.397115-2.060515 9.743452-1.76599 10.273112l19.511264 35.0882 11.266115.00003 19.534406-35.08823c.27151-.48168-4.25898-4.32139-.74491-10.273112l18.20127-30.827213c2.52446-4.275633 4.08326-4.644496 9.26519-4.522295l15.24052-27.293115-11.3666-19.886885h-29.40177c-.41511 2.579544-3.99417 6.000328-7.135967 6.000328h-39.166416c-2.132701 0-6.037523-4.000328-6.037523-6.000328z" fill="#825226" fill-opacity=".75" stroke="#f49a4a"/><g fill="#f9cca4"><path d="m119 28v16h-7c0-2-3-2-3 0h-41l-6-3v-10l6-3h41c0 2 3 2 3 0z"/><path d="m119 50.864407v16h-7c0-2-2.96398-2-2.96398 0l-41.03602-.000145-6-3v-10l6-3 41.03602.000145c0 2 2.96398 2 2.96398 0z"/><path d="m116.2037 73.728331-9.43913 16.000194h-38.76457l-6-3v-10l6-3 41 .000193c0 2 3 2 3 0z"/><path d="m103.04333 96.592787c-1.25129 4.420383 1.01543 6.578813 1.67741 8.138493l-4.38408 7.86151h-32.33666l-6-3v-10.000003l6-3z"/><path d="m60 31v10c-8.394095-.013088-14.802885-.057621-22.927213-5 8.067702-4.944139 14.576305-5.063512 22.927213-5z"/><path d="m60 53.864262v10c-8.185058-.02303-14.571047.000338-22.927213-5 8.067702-5.060058 14.732001-5.020822 22.927213-5z"/><path d="m60 76.728525v10c-8.148135.01921-7.517144-.286885-7.517144-.286885l-5.06518-8.532357c4.219219-.807892 4.487955-1.12297 12.582324-1.180758z"/><path d="m60 99.592787v10.000003h-1.82994l-2.722574-4.87213c1.160241-1.8916 2.004406-3.25067 2.393847-5.127873z"/></g></g></svg>