<svg clip-rule="evenodd" fill-rule="evenodd" height="512" image-rendering="optimizeQuality" shape-rendering="geometricPrecision" text-rendering="geometricPrecision" viewBox="0 0 512 512" width="512" xmlns="http://www.w3.org/2000/svg"><path d="m281 360c1-2 1-1 0 0z" fill="#8a0020"/><path d="m231 360c-1-2-1-1 0 0z" fill="#8a0020"/><g clip-rule="evenodd" fill-rule="evenodd" image-rendering="optimizeQuality" shape-rendering="geometricPrecision" text-rendering="geometricPrecision" transform="matrix(.953125 0 0 .953125 12 41.546875)"><g><path d="m324 375 45-79h23l49-56h40z" fill="#cb013f"/><path d="m281 360c1-2 1-1 0 0z" fill="#8a0020"/><path d="m231 360c-1-2-1-1 0 0z" fill="#8a0020"/><path d="m111 60 12 18-23 40h-19c13 24 25 45 39 68 8.52125-1.33487 16.42371.66969 20 7l49 82c5.37746 10.34667 3.58013 22.01169-3 31.04l46 75.96v-12h48v12l43.98019-75.96c-3.82415-9.19949-6.14581-20.8609-.98019-31.04l49-82c4.05898-6.89617 12.58627-7 20-7 14-23 26-44 39-68h-19l-23-40 12-18h-78c-1.56053 8.203883-8.98657 15.854679-17 16h-50-50c-7.62237-.10227-16.85396-8.475247-17-16z" fill="#ca003e" fill-opacity=".75" stroke="#ff2d59" stroke-width="10"/><path d="m456 145h56l-116 133h-16z" fill="#cb013f"/><path d="m470 68v35l-40-67h-15l47 81-176 306h-30-30l-176-306 47-81h-15l-40 67v-35l33-56h121l18 24h84l18-24h121zm-273-21h-93l-9 14 12 18-15 26h-22l-6 11 48 84h17l51 87-10 15 63 109h5l7.24296-27h24l4.75704 27h5l63-109-10-15 51-87h17l48-84-6-11h-22l-15-26 12-18-9-14h-93l-9 15h-100z" fill="#ca003e"/><g fill="#cb013f"><path d="m290 23 8-11 8-12c-17 0-33 0-50 0s-33 0-50 0l8 12 8 11h34z"/><path d="m201 398-97-83 106 135h92l106-135-97 83-20 34h-70zm-145-253h-56l116 133h16zm132 230-45-79h-23l-49-56h-40z"/></g></g><g fill="#8a0020"><path d="m281 360c1-2 1-1 0 0z"/><path d="m231 360c-1-2-1-1 0 0z"/><path d="m354 105v41h-18c0-5-8-5-8 0h-106l-16-8v-26l16-7h106c0 5 8 5 8 0zm0 100h-18c0-5-8-5-8 0h-106l-16-6v-29l16-6h106c0 5 8 5 8 0h18zm-5.56204 18-24.69788 41h-101.74008l-16-5v-29l16-7h107c0 5 8 5 8 0zm-32.39548 57c-2.2085 7.10986-.97754 17.73535 2.68164 25.95508l-10.68164 18.04492h-86.04248l-16-8v-26l16-10zm-115.04248 36h-3.11291l-5.98329-9.8523c4.49168-7.28217 4.59199-11.93949 5.18151-16.1477h3.91469zm-17.21481-59.5537-13.41237-22.36773c9.82122-2.45001 20.61796-3.64057 30.62718-4.07857v29c-8.23548-.22838-8.33112-.25953-17.21481-2.5537zm-41.78519-71.4463c24.79743-13.26277 39.87471-15.06513 59-15v29c-19.00827.07-34.38565-1.15425-59-14zm59-73v26c-20.36328-.12109-38.81396-1.24219-59-13 20.54932-10.56055 40.10986-12.31836 59-13z"/></g></g></svg>