<svg height="512" viewBox="0 0 512 512" width="512" xmlns="http://www.w3.org/2000/svg"><g transform="matrix(3.05 0 0 3.05 12 25.725)"><path d="m54.099974 12h-30.060396l-11.379752 19.886885 16 27.293115c5.008728-.0028 7.032534-.05024 9.746112 4.522295l18.294447 30.827213c2.652744 5.397115-2.060517 9.743452-1.76599 10.273112l19.511264 35.0882h11.266115l19.534406-35.0882c-2.85831-6.103761-2.61405-7.296916-.74491-10.273112l19.36046-30.827213c3.32099-5.287942 3.7355-4.470617 8.106-4.522295l15.24052-27.293115-11.3666-19.886885h-29.40177c-.41511 2.579544-3.99417 6.000328-7.135967 6.000328h-39.166416c-2.132701 0-6.037523-4.000328-6.037523-6.000328z" fill="#801600" fill-opacity=".75" stroke="#fe2c00"/><path d="m18.380859 0-18.380859 31.886885 68 119.113115h24l68-119.113115-19-31.886885zm40.52411 4.2272131 4.158203 5.312459h37.029298l3.75976-5.312459h33.87784l16.68854 27.6596719-18.53384 33.20623h-6.23829l-19.43554 33.896393 3.19922 5.729182-23.433598 42.33526h-19.595703l-23.914062-42.33526 3.199219-5.729182-18.714844-33.896393h-7.03711l-19.1152339-33.20623 16.0425869-27.6596719z" fill="#fe2c00"/><g fill="#ff957f"><path d="m43 26v24h33v-24z"/><path d="m85 26v24h33v-24z"/><path d="m43 54v16.418659l13.868023 23.393841c1.521133 2.71209 1.967854 6.51941-1.581967 10.90619l9.937499 17.53131 10.776445-.00016v-68.24984h-9.688525l-3 7h-7l-3-7z"/><path d="m118 54v18.051678l-13.75462 22.200407c-2.72868 4.003991-1.4263 6.178615.4059 10.575405l-9.688068 17.42235h-9.963212v-68.24984h10.506949l3 7h7.000001l3-7z"/></g></g></svg>