<svg clip-rule="evenodd" fill-rule="evenodd" height="512" image-rendering="optimizeQuality" shape-rendering="geometricPrecision" text-rendering="geometricPrecision" viewBox="0 0 512 512" width="512" xmlns="http://www.w3.org/2000/svg"><g transform="matrix(.953125 0 0 .953125 12 41.546875)"><path d="m324 375 45-79h23l49-56h40z" fill="#cb013f"/><path d="m281 360c1-2 1-1 0 0z" fill="#8a0020"/><path d="m231 360c-1-2-1-1 0 0z" fill="#8a0020"/><path d="m456 145h56l-116 133h-16z" fill="#cb013f"/><path d="m470 68v35l-40-67h-15l47 81-176 306h-30-30l-176-306 47-81h-15l-40 67v-35l33-56h121l18 24h84l18-24h121zm-273-21h-93l-9 14 12 18-15 26h-22l-6 11 48 84h17l51 87-10 15 63 109h5l7.24296-27h24l4.75704 27h5l63-109-10-15 51-87h17l48-84-6-11h-22l-15-26 12-18-9-14h-93l-9 15h-100z" fill="#ca003e"/><path d="m290 23 8-11 8-12c-17 0-33 0-50 0s-33 0-50 0l8 12 8 11h34z" fill="#cb013f"/><path d="m201 398-97-83 106 135h92l106-135-97 83-20 34h-70zm-145-253h-56l116 133h16zm132 230-45-79h-23l-49-56h-40z" fill="#cb013f"/><path d="m111 60 12 18-23 40h-19c13 24 25 45 39 68 8.52125-1.33487 16.42371.66969 20 7l49 82c5.37746 10.34667 3.58013 22.01169-3 31.04l46 75.96v-12h48v12l43.98019-75.96c-3.82415-9.19949-6.14581-20.8609-.98019-31.04l49-82c4.05898-6.89617 12.58627-7 20-7 14-23 26-44 39-68h-19l-23-40 12-18h-78c-1.56053 8.203883-8.98657 15.854679-17 16h-50-50c-7.62237-.10227-16.85396-8.475247-17-16z" fill="#ca003e" fill-opacity=".75" stroke="#ff2d59" stroke-width="10"/><path d="m189.62556 265.80307c8 8 26.35438 18.19693 37.35438 22.19693 14.07173 5.55908 5.57114 24.22266-4 23-8.99234-2.48214-20.71706-8.07763-27.60285-11.97607 4.79826-18.35362-1.3066-24.57694-5.75153-33.22086zm177.12685-73.80307-14.36603 24h-35.40644c-15.76811-.40857-16.04335-23.57477 0-24zm-44.46603 74.42109c-4.90831 7.30338-9.85191 15.63183-5.78493 32.68418-7 4-16.52151 7.89473-23.52151 10.89473-17.63937 3.20841-20.43057-19.102-8-22 11-4 29.30644-13.57891 37.30644-21.57891zm-54.30644 98.52523h-24v-99.94632c0-6 5-11 12-11s12 5 12 11zm-108.53105-148.94632-14.2013-24h49.73235c15.91541.52447 15.58378 23.6211 0 24zm84.53105-134.946319h24v61.946319c-.31595 12.83822-24.5022 13.31646-24 0zm12 102.946319c11 0 20 9 20 20s-9 20-20 20-20-9-20-20 9-20 20-20zm106-17c-11-31-35-57-69-69-18.71078-5.133441-24.13619 17.47997-8 23 27 9 46 29 55 54 6.60076 15.92554 26.63754 3.10749 22-8zm-143-69c-31 11-57 36-69 69-5.66648 16.58541 18.96956 20.99863 22 8 10-27 30-46 55-54 15.70684-7.10427 5.84535-28.057544-8-23z" fill="#8a0020"/></g></svg>