<svg height="512" viewBox="0 0 512 511.99998" width="512" xmlns="http://www.w3.org/2000/svg"><g transform="matrix(3.0827543 0 0 3.0827543 8.917243 24.485152)"><path d="m54.5 12.2h-29.7l-11.2 19.9 15.8 26.8c5 0 7 0 9.6 4.5l18.1 30.6c2.6 5.4-2 9.7-1.7 10.2l19.3 34.8 11.1.1 19.3-34.9c-2.8-6.1-2.51917-7.111208-.7-10.2l19.2-32.6c1.81917-3.088792 5.5-2.5 8-3l15.1-26.6-11.3-19.8h-29.1c-.4 2.6-4 5.9-7.1 6l-38.7.3c-2.1-.1-6-4.1-6-6.1z" fill="#3e36a5" fill-opacity=".75"/><path d="m19.2.1-18.2 32.000117 67.3 117.999883h23.7l67.3-119.5-18.8-30.5zm38.5 3.7 4.1 5.8 36.6-.1 3.7-5.3 36.03844.2 16.46156 26.2-19.2 34.399917-6.2.000083-19.2 32.799807 3.2 6.400123-23.2 41.90007h-19.3l-23.7-41.90007 3.2-6.400123-18.600091-32.79989h-6.999909l-18.8-32.8998 16.27625-28.100117z" fill="#7e82ff"/><g fill="#c1c3ff"><circle cx="80" cy="66.599998" r="5.5"/><path d="m77.5 18.424385h5v26.875616h-5z"/><path d="m56.9 101.4c3.7 2.4 7.7 4.3 12.1 5.5v-4.6c-4-1.3-7.7-3.3-11.1-5.8.2 2-.4 3.6-1 4.9z"/><path d="m104.3 94.5c-4 3.5-8.6 6.3-13.6 7.9v4.6c4.7-1.3 9-3.4 12.9-6.1-1-2.9-.5-4.4.7-6.4z"/><path d="m39.6 55.8h4.6c4-11.7 13.4-21.1 25.1-24.8v-4.8c-14.3 4.2-25.5 15.3-29.7 29.6z"/><path d="m42.4 69.2h16.6v-5.1h-19.6z"/><path d="m115.8 55.8h4.9c-4-14.4-15.3-25.6-29.6-29.6v4.6c11.5 3.7 21 13.2 24.7 25z"/><path d="m119.1 68.9 3-5h-21.1v5z"/><path d="m77.5 87.699997h5v27.200001h-5z"/></g><path d="m54.4 12h-29.7l-11.2 20.100117 15.8 26.799883c5 0 7 0 9.6 4.5l18.1 30.6c1.424665 3.128785 1.324706 3.658749-1.7 10.19993l19.3 34.80007 11.1.1 19.3-34.90007c-2.8-6.100002-2.51917-7.111138-.7-10.19993l19.2-32.6c1.81917-3.088792 5.5-2.5 8-3l15.1-26.6-11.3-19.8h-29.1c-.4 2.6-3.99839 6-7.1 6h-38.7c-2.10238 0-6-4-6-6z" fill="none" stroke="#7e82ff"/></g></svg>