<?xml version="1.0" encoding="UTF-8" standalone="no"?>
<svg
   xmlns:osb="http://www.openswatchbook.org/uri/2009/osb"
   xmlns:dc="http://purl.org/dc/elements/1.1/"
   xmlns:cc="http://creativecommons.org/ns#"
   xmlns:rdf="http://www.w3.org/1999/02/22-rdf-syntax-ns#"
   xmlns:svg="http://www.w3.org/2000/svg"
   xmlns="http://www.w3.org/2000/svg"
   xmlns:sodipodi="http://sodipodi.sourceforge.net/DTD/sodipodi-0.dtd"
   xmlns:inkscape="http://www.inkscape.org/namespaces/inkscape"
   width="512"
   height="512"
   viewBox="0 0 135.46667 135.46667"
   version="1.1"
   id="svg8"
   inkscape:version="1.0.1 (3bc2e813f5, 2020-09-07)"
   sodipodi:docname="Insider Knowledge.svg">
  <defs
     id="defs2">
    <linearGradient
       id="linearGradient1099-6-5"
       osb:paint="gradient">
      <stop
         style="stop-color:#273839;stop-opacity:0.5"
         offset="0"
         id="stop1151" />
      <stop
         style="stop-color:#273839;stop-opacity:1"
         offset="1"
         id="stop1153" />
    </linearGradient>
  </defs>
  <sodipodi:namedview
     id="base"
     pagecolor="#ffffff"
     bordercolor="#666666"
     borderopacity="1.0"
     inkscape:pageopacity="0.0"
     inkscape:pageshadow="2"
     inkscape:zoom="0.7"
     inkscape:cx="67.662489"
     inkscape:cy="273.32025"
     inkscape:document-units="px"
     inkscape:current-layer="g1320"
     inkscape:document-rotation="0"
     showgrid="false"
     inkscape:pagecheckerboard="true"
     inkscape:object-nodes="true"
     fit-margin-top="0"
     fit-margin-left="0"
     fit-margin-right="0"
     fit-margin-bottom="0"
     inkscape:window-width="1600"
     inkscape:window-height="837"
     inkscape:window-x="-8"
     inkscape:window-y="-8"
     inkscape:window-maximized="1"
     units="px" />
  <metadata
     id="metadata5">
    <rdf:RDF>
      <cc:Work
         rdf:about="">
        <dc:format>image/svg+xml</dc:format>
        <dc:type
           rdf:resource="http://purl.org/dc/dcmitype/StillImage" />
        <dc:title></dc:title>
      </cc:Work>
    </rdf:RDF>
  </metadata>
  <g
     inkscape:label="Layer 1"
     inkscape:groupmode="layer"
     id="layer1"
     transform="translate(-59.62574,-110.15787)">
    <path
       style="fill:#000000;stroke-width:0.264583"
       id="path853"
       d="" />
    <path
       style="fill:#000000;stroke-width:0.264583"
       id="path849"
       d="" />
    <g
       id="g1061"
       transform="translate(9.0714285,1.8898814)">
      <g
         id="g1320"
         transform="translate(7.2162774,44.901282)">
        <g
           id="g1583"
           transform="matrix(1.128806,0,0,1.1288049,-15.194221,-19.939177)">
          <path
             style="fill:#273839;fill-opacity:0.501961;stroke-width:0.352778"
             d="m 105.38045,174.19156 c -1.23578,-0.17323 -2.32647,-0.39457 -2.42375,-0.49185 -0.0973,-0.0973 0.32151,-0.85458 0.93066,-1.68289 l 1.10753,-1.50601 6.69608,-0.011 c 3.68284,-0.006 6.69608,0.11708 6.69608,0.2737 0,0.15662 0.39651,0.86828 0.88114,1.58148 l 0.88114,1.29671 -0.79295,0.30815 c -1.1284,0.43852 -11.29804,0.60716 -13.97593,0.23175 z m 28.27972,-5.37562 c -0.18452,-0.24253 -0.26783,-1.18904 -0.18512,-2.10334 0.14031,-1.55112 0.26021,-1.72575 1.7916,-2.60935 5.379,-3.10362 10.7146,-8.15111 14.50311,-13.71995 3.15328,-4.63509 5.06921,-9.05959 6.63843,-15.33028 0.81338,-3.25032 0.9326,-4.45426 0.94479,-9.54055 0.0193,-8.05927 -1.2245,-13.52799 -4.60454,-20.24486 -3.13775,-6.235387 -8.09377,-12.153326 -13.72389,-16.387553 -3.85514,-2.899329 -10.87851,-6.217308 -15.875,-7.499666 -5.62696,-1.44417 -13.3096,-1.794617 -18.88922,-0.86164 -13.823102,2.311388 -25.551489,10.452425 -32.547643,22.592329 -2.101328,3.64627 -3.534734,7.29193 -4.738403,12.05142 -0.879191,3.47645 -0.966203,4.40007 -0.958433,10.17358 0.0077,5.70937 0.104685,6.73345 0.961491,10.1508 3.025477,12.06708 9.879069,21.54984 20.356408,28.16552 l 3.136078,1.9802 -1.313903,1.28299 c -0.722644,0.70564 -1.438159,1.28299 -1.590033,1.28299 -0.603282,0 -5.501599,-3.40093 -8.253758,-5.73063 -8.217143,-6.9558 -14.217502,-17.42393 -16.21694,-28.29182 -0.71943,-3.91044 -0.798762,-12.97497 -0.146836,-16.77755 3.448118,-20.112306 18.676385,-35.671756 39.255102,-40.10882 4.19377,-0.904237 15.11845,-0.902233 19.35859,0.0036 11.5735,2.472345 21.66007,8.542465 28.62348,17.22568 1.45571,1.815232 3.14158,4.094171 3.74639,5.06431 3.07176,4.92727 5.60588,11.55945 6.67232,17.4625 0.80938,4.48009 0.80938,12.45324 0,16.93333 -2.54037,14.06161 -10.93243,26.16059 -23.30199,33.59491 -3.07899,1.85053 -3.15842,1.87761 -3.64208,1.2419 z M 91.923982,158.07586 C 89.621796,156.7244 87.81019,155.30754 85.283187,152.88206 72.028303,140.1597 69.824733,119.94723 80.024,104.64161 c 2.060742,-3.09246 5.82295,-7.351366 6.494022,-7.351366 0.217036,0 0.468552,0.595313 0.55892,1.322917 0.147221,1.185314 -0.0055,1.506389 -1.468166,3.086809 -6.738682,7.28113 -10.008584,16.84266 -9.167804,26.80758 0.368761,4.37055 1.37505,8.02441 3.312615,12.02818 2.928633,6.05172 6.965349,10.64206 12.616101,14.34638 1.503715,0.98575 2.72832,1.8849 2.721342,1.99812 -0.007,0.11322 -0.366296,0.6376 -0.798484,1.1653 l -0.785795,0.95946 z m 37.931868,-0.45693 c -0.55573,-0.58006 -0.94262,-1.11246 -0.85975,-1.18312 0.0829,-0.0707 1.0238,-0.68049 2.09095,-1.35519 5.37905,-3.40089 9.80509,-8.35799 12.69864,-14.22232 2.78348,-5.64124 3.35663,-8.34116 3.33254,-15.69861 -0.0187,-5.69743 -0.0949,-6.41683 -0.98786,-9.32687 -1.66732,-5.43333 -5.30555,-11.63574 -8.75181,-14.91997 -1.04459,-0.995474 -1.17901,-1.319534 -1.06094,-2.557643 0.0796,-0.834957 0.31825,-1.417741 0.58051,-1.417741 0.64849,0 5.42938,5.126144 7.00888,7.515034 4.84041,7.32079 7.21244,16.88902 6.22894,25.12612 -1.36022,11.39232 -7.40543,21.40858 -16.61686,27.53233 -1.2928,0.85944 -2.41855,1.56263 -2.50167,1.56263 -0.0831,0 -0.60583,-0.4746 -1.16157,-1.05465 z M 93.882988,146.62864 c -5.48398,-4.81682 -8.344676,-9.88175 -9.573761,-16.95056 -1.173477,-6.749 0.671389,-14.632 4.700849,-20.08649 1.929969,-2.6125 2.3512,-2.9309 2.93957,-2.22196 0.304412,0.36679 0.351473,0.71577 0.135001,1.00108 -1.908147,2.51486 -3.937938,6.06165 -4.763329,8.32328 -3.437873,9.41999 -0.953467,19.9947 6.350974,27.03252 1.935251,1.86462 2.178244,2.24797 2.076182,3.27546 l -0.115591,1.16368 z m 34.029062,0.11509 c 0,-1.09728 0.18752,-1.51743 0.87966,-1.97094 1.38398,-0.90682 4.60342,-5.00747 5.94608,-7.57362 2.15441,-4.11761 2.86295,-7.05356 2.86295,-11.86309 0,-3.44117 -0.15355,-4.72611 -0.82057,-6.86674 -1.02568,-3.29167 -2.37353,-5.98242 -4.243,-8.47045 -0.79757,-1.06147 -1.45012,-2.03383 -1.45012,-2.16082 0,-0.12698 0.25889,-0.44574 0.57531,-0.70834 0.50218,-0.41677 0.73037,-0.29895 1.79527,0.92694 4.12381,4.74728 6.89267,13.21128 6.28,19.19703 -0.66648,6.51142 -3.24534,12.42967 -7.31513,16.78757 -1.35734,1.45342 -2.92747,2.96984 -3.48917,3.3698 l -1.02128,0.72722 z"
             id="path1579"
             sodipodi:nodetypes="cssccsscscccssssssssssscsscsssssscscsssccssssscssscscsssssccscsssssssssscssscssssssssscssscs" />
          <path
             style="fill:#273839;fill-opacity:1;stroke-width:0.352778"
             d="m 77.829635,190.26 c -0.532046,-0.56634 -0.717586,-1.2391 -0.717586,-2.60192 0,-1.64845 0.09335,-1.87357 0.90491,-2.18212 0.4977,-0.18923 1.364707,-0.34405 1.92668,-0.34405 0.893122,0 1.069491,-0.17722 1.400788,-1.40756 0.272654,-1.01256 0.60951,-1.46541 1.20036,-1.61371 0.451738,-0.11338 1.279487,-0.8256 1.839441,-1.58271 0.559953,-0.75711 1.154818,-1.38031 1.321918,-1.3849 0.244856,-0.007 2.291038,1.54392 4.262229,3.23 0.199659,0.17078 0.02332,0.7031 -0.440972,1.33106 -0.797235,1.07833 -1.019933,2.13338 -0.450306,2.13338 0.177856,0 0.403895,-0.19844 0.502309,-0.44097 0.334275,-0.82383 0.927128,0.54214 0.932798,2.14921 0.0036,1.02598 -0.238118,1.84149 -0.732007,2.46945 -0.736636,0.9366 -0.742929,0.93763 -5.985194,0.97313 -4.949093,0.0335 -5.288625,-0.008 -5.965368,-0.72829 z m 7.621506,-2.83503 c 0.116444,-0.30345 0.643124,-0.52917 1.234722,-0.52917 1.278826,0 1.667771,-0.84162 0.821238,-1.77703 -1.298317,-1.43463 -3.339497,-0.42286 -3.339497,1.65532 0,1.24396 0.883942,1.69221 1.283537,0.65088 z M 134.27408,190.26 c -0.54607,-0.58126 -0.71759,-1.23827 -0.71759,-2.74875 0,-1.15494 0.17569,-2.0935 0.42016,-2.24459 0.23108,-0.14282 0.48243,-0.0728 0.55856,0.15557 0.21812,0.65435 0.78517,0.48416 0.78517,-0.23564 0,-0.35798 -0.3175,-0.93821 -0.70555,-1.2894 -0.38806,-0.35119 -0.70556,-0.82862 -0.70556,-1.06097 0,-0.23234 0.97855,-1.19124 2.17455,-2.13087 l 2.17454,-1.70842 1.27466,1.48 c 0.70106,0.81399 1.44416,1.47998 1.65133,1.47998 0.59618,0 1.46875,1.15234 1.6004,2.11351 0.10315,0.75317 0.35735,0.91251 1.77831,1.11475 0.91188,0.12977 1.82469,0.339 2.02848,0.46495 0.20378,0.12594 0.37051,1.06814 0.37051,2.09377 0,3.01037 -0.39628,3.20148 -6.72765,3.2444 -4.94392,0.0335 -5.28363,-0.008 -5.96032,-0.72829 z m 5.63241,-3.2857 c 0,-2.03731 -1.83647,-3.23353 -3.23466,-2.10697 -1.36247,1.09777 -0.93452,2.02847 0.93272,2.02847 0.44844,0 0.90672,0.23813 1.01841,0.52917 0.36036,0.9391 1.28353,0.61496 1.28353,-0.45067 z m -50.695885,-7.36692 c -1.203917,-0.93908 -2.196105,-1.81659 -2.204861,-1.95004 -0.0087,-0.13345 1.61127,-2.1972 3.600055,-4.58611 4.07929,-4.90002 4.591071,-5.17284 6.688745,-3.56571 2.16324,1.65737 2.078863,2.20227 -0.90913,5.87119 -1.446262,1.77585 -3.159732,3.8384 -3.807714,4.58345 l -1.178151,1.35464 z m 39.407005,-2.63548 c -4.35487,-4.99854 -4.59089,-5.667 -2.58471,-7.32066 2.16476,-1.78437 2.72414,-1.57391 6.12547,2.30467 1.64209,1.87251 3.42556,3.92632 3.96325,4.56404 l 0.97763,1.15948 -2.20724,1.78597 c -1.21399,0.98227 -2.28892,1.7797 -2.38874,1.77206 -0.0998,-0.008 -1.84837,-1.92715 -3.88566,-4.26556 z m -30.429184,-8.50874 c -1.203829,-1.09007 -1.277306,-1.28873 -1.492158,-4.0343 l -0.225979,-2.88778 2.050739,-1.61672 c 4.300722,-3.39051 4.558052,-3.52063 6.067842,-3.06829 1.7999,0.53926 3.08703,1.59508 3.90918,3.20662 l 0.67465,1.32243 -1.84211,1.81923 c -1.28245,1.26651 -2.12527,1.81923 -2.77409,1.81923 -1.19132,0 -2.93696,1.46695 -3.83098,3.21938 -0.38349,0.7517 -0.82633,1.36673 -0.984085,1.36673 -0.157759,0 -0.856612,-0.51594 -1.553009,-1.14653 z m 24.390704,-0.44993 c -0.83856,-1.78397 -2.38845,-2.98618 -3.85256,-2.98833 -0.60434,-0.001 -1.45021,-0.5648 -2.60334,-1.73552 -1.88776,-1.91659 -1.96284,-2.57384 -0.5056,-4.42641 0.80058,-1.01778 3.16813,-2.28474 4.29479,-2.29831 0.35388,-0.004 2.05266,1.06381 3.77506,2.3735 3.46526,2.63493 3.39335,2.47232 2.9411,6.65103 -0.18357,1.69611 -0.40501,2.22632 -1.19926,2.87144 -1.72659,1.40238 -2.00093,1.35932 -2.85019,-0.4474 z m -12.97344,-8.89868 c -0.375,-0.7276 -1.23901,-1.85803 -1.92002,-2.51206 -1.35642,-1.30268 -1.38877,-2.35129 -0.0623,-2.01836 1.13914,0.2859 6.90264,0.3139 7.98181,0.0388 1.63213,-0.4161 1.53436,0.69348 -0.21526,2.4431 -0.86067,0.86067 -1.66687,1.97134 -1.79156,2.46816 -0.20001,0.79689 -0.4084,0.90331 -1.7688,0.90331 -1.42557,0 -1.59361,-0.1 -2.2239,-1.32292 z m -0.60674,-5.75066 c -3.02905,-0.39523 -4.87404,-0.93973 -5.83615,-1.7224 l -0.82714,-0.67287 0.11205,-12.43612 c 0.10239,-11.36351 0.16952,-12.54876 0.77828,-13.74204 0.7914,-1.55125 2.59609,-3.15855 3.54646,-3.15855 0.4433,0 0.67849,-0.24457 0.67849,-0.70555 0,-0.66636 0.23518,-0.70556 4.23333,-0.70556 3.99815,0 4.23334,0.0392 4.23334,0.70556 0,0.42145 0.23518,0.70555 0.58406,0.70555 0.93501,0 2.89191,1.69046 3.62867,3.13462 0.62419,1.22353 0.68739,2.32078 0.79049,13.72438 0.13083,14.4714 0.44056,13.3715 -4.09177,14.53067 -2.92246,0.74745 -4.2727,0.80648 -7.83011,0.34231 z m 6.08993,-10.69954 c 0.80337,-0.93397 0.82873,-1.15764 0.82873,-7.30981 0,-6.26775 -0.0107,-6.35709 -0.86592,-7.21227 -0.75653,-0.75655 -1.18186,-0.86591 -3.36742,-0.86591 -2.18556,0 -2.61088,0.10936 -3.36742,0.86591 -0.85458,0.85458 -0.86591,0.94815 -0.86591,7.15344 0,8.07748 0.33625,8.67802 4.72752,8.44334 1.75592,-0.0938 2.21138,-0.26202 2.91042,-1.0747 z m -6.43509,-24.69245 c -0.10842,-0.28255 -0.14561,-0.9637 -0.0826,-1.51366 l 0.1145,-0.99994 h 2.99861 2.99861 v 1.41111 1.41111 l -2.91598,0.10255 c -2.29602,0.0807 -2.95789,-0.007 -3.11311,-0.41117 z m -1.78027,-7.17541 c -0.68983,-1.51059 -1.69875,-3.7243 -2.24204,-4.91936 -0.54329,-1.19506 -1.28211,-2.33018 -1.64182,-2.52248 -0.3597,-0.1923 -2.47962,-0.46573 -4.710944,-0.60761 -3.146506,-0.20009 -4.353218,-0.42569 -5.377145,-1.0053 l -1.3202,-0.74733 -0.0027,-3.606912 -0.0027,-3.606913 1.146528,-0.626421 c 0.848134,-0.463388 2.248295,-0.672327 5.379861,-0.802809 l 4.23333,-0.176389 0.10949,-1.322917 0.10949,-1.322916 h 3.50648 3.50649 v 1.411111 1.411111 h 2.11666 2.11667 v -2.591157 c 0,-2.940363 0.51266,-3.758843 2.35435,-3.758843 1.70014,0 2.23176,0.909981 2.23176,3.820139 v 2.529861 h 5.30572 c 4.62733,0 5.48435,0.09113 6.70278,0.712725 l 1.39706,0.712726 v 3.515602 3.515602 l -1.32292,0.85408 c -1.12913,0.72896 -1.93074,0.88986 -5.47228,1.0984 -3.07444,0.18103 -4.32735,0.39518 -4.83642,0.82663 -0.37789,0.32026 -1.61641,2.64604 -2.75229,5.1684 l -2.06522,4.58611 -3.60787,0.1007 -3.60786,0.10069 z m -4.15765,-22.634087 c -0.2895,-0.468408 1.37929,-2.102235 2.41195,-2.361413 1.73491,-0.435436 4.08701,0.796516 4.08701,2.140643 0,0.430914 -0.58565,0.529166 -3.15418,0.529166 -1.7348,0 -3.23995,-0.138778 -3.34478,-0.308396 z"
             id="path1577" />
        </g>
      </g>
    </g>
  </g>
</svg>
