<svg height="512" viewBox="0 0 135.46667 135.46667" width="512" xmlns="http://www.w3.org/2000/svg"><g fill="#273839" stroke-width=".352778" transform="matrix(1.128806 0 0 1.1288049 -58.532255 -83.305884)"><path d="m105.38045 174.19156c-1.23578-.17323-2.32647-.39457-2.42375-.49185-.0973-.0973.32151-.85458.93066-1.68289l1.10753-1.50601 6.69608-.011c3.68284-.006 6.69608.11708 6.69608.2737s.39651.86828.88114 1.58148l.88114 1.29671-.79295.30815c-1.1284.43852-11.29804.60716-13.97593.23175zm28.27972-5.37562c-.18452-.24253-.26783-1.18904-.18512-2.10334.14031-1.55112.26021-1.72575 1.7916-2.60935 5.379-3.10362 10.7146-8.15111 14.50311-13.71995 3.15328-4.63509 5.06921-9.05959 6.63843-15.33028.81338-3.25032.9326-4.45426.94479-9.54055.0193-8.05927-1.2245-13.52799-4.60454-20.24486-3.13775-6.235387-8.09377-12.153326-13.72389-16.387553-3.85514-2.899329-10.87851-6.217308-15.875-7.499666-5.62696-1.44417-13.3096-1.794617-18.88922-.86164-13.823102 2.311388-25.551489 10.452425-32.547643 22.592329-2.101328 3.64627-3.534734 7.29193-4.738403 12.05142-.879191 3.47645-.966203 4.40007-.958433 10.17358.0077 5.70937.104685 6.73345.961491 10.1508 3.025477 12.06708 9.879069 21.54984 20.356408 28.16552l3.136078 1.9802-1.313903 1.28299c-.722644.70564-1.438159 1.28299-1.590033 1.28299-.603282 0-5.501599-3.40093-8.253758-5.73063-8.217143-6.9558-14.217502-17.42393-16.21694-28.29182-.71943-3.91044-.798762-12.97497-.146836-16.77755 3.448118-20.112306 18.676385-35.671756 39.255102-40.10882 4.19377-.904237 15.11845-.902233 19.35859.0036 11.5735 2.472345 21.66007 8.542465 28.62348 17.22568 1.45571 1.815232 3.14158 4.094171 3.74639 5.06431 3.07176 4.92727 5.60588 11.55945 6.67232 17.4625.80938 4.48009.80938 12.45324 0 16.93333-2.54037 14.06161-10.93243 26.16059-23.30199 33.59491-3.07899 1.85053-3.15842 1.87761-3.64208 1.2419zm-41.736188-10.74008c-2.302186-1.35146-4.113792-2.76832-6.640795-5.1938-13.254884-12.72236-15.458454-32.93483-5.259187-48.24045 2.060742-3.09246 5.82295-7.351366 6.494022-7.351366.217036 0 .468552.595313.55892 1.322917.147221 1.185314-.0055 1.506389-1.468166 3.086809-6.738682 7.28113-10.008584 16.84266-9.167804 26.80758.368761 4.37055 1.37505 8.02441 3.312615 12.02818 2.928633 6.05172 6.965349 10.64206 12.616101 14.34638 1.503715.98575 2.72832 1.8849 2.721342 1.99812-.007.11322-.366296.6376-.798484 1.1653l-.785795.95946zm37.931868-.45693c-.55573-.58006-.94262-1.11246-.85975-1.18312.0829-.0707 1.0238-.68049 2.09095-1.35519 5.37905-3.40089 9.80509-8.35799 12.69864-14.22232 2.78348-5.64124 3.35663-8.34116 3.33254-15.69861-.0187-5.69743-.0949-6.41683-.98786-9.32687-1.66732-5.43333-5.30555-11.63574-8.75181-14.91997-1.04459-.995474-1.17901-1.319534-1.06094-2.557643.0796-.834957.31825-1.417741.58051-1.417741.64849 0 5.42938 5.126144 7.00888 7.515034 4.84041 7.32079 7.21244 16.88902 6.22894 25.12612-1.36022 11.39232-7.40543 21.40858-16.61686 27.53233-1.2928.85944-2.41855 1.56263-2.50167 1.56263-.0831 0-.60583-.4746-1.16157-1.05465zm-35.972862-10.99029c-5.48398-4.81682-8.344676-9.88175-9.573761-16.95056-1.173477-6.749.671389-14.632 4.700849-20.08649 1.929969-2.6125 2.3512-2.9309 2.93957-2.22196.304412.36679.351473.71577.135001 1.00108-1.908147 2.51486-3.937938 6.06165-4.763329 8.32328-3.437873 9.41999-.953467 19.9947 6.350974 27.03252 1.935251 1.86462 2.178244 2.24797 2.076182 3.27546l-.115591 1.16368zm34.029062.11509c0-1.09728.18752-1.51743.87966-1.97094 1.38398-.90682 4.60342-5.00747 5.94608-7.57362 2.15441-4.11761 2.86295-7.05356 2.86295-11.86309 0-3.44117-.15355-4.72611-.82057-6.86674-1.02568-3.29167-2.37353-5.98242-4.243-8.47045-.79757-1.06147-1.45012-2.03383-1.45012-2.16082 0-.12698.25889-.44574.57531-.70834.50218-.41677.73037-.29895 1.79527.92694 4.12381 4.74728 6.89267 13.21128 6.28 19.19703-.66648 6.51142-3.24534 12.42967-7.31513 16.78757-1.35734 1.45342-2.92747 2.96984-3.48917 3.3698l-1.02128.72722z" fill-opacity=".501961"/><path d="m77.829635 190.26c-.532046-.56634-.717586-1.2391-.717586-2.60192 0-1.64845.09335-1.87357.90491-2.18212.4977-.18923 1.364707-.34405 1.92668-.34405.893122 0 1.069491-.17722 1.400788-1.40756.272654-1.01256.60951-1.46541 1.20036-1.61371.451738-.11338 1.279487-.8256 1.839441-1.58271.559953-.75711 1.154818-1.38031 1.321918-1.3849.244856-.007 2.291038 1.54392 4.262229 3.23.199659.17078.02332.7031-.440972 1.33106-.797235 1.07833-1.019933 2.13338-.450306 2.13338.177856 0 .403895-.19844.502309-.44097.334275-.82383.927128.54214.932798 2.14921.0036 1.02598-.238118 1.84149-.732007 2.46945-.736636.9366-.742929.93763-5.985194.97313-4.949093.0335-5.288625-.008-5.965368-.72829zm7.621506-2.83503c.116444-.30345.643124-.52917 1.234722-.52917 1.278826 0 1.667771-.84162.821238-1.77703-1.298317-1.43463-3.339497-.42286-3.339497 1.65532 0 1.24396.883942 1.69221 1.283537.65088zm48.822939 2.83503c-.54607-.58126-.71759-1.23827-.71759-2.74875 0-1.15494.17569-2.0935.42016-2.24459.23108-.14282.48243-.0728.55856.15557.21812.65435.78517.48416.78517-.23564 0-.35798-.3175-.93821-.70555-1.2894-.38806-.35119-.70556-.82862-.70556-1.06097 0-.23234.97855-1.19124 2.17455-2.13087l2.17454-1.70842 1.27466 1.48c.70106.81399 1.44416 1.47998 1.65133 1.47998.59618 0 1.46875 1.15234 1.6004 2.11351.10315.75317.35735.91251 1.77831 1.11475.91188.12977 1.82469.339 2.02848.46495.20378.12594.37051 1.06814.37051 2.09377 0 3.01037-.39628 3.20148-6.72765 3.2444-4.94392.0335-5.28363-.008-5.96032-.72829zm5.63241-3.2857c0-2.03731-1.83647-3.23353-3.23466-2.10697-1.36247 1.09777-.93452 2.02847.93272 2.02847.44844 0 .90672.23813 1.01841.52917.36036.9391 1.28353.61496 1.28353-.45067zm-50.695885-7.36692c-1.203917-.93908-2.196105-1.81659-2.204861-1.95004-.0087-.13345 1.61127-2.1972 3.600055-4.58611 4.07929-4.90002 4.591071-5.17284 6.688745-3.56571 2.16324 1.65737 2.078863 2.20227-.90913 5.87119-1.446262 1.77585-3.159732 3.8384-3.807714 4.58345l-1.178151 1.35464zm39.407005-2.63548c-4.35487-4.99854-4.59089-5.667-2.58471-7.32066 2.16476-1.78437 2.72414-1.57391 6.12547 2.30467 1.64209 1.87251 3.42556 3.92632 3.96325 4.56404l.97763 1.15948-2.20724 1.78597c-1.21399.98227-2.28892 1.7797-2.38874 1.77206-.0998-.008-1.84837-1.92715-3.88566-4.26556zm-30.429184-8.50874c-1.203829-1.09007-1.277306-1.28873-1.492158-4.0343l-.225979-2.88778 2.050739-1.61672c4.300722-3.39051 4.558052-3.52063 6.067842-3.06829 1.7999.53926 3.08703 1.59508 3.90918 3.20662l.67465 1.32243-1.84211 1.81923c-1.28245 1.26651-2.12527 1.81923-2.77409 1.81923-1.19132 0-2.93696 1.46695-3.83098 3.21938-.38349.7517-.82633 1.36673-.984085 1.36673-.157759 0-.856612-.51594-1.553009-1.14653zm24.390704-.44993c-.83856-1.78397-2.38845-2.98618-3.85256-2.98833-.60434-.001-1.45021-.5648-2.60334-1.73552-1.88776-1.91659-1.96284-2.57384-.5056-4.42641.80058-1.01778 3.16813-2.28474 4.29479-2.29831.35388-.004 2.05266 1.06381 3.77506 2.3735 3.46526 2.63493 3.39335 2.47232 2.9411 6.65103-.18357 1.69611-.40501 2.22632-1.19926 2.87144-1.72659 1.40238-2.00093 1.35932-2.85019-.4474zm-12.97344-8.89868c-.375-.7276-1.23901-1.85803-1.92002-2.51206-1.35642-1.30268-1.38877-2.35129-.0623-2.01836 1.13914.2859 6.90264.3139 7.98181.0388 1.63213-.4161 1.53436.69348-.21526 2.4431-.86067.86067-1.66687 1.97134-1.79156 2.46816-.20001.79689-.4084.90331-1.7688.90331-1.42557 0-1.59361-.1-2.2239-1.32292zm-.60674-5.75066c-3.02905-.39523-4.87404-.93973-5.83615-1.7224l-.82714-.67287.11205-12.43612c.10239-11.36351.16952-12.54876.77828-13.74204.7914-1.55125 2.59609-3.15855 3.54646-3.15855.4433 0 .67849-.24457.67849-.70555 0-.66636.23518-.70556 4.23333-.70556s4.23334.0392 4.23334.70556c0 .42145.23518.70555.58406.70555.93501 0 2.89191 1.69046 3.62867 3.13462.62419 1.22353.68739 2.32078.79049 13.72438.13083 14.4714.44056 13.3715-4.09177 14.53067-2.92246.74745-4.2727.80648-7.83011.34231zm6.08993-10.69954c.80337-.93397.82873-1.15764.82873-7.30981 0-6.26775-.0107-6.35709-.86592-7.21227-.75653-.75655-1.18186-.86591-3.36742-.86591s-2.61088.10936-3.36742.86591c-.85458.85458-.86591.94815-.86591 7.15344 0 8.07748.33625 8.67802 4.72752 8.44334 1.75592-.0938 2.21138-.26202 2.91042-1.0747zm-6.43509-24.69245c-.10842-.28255-.14561-.9637-.0826-1.51366l.1145-.99994h2.99861 2.99861v1.41111 1.41111l-2.91598.10255c-2.29602.0807-2.95789-.007-3.11311-.41117zm-1.78027-7.17541c-.68983-1.51059-1.69875-3.7243-2.24204-4.91936s-1.28211-2.33018-1.64182-2.52248c-.3597-.1923-2.47962-.46573-4.710944-.60761-3.146506-.20009-4.353218-.42569-5.377145-1.0053l-1.3202-.74733-.0027-3.606912-.0027-3.606913 1.146528-.626421c.848134-.463388 2.248295-.672327 5.379861-.802809l4.23333-.176389.10949-1.322917.10949-1.322916h3.50648 3.50649v1.411111 1.411111h2.11666 2.11667v-2.591157c0-2.940363.51266-3.758843 2.35435-3.758843 1.70014 0 2.23176.909981 2.23176 3.820139v2.529861h5.30572c4.62733 0 5.48435.09113 6.70278.712725l1.39706.712726v3.515602 3.515602l-1.32292.85408c-1.12913.72896-1.93074.88986-5.47228 1.0984-3.07444.18103-4.32735.39518-4.83642.82663-.37789.32026-1.61641 2.64604-2.75229 5.1684l-2.06522 4.58611-3.60787.1007-3.60786.10069zm-4.15765-22.634087c-.2895-.468408 1.37929-2.102235 2.41195-2.361413 1.73491-.435436 4.08701.796516 4.08701 2.140643 0 .430914-.58565.529166-3.15418.529166-1.7348 0-3.23995-.138778-3.34478-.308396z"/></g></svg>