<svg height="512" viewBox="0 0 135.46667 135.46667" width="512" xmlns="http://www.w3.org/2000/svg"><g fill="#273839" stroke-width=".352778" transform="matrix(1.3652193 0 0 1.3652189 -84.162728 -110.017848)"><path d="m108.66594 170.84173c-.0138-.14552-.004-4.65352.023-10.01777l.0481-9.7532-1.93688-.88673c-7.544691-3.45407-9.698251-12.19325-4.66286-18.92195l.90929-1.21507v-15.27846-15.278468l1.76389-1.830004 1.76389-1.830003v-6.459104-6.459104l2.73402.0025c1.50372.0014 3.82864.105863 5.16651.232186l2.43248.229678-.19358 6.266613-.19358 6.266613 1.55346 1.621285 1.55346 1.621285v15.270443 15.27043l1.20443 1.16737c3.14319 3.04651 4.09607 8.69602 2.18332 12.9447-1.19914 2.66359-3.60912 5.09291-6.24506 6.29514l-1.97536.90096-.22767 3.43804c-.12522 1.89092-.22849 6.4146-.2295 10.05262l-.002 6.61458h-2.82222c-1.55223 0-2.83352-.11906-2.84732-.26458zm5.76906-25.6152c4.94418-2.08959 5.51862-8.81433 1.01647-11.89925-1.02967-.70555-1.67451-.85013-3.79143-.85013-2.31417 0-2.67647.10005-3.9064 1.07878-1.6341 1.30035-2.946 3.72899-2.93542 5.43416.015 2.42298 1.65283 4.91512 4.0492 6.16145 1.30603.67925 4.0504.71622 5.56758.075zm-38.11245-30.49738c-1.407317-.51838-2.518567-1.0459-2.469444-1.17227.152941-.39344 26.767894-28.345211 27.107974-28.46955.18449-.06746.32162 2.117685.32162 5.125031v5.242624l-10.973633 10.132605c-6.035498 5.57294-11.07581 10.12169-11.200695 10.10834-.124884-.0133-1.378504-.44841-2.785822-.96678zm56.34156-10.33012c-5.71512-5.450531-10.60691-10.116975-10.87063-10.369876-.38527-.369456-.42881-1.473813-.22156-5.619654.22898-4.580602.3187-5.109491.7992-4.711373 1.05505.874157 26.35923 28.587383 26.29983 28.803663-.052.18938-4.88996 1.79977-5.42351 1.80531-.10571.001-4.86821-4.45754-10.58333-9.90807z"/><g fill-opacity=".501961"><path d="m142.39192 149.40404-.26144-20.29116 1.36014-1.66235 1.36014-1.66234.21938 4.22642c.12066 2.32453.27941 11.63916.35278 20.69917l.13339 16.47274-1.21573 1.25434c-.66865.68989-1.32182 1.25434-1.45148 1.25434s-.35339-9.13102-.49718-20.29116z"/><path d="m79.245173 168.64822-1.35418-1.38681.437608-20.39074c.240685-11.21491.473821-20.42752.518081-20.47246.04426-.045.686501.53891 1.427202 1.29745l1.34673 1.37918-.439343 20.39837c-.241638 11.21911-.471422 20.43515-.51063 20.4801-.03921.045-.680668-.54234-1.425468-1.30509z"/><path d="m134.67808 166.62408c-.12816-5.97498-.23331-13.91954-.23365-17.65457l-.00062-6.79098h1.3541 1.3541l.23281 11.37709c.12805 6.25739.23307 13.60705.2334 16.33257l.0007 4.95549-1.35384 1.322-1.35385 1.32199-.23303-10.86359z"/><path d="m86.758118 176.13075-1.257046-1.32027.279813-11.64167c.153896-6.40291.291638-13.75423.306091-16.33625l.02628-4.69459 1.499305.10847c1.229452.089 1.498653.23547 1.495686.81404-.04339 8.4626-.676437 33.7164-.852314 34.00097-.150746.24391-.710777-.10408-1.497815-.9307z"/></g></g></svg>