<svg height="512" viewBox="0 0 135.46667 135.46667" width="512" xmlns="http://www.w3.org/2000/svg"><g fill="#273839" transform="matrix(1.2826534 0 0 1.2826534 -73.365389 -93.29304)"><g stroke-width=".352778"><path d="m136.41793 84.674045c-1.45354-.463042-4.46842-1.386726-6.69974-2.05263-9.58558-2.860678-10.5852-3.209222-10.73334-3.742474-.39663-1.427744-.57521-3.48874-.31585-3.645127.15921-.096 1.24197.103948 2.40614.444332 1.16416.340383 3.94229 1.127887 6.17361 1.750009s5.32694 1.503131 6.87917 1.957798c1.55222.454667 4.37852 1.274388 6.28067 1.821603l3.45846.994936-1.1654.956687c-.64097.526179-1.72239 1.271705-2.40317 1.656724l-1.23776.700037z"/><path d="m102.37792 94.723254c-4.850699-1.344779-10.046135-2.785584-11.54542-3.201789-1.499284-.416206-2.647064-.884409-2.550625-1.040452.09644-.156043.608749-.506034 1.13847-.777758s1.836251-.979557 2.903404-1.572963c1.067152-.593407 3.130902-1.740766 4.586111-2.549688l2.645833-1.470767 9.524997 2.867647c5.23875 1.577205 10.86231 3.303227 12.49681 3.835603l2.9718.967957-1.20791.842052c-.66436.463128-1.83181 1.366733-2.59434 2.00801-1.08308.910861-1.70786 1.165959-2.85565 1.165959-.80808 0-2.4067.313596-3.55247.696881-1.14578.383285-2.32136.691814-2.6124.68562-.29104-.0062-4.49792-1.111534-9.34861-2.456312z" fill-opacity=".501961"/><path d="m102.51412 109.52764c-4.95081-1.03038-11.11769-2.32826-17.422316-3.6667-3.298472-.70025-8.299098-1.7464-11.1125-2.32479-2.813403-.57839-5.380653-1.16723-5.705001-1.30855-.428623-.18674 1.450617-1.40421 6.879167-4.456701l7.468889-4.19978 13.099275 3.308871 13.099266 3.30887-1.05883 1.87616c-1.09274 1.93623-1.26627 2.74872-1.30469 6.10866-.0261 2.28081.17627 2.21134-3.94326 1.35396z" fill-opacity=".501961"/><path d="m149.47375 114.38369c-1.70378-.67928-1.95001-.90244-2.02012-1.83079-.35734-4.73159-.88612-10.95768-1.24331-14.639169-.23531-2.425347-.43074-4.504205-.43429-4.619683-.0123-.399203 4.07571-3.939365 4.29533-3.71974.20746.207457.58885 5.581814.99235 13.983872.0978 2.03729.34488 5.35397.54897 7.3704.2041 2.01643.2429 3.79279.0862 3.94747-.15668.15467-1.158-.0669-2.22515-.49236z"/><path d="m115.81806 128.20674c-.32776-1.55277-1.26931-7.62194-1.26931-8.1819 0-.49394.13194-.50053 1.18775-.0594 1.66273.69473 6.72188.52554 8.30632-.27778.66209-.33568 1.26542-.54871 1.34074-.47339.2987.29871 1.60405 8.00597 1.39186 8.21815-.12478.12478-1.22027.2872-2.43441.36092-1.21415.0737-2.44566.2286-2.73671.34417-.29104.11556-1.00541.24578-1.5875.28937-.58208.0436-1.72521.2-2.54029.34758-1.37278.24857-1.49497.20674-1.65845-.56773z" fill-opacity=".501961"/><path d="m133.70627 139.23938-.3649-1.84548 1.5398-1.26174c1.10847-.90831 1.5398-1.52192 1.5398-2.19052 0-1.0379-1.50358-3.30081-3.8563-5.8038-1.52167-1.61885-1.58963-1.79189-2.55557-6.50679-1.00509-4.90602-1.03038-5.99411-.15961-6.86489.51216-.51216 1.7455-4.35427 1.535-4.78185-.0684-.13889.24312-.60404.6922-1.03367s.8165-.72578.8165-.65811c0 .0677.67469-.49455 1.49931-1.24936 1.30871-1.19793 1.53202-1.29365 1.75667-.75299.14155.34066 1.06539 4.19126 2.05296 8.55689.98758 4.36562 2.18001 9.60437 2.64986 11.64166.46984 2.03729.8557 3.79156.85745 3.89837.002.10682-1.49403 2.223-3.32397 4.70263-1.82994 2.47964-3.54927 4.84294-3.82073 5.25178-.46557.70119-.51427.63866-.85847-1.10213z" fill-opacity=".501961"/><path d="m120.20588 158.93245c-.007-.49158-.40688-3.2697-.88868-6.17361-.78031-4.70315-.81679-5.31836-.33397-5.63261.29811-.19403 1.68449-1.20182 3.08085-2.23955 1.39636-1.03772 2.85634-2.02005 3.24439-2.18295.38806-.16291 1.41993-.78085 2.29306-1.37321.87312-.59236 1.62512-.9594 1.6711-.81565.046.14375.31217 1.45199.59152 2.9072l.50791 2.64583-1.39355 1.94028c-5.1737 7.2035-7.09638 9.83081-7.87399 10.75972l-.88595 1.05833-.0127-.89378z" fill-opacity=".501961"/><path d="m119.21036 107.85699c-.7883-.68368-.78851-.6868-.0589-.87758.73716-.19278 1.23585.40627.97918 1.17626-.0785.23547-.43943.11833-.92024-.29868z"/></g><path d="m385.97852 76.160156-9.66016 6.517578c-5.31243 3.584791-10.0006 7.070798-10.41797 7.746094-.41737.675311-3.14478.906973-6.0625.515625-6.37659-.855277-5.42911-1.425084-35.82422 21.511717-35.46459 26.76232-32.14574 24.68522-38.20508 23.90039-3.61334-.46801-7.77058.22857-12.89453 2.15625-14.62049 5.50039-23.42042 20.99359-19.8457 34.94141l1.75391 6.8457-5.36719 4.80469c-2.95246 2.64261-11.74494 9.7945-19.53711 15.89258l-14.16602 11.08789 4.69532 5.48633c2.58266 3.01727 4.69531 5.97676 4.69531 6.57812 0 2.06661 2.83263 1.08707 7.74609-2.67969 9.67166-7.41445 31.43257-23.57849 33.125-24.60546.99874-.60605 4.05312.1414 7.26367 1.77929 8.96954 4.57591 17.98306 4.87275 26.71875.87695 11.45575-5.23997 18.3979-15.25581 18.55664-26.77343.068-4.93278.7239-6.01361 6.33204-10.41797 3.4416-2.70282 12.55781-10.0667 20.25781-16.36328 7.69999-6.29654 18.33356-14.88532 23.6289-19.08594 8.83688-7.00997 9.632-8.04559 9.66602-12.61914.0355-4.56755.87555-5.67127 10.07617-13.22266 5.52057-4.530996 9.87011-8.587246 9.66602-9.015622-.20391-.428372-3.03144-4.171806-6.28516-8.318359zm-98.98829 74.416014c15.80179.0143 24.14233 17.45414 13.66211 28.56641-3.82582 4.05656-5.35653 4.76146-10.33398 4.7539-9.95898-.014-15.93521-4.40433-18.52539-13.60937-2.76197-9.81536 4.87507-19.7185 15.19726-19.71094z" stroke-width="1.33333" transform="matrix(.26458334 0 0 .26458334 43.338034 63.366707)"/><path d="m72.627726 174.60875c1.84267-1.98956 5.01906-4.56968 11.032746-8.96168 3.055203-2.23132 8.198982-6.00433 11.430624-8.38447 3.231639-2.38015 6.193204-4.55053 6.581264-4.82307.38806-.27255 2.68993-1.96428 5.11528-3.7594 6.94551-5.14071 8.47343-6.26577 13.56616-9.98919 2.63023-1.92303 4.74165-3.52581 4.69206-3.56174-.12712-.0921-3.92261.38516-6.44017.80982-1.16416.19637-3.62479.54017-5.46805.764-1.84327.22383-4.70077.62665-6.35.89516-1.64924.26851-4.42736.66548-6.17361.88217-5.592706.69397-8.391536 1.07376-11.64167 1.57974-5.241929.81607-8.746728 1.25011-10.074452 1.24764-1.0894-.002-1.405948-.21647-2.398875-1.62515-.629128-.89255-1.09625-1.75454-1.038049-1.91554.0582-.161 3.91582-3.10422 8.572487-6.54049 4.656666-3.43627 9.498541-7.01688 10.759722-7.95692 1.261181-.94002 2.458872-1.71154 2.661536-1.71446.579663-.008 3.126301 3.52427 2.770381 3.84301-.32893.29457-3.740309 2.85901-5.439668 4.08916-2.159303 1.56311-5.74403 4.27976-6.632878 5.02666-.941282.79095-.94167.79332-.130172.79375.447658.00023 1.479533-.16081 2.293056-.35788s3.860384-.68017 6.770801-1.07355c2.910416-.39338 6.720421-.94506 8.466671-1.22595s4.93785-.7422 7.09246-1.02512c2.1546-.28293 4.61522-.68203 5.46805-.88689s3.53497-.62839 5.96032-.94119 4.90624-.64463 5.51308-.73741c1.00492-.15365 1.2646.0306 2.91042 2.06462.99388 1.22832 1.80705 2.39436 1.80704 2.59119-.00001.43515-1.57996 1.69061-4.40971 3.50407-2.56609 1.64449-2.62284 1.68259-5.95398 3.99756-1.46578 1.01865-2.7793 1.85209-2.91891 1.85209-.13962 0-.58159.30153-.98215.67007s-3.03017 2.18541-5.84357 4.03748-5.75028 3.8287-6.52639 4.39251c-.77611.56382-1.64923 1.12945-1.94028 1.25697-.29104.12752-1.40229.8708-2.46944 1.65175-2.76808 2.02569-25.28642 17.12412-28.515823 19.11971-1.487756.91935-2.836971 1.67341-2.998256 1.67569-.161284.002.235591-.56684.881945-1.26472z" stroke-width=".352778"/></g></svg>