<svg height="512" viewBox="0 0 135.46667 135.46667" width="512" xmlns="http://www.w3.org/2000/svg"><g fill="#273839" stroke-width=".264583" transform="matrix(1.1674641 0 0 1.1674638 -62.401837 -81.086951)"><path d="m110.54184 81.403405c-.0831-.336598-.11703-2.457465-.0754-4.713038l.0757-4.101042.86607-.08337.86607-.08337-.0723 4.713579-.0723 4.713578-.71837.08283c-.56588.06525-.75046-.04709-.86949-.529167z"/><path d="m113.12189 90.791142c-.57422-.1106-.59531-.217505-.59531-3.01771v-2.903048l2.05052.176007c1.12778.0968 2.13371.250597 2.23539.341762.10168.09117-.0112 1.386146-.25085 2.877735l-.43572 2.711979-1.20436-.03603c-.6624-.01982-1.47225-.08763-1.79967-.150694z"/><path d="m106.94461 90.911721c-.2496-.642048-.87594-5.555707-.72043-5.651815.11888-.07348 1.04978-.203479 2.06865-.288898l1.8525-.155306v2.917932c0 2.802345-.0236 2.924252-.59532 3.07747-.5814.155811-2.55432.232003-2.6054.100617z"/><path d="m100.06452 89.388034c-.467853-1.456492-.775677-2.723127-.68406-2.814744.280696-.280698 4.00673-1.101141 4.18935-.922462.2709.265059 1.01497 5.439718.80827 5.621128-.22278.195522-2.50442.764245-3.06605.764245-.26969 0-.66948-.848654-1.24751-2.648167z"/><path d="m119.80262 91.845004c-.72761-.218718-1.34043-.414002-1.36183-.433965-.0796-.0743.8886-5.472098 1.0019-5.585394.0991-.09905 2.55291.436856 3.579.781628.33893.113884-1.27989 5.511644-1.67689 5.591367-.1206.02422-.81458-.134919-1.54218-.353636z"/><path d="m95.638654 93.801225c-.360262-.447798-2.426661-4.619976-2.426661-4.899567 0-.248438 2.985696-1.627997 3.523168-1.627902.269883.000048 2.198894 5.522916 1.980764 5.67104-.04398.02987-.698283.304494-1.453994.610276-1.029084.416397-1.436598.478192-1.623277.246153z"/><path d="m88.899301 94.926945c-.844013-1.167423-1.599341-2.291376-1.678504-2.497674-.09545-.248732.421497-.733785 1.534568-1.439898.923176-.585646 1.826135-1.065943 2.006576-1.067326.280977-.0021 2.823607 4.545787 2.840842 5.081343.0046.14327-2.964043 2.087464-3.134823 2.053019-.01876-.0038-.724647-.96204-1.568659-2.129464z"/><path d="m83.969867 98.272295-2.178532-2.189906 1.543143-1.227378c.848728-.675058 1.624327-1.228262 1.723554-1.229344.22733-.0025 3.391461 4.363392 3.391461 4.67954 0 .128436-.517747.666302-1.150546 1.195257l-1.150549.961736z"/><path d="m156.44741 127.49033v-.79375h5.15938 5.15937v.79375.79375h-5.15937-5.15938z"/><path d="m56.170325 127.62872v-.93214h4.779264 4.779264l-.08291.85989-.08291.8599-4.696354.0722-4.696355.0722z"/><path d="m105.32156 139.11772-.071-6.09969-6.163463-.0519-6.163459-.0519-.000264-5.29167-.000262-5.29167 6.229866-.0709 6.229872-.0709v-6.34521-6.34521h5.55625 5.55625v6.35 6.35h6.48777 6.48777l-.0716 5.35781-.0716 5.35782-6.35.0521-6.35.0521-.071 6.09944-.071 6.09944h-5.54649-5.5465z"/><path d="m87.132312 145.44014c-9.018826-12.09046-7.823017-28.4155 2.857633-39.01205 4.300077-4.26622 9.969601-7.202335 15.839445-8.202886 3.38952-.577768 9.3671-.393057 12.27988.379455 2.86684.760325 6.06568 2.073791 8.12229 3.335081 1.69422 1.03904 1.77676 1.13725 1.8545 2.20652.0447.61549-.002 1.11907-.10491 1.11907-.10244 0-.83063-.42771-1.61818-.95046-2.2017-1.4614-5.51353-2.91716-8.42174-3.7019-2.36234-.637436-3.09053-.711239-7.00215-.70967-4.76706.0019-6.26343.27245-10.4615 1.8914-5.495257 2.11919-10.788093 6.71206-13.756594 11.93729-5.357718 9.43081-4.678773 21.66562 1.676863 30.21758.885693 1.19176 1.02172 1.5478.914024 2.39232-.06959.5457-.270584.99219-.446656.99219s-.955879-.85227-1.732905-1.89394z" fill-opacity=".501961"/><path d="m140.23635 155.06828c-.97933-.9869-1.78061-1.9496-1.78061-2.13933 0-.18974.5824-1.02019 1.29422-1.84545 7.94797-9.21452 10.48965-23.20533 6.40887-35.27787-1.49894-4.43447-4.59156-9.6476-7.76694-13.09248l-1.08862-1.18101-2.72238 2.71312c-1.49731 1.49221-2.79299 2.6425-2.87929 2.5562s-.55365-3.35451-1.03855-7.262668c-1.27177-10.25027-1.26153-10.148742-1.02374-10.1455.90902.01239 17.11159 2.118584 17.23317 2.24016.0856.08563-1.12053 1.435874-2.68035 3.000545l-2.83603 2.844857.95707.916673c3.17976 3.045543 7.38657 10.015663 9.19593 15.236423 1.76581 5.09512 2.16202 7.70276 2.1459 14.12296-.013 5.16207-.0786 5.97014-.70927 8.73125-1.56256 6.84096-4.57562 13.04558-8.8013 18.12396-.9687 1.16417-1.84366 2.14723-1.94437 2.18459-.10071.0374-.98438-.73954-1.96371-1.72643z"/><path d="m107.23881 157.09033c-3.67408-.42532-8.591259-2.13432-11.579421-4.02451-.971987-.61483-1.124479-.83643-1.124479-1.63402 0-.5075.128794-.92272.28621-.92272.157414 0 .961086.39127 1.785938.8695 2.201061 1.27611 4.903952 2.40785 7.452852 3.12062 1.97058.55105 2.82209.62959 6.87917.63449 4.29804.005 4.82002-.0483 7.27604-.7456 7.81537-2.21893 14.28159-7.42721 17.79113-14.33005 1.59795-3.14297 2.97866-8.88231 2.97866-12.3817 0-5.35351-2.05305-11.83796-5.11456-16.15402-.98416-1.38745-1.1362-1.77275-1.03344-2.61897.0663-.5457.25628-.99168.42226-.99106.47954.002 3.09983 3.72661 4.41159 6.27121 2.14126 4.15368 3.16623 8.52161 3.16623 13.49293 0 14.97347-11.52923 27.75442-26.5468 29.42898-2.85566.31842-4.19518.31556-7.05138-.0151z" fill-opacity=".501961"/><path d="m135.72395 158.99516c-.82585-1.15348-1.50154-2.16391-1.50154-2.24539 0-.25648 1.97062-1.99269 2.27023-2.0002.39158-.01 3.6829 3.35419 3.6829 3.76422 0 .37371-2.30463 2.57862-2.69524 2.57862-.14014 0-.9305-.94376-1.75635-2.09725z"/><path d="m131.28326 164.47326c-.17593-.3315-.71768-1.34176-1.2039-2.24504-.48622-.90327-.88403-1.79819-.88403-1.9887 0-.28588 2.57099-2.05752 2.98585-2.05752.11622 0 2.77302 3.45904 3.18214 4.14303.15545.25988-1.03792 1.14869-3.44274 2.56411-.18841.11089-.44748-.0582-.63732-.41588z"/><path d="m84.21616 164.38256c-3.856303-.48947-7.402149-.8942-7.879659-.8994-1.575243-.0172-1.308857-.63815 1.373969-3.20295 1.395317-1.33393 2.536939-2.54182 2.536939-2.68421 0-.14238-.726921-1.05104-1.61538-2.01923-4.607145-5.02063-8.329491-12.58581-9.819252-19.95635-.876511-4.33651-.871414-12.02278.01074-16.19984 1.600668-7.57926 5.071851-14.56518 10.012528-20.150692l1.366764-1.545146 2.006674 1.977753c1.10367 1.087765 2.006674 2.141835 2.006674 2.342375s-.551672.97743-1.225936 1.72641c-4.470023 4.96539-7.604793 12.06356-8.580522 19.42918-.386811 2.91998-.184016 8.77136.404857 11.68162 1.270895 6.28086 4.840396 13.37562 8.829402 17.54937l.952194.9963 2.843929-2.83511c1.564161-1.55931 2.889981-2.78155 2.946263-2.71609.09696.11278 1.183984 8.47322 1.769933 13.61278.149315 1.30969.338333 2.70867.420036 3.10885.186537.91363.626007.92496-8.360156-.21562z"/><path d="m125.52552 167.2378c-.1332-.25125-.54453-1.44415-.91406-2.6509l-.67186-2.19409 1.48399-.6563c1.16132-.51359 1.53426-.58305 1.71519-.31944.17744.2585 1.66506 3.20031 2.26856 4.48612.10355.22062-.50693.55661-2.28407 1.25709-1.27235.50152-1.37043.50628-1.59775.0775z"/><path d="m118.87551 169.36572c-.00053-.11191-.18237-1.32145-.40397-2.68787-.2216-1.36641-.35821-2.52909-.30357-2.58373.11858-.11858 3.01584-.885 3.34553-.885.26771 0 1.98111 4.99516 1.78178 5.1945-.12067.12066-1.74049.55997-3.6911 1.00105-.40018.0905-.72808.073-.72867-.0389z"/><path d="m101.0172 169.11672c-.87312-.20934-1.67235-.46484-1.776059-.56777-.181467-.18012 1.250329-4.74365 1.610619-5.13349.15588-.16866 2.84285.3985 3.09835.654.20332.20332-.82562 5.31684-1.08082 5.37136-.14553.0311-.97896-.11476-1.85209-.3241z"/><path d="m112.52658 167.47076v-2.93872h1.56967c1.79671 0 1.6784-.1664 2.14195 3.01253.35366 2.42537.28396 2.53336-1.63946 2.53967-.67932.002-1.42347.0763-1.65365.16465-.36615.1405-.41851-.2071-.41851-2.77813z"/><path d="m107.3672 170.16042c-.87312-.0556-1.66486-.18395-1.75942-.2851-.0946-.10115.0285-1.37453.27343-2.82974l.44536-2.64584 1.71094.0915c.94102.0503 1.80478.17986 1.91948.28791.11469.10805.17422 1.37657.13229 2.81895-.0863 2.97017.15225 2.74557-2.72208 2.56235z"/><path d="m110.46995 177.82735.0722-4.69636.8599-.0829.85989-.0829v4.77927 4.77926h-.93214-.93215z"/></g></svg>