<svg height="512" viewBox="0 0 135.46667 135.46667" width="512" xmlns="http://www.w3.org/2000/svg"><path d="m150.52659 183.40539-12.11943-12.25297-1.13946.39721c-1.67968.58554-3.67561.47972-4.78311-.25358-.53655-.35525-1.83309-1.54609-2.88122-2.64629l-1.90567-2.00038-1.00897.8804c-.55493.48422-1.72477 1.55111-2.59966 2.37087l-1.5907 1.49046-10.0653-10.18854c-5.5359-5.60371-14.071157-14.27323-18.967198-19.26562-4.89605-4.99239-13.071951-13.3026-18.168662-18.46715l-9.266745-9.3901 3.969733-3.76239 3.969736-3.76239-4.432851-4.60048c-2.438067-2.530242-4.43285-4.704592-4.43285-4.831882s.762134-.9747 1.69363-1.88315l1.693629-1.651735 4.5648 4.816395 4.564798 4.816422 3.936491-3.826322c2.16506-2.10446 4.05866-3.77167 4.20798-3.70492.14933.0668 4.017891 3.95598 8.596811 8.642712 4.578911 4.68672 12.667588 12.93945 17.974808 18.33938 22.11651 22.50281 29.45902 30.03362 29.45902 30.21451 0 .10516-1.09258 1.2133-2.42797 2.46249l-2.42796 2.27123 1.79318 1.88412c.98625 1.03627 2.09674 2.25048 2.46776 2.69825.83014 1.00188 1.06417 3.79209.42189 5.03007-.46254.89158-.10628 1.29431 12.63056 14.2802 7.20859 7.3495 13.10653 13.539 13.10653 13.75445 0 .23424-.94755.39172-2.35709.39172h-2.35709zm-20.81404-23.90379c3.79321-3.58455 6.89675-6.63069 6.89675-6.76921 0-.13849-1.49769-1.7426-3.32821-3.56464l-3.32822-3.3128-1.39557 1.27828c-.76755.70304-2.15511 1.9924-3.08346 2.86523l-1.68789 1.58697-.87172-.9279-.87172-.92792 3.02735-2.87747 3.02737-2.87748-1.15306-1.2513-1.15305-1.25129-2.84257 2.82589c-1.5634 1.55423-3.02144 2.82589-3.24007 2.82589-.21861 0-.70503-.33985-1.08092-.7552-.67382-.74455-.64052-.79839 2.35869-3.81326l3.04216-3.05806-1.11691-1.07006-1.11691-1.07007-1.02135.89078c-.56174.48993-1.98766 1.81215-3.1687 2.93825l-2.14737 2.04745-.71572-.92623c-.39365-.50942-.71941-1.03996-.72395-1.17896-.004-.13905 1.32653-1.46381 2.95791-2.94404l2.96611-2.69131-1.18987-1.22765-1.18986-1.22763-1.68364 1.58277c-4.43728 4.17143-4.30963 4.08355-5.15968 3.55267-.43154-.2695-.78463-.67943-.78463-.91094 0-.23153 1.29139-1.68339 2.86974-3.22638l2.86974-2.80541-1.27521-1.31567c-.70135-.72363-1.41103-1.31568-1.57704-1.31568-.16602 0-1.0086.32231-1.87241.71624-4.655 2.12289-16.436758 7.0641-16.843548 7.0641-.26011 0-.47294.10348-.47294.22993 0 .33768 28.570098 29.40948 28.901938 29.40948.15494 0 3.38524-2.93282 7.17844-6.51737zm28.4003-27.95086-12.39652-12.19882-6.6018 6.56873c-3.63099 3.61281-6.76426 6.62449-6.96282 6.6926-.70057.24037-3.55129-2.22856-7.30554-6.32715-3.26365-3.56298-3.79755-4.32349-3.79755-5.4094 0-1.16929.91629-2.16515 12.28338-13.35005 6.75587-6.64758 12.40862-12.086522 12.56165-12.086522.15305 0 5.87923 5.549712 12.72486 12.332692l12.4466 12.33269v11.84196c0 6.51307-.12504 11.83298-.27787 11.82202-.15283-.0112-5.85631-5.5094-12.67439-12.21875zm.18956-29.10905c-6.71383-6.601772-12.37644-12.003206-12.58356-12.003206-.20713 0-5.72098 5.335094-12.25302 11.855766-6.53205 6.52066-11.99812 11.85576-12.14683 11.85576s-.27038-5.34505-.27038-11.87791v-11.877907l12.08848-11.926243c7.05458-6.959916 12.37255-11.926243 12.77067-11.926243.40083 0 5.63339 4.937243 12.68681 11.970758l12.00461 11.970758.27324 11.681967c.15064 6.44046.13051 11.81607-.045 11.98084-.17498.16438-5.81129-5.10258-12.52512-11.70434zm-105.753151-1.77209c-.876959-.893572-1.536879-1.865322-1.466485-2.159472.157311-.65734 18.5005-18.070154 19.038593-18.072941.212286-.0011 1.129255.757878 2.037709 1.686632l1.651734 1.68862-1.667217 1.526256c-.91697.83943-5.277623 4.997834-9.690341 9.240903-4.412717 4.24306-8.087561 7.714652-8.16632 7.714652-.07877 0-.860713-.7311-1.737673-1.62465z" fill="#273839" stroke-width=".370492" transform="translate(-43.338034 -63.366707)"/></svg>