<svg height="512" viewBox="0 0 135.46667 135.46667" width="512" xmlns="http://www.w3.org/2000/svg"><path d="m115.61305 178.74229c-.0298-.0225-4.58747-.11898-10.12805-.21454-7.2005-.12414-10.213-.28923-10.56187-.57876-.28565-.23707-.73139-.2987-1.07471-.14862-.32264.14106-.73638.21652-.91941.16769-.18304-.0488-3.10056-.3757-6.48339-.72638-3.382837-.35067-6.677466-.77911-7.321402-.95208-.643937-.17299-1.919575-.39717-2.834749-.49821-3.629852-.40071-15.132344-3.50289-17.426288-4.69981-.482463-.25173-1.074116-.45861-1.314785-.45975-.872929-.004-6.240001-3.07706-7.99932-4.58009-3.983524-3.40324-4.050224-7.48188-.181223-11.0817 1.59824-1.48704 5.007164-3.68178 6.41041-4.12715.665739-.2113.710153-.11194.710153 1.58911 0 1.58007-.110183 1.88668-.852841 2.3733-1.211291.79367-2.807857 3.45247-2.807857 4.676 0 4.11411 7.1536 8.39508 19.135471 11.45136 2.258042.57598 13.601033 2.57128 15.141981 2.66358.27455.0165 1.54748.16735 2.82872.33535 10.94949 1.43569 35.15075 1.19719 46.42433-.45751.82365-.12087 2.39609-.35017 3.49429-.50951 16.82901-2.44174 28.30496-7.28959 29.76657-12.5745.46478-1.68055-.11509-3.01589-2.26799-5.22334-1.45848-1.49542-2.00516-2.31965-2.14012-3.22671-.0997-.67002-.0997-1.29977-.00008-1.39942.24551-.2455 3.17834 1.26293 5.44955 2.80287 3.19629 2.16716 5.08563 4.86848 4.7249 6.75551-.0935.48901-.0165.87987.17335.87987.18785 0-.0101.72832-.43925 1.61849-3.33661 6.91646-19.04849 12.5565-41.3196 14.83237-2.77987.28407-5.28827.42672-5.57424.31698-.28597-.10968-.78202-.0789-1.10233.0686-.46125.21227-11.30008 1.08528-11.51022.92708zm-16.52741-13.10861c-14.453115-1.08553-26.577097-3.81629-33.07364-7.44935-2.327847-1.30181-5.167547-4.17622-5.247487-5.31164-.246028-3.49437 1.419586-5.46414 7.038791-8.32407 6.890619-3.50703 7.518713-3.80288 9.83058-4.6305 3.877698-1.38815 11.331396-2.87648 18.587766-3.71154l1.62869-.18743 2.99606 2.94803c1.78451 1.75589 2.90107 3.10172 2.76115 3.32811-.1292.20904-.73101.38009-1.33736.38009-1.77727 0-7.37816 1.55018-9.25565 2.56172-.95202.5129-1.95667 1.33754-2.23257 1.83249-.46103.8271-.44723.97523.17045 1.83035.99271 1.37434 4.55208 3.02036 8.31307 3.84437 2.92093.63995 4.30225.7254 11.63422.71971 7.33541-.006 8.71001-.0931 11.618-.73859 7.47799-1.65994 10.23459-4.14576 7.37836-6.65356-1.42098-1.24763-4.05054-2.24482-7.87941-2.98806-1.62874-.31616-2.96184-.65267-2.96245-.7478-.00067-.0951 1.38412-1.5455 3.0772-3.22304l3.07832-3.05007 4.32627.63404c9.16377 1.34298 15.76889 3.12992 19.73238 5.33835 1.04446.58196 2.23005 1.22613 2.63464 1.43149.40459.20535 1.13745 1.16684 1.6286 2.13665.80656 1.59263.8555 1.88837.50572 3.05586-.44403 1.482-2.69817 3.64453-5.03308 4.8285-4.24306 2.15154-12.25858 4.19519-21.13222 5.38789-5.50714.74019-26.9223.85578-32.4471.17511-8.49259-1.04631-16.600643-2.95091-20.857547-4.89949-5.064175-2.3181-6.981076-4.32855-6.679364-7.00534.09147-.81151.05532-1.47548-.08035-1.47548-.529431 0-2.001059 2.58448-1.999882 3.5122.005 3.94964 7.74686 7.76534 20.1326 9.92268 22.261043 3.87739 52.293203 1.96865 64.943903-4.12759 3.05114-1.47031 4.57147-2.62222 5.28692-4.00576.90897-1.75776.49512-3.37885-1.31935-5.16789-.58081-.57265-.58839-.64311-.0799-.74106.67604-.13022 2.58322 1.0057 4.32068 2.57343 5.82287 5.25402.27736 10.92824-14.37185 14.70536-4.31329 1.11214-10.10575 2.09663-16.68244 2.83537-5.30664.59607-23.31406.87997-28.9528.45646zm-14.060412-46.49824c-14.414002-14.4176-26.207276-26.325789-26.207276-26.462624 0-.136848.187195-.243635.415989-.237295.427717.01132 1.796852 1.116366 19.399111 15.649779 5.666359 4.67846 15.079358 12.44878 20.917768 17.26737l10.6153 8.76106 3.52213-3.62295c12.00468-12.34832 27.64358-28.53748 33.50392-34.682781 1.45425-1.524946 2.69476-2.912479 2.7567-3.083413.062-.170933-1.84744-2.22888-4.24308-4.573201-2.39564-2.344335-4.35571-4.363738-4.35571-4.487571 0-.12383 6.06511-.225154 13.47802-.225154h13.47803v13.311625c0 7.321385-.12594 13.311615-.27988 13.311615-.15393 0-2.13053-1.87194-4.39243-4.15988-2.2619-2.28793-4.21198-4.15988-4.3335-4.15988-.12151 0-3.42814 2.95767-7.34804 6.57262-3.91989 3.61494-14.51588 13.38648-23.54664 21.71458-9.03076 8.32808-16.58912 15.18201-16.79636 15.23095-.20722.0489-12.17005-11.70724-26.584052-26.12485zm-4.076688 17.86601c-2.589708-.72924-5.257112-1.4204-8.133236-2.10743-1.727757-.4127-3.195137-.91166-3.260846-1.10879-.06812-.20436.495397-.42714 1.311026-.5183 3.821425-.42711 9.58387-1.36709 9.58387-1.56332 0-.20436-8.512473-8.00586-14.892389-13.64856-2.699428-2.38749-3.314601-3.33531-2.163139-3.33282.320311.00067 3.27799 1.74178 6.572618 3.86908 3.294629 2.1273 6.739013 4.32891 7.654189 4.89248 3.662283 2.25521 4.813672 3.26982 8.570304 7.55226 3.051823 3.47896 3.819623 4.54201 3.494303 4.83797-.39298.35751-6.222389 1.51615-7.25829 1.44264-.264019-.0187-.929305-.16057-1.47841-.31521zm54.74409.0237c-2.3893-.31108-3.33151-.62719-3.31219-1.11121.009-.21645 2.44218-2.45995 5.40785-4.98552 3.66593-3.12194 6.40423-5.15356 8.55365-6.34619 10.26456-5.69541 17.66085-9.55356 17.96012-9.36859.71716.44322.2499 1.0589-2.07867 2.73902-3.01838 2.1778-11.35924 8.13905-15.63187 11.17216-1.78458 1.26687-3.2447 2.41501-3.2447 2.55142 0 .20955 6.07837 1.2067 9.07064 1.48802 1.96983.18518 1.56032 1.0191-.66358 1.35129-.87166.13022-3.90508.82139-6.74091 1.53597-5.2219 1.3158-6.03773 1.40103-9.32034.97363z" fill="#273839" stroke-width=".33279" transform="translate(-43.338034 -63.366707)"/></svg>