<svg height="512" viewBox="0 0 135.46667 135.46667" width="512" xmlns="http://www.w3.org/2000/svg"><g fill="#273839"><g transform="matrix(.84869058 0 0 .84869141 3.004066 -131.17344)"><path d="m253.31445 1043.0469-15.41406 17.2929 39.15642 111.9199h20.14444l43.25187-112.5449-16.4707-16.6679zm34.50196 11.1328c4.10238-.018 9.37392 2.7298 12.00781 6.4902 4.1485 5.9228 1.68185 15.8034-4.7793 19.1446-5.52821 2.8587-11.08542 2.3362-15.60742-1.4688-8.96449-7.5431-5.12605-21.2769 6.70312-23.9844.52725-.1206 1.08973-.179 1.67579-.1816z" fill-opacity=".5" stroke-width="1.33333" transform="scale(.26458333)"/><g stroke-width=".352778"><path d="m93.284506 213.48509-3.090757 1.76006c-20.567557-12.46003-38.496914 5.49302-37.572979 21.7845l-3.011389 1.54893c-3.601429-28.39668 23.485221-36.98929 43.675125-25.09349z"/><path d="m43.843719 223.01287c1.010535-1.79592 7.563792-6.54859 8.793039-6.85519-7.072676 7.65786-6.861433 19.97497-4.121446 28.88315l-3.090645 2.81634c-3.837681-6.89327-3.238292-20.33627-1.580948-24.8443z"/><path d="m1.3561297 237.06662c-.9163645-.33488-.85661373-.46603-.85661373-1.63286v-2.53989c.0487117-.776-.24141065-1.00921.85661373-1.5307l28.9316283-10.37901 3.553709 3.48331c-10.065305 8.94101-10.279046 10.53139 0 19.98678l-3.553709 3.62078z" fill-opacity=".5"/></g></g><path d="m131.352 69.967045c.77771-.284209.727-.395515.727-1.385794v-2.155583c-.0414-.658584.20488-.856508-.727-1.299092l-24.554-8.808576-3.016 2.956255c8.54233 7.588158 8.72373 8.9379 0 16.962609l3.016 3.072924z" fill-opacity=".5" stroke-width=".299399"/><path d="m59.88622 32.22869-3.46122-3.88312 8.79255-25.13157h4.52342l9.71218 25.27192-3.69848 3.74277zm7.74739-2.49987c.92119.004 2.10491-.61298 2.69635-1.45737.93154-1.32996.37766-3.54865-1.07319-4.29891-1.24136-.64192-2.48922-.5246-3.50464.32981-2.01297 1.6938-1.15105 4.77772 1.50519 5.38569.11839.0271.24469.0402.37629.0408z" fill-opacity=".5" stroke-width=".299399"/><path d="m20.965066 284.60054 17.202699-36.76314 1.85849 1.55828-16.167731 34.96842 3.280153 3.21847 42.862497-20.17916v-3.77761h2.469444v5.48136l-45.813207 21.56902z" stroke-width=".352778" transform="matrix(.84869057 0 0 .84869142 3.004065 -131.17344)"/><path d="m26.485 109.50502 32.995385-15.349288-.00011-2.275121c-3.036289-.471346-6.909015-1.890333-9.905901-3.521569 1.254733 3.299789-1.097131 6.434431-3.926331 6.286266-5.245395-.42679-5.501708-7.1737-.579656-8.656627l-5.825205-3.849681z" stroke-width=".299399"/><path d="m43.932579 92.465462c-1.820631-1.56604-.625373-4.672462 1.797823-4.672462 1.946244 0 3.301603 1.886454 2.589874 3.604715-.77103 1.861435-2.870905 2.37244-4.387697 1.067747z" stroke-width=".299399"/><g transform="matrix(1 0 0 -1 -.206919 135.62994)"><path d="m20.965066 284.60054 17.202699-36.76314 1.85849 1.55828-16.167731 34.96842 3.280153 3.21847 42.862497-20.17916v-3.77761h2.469444v5.48136l-45.813207 21.56902z" stroke-width=".352778" transform="matrix(.84869057 0 0 .84869142 3.004065 -131.17344)"/><g stroke-width=".299399"><path d="m26.485 109.50502 32.995385-15.349288-.00011-2.275121c-3.036289-.471346-6.909015-1.890333-9.905901-3.521569 1.254733 3.299789-1.097131 6.434431-3.926331 6.286266-5.245395-.42679-5.501708-7.1737-.579656-8.656627l-5.825205-3.849681z"/><path d="m43.932579 92.465462c-1.820631-1.56604-.625373-4.672462 1.797823-4.672462 1.946244 0 3.301603 1.886454 2.589874 3.604715-.77103 1.861435-2.870905 2.37244-4.387697 1.067747z"/></g></g><g transform="matrix(-1 0 -0 -1 135.605196 135.62994)"><path d="m20.965066 284.60054 17.202699-36.76314 1.85849 1.55828-16.167731 34.96842 3.280153 3.21847 42.862497-20.17916v-3.77761h2.469444v5.48136l-45.813207 21.56902z" stroke-width=".352778" transform="matrix(.84869057 0 0 .84869142 3.004065 -131.17344)"/><g stroke-width=".299399"><path d="m26.485 109.50502 32.995385-15.349288-.00011-2.275121c-3.036289-.471346-6.909015-1.890333-9.905901-3.521569 1.254733 3.299789-1.097131 6.434431-3.926331 6.286266-5.245395-.42679-5.501708-7.1737-.579656-8.656627l-5.825205-3.849681z"/><path d="m43.932579 92.465462c-1.820631-1.56604-.625373-4.672462 1.797823-4.672462 1.946244 0 3.301603 1.886454 2.589874 3.604715-.77103 1.861435-2.870905 2.37244-4.387697 1.067747z"/></g></g><g transform="matrix(-1 0 0 1 135.6052 -.000035)"><path d="m20.965066 284.60054 17.202699-36.76314 1.85849 1.55828-16.167731 34.96842 3.280153 3.21847 42.862497-20.17916v-3.77761h2.469444v5.48136l-45.813207 21.56902z" stroke-width=".352778" transform="matrix(.84869057 0 0 .84869142 3.004065 -131.17344)"/><g stroke-width=".299399"><path d="m26.485 109.50502 32.995385-15.349288-.00011-2.275121c-3.036289-.471346-6.909015-1.890333-9.905901-3.521569 1.254733 3.299789-1.097131 6.434431-3.926331 6.286266-5.245395-.42679-5.501708-7.1737-.579656-8.656627l-5.825205-3.849681z"/><path d="m43.932579 92.465462c-1.820631-1.56604-.625373-4.672462 1.797823-4.672462 1.946244 0 3.301603 1.886454 2.589874 3.604715-.77103 1.861435-2.870905 2.37244-4.387697 1.067747z"/></g></g><g stroke-width=".299399" transform="translate(11.025768 16.478428)"><path d="m42.106232 68.868862 2.623096-1.493748c17.455492 10.574721 32.671968-4.661879 31.887833-18.488318l2.555737-1.314564c3.056499 24.100019-19.931685 31.392493-37.066666 21.29663z"/><path d="m84.066161 60.782717c-.857631 1.524182-6.419319 5.557732-7.462569 5.817941 6.002514-6.49916 5.823234-16.952586 3.497833-24.512882l2.623001-2.390204c3.257003 5.85026 2.748308 17.259218 1.341735 21.085145z"/></g></g></svg>