<svg height="512" viewBox="0 0 135.46667 135.46667" width="512" xmlns="http://www.w3.org/2000/svg"><g fill="#273839" transform="matrix(1.0237147 0 0 1.0251891 -2.677538 -.941931)"><path d="m291.96484 15.177734c13.11607 12.448584 27.31927 24.431252 37.32032 38.214844-24.31158 2.566455-46.61014 9.158931-68.56957 16.429688-22.34904-7.171278-45.22083-13.166366-69.46559-16.072266 9.24744-13.695192 22.19863-25.273961 34.64258-37.142578-17.51986 11.448404-33.25417 23.789582-46.96485 37.142578-21.07096.391266-42.14193 3.813909-63.21289 6.964844 18.48725-.23571 37.23111-1.754508 54.82032 2.5-16.98175 19.043176-28.39167 39.372156-39.28516 59.820316-22.00715 11.30081-43.462052 24.25838-63.572266 41.25-2.150759-17.67839-1.327772-35.35677-.892578-53.03516-4.006194 20.41667-6.779423 40.83333-6.427734 61.25-16.000805 15.06483-26.912643 32.47842-38.75 49.46484 12.57881-12.70893 24.000694-27.15325 38.392578-37.14257 2.578336 24.07272 9.711696 47.00668 15.892914 70.17868-8.135955 23.92107-11.860706 47.44111-14.820648 70.89163-14.152032-11.6813-26.243582-25.42309-39.107422-38.39258 11.815102 16.63272 23.192592 33.39047 38.21289 49.10742.129539 19.64258 2.98624 39.28516 7.144532 58.92774.09655-16.81728-1.913479-34.23645 2.5-49.82032 18.65723 13.50814 38.348554 26.39581 60.361324 37.89063l40.53125 61.75195c-16.78571 2.70558-33.5717 2.05306-50.35742 2.85742 19.53042 2.33466 38.94621 5.46561 58.92774 4.64258 14.6179 13.86354 29.89347 27.07041 47.11523 38.33008-12.11901-12.29076-24.58325-24.36702-34.88281-37.79492 23.67234-2.35923 46.81738-8.40953 69.82164-15.44531 22.29704 7.64738 45.16328 11.87958 68.12562 15.53515-9.1642 13.9244-22.072 25.60263-34.46484 37.58985 16.98129-11.08752 33.11406-23.23569 47.41016-37.67969 20.21424.11809 39.91971-2.30771 59.46484-5.53516-16.93424-.23198-33.86849.69036-50.80273-2.67969 14.25719-18.74801 27.57511-38.4353 38.48046-60.53515 22.03178-11.51958 43.44802-23.90091 62.14454-40.08985 2.94546 17.85742 1.07865 35.71485.98046 53.57227 3.79376-20.11914 8.61262-40.23828 6.60743-60.35742 15.60721-14.90248 27.364-32.37192 39.01757-49.91016-12.16281 12.77956-23.2895 26.85427-37.94531 36.51758-2.76359-23.45266-7.70122-46.59474-15.1782-69.37405 6.85382-22.86604 13.37731-45.82217 15.08836-70.09079 15.23169 10.92023 25.62691 23.2223 37.85742 35-10.87798-16.09058-21.22861-32.33937-36.69727-47.05274-.78024-21.2483-2.74325-42.2009-7.32031-62.5.45126 17.67839 1.36012 35.35677-2.32226 53.03516-18.31765-16.57313-39.73789-29.35422-62.32032-40.71485-10.52152-21.11693-22.31016-41.542702-38.03711-59.820308 17.84565-4.227801 36.36776-1.69094 54.64454-1.607422-20.89323-4.671048-41.78646-8.140742-62.67969-7.142578-15.50389-14.069023-33.08088-26.755979-51.42774-38.929688zm45.79102 48.685547c13.22528 16.613594 24.26722 33.730236 31.31445 51.769529-15.51481-3.37054-31.34104-6.27437-48.74023-6.81836-11.58952-11.150271-25.76762-20.229618-39.64844-29.546872 19.28135-7.959723 38.26844-12.675667 57.07422-15.404297zm-153.97461.212891c18.80578 2.72863 37.79288 7.444574 57.07422 15.404297-13.8808 9.317253-28.05892 18.396608-39.64844 29.546871-17.39919.54399-33.22542 3.44782-48.74023 6.81836 7.04722-18.039289 18.08916-35.155934 31.31445-51.769528zm76.93434 21.28125c19.26241 10.802253 37.64234 22.245328 52.67699 38.214848 22.51879-.35672 44.08569 4.36329 65.17969 11.60546 6.32704 20.41412 10.49808 41.13625 10.17773 62.5 16.88648 16.85596 31.12087 35.72142 39.46484 57.32322-9.27733 20.9251-22.58267 36.97622-38.03711 51.24905 1.66851 22.77104-5.29514 44.58294-11.96289 66.42773-20.68639 7.94645-41.93421 10.55926-63.57226 9.46485-15.16801 17.91107-33.42144 29.21001-53.30336 39.10742-22.0576-8.83906-39.91319-23.51852-56.33922-38.92773-21.45265.26343-42.47082-2.08011-62.5-10.35743-8.73441-20.79148-10.50374-43.22152-11.25-65.89257-18.17482-14.40306-29.43433-31.99365-38.927734-51.07132 10.956794-19.99876 22.751014-39.67543 39.820314-57.32322-1.7386-21.07096 4.75583-42.14193 9.82226-63.21289 21.45973-6.14259 43.06572-10.38391 65-10.35742 15.08931-14.81242 33.92-27.256588 53.75075-38.749998zm137.1848 58.160158c18.03931 7.04723 37.93328 20.36065 54.54688 33.58594-2.72863 18.80579-7.44458 37.79288-15.4043 57.07421-9.31725-13.8808-21.17393-30.33237-32.32422-41.92187-.54399-17.39921-3.44781-33.22347-6.81836-48.73828zm-275.08867-.37988c-3.37054 15.5148-6.77945 32.60177-7.32344 50.00097-11.15029 11.58951-21.47962 28.08906-30.796874 41.96987-7.959723-19.28134-11.42762-40.5879-14.15625-59.3937 16.613594-13.22528 34.237254-25.52992 52.276564-32.57714zm-37.350782 131.19433c9.317246 13.8808 18.396592 28.05892 29.546872 39.64844.54399 17.39918 3.44782 33.22542 6.81836 48.74023-18.03931-7.04723-35.155954-18.08916-51.769529-31.31445 2.72863-18.80579 7.444574-37.79289 15.404297-57.07422zm349.568362.26758c7.95972 19.28133 12.67566 38.26843 15.40429 57.07422-16.61359 13.22528-33.73022 24.26722-51.76953 31.31445 3.37055-15.51481 6.27437-31.34105 6.81836-48.74023 11.15029-11.58952 20.22962-25.76764 29.54688-39.64844zm-66.20118 117.80859c-7.04721 18.03931-18.08916 35.15594-31.31445 51.76953-18.80578-2.72863-37.79288-7.44457-57.07422-15.40429 13.88081-9.31726 28.05892-18.39659 39.64844-29.54688 17.39919-.54398 33.22543-3.44781 48.74023-6.81836zm-217.05273.0352c15.51481 3.37054 31.34113 6.27632 48.74023 6.82031 11.58952 11.15029 25.76764 20.22962 39.64844 29.54688-19.28133 7.95972-38.26843 12.67566-57.07422 15.40429-13.22528-16.61359-24.26722-33.73217-31.31445-51.77148z" fill-opacity=".5" transform="scale(.26458333)"/><path d="m56.86159 81.316752 2.211208-1.276638c8.563822 7.074742 26.841992 2.353947 25.558501-14.756209l1.937385-1.11855c2.702601 13.823867-13.384962 28.255071-29.707094 17.151397z"/><path d="m61.071087 86.127605-2.071341 2.271789c20.649927 8.269517 38.982466-11.450822 30.802815-30.869628l-2.104749 2.104747c6.723314 16.443649-10.331939 33.443606-26.626725 26.493092z"/><path d="m80.246687 52.946593-2.211208 1.276638c-8.563822-7.074742-26.841992-2.353947-25.558501 14.756209l-1.937385 1.11855c-2.702601-13.823867 13.384962-28.255071 29.707094-17.151397z"/><path d="m76.131684 48.13574 2.071341-2.271789c-20.649927-8.269517-38.982466 11.450822-30.802815 30.869628l2.104749-2.104747c-6.723314-16.443649 10.331939-33.443606 26.626725-26.493092z"/><path d="m85.233557 21.875221.661458 1.322916c-6.39704.44367-12.162769 1.690706-17.174146 3.897955-5.437918-1.827612-10.982185-3.300879-16.79639-3.874183l.873847-1.322917-1.866035 1.441256-2.220536.141593 1.677418.189136c-4.041579 4.864898-7.2898 9.899956-9.567891 15.142746-5.383752 2.83944-10.670429 5.86486-15.308111 10.134264l-.236161-1.606621-.259932 1.93735-1.369943 1.653646 1.393714-.803053c.278506 5.971628 1.816362 11.673388 3.850929 17.268714-2.54908 5.486207-3.15938 11.231049-3.8747 16.961755l-1.133781-.543634 1.181323 1.228346.04703 2.26808.496094-1.393714c4.574152 3.864343 9.73653 6.888816 15.190288 9.496578 2.647424 5.225516 5.542005 10.368276 9.685195 15.095206l-1.299144.54363 1.937348.0946.992188 1.11001-.212905-1.1808c5.875028-.58225 11.656782-1.51427 17.032552-3.96875 5.337188 2.26797 11.066287 3.43841 17.032551 3.94497l-.566891 1.39372 1.488282-1.36994 1.913577.094-1.464511-.66146c4.055007-4.44595 7.322818-9.39728 9.6144-14.976862 5.305776-2.439398 10.394736-5.486382 15.071956-9.685716l.44906 1.322916.0946-1.81901 1.46451-1.512051-1.48828.756025c.14156-6.039696-1.72152-11.578293-3.54345-17.127119 1.89067-5.647595 3.23522-11.416683 3.992-17.316256l1.06351.661458-1.18133-1.393711-.0708-2.14974-.4253 1.535822c-4.7646-4.430181-9.93872-7.550812-15.331911-9.969419-2.651662-5.198568-5.424474-10.350344-9.685715-14.929839l1.441256-.330729-1.93735-.165364zm-33.907492 2.122868c4.975702.72195 9.526527 2.159358 14.628048 4.265374-3.672631 2.465189-6.762467 4.442131-9.828858 7.392313-4.603538.14393-8.321156 1.187669-12.426114 2.079458 1.864577-4.772898 4.127736-9.341464 7.626924-13.737145zm35.004581.06201c3.499189 4.39568 5.76235 8.963729 7.626924 13.73663-4.104957-.891789-7.444303-2.124147-12.047841-2.268078-3.066391-2.950181-6.534499-4.738505-10.20713-7.203694 5.101521-2.106012 9.652346-3.542907 14.628047-4.264856zm-17.609777 5.740734c3.443658 1.660292 6.501299 3.540492 8.787061 5.913334-1.347118-.0984-2.576917.487857-3.841626.801502 5.121479.894525 9.722102 2.681486 13.597102 5.712831-.385051-1.198616-1.23303-2.331096-2.238105-3.441134 3.454156.259567 6.865871.687716 10.055717 2.004528 1.141825 3.492691 1.702104 6.840186 2.13837 10.156487-1.168892-1.182921-2.457532-1.64722-3.708302-2.338877 3.034382 3.97244 5.105273 8.522967 5.913334 13.831196.343617-1.33731.78125-2.617538.70125-4.209044 2.32658 2.633048 4.42183 5.574395 6.21409 8.919869-1.66256 3.574989-3.80735 6.366253-6.1805 8.786545.074-1.487019-.348921-2.874584-.701767-4.276225-.921366 5.472845-2.691603 10.348428-6.013585 14.131954 1.263828-.535612 2.531592-1.043779 3.708818-2.272213.05454 3.460023-.947742 6.907932-2.13837 10.190075-3.150465.898917-6.416588 1.537192-9.922394 1.636591l2.305286-3.674711c-4.347088 3.47026-9.130033 5.071946-14.098363 5.879746 1.250686.572225 2.658206.830609 4.175972.86868-2.568255 2.514073-5.475052 4.351393-8.485788 5.980513-.467498.4675-9.032417-5.717247-8.686289-5.913851.248224-.140994 4.2683-.647616 4.175971-.8015-5.627115-.675349-10.144696-3.112426-14.26528-6.180503.703485 1.331513 1.401154 2.664138 2.538865 3.908806-3.432288-.189973-6.768512-.812358-10.022644-1.804024-1.130424-3.440099-1.787406-6.794309-1.937866-10.056233 1.182756.984179 2.447642 1.721728 3.808552 2.171443-3.830021-4.359111-5.495578-9.116771-5.946407-14.098365-.785617 1.27893-.99586 2.722176-1.169437 4.175975-2.401506-2.629951-4.402521-5.419979-5.913334-8.406207 1.525296-3.207417 3.388955-6.291831 5.979996-8.966377-.07195 1.341829.495459 2.556068 1.035595 3.77548.401576-4.828223 2.469642-9.339226 5.512842-13.664282-1.153975.578429-2.360091 1.02698-3.274219 2.205032.318556-3.267059.625764-6.532515 1.804025-9.922391 3.292491-1.062045 6.720062-1.684665 10.189559-2.171443-.907566 1.124786-1.630466 2.37237-2.271697 3.67471 4.124262-3.088843 8.783289-4.893447 13.797608-5.846153-1.43783-.324774-2.908273-.69885-4.175971-.76843 2.426181-2.388211 5.329391-4.232995 8.551931-5.913334zm29.698963 12.176519c4.772898 1.864577 9.341468 4.128251 13.737148 7.62744-.72195 4.975701-2.15937 9.526527-4.26538 14.628048-2.46519-3.672631-4.72583-7.329358-7.67601-10.395747-.14393-4.603538-.90397-7.754784-1.795758-11.859741zm-58.960742.0041c-.891788 4.104957-1.651825 7.256203-1.795756 11.859741-2.950181 3.066391-5.210828 6.723118-7.676017 10.395749-2.10601-5.101521-3.543423-9.652347-4.265373-14.628048 4.39568-3.499188 8.964246-5.762866 13.737146-7.627442zm-9.576159 28.189005c2.465189 3.672631 4.725334 7.329355 7.675498 10.395747.143931 4.603538.904487 7.754268 1.796275 11.859225-4.7729-1.864577-9.341466-4.127738-13.737146-7.626924.72195-4.975701 2.159363-9.526526 4.265373-14.628048zm77.817469 0c2.10601 5.101522 3.54342 9.652347 4.26537 14.628048-4.39568 3.499186-8.96425 5.762347-13.737142 7.626924.891789-4.104957 1.935542-7.444822 2.079462-12.04836 3.30145-2.80294 5.28854-6.262915 7.39231-10.206612zm-63.79042 26.49503c4.10496.891789 7.255687 1.651826 11.859225 1.795757 3.066391 2.950176 6.723118 5.210826 10.395749 7.676016-5.101521 2.10601-9.65183 3.54342-14.627531 4.26537-3.499189-4.39568-5.762866-8.96424-7.627443-13.737143zm50.184017.02585c-1.864576 4.772893-4.127738 9.341463-7.626924 13.737143-4.975701-.72195-9.526526-2.15884-14.628047-4.26485 3.672631-2.4652 7.28233-4.63128 10.348722-7.581453 4.414549.186798 7.801292-.999051 11.906249-1.89084z"/></g></svg>