<svg height="512" viewBox="0 0 135.46667 135.46667" width="512" xmlns="http://www.w3.org/2000/svg"><g transform="matrix(1.0670947 0 0 1.0670947 -48.849751 -135.90892)"><g stroke-width=".352778"><path d="m134.21655 147.38198c.008-.15741.28766-.79758.62118-1.42259l.60639-1.13639 1.54235.91975c1.10389.65828 1.40367.99393 1.05452 1.18069-.76384.40858-3.84092.77751-3.82444.45854z" fill="#273839"/><path d="m80.050371 147.31458-1.058334-.22693 1.276362-.78967c1.663148-1.02896 1.933237-.99841 2.374943.26867.352002 1.00975.325249 1.05642-.582851 1.01659-.523483-.023-1.428037-.14385-2.01012-.26866z" fill="#273839"/><path d="m128.02108 149.65961c-.72978-1.18044-6.52717-4.64198-15.61855-9.3256l-3.98396-2.05243.055-3.97135c.0345-2.49022.19241-3.97136.42347-3.97136.90182 0 24.65613 14.15795 24.49275 14.59806-1.13575 3.05946-1.13171 3.01781-.36725 3.78226.71598.71599.78922.71936 3.71633.17086 3.44689-.64589 3.81291-.67012 3.81291-.25248 0 .16887-2.26219.65892-5.02708 1.089-2.7649.43008-5.42396.85031-5.90903.93384-.69734.12009-1.03111-.0894-1.59457-1.0008z" fill="#273839"/><path d="m82.872593 150.05829c-4.305889-.66655-6.558117-1.30165-4.791397-1.3511.469176-.0131 1.861367.15172 3.093758.36633 2.767456.48193 3.423061.1165 3.196363-1.78165-.0824-.68991-.263339-1.50998-.40209-1.82236-.199343-.44881.806446-1.19999 4.793599-3.58014 2.77523-1.65668 7.58588-4.54909 10.69032-6.42756 3.104454-1.87847 5.922264-3.56705 6.261814-3.75241.57145-.31196.6172-.041.61524 3.64414l-.002 3.98116-8.496904 4.90513c-5.69631 3.28838-8.62119 5.17787-8.87395 5.73264-.4397.96503-.40794.96459-6.084623.0858z" fill="#273839"/><path d="m103.5101 153.27829c-.87313-.1373-3.889384-.60395-6.702784-1.037s-5.24107-.90948-5.39481-1.05873c-.39056-.37915-.14252-.54322 6.98231-4.61871 3.492504-1.99775 6.707194-3.86451 7.143754-4.14836l.79375-.5161v5.86141c0 6.5656.28609 6.00629-2.82222 5.51749z" fill="#273839"/><path d="m108.65688 153.7125c-.30744-.30744-.25291-12.37117.0567-12.54111.272-.1493 16.53884 8.65201 17.18482 9.298.57086.57086-.26917.88756-3.62541 1.36681-1.68535.24065-4.81052.72777-6.94483 1.08247-5.54221.92107-6.4375 1.02761-6.67127.79383z" fill="#273839"/><path d="m119.48613 157.21863c-1.59366-.89268-2.84096-1.67965-2.77177-1.74884.0692-.0692 3.03997-.57964 6.60174-1.13432 3.56177-.55469 7.90469-1.24524 9.65094-1.53457 4.65193-.77075 6.34393-.99481 6.16037-.81577-.0897.0875-2.5444 1.14644-5.45482 2.35316-2.91041 1.20673-6.35926 2.72989-7.66411 3.38481-1.30484.65492-2.65421 1.17452-2.99861 1.15467-.34439-.0199-1.93007-.76647-3.52374-1.65914z" fill="#4b5354" fill-opacity=".5"/><path d="m85.694816 155.78682c-9.562195-4.26222-9.706046-4.32929-8.819445-4.1124.388055.0949 2.769305.48913 5.291666.87599 7.461489 1.1444 17.971203 2.87401 18.071213 2.97402.0965.0965-6.411754 3.74999-6.648104 3.73201-.0738-.006-3.62672-1.56694-7.89533-3.46962z" fill="#4b5354" fill-opacity=".5"/><path d="m104.80362 161.85368c-.12936-.12935-.23519-1.43903-.23519-2.91041v-2.67523h3.70417 3.70416v2.91041 2.91042h-3.46898c-1.90794 0-3.57481-.10583-3.70416-.23519z" fill="#273839"/><path d="m76.404844 167.52802c1.73423-2.41487 4.769197-5.67379 7.05693-7.57766 1.911672-1.59091 2.094212-1.66658 3.102252-1.28609.58909.22236 1.06998.48854 1.06866.59153-.001.10298-.58107.58141-1.28832 1.06318s-2.650848 2.2355-4.319115 3.89717c-2.45152 2.44182-5.795196 4.92828-6.627345 4.92828-.08463 0 .36849-.72739 1.006938-1.61641z" fill="#4b5354" fill-opacity=".5"/><path d="m141.90193 169.05203c-1.18853-.67844-2.71386-2.00189-3.75611-3.25899-1.66414-2.00721-5.45548-5.38442-7.3194-6.51991-1.11565-.67964-1.08189-.91774.19314-1.36222.95742-.33376 1.23841-.22565 3.15177 1.21265 2.53462 1.90531 6.3534 5.93914 8.43143 8.90625.83702 1.19512 1.47202 2.17106 1.41112 2.16875-.0609-.002-1.01128-.51826-2.11195-1.14653z" fill="#4b5354" fill-opacity=".5"/><path d="m59.060094 178.01059c0-.16834.483696-1.77383 1.07488-3.56778 1.327917-4.02955 3.681571-8.79359 6.223577-12.59716 2.203519-3.29709 7.414746-9.03459 7.921459-8.72142.186034.11498-.905036 1.50437-2.424601 3.08754-4.874217 5.07824-9.125348 12.24337-11.283119 19.01731-.540666 1.69732-1.102092 3.08638-1.247612 3.0868-.145521.00036-.264584-.13696-.264584-.30529z" fill="#4b5354" fill-opacity=".5"/><path d="m158.915 178.05209c-1.64817-7.49174-6.50344-16.00117-12.91851-22.64117-2.07519-2.14795-3.55057-3.90536-3.27862-3.90536.74232 0 6.284 5.776 8.68409 9.05128 3.54558 4.83849 7.54191 13.50619 8.39165 18.2008.38964 2.1527-.38701 1.52902-.87861-.70555z" fill="#4b5354" fill-opacity=".5"/><path d="m64.351761 180.11237c0-1.03595 2.373546-7.29426 3.869028-10.20144 2.276927-4.42628 4.625267-7.66011 8.17796-11.26162 2.567174-2.60246 3.666599-3.30702 4.25002-2.7236.102753.10276-.998675 1.33307-2.447617 2.73403-5.28498 5.10997-9.796865 12.35625-11.744033 18.86142-.658872 2.20118-1.020797 2.90907-1.487997 2.91041-.339549.001-.617361-.14267-.617361-.3192z" fill="#4b5354" fill-opacity=".5"/><path d="m152.78745 179.52197c-1.80517-7.52614-6.56006-15.42804-12.79249-21.25915-2.71881-2.54374-2.93602-2.84026-2.24201-3.06053.63481-.20148 1.28715.2688 3.75082 2.70399 4.13507 4.08728 6.87357 7.86555 9.29606 12.82567 2.45376 5.02412 4.20778 10.67721 3.45993 11.15107-.76953.48759-.80127.43669-1.47231-2.36105z" fill="#4b5354" fill-opacity=".5"/><path d="m70.613566 182.6596c-.721396-.18852-.777416-1.24744-.144465-2.73074l.441073-1.03365.627334 1.64265c.345034.90346.526897 1.80516.40414 2.00379-.232487.37617-.312722.38329-1.328082.11795z" fill="#4b5354" fill-opacity=".5"/><path d="m146.81174 183.16736c-.0936-.63059-.0841-2.4959.0209-4.14514l.19103-2.99861.65122 2.11667c1.22565 3.98373 1.47275 5.52211.9411 5.85897-.99447.6301-1.63092.33665-1.80428-.83189z" fill="#4b5354" fill-opacity=".5"/><path d="m65.410094 185.31695c-4.947708-1.93871-9.710208-3.79526-10.583333-4.12566-1.138153-.43069-1.619408-.82269-1.70023-1.3849-.08464-.58876.06483-.78417.599841-.78417.915015 0 19.851143 7.0186 20.349865 7.54259.206726.2172.56051.83148.786187 1.36505.31935.75506.314231.9637-.02309.94108-.238373-.016-4.481532-1.61528-9.42924-3.55399z" fill="#4b5354" fill-opacity=".5"/><path d="m141.61009 189.65721c0-.71286.89566-1.15143 5.82084-2.85019 2.71639-.93692 7.39951-2.59495 10.40694-3.68453 5.37668-1.94794 6.70278-2.28067 6.70278-1.68177 0 .16601-4.96094 2.0947-11.02431 4.28598-6.06336 2.19128-11.22274 4.05682-11.46527 4.14564-.24254.0888-.44098-.008-.44098-.21513z" fill="#4b5354" fill-opacity=".5"/><path d="m80.808937 191.45522c-.106717-.17267-.80945-.51705-1.56163-.7653-1.362937-.44981-1.37623-.47265-3.89824-6.69771-1.391852-3.4355-2.53064-6.6514-2.53064-7.14644 0-1.68187.447467-4.17354.749506-4.17354.165455 0 3.596689-1.84599 7.624965-4.10218 4.028278-2.2562 10.689628-5.98683 14.803008-8.29028 4.113384-2.30346 7.566204-4.1881 7.672924-4.1881.40978 0 .18167 4.15684-.24693 4.49974-.24253.19405-6.120394 3.4066-13.061914 7.13902-6.941518 3.73241-12.772231 7.06889-12.957142 7.4144-.18491.34551-.43953 1.50737-.565821 2.58191-.215755 1.83574-.0874 2.30915 2.125697 7.84053 1.295424 3.23775 2.284426 5.95772 2.197781 6.04436-.08664.0866-.244848.0163-.351564-.15641z" fill="#273839"/><path d="m82.34036 197.98403c-.0017-.43656-.09071-1.66688-.197825-2.73403l-.194757-1.94028 1.036057 2.46945c.724748 1.72744.91669 2.54732.638796 2.72863-.747271.48753-1.279204.27025-1.282271-.52377z" fill="#273839"/><path d="m133.23162 199.09869c-.43656-.164-.79375-.37262-.79375-.4636 0-.091 1.84345-4.41645 4.09654-9.61214l4.09654-9.44671-.37747-2.27798c-.20761-1.25289-.58262-2.47376-.83335-2.71305s-6.28993-3.50324-13.42045-7.25323l-12.96458-6.81817v-2.21107c0-1.21609.0927-2.21107.20592-2.21107.11326 0 7.07823 3.75149 15.47771 8.33664l15.27179 8.33664.44178 3.08214.44178 3.08215-2.99254 5.95552c-2.85312 5.67807-3.06474 5.99076-4.54241 6.71188-2.20256 1.07489-2.35269 1.28004-2.60081 3.55407-.1224 1.12176-.33288 2.53605-.46775 3.14286-.21486.96676-.34342 1.06639-1.03895.80512z" fill="#273839"/><path d="m83.153906 206.82924c-.007-.25671-.132164-1.92096-.278216-3.69834l-.265549-3.2316 2.006528-.63251c1.423617-.44875 2.170837-.52885 2.572137-.27572.45885.28944 3.10458 5.85731 2.82123 5.93722-.045.0127-1.35189.47269-2.90411 1.02219-3.967951 1.40469-3.937927 1.39801-3.95202.87876z" fill="#273839"/><path d="m129.6822 206.79194c-3.76781-1.65593-3.69636-1.42613-1.64166-5.28015 1.40055-2.62701 1.50041-2.66719 4.22094-1.69851 1.49066.53076 1.7541.75877 1.70068 1.47196-.0348.46415-.16808 2.23297-.29625 3.93071-.12817 1.69775-.33785 3.0717-.46596 3.05324-.1281-.0185-1.71109-.68323-3.51775-1.47725z" fill="#273839"/><path d="m83.084958 216.56866c.04321-4.1728.1916-7.46187.329748-7.30904.138149.15282.752499 1.59571 1.365223 3.20642 1.042957 2.74169 1.107687 3.17841 1.014467 6.84432l-.0996 3.91577-1.344216.46472-1.344212.46472z" fill="#4b5354" fill-opacity=".5"/><path d="m88.604676 225.78572c-.38872-.28424-.60759-.89322-.59189-1.64685l.0249-1.19583.68802 1.55073c.77567 1.74831.75819 1.93486-.12105 1.29195z" fill="#4b5354" fill-opacity=".5"/><path d="m131.46773 226.19094-1.85208-1.09884v-3.58417c0-3.25422.11577-3.88898 1.25763-6.89536.6917-1.82116 1.4216-3.74776 1.62201-4.28134s.49316-.97014.65056-.97014.30691 4.04813.33226 8.99584c.0254 4.9477.0001 8.98166-.0561 8.96434-.0562-.0173-.93563-.52597-1.95428-1.13033z" fill="#4b5354" fill-opacity=".5"/><path d="m126.44065 227.53468c0-.0818.18423-.55307.40941-1.04727.43905-.96363 1.22047-1.27194.86306-.34052-.11778.30691-.21414.6868-.21414.8442s-.23812.37756-.52916.48924c-.29104.11169-.52917.13614-.52917.0543z" fill="#4b5354" fill-opacity=".5"/><path d="m101.45025 196.78296c-5.044984-11.81196-6.034024-14.39792-5.644454-14.75801.2598-.24012 3.19478-1.82947 6.522204-3.53188l6.04984-3.09529 5.59182 3.44942c3.0755 1.89717 5.80722 3.64811 6.07048 3.89096.39869.36779.1463 1.19924-1.51087 4.97738-1.09424 2.49471-3.84218 8.78239-6.10653 13.97264-2.26435 5.19024-4.2832 9.43216-4.48634 9.4265-.20315-.006-3.12191-6.45494-6.48615-14.33172z" fill="#273839"/></g><path d="m409.74609 640.42188-37.59765 20.00585c-20.67821 11.00387-37.78306 20.91289-38.01172 22.01954-.3292 1.59337 11.9378 31.57046 25.71289 62.83789.96922 2.19998 4.57346 10.60128 8.00977 18.66796 3.43627 8.06665 7.32499 17.06668 8.64257 20 1.31762 2.93337 4.92339 11.33272 8.01172 18.66602 4.49919 10.68352 7.10675 14.85698 13.11914 21 4.12702 4.21667 8.51634 7.66602 9.75391 7.66602s6.12393-3.14999 10.85937-7l8.60938-7 13.11133-28.66602c7.21149-15.76668 16.29318-35.45152 20.18164-43.74414 3.88845-8.29262 7.07031-15.27411 7.07031-15.51562 0-.24148 2.92287-6.6566 6.49414-14.25586 9.9637-21.20149 12.5373-27.61312 11.82422-29.45704-.36011-.93123-17.56028-11.48778-38.22266-23.45898zm.0899 20.14453 11.3164 7.02734c29.17486 18.11429 36.06913 23.02765 35.66211 25.42383-.3123 1.83855-25.20651 59.6579-36.85547 85.60156-.98781 2.20003-3.15999 7.30066-4.82812 11.33398-1.6681 4.03337-3.60473 8.08336-4.30274 9-2.20667 2.89803-5.01406 1.81425-6.91796-2.66796-1.01239-2.38334-11.73777-27.35242-23.83204-55.48828-12.09427-28.13587-21.71452-51.83524-21.3789-52.66602.33581-.83082 11.98031-7.37271 25.875-14.53711z" fill="#4b5354" fill-opacity=".5" stroke-width="1.33333" transform="scale(.26458333)"/><path d="m427.76562 617.38086c-.639.0284-1.18638.20023-1.7246.48828-3.58727 1.91993-31.18262 1.85649-33.11524-.0762-1.39763-1.39763-25.06604 10.66298-80.37305 40.95703l-12.66601 6.93945-1.0625 6.46485c-1.01161 6.16403-.44513 7.98764 12.125 39.1289l13.18359 32.66407 4.80664.78125c2.64352.42965 5.68861 1.51239 6.76563 2.40625 2.3094 1.91663 11.51367 24.3528 11.51367 28.06445 0 1.40836-1.56509 3.79179-3.47852 5.29687l-3.47851 2.73633 14.93359 35.02735 14.93164 35.02539 17.91016 15.66796c9.85047 8.61665 18.54226 15.66602 19.31445 15.66602.7722 0 9.3557-6.55334 19.07422-14.5625l17.66992-14.56055 9.49414-21.10547c5.2221-11.60753 12.4459-27.74311 16.05274-35.85742l6.55859-14.7539-3.1582-2.8125c-1.73669-1.54689-3.15625-3.66009-3.15625-4.69727 0-2.89221 12.63473-28.07712 15.12109-30.14062 1.20779-1.00233 3.64647-1.54568 5.41797-1.20703 3.01111.57562 3.79042-.69543 11.96289-19.50977 4.80809-11.06903 11.46166-26.35392 14.78711-33.9668 5.44207-12.4583 5.94483-14.45698 5.02734-20l-1.01953-6.16015-13.3164-7.03907c-7.32352-3.87171-23.81509-12.50005-36.64844-19.17382-12.83331-6.67378-27.65232-14.49329-32.93164-17.37696-5.85547-3.19838-8.60447-4.39978-10.52149-4.31445zm-18.11132 17.9043c2.30581 0 7.05059 1.71335 10.54492 3.80664 3.49436 2.09325 20.61282 12.05043 38.04101 22.12695 17.4282 10.07652 32.27819 19.42475 33 20.77344 2.15093 4.01907 1.54861 6.68073-4.51171 19.96093-3.17915 6.96669-14.02906 30.66603-24.11133 52.66602-10.08223 22.00003-20.78367 45.4-23.78125 52-6.73334 14.82524-6.21498 14.14859-18.03711 23.56445-5.92634 4.72014-11.04056 7.76953-13.03321 7.76953-3.58919 0-19.77477-13.95654-23.11523-19.93164-4.08518-7.30718-57.43164-132.85133-57.43164-135.1582 0-4.25405 6.80101-9.44522 24.66797-18.83398 9.53333-5.00954 25.48661-13.52616 35.45312-18.92578 11.58679-6.27746 19.63383-9.81836 22.31446-9.81836z" fill="#273839" stroke-width="1.33333" transform="scale(.26458333)"/><path d="m91.515646 233.67175c-1.84326-.78124-3.55895-1.51122-3.81263-1.62218-.25369-.11096-.37275-.43237-.26459-.71424.10817-.28188.19667-.56748.19667-.63467 0-.0672 1.26692.4476 2.81539 1.14399 2.56407 1.15313 5.62562 3.23556 4.76933 3.24404-.19403.002-1.8609-.6357-3.70417-1.41694z" fill="#4b5354" fill-opacity=".5" stroke-width=".352778"/><path d="m120.26704 235.30168c.58208-.47686 2.09021-1.21207 3.35139-1.63379s2.72962-.98735 3.26319-1.25695c.9031-.45632.97014-.43994.97014.23696 0 .82242-1.54541 1.598-5.57593 2.79834-3.10422.92448-3.29681.91062-2.00879-.14456z" fill="#4b5354" fill-opacity=".5" stroke-width=".352778"/><path d="m69.290649 218.7097c0-.097-.07937-.17639-.176389-.17639-.09701 0-.176389.0794-.176389.17639 0 .097.07937.17639.176389.17639.09701 0 .176389-.0794.176389-.17639z" stroke-width=".352778"/><path d="m67.331944 235.28243c-.50023-1.13111-1.598348-4.0527-2.440263-6.49242-.841914-2.43973-2.118576-5.94399-2.837026-7.78725-.718451-1.84327-1.746455-4.62139-2.284455-6.17361-1.267679-3.65748-4.441517-12.00503-6.438254-16.93333-1.988764-4.90864-3.532189-9.54786-3.382883-10.16826.06336-.26328 2.873391 3.0011 6.244516 7.25416l6.129316 7.73283 3.181296 7.7416c3.25126 7.91184 4.594041 10.39362 2.05556 3.79915-4.753454-12.34852-4.308157-11.45234-8.203235-16.50946-2.006296-2.60484-4.877145-6.28184-6.379666-8.17111l-2.731855-3.43504.226327-2.16537c.187785-1.79664.322585-2.12686.791578-1.93912.310888.12444 1.755875.67192 3.211084 1.21662 1.455208.54469 4.947707 1.89593 7.76111 3.00275 2.813403 1.10681 5.457186 2.14508 5.875075 2.30726.749859.29101.730275.384-1.496992 7.10748-2.031954 6.1339-2.217698 6.93123-1.86441 8.00325.215809.65485 2.911901 7.46949 5.991314 15.14364 3.079414 7.67415 5.560864 13.98503 5.514334 14.02417-.310103.26085-6.511291 3.68461-6.673648 3.68461-.111351 0-.733145-1.36429-1.381764-3.03177-1.447603-3.72149-1.787279-3.31547-.488616.58406.521153 1.56488.853842 2.93895.739309 3.05348s-.617522-.71721-1.117752-1.84832z" fill="#4b5354" fill-opacity=".5" stroke-width=".352778"/><path d="m148.19528 219.35646c-.12935-.12935-.23519-.0235-.23519.23519 0 .2587.10584.36453.23519.23518s.12935-.34102 0-.47037z" stroke-width=".352778"/><path d="m147.6384 238.85549c-.31677-.38168-.20105-.95402.51714-2.55764 2.04762-4.57206 1.92649-4.81165-.34874-.68981l-1.43421 2.59823-2.99689-1.71743c-1.64829-.94459-3.04978-1.87609-3.11442-2.07002-.0646-.19392.75297-2.37905 1.8169-4.85585s3.93386-9.14459 6.37761-14.81731c2.44376-5.67273 4.44476-10.59398 4.44668-10.93611.002-.34214-.8115-3.6848-1.80759-7.42813-.9961-3.74333-1.75173-6.85876-1.67919-6.92316.40807-.36228 18.05029-6.53342 18.27713-6.39322.15004.0927.37609 1.08634.50233 2.20802.12624 1.12169.2914 2.35692.36703 2.74498.10342.53068-1.64334 2.49804-7.04747 7.9375l-7.18498 7.23194-3.03597 7.70417c-1.66979 4.23729-2.96578 7.77437-2.87997 7.86017.0858.0858 1.15304-2.26981 2.37163-5.23472 1.21859-2.9649 2.69378-6.54848 3.27819-7.96352.65723-1.59131 1.47887-2.91611 2.15384-3.47279.60019-.495 3.53665-3.306 6.52546-6.24665 2.98882-2.94066 5.30733-5.02916 5.15226-4.6411-.15508.38805-.87428 2.29305-1.59823 4.23333s-2.10332 5.43278-3.06526 7.76111c-.96195 2.32833-2.514 6.13833-3.44901 8.46667-.93501 2.32833-3.03675 7.48771-4.67053 11.46528-1.63379 3.97756-3.59871 8.89881-4.3665 10.93611-2.08457 5.53131-2.26673 5.8127-3.10724 4.79995z" fill="#4b5354" fill-opacity=".5" stroke-width=".352778"/><path d="m79.541929 236.61317c-.435433-1.69774-3.564479-10.02805-6.953435-18.51179l-6.161739-15.425 2.003868-6.18264c1.102128-3.40046 2.155343-6.18265 2.340478-6.18265.752958 0 7.89708 2.94195 8.26838 3.40492.220121.27447.515097 1.88283.655501 3.57414.140405 1.69131.345918 3.39261.456696 3.78066.155119.54339.368779 38.62901.216709 38.62914-.01912.00002-.391025-1.38903-.826458-3.08678z" fill="#273839" stroke-width=".352778"/><path d="m135.83806 238.28887c.16719-1.84326.25512-9.60611.19541-17.25077-.0848-10.85886.0106-14.91033.43633-18.52083.51151-4.33819.82382-7.07453.88182-7.72626.0308-.346 1.39248-.92317 6.35101-2.69198l3.82482-1.36439 1.62743 6.08357c.89509 3.34596 1.62744 6.40852 1.62744 6.80568 0 .6678-1.39614 4.00798-9.69701 23.1997-1.67843 3.88056-3.53897 8.72243-4.13453 10.75972s-1.15796 3.78354-1.24977 3.88056c-.0918.097-.0301-1.33174.13705-3.175z" fill="#273839" stroke-width=".352778"/><path d="m106.15593 241.75843c-.38806-.21424-2.45181-2.07608-4.58611-4.13742-2.134314-2.06133-4.958754-4.69902-6.276564-5.86154l-2.39599-2.11366-2.94406-8.46666c-1.61922-4.65667-3.35884-9.48622-3.8658-10.73235-.50697-1.24613-.92176-2.37158-.92176-2.50101 0-.24798 1.59375-1.05414 2.08399-1.05414.15779 0 2.1598 4.40531 4.44891 9.78958 2.2891 5.38427 4.49409 10.16379 4.89997 10.62114 1.72435 1.94304 10.512114 9.22261 11.133364 9.22261.62638 0 2.55784-1.45351 9.03036-6.79576l2.46344-2.03326 3.06482-6.78618c1.68565-3.73241 3.75112-8.31413 4.58994-10.18161l1.52513-3.39542 1.31059.52274c.72083.2875 1.3106.65134 1.3106.80853s-.33354 1.05303-.7412 1.99074c-.40767.93772-1.75317 4.60416-2.99001 8.14764-3.29549 9.4414-4.18932 11.21469-6.70518 13.30264-1.14797.95271-3.11909 2.70862-4.38027 3.90202-4.61444 4.36642-7.01588 6.16312-8.22216 6.15164-.61955-.006-1.44395-.18602-1.83201-.40027z" fill="#273839" stroke-width=".352778"/><path d="m97.666986 241.65087c-3.96521-.91819-10.43019-3.31732-10.63954-3.9483-.0748-.22545 1.4768.22321 3.44799.99701 3.21096 1.26049 10.138204 3.10555 11.690924 3.11387.3281.002.69465.16195.81457.35597.34197.55333-1.43301.38012-5.313944-.51855z" fill="#4b5354" fill-opacity=".5" stroke-width=".352778"/><path d="m112.09953 242.60896c.11789-.19076 1.31104-.45489 2.65143-.58697 3.06015-.30154 9.15794-1.6727 11.62222-2.6134 1.1753-.44865 1.82131-.56042 1.73454-.3001-.20039.60118-3.066 1.59591-7.31151 2.53803-4.33645.96229-9.0167 1.48024-8.69668.96244z" fill="#4b5354" fill-opacity=".5" stroke-width=".352778"/><path d="m83.280062 239.11504c-.127094-2.65006-.231081-6.8414-.231081-9.31411v-4.49582l1.115539-.38887c.613547-.21389 1.191756-.31266 1.284916-.21951.15479.1548-.806497 14.21823-1.212411 17.73728-.329432 2.85598-.726936 1.47735-.956963-3.31897z" fill="#4b5354" fill-opacity=".5" stroke-width=".352778"/><path d="m130.92499 246.13817c-.0789-.14552-.1757-1.21708-.21518-2.38125-.0395-1.16416-.22101-4.65666-.40342-7.76111-.18241-3.10444-.33307-6.48055-.33481-7.50247l-.003-1.85802 1.7236.87341c2.19538 1.11249 2.21957 1.2951 1.4001 10.5661-.34483 3.90126-.63311 7.37102-.64061 7.71057-.0135.61141-1.23353.89335-1.52653.35277z" fill="#4b5354" fill-opacity=".5" stroke-width=".352778"/><path d="m74.662485 243.81359-5.821539-5.76415 3.802776-2.182c2.091526-1.20009 3.864901-2.11985 3.940834-2.04392.323698.3237 4.336058 15.75424 4.096529 15.75424-.108384 0-2.816754-2.59388-6.0186-5.76417z" fill="#4b5354" fill-opacity=".5" stroke-width=".352778"/><path d="m135.00019 250.90067c.0926-.24253.83112-2.66347 1.64116-5.37986s1.8043-6.05014 2.20945-7.40833c.40516-1.35819.7877-2.52842.8501-2.6005.0972-.11225 2.95458 1.46168 7.08149 3.90063l1.11536.65916-1.82091 1.716c-3.6316 3.42235-10.64759 9.54503-10.94268 9.5494-.16628.002-.22657-.19396-.13397-.4365z" fill="#4b5354" fill-opacity=".5" stroke-width=".352778"/></g></svg>