<?xml version="1.0" encoding="UTF-8" standalone="no"?>
<svg
   xmlns:dc="http://purl.org/dc/elements/1.1/"
   xmlns:cc="http://creativecommons.org/ns#"
   xmlns:rdf="http://www.w3.org/1999/02/22-rdf-syntax-ns#"
   xmlns:svg="http://www.w3.org/2000/svg"
   xmlns="http://www.w3.org/2000/svg"
   xmlns:sodipodi="http://sodipodi.sourceforge.net/DTD/sodipodi-0.dtd"
   xmlns:inkscape="http://www.inkscape.org/namespaces/inkscape"
   width="512"
   height="512"
   viewBox="0 0 135.46667 135.46667"
   version="1.1"
   id="svg8"
   inkscape:version="1.0.1 (3bc2e813f5, 2020-09-07)"
   sodipodi:docname="Seer Ability 03.svg">
  <defs
     id="defs2" />
  <sodipodi:namedview
     id="base"
     pagecolor="#ffffff"
     bordercolor="#666666"
     borderopacity="1.0"
     inkscape:pageopacity="0.0"
     inkscape:pageshadow="2"
     inkscape:zoom="0.98994949"
     inkscape:cx="219.58426"
     inkscape:cy="257.73498"
     inkscape:document-units="mm"
     inkscape:current-layer="layer1"
     inkscape:document-rotation="0"
     showgrid="false"
     units="px"
     inkscape:window-width="1366"
     inkscape:window-height="705"
     inkscape:window-x="-8"
     inkscape:window-y="-8"
     inkscape:window-maximized="1" />
  <metadata
     id="metadata5">
    <rdf:RDF>
      <cc:Work
         rdf:about="">
        <dc:format>image/svg+xml</dc:format>
        <dc:type
           rdf:resource="http://purl.org/dc/dcmitype/StillImage" />
        <dc:title></dc:title>
      </cc:Work>
    </rdf:RDF>
  </metadata>
  <g
     inkscape:label="Layer 1"
     inkscape:groupmode="layer"
     id="layer1">
    <g
       id="g1139"
       transform="matrix(1.0670947,0,0,1.0670947,-48.849751,-135.90892)">
      <path
         style="fill:#273839;fill-opacity:1;stroke-width:0.352778"
         d="m 134.21655,147.38198 c 0.008,-0.15741 0.28766,-0.79758 0.62118,-1.42259 l 0.60639,-1.13639 1.54235,0.91975 c 1.10389,0.65828 1.40367,0.99393 1.05452,1.18069 -0.76384,0.40858 -3.84092,0.77751 -3.82444,0.45854 z"
         id="path1041" />
      <path
         style="fill:#273839;fill-opacity:1;stroke-width:0.352778"
         d="m 80.050371,147.31458 -1.058334,-0.22693 1.276362,-0.78967 c 1.663148,-1.02896 1.933237,-0.99841 2.374943,0.26867 0.352002,1.00975 0.325249,1.05642 -0.582851,1.01659 -0.523483,-0.023 -1.428037,-0.14385 -2.01012,-0.26866 z"
         id="path1039" />
      <path
         style="fill:#273839;fill-opacity:1;stroke-width:0.352778"
         d="m 128.02108,149.65961 c -0.72978,-1.18044 -6.52717,-4.64198 -15.61855,-9.3256 l -3.98396,-2.05243 0.055,-3.97135 c 0.0345,-2.49022 0.19241,-3.97136 0.42347,-3.97136 0.90182,0 24.65613,14.15795 24.49275,14.59806 -1.13575,3.05946 -1.13171,3.01781 -0.36725,3.78226 0.71598,0.71599 0.78922,0.71936 3.71633,0.17086 3.44689,-0.64589 3.81291,-0.67012 3.81291,-0.25248 0,0.16887 -2.26219,0.65892 -5.02708,1.089 -2.7649,0.43008 -5.42396,0.85031 -5.90903,0.93384 -0.69734,0.12009 -1.03111,-0.0894 -1.59457,-1.0008 z"
         id="path1037" />
      <path
         style="fill:#273839;fill-opacity:1;stroke-width:0.352778"
         d="m 82.872593,150.05829 c -4.305889,-0.66655 -6.558117,-1.30165 -4.791397,-1.3511 0.469176,-0.0131 1.861367,0.15172 3.093758,0.36633 2.767456,0.48193 3.423061,0.1165 3.196363,-1.78165 -0.0824,-0.68991 -0.263339,-1.50998 -0.40209,-1.82236 -0.199343,-0.44881 0.806446,-1.19999 4.793599,-3.58014 2.77523,-1.65668 7.58588,-4.54909 10.69032,-6.42756 3.104454,-1.87847 5.922264,-3.56705 6.261814,-3.75241 0.57145,-0.31196 0.6172,-0.041 0.61524,3.64414 l -0.002,3.98116 -8.496904,4.90513 c -5.69631,3.28838 -8.62119,5.17787 -8.87395,5.73264 -0.4397,0.96503 -0.40794,0.96459 -6.084623,0.0858 z"
         id="path1035" />
      <path
         style="fill:#273839;fill-opacity:1;stroke-width:0.352778"
         d="m 103.5101,153.27829 c -0.87313,-0.1373 -3.889384,-0.60395 -6.702784,-1.037 -2.8134,-0.43305 -5.24107,-0.90948 -5.39481,-1.05873 -0.39056,-0.37915 -0.14252,-0.54322 6.98231,-4.61871 3.492504,-1.99775 6.707194,-3.86451 7.143754,-4.14836 l 0.79375,-0.5161 v 5.86141 c 0,6.5656 0.28609,6.00629 -2.82222,5.51749 z"
         id="path1033" />
      <path
         style="fill:#273839;fill-opacity:1;stroke-width:0.352778"
         d="m 108.65688,153.7125 c -0.30744,-0.30744 -0.25291,-12.37117 0.0567,-12.54111 0.272,-0.1493 16.53884,8.65201 17.18482,9.298 0.57086,0.57086 -0.26917,0.88756 -3.62541,1.36681 -1.68535,0.24065 -4.81052,0.72777 -6.94483,1.08247 -5.54221,0.92107 -6.4375,1.02761 -6.67127,0.79383 z"
         id="path1031" />
      <path
         style="fill:#4b5354;fill-opacity:0.5;stroke-width:0.352778"
         d="m 119.48613,157.21863 c -1.59366,-0.89268 -2.84096,-1.67965 -2.77177,-1.74884 0.0692,-0.0692 3.03997,-0.57964 6.60174,-1.13432 3.56177,-0.55469 7.90469,-1.24524 9.65094,-1.53457 4.65193,-0.77075 6.34393,-0.99481 6.16037,-0.81577 -0.0897,0.0875 -2.5444,1.14644 -5.45482,2.35316 -2.91041,1.20673 -6.35926,2.72989 -7.66411,3.38481 -1.30484,0.65492 -2.65421,1.17452 -2.99861,1.15467 -0.34439,-0.0199 -1.93007,-0.76647 -3.52374,-1.65914 z"
         id="path1029" />
      <path
         style="fill:#4b5354;fill-opacity:0.5;stroke-width:0.352778"
         d="m 85.694816,155.78682 c -9.562195,-4.26222 -9.706046,-4.32929 -8.819445,-4.1124 0.388055,0.0949 2.769305,0.48913 5.291666,0.87599 7.461489,1.1444 17.971203,2.87401 18.071213,2.97402 0.0965,0.0965 -6.411754,3.74999 -6.648104,3.73201 -0.0738,-0.006 -3.62672,-1.56694 -7.89533,-3.46962 z"
         id="path1027" />
      <path
         style="fill:#273839;fill-opacity:1;stroke-width:0.352778"
         d="m 104.80362,161.85368 c -0.12936,-0.12935 -0.23519,-1.43903 -0.23519,-2.91041 v -2.67523 h 3.70417 3.70416 v 2.91041 2.91042 h -3.46898 c -1.90794,0 -3.57481,-0.10583 -3.70416,-0.23519 z"
         id="path1025" />
      <path
         style="fill:#4b5354;fill-opacity:0.5;stroke-width:0.352778"
         d="m 76.404844,167.52802 c 1.73423,-2.41487 4.769197,-5.67379 7.05693,-7.57766 1.911672,-1.59091 2.094212,-1.66658 3.102252,-1.28609 0.58909,0.22236 1.06998,0.48854 1.06866,0.59153 -0.001,0.10298 -0.58107,0.58141 -1.28832,1.06318 -0.70725,0.48177 -2.650848,2.2355 -4.319115,3.89717 -2.45152,2.44182 -5.795196,4.92828 -6.627345,4.92828 -0.08463,0 0.36849,-0.72739 1.006938,-1.61641 z"
         id="path1023" />
      <path
         style="fill:#4b5354;fill-opacity:0.5;stroke-width:0.352778"
         d="m 141.90193,169.05203 c -1.18853,-0.67844 -2.71386,-2.00189 -3.75611,-3.25899 -1.66414,-2.00721 -5.45548,-5.38442 -7.3194,-6.51991 -1.11565,-0.67964 -1.08189,-0.91774 0.19314,-1.36222 0.95742,-0.33376 1.23841,-0.22565 3.15177,1.21265 2.53462,1.90531 6.3534,5.93914 8.43143,8.90625 0.83702,1.19512 1.47202,2.17106 1.41112,2.16875 -0.0609,-0.002 -1.01128,-0.51826 -2.11195,-1.14653 z"
         id="path1021" />
      <path
         style="fill:#4b5354;fill-opacity:0.5;stroke-width:0.352778"
         d="m 59.060094,178.01059 c 0,-0.16834 0.483696,-1.77383 1.07488,-3.56778 1.327917,-4.02955 3.681571,-8.79359 6.223577,-12.59716 2.203519,-3.29709 7.414746,-9.03459 7.921459,-8.72142 0.186034,0.11498 -0.905036,1.50437 -2.424601,3.08754 -4.874217,5.07824 -9.125348,12.24337 -11.283119,19.01731 -0.540666,1.69732 -1.102092,3.08638 -1.247612,3.0868 -0.145521,3.6e-4 -0.264584,-0.13696 -0.264584,-0.30529 z"
         id="path1019" />
      <path
         style="fill:#4b5354;fill-opacity:0.5;stroke-width:0.352778"
         d="m 158.915,178.05209 c -1.64817,-7.49174 -6.50344,-16.00117 -12.91851,-22.64117 -2.07519,-2.14795 -3.55057,-3.90536 -3.27862,-3.90536 0.74232,0 6.284,5.776 8.68409,9.05128 3.54558,4.83849 7.54191,13.50619 8.39165,18.2008 0.38964,2.1527 -0.38701,1.52902 -0.87861,-0.70555 z"
         id="path1017" />
      <path
         style="fill:#4b5354;fill-opacity:0.5;stroke-width:0.352778"
         d="m 64.351761,180.11237 c 0,-1.03595 2.373546,-7.29426 3.869028,-10.20144 2.276927,-4.42628 4.625267,-7.66011 8.17796,-11.26162 2.567174,-2.60246 3.666599,-3.30702 4.25002,-2.7236 0.102753,0.10276 -0.998675,1.33307 -2.447617,2.73403 -5.28498,5.10997 -9.796865,12.35625 -11.744033,18.86142 -0.658872,2.20118 -1.020797,2.90907 -1.487997,2.91041 -0.339549,0.001 -0.617361,-0.14267 -0.617361,-0.3192 z"
         id="path1015" />
      <path
         style="fill:#4b5354;fill-opacity:0.5;stroke-width:0.352778"
         d="m 152.78745,179.52197 c -1.80517,-7.52614 -6.56006,-15.42804 -12.79249,-21.25915 -2.71881,-2.54374 -2.93602,-2.84026 -2.24201,-3.06053 0.63481,-0.20148 1.28715,0.2688 3.75082,2.70399 4.13507,4.08728 6.87357,7.86555 9.29606,12.82567 2.45376,5.02412 4.20778,10.67721 3.45993,11.15107 -0.76953,0.48759 -0.80127,0.43669 -1.47231,-2.36105 z"
         id="path1013" />
      <path
         style="fill:#4b5354;fill-opacity:0.5;stroke-width:0.352778"
         d="m 70.613566,182.6596 c -0.721396,-0.18852 -0.777416,-1.24744 -0.144465,-2.73074 l 0.441073,-1.03365 0.627334,1.64265 c 0.345034,0.90346 0.526897,1.80516 0.40414,2.00379 -0.232487,0.37617 -0.312722,0.38329 -1.328082,0.11795 z"
         id="path1011" />
      <path
         style="fill:#4b5354;fill-opacity:0.5;stroke-width:0.352778"
         d="m 146.81174,183.16736 c -0.0936,-0.63059 -0.0841,-2.4959 0.0209,-4.14514 l 0.19103,-2.99861 0.65122,2.11667 c 1.22565,3.98373 1.47275,5.52211 0.9411,5.85897 -0.99447,0.6301 -1.63092,0.33665 -1.80428,-0.83189 z"
         id="path1009" />
      <path
         style="fill:#4b5354;fill-opacity:0.5;stroke-width:0.352778"
         d="m 65.410094,185.31695 c -4.947708,-1.93871 -9.710208,-3.79526 -10.583333,-4.12566 -1.138153,-0.43069 -1.619408,-0.82269 -1.70023,-1.3849 -0.08464,-0.58876 0.06483,-0.78417 0.599841,-0.78417 0.915015,0 19.851143,7.0186 20.349865,7.54259 0.206726,0.2172 0.56051,0.83148 0.786187,1.36505 0.31935,0.75506 0.314231,0.9637 -0.02309,0.94108 -0.238373,-0.016 -4.481532,-1.61528 -9.42924,-3.55399 z"
         id="path1007" />
      <path
         style="fill:#4b5354;fill-opacity:0.5;stroke-width:0.352778"
         d="m 141.61009,189.65721 c 0,-0.71286 0.89566,-1.15143 5.82084,-2.85019 2.71639,-0.93692 7.39951,-2.59495 10.40694,-3.68453 5.37668,-1.94794 6.70278,-2.28067 6.70278,-1.68177 0,0.16601 -4.96094,2.0947 -11.02431,4.28598 -6.06336,2.19128 -11.22274,4.05682 -11.46527,4.14564 -0.24254,0.0888 -0.44098,-0.008 -0.44098,-0.21513 z"
         id="path1005" />
      <path
         style="fill:#273839;fill-opacity:1;stroke-width:0.352778"
         d="m 80.808937,191.45522 c -0.106717,-0.17267 -0.80945,-0.51705 -1.56163,-0.7653 -1.362937,-0.44981 -1.37623,-0.47265 -3.89824,-6.69771 -1.391852,-3.4355 -2.53064,-6.6514 -2.53064,-7.14644 0,-1.68187 0.447467,-4.17354 0.749506,-4.17354 0.165455,0 3.596689,-1.84599 7.624965,-4.10218 4.028278,-2.2562 10.689628,-5.98683 14.803008,-8.29028 4.113384,-2.30346 7.566204,-4.1881 7.672924,-4.1881 0.40978,0 0.18167,4.15684 -0.24693,4.49974 -0.24253,0.19405 -6.120394,3.4066 -13.061914,7.13902 -6.941518,3.73241 -12.772231,7.06889 -12.957142,7.4144 -0.18491,0.34551 -0.43953,1.50737 -0.565821,2.58191 -0.215755,1.83574 -0.0874,2.30915 2.125697,7.84053 1.295424,3.23775 2.284426,5.95772 2.197781,6.04436 -0.08664,0.0866 -0.244848,0.0163 -0.351564,-0.15641 z"
         id="path1003" />
      <path
         style="fill:#273839;fill-opacity:1;stroke-width:0.352778"
         d="m 82.34036,197.98403 c -0.0017,-0.43656 -0.09071,-1.66688 -0.197825,-2.73403 l -0.194757,-1.94028 1.036057,2.46945 c 0.724748,1.72744 0.91669,2.54732 0.638796,2.72863 -0.747271,0.48753 -1.279204,0.27025 -1.282271,-0.52377 z"
         id="path1001" />
      <path
         style="fill:#273839;fill-opacity:1;stroke-width:0.352778"
         d="m 133.23162,199.09869 c -0.43656,-0.164 -0.79375,-0.37262 -0.79375,-0.4636 0,-0.091 1.84345,-4.41645 4.09654,-9.61214 l 4.09654,-9.44671 -0.37747,-2.27798 c -0.20761,-1.25289 -0.58262,-2.47376 -0.83335,-2.71305 -0.25073,-0.23929 -6.28993,-3.50324 -13.42045,-7.25323 l -12.96458,-6.81817 v -2.21107 c 0,-1.21609 0.0927,-2.21107 0.20592,-2.21107 0.11326,0 7.07823,3.75149 15.47771,8.33664 l 15.27179,8.33664 0.44178,3.08214 0.44178,3.08215 -2.99254,5.95552 c -2.85312,5.67807 -3.06474,5.99076 -4.54241,6.71188 -2.20256,1.07489 -2.35269,1.28004 -2.60081,3.55407 -0.1224,1.12176 -0.33288,2.53605 -0.46775,3.14286 -0.21486,0.96676 -0.34342,1.06639 -1.03895,0.80512 z"
         id="path999" />
      <path
         style="fill:#273839;fill-opacity:1;stroke-width:0.352778"
         d="m 83.153906,206.82924 c -0.007,-0.25671 -0.132164,-1.92096 -0.278216,-3.69834 l -0.265549,-3.2316 2.006528,-0.63251 c 1.423617,-0.44875 2.170837,-0.52885 2.572137,-0.27572 0.45885,0.28944 3.10458,5.85731 2.82123,5.93722 -0.045,0.0127 -1.35189,0.47269 -2.90411,1.02219 -3.967951,1.40469 -3.937927,1.39801 -3.95202,0.87876 z"
         id="path997" />
      <path
         style="fill:#273839;fill-opacity:1;stroke-width:0.352778"
         d="m 129.6822,206.79194 c -3.76781,-1.65593 -3.69636,-1.42613 -1.64166,-5.28015 1.40055,-2.62701 1.50041,-2.66719 4.22094,-1.69851 1.49066,0.53076 1.7541,0.75877 1.70068,1.47196 -0.0348,0.46415 -0.16808,2.23297 -0.29625,3.93071 -0.12817,1.69775 -0.33785,3.0717 -0.46596,3.05324 -0.1281,-0.0185 -1.71109,-0.68323 -3.51775,-1.47725 z"
         id="path995" />
      <path
         style="fill:#4b5354;fill-opacity:0.5;stroke-width:0.352778"
         d="m 83.084958,216.56866 c 0.04321,-4.1728 0.1916,-7.46187 0.329748,-7.30904 0.138149,0.15282 0.752499,1.59571 1.365223,3.20642 1.042957,2.74169 1.107687,3.17841 1.014467,6.84432 l -0.0996,3.91577 -1.344216,0.46472 -1.344212,0.46472 z"
         id="path993" />
      <path
         style="fill:#4b5354;fill-opacity:0.5;stroke-width:0.352778"
         d="m 88.604676,225.78572 c -0.38872,-0.28424 -0.60759,-0.89322 -0.59189,-1.64685 l 0.0249,-1.19583 0.68802,1.55073 c 0.77567,1.74831 0.75819,1.93486 -0.12105,1.29195 z"
         id="path991" />
      <path
         style="fill:#4b5354;fill-opacity:0.5;stroke-width:0.352778"
         d="m 131.46773,226.19094 -1.85208,-1.09884 v -3.58417 c 0,-3.25422 0.11577,-3.88898 1.25763,-6.89536 0.6917,-1.82116 1.4216,-3.74776 1.62201,-4.28134 0.20041,-0.53358 0.49316,-0.97014 0.65056,-0.97014 0.1574,0 0.30691,4.04813 0.33226,8.99584 0.0254,4.9477 1e-4,8.98166 -0.0561,8.96434 -0.0562,-0.0173 -0.93563,-0.52597 -1.95428,-1.13033 z"
         id="path989" />
      <path
         style="fill:#4b5354;fill-opacity:0.5;stroke-width:0.352778"
         d="m 126.44065,227.53468 c 0,-0.0818 0.18423,-0.55307 0.40941,-1.04727 0.43905,-0.96363 1.22047,-1.27194 0.86306,-0.34052 -0.11778,0.30691 -0.21414,0.6868 -0.21414,0.8442 0,0.1574 -0.23812,0.37756 -0.52916,0.48924 -0.29104,0.11169 -0.52917,0.13614 -0.52917,0.0543 z"
         id="path987" />
      <path
         style="fill:#273839;fill-opacity:1;stroke-width:0.352778"
         d="m 101.45025,196.78296 c -5.044984,-11.81196 -6.034024,-14.39792 -5.644454,-14.75801 0.2598,-0.24012 3.19478,-1.82947 6.522204,-3.53188 l 6.04984,-3.09529 5.59182,3.44942 c 3.0755,1.89717 5.80722,3.64811 6.07048,3.89096 0.39869,0.36779 0.1463,1.19924 -1.51087,4.97738 -1.09424,2.49471 -3.84218,8.78239 -6.10653,13.97264 -2.26435,5.19024 -4.2832,9.43216 -4.48634,9.4265 -0.20315,-0.006 -3.12191,-6.45494 -6.48615,-14.33172 z"
         id="path985" />
      <path
         id="path981"
         style="fill:#4b5354;fill-opacity:0.5;stroke-width:1.33333"
         d="m 409.74609,640.42188 -37.59765,20.00585 c -20.67821,11.00387 -37.78306,20.91289 -38.01172,22.01954 -0.3292,1.59337 11.9378,31.57046 25.71289,62.83789 0.96922,2.19998 4.57346,10.60128 8.00977,18.66796 3.43627,8.06665 7.32499,17.06668 8.64257,20 1.31762,2.93337 4.92339,11.33272 8.01172,18.66602 4.49919,10.68352 7.10675,14.85698 13.11914,21 4.12702,4.21667 8.51634,7.66602 9.75391,7.66602 1.23757,0 6.12393,-3.14999 10.85937,-7 l 8.60938,-7 13.11133,-28.66602 c 7.21149,-15.76668 16.29318,-35.45152 20.18164,-43.74414 3.88845,-8.29262 7.07031,-15.27411 7.07031,-15.51562 0,-0.24148 2.92287,-6.6566 6.49414,-14.25586 9.9637,-21.20149 12.5373,-27.61312 11.82422,-29.45704 -0.36011,-0.93123 -17.56028,-11.48778 -38.22266,-23.45898 z m 0.0899,20.14453 11.3164,7.02734 c 29.17486,18.11429 36.06913,23.02765 35.66211,25.42383 -0.3123,1.83855 -25.20651,59.6579 -36.85547,85.60156 -0.98781,2.20003 -3.15999,7.30066 -4.82812,11.33398 -1.6681,4.03337 -3.60473,8.08336 -4.30274,9 -2.20667,2.89803 -5.01406,1.81425 -6.91796,-2.66796 -1.01239,-2.38334 -11.73777,-27.35242 -23.83204,-55.48828 -12.09427,-28.13587 -21.71452,-51.83524 -21.3789,-52.66602 0.33581,-0.83082 11.98031,-7.37271 25.875,-14.53711 z"
         transform="scale(0.26458333)" />
      <path
         id="path977"
         style="fill:#273839;fill-opacity:1;stroke-width:1.33333"
         d="m 427.76562,617.38086 c -0.639,0.0284 -1.18638,0.20023 -1.7246,0.48828 -3.58727,1.91993 -31.18262,1.85649 -33.11524,-0.0762 -1.39763,-1.39763 -25.06604,10.66298 -80.37305,40.95703 l -12.66601,6.93945 -1.0625,6.46485 c -1.01161,6.16403 -0.44513,7.98764 12.125,39.1289 l 13.18359,32.66407 4.80664,0.78125 c 2.64352,0.42965 5.68861,1.51239 6.76563,2.40625 2.3094,1.91663 11.51367,24.3528 11.51367,28.06445 0,1.40836 -1.56509,3.79179 -3.47852,5.29687 l -3.47851,2.73633 14.93359,35.02735 14.93164,35.02539 17.91016,15.66796 c 9.85047,8.61665 18.54226,15.66602 19.31445,15.66602 0.7722,0 9.3557,-6.55334 19.07422,-14.5625 l 17.66992,-14.56055 9.49414,-21.10547 c 5.2221,-11.60753 12.4459,-27.74311 16.05274,-35.85742 l 6.55859,-14.7539 -3.1582,-2.8125 c -1.73669,-1.54689 -3.15625,-3.66009 -3.15625,-4.69727 0,-2.89221 12.63473,-28.07712 15.12109,-30.14062 1.20779,-1.00233 3.64647,-1.54568 5.41797,-1.20703 3.01111,0.57562 3.79042,-0.69543 11.96289,-19.50977 4.80809,-11.06903 11.46166,-26.35392 14.78711,-33.9668 5.44207,-12.4583 5.94483,-14.45698 5.02734,-20 l -1.01953,-6.16015 -13.3164,-7.03907 c -7.32352,-3.87171 -23.81509,-12.50005 -36.64844,-19.17382 -12.83331,-6.67378 -27.65232,-14.49329 -32.93164,-17.37696 -5.85547,-3.19838 -8.60447,-4.39978 -10.52149,-4.31445 z m -18.11132,17.9043 c 2.30581,0 7.05059,1.71335 10.54492,3.80664 3.49436,2.09325 20.61282,12.05043 38.04101,22.12695 17.4282,10.07652 32.27819,19.42475 33,20.77344 2.15093,4.01907 1.54861,6.68073 -4.51171,19.96093 -3.17915,6.96669 -14.02906,30.66603 -24.11133,52.66602 -10.08223,22.00003 -20.78367,45.4 -23.78125,52 -6.73334,14.82524 -6.21498,14.14859 -18.03711,23.56445 -5.92634,4.72014 -11.04056,7.76953 -13.03321,7.76953 -3.58919,0 -19.77477,-13.95654 -23.11523,-19.93164 -4.08518,-7.30718 -57.43164,-132.85133 -57.43164,-135.1582 0,-4.25405 6.80101,-9.44522 24.66797,-18.83398 9.53333,-5.00954 25.48661,-13.52616 35.45312,-18.92578 11.58679,-6.27746 19.63383,-9.81836 22.31446,-9.81836 z"
         transform="scale(0.26458333)" />
      <path
         style="fill:#4b5354;fill-opacity:0.5;stroke-width:0.352778"
         d="m 91.515646,233.67175 c -1.84326,-0.78124 -3.55895,-1.51122 -3.81263,-1.62218 -0.25369,-0.11096 -0.37275,-0.43237 -0.26459,-0.71424 0.10817,-0.28188 0.19667,-0.56748 0.19667,-0.63467 0,-0.0672 1.26692,0.4476 2.81539,1.14399 2.56407,1.15313 5.62562,3.23556 4.76933,3.24404 -0.19403,0.002 -1.8609,-0.6357 -3.70417,-1.41694 z"
         id="path975" />
      <path
         style="fill:#4b5354;fill-opacity:0.5;stroke-width:0.352778"
         d="m 120.26704,235.30168 c 0.58208,-0.47686 2.09021,-1.21207 3.35139,-1.63379 1.26118,-0.42172 2.72962,-0.98735 3.26319,-1.25695 0.9031,-0.45632 0.97014,-0.43994 0.97014,0.23696 0,0.82242 -1.54541,1.598 -5.57593,2.79834 -3.10422,0.92448 -3.29681,0.91062 -2.00879,-0.14456 z"
         id="path973" />
      <path
         style="fill:#000000;stroke-width:0.352778"
         d="m 69.290649,218.7097 c 0,-0.097 -0.07937,-0.17639 -0.176389,-0.17639 -0.09701,0 -0.176389,0.0794 -0.176389,0.17639 0,0.097 0.07937,0.17639 0.176389,0.17639 0.09701,0 0.176389,-0.0794 0.176389,-0.17639 z"
         id="path971" />
      <path
         style="fill:#4b5354;fill-opacity:0.5;stroke-width:0.352778"
         d="m 67.331944,235.28243 c -0.50023,-1.13111 -1.598348,-4.0527 -2.440263,-6.49242 -0.841914,-2.43973 -2.118576,-5.94399 -2.837026,-7.78725 -0.718451,-1.84327 -1.746455,-4.62139 -2.284455,-6.17361 -1.267679,-3.65748 -4.441517,-12.00503 -6.438254,-16.93333 -1.988764,-4.90864 -3.532189,-9.54786 -3.382883,-10.16826 0.06336,-0.26328 2.873391,3.0011 6.244516,7.25416 l 6.129316,7.73283 3.181296,7.7416 c 3.25126,7.91184 4.594041,10.39362 2.05556,3.79915 C 62.806297,201.90678 63.251594,202.80296 59.356516,197.74584 57.35022,195.141 54.479371,191.464 52.97685,189.57473 l -2.731855,-3.43504 0.226327,-2.16537 c 0.187785,-1.79664 0.322585,-2.12686 0.791578,-1.93912 0.310888,0.12444 1.755875,0.67192 3.211084,1.21662 1.455208,0.54469 4.947707,1.89593 7.76111,3.00275 2.813403,1.10681 5.457186,2.14508 5.875075,2.30726 0.749859,0.29101 0.730275,0.384 -1.496992,7.10748 -2.031954,6.1339 -2.217698,6.93123 -1.86441,8.00325 0.215809,0.65485 2.911901,7.46949 5.991314,15.14364 3.079414,7.67415 5.560864,13.98503 5.514334,14.02417 -0.310103,0.26085 -6.511291,3.68461 -6.673648,3.68461 -0.111351,0 -0.733145,-1.36429 -1.381764,-3.03177 -1.447603,-3.72149 -1.787279,-3.31547 -0.488616,0.58406 0.521153,1.56488 0.853842,2.93895 0.739309,3.05348 -0.114533,0.11453 -0.617522,-0.71721 -1.117752,-1.84832 z"
         id="path969" />
      <path
         style="fill:#000000;stroke-width:0.352778"
         d="m 148.19528,219.35646 c -0.12935,-0.12935 -0.23519,-0.0235 -0.23519,0.23519 0,0.2587 0.10584,0.36453 0.23519,0.23518 0.12935,-0.12935 0.12935,-0.34102 0,-0.47037 z"
         id="path967" />
      <path
         style="fill:#4b5354;fill-opacity:0.5;stroke-width:0.352778"
         d="m 147.6384,238.85549 c -0.31677,-0.38168 -0.20105,-0.95402 0.51714,-2.55764 2.04762,-4.57206 1.92649,-4.81165 -0.34874,-0.68981 l -1.43421,2.59823 -2.99689,-1.71743 c -1.64829,-0.94459 -3.04978,-1.87609 -3.11442,-2.07002 -0.0646,-0.19392 0.75297,-2.37905 1.8169,-4.85585 1.06393,-2.4768 3.93386,-9.14459 6.37761,-14.81731 2.44376,-5.67273 4.44476,-10.59398 4.44668,-10.93611 0.002,-0.34214 -0.8115,-3.6848 -1.80759,-7.42813 -0.9961,-3.74333 -1.75173,-6.85876 -1.67919,-6.92316 0.40807,-0.36228 18.05029,-6.53342 18.27713,-6.39322 0.15004,0.0927 0.37609,1.08634 0.50233,2.20802 0.12624,1.12169 0.2914,2.35692 0.36703,2.74498 0.10342,0.53068 -1.64334,2.49804 -7.04747,7.9375 l -7.18498,7.23194 -3.03597,7.70417 c -1.66979,4.23729 -2.96578,7.77437 -2.87997,7.86017 0.0858,0.0858 1.15304,-2.26981 2.37163,-5.23472 1.21859,-2.9649 2.69378,-6.54848 3.27819,-7.96352 0.65723,-1.59131 1.47887,-2.91611 2.15384,-3.47279 0.60019,-0.495 3.53665,-3.306 6.52546,-6.24665 2.98882,-2.94066 5.30733,-5.02916 5.15226,-4.6411 -0.15508,0.38805 -0.87428,2.29305 -1.59823,4.23333 -0.72395,1.94028 -2.10332,5.43278 -3.06526,7.76111 -0.96195,2.32833 -2.514,6.13833 -3.44901,8.46667 -0.93501,2.32833 -3.03675,7.48771 -4.67053,11.46528 -1.63379,3.97756 -3.59871,8.89881 -4.3665,10.93611 -2.08457,5.53131 -2.26673,5.8127 -3.10724,4.79995 z"
         id="path965" />
      <path
         style="fill:#273839;fill-opacity:1;stroke-width:0.352778"
         d="m 79.541929,236.61317 c -0.435433,-1.69774 -3.564479,-10.02805 -6.953435,-18.51179 l -6.161739,-15.425 2.003868,-6.18264 c 1.102128,-3.40046 2.155343,-6.18265 2.340478,-6.18265 0.752958,0 7.89708,2.94195 8.26838,3.40492 0.220121,0.27447 0.515097,1.88283 0.655501,3.57414 0.140405,1.69131 0.345918,3.39261 0.456696,3.78066 0.155119,0.54339 0.368779,38.62901 0.216709,38.62914 -0.01912,2e-5 -0.391025,-1.38903 -0.826458,-3.08678 z"
         id="path963" />
      <path
         style="fill:#273839;fill-opacity:1;stroke-width:0.352778"
         d="m 135.83806,238.28887 c 0.16719,-1.84326 0.25512,-9.60611 0.19541,-17.25077 -0.0848,-10.85886 0.0106,-14.91033 0.43633,-18.52083 0.51151,-4.33819 0.82382,-7.07453 0.88182,-7.72626 0.0308,-0.346 1.39248,-0.92317 6.35101,-2.69198 l 3.82482,-1.36439 1.62743,6.08357 c 0.89509,3.34596 1.62744,6.40852 1.62744,6.80568 0,0.6678 -1.39614,4.00798 -9.69701,23.1997 -1.67843,3.88056 -3.53897,8.72243 -4.13453,10.75972 -0.59556,2.03729 -1.15796,3.78354 -1.24977,3.88056 -0.0918,0.097 -0.0301,-1.33174 0.13705,-3.175 z"
         id="path961" />
      <path
         style="fill:#273839;fill-opacity:1;stroke-width:0.352778"
         d="m 106.15593,241.75843 c -0.38806,-0.21424 -2.45181,-2.07608 -4.58611,-4.13742 -2.134314,-2.06133 -4.958754,-4.69902 -6.276564,-5.86154 l -2.39599,-2.11366 -2.94406,-8.46666 c -1.61922,-4.65667 -3.35884,-9.48622 -3.8658,-10.73235 -0.50697,-1.24613 -0.92176,-2.37158 -0.92176,-2.50101 0,-0.24798 1.59375,-1.05414 2.08399,-1.05414 0.15779,0 2.1598,4.40531 4.44891,9.78958 2.2891,5.38427 4.49409,10.16379 4.89997,10.62114 1.72435,1.94304 10.512114,9.22261 11.133364,9.22261 0.62638,0 2.55784,-1.45351 9.03036,-6.79576 l 2.46344,-2.03326 3.06482,-6.78618 c 1.68565,-3.73241 3.75112,-8.31413 4.58994,-10.18161 l 1.52513,-3.39542 1.31059,0.52274 c 0.72083,0.2875 1.3106,0.65134 1.3106,0.80853 0,0.15719 -0.33354,1.05303 -0.7412,1.99074 -0.40767,0.93772 -1.75317,4.60416 -2.99001,8.14764 -3.29549,9.4414 -4.18932,11.21469 -6.70518,13.30264 -1.14797,0.95271 -3.11909,2.70862 -4.38027,3.90202 -4.61444,4.36642 -7.01588,6.16312 -8.22216,6.15164 -0.61955,-0.006 -1.44395,-0.18602 -1.83201,-0.40027 z"
         id="path959" />
      <path
         style="fill:#4b5354;fill-opacity:0.5;stroke-width:0.352778"
         d="m 97.666986,241.65087 c -3.96521,-0.91819 -10.43019,-3.31732 -10.63954,-3.9483 -0.0748,-0.22545 1.4768,0.22321 3.44799,0.99701 3.21096,1.26049 10.138204,3.10555 11.690924,3.11387 0.3281,0.002 0.69465,0.16195 0.81457,0.35597 0.34197,0.55333 -1.43301,0.38012 -5.313944,-0.51855 z"
         id="path957" />
      <path
         style="fill:#4b5354;fill-opacity:0.5;stroke-width:0.352778"
         d="m 112.09953,242.60896 c 0.11789,-0.19076 1.31104,-0.45489 2.65143,-0.58697 3.06015,-0.30154 9.15794,-1.6727 11.62222,-2.6134 1.1753,-0.44865 1.82131,-0.56042 1.73454,-0.3001 -0.20039,0.60118 -3.066,1.59591 -7.31151,2.53803 -4.33645,0.96229 -9.0167,1.48024 -8.69668,0.96244 z"
         id="path955" />
      <path
         style="fill:#4b5354;fill-opacity:0.5;stroke-width:0.352778"
         d="m 83.280062,239.11504 c -0.127094,-2.65006 -0.231081,-6.8414 -0.231081,-9.31411 v -4.49582 l 1.115539,-0.38887 c 0.613547,-0.21389 1.191756,-0.31266 1.284916,-0.21951 0.15479,0.1548 -0.806497,14.21823 -1.212411,17.73728 -0.329432,2.85598 -0.726936,1.47735 -0.956963,-3.31897 z"
         id="path953" />
      <path
         style="fill:#4b5354;fill-opacity:0.5;stroke-width:0.352778"
         d="m 130.92499,246.13817 c -0.0789,-0.14552 -0.1757,-1.21708 -0.21518,-2.38125 -0.0395,-1.16416 -0.22101,-4.65666 -0.40342,-7.76111 -0.18241,-3.10444 -0.33307,-6.48055 -0.33481,-7.50247 l -0.003,-1.85802 1.7236,0.87341 c 2.19538,1.11249 2.21957,1.2951 1.4001,10.5661 -0.34483,3.90126 -0.63311,7.37102 -0.64061,7.71057 -0.0135,0.61141 -1.23353,0.89335 -1.52653,0.35277 z"
         id="path951" />
      <path
         style="fill:#4b5354;fill-opacity:0.5;stroke-width:0.352778"
         d="m 74.662485,243.81359 -5.821539,-5.76415 3.802776,-2.182 c 2.091526,-1.20009 3.864901,-2.11985 3.940834,-2.04392 0.323698,0.3237 4.336058,15.75424 4.096529,15.75424 -0.108384,0 -2.816754,-2.59388 -6.0186,-5.76417 z"
         id="path949" />
      <path
         style="fill:#4b5354;fill-opacity:0.5;stroke-width:0.352778"
         d="m 135.00019,250.90067 c 0.0926,-0.24253 0.83112,-2.66347 1.64116,-5.37986 0.81004,-2.71639 1.8043,-6.05014 2.20945,-7.40833 0.40516,-1.35819 0.7877,-2.52842 0.8501,-2.6005 0.0972,-0.11225 2.95458,1.46168 7.08149,3.90063 l 1.11536,0.65916 -1.82091,1.716 c -3.6316,3.42235 -10.64759,9.54503 -10.94268,9.5494 -0.16628,0.002 -0.22657,-0.19396 -0.13397,-0.4365 z"
         id="path849" />
    </g>
  </g>
</svg>
