<svg height="512" viewBox="0 0 135.46666 135.46667" width="512" xmlns="http://www.w3.org/2000/svg"><g fill="#273839" transform="matrix(.95813276 0 0 .95813276 2.366482 2.734487)"><g transform="matrix(14.29942626435 0 0 13.51819102649 -2423.24609253927 -1312.28457278303)"><path d="m658.42253 371.47962-3.49554 2.27442v5.39465l-2.69838 1.44184v3.31368l-1.15029.68415v-8.3267l-4.03144 2.48051v14.01185l11.37565 7.7773 11.33919-7.7773v-14.01185l-4.17419-2.48051v8.3267l-1.04065-.68415v-3.31368l-2.75912-1.44184v-5.39465zm0 7.1459 4.54398 5.91217h-2.10165v4.73712h5.31782v3.41464l-7.76015 5.2876-7.34421-4.9917v-3.65824h5.02388l-.002-5.07711h-1.85027z" transform="scale(.26458333)"/><path d="m172.56004 103.3498.00026.46914 1.64732 1.09066 1.69903-1.10796v-.45183l-1.36867-.00001v-1.8706l.28729.00046-.61765-.9095-.5933.90904h.3569l-.0165 1.8706z" fill-opacity=".5"/></g><g fill-opacity=".5"><path d="m14.078422 61.412v-24.742621l22.87159-14.125195v-9.354433l-31.2438076 19.176588v29.045661z"/><path d="m122.36791 61.572307v-24.742621l-22.871591-14.125195v-9.354433l31.243811 19.176588v29.045661z"/><path d="m14.212663 75.004369v24.742619l22.87159 14.125192v9.35444l-31.2438097-19.17659v-29.045661z"/><path d="m122.21114 75.239918v24.742623l-22.871592 14.125199v9.35443l31.243812-19.17659v-29.045662z"/></g><path d="m42.664062 116.40013v3.3569l25.158938 15.4613 24.785891-15.29449v-3.50792l-24.785891 15.52836z"/><path d="m42.478725 19.278031v-3.3569l25.158938-15.46129902 24.785891 15.29448902v3.50792l-24.785891-15.528359z"/></g></svg>