<svg height="512" viewBox="0 0 135.46667 135.46667" width="512" xmlns="http://www.w3.org/2000/svg"><path d="m52.788258 178.77124c7.059535-4.6635 6.946247-4.59641 6.190241-3.66525-.865675 1.06624-10.342372 7.32335-11.091586 7.32335-.349912 0 1.855692-1.64614 4.901345-3.6581zm116.403122.3625c-2.69574-1.81258-5.83634-4.08395-6.97909-5.04753-3.25559-2.74513-3.15238-2.68396 10.38339 6.15391 2.33855 1.52689 3.05689 2.17627 2.41334 2.18162-.50396.005-3.12191-1.47542-5.81764-3.288zm-22.41432 2.08018c-.71868-.43821-2.38751-2.16724-3.70852-3.84225s-3.16871-3.88696-4.10597-4.91544c-3.31939-3.64241-5.5232-6.82476-5.25343-7.58603.19801-.55873 1.81357 1.13864 6.90102 7.25053 8.2067 9.85925 8.2337 9.89341 7.81539 9.8915-.18799-.00082-.92982-.36009-1.64849-.79831zm-71.583923.10107c.258179-.7174 13.837413-17.12075 14.194736-17.14688.550657-.0402.331975 1.58629-.259532 1.93042-.314162.18278-1.713431 1.73477-3.10949 3.4489-6.769211 8.31145-9.074423 10.98357-9.994622 11.58535-.557941.36489-.925864.44554-.831092.18221zm-14.78204-2.6378c.275993-.44658 7.501218-5.34559 10.38109-7.03884 2.276009-1.33822 1.570659-.7001-3.581496 3.24006-4.491075 3.43459-7.673269 5.21242-6.799594 3.79878zm97.889503-2.06378c-1.84819-1.37034-3.36035-2.59685-3.36035-2.72556 0-.29181.32986-.0971 4.02293 2.37511 1.64123 1.09867 3.10148 2.18757 3.245 2.41979.6116.98962-.76571.26022-3.90758-2.06934zm-52.69137-2.34963c-.96304-.34107-2.2379-1.21453-2.833-1.94104-2.30716-2.81663-5.124703-7.51327-5.571333-9.28703-.25735-1.02203-.89791-2.54619-1.42346-3.38703-2.083416-3.3332-4.486207-9.3807-6.716338-16.90399-3.849797-12.98723-6.522962-20.99137-7.370336-22.0686-.439395-.55861-1.886135-1.75397-3.214976-2.65639-3.133848-2.12815-4.155459-3.45454-4.155459-5.39516 0-1.77483 2.716984-9.54456 3.578578-10.2336.785814-.62845.754731-.75475-.669757-2.721197-1.072095-1.47999-1.246638-2.08861-1.246638-4.347 0-1.77641.24694-3.06711.763234-3.98922.419776-.74974 1.000863-1.80917 1.291301-2.35429.416417-.78155.605146-.86942.892588-.41554.224656.35473.36696.39059.370883.0934.0033-.26517.737864-1.407549 1.631924-2.538617 1.788723-2.2629 3.607717-3.004688 7.368024-3.004688 1.479498 0 1.85767-.119159 1.503198-.473632-.277013-.277013-2.035013-.492632-4.234872-.51943-4.262326-.05195-4.6271-.5003-1.312564-1.61344l2.193176-.736545 4.570691 1.268638c7.113403 1.974403 9.181776 3.275528 11.720216 7.372624 1.35429 2.18584 2.53902 2.41166 2.18004.41555-.13359-.74279-.36295-2.130645-.50971-3.084105l-.26682-1.733577 1.56214.537041c1.31119.450767 1.83911 1.029589 3.28652 3.603531.94842 1.68657 1.98857 3.0665 2.31143 3.0665.32288 0 1.36302-1.37993 2.31144-3.0665 1.44742-2.573942 1.97531-3.152764 3.28653-3.603531l1.56214-.537041-.26682 1.733577c-.14676.95346-.37612 2.341315-.50971 3.084105-.35899 1.99611.82575 1.77029 2.18003-.41555 2.53845-4.097096 4.60682-5.398221 11.72022-7.372624l4.57069-1.268638 2.19318.736545c3.31454 1.11314 2.94976 1.561541-1.31257 1.61344-2.19986.02674-3.95785.242417-4.23487.51943-.35447.354473.0237.473632 1.5032.473632 3.76031 0 5.57931.741788 7.36803 3.004688.89406 1.131068 1.62841 2.273447 1.63191 2.538617.004.29713.14623.26128.37088-.0934.28745-.45388.47618-.36601.8926.41554.29043.54512.87152 1.60455 1.2913 2.35429 1.3774 2.46009.93786 7.62768-.82888 9.744887-.41549.49793-.47159.88175-.18219 1.24664.86866 1.09532 3.4365 8.82241 3.4365 10.34107 0 1.88279-1.57176 3.90139-4.27662 5.49245-.96185.56578-2.1941 1.50543-2.73836 2.0881-1.09208 1.16914-3.30539 7.54131-6.94849 20.00475-1.27705 4.36897-3.11244 9.56577-4.10929 11.63528-.99081 2.05696-1.93329 4.20742-2.0944 4.77879-.1611.57138-.53793 1.31935-.8374 1.66217-.29947.34283-1.0156 2.06659-1.5914 3.83059-.97405 2.98404-3.31813 7.05168-5.854 10.15834-.62421.76471-1.88245 1.5905-3.0075 1.97384-2.47679.84393-8.80907.8289-11.22483-.0266zm1.26373-6.65313c.15101-.15101-.14506-.48378-.65795-.73946-1.58117-.78831-1.12631-1.64001 1.13168-2.11905l2.06419-.43792-4.24786-1.81384c-2.33634-.99762-4.36317-1.69854-4.50407-1.55764-.27912.27912 1.43697 3.43722 3.03865 5.59197.94094 1.26583 2.46803 1.78328 3.17536 1.07594zm12.04528-1.07594c1.60168-2.15475 3.31778-5.31285 3.03866-5.59197-.14092-.1409-2.16776.56002-4.5041 1.55764l-4.24786 1.81384 2.0642.43792c2.258.47904 2.71286 1.33074 1.13167 2.11905-1.07589.53638-.80973 1.01403.56509 1.01403.5871 0 1.33092-.51454 1.95234-1.35051zm-6.18606-5.28676c.58455-.22225 3.40165-1.92415 6.26023-3.782 4.26955-2.77487 5.19743-3.55589 5.19743-4.37471 0-.61004-.2424-.99677-.62482-.99677-.5253 0-.61897-.84381-.58815-5.29819.0202-2.91404-.064-5.57873-.18702-5.92155-.12303-.34282-.42823-2.77376-.67822-5.4021-.46425-4.88066-1.38159-7.73178-3.19715-9.93668-1.07289-1.30299-4.31335-2.1533-6.21015-1.62956-.85856.23706-1.93427.23706-2.79283 0-1.8968-.52374-5.13725.32657-6.21015 1.62956-1.81555 2.2049-2.7329 5.05602-3.19713 9.93668-.24999 2.62834-.555213 5.05928-.678233 5.4021-.12303.34282-.20718 3.00751-.18702 5.92155.0309 4.45438-.0629 5.29819-.58816 5.29819-.3824 0-.62482.38673-.62482.99677 0 .81893.92928 1.60073 5.208403 4.38184 6.69089 4.34857 7.12026 4.52672 9.09779 3.77487zm-6.13782-4.09862c-2.70728-.73088-3.57679-1.32143-3.59099-2.43885-.004-.27533.60867-.61599 1.36038-.75701 1.75496-.32923 14.68293-.079 15.05176.29131.15357.15419.15725.66457.008 1.13416-.62933 1.98285-8.18192 3.02504-12.82938 1.77039zm-1.93517-26.88484c0-.12185.45738-1.12415 1.01638-2.22731l1.01638-2.00575h4.61596 4.61597l1.01639 2.00575c.559 1.10316 1.01638 2.10546 1.01638 2.22731 0 .12188-2.99192.2216-6.64874.2216-3.6568 0-6.64872-.0997-6.64872-.2216zm-6.753133-6.53103c1.75156-1.81227 2.123693-2.97194 1.63665-5.10032-.61697-2.6962-.16223-3.70694 2.368283-5.26387 2.08966-1.28569 2.31042-1.58263 3.39923-4.57262 1.16101-3.18827 1.82541-3.78107 1.86101-1.6605.0172 1.02111.10826.95583 1.04924-.75173l1.03047-1.86995-.3146 2.70104c-.46902 4.02703-.2639 6.25225.696 7.55059 1.26824 1.71538 1.12278 2.83806-.3677 2.83806-.9091 0-1.56091-.41984-2.60701-1.6792l-1.39481-1.67919-1.22514 1.27877c-1.46991 1.53424-1.13639 2.4679 1.11366 3.11775.79274.22897 2.04913.93053 2.79198 1.55905 1.06805.90364 1.772 1.14274 3.36459 1.14274 1.59261 0 2.29656-.2391 3.3646-1.14274.74284-.62852 1.99924-1.33008 2.79199-1.55905 2.25005-.64985 2.58356-1.58351 1.11365-3.11775l-1.22513-1.27877-1.39484 1.67919c-2.47239 2.97648-5.23608 1.89983-2.97469-1.15886.95991-1.29834 1.16502-3.52356.69599-7.55059l-.31458-2.70104 1.03046 1.86995c.94096 1.70756 1.03208 1.77284 1.04923.75173.0356-2.12057.7-1.52777 1.86102 1.6605 1.08882 2.98999 1.30957 3.28693 3.39925 4.57262 2.53669 1.56073 2.98551 2.56656 2.36165 5.29277-.49677 2.17095.017 3.58925 1.94986 5.38308 1.29824 1.20483 1.35916 1.2191 1.81668.42552.92902-1.61143 3.06207-3.49745 4.25114-3.75884.66484-.14616 2.89175-1.07599 4.9487-2.06631 2.05697-.99032 4.48791-1.92538 5.40211-2.07792 1.93867-.32349 3.38876-1.52014 3.73116-3.07908.13319-.60636-.21908-3.23502-.7828-5.8415-.75535-3.49255-1.00465-5.8073-.94779-8.800547.0734-3.85999.0359-4.05322-.75392-3.89433-.45711.092-1.71282.28139-2.79048.42095-1.87907.24334-1.96903.31667-2.19455 1.78876-.82296 5.371587-1.71897 6.619817-6.16238 8.584907-2.11787.93663-2.40597.96512-4.7903.47377-3.26-.6718-4.08969-1.45867-4.71129-4.46815-.2763-1.33772-.71645-2.432217-.97814-2.432217-.26166 0-.81423-.37399-1.2279-.83108-.41368-.45711-1.08611-.8311-1.4943-.8311-.40818 0-.85773-.187-.99898-.41555-.55642-.9003-1.03886-.33537-1.03886 1.21648 0 1.2625-.24456 1.824397-1.08009 2.481627-.99214.78043-1.19517.80153-2.49328.25913-1.22122-.51025-1.60516-.51025-2.82637 0-1.29811.5424-1.50114.5213-2.49327-.25913-.83554-.65723-1.0801-1.219127-1.0801-2.481627 0-1.55185-.48244-2.11678-1.03886-1.21648-.14124.22855-.59079.41555-.99897.41555-.4082 0-1.08063.37399-1.49431.8311-.41367.45709-.96622.83108-1.2279.83108-.26167 0-.70183 1.094497-.97813 2.432217-.621613 3.00948-1.451283 3.79635-4.711293 4.46815-2.384324.49135-2.672421.46286-4.790297-.47377-4.443424-1.96509-5.339436-3.21332-6.162375-8.584907-.225529-1.47209-.315483-1.54542-2.194552-1.78876-1.077661-.13956-2.333375-.32881-2.790474-.42053-.793025-.15915-.831338.0561-.836458 4.69758-.0041 3.656127-.243252 5.835807-.963115 8.775537-.550345 2.24748-.844294 4.36862-.691036 4.98655.429604 1.73211 1.810924 2.88594 3.814674 3.18643 1.008946.15129 3.43918 1.09393 5.400519 2.09473 1.961345 1.0008 3.868616 1.82033 4.23839 1.82119 1.171211.002 3.374564 1.61513 4.261734 3.11879.47075.79786.98775 1.45065 1.14889 1.45065s.88036-.60774 1.59826-1.35053zm3.844303-28.997727c0-.23593-.85678-1.72946-1.903973-3.31899-2.20343-3.34462-5.01091-5.974268-7.122169-6.671046-1.954744-.645127-7.021166-.294035-8.756823.606819-2.088662 1.084081-3.876836 4.410057-2.371013 4.410057.342825 0 .623319.25897.623319.57548 0 .45047.564083.53148 2.597162.37292 3.151905-.2458 7.737168.8211 12.570274 2.92483 3.601623 1.56772 4.363223 1.75971 4.363223 1.09993zm23.67536-1.20861c5.23401-2.14626 9.46706-3.09574 12.55386-2.81584 1.9025.17251 2.41656.0949 2.41656-.36478 0-.32115.28049-.58393.62331-.58393 1.50583 0-.28235-3.325976-2.37101-4.410057-1.73566-.900854-6.80207-1.251946-8.75683-.606819-2.11125.696778-4.91873 3.326426-7.12217 6.671046-1.81655 2.75735-2.24487 3.74794-1.62058 3.74794.15587 0 2.08045-.73691 4.27686-1.63756zm-23.25982-3.76455c-.26558-.49625-.57638-.80876-.69065-.69449-.11426.11426.009.61379.27511 1.11004.26558.49625.57638.80878.69064.69451.11426-.11426-.009-.6138-.2751-1.11006zm19.11513-.57439c0-.22854-.27456-.0525-.61011.39109-.33556.44365-.61011.99362-.61011 1.22218 0 .22855.27455.0525.61011-.39109.33555-.44364.61011-.99363.61011-1.22218zm-57.337058 82.588647c.01048-.45557 21.979136-14.87082 22.250045-14.59991.526329.52632-.55948 1.52963-3.682544 3.40274-3.323284 1.99319-15.644414 9.63589-17.597496 10.91561-.538063.35255-.974567.47925-.970005.28156zm90.788488-2.14457c-2.05695-1.31924-6.87207-4.32515-10.70031-6.67983-5.20382-3.20078-6.96038-4.48806-6.96038-5.10084 0-.54687.17283-.71464.51944-.50418 1.93925 1.17758 21.37492 13.99622 21.6915 14.30644.24735.24238.16976.38501-.20778.38194-.3314-.002-2.2855-1.08428-4.34247-2.40353zm-102.847617-4.44964c0-.30623 17.636207-9.06782 22.08075-10.9696 2.139981-.9157 4.919351-2.21181 6.176378-2.88024 1.257027-.66845 2.814663-1.33881 3.461412-1.4897 1.078103-.25154 1.151688-.19524.884714.67686-.16016.52316-.43593 1.22012-.612828 1.54877s-6.65238 3.14476-14.389957 6.258c-18.289527 7.35886-17.600469 7.09046-17.600469 6.85591zm102.365867-6.52358c-12.0107-4.81803-14.69094-6.03784-15.06353-6.85558-1.007-2.21014-.061-2.35734 3.28669-.51149 1.25702.69309 4.03725 2.00883 6.17828 2.92387 4.42282 1.89021 21.25794 10.2997 20.62443 10.30234-.22854.00082-6.99019-2.63568-15.02587-5.85914zm-77.957054-9.94675c.59693-.59692 4.341468-1.58137 4.856563-1.2768.211712.12518-.816764.56362-2.285503.97429-3.215976.89921-3.161337.89278-2.57106.30251zm67.703324-.2273c-1.10495-.33777-1.90839-.71474-1.78543-.83771.36339-.36339 2.9608.25243 3.82614.90712.97817.74007.56091.72588-2.04071-.0694zm-94.725948-6.59968c1.918078-.83952 30.169027-1.23301 30.835888-.4295.676439.81507-4.240803 1.08141-19.287837 1.04472-11.436224-.0279-12.732229-.097-11.548051-.61522zm93.618368.28694c0-1.10873 1.52777-1.21608 15.0526-1.05755 10.96685.12854 14.30972.29363 15.37519.75933 1.21366.53047-.36447.59877-14.53315.62899-8.86662.019-15.89464-.12734-15.89464-.33077zm-64.466369-8.14153c-.452421-.45241-13.697211-5.83334-26.538188-10.78163-3.993177-1.53877-5.751956-2.52476-5.303501-2.9732.135134-.13515 6.198844 1.93761 13.474909 4.60613 7.276065 2.66855 14.317235 5.2296 15.647041 5.69127 1.79702.62386 2.52073 1.11004 2.818582 1.89345.40824 1.07374.348954 2.01178-.09884 1.56398zm66.128559-.97194c0-1.06957 2.27661-2.10334 13.9208-6.32118 7.08505-2.56641 13.79447-5.02369 14.90979-5.46064 1.11533-.43693 2.11443-.70786 2.22024-.60206.29872.29872-1.8337 1.29661-6.77818 3.17193-6.92827 2.62774-17.77214 6.96962-20.80409 8.32997-2.84859 1.27807-3.46856 1.43572-3.46856.88198z" fill="#273839" stroke-width=".415546" transform="translate(-43.338034 -63.366707)"/></svg>