<svg height="512" viewBox="0 0 135.46667 135.46667" width="512" xmlns="http://www.w3.org/2000/svg" xmlns:xlink="http://www.w3.org/1999/xlink"><linearGradient id="a" gradientUnits="userSpaceOnUse" x1="132.06462" x2="103.476" y1="85.739067" y2="180.52888"><stop offset="0" stop-color="#273839" stop-opacity=".5"/><stop offset="1" stop-opacity="0"/></linearGradient><g transform="matrix(1.3287262 0 0 1.3287262 -82.115176 -109.909748)"><path d="m122.07618 181.82598c-.52114-.38107-.71045-1.24596-.97429-4.45123-.2486-3.01998-.48042-4.14242-.96241-4.65977-.34921-.37484-.91442-1.30133-1.25603-2.05888-.35561-.78859-1.20454-1.76346-1.98598-2.2806-1.10572-.73173-1.36488-1.11471-1.36488-2.01703 0-.85953-.36241-1.46106-1.5875-2.63489-.96843-.92793-1.5875-1.83335-1.5875-2.32182 0-.77023-2.34303-4.19253-4.95309-7.23461-.68691-.80061-1.62355-2.22004-2.08143-3.15429-1.29493-2.6422-3.57961-6.53837-4.45343-7.59463-.43548-.52641-.84968-1.1308-.92045-1.34311-.208506-.62551-1.161743-.0539-1.848309 1.10837-.46011.77891-.744418.9721-1.022025.6945-1.280051-1.28006-1.446672 1.35226-.37918 5.99042.474511 2.06171 1.165338 6.88508 1.219761 8.51638.01108.33215-.215678 1.1259-.503908 1.76389s-.634301 1.55686-.769041 2.04193c-.371338 1.33681-1.582272 2.46945-2.640158 2.46945-1.661329 0-2.905657-2.04325-2.878825-4.72718.01803-1.80244-1.71414-7.58505-2.599577-8.67838-.235702-.29104-.539507-.92604-.675122-1.41111s-.529022-1.51694-.874232-2.29305c-.345215-.77612-1.059819-2.7208-1.588016-4.32153l-.960349-2.91042h-1.320648c-2.008967 0-2.963136-1.21088-3.136328-3.98015-.132315-2.11564.09364-3.00901 1.870907-7.39693.215914-.53308.03517-.61736-1.323854-.61736-1.260358 0-1.81254-.21537-2.771771-1.08107-2.213807-1.99794-7.091069-4.94073-7.81026-4.71247-.915861.29068-1.953555-.70856-2.959161-2.84952-1.103566-2.34952-1.069751-3.51698.134749-4.6522 1.123366-1.05875 3.631851-2.66153 6.525156-4.16921 1.114981-.581 2.027794-1.24426 2.028472-1.47391.00067-.22965.437796-.46777.971373-.52917.533576-.0614.943951-.27037.911943-.4644-.112782-.68368.686252-1.23472 1.790412-1.23472.726989 0 1.542877-.36432 2.338052-1.044.671771-.5742 1.430532-1.05045 1.686144-1.05833.286188-.009.386765-.26003.261783-.65382-.162917-.5133.191798-.8031 1.79772-1.46871 3.003793-1.24501 3.256682-1.6101 3.034295-4.380575-.254688-3.17285.576287-5.795378 2.320244-7.322614.99852-.874436 1.373872-1.540466 1.646213-2.921077.348957-1.769008.36818-1.78951 1.775068-1.893091 1.781253-.131144 3.016846.997498 3.062196 2.797142.01898.752388.512325 1.901497 1.345251 3.133265 1.214328 1.795799 1.313547 2.132654 1.292334 4.38758-.01263 1.343345.125981 2.494321.308031 2.557724.18206.0634 1.46667.745006 2.8547 1.514676 2.02371 1.12215 2.71358 1.73272 3.48214 3.08186 1.32264 2.32178 2.22602 5.66124 2.35312 8.69858.0456 1.08885.2182 1.97972.38363 1.97972.16544 0 .19633.32916.0686.73147-.1575.49625-.0233.88968.4172 1.2235.44539.33748.49827.49556.16834.50326-.50199.0117-.47506.3436.28708 3.53899 1.25158 5.24744 1.24485 7.70822-.0255 9.3232-.40153.51046-.63472 1.17653-.5182 1.48017.13386.34885-.20206.93871-.91262 1.60247l-1.12447 1.05041.66522 2.00313c.36587 1.10172.77688 2.24125.91336 2.53229.13647.29104.42812 1.20386.6481 2.02847.21998.82462.53748 1.49931.70555 1.49931.16808 0 .22264.31722.12125.70493s.0504 1.06324.33737 1.50118c.3105.47387.45369 1.25978.35369 1.94115-.23706 1.61516 1.06068 4.06846 3.51609 6.64695 3.27578 3.43998 4.85447 5.56609 5.05146 6.8031.25205 1.58273 1.10327 3.56936 1.52937 3.56936.17515 0 .41584.47625.53488 1.05833s.31241 1.52501.42973 2.0954.5142 1.30937.88195 1.64218.66864.90115.66864 1.263c0 .36184.42828 1.32942.95174 2.15018 2.12058 3.32496 3.28159 6.31174 3.28159 8.44211 0 1.23722-.12376 1.42817-1.22339 1.88763-1.53432.64108-4.08156.6608-4.93302.0382zm-16.22078-56.49576c-.1269-.67641-.75702-2.38297-1.40026-3.79236-.64325-1.40939-1.36904-3.03878-1.61287-3.62086-.40414-.96482-.46647-.99599-.70541-.35278-.14416.38806-.34373 1.452-.44349 2.36432-.17546 1.6044-.13768 1.68768 1.15296 2.54178.92394.61144 1.41083 1.24056 1.58299 2.04542.46564 2.17687 1.82759 2.95472 1.42608.81448zm-19.603362-7.02512c0-3.16576-1.017354-4.44504-3.534939-4.44504-.801081 0-3.484281.98332-4.547389 1.66649-.07965.0512.118782.38436.440972.74037.322191.35602.585801.89318.585801 1.19369 0 .9374.865249 1.39428 1.897365 1.00187.831459-.31612.924857-.26986.924857.45809 0 .44534.575059 1.48154 1.277909 2.30266l1.277906 1.49295.838761-1.23435c.632146-.93029.838757-1.71281.838757-3.17673z" fill="#273839" stroke-width=".352778"/><path d="m103.47595 180.52888c.52114-.38107.71045-1.24596.97429-4.45123.2486-3.01998.48042-4.14242.96241-4.65977.34921-.37484.91442-1.30133 1.25603-2.05888.35561-.78859 1.20454-1.76346 1.98598-2.2806 1.10572-.73173 1.36488-1.11471 1.36488-2.01703 0-.85953.36241-1.46106 1.5875-2.63489.96843-.92793 1.5875-1.83335 1.5875-2.32182 0-.77023 2.34303-4.19253 4.95309-7.23461.68691-.80061 1.62355-2.22004 2.08143-3.15429 1.29493-2.6422 3.57961-6.53837 4.45343-7.59463.43548-.52641.84968-1.1308.92045-1.34311.2085-.62551 1.16174-.0539 1.84831 1.10837.46011.77891.74441.9721 1.02202.6945 1.28005-1.28006 1.44667 1.35226.37918 5.99042-.47451 2.06171-1.16534 6.88508-1.21976 8.51638-.0111.33215.21568 1.1259.50391 1.76389s.6343 1.55686.76904 2.04193c.37134 1.33681 1.58227 2.46945 2.64016 2.46945 1.66133 0 2.90565-2.04325 2.87882-4.72718-.018-1.80244 1.71414-7.58505 2.59958-8.67838.2357-.29104.53951-.92604.67512-1.41111.13562-.48507.52902-1.51694.87423-2.29305.34522-.77612 1.05982-2.7208 1.58802-4.32153l.96035-2.91042h1.32065c2.00896 0 2.96313-1.21088 3.13632-3.98015.13232-2.11564-.0936-3.00901-1.8709-7.39693-.21592-.53308-.0352-.61736 1.32385-.61736 1.26036 0 1.81254-.21537 2.77177-1.08107 2.21381-1.99794 7.09107-4.94073 7.81026-4.71247.91587.29068 1.95356-.70856 2.95917-2.84952 1.10356-2.34952 1.06975-3.51698-.13475-4.6522-1.12337-1.05875-3.63185-2.66153-6.52516-4.16921-1.11498-.581-2.02779-1.24426-2.02847-1.47391-.00066-.22965-.4378-.46777-.97137-.52917-.53358-.0614-.94396-.27037-.91195-.4644.11278-.68368-.68625-1.23472-1.79041-1.23472-.72699 0-1.54288-.36432-2.33805-1.044-.67177-.5742-1.43054-1.05045-1.68615-1.05833-.28619-.009-.38676-.26003-.26178-.65382.16292-.5133-.1918-.8031-1.79772-1.46871-3.00379-1.24501-3.25668-1.6101-3.0343-4.380577.25469-3.17285-.57628-5.795378-2.32024-7.322614-.99852-.874436-1.37387-1.540466-1.64621-2.921077-.34896-1.769008-.36818-1.78951-1.77507-1.893091-1.78125-.131144-3.01685.997498-3.0622 2.797142-.019.752388-.51232 1.901497-1.34525 3.133265-1.21432 1.795799-1.31354 2.132654-1.29233 4.38758.0126 1.343345-.12598 2.494321-.30803 2.557724-.18206.0634-1.46667.745006-2.8547 1.514676-2.02371 1.122152-2.71358 1.732722-3.48214 3.081862-1.32264 2.32178-2.22602 5.66124-2.35312 8.69858-.0456 1.08885-.2182 1.97972-.38363 1.97972-.16544 0-.19633.32916-.0686.73147.1575.49625.0233.88968-.4172 1.2235-.44539.33748-.49827.49556-.16834.50326.50199.0117.47506.3436-.28708 3.53899-1.25158 5.24744-1.24485 7.70822.0255 9.3232.40153.51046.63472 1.17653.5182 1.48017-.13386.34885.20206.93871.91262 1.60247l1.12447 1.05041-.66522 2.00313c-.36587 1.10172-.77688 2.24125-.91336 2.53229-.13647.29104-.42812 1.20386-.6481 2.02847-.21998.82462-.53748 1.49931-.70555 1.49931-.16808 0-.22264.31722-.12125.70493s-.0504 1.06324-.33737 1.50118c-.3105.47387-.45369 1.25978-.35369 1.94115.23706 1.61516-1.06068 4.06846-3.51609 6.64695-3.27578 3.43998-4.85447 5.56609-5.05146 6.8031-.25205 1.58273-1.10327 3.56936-1.52937 3.56936-.17515 0-.41584.47625-.53488 1.05833s-.31241 1.52501-.42973 2.0954-.51421 1.30937-.88196 1.64218-.66864.90115-.66864 1.263c0 .36184-.42828 1.32942-.95174 2.15018-2.120575 3.32496-3.281585 6.31174-3.281585 8.44211 0 1.23722.12376 1.42817 1.22339 1.88763 1.534325.64108 4.081555.6608 4.933025.0382zm16.22078-56.49576c.1269-.67641.75702-2.38297 1.40026-3.79236.64325-1.40939 1.36904-3.03878 1.61287-3.62086.40414-.96482.46647-.99599.70541-.35278.14416.38806.34373 1.452.44349 2.36432.17546 1.6044.13768 1.68768-1.15296 2.54178-.92394.61144-1.41083 1.24056-1.58299 2.04542-.46564 2.17687-1.82759 2.95472-1.42608.81448zm19.60336-7.02512c0-3.16576 1.01735-4.44504 3.53494-4.44504.80108 0 3.48428.98332 4.54739 1.66649.0796.0512-.11878.38436-.44097.74037-.32219.35602-.5858.89318-.5858 1.19369 0 .9374-.86525 1.39428-1.89737 1.00187-.83146-.31612-.92486-.26986-.92486.45809 0 .44534-.57506 1.48154-1.27791 2.30266l-1.2779 1.49295-.83876-1.23435c-.63215-.93029-.83876-1.71281-.83876-3.17673z" fill="url(#a)" stroke-width=".352777"/></g></svg>