<svg height="512" viewBox="0 0 135.46667 135.46667" width="512" xmlns="http://www.w3.org/2000/svg"><g fill="#273839" stroke-width=".352778" transform="matrix(1.0458808 0 0 1.0458808 -64.881493 -118.258156)"><g fill-opacity=".5"><path d="m167.621 236.44325-2.07141-3.11544.23544-8.14102c.35635-12.32149-.83702-10.02438 9.29821-17.89808l8.65715-6.72543 2.08399.23577c4.03559.45658 4.31806.085-6.05573 7.96529l-9.50869 7.22309-.0622 5.64445c-.0342 3.10444-.16189 8.40797-.28377 11.78562l-.22161 6.14118z"/><path d="m117.78392 125.79071-10.28073-4.59498-.92024-2.49254c-.50613-1.3709-.87425-2.53853-.81804-2.59474.0562-.0562 2.31852.90872 5.02735 2.14428 2.70883 1.23557 7.70328 3.50588 11.09876 5.04513l6.17361 2.79864 10.18077-5.08118c5.59942-2.79464 10.25956-5.00238 10.35586-4.90608s-.58724 1.60175-1.51897 3.34546l-1.69405 3.17037-8.39639 3.90687c-4.61801 2.14878-8.51583 3.89493-8.66181 3.88032-.14597-.0146-4.89173-2.0943-10.54612-4.62155z"/><path d="m122.2438 133.84361c-9.25239-4.38119-8.98662-4.21638-9.48572-5.88223-.24253-.80949-.36622-1.54655-.27487-1.6379.0914-.0914 3.46079 1.43223 7.48764 3.38574 4.02685 1.9535 7.46529 3.55182 7.64097 3.55182s3.42865-1.43193 7.22881-3.18207c3.80017-1.75014 6.98652-3.10495 7.08079-3.01068.0943.0943-.37124 1.08964-1.03444 2.21193l-1.20584 2.04054-5.80825 2.52964c-3.19454 1.3913-5.88763 2.54152-5.98465 2.55604-.097.0145-2.63701-1.13875-5.64444-2.56283z"/></g><path d="m120.31327 166.43793c-.3404-.55078 3.23996-3.87782 4.97206-4.62029 1.72999-.74155 4.53397-.9201 4.90942-.31262.12731.206.61488.52031 1.08349.69848.87434.33242 1.847 1.92147 1.43085 2.33762-.12796.12796-1.1274-.20547-2.22099-.74094l-1.98834-.9736-1.81012.91584c-.99558.50371-1.98446.91584-2.19754.91584-.21307 0-.98668.47625-1.71913 1.05834-1.37504 1.09274-2.09895 1.30503-2.4597.72133z"/><path d="m133.54194 188.11799c-.0182-2.93003-.5057-4.32731-2.15368-6.17361l-1.41697-1.5875-1.14311 1.33892c-1.18114 1.38346-1.64549 1.40067-1.64549.061 0-1.20538 1.3137-2.63658 2.40685-2.6221 1.25457.0166 2.1424.57348 3.704 2.32331 1.27741 1.43137 1.29748 1.49993 1.29748 4.43049 0 2.0711-.15756 3.18494-.51795 3.66141-.47426.62703-.51906.50627-.53113-1.43188z"/><path d="m114.83547 194.78703c0-.3096-.31135-1.00015-.69189-1.53457-.38053-.53441-.83918-1.62721-1.0192-2.42844-.18003-.80123-.66243-2.02475-1.07201-2.71893-.84006-1.42382-.91202-2.53229-.36416-5.61031.63054-3.54252 1.34828-5.70718 3.16948-9.55889 1.29403-2.73681 1.98937-3.80149 2.73433-4.18672.54945-.28413 1.20531-.7652 1.45748-1.06903.25215-.30384.75313-.55243 1.11327-.55243.55642 0 .5989.12266.28277.8165-.20462.44907-.78029 1.06422-1.27927 1.36698-.51582.31299-1.20047 1.29249-1.58688 2.27031-1.73704 4.39557-3.40603 9.37266-3.98973 11.89775-.60686 2.62526-.60866 2.82819-.0346 3.8941.52855.98147 1.31241 3.89185 1.88707 7.00644.10787.58467.0229.97014-.21382.97014-.21604 0-.3928-.2533-.3928-.5629z"/><path d="m97.61991 200.21826c-.999811-.99981.249833-16.56973 1.717399-21.39785.981921-3.2304.931051-3.68968-.376844-3.40242-.582083.12784-1.058333.11788-1.058333-.0221 0-.14002.319641-1.32788.710314-2.63968.943258-3.16729 4.390504-9.9075 6.732744-13.16417 1.57951-2.19617 2.20923-2.7684 3.90122-3.54504 2.84638-1.30651 2.99351-2.04957.78533-3.96609l-1.72266-1.49513 1.41111-.61536c1.99275-.86902 8.18461-1.04027 12.72546-.35196 3.5143.5327 7.94859 1.91617 8.15511 2.54434.0599.18207-1.33417.32466-3.17419.32466-3.07988 0-3.44475.081-5.95432 1.32171-5.40312 2.67129-9.74825 8.21545-12.47877 15.92227-.54174 1.52905-1.34195 3.13705-1.77823 3.57334-2.62074 2.62073-6.03854 12.61407-7.358662 21.51601-.567824 3.82902-1.106403 5.82084-1.573922 5.82084-.131681 0-.429923-.1905-.662756-.42333z"/><path d="m133.00352 206.39421c4.82527-4.39009 6.22433-5.90505 7.40804-8.02172 1.28166-2.29182 1.29282-2.34586.84544-4.09146-.39622-1.54596-.37028-2.10264.20577-4.41591.56706-2.27722.60434-3.00095.26684-5.18134-.35019-2.26246-.5386-2.6695-1.75586-3.79348-.74997-.6925-1.732-2.02016-2.18231-2.95036-.9597-1.98247-2.93783-4.03613-4.43514-4.60449-.84285-.31993-4.62504-.4499-7.1137-.24444-.22602.0187-.98058.80993-1.67681 1.75839-.96735 1.3178-1.42363 2.46172-1.93481 4.8507-.36791 1.71942-.9009 4.03344-1.18441 5.14226-.48626 1.90178-.47511 2.08174.19669 3.175.39169.63743 1.38563 2.50833 2.20875 4.15757 1.09361 2.19119 1.89822 3.30345 2.98818 4.13073 1.39105 1.05581 1.55567 1.09899 2.44205.64062 1.2566-.64981 1.64715-1.17539 1.96044-2.63824.31653-1.47793 1.59532-3.53385 2.20181-3.53985.60136-.006.55729.32385-.25654 1.92013-.41647.81689-.61427 1.69979-.49092 2.19126.30861 1.22961-.11565 2.45923-1.1933 3.45848-.80927.75039-1.30224.89243-3.09746.89243-2.04747 0-2.19491-.0615-3.59568-1.49931-.92846-.95301-1.7739-2.33481-2.32033-3.79236-.47281-1.26118-1.35668-3.13348-1.96417-4.16066-.60748-1.02719-1.10451-2.18855-1.10451-2.58081 0-.68415 1.25041-5.91479 2.32076-9.70809.56289-1.99484 2.12736-4.19055 3.69401-5.18446.8539-.54174 1.33821-.59544 3.05621-.33888 1.12283.16768 2.75589.17522 3.62902.0167.87312-.15847 2.10453-.19702 2.73645-.0857 1.4885.26231 3.57131 2.27551 5.01337 4.84582.62653 1.11672 1.34522 2.14859 1.59708 2.29306 1.86035 1.06705 2.66549 5.78012 1.73375 10.1489-.33006 1.54757-.54721 3.21063-.48256 3.6957.3663 2.74855.10694 4.07532-1.224 6.26136-1.70826 2.80577-8.00171 8.56807-9.33347 8.54576-.37573-.006-.0892-.44679.84132-1.29339z"/><path d="m123.0538 208.95731c-1.97423-1.12886-4.20282-2.94191-4.8725-3.96398-.29848-.45553-.69998-1.65761-.89221-2.67128-.21335-1.12495-.75943-2.3531-1.40158-3.15217-.57862-.72002-1.04703-1.67563-1.0409-2.12357.0111-.81279.0127-.81253.79375.1301 1.32256 1.59622 2.72288 4.04987 2.72288 4.77103 0 1.35515 3.19424 4.60238 6.00922 6.10891.77707.41587 2.52726.34547 5.19148-.20885 1.6837-.3503 1.46247.44629-.35278 1.27026-2.07939.94388-4.32855.88527-6.15736-.16045z"/><path d="m162.76394 227.45271c-.31816-.48507-.97819-1.53026-1.46673-2.32264l-.88826-1.44068.47898-6.41382c.26344-3.52759.57121-6.56303.68394-6.74543.11273-.18239 2.91445-2.32255 6.22605-4.7559 5.90709-4.34052 6.04882-4.42012 7.48557-4.20419.80546.12105 1.59692.34017 1.75879.48693.16186.14677-2.64235 2.38866-6.23159 4.98198l-6.52589 4.71514-.20168 1.76389c-.11091.97014-.32295 4.70076-.47119 8.29027-.25681 6.21862-.2968 6.4848-.84799 5.64445z" fill-opacity=".5"/><path d="m89.977076 222.60202c-.131026-3.05594-.346177-6.73552-.478115-8.17684l-.239885-2.62059-6.606351-4.77833c-4.001308-2.89412-6.435711-4.87071-6.173611-5.01261.238007-.12885 1.06774-.33823 1.843851-.46529 1.378933-.22575 1.552699-.12638 7.620146 4.3581l6.209035 4.58913.232379 2.74592c.127809 1.51026.333408 4.51275.456888 6.6722l.224509 3.92629-1.311605 2.15913c-.721382 1.18753-1.362771 2.15914-1.425308 2.15914-.06254 0-.220907-2.50032-.351933-5.55625z" fill-opacity=".5"/><path d="m121.73734 227.81743c-2.59334-1.36417-6.67898-4.71968-8.97829-7.37382-1.27024-1.46625-2.08239-2.84515-2.66103-4.51798-.45805-1.3242-.94587-2.68546-1.08404-3.025-.51712-1.27079-1.16461-.59067-1.76324 1.85208-.33284 1.35819-.67554 2.46944-.76156 2.46944-.87273 0-2.01937-6.71264-2.58093-15.10931-.48763-7.29127-.45621-10.37632.15874-15.58452.60243-5.10218 1.28101-7.92787 2.49869-10.40478l.86714-1.76389-.17949 1.41111c-.7823 6.14993-.93398 8.58581-.7409 11.89749.80764 13.85199 6.5761 25.1545 14.9394 29.27174 2.2622 1.11368 2.54148 1.16411 6.44729 1.16411 4.00369 0 4.13423-.0255 6.74836-1.31746 7.26224-3.5892 12.976-13.63358 14.39648-25.30801 1.33366-10.96089-.93743-21.90258-6.19973-29.86908-2.35512-3.56539-5.04341-6.05709-8.28412-7.67836-1.37099-.68588-3.2523-1.80464-4.18068-2.48613-2.88557-2.11821-6.65928-3.68145-11.12019-4.6065-5.24283-1.0872-6.06573-1.68874-4.38312-3.20409.67255-.60569 1.26303-.66412 5.98098-.59184 4.56453.0699 5.56175.19445 7.78866.97249 1.40465.49075 2.68786.75832 2.85158.5946s.12713-.74625-.0813-1.29451c-.62479-1.64333.0575-1.78628 2.44696-.51269 2.75177 1.46668 6.70659 4.86245 9.19471 7.89495 1.47469 1.79736 2.15666 3.03423 2.84202 5.15459.49596 1.53438 1.00134 2.88938 1.12306 3.0111.56501.56501 1.20786-.65177 1.83079-3.46531.91427-4.1294 2.48087 4.65775 2.87742 16.13958.2061 5.9677-.0211 10.7839-.74522 15.79684-.0903.62507.22663-.29226.70427-2.03851 1.14473-4.18512 1.57175-7.2937 1.93838-14.11111.16696-3.10444.41383-5.92225.54861-6.2618.38168-.9616 1.09499-.72948 1.62606.52916.56953 1.34977.69443 17.42908.16853 21.69584-.17338 1.4067-.21091 2.55764-.0834 2.55764.1275 0 .53996-.19243.91656-.42762.37659-.23519.78851-.32383.91536-.19698.39532.39532-1.17955 6.76657-2.70241 10.93282-2.1692 5.93447-4.00189 9.27734-5.74572 10.48033-1.95526 1.34886-2.81468 2.35756-2.56438 3.00983.11425.29773.92726.8909 1.80668 1.31816s1.59894.97337 1.59894 1.21359c0 .6953-4.1321 2.52163-7.48499 3.30825-6.12119 1.43609-12.02236 1.51318-15.71015.20523-.82461-.29247-1.4993-.47309-1.4993-.40138 0 .0717.99219.68294 2.20486 1.3583 2.8144 1.56739 6.17245 2.59492 10.14565 3.10446 3.25433.41735 4.46086 1.06635 4.03681 2.17141-.45018 1.17315-2.25873 1.49674-7.98345 1.42843-4.22443-.0504-5.7827-.19624-6.59707-.61736-.58641-.30325-1.48492-.55136-1.99668-.55136-.8901 0-.92013.0612-.69207 1.41111.29729 1.75961-.0594 1.80608-2.79951.36472z"/><path d="m83.438243 227.82663v-11.62053l-9.554309-7.32265c-10.451058-8.00994-10.162017-7.62613-6.080057-8.07362l2.052421-.225 8.290278 6.41857c4.559653 3.53021 8.479193 6.59892 8.71009 6.81936.281734.26896.558474 3.50347.841399 9.83416l.421586 9.43338-2.076121 3.17289c-1.141866 1.74509-2.195183 3.17538-2.340704 3.17843-.145521.003-.264583-5.2237-.264583-11.61499z" fill-opacity=".5"/></g></svg>