<?xml version="1.0" encoding="UTF-8" standalone="no"?>
<svg
   xmlns:osb="http://www.openswatchbook.org/uri/2009/osb"
   xmlns:dc="http://purl.org/dc/elements/1.1/"
   xmlns:cc="http://creativecommons.org/ns#"
   xmlns:rdf="http://www.w3.org/1999/02/22-rdf-syntax-ns#"
   xmlns:svg="http://www.w3.org/2000/svg"
   xmlns="http://www.w3.org/2000/svg"
   xmlns:sodipodi="http://sodipodi.sourceforge.net/DTD/sodipodi-0.dtd"
   xmlns:inkscape="http://www.inkscape.org/namespaces/inkscape"
   width="512"
   height="512"
   viewBox="0 0 135.46667 135.46667"
   version="1.1"
   id="svg8"
   inkscape:version="1.0.1 (3bc2e813f5, 2020-09-07)"
   sodipodi:docname="Dimensional Rift.svg">
  <defs
     id="defs2">
    <linearGradient
       id="linearGradient1099-6-5"
       osb:paint="gradient">
      <stop
         style="stop-color:#273839;stop-opacity:0.5"
         offset="0"
         id="stop1151" />
      <stop
         style="stop-color:#273839;stop-opacity:1"
         offset="1"
         id="stop1153" />
    </linearGradient>
  </defs>
  <sodipodi:namedview
     id="base"
     pagecolor="#ffffff"
     bordercolor="#666666"
     borderopacity="1.0"
     inkscape:pageopacity="0.0"
     inkscape:pageshadow="2"
     inkscape:zoom="0.7"
     inkscape:cx="74.751974"
     inkscape:cy="250.02809"
     inkscape:document-units="px"
     inkscape:current-layer="g1061"
     inkscape:document-rotation="0"
     showgrid="false"
     inkscape:pagecheckerboard="true"
     inkscape:object-nodes="true"
     fit-margin-top="0"
     fit-margin-left="0"
     fit-margin-right="0"
     fit-margin-bottom="0"
     inkscape:window-width="1600"
     inkscape:window-height="837"
     inkscape:window-x="-8"
     inkscape:window-y="-8"
     inkscape:window-maximized="1"
     units="px" />
  <metadata
     id="metadata5">
    <rdf:RDF>
      <cc:Work
         rdf:about="">
        <dc:format>image/svg+xml</dc:format>
        <dc:type
           rdf:resource="http://purl.org/dc/dcmitype/StillImage" />
        <dc:title></dc:title>
      </cc:Work>
    </rdf:RDF>
  </metadata>
  <g
     inkscape:label="Layer 1"
     inkscape:groupmode="layer"
     id="layer1"
     transform="translate(-59.62574,-110.15787)">
    <path
       style="fill:#000000;stroke-width:0.264583"
       id="path853"
       d="" />
    <path
       style="fill:#000000;stroke-width:0.264583"
       id="path849"
       d="" />
    <g
       id="g1061"
       transform="translate(9.0714285,1.8898814)">
      <g
         id="g1091"
         transform="matrix(1.0458808,0,0,1.0458808,-14.327182,-9.990167)">
        <path
           style="fill:#273839;fill-opacity:0.5;stroke-width:0.352778"
           d="m 167.621,236.44325 -2.07141,-3.11544 0.23544,-8.14102 c 0.35635,-12.32149 -0.83702,-10.02438 9.29821,-17.89808 l 8.65715,-6.72543 2.08399,0.23577 c 4.03559,0.45658 4.31806,0.085 -6.05573,7.96529 l -9.50869,7.22309 -0.0622,5.64445 c -0.0342,3.10444 -0.16189,8.40797 -0.28377,11.78562 l -0.22161,6.14118 z"
           id="path1024" />
        <g
           id="g1075">
          <path
             style="fill:#273839;fill-opacity:0.5;stroke-width:0.352778"
             d="m 117.78392,125.79071 -10.28073,-4.59498 -0.92024,-2.49254 c -0.50613,-1.3709 -0.87425,-2.53853 -0.81804,-2.59474 0.0562,-0.0562 2.31852,0.90872 5.02735,2.14428 2.70883,1.23557 7.70328,3.50588 11.09876,5.04513 l 6.17361,2.79864 10.18077,-5.08118 c 5.59942,-2.79464 10.25956,-5.00238 10.35586,-4.90608 0.0963,0.0963 -0.58724,1.60175 -1.51897,3.34546 l -1.69405,3.17037 -8.39639,3.90687 c -4.61801,2.14878 -8.51583,3.89493 -8.66181,3.88032 -0.14597,-0.0146 -4.89173,-2.0943 -10.54612,-4.62155 z"
             id="path1046" />
          <path
             style="fill:#273839;fill-opacity:0.5;stroke-width:0.352778"
             d="m 122.2438,133.84361 c -9.25239,-4.38119 -8.98662,-4.21638 -9.48572,-5.88223 -0.24253,-0.80949 -0.36622,-1.54655 -0.27487,-1.6379 0.0914,-0.0914 3.46079,1.43223 7.48764,3.38574 4.02685,1.9535 7.46529,3.55182 7.64097,3.55182 0.17568,0 3.42865,-1.43193 7.22881,-3.18207 3.80017,-1.75014 6.98652,-3.10495 7.08079,-3.01068 0.0943,0.0943 -0.37124,1.08964 -1.03444,2.21193 l -1.20584,2.04054 -5.80825,2.52964 c -3.19454,1.3913 -5.88763,2.54152 -5.98465,2.55604 -0.097,0.0145 -2.63701,-1.13875 -5.64444,-2.56283 z"
             id="path1044" />
          <path
             style="fill:#273839;fill-opacity:1;stroke-width:0.352778"
             d="m 120.31327,166.43793 c -0.3404,-0.55078 3.23996,-3.87782 4.97206,-4.62029 1.72999,-0.74155 4.53397,-0.9201 4.90942,-0.31262 0.12731,0.206 0.61488,0.52031 1.08349,0.69848 0.87434,0.33242 1.847,1.92147 1.43085,2.33762 -0.12796,0.12796 -1.1274,-0.20547 -2.22099,-0.74094 l -1.98834,-0.9736 -1.81012,0.91584 c -0.99558,0.50371 -1.98446,0.91584 -2.19754,0.91584 -0.21307,0 -0.98668,0.47625 -1.71913,1.05834 -1.37504,1.09274 -2.09895,1.30503 -2.4597,0.72133 z"
             id="path1042" />
          <path
             style="fill:#273839;fill-opacity:1;stroke-width:0.352778"
             d="m 133.54194,188.11799 c -0.0182,-2.93003 -0.5057,-4.32731 -2.15368,-6.17361 l -1.41697,-1.5875 -1.14311,1.33892 c -1.18114,1.38346 -1.64549,1.40067 -1.64549,0.061 0,-1.20538 1.3137,-2.63658 2.40685,-2.6221 1.25457,0.0166 2.1424,0.57348 3.704,2.32331 1.27741,1.43137 1.29748,1.49993 1.29748,4.43049 0,2.0711 -0.15756,3.18494 -0.51795,3.66141 -0.47426,0.62703 -0.51906,0.50627 -0.53113,-1.43188 z"
             id="path1040" />
          <path
             style="fill:#273839;fill-opacity:1;stroke-width:0.352778"
             d="m 114.83547,194.78703 c 0,-0.3096 -0.31135,-1.00015 -0.69189,-1.53457 -0.38053,-0.53441 -0.83918,-1.62721 -1.0192,-2.42844 -0.18003,-0.80123 -0.66243,-2.02475 -1.07201,-2.71893 -0.84006,-1.42382 -0.91202,-2.53229 -0.36416,-5.61031 0.63054,-3.54252 1.34828,-5.70718 3.16948,-9.55889 1.29403,-2.73681 1.98937,-3.80149 2.73433,-4.18672 0.54945,-0.28413 1.20531,-0.7652 1.45748,-1.06903 0.25215,-0.30384 0.75313,-0.55243 1.11327,-0.55243 0.55642,0 0.5989,0.12266 0.28277,0.8165 -0.20462,0.44907 -0.78029,1.06422 -1.27927,1.36698 -0.51582,0.31299 -1.20047,1.29249 -1.58688,2.27031 -1.73704,4.39557 -3.40603,9.37266 -3.98973,11.89775 -0.60686,2.62526 -0.60866,2.82819 -0.0346,3.8941 0.52855,0.98147 1.31241,3.89185 1.88707,7.00644 0.10787,0.58467 0.0229,0.97014 -0.21382,0.97014 -0.21604,0 -0.3928,-0.2533 -0.3928,-0.5629 z"
             id="path1038" />
          <path
             style="fill:#273839;fill-opacity:1;stroke-width:0.352778"
             d="m 97.61991,200.21826 c -0.999811,-0.99981 0.249833,-16.56973 1.717399,-21.39785 0.981921,-3.2304 0.931051,-3.68968 -0.376844,-3.40242 -0.582083,0.12784 -1.058333,0.11788 -1.058333,-0.0221 0,-0.14002 0.319641,-1.32788 0.710314,-2.63968 0.943258,-3.16729 4.390504,-9.9075 6.732744,-13.16417 1.57951,-2.19617 2.20923,-2.7684 3.90122,-3.54504 2.84638,-1.30651 2.99351,-2.04957 0.78533,-3.96609 l -1.72266,-1.49513 1.41111,-0.61536 c 1.99275,-0.86902 8.18461,-1.04027 12.72546,-0.35196 3.5143,0.5327 7.94859,1.91617 8.15511,2.54434 0.0599,0.18207 -1.33417,0.32466 -3.17419,0.32466 -3.07988,0 -3.44475,0.081 -5.95432,1.32171 -5.40312,2.67129 -9.74825,8.21545 -12.47877,15.92227 -0.54174,1.52905 -1.34195,3.13705 -1.77823,3.57334 -2.62074,2.62073 -6.03854,12.61407 -7.358662,21.51601 -0.567824,3.82902 -1.106403,5.82084 -1.573922,5.82084 -0.131681,0 -0.429923,-0.1905 -0.662756,-0.42333 z"
             id="path1036" />
          <path
             style="fill:#273839;fill-opacity:1;stroke-width:0.352778"
             d="m 133.00352,206.39421 c 4.82527,-4.39009 6.22433,-5.90505 7.40804,-8.02172 1.28166,-2.29182 1.29282,-2.34586 0.84544,-4.09146 -0.39622,-1.54596 -0.37028,-2.10264 0.20577,-4.41591 0.56706,-2.27722 0.60434,-3.00095 0.26684,-5.18134 -0.35019,-2.26246 -0.5386,-2.6695 -1.75586,-3.79348 -0.74997,-0.6925 -1.732,-2.02016 -2.18231,-2.95036 -0.9597,-1.98247 -2.93783,-4.03613 -4.43514,-4.60449 -0.84285,-0.31993 -4.62504,-0.4499 -7.1137,-0.24444 -0.22602,0.0187 -0.98058,0.80993 -1.67681,1.75839 -0.96735,1.3178 -1.42363,2.46172 -1.93481,4.8507 -0.36791,1.71942 -0.9009,4.03344 -1.18441,5.14226 -0.48626,1.90178 -0.47511,2.08174 0.19669,3.175 0.39169,0.63743 1.38563,2.50833 2.20875,4.15757 1.09361,2.19119 1.89822,3.30345 2.98818,4.13073 1.39105,1.05581 1.55567,1.09899 2.44205,0.64062 1.2566,-0.64981 1.64715,-1.17539 1.96044,-2.63824 0.31653,-1.47793 1.59532,-3.53385 2.20181,-3.53985 0.60136,-0.006 0.55729,0.32385 -0.25654,1.92013 -0.41647,0.81689 -0.61427,1.69979 -0.49092,2.19126 0.30861,1.22961 -0.11565,2.45923 -1.1933,3.45848 -0.80927,0.75039 -1.30224,0.89243 -3.09746,0.89243 -2.04747,0 -2.19491,-0.0615 -3.59568,-1.49931 -0.92846,-0.95301 -1.7739,-2.33481 -2.32033,-3.79236 -0.47281,-1.26118 -1.35668,-3.13348 -1.96417,-4.16066 -0.60748,-1.02719 -1.10451,-2.18855 -1.10451,-2.58081 0,-0.68415 1.25041,-5.91479 2.32076,-9.70809 0.56289,-1.99484 2.12736,-4.19055 3.69401,-5.18446 0.8539,-0.54174 1.33821,-0.59544 3.05621,-0.33888 1.12283,0.16768 2.75589,0.17522 3.62902,0.0167 0.87312,-0.15847 2.10453,-0.19702 2.73645,-0.0857 1.4885,0.26231 3.57131,2.27551 5.01337,4.84582 0.62653,1.11672 1.34522,2.14859 1.59708,2.29306 1.86035,1.06705 2.66549,5.78012 1.73375,10.1489 -0.33006,1.54757 -0.54721,3.21063 -0.48256,3.6957 0.3663,2.74855 0.10694,4.07532 -1.224,6.26136 -1.70826,2.80577 -8.00171,8.56807 -9.33347,8.54576 -0.37573,-0.006 -0.0892,-0.44679 0.84132,-1.29339 z"
             id="path1034" />
          <path
             style="fill:#273839;fill-opacity:1;stroke-width:0.352778"
             d="m 123.0538,208.95731 c -1.97423,-1.12886 -4.20282,-2.94191 -4.8725,-3.96398 -0.29848,-0.45553 -0.69998,-1.65761 -0.89221,-2.67128 -0.21335,-1.12495 -0.75943,-2.3531 -1.40158,-3.15217 -0.57862,-0.72002 -1.04703,-1.67563 -1.0409,-2.12357 0.0111,-0.81279 0.0127,-0.81253 0.79375,0.1301 1.32256,1.59622 2.72288,4.04987 2.72288,4.77103 0,1.35515 3.19424,4.60238 6.00922,6.10891 0.77707,0.41587 2.52726,0.34547 5.19148,-0.20885 1.6837,-0.3503 1.46247,0.44629 -0.35278,1.27026 -2.07939,0.94388 -4.32855,0.88527 -6.15736,-0.16045 z"
             id="path1032" />
          <path
             style="fill:#273839;fill-opacity:0.5;stroke-width:0.352778"
             d="m 162.76394,227.45271 c -0.31816,-0.48507 -0.97819,-1.53026 -1.46673,-2.32264 l -0.88826,-1.44068 0.47898,-6.41382 c 0.26344,-3.52759 0.57121,-6.56303 0.68394,-6.74543 0.11273,-0.18239 2.91445,-2.32255 6.22605,-4.7559 5.90709,-4.34052 6.04882,-4.42012 7.48557,-4.20419 0.80546,0.12105 1.59692,0.34017 1.75879,0.48693 0.16186,0.14677 -2.64235,2.38866 -6.23159,4.98198 l -6.52589,4.71514 -0.20168,1.76389 c -0.11091,0.97014 -0.32295,4.70076 -0.47119,8.29027 -0.25681,6.21862 -0.2968,6.4848 -0.84799,5.64445 z"
             id="path1030" />
          <path
             style="fill:#273839;fill-opacity:0.5;stroke-width:0.352778"
             d="m 89.977076,222.60202 c -0.131026,-3.05594 -0.346177,-6.73552 -0.478115,-8.17684 l -0.239885,-2.62059 -6.606351,-4.77833 c -4.001308,-2.89412 -6.435711,-4.87071 -6.173611,-5.01261 0.238007,-0.12885 1.06774,-0.33823 1.843851,-0.46529 1.378933,-0.22575 1.552699,-0.12638 7.620146,4.3581 l 6.209035,4.58913 0.232379,2.74592 c 0.127809,1.51026 0.333408,4.51275 0.456888,6.6722 l 0.224509,3.92629 -1.311605,2.15913 c -0.721382,1.18753 -1.362771,2.15914 -1.425308,2.15914 -0.06254,0 -0.220907,-2.50032 -0.351933,-5.55625 z"
             id="path1028" />
          <path
             style="fill:#273839;fill-opacity:1;stroke-width:0.352778"
             d="m 121.73734,227.81743 c -2.59334,-1.36417 -6.67898,-4.71968 -8.97829,-7.37382 -1.27024,-1.46625 -2.08239,-2.84515 -2.66103,-4.51798 -0.45805,-1.3242 -0.94587,-2.68546 -1.08404,-3.025 -0.51712,-1.27079 -1.16461,-0.59067 -1.76324,1.85208 -0.33284,1.35819 -0.67554,2.46944 -0.76156,2.46944 -0.87273,0 -2.01937,-6.71264 -2.58093,-15.10931 -0.48763,-7.29127 -0.45621,-10.37632 0.15874,-15.58452 0.60243,-5.10218 1.28101,-7.92787 2.49869,-10.40478 l 0.86714,-1.76389 -0.17949,1.41111 c -0.7823,6.14993 -0.93398,8.58581 -0.7409,11.89749 0.80764,13.85199 6.5761,25.1545 14.9394,29.27174 2.2622,1.11368 2.54148,1.16411 6.44729,1.16411 4.00369,0 4.13423,-0.0255 6.74836,-1.31746 7.26224,-3.5892 12.976,-13.63358 14.39648,-25.30801 1.33366,-10.96089 -0.93743,-21.90258 -6.19973,-29.86908 -2.35512,-3.56539 -5.04341,-6.05709 -8.28412,-7.67836 -1.37099,-0.68588 -3.2523,-1.80464 -4.18068,-2.48613 -2.88557,-2.11821 -6.65928,-3.68145 -11.12019,-4.6065 -5.24283,-1.0872 -6.06573,-1.68874 -4.38312,-3.20409 0.67255,-0.60569 1.26303,-0.66412 5.98098,-0.59184 4.56453,0.0699 5.56175,0.19445 7.78866,0.97249 1.40465,0.49075 2.68786,0.75832 2.85158,0.5946 0.16372,-0.16372 0.12713,-0.74625 -0.0813,-1.29451 -0.62479,-1.64333 0.0575,-1.78628 2.44696,-0.51269 2.75177,1.46668 6.70659,4.86245 9.19471,7.89495 1.47469,1.79736 2.15666,3.03423 2.84202,5.15459 0.49596,1.53438 1.00134,2.88938 1.12306,3.0111 0.56501,0.56501 1.20786,-0.65177 1.83079,-3.46531 0.91427,-4.1294 2.48087,4.65775 2.87742,16.13958 0.2061,5.9677 -0.0211,10.7839 -0.74522,15.79684 -0.0903,0.62507 0.22663,-0.29226 0.70427,-2.03851 1.14473,-4.18512 1.57175,-7.2937 1.93838,-14.11111 0.16696,-3.10444 0.41383,-5.92225 0.54861,-6.2618 0.38168,-0.9616 1.09499,-0.72948 1.62606,0.52916 0.56953,1.34977 0.69443,17.42908 0.16853,21.69584 -0.17338,1.4067 -0.21091,2.55764 -0.0834,2.55764 0.1275,0 0.53996,-0.19243 0.91656,-0.42762 0.37659,-0.23519 0.78851,-0.32383 0.91536,-0.19698 0.39532,0.39532 -1.17955,6.76657 -2.70241,10.93282 -2.1692,5.93447 -4.00189,9.27734 -5.74572,10.48033 -1.95526,1.34886 -2.81468,2.35756 -2.56438,3.00983 0.11425,0.29773 0.92726,0.8909 1.80668,1.31816 0.87942,0.42726 1.59894,0.97337 1.59894,1.21359 0,0.6953 -4.1321,2.52163 -7.48499,3.30825 -6.12119,1.43609 -12.02236,1.51318 -15.71015,0.20523 -0.82461,-0.29247 -1.4993,-0.47309 -1.4993,-0.40138 0,0.0717 0.99219,0.68294 2.20486,1.3583 2.8144,1.56739 6.17245,2.59492 10.14565,3.10446 3.25433,0.41735 4.46086,1.06635 4.03681,2.17141 -0.45018,1.17315 -2.25873,1.49674 -7.98345,1.42843 -4.22443,-0.0504 -5.7827,-0.19624 -6.59707,-0.61736 -0.58641,-0.30325 -1.48492,-0.55136 -1.99668,-0.55136 -0.8901,0 -0.92013,0.0612 -0.69207,1.41111 0.29729,1.75961 -0.0594,1.80608 -2.79951,0.36472 z"
             id="path1026" />
          <path
             style="fill:#273839;fill-opacity:0.5;stroke-width:0.352778"
             d="M 83.438243,227.82663 V 216.2061 l -9.554309,-7.32265 c -10.451058,-8.00994 -10.162017,-7.62613 -6.080057,-8.07362 l 2.052421,-0.225 8.290278,6.41857 c 4.559653,3.53021 8.479193,6.59892 8.71009,6.81936 0.281734,0.26896 0.558474,3.50347 0.841399,9.83416 l 0.421586,9.43338 -2.076121,3.17289 c -1.141866,1.74509 -2.195183,3.17538 -2.340704,3.17843 -0.145521,0.003 -0.264583,-5.2237 -0.264583,-11.61499 z"
             id="path1020" />
        </g>
      </g>
    </g>
  </g>
</svg>
