<svg height="512" viewBox="0 0 135.46667 135.46667" width="512" xmlns="http://www.w3.org/2000/svg" xmlns:xlink="http://www.w3.org/1999/xlink"><radialGradient id="a" cx="110.61862" cy="129.49699" gradientTransform="matrix(40.311641 .32278787 -.32652668 56.56788 -4306.3154 -7233.6428)" gradientUnits="userSpaceOnUse" r="1.403775"><stop offset="0" stop-color="#273839"/><stop offset="1" stop-opacity="0"/></radialGradient><linearGradient id="b" gradientUnits="userSpaceOnUse" x1="123.2674" x2="125.96363" y1="139.97971" y2="164.92613"><stop offset="0" stop-color="#273839"/><stop offset="1" stop-color="#273839" stop-opacity="0"/></linearGradient><g transform="matrix(1.1121764 0 0 1.1121769 -61.357878 -74.08292)"><g fill="#273839"><path d="m208.3457 36.539062c-1.05839-.0035-2.2546.0025-3.61718.01172-9.48431.06435-12.66897.729579-21.7754 4.539063-7.1687 2.998904-13.9473 4.758499-20.66796 5.365234-5.50001.496536-11.49864 1.727803-13.33204 2.736328-1.83333 1.008526-7.4946 2.231592-12.58007 2.71875-8.56348.820328-9.5488 1.248231-13.33399 5.792969-2.24785 2.698919-8.43724 9.570355-13.7539 15.269531-5.31667 5.699176-9.6819 11.21828-9.701176 12.265625-.01929 1.047345-2.504339 6.404295-5.523437 11.904297-10.79517 19.665971-12.021006 22.557091-13.080078 30.890621-.590128 4.64352-2.393157 14.01758-4.007813 20.83203-2.446881 10.32681-3.688205 13.12092-7.453125 16.77735-7.168539 6.962-8.993088 12.84153-7.933593 25.56054.777267 9.33108.417061 12.61499-2.589844 23.65235l-3.490235 12.81641 6.619141 20.40234c8.576481 26.43254 11.646241 38.35436 12.693359 49.28906.468034 4.88753 2.071096 13.58621 3.560547 19.33203 1.489448 5.74583 3.859183 16.74727 5.267578 24.44727 4.778155 26.12318 11.040902 39.49287 23.974606 51.17773 2.93599 2.65251 6.00117 4.82227 6.81055 4.82227s5.75759 4.09722 10.99609 9.10547c5.23851 5.00821 11.47389 10.44937 13.85547 12.08984 2.38159 1.64047 4.68176 4.38223 5.11133 6.09375.55224 2.20029 2.01668 3.32872 5.00195 3.84961 2.32219.4052 9.02201 1.72113 14.88868 2.92578 5.86667 1.20461 15.16797 2.42527 20.66796 2.71289 5.50006.28751 12.09935 1.00625 14.66602 1.5957 7.24573 1.66404 19.32368 1.18205 21.79492-.86914 1.49923-1.24441 2.20508-3.91155 2.20508-8.33398 0-6.17873-1.42169-8.26221-3.42578-5.01953-1.05226 1.70256-32.30418.49975-37.9082-1.45899-1.83334-.64081-6.03198-1.5297-9.33204-1.97656-3.29999-.44681-7.466-1.93002-9.25585-3.29492l-3.25391-2.48047 5.25391-8.07812c3.54766-5.45424 6.14274-8.09779 7.98828-8.13672 3.32806-.0703 5.93359-2.48035 5.93359-5.48828 0-2.76889-11.54588-13.60511-13.73437-12.89063-.88.28732-2.21212 2.3713-2.96094 4.63281-.74883 2.26156-3.5258 7.31765-6.17188 11.23438-2.64609 3.91669-5.19553 8.76864-5.66406 10.7832l-.85156 3.66406-4.5-2.95117-4.5-2.94922 4.21875-4.92968c5.62806-6.57513 8.84583-16.03974 8.83789-26-.008-10.50554 2.02194-12.64492 8.62695-9.08789 4.43988 2.391 4.64059 2.39008 7.29883-.0156 3.53169-3.19612 3.47089-3.65558-1.13477-8.58594-3.50197-3.74887-4.6314-4.14062-11.92578-4.14062-6.58574 0-8.73832.58598-11.7832 3.20508-3.44568 2.96383-3.75502 4.0383-4.125 14.33203-.51385 14.29648-.94401 16.10908-4.9707 20.89453l-3.3418 3.9707-7.27539-3.9414c-9.23197-5.00024-20.70919-18.57593-16.89649-19.98633 1.47361-.54512 3.85371-4.86497 6.1504-11.16211 3.30536-9.06274 4.29736-10.50292 8.41796-12.22461 3.15355-1.31773 6.70478-1.67091 10.92969-1.08985 5.68699.78224 6.45784.55229 8.46289-2.50781 1.68236-2.56762 1.89647-4.18356.89844-6.80859-.95871-2.52151-.86809-3.57801.3418-3.94727 12.60715-3.85009 19.02327-7.10972 19.42187-9.86718.72947-5.0462-2.20903-7.2432-8.37109-6.25977-2.96872.4738-6.72736 1.73005-8.35156 2.79297-1.6242 1.06295-4.87713 1.93359-7.22852 1.93359-5.39986 0-9.15234 3.33126-9.15234 8.12696 0 4.64156-.28141 4.80291-10.37891 5.94531-7.85924.88917-8.28711.79195-8.28711-1.90039 0-1.5614 1.26503-4.10489 2.8125-5.65235 2.2462-2.24621 2.65272-3.82395 2.01367-7.82031-.65872-4.11946-.22286-5.62789 2.45703-8.51953 1.79111-1.93266 4.11103-3.51367 5.15625-3.51367 1.04523 0 2.64763-.89997 3.56055-2 2.40341-2.89591 6.29971-2.46778 12.93359 1.41992 6.93061 4.06159 11.54767 3.889 12.16407-.45508.53338-3.75912-7.54213-12.29883-11.63086-12.29883-3.20996 0-3.94476-4.98882-1.14649-7.78711 1.20448-1.20464 1.537-6.80327 1.22266-20.5996-.4276-18.76742-.47474-19.02379-5.04297-27.26172-7.34945-13.25337-12.89224-14.48951-14.23242-3.17383-1.15104 9.71868-2.80421 12.15625-8.23828 12.15625-5.85025 0-22.029299-9.85628-22.029299-13.41992 0-1.35028.695235-3.98085 1.544921-5.84571 1.287196-2.82508 1.141786-3.83613-.873046-6.0625-3.258271-3.60037-5.803952-3.36429-10.314454.95703-3.020726 2.89403-4.250295 3.33925-6.072265 2.19727-4.212798-2.64049-3.581391-7.14184 1.601562-11.41406 3.123545-2.57469 4.779297-5.07721 4.779297-7.22266 0-1.80574.946954-4.72703 2.103516-6.49219 1.156558-1.76511 1.906053-4.59471 1.666016-6.28711-.376372-2.6536-1.124131-3.03643-5.435547-2.7832-4.67562.27443-5 .0469-5-3.50391 0-2.0883.926092-4.56596 2.058593-5.50585 1.728363-1.43441 2.419403-1.19245 4.304688 1.5039 1.235323 1.76678 5.161361 5.90031 8.724609 9.18555 8.967636 8.26794 9.667699 9.91331 6.861328 16.13672-1.950825 4.32616-2.052956 5.75618-.654297 9.13281 2.586023 6.24321 4.762168 7.46441 8.699218 4.88477 2.51414-1.64735 3.33984-3.34535 3.33984-6.86719 0-2.57333.9-6.83218 2-9.46485 3.41348-8.16948 2.68878-10.34501-5.93945-17.8496-4.36618-3.79766-10.126601-10.08203-12.800779-13.96485l-4.861329-7.06055 2.94336-3.98242c2.619122-3.54255 6.937631-7.29377 11.552738-10.03711.99748-.59289 2.77702 1.60784 4.91992 6.08594 3.792 7.92427 6.94003 11.8971 11.25976 14.20899 3.2118 1.71889 3.2641 1.65813 4.83789-5.5254.55497-2.53307-.27976-5.79991-2.70898-10.59375-2.85652-5.63705-3.37379-8.11107-2.76563-13.24609 1.82748-15.42962 16.89098-32.47836 34.5918-39.15039 3.4997-1.31914 6.63324-2.12848 6.96289-1.79883 1.49752 1.49753-9.30623 14.73791-17.06054 20.9082-6.27223 4.99103-9.32914 8.56046-11.35157 13.26172-3.66096 8.51017-5.5891 24.81271-5.54882 46.91407l.0332 18.03515 5.63476 9.29297c3.09865 5.11166 7.1335 10.09946 8.9668 11.08399 5.29922 2.84572 33.9834 1.27575 41.80859-2.28907 6.90245-3.14441 11.72376-3.48526 15.54688-1.09765 3.32467 2.07628 6.79305.18697 8.51367-4.63868 2.15248-6.03677.55412-7.24621-10.9082-8.24609-8.94067-.7799-11.82273-.48674-18.44531 1.87305-4.31687 1.53823-12.73388 3.15753-18.70508 3.59765l-10.85742.79883-3.33204-5.1875c-3.00744-4.68253-3.41307-7.00728-4.17187-23.85547-1.33484-29.63833 2.1494-41.29629 15.88672-53.15625 3.88205-3.35153 9.93472-10.01356 13.45117-14.80273 5.55118-7.56034 6.9534-8.70703 10.64063-8.70703 2.33567 0 6.44627.91963 9.13476 2.04297 5.65061 2.36097 7.4375 1.71907 7.4375-2.66993 0-3.28089-6.74785-10.039051-10.02344-10.039057-3.09199 0-3.35033-2.108549-.95117-7.789062 2.06584-4.891302 2.90129-5.552281 7.99219-6.324219 6.75524-1.024301 12.62718 1.059433 16.36133 5.806641 2.21502 2.815952 2.62052 5.424555 2.61523 16.820307-.005 11.73239-.43911 14.3389-3.33398 20.04493-4.34236 8.55918-4.20622 11.07387.74414 13.83593 3.45133 1.9257 3.95925 2.85546 3.33398 6.10547-.4056 2.10834-.73828 4.59244-.73828 5.52149 0 .929-2.82562 4.83244-6.2793 8.67383-4.93 5.48333-9.00472 8.25013-18.96093 12.87109-11.4242 5.30218-13.34858 5.80226-19.41016 5.04492-5.763-.72004-7.08983-.44165-9.25 1.94531-2.11609 2.33828-2.27392 3.33426-.97656 6.18164 1.51902 3.33389 1.75143 3.38309 13.21093 2.78907 16.43005-.85168 27.26719-4.37595 39.53321-12.85547 5.66102-3.91344 11.15666-8.34943 12.21289-9.85742 1.56404-2.23284 1.91992-9.88072 1.91992-41.19922 0-23.157805-.53285-39.450821-1.33789-40.95508-.89371-1.66989-.89371-2.771883 0-3.324219.77276-.477592 1.33789-7.536041 1.33789-16.726562 0-15.683919-.0529-15.960744-3.89062-20.25586-3.34033-3.738496-3.97409-4.266759-11.38282-4.291016zm-4.24023 10.871094c1.71788-.118583 2.36225.532928 3.58789 1.525391 2.76584 2.239642 5.07943 10.187903 5.20117 17.873047.063 3.97618-.65526 4.335303-4.36133 2.179687-3.29965-1.919221-30.98825-3.066153-37.58008-1.55664-2.93333.671739-6.71013.882129-8.39257.466797-5.52072-1.362853-.55433-4.852569 16.35742-11.488282 16.47991-6.466266 22.32436-8.802362 25.1875-9zm-58.88477 15.140625c1.14868.05737.87952.636024-.3164 1.759766-2.15077 2.020959-16.47689 4.0945-15.31641 2.216797.39692-.642233 3.74524-1.816691 7.44141-2.609375 4.47596-.959923 7.04272-1.424557 8.1914-1.367188zm-1.49609 16.052735c3.67889.03798 7.64546.340278 11.89453.908203l8.66602 1.158203-15.33204 7.554687c-18.89792 9.312174-35.07369 23.215671-40.5996 34.896481-2.44422 5.16666-5.20569 8.4692-9.625004 11.50977l-6.197266 4.26367.833984-7.04492c.620217-5.23677 2.777199-10.33564 8.404296-19.875 4.16299-7.05732 8.9669-15.648192 10.67578-19.089844 4.79101-9.648999 15.33744-14.445839 31.2793-14.28125zm-69.150391 157.562504c.0523-.0102.116027-.009.193359.006 1.031088.19474 4.391969 2.64834 12.875 8.92382 5.512483 4.07792 12.610052 8.27044 15.773442 9.31446l5.75195 1.89648-4.41992 2.08789c-4.826191 2.27879-6.10987 5.81221-7.365238 20.26758-.471118 5.42487-.0383 8.70664 1.554688 11.78711 1.55427 3.00567 1.94816 5.81081 1.32812 9.48047-.89856 5.31874-1.478874 5.63921-7.312495 4.02539-3.107686-.85973-3.387015-1.63991-4.105469-11.5332-.647414-8.91509-9.140401-41.92319-14.023437-54.49805-.398189-1.02543-.616076-1.68669-.25-1.75781zm53.388671 15.64257c1.17776 0 .332 26.43564-.88477 27.65235-.43579.43581-.79296 3.0586-.79296 5.82812 0 5.13596-3.46411 9.1875-7.85743 9.1875-1.06242 0-3.03001.99339-4.37109 2.20703-2.30891 2.08952-2.43756 1.99982-2.45117-1.66797-.008-2.13033-.90794-6.81808-2-10.41796-2.6514-8.74005-2.62716-13.31875.0664-12.28516 6.44815 2.47438 10.21756-8.96042 4.3164-13.09375-2.86129-2.00417-2.74667-2.07617 3.32227-2.07617 4.84136 0 6.66841-.612 7.95117-2.66602.91594-1.46668 2.1314-2.66797 2.70117-2.66797zm-29.414062 62.09571c1.028058-.0294 1.070313 1.27693 1.070313 5.26758 0 5.9879-1.209809 7.41648-3.644532 4.30468-2.961656-3.78531-2.770518-7.35435.472657-8.83203.963476-.43899 1.634263-.72687 2.101562-.74023zm-1.175781 25.28906c.8125.0305 2.712113.17695 4.912113.38672 6.09971.58171 6.40737 1.51079 2.55859 7.73828-1.52648 2.46988-2.97106 4.49023-3.20898 4.49023-.31795 0-4.681645-11.74964-4.681645-12.60547 0-.018.149089-.0199.419922-.01z" stroke-width="1.33333" transform="matrix(.26458334 0 0 .26458334 43.338034 63.366707)"/><path d="m118.73169 91.206573c0-3.919826.13692-6.413801.35967-6.551471.63004-.389383 2.86141.576898 4.26919 1.848741 3.37239 3.046751 2.34927 8.407238-1.98 10.373986-2.74383 1.246493-2.64886 1.449811-2.64886-5.671256z" stroke-width=".352778"/><path d="m86.147318 104.91848c-1.124895-.88484-1.169737-1.49806-.181793-2.48601.611265-.61127 1.020142-.71039 2.240432-.54313 2.173418.2979 3.222748-.88169 3.684443-4.141843.512332-3.617718 2.327236-5.114942 4.146126-3.420388l.721209.67191-.802848 2.462671c-.441565 1.35447-.948443 2.75867-1.126392 3.12045-.177948.36178-.627214 1.2827-.998368 2.04648-1.284718 2.64377-5.598396 3.92946-7.682809 2.28986z" stroke-width=".352778"/><path d="m121.90803 108.42372c.00071-.26456.86897-1.15109 1.9294-1.97006 3.82939-2.95744 5.89083-7.213755 4.70996-9.724789-.47458-1.009182-.4749-1.268714-.003-2.368118.83154-1.936754.68537-5.692517-.29579-7.600206-1.65306-3.214089-4.51579-5.311304-7.77727-5.697578l-1.73982-.206049v-2.773084-2.773083l1.32291.007c2.94672.01556 6.22996.711457 7.08435 1.501543.84354.780045 4.79875 6.650755 5.94268 8.820701.90887 1.724043 1.09627 8.990867.30311 11.753393-1.15308 4.01605-4.32388 8.68433-7.02291 10.33963-1.46462.89823-4.45567 1.3621-4.4538.69071z" stroke-width=".352778"/><path d="m97.565021 130.00926c0-1.55846.124241-1.84069 1.157069-2.62847.63639-.4854 1.5492-1.03904 2.02847-1.23032.60177-.24016.68289-.35469.26218-.37013-1.249836-.0459-1.660695-1.40413-1.555303-5.14166.05465-1.93807.291797-3.88095.526997-4.31751.467016-.86685 1.429606-1.03695 2.096146-.37042.54443.54444.5928 8.95529.0534 9.28865-.25531.15779-.24863.37474.0216.7003.2153.25943.34207 1.15811.28171 1.99707-.0885 1.22968-.24092 1.52566-.78641 1.52687-.37216.0007-.74399.20351-.82629.4504-.13038.39115-2.547464 1.84116-3.069106 1.84116-.104743 0-.190443-.78567-.190443-1.74594z" stroke-width=".352778"/><path d="m357.6543 171.01953c-.215-.0208-.34203-.0154-.375.0176-.37108.37104-1.588 9.41229-2.70508 20.0918-1.56121 14.92486-1.69391 21.02937-.57422 26.38281.80122 3.8307 2.02959 11.27257 2.73047 16.53711 1.53154 11.50412 5.67369 17.78526 13.89844 21.07617 4.53558 1.81478 22.22063 4.80502 53.65625 9.07422 22.97196 3.11981 50.69734-2.56575 55.5625-11.39453 2.95547-5.36327 14.4375-32.14407 14.4375-33.67383 0-3.7892-11.74384-11.70428-24.37891-16.43164-14.07701-5.26691-105.58698-31.03384-112.25195-31.67969zm34.47265 19.45703c5.06933 0 38.1985 7.51274 56.28516 12.76367 9.54111 2.76998 10.98556 5.83635 7.92773 16.8418-3.04524 10.96018-10.24477 26.41374-13.74609 29.50781-2.9139 2.57477-9.82532 3.63001-17.64063 2.69336-21.78958-2.61139-36.10318-4.59703-37.77929-5.24023-3.39024-1.30095-8.88822-10.92032-13.54297-23.69531-2.44577-6.71241-4.83234-13.1739-5.30274-14.35743-.61428-1.54563 1.81606-4.4555 8.62696-10.33203 8.41436-7.26002 10.12326-8.18164 15.17187-8.18164z" stroke-width="1.33333" transform="matrix(.26458334 0 0 .26458334 43.338034 63.366707)"/><path d="m87.534483 139.53931c-2.241349-.64161-2.271377-.67423-3.149145-3.42174-.707827-2.21557-.726175-3.95304-.06787-6.42632.73272-2.75284 2.42122-4.28605 4.720174-4.28605 2.331022 0 2.398684 2.37476.09393 3.29693-1.713174.68548-1.75793.7593-1.993216 3.28764-.229136 2.46224.2044 3.43248 1.993223 4.46078 1.205646.69306 1.327838.70046 2.486752.15052.670338-.3181 2.322262-.67424 3.670939-.79142 1.348676-.11718 3.120379-.38182 3.937123-.58809.816747-.20627 1.888307-.27381 2.381257-.15009.74139.18608.89626.43354.89626 1.43213 0 .66395-.15256 1.30147-.33901 1.4167-.18645.11524-2.13114.50586-4.32153.86806-2.190387.36219-4.429414.8329-4.975624 1.04602-1.315716.51336-2.795055.43152-5.333266-.29507z" stroke-width=".352778"/><path d="m129.14941 151.77534c-.0789-.24254-.97098-5.57794-1.98239-11.85645l-1.83893-11.41548-1.7989.22255c-.98939.12241-2.47358.31646-3.2982.43123l-1.4993.20868v-6.91923c0-5.88747.0782-6.91922.52443-6.91922.28844 0 .74028-.51594 1.00409-1.14653.43524-1.04035.68888-1.18645 2.73876-1.57767l2.25911-.43114 1.63963 1.84226 1.63964 1.84225.90039-.8387.90039-.8387-1.04072-2.06166c-.5724-1.13391-1.04072-2.24236-1.04072-2.46322 0-.22087.81958-1.29696 1.8213-2.39132 1.00171-1.09435 2.37465-3.15319 3.05098-4.57518l1.22968-2.58544.83186.83185.83185.83185-.70903 8.27998c-1.01437 11.84594-3.50379 38.69904-3.75185 40.47095-.19227 1.37338-.29636 1.49931-1.23925 1.49931-.56614 0-1.09391-.19844-1.17282-.44097z" stroke-width=".352778"/><path d="m100.86272 152.32464c-.978129-.19113-1.642014-1.80667-1.367169-3.32697.192102-1.06262.0901-1.27386-.945797-1.95862-.913895-.60411-1.76203-.78368-3.983344-.84337-1.552223-.0417-3.100391.043-3.440374.18822-.339982.14523-1.01467.16454-1.499306.0429-.757424-.1901-.881154-.42088-.881154-1.64355 0-1.30464.107156-1.46716 1.294479-1.96325.751752-.31411 1.676171-.44548 2.204862-.31334.500711.12514 2.180382.35838 3.732604.51829 1.552222.15992 3.615972.51757 4.586109.79478l1.76389.50401.0994 4.12267c.10487 4.35011.15936 4.21502-1.56419 3.87823z" stroke-width=".352778"/><path d="m99.906005 166.93299c-.338321-.88588-.577095-2.54808-.577095-4.01736 0-2.26742-.112981-2.6705-1.185573-4.22978-1.900778-2.76325-1.94551-3.45287-.280875-4.33006 1.294084-.68193 2.349408-.18149 3.544418 1.68078l1.09703 1.70956v5.34898 5.34898h-1.01041c-.86494 0-1.09348-.21754-1.587495-1.5111z" stroke-width=".352778"/></g><path d="m124.1008 181.85299c-.65433-.10067.27533-12.97704.27533-14.02911 0-.70218-.56571-3.42957-1.25714-6.06088-.69143-2.6313-1.41192-5.3795-1.6011-6.10711-.31399-1.20766-.45033-1.32291-1.56508-1.32291h-1.22112v-7.36719c0-7.34184.003-7.36792.79375-7.57991.43656-.11699 1.37645-.21488 2.08863-.21753 1.13337-.004 1.31838.1162 1.48319.96532.10357.53358.6784 3.66889 1.27741 6.96736.599 3.29847 1.28192 6.94972 1.5176 8.11389l.4285 2.11667 2.46727.17639 2.46726.17639-.0195 2.49308c-.0228 2.90493-.90458 4.73125-2.62943 5.44571-.70102.29037-1.05683.68915-1.06003 1.18803-.0132 2.05004-.83797 15.44295-2.57688 15.17543z" fill="url(#b)" stroke-width=".352778"/><path d="m109.43801 174.63442c-.29646-6.84613-.29797-87.601806-.002-94.441686l.2267-5.234899.95257.04117.95257.04117.23041 8.688603c.29869 11.263376.29891 76.053762.00029 87.328592l-.23012 8.68861-.95109.0822-.9511.0822z" fill="url(#a)" stroke-width=".382856"/><path d="m95.448354 174.101c-1.424284-.16944-1.5875-.2828-1.5875-1.10263 0-.50257-.201849-1.15795-.448557-1.45639-.337329-.40808-.354997-.7887-.07125-1.53502.585735-1.5406.03773-4.63481-1.290521-7.28671-1.228104-2.45194-1.436024-3.59543-.819446-4.50672.293179-.43331.795944-.0679 2.77549 2.01745 2.78584 2.93467 3.03023 3.66956 2.667688 8.02182-.199708 2.39746-.146241 2.94483.325931 3.33669.570427.47341.789407 2.35429.300246 2.57889-.145521.0668-.978959.0365-1.852084-.0674z" fill="#273839" stroke-width=".352778"/></g></svg>