<svg height="512" viewBox="0 0 135.46667 135.46667" width="512" xmlns="http://www.w3.org/2000/svg" xmlns:xlink="http://www.w3.org/1999/xlink"><linearGradient id="a" gradientTransform="matrix(1.1187547 0 0 1.118754 -12.775763 -12.173386)" gradientUnits="userSpaceOnUse" x1="110.63673" x2="110.43572" y1="142.23927" y2="177.79082"><stop offset="0" stop-color="#273839"/><stop offset="1" stop-color="#273839" stop-opacity="0"/></linearGradient><path d="m117.35128 173.92685-1.13452-6.30398-.87406-3.04629c-.48074-1.67546-1.00817-3.49028-1.17205-4.03295-.28279-.93641-.44636-.98668-3.21081-.98668h-2.91281l-1.15629 4.04537-1.15629 4.04539-1.09295 6.27914.54627 20.63827h-2.17406l-2.20988-20.63827c-2.074539-1.48471-4.033389-3.06582-4.033599-6.27914v-2.1534-2.15341l2.8298-.11595c2.633159-.10796 2.849989-.18453 3.120409-1.10265.15984-.54267 1.04135-5.2705 1.95892-10.50629l1.66831-9.51962h4.63074 4.63075l1.6683 9.51962c.91757 5.23579 1.79909 9.96362 1.95893 10.50629.26984.91617.48981.99491 3.07802 1.10178 2.69734.11143 2.79214.14966 2.93328 1.18403.0802.58789.0549 1.60171-.0563 2.25292-.0692 2.45001.36935 4.91182-3.82763 7.26582l-3.43621 20.63827h-1.76451zm-21.102849-19.00728c-.1297-1.13962-1.05186-10.86334-2.04925-21.60827-.99741-10.74493-2.13993-22.99949-2.53893-27.23234-.65538-6.952427-.66646-7.762841-.11462-8.38677.84186-.951847 1.14844-.868936 1.45943.394663.45323 1.84155 2.2198 4.527387 4.64262 7.058517l2.3175 2.42112-1.28915 2.61429-1.28916 2.61427 1.09008 1.08202 1.09009 1.082 2.016149-2.10543 2.01615-2.10542 2.52004.47549c2.32577.43885 2.56384.58031 3.08814 1.83513.50292 1.20367.71487 1.34536 1.84772 1.23525 1.04749-.1018 1.34277-.34599 1.6277-1.34613.32246-1.13185.53869-1.25689 2.93816-1.69901l2.59007-.47723 2.10863 2.08242 2.10863 2.08244 1.06505-1.06503 1.06504-1.06504-1.32663-2.74227-1.32663-2.7423 2.39526-2.61401c1.48682-1.62259 2.81599-3.57973 3.50452-5.160217.61009-1.400414 1.32606-2.546208 1.59105-2.546208 1.76209 0 1.63162 2.089698-3.43136 54.958025l-.48191 5.03206h-1.09262c-1.2642 0-.82599 1.86043-3.7982-16.12534l-1.91474-11.58662-3.15875.32064c-4.0056.40659-5.1868.40846-9.10968.0144l-3.18824-.32025-2.30048 13.84859-2.300479 13.84857h-1.06769c-.99496 0-1.08376-.14116-1.30351-2.07202zm-36.648319-20.07812c-2.919158-.37259-6.570847-1.60814-7.796083-2.63781-.437427-.3676-1.704189-2.71079-2.815028-5.20708-3.021889-6.79086-2.891451-6.20854-1.649487-7.36373 1.586552-1.47569 4.883869-3.03433 9.782079-4.62397 5.615678-1.82248 29.246857-8.49997 30.545854-8.63138l1.000214-.10113.696 6.31473c.51847 4.70418.58694 6.56472.26841 7.29483-.23516.53904-.59099 2.58146-.79074 4.53872-.2943 2.8838-.568604 3.85135-1.446536 5.10218-1.69366 2.41307-3.12787 2.91751-11.805278 4.15228-9.6791 1.37731-12.626798 1.5916-15.989405 1.16241zm14.065897-4.12511c2.830661-.34189 5.538003-.87338 6.016315-1.18109.478313-.30772 1.317211-1.32319 1.864226-2.25659.968025-1.65181 3.768469-8.61237 3.906602-9.70994.03793-.30125-1.217261-1.67766-2.789279-3.05871-2.74124-2.40822-2.943131-2.51072-4.933395-2.50457-1.194774.003-5.675196.92092-10.560631 2.16193-10.883679 2.76471-10.733464 2.61842-8.741148 8.51243 1.358929 4.02021 2.573512 6.4731 3.82487 7.72446.797502.79749 1.322528.93368 3.599738.93368 1.466332 0 4.982051-.27972 7.812702-.6216zm82.699651 4.30828c-4.49789-.50073-16.22821-2.20902-17.56289-2.55769-1.97878-.51693-3.95778-1.99202-4.76389-3.55085-.34046-.65836-.78398-2.79152-.9856-4.74035s-.55019-3.88639-.77459-4.30569c-.28851-.53908-.21381-2.64142.25506-7.17806.3647-3.52862.71259-6.47667.77309-6.55121.14061-.17321 25.79901 7.06376 31.54428 8.89708 4.90787 1.56611 8.32654 3.23871 9.78611 4.78789l.99247 1.0534-2.45571 5.5254c-2.24726 5.05641-2.58967 5.5999-4.03416 6.40302-2.79701 1.55514-9.01932 2.63506-12.77417 2.21706zm3.34075-4.62351c1.2937-1.2937 2.68936-4.17478 3.93174-8.11635.89729-2.84671.981-3.49642.57638-4.47326-.26035-.62855-.89805-1.30429-1.41712-1.50164-2.51366-.95568-17.09399-4.31084-18.73344-4.31084-1.65389 0-2.12525.21747-4.15535 1.91701-3.82377 3.20116-3.81992 3.19433-2.95254 5.22937.40642.95356 1.05096 2.71056 1.43228 3.90444.97146 3.04142 2.93127 6.20328 4.13772 6.67562.86769.33971 3.48208.75542 8.51152 1.35343.65121.0774 2.65731.16739 4.458.19991 2.96153.0535 3.36339-.0303 4.21081-.87769zm-56.1301-24.76422c-3.732939-1.07768-9.173489-9.396697-9.966019-15.238803-.4439-3.272163.0465-9.386524.88792-11.070639.2948-.590062 2.1743-3.330056 4.17666-6.08888 3.251219-4.479493 3.797899-5.04942 5.110719-5.328066 2.03663-.432273 13.50334-.330789 14.60724.129279.49629.206833 2.58557 2.678584 4.64287 5.49278 4.66129 6.376228 5.0519 7.517815 4.8365 14.135022-.14149 4.346304-.27567 5.072308-1.43335 7.755237-2.67756 6.20528-6.46222 10.07432-10.29912 10.52875-2.37046.28075-2.61438-.2203-.68711-1.41142 1.70792-1.05556 5.10608-4.655777 5.96837-6.323264.98753-1.909646 1.25606-5.308947.50943-6.448454-.54132-.826155-.53699-1.033919.0434-2.084976.45176-.81809.63866-2.112102.62463-4.324757-.0166-2.618416-.19844-3.50253-1.0653-5.179412-1.33181-2.576339-4.13794-5.050958-6.68809-5.897984-2.65737-.882631-7.37788-.627153-9.60715.51995-1.8114.932078-4.51497 3.70441-5.533719 5.674438-1.02412 1.980435-1.20391 6.117561-.37438 8.615038.50182 1.510821.5677 2.178649.24659 2.499754-.68264.682642-.49917 4.254722.30833 6.003033 1.034559 2.239937 2.920059 4.461484 5.295709 6.239544 1.12672.84331 2.10777 1.69362 2.18012 1.88959.16688.45194-2.09964.40058-3.78427-.0858zm4.89798-13.157781c-1.95425-.696782-3.33611-1.985754-4.24869-3.963038-.92508-2.004362-.92508-3.915711 0-5.920073 2.75003-5.958514 10.7556-5.958514 13.50563 0 .40074.868278.72861 2.200294.72861 2.960036 0 3.060262-2.44875 6.261064-5.42165 7.086715-1.89532.526386-2.71059.497153-4.5639-.16364z" fill="url(#a)" stroke-width=".394672" transform="translate(-43.338034 -63.366707)"/></svg>