<svg height="512" viewBox="0 0 135.46667 135.46667" width="512" xmlns="http://www.w3.org/2000/svg"><g fill="#273839" transform="matrix(1.0844137 0 0 1.0844135 -54.538814 -72.48841)"><path d="m263.30664 141.24805c-80.27578-.24102-144.87909 64.41407-144.84961 144.96679.009 24.24594 4.75134 44.17801 15.54492 65.33399 20.63388 40.44347 60.45371 69.94057 104.39844 77.33594 28.5117 4.79814 60.2063.37115 86.55078-12.0918 31.99782-15.13739 60.31827-46.00475 72.90039-79.45508 35.49298-94.36017-34.10001-195.78824-134.54492-196.08984zm-.11719 18.21679c10.70111.0768 21.44164 1.31795 30.11719 3.70899 25.47674 7.0216 43.52255 17.80061 61.36914 36.65429 5.84678 6.17674 10.63086 11.78999 10.63086 12.47461 0 .73289-12.19825 1.25234-29.66602 1.26368l-29.66796.0195-5.66602 10.53906c-3.11667 5.79628-5.66602 10.88771-5.66602 11.31445 0 .42671 18.92898.77539 42.06641.77539h42.06836l1.98047 4.73828c1.08873 2.60565 2.30339 6.35436 2.69922 8.33204l.71875 3.5957-49.24414-.36328c-42.78588-.31699-49.46482-.099-50.92969 1.66601-1.49386 1.79981.0802 2.03125 13.81055 2.03125 11.52446 0 15.48752.42656 15.46484 1.66602-.0165.91669-2.08447 4.96668-4.5957 9l-4.56446 7.33398 42.26172.66602 42.26367.66797v8 8l-47.39843.34961-47.39649.34961-6.22461 10.65039-6.22461 10.65039h52.10352 52.10352l-.92188 5c-.50687 2.75002-1.63218 6.50065-2.5 8.33398l-1.57812 3.33203-54.67188.34766-54.67187.34766-6.31055 10.53125c-3.47074 5.79156-6.3086 10.88458-6.3086 11.31836 0 .43377 24.93339.78906 55.40821.78906h55.4082l-2.4082 4.11523c-4.07883 6.96949-21.33245 24.69234-30.19922 31.01953-14.88257 10.62002-31.45156 18.03954-47.69336 21.36133-20.09745 4.11039-39.47878 3.6986-59.05469-1.2539-11.26405-2.84969-33.06759-13.68556-43.54297-21.64063-9.56685-7.26516-23.61567-21.94158-27.8125-29.05469l-2.66015-4.50781 38.94336-.35351 38.94336-.35352 2.03711-10.66602 2.03711-10.66796-46.66602-.66602-46.66602-.66602-2.29882-6c-4.46367-11.65402-8.97198-10.66796 48.71679-10.66796h51.15821l.82617-5c.45456-2.74999.83424-5.74933.84179-6.66602.011-1.24902-4.35048-1.66602-17.40429-1.66602h-17.41992l.41992-4.33398.41797-4.33398-36.66602-.26172-36.66602-.26368-.42773-4.94336c-.23435-2.71868-.0723-6.3504.35938-8.07031l.78515-3.12695h39.1875 39.1875l3.42188-10.17774c1.8822-5.59816 3.10156-10.69883 2.70898-11.33398-.39254-.63519-18.68946-1.1543-40.66016-1.1543h-39.94726l.91016-3.66601c.50069-2.01668 1.71919-5.61667 2.70898-8l1.80078-4.33399h40.44922 40.44727l3.2832-11 3.2832-11-37.08398-.35351c-21.36669-.20406-37.08203-.87287-37.08203-1.57813 0-.67317 4.87857-6.37993 10.84179-12.67968 17.30185-18.27818 37.55304-30.22174 62.49219-36.85938 8.52002-2.26764 19.1817-3.3561 29.88281-3.2793z" stroke-width="1.33333" transform="matrix(.26458334 0 0 .26458334 43.338034 63.366707)"/><g stroke-width=".352778"><path d="m108.77117 188.50504c-9.551673-1.1998-16.411553-3.63556-23.395753-8.30721-3.207291-2.14532-8.177859-6.48938-8.177859-7.14709 0-.2054.912812.49509 2.028472 1.55663 17.025537 16.19973 43.6345 17.87405 62.45045 3.92959 1.69291-1.25461 3.91146-3.09639 4.93011-4.09283 1.01864-.99645 1.85208-1.63522 1.85208-1.41949 0 1.15129-7.37394 7.03023-12.00229 9.56894-5.34744 2.93314-13.00269 5.23754-19.57132 5.8914-1.16417.11589-2.67229.26751-3.35139.33694-.6791.0694-2.82222-.0732-4.7625-.31688z" fill-opacity=".5"/><path d="m107.00944 97.643022c-.0586-.097.18034-1.52576.53092-3.175.35057-1.64924 1.63016-7.880173 2.84352-13.846527 1.21336-5.966355 2.31737-10.847917 2.45336-10.847917.13598 0 .43719.912812.66934 2.028472 2.97117 14.278515 5.24403 25.676542 5.15036 25.828332-.0642.10396-1.40189.10965-2.97274.0126-1.57084-.097-4.14132-.097-5.71217 0s-2.90401.097-2.96259 0z"/><path d="m152.11478 156.02959c-.12366-.32223.2746-2.12137.885-3.99809 3.98219-12.24341 2.20634-25.85008-4.75238-36.41285-5.77568-8.76702-14.02318-14.82441-24.15884-17.743498-2.37098-.68285-2.99221-1.00074-3.07944-1.5758-.10632-.70089-.0538-.70744 1.94028-.24204 16.77754 3.91567 30.09551 18.121858 33.07031 35.275868.70438 4.06177.70541 11.09806.002 15.16945-.63104 3.65367-2.62467 9.76027-3.25505 9.9704-.23502.0783-.52847-.12121-.65212-.44344z"/><path d="m71.948073 154.70471c-5.141077-12.77534-3.409397-28.28408 4.498885-40.29154 3.644361-5.53338 10.898139-11.94671 16.953479-14.989188 3.73914-1.87871 11.098033-4.17948 11.465603-3.58473.389.62941-.66467 1.27347-3.35313 2.04963-4.590453 1.32527-7.772543 2.792808-11.746223 5.417218-6.407453 4.23178-11.173083 9.60961-14.676453 16.5618-3.20433 6.35877-4.415566 11.66239-4.390912 19.22639.01777 5.45248.594188 8.97807 2.218184 13.56729.655018 1.85101.881436 2.97139.675025 3.34022-.514676.91968-.862921.64499-1.644458-1.29709z"/><path d="m156.68623 161.05471c.10403-.24253.74401-1.73476 1.42217-3.31607 5.88529-13.72295 4.70588-31.00956-2.98788-43.7931-4.4015-7.31332-10.11903-13.11797-17.02198-17.281328-4.58733-2.76675-12.41672-5.73082-16.68167-6.3154-.84326-.11558-1.5332-.35034-1.5332-.52169 0-.34408.35913-.27738 5.46806 1.01556 18.71665 4.7367 33.4993 21.124828 36.5238 40.490498.49594 3.17542.49266 12.00189-.006 15.17837-.75332 4.80224-4.15703 14.98413-5.00905 14.98413-.20007 0-.27865-.19844-.17461-.44097z" fill-opacity=".5"/><path d="m68.099052 160.20692c-1.248185-2.48715-2.48032-5.90539-3.477488-9.64735-.941942-3.53472-.987096-4.06726-.987096-11.64167 0-7.57636.04491-8.10564.987078-11.63322.542892-2.03265 1.477528-4.96952 2.076967-6.52639 4.61293-11.98071 14.680672-22.395658 26.598044-27.515308 4.2785-1.83802 12.476003-4.04811 12.476003-3.3636 0 .14261-.68994.35385-1.5332.46943-4.10271.56234-12.062983 3.53364-16.296483 6.08291-5.4677 3.29248-11.601828 9.005238-15.212689 14.167698-3.934619 5.62534-6.942416 12.82401-8.220907 19.67543-.655145 3.5109-.846714 10.30453-.398927 14.14713.512585 4.39863 1.991535 9.96447 3.687928 13.87903 1.315846 3.03641 1.521222 4.33786.30077 1.90594z" fill-opacity=".5"/><path d="m106.47812 160.20492c0-.20551 1.03176-4.64258 2.29281-9.86014s2.29292-9.74735 2.29306-10.06621c.00021-.50454-.58139-.58677-4.48499-.63406-2.46688-.0299-4.5232-.0923-4.56961-.13873-.0726-.0726 1.26112-4.02668 6.20713-18.40303l.97095-2.82223 6.23004-.0963c4.37483-.0677 6.23005.0199 6.23005.29389 0 .21463-1.67945 3.63142-3.73211 7.59286l-3.7321 7.20264h4.08488c2.24669 0 4.08489.0857 4.08489.19044 0 .4168-1.63053 3.29663-8.28118 14.62623-6.85124 11.67128-7.59382 12.85595-7.59382 12.11467z"/><path d="m156.40733 172.91069c-7.1729-2.99979-13.09807-5.51059-13.16706-5.57958-.069-.069.75296-1.21171 1.82654-2.5394 1.07358-1.32768 2.55375-3.48185 3.28927-4.78705.73553-1.30519 1.42631-2.37676 1.53507-2.38125.10877-.004 2.56523 2.41277 5.45879 5.3717 2.89357 2.95892 7.48062 7.64205 10.19345 10.40694 2.71282 2.7649 4.70137 5.01262 4.41898 4.99493-.28238-.0177-6.38215-2.48652-13.55504-5.48629z"/><path d="m60.98721 172.52011c3.196135-3.24997 7.786409-7.93309 10.200608-10.40695 2.414199-2.47385 4.476205-4.49775 4.582235-4.49755.10603.00019.6566.83363 1.223488 1.85208 1.143655 2.05464 2.149992 3.493 4.205549 6.01098.758715.9294 1.3085 1.7608 1.221744 1.84756-.131024.13102-9.978836 4.2776-17.570499 7.39833-1.067153.43868-3.52114 1.45167-5.453305 2.25109-1.932165.79941-3.672315 1.45349-3.867 1.45349-.194686 0 2.261045-2.65907 5.45718-5.90903z"/><path d="m107.40761 182.63977c-8.859153-1.22838-19.001353-5.96558-23.981393-11.20117-.981322-1.03168-.986942-1.05996-.256722-1.29172.557136-.17683 1.169745.11298 2.414392 1.1422 5.0592 4.18351 10.5992 7.04591 16.989523 8.77813 4.52256 1.22593 12.76703 1.55192 17.37454.68699 6.65406-1.2491 13.01025-4.03403 18.14143-7.94858 1.66824-1.27269 3.23347-2.45831 3.47828-2.63471s.7445-.20317 1.11042-.0595c.58074.22803.41865.48971-1.27496 2.0584-5.15211 4.77208-13.36005 8.73515-20.99028 10.13483-2.99006.5485-10.13796.73268-13.00523.33511z"/></g></g></svg>