<svg height="511.99997" viewBox="0 0 135.46666 135.46666" width="511.99997" xmlns="http://www.w3.org/2000/svg"><g fill="#273839" transform="matrix(1.2039441 0 0 1.211917 -84.507908 -145.473872)"><path d="m174.2536 154.79233h-26.9879v-26.13902h-13.0529v-5.99693l19.05067-.0004v26.14771h26.81098v20.4195h-5.99738z" fill-opacity=".5" stroke-width=".352778"/><path d="m72.829712 148.80369h26.810977v-26.14731h19.049841l.00031 5.99693h-13.06152v26.13902h-12.877575c-3.262769-.003-3.290205-1.33327-4.955308-3.28039-1.590443.85894-3.87399 1.18672-5.12707 2.54153-.663136.6474-2.508999.76215-3.856814.73886v14.43086h-5.982821z" fill-opacity=".5" stroke-width=".352778"/><path d="m115.26078 139.06018v25.75278c-.66343.002-1.55068-.0559-2.00307.61779-1.01843 1.48153-2.62741 2.05322-3.19944 3.6158-.68545 1.66412-3.08659 3.37404-4.83022 3.51658-1.22916-.57769-1.23656-2.63611-2.54631-3.05563-1.06275-.49658-1.89362-2.90117-2.67206-4.69454h-10.422776v1.71436c0 1.45898.139727 1.82389.883445 2.31046l.882926.57774c.07253 4.25059.381663 9.01814-.882926 12.62094-.656213 1.46521-.82486 2.80489-.883813 5.00172h25.674244v25.51689c.12954.12935 1.44318.2359 2.91927.2359 2.44432 0 2.71463-.0711 3.03227-.79406.34257-.77965.45887-.79322 6.5319-.79322 6.07301 0 6.18926.0136 6.53183.79322.2832.64455.6314.79406 1.85441.79406h1.50627v-25.75279h24.45557c.35241-.87791.72566-1.91414.51575-2.82098-.56641-2.24708-.60348-2.82308-.17968-2.82308.30625 0 .13844-.36901-.13642-.86972-.69383-1.5712-.551-6.8114-.57065-12.16721 1.81475-1.31146 1.58306-1.62194 1.58966-3.54423h-25.67423v-22.48002l-1.32461-1.63504c-1.46269-1.80481-2.54467-2.09967-3.09645-.84388-.3431.78085-.45165.79375-6.70786.79375-6.25622 0-6.36528-.0129-6.70838-.79375-.30827-.70155-.60603-.79375-2.56183-.79375zm6.00588 27.83353 1.82072.71675c1.39167.54772 2.03592.63533 2.7321.37104 1.1955-.45385 1.21867-.4489 1.21467.2713-.002.33954.34242 1.60176.76544 2.80448l.76907 2.18643-.93675 1.41335c-.70869 1.06932-.88428 1.67429-.72145 2.48719.20583 1.02765.12879 1.11274-1.7819 1.95647-1.09859.48512-2.20271.88211-2.45367.88211-.25095 0-1.14401-.58772-1.98425-1.30586-1.79527-1.53438-3.33782-4.63846-3.02089-6.07921.11336-.51537-.0333-1.5096-.32605-2.20917-.62327-1.48945-.54042-1.59564 2.12709-2.73058z" stroke-width=".353042"/><g fill-opacity=".5" stroke-width=".352778"><path d="m134.2128 222.84512h13.05304l-.00014-26.44965h26.81098c.009-2.26771-.29888-8.4548.53988-9.79427.30101-.42975.43455-.83101.34176-1.0757-.39561-.78477-.88489-.86696-.88164-1.83906h5.99777l-.00028 18.69766h-11.86711c-.53899-1.91744-1.94989-4.48995-3.66801-3.8737-1.74368.47434-2.70478-.38884-4.48602-1.1118-.86136.45347-4.59175 1.83633-4.6733 2.67027-.28378.94336-1.51691 1.70771-2.11626 2.31523v26.81097h-19.05041z"/><path d="m99.640689 202.3841h-15.056907c-.530931-.062-1.041555-.86915-1.392138-1.50229-2.428917 1.28325-3.021656 1.50229-5.506469 1.50229h-4.855463v-18.69766h5.982821v12.70903h26.816787v26.44965h10.97766l.60095 1.11365c.68157 1.26305 1.55536 2.26196 2.15268 2.46106.22285.0743.50159.72913.61942 1.45521l.21423 1.32014-20.553571-.00011z"/></g></g></svg>