<svg height="511.99997" viewBox="0 0 135.46666 135.46666" width="511.99997" xmlns="http://www.w3.org/2000/svg"><path d="m122.55658 231.28842v-11.16093h-2.7647-2.76472l-3.36285-4.12912c-1.84957-2.27101-3.36288-4.25555-3.36288-4.41007s.8757-1.41898 1.94598-2.80988c1.46265-1.90082 1.82139-2.65352 1.44436-3.03055-.34362-.34361-3.26564-.50181-9.27716-.50229-7.47789-.00043-9.00208-.11389-10.30744-.76594l-1.53189-.76526-.125272-4.26742-.125271-4.2674h4.830363 4.83037v-2.18842-2.18842h-4.81451-4.814524v-3.85484-3.85486l3.610874-1.90328c1.986-1.04681 5.9-3.1528 8.69778-4.67999 2.79779-1.52716 5.46575-2.77666 5.92883-2.77666.6134 0 1.5874-1.30703 3.58777-4.81453l2.74577-4.8145h11.69776 11.69777l2.74578 4.8145c1.95449 3.42705 2.98119 4.81453 3.56265 4.81453.68946 0 14.29452 7.06068 17.41298 9.03687.9307.58979.99312.89099.87538 4.2245l-.12678 3.58942-5.14278.12332-5.14279.12332v2.17454 2.17453h5.2522 5.2522v4.14909 4.14909l-1.76534.90061c-1.61626.82455-2.48995.89625-10.3441.84902-10.51412-.0633-10.58489-.0294-7.77387 3.71626 1.07448 1.43175 1.90091 2.73909 1.83652 2.9052-.0644.16612-1.64798 2.09678-3.5191 4.29035l-3.40205 3.9883h-4.58567-4.58566v9.65546 9.65545l-1.64132-.13585-1.64131-.13584-.11799-9.5196c-.0999-8.06124-.21723-9.51962-.76595-9.51962-.55413 0-.64799 1.51626-.64799 10.46861 0 5.75773-.1196 10.78014-.26567 11.16091-.17002.44309-.80032.69233-1.75073.69233h-1.48506zm9.92733-28.26905c5.94389-2.87738 7.71461-10.85638 3.53465-15.92738-2.69113-3.26482-8.1165-4.69497-11.86657-3.12811-2.1362.89256-4.68977 3.31355-5.59366 5.30319-.99002 2.17925-1.0562 6.24076-.13756 8.44322.8974 2.15159 3.06639 4.38752 5.23001 5.39139 2.43445 1.12955 6.40626 1.09254 8.83313-.0823zm7.59137-31.4554c-.70343-1.19301-1.60727-2.67018-2.00854-3.28262l-.72961-1.11352-8.81275.002-8.81275.002-.68308 1.20087c-.37569.66047-1.23148 2.13641-1.90174 3.27985l-1.21866 2.07901h12.72304 12.72305l-1.27896-2.16912zm-36.03984 70.14009c-.73955-1.1966-1.61229-8.37459-1.61229-13.26045 0-4.67438.1258-5.74849.76593-6.53943.73888-.91294.76596-.74833.76596 4.6566 0 3.08165.15936 6.35605.35412 7.27644.30587 1.44537.44636 1.59691 1.03082 1.11184 1.24364-1.03214 4.17797-5.70543 5.27025-8.39354.6961-1.71308 1.02359-3.25038.92118-4.3242-.0873-.91638-.1232-1.66615-.0795-1.66615s.61393.91214 1.26727 2.02698c1.10006 1.87709 1.14871 2.16024.65811 3.82972-1.17984 4.01479-8.70119 16.31884-9.34186 15.28219zm46.45224-3.07447c-3.04992-4.28028-5.36239-8.45617-6.47735-11.69683-.91967-2.67309-.80839-3.31851.82755-4.79901.91455-.82765.91589-.82636.91624.88028.0002.98997.55303 2.87744 1.31384 4.48566 1.4025 2.9646 4.71462 7.94672 5.283 7.94672.87955 0 1.39173-9.73701.71369-13.56819l-.34857-1.96958.86561.99615c1.12761 1.29766 1.55375 4.83457 1.22756 10.1888-.27106 4.44891-1.11712 10.02633-1.60793 10.59978-.15924.18604-1.38037-1.19265-2.71364-3.06378zm-58.678345-20.59036c-1.963941-.65326-2.079001-.77818-2.079001-2.25741 0-1.26742.521431-2.2121 2.73553-4.95612l2.735516-3.39021 6.89352-.00041 6.89351-.00039v2.08865c0 2.03447-.0939 2.1821-3.62004 5.68988l-3.62002 3.60123-3.93001-.0418c-2.30097-.0244-4.79179-.3285-6.009005-.73337zm60.021755-2.58331-3.45121-3.35853v-2.33134-2.33136h6.76872 6.76871l2.85576 3.39204c2.43272 2.88959 2.8402 3.61375 2.75088 4.8888-.0961 1.37275-.28616 1.56031-2.29327 2.26391-1.4065.49306-3.57474.77928-6.0684.80109l-3.88.0339zm1.36329-60.0891v-4.39326h-4.37681-4.37683v-3.93915-3.93915h4.37683 4.37681v-4.39325-4.39326l4.04859.12584 4.04854.12586v4.26801 4.26802l4.48628-.00045 4.48625-.00077v3.93915 3.93915h-4.36099-4.36099l-.12527 4.26741-.12528 4.26742-4.04854.12584-4.04859.12585zm-53.835-7.66386v-7.23379h-7.452638-7.452634l.121462-6.23699.121464-6.23698 7.331194-.11998 7.331192-.11997v-7.21118-7.2112h6.3464 6.34641v7.2112 7.21118l7.33119.11997 7.3312.11998.12146 6.23698.12146 6.23699h-7.44179-7.44179l-.12022 7.11235-.12022 7.11234-6.23698.12146-6.23698.12146z" fill="#273839" stroke-width=".437683" transform="translate(-59.62574 -110.15787)"/></svg>