<svg height="511.99997" viewBox="0 0 135.46666 135.46666" width="511.99997" xmlns="http://www.w3.org/2000/svg"><g fill="#273839" transform="matrix(1.2779008 0 0 1.2779017 -91.282325 -156.054832)"><path d="m201.62891 136.27734c-6.50301-.0447-14.97387.80785-24.96289 2.51758-45.54671 7.79584-51.62094 9.07171-52.35938 10.9961-.41091 1.07077-.0876 7.40578.71875 14.07812 9.07978 75.13686 11.08744 91.29002 11.71484 94.29297.69529 3.32802 1.21781 3.52667 10.90625 4.14844 12.14911.77968 9.61801-1.75774 33.23243 33.30664 9.242 13.7232 17.77551 25.8224 18.96289 26.88672 1.18734 1.06435 4.25758 2.54948 6.82422 3.30078 2.78033.81388 19.2199 1.26566 40.66796 1.11523 30.71978-.21539 36.59155-.57883 40.03711-2.46875 2.69224-1.4767 10.14151-11.25062 22.35547-29.33203 10.0752-14.91522 19.16444-28.22331 20.19727-29.57226 1.44502-1.88735 4.33828-2.6203 12.55664-3.1836l10.68164-.73242.7168-4.81641c.39435-2.64846 1.02958-7.51443 1.41211-10.81445.38252-3.29998 2.79339-23.09997 5.35742-44 2.56403-20.89999 4.81612-41.57173 5.00586-45.9375l.3457-7.9375-12.66602-2.30664c-48.7785-8.8783-56.78262-9.97976-67.05273-9.23633l-10.38477.75195-7.78125 14.66602-7.78125 14.66602-15.16796.36132-15.16602.35938-7.70703-15.25586-7.70703-15.25586-10.29297-.52344c-.84743-.0431-1.73506-.0678-2.66406-.0742zm7.17968 47.22657c12.37069.36351 23.00754 6.59134 30.60352 18.03515 4.48566 6.75795 5.22993 7.35346 6.49414 5.20117 4.28844-7.30117 12.14093-15.71289 17.73633-19.00195 5.62499-3.30644 7.66522-3.7379 17.6914-3.72656 12.61331.0129 16.85977 1.60391 24.39649 9.14062 10.96482 10.96483 14.05026 31.66668 6.95117 46.62696-3.62559 7.64027-13.30183 17.30379-30.16797 30.1289-9.08239 6.9063-21.31299 16.24287-27.17969 20.7461l-10.66796 8.1875-25.26758-19.06446c-40.74395-30.74014-46.83287-38.37338-46.61328-58.44336.13436-12.27828 3.38361-20.74689 10.80664-28.16992 6.03632-6.03628 11.37334-8.58408 19.8125-9.45508 1.83417-.1893 3.63705-.257 5.40429-.20507z" stroke-width="1.33333" transform="matrix(.26458333 0 0 .26458333 59.62574 110.15787)"/><g stroke-width=".352778"><path d="m119.07571 147.90509-2.33935-4.40972-2.89073.001c-1.89872.00086-5.85678.54398-11.53379 1.58265-4.75368.86974-9.000239 1.58353-9.436809 1.58619-.73714.005-.79375-.149-.79375-2.15245 0-1.90512.11341-2.26005.97014-3.03637.53358-.48349 3.589519-1.89256 6.790979-3.13127 3.20145-1.23871 6.69395-2.59412 7.76111-3.01203 3.2909-1.28876 4.12513-2.14177 6.12091-6.25875l1.81659-3.74734 8.93439-.0943 8.9344-.0943 1.78555 3.79847c1.0905 2.31985 2.18823 4.12581 2.81998 4.63936.56893.46249 4.39683 2.1518 8.50644 3.75402 4.10961 1.60223 7.92048 3.12005 8.46861 3.37294 1.2439.57389 2.00365 1.99876 1.99662 3.7445-.0103 2.55976.27877 2.5349-9.2315.79404-6.45689-1.18193-9.45082-1.57027-12.10616-1.57027h-3.52778l-2.28139 4.32153-2.2814 4.32153h-3.07186-3.07186z"/><path d="m114.83545 211.35885c-2.71639-1.86241-5.31152-3.72515-5.76697-4.13942-1.19362-1.08572-2.06784-2.96655-3.01395-6.48439-.7063-2.62616-1.52357-4.23975-5.46164-10.78332-2.54708-4.23227-4.63105-7.76446-4.63105-7.84931 0-.39154 4.16585-.105 4.75692.3272.36215.26481 2.8928 3.78737 5.62368 7.82792s5.41344 7.67358 5.96124 8.0734c.95609.69781 1.44385.72694 12.17083.72694 10.94775 0 11.19694-.0158 12.26259-.77592.59826-.42676 3.08151-3.76774 5.51833-7.4244 6.1154-9.1767 5.86283-8.9094 8.41832-8.9094 1.3343 0 2.08531.14586 2.08531.405 0 .22276-2.03218 3.75494-4.51597 7.84931-3.47458 5.72763-4.66657 8.01376-5.16905 9.91375-.85409 3.22944-1.96118 5.71653-3.19428 7.17595-.54777.6483-3.14323 2.59299-5.76768 4.32153l-4.77173 3.14279-4.78301-.006-4.783-.006z"/><path d="m116.24656 224.94861c-16.89012-.64004-31.820169-4.4229-36.694699-9.29743-1.95581-1.95581-2.2888-3.40325-1.25093-5.43763.9017-1.76749 3.20545-3.51529 6.63661-5.03505 1.4067-.62307 2.55531-1.22323 2.55246-1.33369-.003-.11045-.91566-.54508-2.02847-.96583-8.28796-3.13366-10.87994-4.14987-11.13141-4.36414-.15877-.13529 3.05592-.77359 7.14375-1.41845s7.43242-1.29342 7.43242-1.44123c0-.25682-1.53433-2.6425-10.63062-16.52923-2.22416-3.39549-4.18362-6.40275-4.35437-6.68281-.17074-.28006 3.8103 3.21244 8.84676 7.76111l9.15719 8.27031 3.569329 6.7258c2.60529 4.90922 3.5237 6.96453 3.40037 7.60966-.14532.76022-.59667 1.02242-3.22673 1.87443-4.041929 1.3094-6.993319 2.8023-8.610889 4.35564-5.6393 5.41538 3.38047 10.91152 22.133679 13.48705 5.23499.71896 21.56804.8373 28.04583.20321 10.01174-.98002 18.16321-3.05309 22.63355-5.75612 6.79883-4.11098 4.34621-8.81336-6.40577-12.28173-1.64924-.53201-3.20985-1.16278-3.46803-1.40171-.38539-.35667.13506-1.59521 2.90777-6.91977 1.85745-3.56694 3.57681-6.82959 3.8208-7.25032.36062-.62184 5.35809-5.23206 17.85942-16.4755.45939-.41316-1.29504 2.50318-3.89873 6.48075-9.28787 14.1888-10.57547 16.1942-10.57729 16.47377-.001.15575 3.06775.79055 6.81947 1.41069 8.95415 1.48006 8.33621 1.35025 7.70326 1.61817-.29105.12319-3.3073 1.27756-6.70278 2.56527-3.39549 1.28771-6.30242 2.46284-6.45985 2.61141-.15743.14856.7906.72778 2.10674 1.28714 5.10342 2.16899 7.93254 5.25576 7.33027 7.99787-.31788 1.44732-2.84869 3.88354-5.32941 5.13023-10.24063 5.14643-27.81493 7.54342-49.3297 6.72813z" fill-opacity=".5"/></g></g></svg>