<svg height="512" viewBox="0 0 135.46667 135.46667" width="512" xmlns="http://www.w3.org/2000/svg"><path d="m99.517339 194.51142c-.765309-.63083-1.754459-1.73429-2.198119-2.45216-.778736-1.26002-.786034-1.38483-.210648-3.60531 1.061238-4.09545 2.831747-14.17422 3.484838-19.83771.85676-7.42968.85362-18.44223-.006-23.16681-1.270241-6.97646-2.89824-10.23563-7.334356-14.68303-5.000726-5.01347-10.323069-8.87333-15.845798-11.49168-1.914247-.90754-2.951354-1.61886-2.950568-2.02369.0021-1.05615 2.86655-5.00333 5.788742-7.97667 4.552272-4.63197 11.900889-9.977391 13.716412-9.977391.498149 0 .446466.35895-.327521 2.275171-2.081413 5.15307-2.144079 9.88892-.183548 13.87133 2.055427 4.17517 6.488186 7.58237 11.918377 9.16098l2.11779.61565 1.23598 6.17741c.6798 3.39757 1.53501 8.49123 1.90049 11.31922l.6645 5.14181.27387-2.28524c.52887-4.41323 2.2283-14.12536 3.02888-17.3099l.80887-3.21752 1.86322-.47035c4.86505-1.2281 9.86306-4.98329 11.84916-8.90266 1.99833-3.94352 1.993-8.87604-.0149-13.81755-1.11735-2.749816-1.09704-2.558589-.27162-2.557369 1.5056.0022 7.65217 4.370539 12.61581 8.966009 3.05698 2.83023 7.4437 8.94665 6.82307 9.51343-.0602.055-1.30419.63911-2.7644 1.29805-4.91212 2.21667-10.59623 6.28618-15.87495 11.36557-4.78649 4.60577-6.57618 8.31334-7.76418 16.08447-1.40353 9.181.0287 26.94482 3.24939 40.30168.41989 1.74149.76346 3.50853.76346 3.92677 0 .75669-3.60639 4.90445-4.26431 4.90445-.18978 0-.61302-.64274-.94051-1.42829-1.6206-3.88728-4.18542-5.41906-9.078-5.42162-1.67584-.00076-3.70185.18025-4.50223.4025-1.97452.54829-4.26625 2.70773-5.04913 4.75769-.35493.92934-.75436 1.68972-.88766 1.68972-.13329 0-.8685-.51614-1.633801-1.14696zm13.187671-9.73462c.97862-.97863 1.03682-1.9943.4383-7.65123-.31379-2.96593-.76411-7.33648-1.00071-9.71232-.88346-8.87162-.93507-9.04768-1.26625-4.3197-.16141 2.3043-.62109 7.01763-1.02151 10.47406-.89327 7.71066-.92211 9.85466-.14745 10.96063.69133.98703 2.13911 1.10707 2.99762.24856zm-22.009843-4.99858c-.133958-.13396-.243561-.72274-.243561-1.30842 0-1.87229-1.544987-5.30454-3.077718-6.83728-1.892992-1.89299-3.639299-2.7506-11.966846-5.87693-13.215607-4.96142-21.712152-10.06679-24.579299-14.76911-.410321-.67296-.74668-1.43122-.747463-1.68503-.0008-.25382.783877-1.26949 1.743691-2.25707 3.255999-3.35017 6.547578-9.14542 7.945794-13.98958 1.057262-3.6629 2.116215-11.16308 2.116215-14.98836 0-1.85573.126104-2.39184.562618-2.39184 2.951235 0 20.766382 9.47912 20.766382 11.04941 0 .21257-.342788 1.62347-.76175 3.13535-1.00076 3.61138-1.023689 8.62561-.04925 10.77068 1.428951 3.14561 6.345987 6.57338 12.04681 8.3981 2.590837.82928 2.679497.89951 3.13949 2.48687 1.857509 6.41.31697 15.51116-4.13076 24.40361-1.836226 3.67119-2.302183 4.32178-2.764353 3.8596zm-1.187961-25.61701 2.777699-2.20734-3.547204-1.76092c-8.355559-4.14792-10.496095-7.4419-10.611429-16.32948l-.05311-4.09232-1.5235.005c-2.948712.0108-6.712316.76311-8.599716 1.71954-1.870012.9476-5.999525 4.55624-5.633153 4.92262.102243.10224 1.118348-.17403 2.258009-.61393 2.74474-1.05947 7.016071-1.17081 8.467504-.22072.567417.37143 1.03167.80462 1.03167.96266s-1.118478.77461-2.485504 1.37015c-3.01239 1.31234-5.938049 3.85951-7.439271 6.47686-1.423693 2.48218-1.40439 2.7741.117243 1.77306 2.973738-1.95632 5.836035-3.16124 7.969066-3.35464 1.887367-.17115 2.241262-.10063 2.468641.49192.197167.51381-.07013.93891-1.039341 1.65292-2.284295 1.68284-5.593968 5.22944-6.454892 6.91699l-.832682 1.6322 1.277463-.84926c.702606-.4671 2.472384-1.43787 3.932843-2.15731 2.436348-1.20014 2.941637-1.30803 6.125739-1.30803 1.908699 0 3.587602.11724 3.730895.26053s-.741346 1.23483-1.965863 2.42564c-1.972429 1.91813-3.880838 4.91934-3.880838 6.10311 0 .23008.85451-.60432 1.89891-1.85424 1.0444-1.2499 2.484303-2.55035 3.199779-2.88986 2.220723-1.0538 7.615942-.67786 5.836491.40669-1.205534.73475-1.794024 2.21839-1.780271 4.48823l.01391 2.29571.981601-2.02944c.73453-1.51862 1.680761-2.58503 3.759305-4.23677zm40.181254 23.88169c-1.57631-2.73772-3.23964-7.13171-4.46705-11.8005-.86177-3.27802-1.02516-4.68073-1.01-8.67153.0118-3.10067.20504-5.27334.55417-6.23026.4978-1.36435.72654-1.52992 3.20221-2.31757 5.78381-1.84019 10.3956-5.07818 11.95365-8.39278 1.06423-2.26405 1.08616-6.62257.0529-10.50816-.41403-1.55695-.75682-3.0454-.76174-3.30769-.0177-.94093 4.87257-4.04824 11.60773-7.37565 3.77066-1.86284 7.39113-3.48895 8.04551-3.61356l1.18976-.22659.26281 4.1324c.34058 5.35514 1.1268 10.35293 2.1505 13.67021 1.56282 5.06429 4.96567 10.82836 8.28321 14.03089 1.35913 1.312 1.48896 1.58859 1.15633 2.46347-1.87644 4.93539-11.69723 11.04037-26.14413 16.25216-6.69934 2.41682-9.39862 3.83799-11.29433 5.94647-1.63181 1.81496-2.88385 4.78868-2.88385 6.84939 0 1.62957-.60657 1.34167-1.89765-.9007zm7.95411-21.73004c-.13663-.79664-.61257-1.83604-1.05763-2.30979-.44507-.47375-.80921-.97886-.80921-1.12248 0-.47335 4.5695-.27175 5.83612.25749.68264.28522 2.23402 1.61352 3.44749 2.95178l2.20634 2.43319-.78662-2.07752c-.54279-1.43356-1.50046-2.79776-3.08955-4.4011-1.26662-1.27798-2.18385-2.44267-2.03832-2.58821.14554-.14553 1.82144-.26085 3.72423-.25625 3.79449.01 4.96784.38557 8.75583 2.80872 1.17197.7497 2.13086 1.271 2.13086 1.15846 0-.46712-1.32376-2.74014-2.37424-4.07682-.61999-.78888-2.1819-2.23315-3.47091-3.20947-1.28902-.97633-2.41095-1.82643-2.49316-1.88911-.0823-.0627.0673-.37521.33229-.6945 1.08122-1.30279 5.21135-.37322 9.17345 2.06469 1.07939.66415 2.0442 1.12586 2.14402 1.02604.0999-.0999-.12697-.83815-.50401-1.64072-1.10888-2.36036-4.26473-5.23034-7.31294-6.6505-1.50212-.69985-2.73113-1.46839-2.73113-1.7079 0-.75973 2.39472-1.48165 4.76093-1.43527 1.2569.0246 3.30151.4081 4.54359.85214 1.24207.44405 2.31533.75035 2.385.68069.34804-.34805-3.92103-4.04506-5.72482-4.95771-2.03431-1.02926-5.45102-1.73906-8.44342-1.75408l-1.52653-.008-.0516 3.73622c-.0582 4.21199-.85724 7.86171-2.23659 10.21542-1.18711 2.02565-4.74283 4.70252-8.85067 6.66312-1.76505.84242-3.12899 1.61187-3.03098 1.70988.098.098 1.05763.83434 2.1325 1.6363 2.39116 1.78404 4.08666 3.86015 4.47651 5.4814l.29291 1.2181.21933-1.33306c.12064-.73319.10753-1.98486-.029-2.7815zm-29.41039-40.2829c-1.60955-3.37265-2.92645-6.28918-2.92645-6.48117 0-.19649 2.58035-.34907 5.90356-.34907 3.24696 0 5.90356.10732 5.90356.23851 0 .35148-5.36653 12.08957-5.68372 12.43188-.14879.16058-1.58741-2.46748-3.19695-5.84015zm4.31017 5.19352c0-.18343 1.55244-3.11747 3.44989-6.52008l3.44989-6.18658 3.21766-1.43373c1.76971-.78855 3.30235-1.34903 3.40588-1.24551.10354.10353-2.57288 3.34472-5.94757 7.20265-7.1052 8.12265-7.57575 8.63094-7.57575 8.18325zm-7.2841-5.0593c-7.73798-8.68814-9.178417-10.39233-8.78398-10.39233.213402 0 1.76873.62225 3.456279 1.38277l3.068291 1.38279 3.46426 6.08219c1.90535 3.34521 3.38956 6.15691 3.29825 6.24821-.0913.0913-2.1177-2.02533-4.5031-4.70363zm-37.854805-1.64049c-1.317136-2.08647-2.222025-5.77934-1.916077-7.81955.134382-.89613.680114-2.97219 1.212738-4.61347s.990068-3.880182 1.01654-4.975353c.04311-1.783715-.08949-2.13527-1.272549-3.373602-.726373-.760319-3.120313-2.721064-5.319866-4.357214-2.199554-1.636139-4.546938-3.545892-5.216411-4.243894-2.516286-2.623486-4.140541-7.911956-4.571769-14.885368-.126302-2.042443-.105687-3.713532.04582-3.713532.151504 0 1.077213.758599 2.057129 1.685774 5.759085 5.449119 14.995837 10.901158 21.0952 12.451554 5.893808 1.498138 23.04678 1.328612 31.23332-.308704l1.1807-.236129-.2333 1.437635c-.28714 1.769356-2.91314 6.262357-4.95452 8.477003-1.955681 2.121666-5.775576 4.476989-11.499231 7.090337-10.817033 4.938943-15.744456 8.971033-19.822626 16.220793-.828507 1.47283-1.63277 2.68184-1.787252 2.68668-.154483.004-.716014-.68048-1.247846-1.52296zm81.762165-1.22956c-1.90739-3.4355-4.30721-6.34956-7.39256-8.97666-2.85469-2.43072-5.42584-3.90948-13.04729-7.503935-6.62597-3.124971-8.57222-4.369144-10.89697-6.966168-2.78546-3.11168-5.62705-8.61876-4.84875-9.397055.0815-.08151 2.0303.126361 4.33057.462012 2.9477.430131 7.16178.619674 14.2755.64212 9.24351.02915 10.37268-.03941 13.41329-.815014 5.80623-1.480973 15.02125-6.806784 20.54297-11.872784 1.39375-1.278717 2.66165-2.324939 2.81756-2.324939.46123 0-.1768 7.115369-.95966 10.702352-.8462 3.877101-2.10443 6.534812-3.88187 8.199518-.69953.655151-3.32858 2.738198-5.84235 4.629004-6.50451 4.892546-6.70955 5.401642-4.73177 11.748449 1.32685 4.25793 1.50222 7.37133.56341 10.00302-.69582 1.95058-2.03994 4.23142-2.4936 4.23142-.17346 0-1.00528-1.2426-1.84848-2.76134zm-44.00365-6.30414c-.10375-.16795.0184-1.23916.27157-2.38047l.46029-2.07511 5.10287-.10678c2.80658-.0587 5.2389.0293 5.40517.19558.16625.16625.41784 1.28549.55908 2.48719l.25678 2.1849h-5.93351c-3.26344 0-6.01845-.13741-6.12225-.30535zm-5.372571-1.63733c-1.462879-.62134-2.818536-1.28847-3.01257-1.4825-.558739-.55874 1.566981-3.5128 2.35819-3.27714.35642.10613 1.505001.39684 2.552401.64597 3.29234.78312 3.29802.79014 2.51145 3.1054-.37348 1.09933-.91995 2.03009-1.21437 2.06838-.29443.0383-1.73223-.43876-3.195101-1.06011zm18.315191-.94734c-.36898-1.17057-.61453-2.18417-.54564-2.25248.0689-.0683 1.48897-.4733 3.15577-.89999 2.11831-.54227 3.17284-.65769 3.50329-.38345.74938.62194 2.02608 2.95916 1.71982 3.14843-.6894.42607-6.23019 2.51576-6.67052 2.51576-.27051 0-.79373-.95772-1.16272-2.12827zm-14.89367-3.83393c-4.80416-.992299-4.77717-1.074525.60358-1.839281 5.03523-.715644 9.75437-.715644 14.7896 0 5.51175.78338 5.51189.882146.002 1.878421-4.04307.73114-11.76151.71151-15.39576-.0392z" fill="#273839" stroke-width=".380875" transform="translate(-43.338034 -63.366707)"/></svg>