<svg height="511.99997" viewBox="0 0 135.46666 135.46666" width="511.99997" xmlns="http://www.w3.org/2000/svg"><g fill="#273839" transform="matrix(1.0800363 0 0 1.0800363 -69.133764 -126.427023)"><path d="m448.32617 369.13086c-127.78632 58.1341-254.6811 58.01176-384.505858.002v55.43946c135.362908 81.4437 263.319498 76.33858 385.216798 0 0-14.11843-.3207-55.44141-.71094-55.44141zm-293.05859 45.1543c11.19386.00014 20.26807 8.59514 20.26758 19.19726-.00065 10.60136-9.07452 19.19517-20.26758 19.19531-11.19306-.00014-20.26693-8.59395-20.26758-19.19531-.00049-10.60212 9.07372-19.19712 20.26758-19.19726zm201.69531.24023c11.19382-.00088 20.26888 8.59323 20.26953 19.19531.00049 10.60284-9.0749 19.19815-20.26953 19.19727-11.19387-.00014-20.26807-8.59515-20.26758-19.19727.00065-10.60136 9.07452-19.19517 20.26758-19.19531zm-100.51367 5.70034 29.0918 26.5145-29.0918 27.38505-28.13086-27.38505z" stroke-width="1.44004" transform="matrix(.24497633 0 0 .24497633 64.010593 117.05812)"/><g stroke-width=".352778"><path d="m101.69451 131.89497v-11.89713l25.1399 13.80047 23.95197-13.80047v11.91268l-23.95197 13.82795z" fill-opacity=".8"/><path d="m107.25636 153.68812v-7.58473l19.57805 11.04336 20.19191-11.04336v7.52915l-20.19191 11.51292z" fill-opacity=".7"/><path d="m110.86643 172.83741v-5.92013l15.96798 8.70853 16.13464-8.70853v5.91469l-16.13464 9.21585z" fill-opacity=".6"/><path d="m158.38751 201.1132c-.73641-.97212-2.40329-2.55449-3.70417-3.5164-3.91399-2.89409-11.97308-6.53478-17.1819-7.76191-2.44483-.57597-2.47051-.59421-2.57638-1.82914-.1-1.16636-.0297-1.26185 1.08262-1.47052 1.43344-.26891 7.00177.27389 10.74822 1.04774 7.8129 1.6138 18.34128 6.19274 22.4951 9.78344l1.35853 1.17436-1.68356 1.2855c-2.01176 1.53608-4.61088 2.55393-7.25925 2.84279l-1.94028.21163z" fill-opacity=".5"/><path d="m90.75838 202.54808c-2.9174-.49537-7.40833-2.96303-7.40833-4.0707 0-1.06774 6.20201-4.87232 11.56559-7.09483 3.99551-1.65562 8.66078-3.1487 11.98191-3.83469 3.49809-.72256 9.33466-1.26595 10.68871-.99514.98572.19715 1.06929.32253.97182 1.45804-.10545 1.2285-.1342 1.24887-2.57608 1.82646-8.0507 1.90426-18.58678 7.71071-21.34306 11.7622-.93026 1.36739-1.12872 1.41591-3.88056.94866z" fill-opacity=".5"/><path d="m118.45144 216.25832c-12.63484-1.08754-23.90644-3.81314-33.46539-8.09233-5.43801-2.4344-5.51656-2.49693-5.51656-4.39156 0-1.77413.29906-1.91687 1.79072-.85471.55973.39856 2.49202 1.42306 4.29399 2.27666 12.40956 5.87846 31.18693 8.56818 50.35974 7.21365 13.23729-.93519 24.35818-3.6342 33.37452-8.09991 2.34869-1.16328 4.37275-2.11506 4.49792-2.11506.12516 0 .22756.70357.22756 1.56348 0 1.93354-.38758 2.24239-5.9769 4.76284-14.19042 6.39904-32.30026 9.22476-49.5856 7.73694z"/><path d="m120.21533 239.22759c-16.24246-.89246-31.25656-5.96385-39.37773-13.30085-1.23138-1.11248-1.74617-2.42213-1.17613-2.99217.10559-.10559 1.49465.59409 3.08681 1.55484 21.77771 13.14123 51.987 15.65279 75.56705 6.28255 3.9732-1.57887 9.30723-4.37176 12.57513-6.5843 1.53067-1.03634 2.85964-1.88426 2.95326-1.88426.0936 0 .17022.53917.17022 1.19817 0 1.38643-1.15213 2.55268-4.92812 4.9885-7.3759 4.75806-17.37111 8.29594-27.87435 9.86635-3.11149.46522-14.92102 1.32673-16.05725 1.17138-.19403-.0265-2.41653-.16162-4.93889-.30021z"/></g></g></svg>