<svg height="511.99997" viewBox="0 0 135.46666 135.46666" width="511.99997" xmlns="http://www.w3.org/2000/svg" xmlns:xlink="http://www.w3.org/1999/xlink"><radialGradient id="a" cx="259.46387" cy="276.16113" gradientTransform="matrix(1.1811958 1.2294818 -1.271983 1.2220277 304.25853 -380.32152)" gradientUnits="userSpaceOnUse" r="107.32129"><stop offset="0" stop-color="#273839" stop-opacity=".5"/><stop offset="1" stop-color="#273839"/></radialGradient><g transform="matrix(1.07847209597 0 0 1.07847209597 -70.71255410619 -125.67782764725)"><g fill="#273839"><path d="m276.41797 35.222656c-1.08477.0011-2.62679 1.00984-4.68164 2.978516-3.4369 3.292762-5.0263 3.8125-11.66211 3.8125-6.36384 0-8.52385-.64193-12.58594-3.740234-6.44596-4.916561-8.09606-3.7256-7.05859 5.101562.55413 4.714885.17241 8.851664-1.16992 12.65625-1.09668 3.108283-1.99415 6.834296-1.99415 8.28125 0 4.474961 4.04064 11.422438 7.09376 12.195312 1.59796.404486 5.00559 2.533644 7.57226 4.732422 6.08708 5.21469 9.21893 5.104889 16-.560546 3.07209-2.56664 6.41401-4.666016 7.42578-4.666016 2.49147 0 5.9082-6.92598 5.9082-11.976563 0-2.259968-.81156-6.049654-1.80273-8.421875-1.1157-2.67016-1.56525-7.159279-1.18164-11.785156.48197-5.811898-.0553-8.60919-1.86328-8.607422zm-6.90235 22.884766c1.0799.06303 2.18548.41687 3.16993 1.136719 2.05551 1.503042 2.05325 1.772924-.0332 3.859375-2.75529 2.755237-7.20949 2.921431-8.21289.30664-1.1737-3.058696 1.83648-5.491819 5.07617-5.302734zm-18.78906.125c2.11607.05286 4.19551 1.073192 4.84571 2.767578.41146 1.072252-.0878 2.478878-1.11133 3.126953-2.77029 1.754154-4.74949 1.475133-7.24805-1.023437-2.08645-2.086451-2.08871-2.356333-.0332-3.859375.99441-.72713 2.27723-1.043437 3.54687-1.011719z" stroke-width="1.33333" transform="matrix(.26458333 0 0 .26458333 59.62574 110.15787)"/><path d="m59.793516 172.391 9.888973 1.136h12.595513l10.724-1.136-8.352-1.47h-16.404z" fill-opacity=".5" transform="translate(51.782738 2.07887)"/><path d="m126.999993 177.2959h2.740327v11.717261h-2.740327z" fill-opacity=".5"/><path d="m59.726575 189.96366 9.888973 1.136h12.595513l10.724001-1.136-8.352001-1.47h-16.404z" fill-opacity=".5" transform="translate(51.782738 2.07887)"/><path d="m75.446843 131.466.000039 3.52 1.234883-1.11013 1.15719 1.11013v-3.52c-.898536.34121-1.556559.32012-2.392112 0z" fill-opacity=".5" transform="translate(51.782738 2.07887)"/><path d="m80.60713 137.07774 2.438834 2.27179 23.152226-9.85556z" fill-opacity=".5" transform="translate(51.782738 2.07887)"/><path d="m72.522228 137.11115-2.438837 2.20498-23.051994-9.18739z" fill-opacity=".5" transform="translate(51.782738 2.07887)"/><path d="m67.856339 160.99971 8.781846-14.2173 8.502748 14.2173z" stroke-width=".352778" transform="translate(51.782738 2.07887)"/><path d="m76.681765 136.25246 30.925155 24.56644-30.925155-21.21473-31.109672 21.21473c8.191313-7.84021 21.449292-16.9494 31.109672-24.56644z" stroke-width=".352778" transform="translate(51.782738 2.07887)"/><path d="m88.128485 160.99971-10.033833-14.2173 20.236203 17.9077z" stroke-width=".352778" transform="translate(51.782738 2.07887)"/><path d="m54.744305 164.79827 20.466602-18.01586-11.117288 14.2173z" stroke-width=".352778" transform="translate(51.782738 2.07887)"/><path d="m67.856339 163.82129h17.284594l-1.12926 5.29186-15.127654-.00013z" stroke-width=".352778" transform="translate(51.782738 2.07887)"/><path d="m86.175302 169.11302 1.953183-5.29173 10.20237 3.62876-3.19324 3.62686z" stroke-width=".352778" transform="translate(51.782738 2.07887)"/><path d="m54.744305 167.53122 9.713717-3.70993 2.215816 5.29173-8.767248 1.96389z" stroke-width=".352778" transform="translate(51.782738 2.07887)"/><path d="m86.214671 192.91144 9.204665-1.96295 2.9245 3.57912-8.986764 3.16095z" stroke-width=".352778" transform="translate(51.782738 2.07887)"/><path d="m54.635818 194.52761 2.615759-3.57912 9.37876 1.96295-2.536718 4.77712z" stroke-width=".352778" transform="translate(51.782738 2.07887)"/><path d="m67.445934 197.68856 1.296996-4.77712h15.245295l1.1854 4.77712z" stroke-width=".352778" transform="translate(51.782738 2.07887)"/><path d="m78.067191 215.42935 11.289881-15.29309 8.986764-3.06351z" stroke-width=".352778" transform="translate(51.782738 2.07887)"/><path d="m54.635818 196.97944 9.457801 3.27129 11.031995 15.17862z" stroke-width=".352778" transform="translate(51.782738 2.07887)"/><path d="m67.797336 201.10658 17.286112-.11127-8.445263 14.43404z" stroke-width=".352778" transform="translate(51.782738 2.07887)"/><path d="m45.572093 201.86297 31.066092 21.22519 30.968735-21.22519-30.968735 24.25648z" stroke-width=".352778" transform="translate(51.782738 2.07887)"/><path d="m127.11174 233.48541-.76875.76961 1.72002 4.94402h.75213l1.60524-4.94402-.75364-.76961v-3.57449l-1.24582 1.08619-1.30918-1.08619z" fill-opacity=".5"/><path d="m134.74851 225.65322-2.50409 2.24423 25.48976 3.68527z" fill-opacity=".5"/><path d="m121.99181 225.72409 2.33873 2.07887-25.277158 3.70889z" fill-opacity=".5"/></g><path d="m260.17801 128.75-108.03708 92.14518v109.10287l107.87236 93.57422 106.77195-93.57422v-109.10287zm0 5.85352 101.70793 88.51367v105.05469l-101.87265 88.51562-102.80834-88.51562v-105.05484z" fill="url(#a)" transform="matrix(.26458333 0 0 .26458333 59.62574 110.15787)"/></g></svg>