<?xml version="1.0" encoding="UTF-8" standalone="no"?>
<svg
   xmlns:osb="http://www.openswatchbook.org/uri/2009/osb"
   xmlns:dc="http://purl.org/dc/elements/1.1/"
   xmlns:cc="http://creativecommons.org/ns#"
   xmlns:rdf="http://www.w3.org/1999/02/22-rdf-syntax-ns#"
   xmlns:svg="http://www.w3.org/2000/svg"
   xmlns="http://www.w3.org/2000/svg"
   xmlns:sodipodi="http://sodipodi.sourceforge.net/DTD/sodipodi-0.dtd"
   xmlns:inkscape="http://www.inkscape.org/namespaces/inkscape"
   width="512"
   height="512"
   viewBox="0 0 135.46667 135.46667"
   version="1.1"
   id="svg8"
   inkscape:version="1.0.1 (3bc2e813f5, 2020-09-07)"
   sodipodi:docname="Grappling Hook.svg">
  <defs
     id="defs2">
    <linearGradient
       id="linearGradient1099-6-5"
       osb:paint="gradient">
      <stop
         style="stop-color:#273839;stop-opacity:0.5"
         offset="0"
         id="stop1151" />
      <stop
         style="stop-color:#273839;stop-opacity:1"
         offset="1"
         id="stop1153" />
    </linearGradient>
  </defs>
  <sodipodi:namedview
     id="base"
     pagecolor="#ffffff"
     bordercolor="#666666"
     borderopacity="1.0"
     inkscape:pageopacity="0.0"
     inkscape:pageshadow="2"
     inkscape:zoom="0.98994949"
     inkscape:cx="146.12365"
     inkscape:cy="240.95232"
     inkscape:document-units="px"
     inkscape:current-layer="g1320"
     inkscape:document-rotation="0"
     showgrid="false"
     inkscape:pagecheckerboard="true"
     inkscape:object-nodes="true"
     fit-margin-top="0"
     fit-margin-left="0"
     fit-margin-right="0"
     fit-margin-bottom="0"
     inkscape:window-width="1600"
     inkscape:window-height="837"
     inkscape:window-x="-8"
     inkscape:window-y="-8"
     inkscape:window-maximized="1"
     units="px" />
  <metadata
     id="metadata5">
    <rdf:RDF>
      <cc:Work
         rdf:about="">
        <dc:format>image/svg+xml</dc:format>
        <dc:type
           rdf:resource="http://purl.org/dc/dcmitype/StillImage" />
        <dc:title></dc:title>
      </cc:Work>
    </rdf:RDF>
  </metadata>
  <g
     inkscape:label="Layer 1"
     inkscape:groupmode="layer"
     id="layer1"
     transform="translate(-59.62574,-110.15787)">
    <path
       style="fill:#000000;stroke-width:0.264583"
       id="path853"
       d="" />
    <path
       style="fill:#000000;stroke-width:0.264583"
       id="path849"
       d="" />
    <g
       id="g1061"
       transform="translate(9.0714285,1.8898814)">
      <g
         id="g1320"
         transform="translate(7.2162774,44.901282)">
        <g
           id="g1492"
           transform="matrix(1.3652193,0,0,1.3652189,-40.824694,-46.651141)">
          <path
             style="fill:#273839;fill-opacity:1;stroke-width:0.352778"
             d="m 108.66594,170.84173 c -0.0138,-0.14552 -0.004,-4.65352 0.023,-10.01777 l 0.0481,-9.7532 -1.93688,-0.88673 c -7.544691,-3.45407 -9.698251,-12.19325 -4.66286,-18.92195 l 0.90929,-1.21507 V 114.76855 99.490082 l 1.76389,-1.830004 1.76389,-1.830003 v -6.459104 -6.459104 l 2.73402,0.0025 c 1.50372,0.0014 3.82864,0.105863 5.16651,0.232186 l 2.43248,0.229678 -0.19358,6.266613 -0.19358,6.266613 1.55346,1.621285 1.55346,1.621285 v 15.270443 15.27043 l 1.20443,1.16737 c 3.14319,3.04651 4.09607,8.69602 2.18332,12.9447 -1.19914,2.66359 -3.60912,5.09291 -6.24506,6.29514 l -1.97536,0.90096 -0.22767,3.43804 c -0.12522,1.89092 -0.22849,6.4146 -0.2295,10.05262 l -0.002,6.61458 h -2.82222 c -1.55223,0 -2.83352,-0.11906 -2.84732,-0.26458 z m 5.76906,-25.6152 c 4.94418,-2.08959 5.51862,-8.81433 1.01647,-11.89925 -1.02967,-0.70555 -1.67451,-0.85013 -3.79143,-0.85013 -2.31417,0 -2.67647,0.10005 -3.9064,1.07878 -1.6341,1.30035 -2.946,3.72899 -2.93542,5.43416 0.015,2.42298 1.65283,4.91512 4.0492,6.16145 1.30603,0.67925 4.0504,0.71622 5.56758,0.075 z M 76.32255,114.72915 c -1.407317,-0.51838 -2.518567,-1.0459 -2.469444,-1.17227 0.152941,-0.39344 26.767894,-28.345211 27.107974,-28.46955 0.18449,-0.06746 0.32162,2.117685 0.32162,5.125031 v 5.242624 L 90.309067,105.58759 c -6.035498,5.57294 -11.07581,10.12169 -11.200695,10.10834 -0.124884,-0.0133 -1.378504,-0.44841 -2.785822,-0.96678 z m 56.34156,-10.33012 c -5.71512,-5.450531 -10.60691,-10.116975 -10.87063,-10.369876 -0.38527,-0.369456 -0.42881,-1.473813 -0.22156,-5.619654 0.22898,-4.580602 0.3187,-5.109491 0.7992,-4.711373 1.05505,0.874157 26.35923,28.587383 26.29983,28.803663 -0.052,0.18938 -4.88996,1.79977 -5.42351,1.80531 -0.10571,10e-4 -4.86821,-4.45754 -10.58333,-9.90807 z"
             id="path1485" />
          <path
             style="fill:#273839;fill-opacity:0.501961;stroke-width:0.352778"
             d="m 142.39192,149.40404 -0.26144,-20.29116 1.36014,-1.66235 1.36014,-1.66234 0.21938,4.22642 c 0.12066,2.32453 0.27941,11.63916 0.35278,20.69917 l 0.13339,16.47274 -1.21573,1.25434 c -0.66865,0.68989 -1.32182,1.25434 -1.45148,1.25434 -0.12966,0 -0.35339,-9.13102 -0.49718,-20.29116 z"
             id="path1479" />
          <path
             style="fill:#273839;fill-opacity:0.501961;stroke-width:0.352778"
             d="m 79.245173,168.64822 -1.35418,-1.38681 0.437608,-20.39074 c 0.240685,-11.21491 0.473821,-20.42752 0.518081,-20.47246 0.04426,-0.045 0.686501,0.53891 1.427202,1.29745 l 1.34673,1.37918 -0.439343,20.39837 c -0.241638,11.21911 -0.471422,20.43515 -0.51063,20.4801 -0.03921,0.045 -0.680668,-0.54234 -1.425468,-1.30509 z"
             id="path1477" />
          <path
             style="fill:#273839;fill-opacity:0.501961;stroke-width:0.352778"
             d="m 134.67808,166.62408 c -0.12816,-5.97498 -0.23331,-13.91954 -0.23365,-17.65457 l -6.2e-4,-6.79098 h 1.3541 1.3541 l 0.23281,11.37709 c 0.12805,6.25739 0.23307,13.60705 0.2334,16.33257 l 7e-4,4.95549 -1.35384,1.322 -1.35385,1.32199 -0.23303,-10.86359 z"
             id="path1471" />
          <path
             style="fill:#273839;fill-opacity:0.501961;stroke-width:0.352778"
             d="m 86.758118,176.13075 -1.257046,-1.32027 0.279813,-11.64167 c 0.153896,-6.40291 0.291638,-13.75423 0.306091,-16.33625 l 0.02628,-4.69459 1.499305,0.10847 c 1.229452,0.089 1.498653,0.23547 1.495686,0.81404 -0.04339,8.4626 -0.676437,33.7164 -0.852314,34.00097 -0.150746,0.24391 -0.710777,-0.10408 -1.497815,-0.9307 z"
             id="path1467" />
        </g>
      </g>
    </g>
  </g>
</svg>
