<svg height="512" viewBox="0 0 135.46667 135.46667" width="512" xmlns="http://www.w3.org/2000/svg"><g fill="#273839" stroke-width=".352778" transform="matrix(1.10262 0 0 1.1026205 -53.735948 -77.804495)"><path d="m59.18784 183.41875c-4.608148-.83458-7.582941-4.37072-7.573528-9.00263.0069-3.37195 1.447002-5.98064 4.310334-7.80775 1.106562-.70611 1.322916-1.04161 1.322916-2.05149 0-2.30279 1.426131-4.55961 3.598454-5.69448 2.332473-1.21854 6.478752-.22531 8.004544 1.91746l.726304 1.02 5.036044-1.01073c2.769824-.5559 5.472606-1.1033 6.006183-1.21643 1.428326-.30285 1.243023.45478-.655116 2.6785-3.617234 4.23771-3.490023 3.94737-3.490023 7.96534 0 3.12313-.100952 3.75033-.742432 4.61265-1.043507 1.40276-2.59877 2.22301-4.68308 2.46987-1.277218.15127-1.845916.38987-1.986737.83356-.492067 1.55036-2.328375 3.48132-4.115538 4.32767-2.2038 1.04365-3.810941 1.31115-5.758325.95846zm98.17919-.15307c-2.43019-.64635-4.38976-2.09547-5.48411-4.05555-.90138-1.61445-1.06013-1.72835-2.67529-1.91964-2.01614-.23879-3.57734-1.07219-4.61069-2.4613-.64148-.86232-.74243-1.48952-.74243-4.61265 0-4.01797.12721-3.72763-3.49002-7.96534-1.89814-2.22372-2.08345-2.98135-.65512-2.6785.53358.11313 3.23636.66053 6.00618 1.21643l5.03605 1.01073.7263-1.02c1.52579-2.14277 5.67207-3.136 8.00455-1.91746 2.17232 1.13487 3.59845 3.39169 3.59845 5.69448 0 1.00988.21635 1.34538 1.32292 2.05149 2.86333 1.82711 4.30347 4.4358 4.31033 7.80775.0122 6.0152-5.58657 10.38167-11.34712 8.84956z" fill-opacity=".501961"/><path d="m127.80312 188.64286c-1.0691-1.7612-3.13061-3.3299-5.08145-3.86671-.79472-.21868-4.30244-.41665-7.79494-.43993-6.0803-.0405-6.41661-.0798-7.91849-.92427-2.86972-1.61361-4.21625-5.97691-3.21929-10.4318.80807-3.61082 3.0927-5.2219 7.43361-5.24202 2.1294-.01 2.98655.15866 4.39139.86341 2.57258 1.29057 3.17995 2.31796 3.18728 5.39136.003 1.39693-.0733 2.85733-.17033 3.24533-.16198.64781.0542.72469 2.64583.94087 5.28206.4406 8.89694 2.53539 11.14831 6.46036.55874.97411 1.01739 1.87072 1.01922 1.99248.005.35641-3.91922 3.48371-4.35875 3.4733-.22025-.005-.79732-.66329-1.28239-1.46238zm-35.453106-20.79798-2.646895-2.5143-.0021-2.16001c-.0025-2.45528.981918-10.60013 1.416519-11.72203.19606-.50612.718767-.81381 1.641454-.96626 2.015398-.33299 4.635059-.27753 4.870306.1031.113718.184-.182298 3.47806-.657815 7.32014-.475512 3.84208-.969606 8.21591-1.097982 9.71962-.128375 1.50372-.378139 2.73403-.555028 2.73403-.176887 0-1.512719-1.13143-2.968513-2.51429zm34.246186-.73206c-.13323-1.80402-.56046-5.79068-.94941-8.85924-.38894-3.06856-.65819-6.08481-.59834-6.70278.10487-1.08262.17313-1.1273 1.87273-1.22589.97013-.0563 2.39037.0284 3.15608.18825l1.3922.29056.79799 5.63259c1.22803 8.66794 1.31382 8.14872-1.84741 11.18091-1.47112 1.41106-2.8788 2.61283-3.12818 2.67061-.33171.0768-.51846-.77548-.69566-3.17501zm-25.86878-.006c-.57058-.27519-.793297-.69001-.792147-1.47543.0018-1.21748 1.304927-12.67681 1.570297-13.80861.20731-.88412 4.35417-3.92268 6.28151-4.60269 2.43861-.86039 5.66579-.64695 8.14755.53888 2.66264 1.27225 5.00983 3.23431 5.31268 4.44095.2328.92757.73636 5.31373 1.25455 10.92774.27162 2.94259.2411 3.22019-.41692 3.79236-.96215.83663-3.50668.79812-5.83908-.0884-2.55948-.97281-7.14113-.97273-9.60941.00017-1.93484.76265-4.63713.8884-5.90903.275zm1.00449-19.8176c-1.00836-1.07335-.68105-1.8035 1.58359-3.53268 2.53501-1.93564 4.4806-2.42005 9.12735-2.27254 3.94749.12531 4.00909.14042 5.91062 1.45006 3.53425 2.43413 4.15252 3.66774 2.38991 4.7685-.86408.53963-1.64018.2047-3.6128-1.55915l-1.32394-1.18381h-4.41658-4.4166l-1.49142 1.36509c-2.00845 1.83833-2.75005 2.02906-3.75013.96453zm-14.321847-1.24998c-1.667588-.28736-3.980388-1.43041-4.858163-2.40105-.362348-.40068-1.002425-2.45414-1.523696-4.88823-.757778-3.53847-.929792-5.45769-1.095891-12.22707l-.197024-8.02977 1.365971-1.28828c1.688448-1.59241 6.358294-3.86418 8.954637-4.35622 5.207063-.98681 29.551423-1.1766 39.863893-.31079 3.74168.31414 4.30783.46244 7.28548 1.90831 1.7757.86223 3.79976 2.10643 4.49792 2.76487l1.26937 1.19718v6.3176c0 6.8865-.35541 10.65253-1.4484 15.34746-.77305 3.32068-1.0086 3.63908-3.73629 5.05042-1.47008.76063-2.49203.98787-5.15808 1.14693-4.97213.29664-7.46167-.41921-12.07769-3.47285l-3.66462-2.42426h-5.51731-5.51731l-2.28872 1.59993c-5.635277 3.93934-10.208462 5.09037-16.154077 4.06582zm8.778752-2.28446c.912417-.2746 2.32671-1.03734 3.142872-1.69497.816163-.65764 2.277683-1.66328 3.247823-2.23476l1.76389-1.03906h7.05555 7.05556l1.76389 1.04462c.97014.57454 2.51797 1.63485 3.43963 2.35625 1.8737 1.46657 4.76305 2.26647 7.06941 1.95712 1.77565-.23816 3.2449-1.63155 3.94285-3.73926.91213-2.75452 2.39842-15.69446 2.18037-18.98279-.32732-4.93631-.66398-5.1778-8.01659-5.75034-9.77894-.76148-26.59729-.66645-37.639724.21268-2.533319.20168-3.057109.36183-3.96875 1.21343l-1.050255.98109v4.77182c0 4.77275.225929 7.2033 1.284503 13.81871.721861 4.51115 1.786332 6.64758 3.654386 7.33445 1.000954.36805 3.418459.24943 5.074585-.24899zm18.642295-11.02574c-.46013-.18513-1.49188-1.93557-1.49188-2.53109 0-.2063.54008-.21145 1.42093-.0135 1.67592.37655 2.43516.0495 5.17958-2.23102 1.0109-.84004 2.98247-2.14549 4.38125-2.90101 2.23724-1.20838 3.01357-1.42524 6.45227-1.80235 2.14996-.23579 4.05311-.29619 4.22921-.13424.40316.37076-.39607 1.3827-1.09206 1.3827-.56307 0-5.75451 2.32958-5.75451 2.58225 0 .0873 1.03187.0759 2.29305-.0253 3.3115-.26581 3.16079.14972-1.41739 3.90782l-2.07369 1.70223-2.10466-.24428c-1.15757-.13435-2.5892-.448-3.1814-.697-.94595-.39774-1.36185-.34988-3.42442.39413-2.42218.87373-2.65791.91587-3.41628.61075zm-20.937944-1.70776c-4.755818-4.13648-4.790863-4.22649-1.544214-3.96588 1.261181.10123 2.293056.12525 2.293056.0534 0-.27744-4.149193-2.20766-5.565151-2.58894-1.343395-.36174-1.952801-1.12795-1.225822-1.54124.490771-.279 8.01629.71488 9.084028 1.19971 1.636364.74303 4.771267 2.76263 6.526387 4.2045 2.25941 1.85614 3.00122 2.17747 4.41467 1.91231 1.39767-.2622 1.60733.21012.68061 1.53321-.67901.96941-1.86565 1.00542-4.42269.1342-1.6002-.54521-2.07772-.5801-2.96564-.21666-.58209.23825-2.030317.54392-3.218289.67927l-2.159953.24609zm-6.482941 11.53239c-1.039399-1.57063-1.650643-4.47303-2.682797-12.73882-.445273-3.56587-.644451-6.6022-.510734-7.78581l.219198-1.94027-.80597.80374c-.766593.76447-.804792 1.04886-.78183 5.82083.02745 5.70149.38553 7.92594 2.094414 13.01029 1.209629 3.59895 1.579132 4.16219 2.737146 4.17224.546933.005.514276-.15794-.269427-1.3422zm48.773305.90662c.38233-.47773 1.89726-4.79463 2.54781-7.26013 1.37603-5.21498 1.59374-13.44373.39475-14.92021-.52476-.64621-.56613-.44543-.60538 2.93816-.079 6.81406-1.74229 15.82259-3.58523 19.41857-.22959.44797.8731.29213 1.24805-.17639zm-65.812981-12.01181c.553517-1.00069 1.678399-11.83793 1.327297-12.78733-.146778-.3969-.997512-1.32034-1.890521-2.05209-1.254351-1.02785-1.623651-1.56445-1.623651-2.35923 0-.88819.253098-1.15543 1.852083-1.95558 2.010224-1.00593 3.444822-2.16116 3.430625-2.76255-.0049-.20871-.798677-1.32911-1.763888-2.48977-1.853072-2.22832-2.153486-3.35404-1.13757-4.26276.815489-.72944 4.688319-3.202881 9.206822-5.880081 3.828906-2.268617 3.53386-1.986371 12.808459-12.252772 2.76545-3.061181 3.770112-3.913566 5.87985-4.988646 3.564735-1.816519 10.170765-3.614659 13.291675-3.617953 2.88345-.003 9.14254 1.653283 13.05278 3.454125 2.30726 1.062598 2.84751 1.558791 8.22582 7.555024 6.34851 7.077899 7.47334 8.027746 13.6464 11.523521 7.33489 4.153712 7.94805 4.958312 5.70941 7.492012-.64336.72816-1.51102 1.81701-1.92812 2.41966-.94364 1.36341-.75233 1.64787 2.44672 3.63805 1.29109.80322 2.44758 1.72134 2.56997 2.04027.14061.36643-.172 1.04438-.84927 1.84181-.58949.69405-1.49896 1.79354-2.02105 2.44328l-.94926 1.18136.41503 5.44485c.22827 2.99467.58943 5.77072.80258 6.169s.33499.77351.27077.83386c-.0642.0603-1.76565.007-3.78094-.11841l-3.66417-.22813-.04-7.23157-.04-7.23156-3.72747-2.64622c-2.05011-1.45541-4.00783-3.01083-4.35048-3.4565-.34265-.44566-.77098-1.85515-.95183-3.13221-.42065-2.97031-1.0708-4.30847-3.2537-6.69692-2.86206-3.131541-7.73535-5.202865-12.23458-5.200125-3.15104.0019-4.66903.672523-7.04081 3.11044-.87541.899825-1.89867 1.616615-2.3078 1.616615s-1.43239-.71679-2.3078-1.616615c-2.57967-2.6516-3.78707-3.118711-8.09914-3.13333-3.059974-.01037-4.050631.12753-5.696339.792956-2.473865 1.000281-4.684282 2.918303-6.944597 6.025949-2.359106 3.24348-2.828498 4.23708-3.102324 6.5669l-.23434 1.99386-2.779994 2.11623c-1.528996 1.16393-3.410912 2.71641-4.182035 3.44996l-1.402043 1.33373v6.59208c0 4.96601-.108775 6.62561-.440972 6.72798-.242535.0747-1.831541.22088-3.531126.32477l-3.090153.18888z"/></g></svg>