<?xml version="1.0" encoding="UTF-8" standalone="no"?>
<svg
   xmlns:osb="http://www.openswatchbook.org/uri/2009/osb"
   xmlns:dc="http://purl.org/dc/elements/1.1/"
   xmlns:cc="http://creativecommons.org/ns#"
   xmlns:rdf="http://www.w3.org/1999/02/22-rdf-syntax-ns#"
   xmlns:svg="http://www.w3.org/2000/svg"
   xmlns="http://www.w3.org/2000/svg"
   xmlns:sodipodi="http://sodipodi.sourceforge.net/DTD/sodipodi-0.dtd"
   xmlns:inkscape="http://www.inkscape.org/namespaces/inkscape"
   width="512"
   height="512"
   viewBox="0 0 135.46667 135.46667"
   version="1.1"
   id="svg8"
   inkscape:version="1.0.1 (3bc2e813f5, 2020-09-07)"
   sodipodi:docname="Nox Gas Trap.svg">
  <defs
     id="defs2">
    <linearGradient
       id="linearGradient1099-6-5"
       osb:paint="gradient">
      <stop
         style="stop-color:#273839;stop-opacity:0.5"
         offset="0"
         id="stop1151" />
      <stop
         style="stop-color:#273839;stop-opacity:1"
         offset="1"
         id="stop1153" />
    </linearGradient>
  </defs>
  <sodipodi:namedview
     id="base"
     pagecolor="#ffffff"
     bordercolor="#666666"
     borderopacity="1.0"
     inkscape:pageopacity="0.0"
     inkscape:pageshadow="2"
     inkscape:zoom="0.7"
     inkscape:cx="115.85814"
     inkscape:cy="237.77784"
     inkscape:document-units="px"
     inkscape:current-layer="g1320"
     inkscape:document-rotation="0"
     showgrid="false"
     inkscape:pagecheckerboard="true"
     inkscape:object-nodes="true"
     fit-margin-top="0"
     fit-margin-left="0"
     fit-margin-right="0"
     fit-margin-bottom="0"
     inkscape:window-width="1600"
     inkscape:window-height="837"
     inkscape:window-x="-8"
     inkscape:window-y="-8"
     inkscape:window-maximized="1"
     units="px" />
  <metadata
     id="metadata5">
    <rdf:RDF>
      <cc:Work
         rdf:about="">
        <dc:format>image/svg+xml</dc:format>
        <dc:type
           rdf:resource="http://purl.org/dc/dcmitype/StillImage" />
        <dc:title></dc:title>
      </cc:Work>
    </rdf:RDF>
  </metadata>
  <g
     inkscape:label="Layer 1"
     inkscape:groupmode="layer"
     id="layer1"
     transform="translate(-59.62574,-110.15787)">
    <path
       style="fill:#000000;stroke-width:0.264583"
       id="path853"
       d="" />
    <path
       style="fill:#000000;stroke-width:0.264583"
       id="path849"
       d="" />
    <g
       id="g1061"
       transform="translate(9.0714285,1.8898814)">
      <g
         id="g1320"
         transform="translate(7.2162774,44.901282)">
        <g
           id="g1943"
           transform="matrix(1.2059279,0,0,1.2059279,-25.473956,-33.863499)">
          <path
             style="fill:#273839;fill-opacity:0.501961;stroke-width:0.352778"
             d="m 87.799648,149.0074 c -29.641076,-57.093796 -14.820538,-28.5469 0,0 z m -9.998569,14.24113 c -4.995452,-1.59692 -8.636912,-5.33078 -10.341437,-10.60384 -0.723878,-2.23937 -0.825,-6.27818 -0.204154,-8.1539 0.396853,-1.19898 0.34748,-1.38765 -0.830862,-3.175 -1.531921,-2.32367 -2.51254,-4.87386 -3.229269,-8.39803 -0.299157,-1.47095 -0.705708,-3.46821 -0.903448,-4.43835 -0.840798,-4.12508 0.478655,-10.01925 3.092446,-13.81436 2.41955,-3.51308 7.081271,-7.01703 10.213859,-7.67718 0.918106,-0.19348 1.149244,-0.081 1.680267,0.81799 0.863032,1.461 2.951878,3.02445 4.940433,3.6978 2.105612,0.71298 3.043013,0.7159 5.533095,0.0172 l 1.975742,-0.55436 3.313466,1.6127 c 1.822404,0.88698 3.540411,1.6127 3.817786,1.6127 0.342967,0 0.422144,0.19752 0.247473,0.61736 -0.141266,0.33955 -0.337199,1.37142 -0.435405,2.29305 -0.136331,1.27943 -0.321861,1.6757 -0.784536,1.6757 -0.946968,0 -4.665846,2.556 -6.018957,4.13685 -1.542704,1.80235 -3.730216,5.48256 -4.35532,7.32726 -2.046863,6.04037 -2.127405,6.41752 -1.685477,7.89254 0.23489,0.78399 0.794455,1.86916 1.243475,2.41148 0.619788,0.74857 0.83476,1.4861 0.892616,3.06245 0.06579,1.7925 -0.04454,2.20252 -0.806888,2.99861 -2.712785,2.83289 -3.523906,10.40402 -1.771195,16.53261 0.215699,0.75423 0.13274,0.79281 -1.666226,0.77478 -1.041275,-0.0104 -2.804143,-0.31016 -3.917484,-0.66607 z m 68.322431,-7.16447 c -0.03,-3.63143 -0.95146,-6.92629 -2.50692,-8.96405 -0.9719,-1.27327 -1.1732,-1.84317 -1.1732,-3.32151 0,-1.58246 0.13981,-1.91638 1.23472,-2.94902 1.11658,-1.05307 1.23407,-1.34616 1.22785,-3.06311 -0.0136,-3.76953 -3.22279,-11.21777 -6.4422,-14.95203 -0.66941,-0.77646 -2.27592,-2.03095 -3.57002,-2.78778 -1.29411,-0.75682 -2.41086,-1.47091 -2.48166,-1.58687 -0.0708,-0.11596 -0.24227,-1.12365 -0.38103,-2.23931 -0.2047,-1.64588 -0.15662,-2.02847 0.25494,-2.02847 0.27897,0 1.99828,-0.72571 3.82069,-1.6127 l 3.31346,-1.61269 1.97575,0.55436 c 2.49331,0.69959 3.35232,0.6953 5.59167,-0.0279 2.47068,-0.79794 4.40048,-2.55467 5.63739,-5.13182 l 1.03244,-2.15114 1.68228,1.72777 c 3.46161,3.55522 5.0315,8.95235 4.08058,14.02867 -0.38361,2.04779 -0.37404,2.0927 0.87736,4.12013 1.44264,2.33726 2.95784,6.25992 2.96349,7.67209 0.002,0.52475 0.25703,1.74784 0.56651,2.71798 0.78854,2.47183 0.78568,7.55952 -0.006,10.23056 -2.03945,6.88306 -7.30676,12.0081 -14.13245,13.7507 -3.6196,0.92409 -3.5382,0.97828 -3.5659,-2.37383 z m -9.92433,-30.38958 c -61.907431,-41.551849 -30.95372,-20.77592 0,0 z m -36.15586,-21.28997 c -0.06515,-0.33834 0.17762,-1.48928 0.53951,-2.55764 1.28307,-3.787888 0.0114,-7.714674 -3.259505,-10.064543 -0.921716,-0.662185 -1.870512,-1.631224 -2.10844,-2.153419 -0.504567,-1.107406 -0.600032,-1.014095 2.855137,-2.79074 10.735478,-5.520176 23.134608,-4.611653 33.217468,2.433949 l 2.07325,1.448733 -1.01021,0.711219 c -3.90708,2.750705 -5.38219,7.429332 -3.51957,11.163051 0.41901,0.83992 0.41878,2.42456 -3.5e-4,2.42456 -0.0687,0 -0.85702,-0.51594 -1.75179,-1.14653 l -1.62687,-1.14653 h -11.00972 -11.00971 l -1.44742,1.14653 c -1.67501,1.32681 -1.7829,1.35634 -1.94178,0.53136 z"
             id="path1939"
             sodipodi:nodetypes="ccsssssssscsccsssssssssscscsscssscsssssscscscssscscsccccssssscsccssccscs" />
          <path
             style="fill:#273839;fill-opacity:1;stroke-width:0.352778"
             d="m 107.342,189.99241 c -3.63646,-0.39586 -4.28248,-0.6903 -4.48091,-2.04228 -0.0919,-0.62617 10e-4,-1.10421 0.22048,-1.129 0.20894,-0.0236 5.14238,-0.0236 10.96321,7e-5 5.82083,0.0237 10.82927,0.043 11.12986,0.043 0.41612,-5e-5 0.51238,0.29242 0.40342,1.22572 -0.15819,1.35502 0.0321,1.27826 -4.8305,1.94793 -2.93975,0.40485 -9.47241,0.38271 -13.40556,-0.0454 z m -0.88194,-5.97232 c -4.38119,-0.40686 -8.715204,-1.38214 -9.746307,-2.1932 -2.755953,-2.16784 -4.537629,-5.83909 -3.10123,-6.39029 0.306909,-0.11778 9.641407,-0.21413 20.743337,-0.21413 21.23042,0 21.04239,-0.014 21.02323,1.56986 -0.0112,0.93117 -2.08043,3.75138 -3.58572,4.88723 -2.78212,2.09931 -15.3887,3.26402 -25.33331,2.34053 z m -14.119785,-11.4539 c -0.342434,-0.41261 -0.354382,-0.74473 -0.05076,-1.41111 l 0.397079,-0.8715 H 114.2012 c 21.15354,0 21.52093,0.0119 21.89219,0.70555 0.26829,0.5013 0.26829,0.90982 0,1.41111 -0.37125,0.69369 -0.73865,0.70556 -21.84144,0.70556 -18.833279,0 -21.518719,-0.0661 -21.911675,-0.53961 z m -1.232129,-5.45865 c -1.313123,-0.22747 -3.503478,-3.04061 -4.256719,-5.46702 -0.783488,-2.52385 -1.016917,-6.6864 -0.511355,-9.11865 0.310769,-1.49512 0.77119,-2.44205 1.672403,-3.43958 l 1.24357,-1.37649 h 24.940175 24.94017 l 0.90767,0.97014 c 1.5424,1.64855 2.12225,3.22499 2.31344,6.28959 0.25494,4.08632 -0.57565,7.2931 -2.60192,10.04559 -1.08011,1.46723 -1.78278,2.10065 -2.33854,2.10807 -9.43205,0.12604 -45.566537,0.11695 -46.308894,-0.0116 z m -1.34384,-22.10397 c -0.130669,-0.13067 -0.237582,-0.84613 -0.237582,-1.5899 v -1.35231 h 24.714726 24.71473 l -0.10848,1.4993 -0.10847,1.49931 -24.36867,0.0906 c -13.40277,0.0498 -24.475585,-0.0163 -24.606254,-0.14699 z m -1.481067,-6.56443 -0.930049,-0.8 0.739006,-2.8944 c 1.016272,-3.98034 1.231205,-4.48302 3.210758,-7.50922 1.323138,-2.02272 2.193914,-2.93208 3.656446,-3.81847 3.528282,-2.13836 3.814057,-2.16958 19.85706,-2.16958 h 14.59427 l 2.19481,1.09665 c 2.80445,1.40128 5.09028,3.81901 6.88079,7.27784 1.48271,2.86423 3.06629,7.61335 2.78397,8.34907 -0.44583,1.16179 -2.75231,1.2681 -27.51136,1.2681 H 89.213292 Z m 11.985981,-20.04177 c -0.12939,-0.20935 -0.0434,-1.06583 0.19106,-1.90327 0.35729,-1.27613 0.59904,-1.55718 1.49325,-1.73602 0.58682,-0.11737 6.53208,-0.21339 13.21168,-0.21339 h 12.14474 l 0.48721,1.16606 c 0.26797,0.64133 0.59458,1.59383 0.7258,2.11667 l 0.23859,0.9506 h -14.12854 c -9.72811,0 -14.2018,-0.11855 -14.36379,-0.38065 z m 2.56173,-5.48272 c -0.13829,-0.13829 -0.25145,-0.62186 -0.25145,-1.07459 0,-0.76376 0.14168,-0.82315 1.96371,-0.82315 1.93411,0 1.96203,0.0146 1.85209,0.97014 -0.10137,0.88094 -0.2588,0.97974 -1.71226,1.0746 -0.88035,0.0575 -1.71379,-0.009 -1.85209,-0.147 z m 5.99681,-3.5e-4 c -0.13807,-0.13813 -0.25104,-0.62943 -0.25104,-1.09185 0,-0.8006 0.0969,-0.8357 2.02848,-0.73495 1.9003,0.0991 2.02847,0.16152 2.02847,0.98774 0,0.81028 -0.14443,0.8904 -1.77744,0.98599 -0.97759,0.0572 -1.89041,-0.009 -2.02847,-0.14699 z m 6.93957,-0.29035 c -0.44039,-1.14768 0.1296,-1.60704 1.99398,-1.60704 1.75376,0 1.79562,0.0241 1.68676,0.97014 -0.10226,0.88877 -0.25248,0.97917 -1.79092,1.07781 -1.26391,0.081 -1.73137,-0.028 -1.88982,-0.44097 z m 6.81951,0.29111 c -0.13848,-0.13855 -0.25178,-0.62227 -0.25178,-1.075 0,-0.75403 0.15007,-0.82315 1.78732,-0.82315 1.74168,0 1.78447,0.0248 1.67569,0.97014 -0.0988,0.85867 -0.27523,0.98218 -1.53553,1.07493 -0.78315,0.0576 -1.53721,-0.009 -1.6757,-0.14699 z m -29.17956,-4.34682 -4.056944,-2.05946 -1.442107,0.84295 c -2.525014,1.47595 -5.673393,0.8695 -7.296091,-1.4054 -0.602722,-0.84496 -0.789434,-1.60621 -0.798051,-3.25372 -0.0094,-1.79868 -0.163227,-2.3313 -0.939823,-3.254229 -1.297407,-1.541881 -1.799285,-3.318272 -1.623621,-5.746795 0.3446,-4.76405 5.022209,-7.953737 9.730726,-6.635434 2.29742,0.643238 4.745165,3.114243 5.311027,5.361497 0.283676,1.126566 0.604238,1.665927 0.990128,1.665927 1.024724,0 2.859465,1.396105 3.438588,2.616515 0.745631,1.571302 0.699188,3.233299 -0.138832,4.968209 -0.912184,1.88844 -0.891367,2.10162 0.485789,4.97527 1.69007,3.52658 1.819131,4.02456 1.03729,4.00234 -0.352626,-0.01 -2.466759,-0.94497 -4.698079,-2.07767 z m 37.31673,1.90058 c -0.10743,-0.10742 0.41928,-1.57586 1.17046,-3.26319 1.58058,-3.5504 1.61693,-3.85983 0.67114,-5.71372 -0.38805,-0.76065 -0.70555,-1.873461 -0.70555,-2.47291 0,-2.033281 1.78287,-4.365699 3.73644,-4.888166 0.73433,-0.19639 1.06467,-0.54915 1.22182,-1.304738 0.29528,-1.419825 1.16219,-3.00062 2.15197,-3.924096 1.23955,-1.156519 3.82166,-2.211262 5.41338,-2.211262 1.59139,0 4.17306,1.054405 5.41419,2.211262 2.93188,2.732802 3.06057,7.725064 0.27753,10.765882 -0.61987,0.677278 -0.7321,1.173618 -0.63818,2.822218 0.13448,2.3606 -0.74076,3.96908 -2.76048,5.07309 -1.54798,0.84615 -4.21193,0.68805 -5.59139,-0.33183 l -0.96001,-0.70976 -4.36187,2.07126 c -4.475,2.12499 -4.70486,2.21056 -5.03945,1.87596 z m -27.79173,-1.85986 c 0,-0.35423 0.40938,-1.02892 0.90973,-1.49931 0.90839,-0.85399 0.92318,-0.8554 10.13808,-0.96061 5.0756,-0.058 9.57122,-0.0193 9.99026,0.0858 0.80075,0.20098 2.32094,2.25751 2.02396,2.73804 -0.0952,0.15405 -5.32312,0.2801 -11.61757,0.2801 -10.84504,0 -11.44446,-0.0337 -11.44446,-0.64406 z"
             id="path1937" />
        </g>
      </g>
    </g>
  </g>
</svg>
