<svg height="512" viewBox="0 0 135.46667 135.46667" width="512" xmlns="http://www.w3.org/2000/svg"><g fill="#273839" stroke-width=".352778" transform="matrix(1.2059279 0 0 1.2059279 -68.81199 -97.230206)"><path d="m87.799648 149.0074c-29.641076-57.093796-14.820538-28.5469 0 0zm-9.998569 14.24113c-4.995452-1.59692-8.636912-5.33078-10.341437-10.60384-.723878-2.23937-.825-6.27818-.204154-8.1539.396853-1.19898.34748-1.38765-.830862-3.175-1.531921-2.32367-2.51254-4.87386-3.229269-8.39803-.299157-1.47095-.705708-3.46821-.903448-4.43835-.840798-4.12508.478655-10.01925 3.092446-13.81436 2.41955-3.51308 7.081271-7.01703 10.213859-7.67718.918106-.19348 1.149244-.081 1.680267.81799.863032 1.461 2.951878 3.02445 4.940433 3.6978 2.105612.71298 3.043013.7159 5.533095.0172l1.975742-.55436 3.313466 1.6127c1.822404.88698 3.540411 1.6127 3.817786 1.6127.342967 0 .422144.19752.247473.61736-.141266.33955-.337199 1.37142-.435405 2.29305-.136331 1.27943-.321861 1.6757-.784536 1.6757-.946968 0-4.665846 2.556-6.018957 4.13685-1.542704 1.80235-3.730216 5.48256-4.35532 7.32726-2.046863 6.04037-2.127405 6.41752-1.685477 7.89254.23489.78399.794455 1.86916 1.243475 2.41148.619788.74857.83476 1.4861.892616 3.06245.06579 1.7925-.04454 2.20252-.806888 2.99861-2.712785 2.83289-3.523906 10.40402-1.771195 16.53261.215699.75423.13274.79281-1.666226.77478-1.041275-.0104-2.804143-.31016-3.917484-.66607zm68.322431-7.16447c-.03-3.63143-.95146-6.92629-2.50692-8.96405-.9719-1.27327-1.1732-1.84317-1.1732-3.32151 0-1.58246.13981-1.91638 1.23472-2.94902 1.11658-1.05307 1.23407-1.34616 1.22785-3.06311-.0136-3.76953-3.22279-11.21777-6.4422-14.95203-.66941-.77646-2.27592-2.03095-3.57002-2.78778-1.29411-.75682-2.41086-1.47091-2.48166-1.58687s-.24227-1.12365-.38103-2.23931c-.2047-1.64588-.15662-2.02847.25494-2.02847.27897 0 1.99828-.72571 3.82069-1.6127l3.31346-1.61269 1.97575.55436c2.49331.69959 3.35232.6953 5.59167-.0279 2.47068-.79794 4.40048-2.55467 5.63739-5.13182l1.03244-2.15114 1.68228 1.72777c3.46161 3.55522 5.0315 8.95235 4.08058 14.02867-.38361 2.04779-.37404 2.0927.87736 4.12013 1.44264 2.33726 2.95784 6.25992 2.96349 7.67209.002.52475.25703 1.74784.56651 2.71798.78854 2.47183.78568 7.55952-.006 10.23056-2.03945 6.88306-7.30676 12.0081-14.13245 13.7507-3.6196.92409-3.5382.97828-3.5659-2.37383zm-9.92433-30.38958c-61.907431-41.551849-30.95372-20.77592 0 0zm-36.15586-21.28997c-.06515-.33834.17762-1.48928.53951-2.55764 1.28307-3.787888.0114-7.714674-3.259505-10.064543-.921716-.662185-1.870512-1.631224-2.10844-2.153419-.504567-1.107406-.600032-1.014095 2.855137-2.79074 10.735478-5.520176 23.134608-4.611653 33.217468 2.433949l2.07325 1.448733-1.01021.711219c-3.90708 2.750705-5.38219 7.429332-3.51957 11.163051.41901.83992.41878 2.42456-.00035 2.42456-.0687 0-.85702-.51594-1.75179-1.14653l-1.62687-1.14653h-11.00972-11.00971l-1.44742 1.14653c-1.67501 1.32681-1.7829 1.35634-1.94178.53136z" fill-opacity=".501961"/><path d="m107.342 189.99241c-3.63646-.39586-4.28248-.6903-4.48091-2.04228-.0919-.62617.001-1.10421.22048-1.129.20894-.0236 5.14238-.0236 10.96321.00007 5.82083.0237 10.82927.043 11.12986.043.41612-.00005.51238.29242.40342 1.22572-.15819 1.35502.0321 1.27826-4.8305 1.94793-2.93975.40485-9.47241.38271-13.40556-.0454zm-.88194-5.97232c-4.38119-.40686-8.715204-1.38214-9.746307-2.1932-2.755953-2.16784-4.537629-5.83909-3.10123-6.39029.306909-.11778 9.641407-.21413 20.743337-.21413 21.23042 0 21.04239-.014 21.02323 1.56986-.0112.93117-2.08043 3.75138-3.58572 4.88723-2.78212 2.09931-15.3887 3.26402-25.33331 2.34053zm-14.119785-11.4539c-.342434-.41261-.354382-.74473-.05076-1.41111l.397079-.8715h21.514606c21.15354 0 21.52093.0119 21.89219.70555.26829.5013.26829.90982 0 1.41111-.37125.69369-.73865.70556-21.84144.70556-18.833279 0-21.518719-.0661-21.911675-.53961zm-1.232129-5.45865c-1.313123-.22747-3.503478-3.04061-4.256719-5.46702-.783488-2.52385-1.016917-6.6864-.511355-9.11865.310769-1.49512.77119-2.44205 1.672403-3.43958l1.24357-1.37649h24.940175 24.94017l.90767.97014c1.5424 1.64855 2.12225 3.22499 2.31344 6.28959.25494 4.08632-.57565 7.2931-2.60192 10.04559-1.08011 1.46723-1.78278 2.10065-2.33854 2.10807-9.43205.12604-45.566537.11695-46.308894-.0116zm-1.34384-22.10397c-.130669-.13067-.237582-.84613-.237582-1.5899v-1.35231h24.714726 24.71473l-.10848 1.4993-.10847 1.49931-24.36867.0906c-13.40277.0498-24.475585-.0163-24.606254-.14699zm-1.481067-6.56443-.930049-.8.739006-2.8944c1.016272-3.98034 1.231205-4.48302 3.210758-7.50922 1.323138-2.02272 2.193914-2.93208 3.656446-3.81847 3.528282-2.13836 3.814057-2.16958 19.85706-2.16958h14.59427l2.19481 1.09665c2.80445 1.40128 5.09028 3.81901 6.88079 7.27784 1.48271 2.86423 3.06629 7.61335 2.78397 8.34907-.44583 1.16179-2.75231 1.2681-27.51136 1.2681h-24.545648zm11.985981-20.04177c-.12939-.20935-.0434-1.06583.19106-1.90327.35729-1.27613.59904-1.55718 1.49325-1.73602.58682-.11737 6.53208-.21339 13.21168-.21339h12.14474l.48721 1.16606c.26797.64133.59458 1.59383.7258 2.11667l.23859.9506h-14.12854c-9.72811 0-14.2018-.11855-14.36379-.38065zm2.56173-5.48272c-.13829-.13829-.25145-.62186-.25145-1.07459 0-.76376.14168-.82315 1.96371-.82315 1.93411 0 1.96203.0146 1.85209.97014-.10137.88094-.2588.97974-1.71226 1.0746-.88035.0575-1.71379-.009-1.85209-.147zm5.99681-.00035c-.13807-.13813-.25104-.62943-.25104-1.09185 0-.8006.0969-.8357 2.02848-.73495 1.9003.0991 2.02847.16152 2.02847.98774 0 .81028-.14443.8904-1.77744.98599-.97759.0572-1.89041-.009-2.02847-.14699zm6.93957-.29035c-.44039-1.14768.1296-1.60704 1.99398-1.60704 1.75376 0 1.79562.0241 1.68676.97014-.10226.88877-.25248.97917-1.79092 1.07781-1.26391.081-1.73137-.028-1.88982-.44097zm6.81951.29111c-.13848-.13855-.25178-.62227-.25178-1.075 0-.75403.15007-.82315 1.78732-.82315 1.74168 0 1.78447.0248 1.67569.97014-.0988.85867-.27523.98218-1.53553 1.07493-.78315.0576-1.53721-.009-1.6757-.14699zm-29.17956-4.34682-4.056944-2.05946-1.442107.84295c-2.525014 1.47595-5.673393.8695-7.296091-1.4054-.602722-.84496-.789434-1.60621-.798051-3.25372-.0094-1.79868-.163227-2.3313-.939823-3.254229-1.297407-1.541881-1.799285-3.318272-1.623621-5.746795.3446-4.76405 5.022209-7.953737 9.730726-6.635434 2.29742.643238 4.745165 3.114243 5.311027 5.361497.283676 1.126566.604238 1.665927.990128 1.665927 1.024724 0 2.859465 1.396105 3.438588 2.616515.745631 1.571302.699188 3.233299-.138832 4.968209-.912184 1.88844-.891367 2.10162.485789 4.97527 1.69007 3.52658 1.819131 4.02456 1.03729 4.00234-.352626-.01-2.466759-.94497-4.698079-2.07767zm37.31673 1.90058c-.10743-.10742.41928-1.57586 1.17046-3.26319 1.58058-3.5504 1.61693-3.85983.67114-5.71372-.38805-.76065-.70555-1.873461-.70555-2.47291 0-2.033281 1.78287-4.365699 3.73644-4.888166.73433-.19639 1.06467-.54915 1.22182-1.304738.29528-1.419825 1.16219-3.00062 2.15197-3.924096 1.23955-1.156519 3.82166-2.211262 5.41338-2.211262 1.59139 0 4.17306 1.054405 5.41419 2.211262 2.93188 2.732802 3.06057 7.725064.27753 10.765882-.61987.677278-.7321 1.173618-.63818 2.822218.13448 2.3606-.74076 3.96908-2.76048 5.07309-1.54798.84615-4.21193.68805-5.59139-.33183l-.96001-.70976-4.36187 2.07126c-4.475 2.12499-4.70486 2.21056-5.03945 1.87596zm-27.79173-1.85986c0-.35423.40938-1.02892.90973-1.49931.90839-.85399.92318-.8554 10.13808-.96061 5.0756-.058 9.57122-.0193 9.99026.0858.80075.20098 2.32094 2.25751 2.02396 2.73804-.0952.15405-5.32312.2801-11.61757.2801-10.84504 0-11.44446-.0337-11.44446-.64406z"/></g></svg>