<svg clip-rule="evenodd" fill-rule="evenodd" height="512" stroke-linejoin="round" stroke-miterlimit="2" viewBox="0 0 512 512" width="512" xmlns="http://www.w3.org/2000/svg"><g fill="#273839" transform="matrix(1.3443526 0 0 1.3443525 10.655647 14.479499)"><path d="m364 194-46 41-16 32 22 4c1.032 25.156-81.585 38-141.5 38s-142.532-12.844-141.5-38l22-4-16-32-46-41 39 58-37 6 26 9c-15.634 15.416 26.352 49.873 153.5 49.873s169.134-34.457 153.5-49.873l26-9-37-6z" fill-opacity=".51"/><path d="m202 56s15.187-17.631 39.125-6.285c23.939 11.346 21.875 27.285 21.875 27.285s40.953 17.318 40.953 51.228c0 29.909-24.953 41.772-24.953 41.772s15.594 36.93-21.417 73.941c-40.012 40.012-91.583 6.059-91.583 6.059s-16.142 15.396-38.411 7.437c-22.269-7.96-23.589-29.437-23.589-29.437s-42.081-15.391-40.337-52c1.558-32.687 25.337-40 25.337-40s-16.742-52.48 28.666-81.117c45.407-28.638 84.334 1.117 84.334 1.117zm-14.357 43.285c25.231 2.801 42.957 25.592 42.957 37.715 0 3.114 2 3.125 2 10 0 9.875-3 8.879-3 14 0 2.121-2.361 3-3 3-.64 0 .065 1.103 0 3-.023.673.613 1.449 1 2 .732 1.042 1 .166 1 6 0 3.834 3 4.166 2 7-.919 2.604-10.775 19.327-13 19-2.226-.327-1.867-2-4-2-2.134 0-8 3.171-8 9 0 3.829.355 3.644-1 5l-12.6 8c-2.096 0-.631-2-2-2s.002 2-3 2c-.346 0-.634-.125-.892-.312l-1.434-1.375c-.259-.188-.546-.313-.892-.313-1.384 0-.151 3-3.782 3s-2.369-4-4-4c-3.041 0 1.064 3-5 3-1.064 0-1.027-1.059-2-1s-8.644-5.644-10-7-1-1.171-1-5c0-5.829-5.867-9-8-9s-.775 1.97-4 2c-1.268.012-13.578-15.633-14-18-.317-1.775 3-4.166 3-8 0-5.834.268-4.958 1-6 .387-.551 1.023-1.327 1-2-.065-1.897.64-3 0-3s-3-.879-3-3c0-5.121-3-4.125-3-14 0-6.875 2-6.886 2-10 0-12.932 21.568-38 49.5-38z"/><path d="m181 179c3.907 0 6 8.431 6 14 0 3.703 1.361 5.143 2 6 2.263 3.036-.171 6-2 6-2.489 0-2.511-5-6-5-2.489 0-2.175 4-4 4s-4.451-1.312-3-6c.832-2.688 2-5.186 2-8 0-1.131.039-11 5-11z"/><path d="m162 161.5c-6.26 0-12.485 2.945-16.555 7.681-4.222 4.911-4.704 10.479.862 14.557 1.359.996 2.878 1.813 4.476 2.351 1.673.563 3.456.79 5.217.911 6.696.46 16.12-4.14 18.56-10.737 2.562-6.925-6.053-14.763-12.56-14.763z"/><path d="m203 161.5c6.26 0 12.485 2.945 16.555 7.681 4.222 4.911 4.704 10.479-.862 14.557-1.359.996-2.878 1.813-4.476 2.351-1.673.563-3.456.79-5.217.911-6.696.46-16.12-4.14-18.56-10.737-2.562-6.925 6.053-14.763 12.56-14.763z"/></g></svg>