<svg height="128" viewBox="0 0 43.838282 33.866667" width="165.688" xmlns="http://www.w3.org/2000/svg"><path d="m23.62096 33.629961c-.821532-.222714-1.151381-.413915-1.30834-.75841-.150012-.329232-.151732-.497089-.006-.588459.244707-.153451.620169-1.43966.621633-2.129514.000588-.271803.673269-1.92306 1.494869-3.669456l1.493815-3.175268 1.615372-.005c.888454-.0027 1.615379.006 1.615389.01947.00001.01354-.678352 1.618847-1.507474 3.567455-.829121 1.948609-1.507494 3.600718-1.507494 3.67136 0 .07064.50878.356759 1.130618.635821 1.014028.455067 1.130622.565082 1.130622 1.066803 0 .397142-.122972.61555-.423983.752968-.233191.106455-.677579.330761-.987535.498448-.781425.422745-2.061983.466112-3.361468.113833zm2.805494-.708269c.242099-.178684.302065-.332065.177344-.453617-.35801-.348902-2.594079-1.185972-2.750432-1.02962-.08627.08626-.181085.446497-.210706.800507-.04573.546608.01718.664117.417243.779392.808877.233071 1.984878.185036 2.366551-.09666zm.08313-5.288907c.203263-.244919.107206-.282656-.719555-.282656-.900195 0-1.304821.174052-1.034066.444809.236046.236046 1.521816.11716 1.753621-.162153zm.522878-1.188847c.06102-.18523-.142841-.232161-.818504-.188437-.530509.03433-.933097.159456-.981002.304892-.06102.18523.142843.232162.818505.188437.530511-.03433.933099-.159455.981001-.304892zm.56531-1.13062c.06102-.185231-.142841-.232159-.818505-.188434-.530507.03433-.933097.15945-.981001.304887-.06101.185232.142841.232162.818504.188437.53051-.03433.933099-.159451.981002-.30489zm.56531-1.130618c.06102-.185231-.142843-.232163-.818503-.188436-.53051.03433-.933101.159453-.981003.304889-.06102.185231.142841.232161.818504.188436.530511-.03433.9331-.159453.981002-.304889zm.613384 8.113887c.003-.285009.335699-1.196574.739102-2.025692l.733464-1.50749-.102869.878183c-.09785.835194-.07406.89309.485732 1.182566.323738.167413.588611.421306.588611.56421 0 .249349-1.863609 1.426423-2.258384 1.426423-.105212 0-.188755-.233188-.18565-.5182zm-.806483-1.061137c-.372414-.165061-.460695-.287171-.313814-.434052.315108-.315108.124616-1.063363-.327901-1.288022-.400647-.198906-.388698-.242453.880202-3.208139l1.286367-3.006491 1.333927-.05536c.942219-.03909 1.333924.01113 1.333924.170629 0 .314377-3.437621 8.085263-3.568352 8.066414-.0584-.0084-.33935-.118662-.624353-.244973zm-1.146332-.619088c-.223073-.223067-.133442-.773234.143256-.879415.344599-.132232.748838.347973.606079.719986-.112616.293485-.527092.38167-.749332.159429zm-4.660965-2.080358c-.204601-.619948-.192215-.720588.110183-.895069.913986-.527376 1.063269-.833289.929422-1.904569-.07833-.62692-.05675-1.024347.05564-1.024347.100992 0 .580827-.349634 1.066301-.776969.485473-.42733.911984-.745314.947799-.706636.104708.113082-2.580713 6.006082-2.736947 6.006082-.07803 0-.2456-.314322-.372386-.698492zm1.556055-6.038113c.05694-.29643.391755-.334977 3.312343-.381326l3.249005-.05157 1.202586-2.398115c.661427-1.318961 1.381801-2.559647 1.600832-2.75708.570421-.51417.507821-1.3328-.167069-2.184923-.607233-.766689-.682304-1.12523-.361209-1.725193.180402-.337089.379917-.06765 1.718456 2.320732.8329 1.486154 1.552891 2.800794 1.599985 2.921419.04708.120629-.181308.827498-.507554 1.570827-.326251.743326-.54259 1.483343-.480755 1.644481.206164.53726-.09519.97884-.802035 1.17515-.392265.108953-2.818536.193711-5.561861.194303-4.533172.00096-4.861731-.02151-4.802724-.328713zm8.172469-.06519c.166127-.268794-.383824-.818747-.652622-.652623-.359109.22194-.241007.859141.159236.859141.201162 0 .423184-.09293.493384-.206518zm-7.061501-1.330998c.486262-.908579-.347642-3.710553-1.424915-4.787824-.329714-.329713-.453109-.608991-.376173-.851395.159373-.502131-.05657-1.078332-.491344-1.311015-.293278-.156957-.604873-.06282-1.559948.471296-1.059387.592438-1.346318.667421-2.55392.667421-2.093039 0-2.089414.0047-2.089414-2.550519v-2.160388h.594516c.569441 0 .581024.01497.274655.353441-.258139.285241-.309224.657943-.264753 1.931473l.05511 1.578033 1.413273.04937c1.280675.04474 1.506982-.0048 2.412017-.527412.549304-.317229 1.046025-.700005 1.103818-.850612.122868-.320231-.434812-1.809887-.753499-2.012666-.120163-.07646-.531428-.140293-.91396-.141886-.382534-.0015-.747924-.08767-.811979-.191321-.07503-.121413.80909-.203486 2.485666-.230745 1.755007-.02853 1.007154-.07454-2.29723-.141328l-4.899357-.09901-.05591-1.1700807c-.03775-.7902726.04027-1.3560645.240383-1.7430382l.296297-.5729549h1.691089 1.691096v.6486908c0 .6262296-.02774.651191-.800857.7208243-.440471.039669.02591.086954 1.036402.1050514l1.837256.032915-.02822-.612417c-.02628-.5700089-.03367-.5765328-.106739-.094218-.06532.4311391-.172367.5181998-.637199.5181998-.521346 0-.555729-.044098-.514281-.6595278l.04441-.6595248h1.845854c1.104947 0 1.845855.075643 1.845855.188436 0 .103634.206092.1884374.457985.1884374.331481 0 .47462.1171117.518204.4239827.03869.2724711.211721.4454997.484193.4841972.358935.050965.423986-.026606.423986-.5056857 0-.4726883-.08535-.5788285-.518203-.6443993-.28501-.043175.128758-.091207.919486-.1067407l1.437685-.02823.692345.8449175.692347.8449177-5.14502.050152-5.145016.050152-.06269.4429699c-.05056.3572297-.151731.4259485-.522699.3550344-.252998-.048368-.505374-.014498-.560836.075244-.05548.089742.582533.1631653 1.417772.1631653 1.386029 0 1.518614-.032453 1.518614-.3717591 0-.3605324.180688-.3742272 5.982868-.4535245 3.290576-.044958 6.470444-.139926 7.066374-.2109916.729593-.087017 1.083514-.062786 1.083514.074161 0 .111855-.466383 1.192125-1.036403 2.4005969-.57002 1.208472-1.036401 2.409942-1.036401 2.669935 0 .259995.21199.750648.471091 1.090347.484067.634646.62131 1.469878.276536 1.68296-.107011.06613-.743587 1.215886-1.414624 2.555015l-1.220069 2.43477h-1.379282-1.379289l.0805-.54855c.062-.422408-.01577-.600087-.338247-.772663-.354658-.189806-.479674-.163202-.816675.173802-.337295.337294-.362259.455008-.163883.772664.219102.350841.185422.374747-.527938.374747-.72232 0-.750642-.02119-.544218-.406885zm5.340924-1.585154c.543699-.543696.220738-1.211378-.585945-1.211378-.516741 0-.797072.790973-.434966 1.227286.299669.361075.649373.355628 1.020911-.01593zm-.918211-.25219c-.152672-.247024.08437-.770749.348836-.770749.344549 0 .659376.392126.547949.68249-.111749.291179-.733552.352379-.896785.08828zm.49321-4.18007c.496153-.265531 1.851738-3.193527 1.851738-3.99965 0-.951088-.249846-1.07067-2.236981-1.07067-2.048809 0-2.473938.213702-2.473938 1.243601 0 .717063 1.18303 3.449002 1.644268 3.797071.383962.289753.713857.297803 1.214913.02963zm-3.544301 5.954471c-.06527-.170086-.02832-.399603.08211-.510038.287105-.287105.831083-.02471.756088.364716-.08353.43376-.687355.538445-.83821.145327zm9.580881-1.431617c.447994-1.159609 3.255214-7.902783 3.444563-8.27412.132121-.2591.731063-1.7430367 1.330984-3.2976375.599927-1.5546025 1.164455-2.8759817 1.254508-2.936401.09088-.060981.07872-.3334319-.02735-.6124185-.228926-.6021156-.118881-.615771 1.021858-.1267954.710915.3047348.854912.4442243.761701.737888-.06322.199165-.0267.4166567.08117.4833154.305671.1889109.231399.9766432-.161116 1.7089971l-.357219.6664944-.520976-1.3278802c-.286536-.7303336-.549587-1.2992677-.584556-1.2642986-.03498.034972.152097.692671.415709 1.4615572.300952.8778114.440561 1.6083203.375205 1.9632878-.103763.5635456-.93726 2.0918513-2.640262 4.8411743-.803194 1.296672-.877457 1.50751-.705116 2.001891.160811.461296.118079.677563-.258596 1.309248-.266377.446696-.644935.805293-.924085.875355-.260072.06527-.472856.191671-.472856.280885 0 .08921-.480641.52509-1.068086.968618-.587445.443526-1.021915.686903-.965486.540842zm4.294812-7.237719c0-.155459-.07979-.282654-.177317-.282654-.237615 0-.407795.29426-.257248.444808.212216.212213.434565.129252.434565-.162154zm1.884367-3.2191263c0-.1640973-.100681-.2647922-.223767-.2237686-.349402.1164593-.407356.5221253-.07458.5221253.1641 0 .298359-.1342545.298359-.2983567zm-7.515354 5.9809023-1.529865-2.827997.834992-1.841019c1.064545-2.3471542 1.005795-2.5210111-.851874-2.5210111h-1.322935l.513005-.4412699c.69777-.6001944.703722-1.5271304.0137-2.1207339-.438368-.3770678-.459477-.443645-.172736-.5448518.179661-.063412.585538-.5094209.901942-.9911302l.575287-.8758345 3.030609.011443c3.31494.012504 4.084762.2046491 4.811547 1.2009042.340223.4663666.339815.4993924-.01634 1.3190553-.200917.4623918-.633995 1.4931198-.962391 2.2905058-.579575 1.4072539-.617394 1.451486-1.288991 1.5074915-.500271.041725-.710485.1556983-.759025.4115578-.05655.2980888.0249.3403578.516633.2681823.600778-.088181.666125-.019516.469389.4931665-.07222.188122-.342798.298067-.733599.298067-.390808 0-.6614.109943-.733589.298065-.168729.439705-.156224.45568.356713.45568.259099 0 .471092.108732.471092.241618 0 .302631-2.23192 5.825954-2.440436 6.039343-.08425.08622-.841639-1.115823-1.683064-2.67122zm3.927556-6.1445869c.511306-.616086-.421854-1.5492447-1.037939-1.0379402-.280979.233189-.371922.9619948-.147988 1.185926.223931.2239328.952739.13298 1.185927-.1479858zm-1.054488-.1962181c-.06527-.1700859-.02831-.3996042.08211-.5100396.287105-.2871026.831083-.024694.756089.3647176-.08353.4337598-.687355.5384438-.838211.1453268zm2.763722-1.8022396c.197646-.3693042.164503-.3849554-.698313-.3297639-.684771.043796-.921087.1384126-.968427.3877051-.09858.519119 1.385518.4675265 1.66674-.057941zm.564712-1.1295046c.251641-.4701967.1739-1.1576471-.142698-1.2618921-.127436-.0419635-.376339.2269842-.553099.5976583l-.321389.6739544h-1.273038c-.700167 0-1.325441.084792-1.389494.1884365-.07452.1205847.529736.1884359 1.678179.1884359 1.616825 0 1.815141-.0383 2.001539-.386593zm-3.8759-1.9207727c.363888-.5195256.01113-.7246031-.364057-.2116029-.241186.3298466-.271514.3308173-.61531.019683-.198893-.1799943-.51812-.3272622-.709395-.3272622-.312797 0-.303262.047379.09478.4710915.549309.5847142 1.204258.6044742 1.593967.04809zm-33.8166507 11.2848069c0-.657729.2251852-.895682.4710916-.4978.2391113.38689 1.0101028.189329 1.4004437-.358853.5792634-.813498.552882-2.625576-.046424-3.188591-.4583703-.430615-1.1553275-.542779-1.3559205-.21821-.2000148.32363-.4691924.0037-.4691924-.557529 0-.367801-.1126515-.5616683-.3646803-.6275736-.26339-.0688718-.3357923-.2058283-.2606774-.4930695.1030272-.3939693.1594192-.3977021 6.0069469-.3977021h5.9029451l.05794.8008528c.05766.7969624.06184.8011384.858799.8588004.70778.0512.800858.111441.800858.5182 0 .419327-.07482.460255-.841339.460255-.648477 0-.887568-.0864-1.04303-.376872-.184147-.344089-.394549-.376873-2.418619-.376873-2.3376196 0-2.66917.107139-2.66917.862578 0 .225682-.1271954.515894-.2826563.644914-.4037128.335051-.3516598 1.362359.093231 1.839883.3462978.371705.5262055.397756 2.2861213.330993 1.050633-.03984 2.000804-.163021 2.111488-.273705.110674-.110675.777862-.201243 1.482613-.201243h1.281371v.544337c0 .621715-.141598.667024-2.732335.874243-.829122.0663-1.719484.161163-1.978584.210766-.2591.04959-2.2306213.139288-4.3811544.19931l-3.910062.109108zm.5002977-.842401c-.4195418-.463587-.4242767-2.323639-.00752-2.959665.6545006-.998895 1.391603-.286106 1.391603 1.345702 0 1.657875-.6540772 2.420594-1.3840706 1.613963zm5.6531011-.56531c-.8831245-.975838.5348217-2.362088 1.4648279-1.432083.350429.350427.39015 1.230403.06999 1.550562-.337913.337911-1.1806668.272857-1.5348203-.118483zm2.3065909.109056c-.01083-.02593-.04005-.3791-.06497-.784858-.05558-.90503-.625446-1.429274-1.5536679-1.429274-.4395701 0-.6286839-.07732-.5761473-.235546.055533-.167223.7433028-.250892 2.3711622-.288453 1.956088-.04513 2.292952-.01036 2.292952.235545 0 .224017.23152.288454 1.036405.288454h1.036404v.847965.847962h-1.413275-1.413277v-1.049505c0-.980595-.02784-1.045553-.42398-.98929-.371998.05284-.431144.186591-.482376 1.090892-.04588.80995.01227 1.082345.271563 1.271944.29004.212086.245819.241272-.365594.241272-.382548 0-.704391-.02119-.715205-.04709zm8.794735-.847961c.06129-.388651.02199-.939827-.08732-1.224838-.188205-.490661-.170198-.518201.33881-.518201.631156 0 .914451.287508 1.075182 1.091168.103232.516096.04296.629187-.517078.970629-.862706.525954-.938117.496263-.809589-.318758zm-17.8200351-5.1056922c0-.1912158.1550706-.4880032.3446004-.6595263.300235-.271708.9191233-.31186 4.8068982-.31186h4.4622945l.603995-1.2248379c.406627-.8245955.71393-1.2248365.94042-1.2248365.446822 0 .425195.2142398-.132789 1.3153565-.284183.5608087-.395122.9717483-.281322 1.0420794.103335.063869.238764-.016442.300941-.1784723.06218-.1620311.31379-.2945984.55914-.2945984.303402 0 .538052-.1778319.733587-.5559524.384786-.7441008.369236-.7907997-.214586-.6442713-.423535.1062992-.482487.074975-.376871-.2002578.06885-.1794489.125211-.361734.125211-.4050772 0-.043342 3.191716-.078805 7.092711-.078805 6.531641 0 7.113001.026088 7.349168.3297637.244249.3140611.265875.3140611.454123 0 .155252-.2590185.448318-.327977 1.366026-.3214357l1.168366.00834-.753747.3971351c-1.245875.6564301-1.487492 1.2451636-.941022 2.2929684.154823.2968559.281495.5724449.281495.6124186 0 .039972-.418484.072679-.929963.072679-.871518 0-.963297-.047476-1.460386-.7555819-.291735-.4155831-.700018-.7996909-.907297-.853587-.20728-.0538961-3.001823-.0742725-6.210091-.0452772l-5.833215.052717-.479415.9782386-.479412.9782402-5.7944313.01099c-5.510547.0105175-5.7944288-.0058919-5.7944288-.336615zm28.0676791-.9889381c-.47572-.8888948.478926-1.8776679 1.310508-1.3573554.377515.2362078.495212 1.1211012.19692 1.48052-.345099.4158225-1.258928.3411581-1.507428-.1231646zm-29.1253301-.0640939c-.0570091-.1485451.1152478-.5922111.3827849-.9859255.2675373-.3937131.4864292-.8657511.4864292-1.0489728 0-.274132.1668629-.3331301.9421842-.3331301.5182005 0 .9421826.046611.9421826.1035758 0 .056964-.1293726.3537547-.2874937.659528-.2857808.5526373-.2843025.5559522.2477525.5559522.4261845 0 .5993375-.1343915.8497572-.6595279.2908699-.6099614.3784636-.6595273 1.1655217-.6595273.9164808 0 .9893054.08397.5623653.6484342-.3882879.5133614-.3462989.670621.179062.670621.3175605 0 .5792971-.1999489.8633336-.6595279.3769107-.6098533.4777807-.6595282 1.3392646-.6595282h.9316536l-.2874939.5559516c-.3774705.7299464-.3693612.7631037.1866458.7631037.3563445 0 .5522775-.163854.7886495-.6595279.295124-.6188791.370426-.6595274 1.221789-.6595274.499007 0 .907283.045215.907283.1004807 0 .055265-.213419.521646-.474266 1.0364008l-.474265.9359193h-4.4020172c-3.6830194 0-4.4403311.04617-4.6365983.2826546-.2986176.3598122-1.2979178.3685698-1.4345246.0125819zm-1.11171387-.6278769c-.10492307-.0761523-.20195307-.3716318-.21561096-.6566417-.02387649-.4981052.01096087-.5182003.8974161-.5182003.50723653 0 .92224943.050509.92224943.1122369 0 .061729-.1753673.358519-.3897055.6595279-.3800211.5336883-.8289953.682716-1.21434907.4030772zm1.98350027-2.4467882c.001477-.1813702.0536986-.520556.1161961-.7537457.1129606-.4215007.1353618-.423982 3.8275326-.423982h3.7139089l.4425691-.4710918c.243412-.2590997.622749-.4710906.842975-.4710906.34783 0 .390136.087961.322198.6699021-.135577 1.1613517.03463 1.201686 5.10035 1.2084693 2.861952.00386 4.475371-.06194 4.475371-.1824434 0-.1201615-1.570302-.1884365-4.334043-.1884365-2.763739 0-4.334046-.068271-4.334046-.1884367 0-.1036392-.127197-.1884366-.282656-.1884366-.15546 0-.282655-.1271954-.282655-.2826544 0-.1554593.136262-.2826548.302814-.2826548.191755 0 .263035-.1036677.194353-.2826551-.08619-.2246236.06027-.2826539.713426-.2826539.556738 0 .856882.091187.930356.2826539.05965.1554609.323119.2826551.585465.2826551.298385 0 .477011-.1058449.477011-.2826551 0-.375436.918409-.375436 1.062475 0 .06251.1629214.344106.2826551.664738.2826551.322863 0 .507403-.079067.43981-.1884366-.0742-.120063.473622-.1884368 1.50983-.1884368 1.6099 0 2.164684.1925776 2.164684.7514073 0 .1171584.09167.1563659.203707.087121.112034-.069243.155251-.3189343.09605-.5548694-.06029-.2402506-.0048-.510002.126065-.6131567.131084-.103304 1.309426-.1673829 2.683398-.1459227l2.449675.0382613.774551-.73702366.774553-.73702234 1.081684.94655576c.76761.67171684 1.445492 1.06538174 2.334656 1.35579714.689131.2250826 1.314062.4640852 1.388738.5311167.07469.067031-.07821.3745241-.339724.683316-.368951.4356335-.428304.464094-.264883.1270102.367445-.7578968.08762-.8860925-.358515-.1642439-.556567.9005502-1.047589.990199-.573707.104746.376096-.7027397.06299-.7952872-.345916-.1022438-.323331.5480067-.522536.6903894-.965898.6903894-.43495 0-.571887-.093403-.618777-.422057-.089355-.6263146-.719749-.6813631-.719749-.0628515v.4849089h-13.190569c-12.4378043 0-13.1904243-.018819-13.1879985-.3297638zm26.4794087-2.1306206c.185849-.3007142-.059531-1.06373697-.381866-1.18742876-.670596-.25733084-1.294727.56756666-.842086 1.11296286.26373.317774 1.044231.3652603 1.223952.074466zm-1.002463-.2230741c-.277603-.3344949.0089-.76278904.453115-.67724963.433352.0834539.477359.78795283.05432.86942503-.164997.031777-.39334-.054704-.507432-.1921754zm-25.0036893.6183213c-.0614524-.0994235-.0036961-.3538131.1284253-.5653093.2264785-.3626485.4228955-.3845382 3.4505345-.3845382 2.6295433 0 3.2877841.054212 3.6381716.2996326.3393539.2376927.3822049.3545515.2072919.5653091-.1754372.2113895-.9450996.2656777-3.766597.2656777-2.0605624 0-3.5929075-.075727-3.6578263-.1807719z" fill="#273839" stroke-width=".188435"/></svg>