<svg height="128" viewBox="0 0 109.09167 33.866667" width="412.315" xmlns="http://www.w3.org/2000/svg"><path d="m50.025515 30.433784-.427066-.255967.0005-3.38581.000501-3.385803.306083-.326588.306112-.326588h1.502234 1.502248v-.251217c0-.284049.169067-.322315.458101-.103698.25439.192413 1.140634.192413 1.395023 0 .10724-.08114.231637-.147543.276338-.147543.04474 0 .0813 1.899235.0813 4.22053v4.22053l-2.487103-.000795c-2.485647-.000797-2.487345-.000797-2.914183-.256923zm1.689804-1.253014c.183281-.09814.194369-.232383.194369-2.355788 0-2.665882.04656-2.564627-1.177978-2.564627h-.731315l.0015 2.336366c.000796 1.28501.03473 2.386113.07538 2.446915.04066.06079.141672.136363.224568.167913.259577.0989 1.209983.07814 1.413452-.03079zm13.670282 1.155666-.311878-.355202v-2.002791-2.002799l-.295618-.466142c-.295479-.465935-.295601-.466834-.287713-2.021586l.0076-1.555436-.566434-.57241-.566448-.572402v-2.265689c0-2.623589-.03261-2.535184 1.071222-2.907931.378937-.127985.731087-.334364.942262-.552237.613531-.633019.867602-.444793.913668.67695.02806.681121.006.801442-.186784 1.006261-.807307.859331-.646947 2.34398.326152 3.019611.695213.482716 1.511956.49061 2.203513.02133.201452-.136713.386188-.248567.410517-.248567.02442 0 .271029.34247.548233.761052l.50397.761044v1.458437 1.45843l-1.057678 1.121776-1.057693 1.12176.01061 1.841786c.01061 1.822695.0076 1.845859-.250081 2.235881l-.260848.394103h-.89257-.892569zm1.776038-.60513c.205319-.143795.223339-.237006.223339-1.155626 0-.549549-.03398-.997557-.07538-.995591-.09465.0048-1.331481 2.044375-1.331481 2.195992 0 .171287.925014.136211 1.183514-.04472zm-.67052-1.630059c.287699-.482049.583999-.947975.658446-1.035361.191547-.224839.07433-.293311-.501969-.293311-.783372 0-.870453.132878-.870453 1.327868 0 .602823.03762.971981.09541.936261.05249-.03247.330853-.453409.618537-.935457zm.537083-2.192118c.146375-.146372.109213-.217088-.436047-.829022-.838751-.94141-1.302389-1.37075-1.387893-1.285249-.07356.0736.322451 1.76779.490561 2.098445.120893.237888 1.099695.249521 1.333379.01583zm2.266068-2.274736c0-.04257-.768735-.07742-1.708325-.07742-1.195878 0-1.708312.03382-1.708312.112777 0 .06207.370974.492815.824358.957333l.824356.844546.883954-.879852c.486178-.483934.883969-.91473.883969-.957332zm-3.336093-1.080112c.03382-.707309-.02654-.825171-.356882-.698397-.19948.07655-.2261.157266-.2261.685562 0 .486027.03307.607334.175847.644128.326182.08408.376738.0056.407135-.631293zm1.707447-.09c-.02806-.635455-.04096-.6659-.280646-.6659-.239904 0-.252554.03016-.280752.670093-.02548.576644-.0045.675647.150774.70999.380211.08419.441264-.02196.41067-.714183zm1.682889.651449c.0015-.0063-.01366-.293613-.03398-.639044-.0355-.586248-.05414-.628063-.280341-.628063-.233047 0-.2423.02689-.2423.705343v.705336l.276352-.06628c.151989-.03644.278144-.07122.280344-.07726zm-2.284574-2.114892.03064-.460946-.482885-.206967c-.265569-.113835-.558774-.27563-.651514-.359562-.205394-.185865-.282526-.145084-1.037139.548427l-.5791.532194.208035.221465c.192867.205328.290884.220184 1.344633.203896l1.136614-.01758zm1.736099.445834c.787301 0 .798708-.01743.460195-.703418-.241133-.488644-.264689-.495765-1.146716-.347029l-.427082.07201v.472467c0 .513057.06431.641837.279311.559329.07645-.02936.451927-.05339.834292-.05339zm-4.060885-1.541399c.652287-.587481.696124-.651919.564053-.82903-.105572-.141623-.136061-.442653-.115887-1.146675.02124-.743362-.01061-1.025525-.142887-1.274865-.09359-.176117-.213935-.347228-.267358-.380243-.05339-.03302-.279841.105036-.503151.306783l-.406042.366819v1.797105c0 .988405.03686 1.797112.08206 1.797112.04505 0 .400279-.28665.789273-.637006zm-22.884235 3.073855c-.003-.09671-.06082-.725674-.127718-1.397669l-.121954-1.221805.355214-.05682c1.305619-.208774 2.063919-1.632478 1.514292-2.843049-.208854-.460014-.159193-.535123.353833-.535123.242286 0 .243014-.0032.243014-1.105376v-1.105382h.502437.502438v1.434437 1.434431l.455933 1.102909c.250763.606595.549337 1.329006.66351 1.60536.114219.276338.318127.745233.453247 1.041973.135151.296749.232213.551722.215771.566602-.194519.1761-4.330078 1.255354-4.810356 1.255354-.115279 0-.196127-.07122-.199631-.175855zm-4.48017-1.204005c-.835051-1.123408-1.006893-1.440415-1.332301-2.458063-.404283-1.264227-.441766-2.621242-.09222-3.340566.120589-.248114.26751-.46825.326591-.489193.059-.02093.821839.004 1.694993.05475 1.118442.06541 1.62631.06064 1.718611-.016.09162-.07607.152077-.587966.201117-1.703915.06355-1.445173.05263-1.626541-.116189-1.928632-.224296-.401477-.395031-.453707-1.795044-.549131l-1.0767-.07339-.611408-.56539c-.336267-.310953-.804365-.65141-1.040203-.7565563-.425519-.189715-.427263-.192616-.227177-.379031.339408-.3162.530197-.781423.461316-1.124835-.139397-.695141-.173481-.654689.926077-1.100442l1.032862-.41872.413961-.703421c.227677-.386883.486406-.787446.574943-.89014.260836-.30249 1.078519-.667437 1.495469-.667437.500207 0 .645596.158764 1.868731 2.040587.926593 1.425599.967092 1.511172.967092 2.043783 0 .490545-.07676.701001-.653182 1.7905043l-.653167 1.234618.0015 1.494818c.000795.822151.03473 1.542425.07538 1.600611.04066.05818.243393.208839.450653.334782.397215.241383.48269.530461.272804.922631-.07993.149381-.21216.194372-.571197.194372-1.605484 0-2.595814 1.92239-1.625687 3.155703.181837.231173.192092.29296.07508.452216-.257742.350635-2.11217 2.47175-2.184478 2.498645-.03988.01488-.300062-.279099-.578128-.653184zm.654062-2.909834c.69133-.449543.721485-.485199.658536-.778789-.09981-.465687-.229346-.659104-.513678-.767202-.219077-.0833-.347873-.04058-.848005.281144-.324346.208662-.613045.45115-.641578.538879-.04808.147964.252539.962377.415403 1.125237.116948.116923.171736.09338.929322-.399269zm-1.106748-1.450544c.406833-.299184.425338-.335413.396624-.776179-.02943-.451596-.03823-.462784-.381835-.480767-.529256-.02769-.703434.18674-.703434.866191 0 .819338.05977.853243.688645.390755zm2.547898-.158755c.209581-.204659.38106-.403009.38106-.44079 0-.0378-.138941-.08909-.308676-.113994-.380212-.05578-.796691.239949-.796691.565734 0 .479493.225539.476087.724307-.0109zm1.586933-5.987779c0-.07126.158282-.43312.35171-.804123.396138-.7597643.422804-.9314493.185403-1.1937753-.13242-.146255-.316958-.183769-.904401-.183769h-.738094v.647247c0 .3559873.04521.6751963.100414.7093523.05522.03416.100416.232779.100416.441384 0 .208602.03019.40942.06704.44627.126352.126429.837418.0733.837418-.06259zm-3.517112-.705422c0-.213597.100414-.41464.320447-.6416653l.320433-.330611-.168081-.352474c-.106178-.222512-.239328-.352472-.361328-.352472-.252113 0-1.015857.913479-1.015857 1.2150263 0 .282424.572743.900514.765792.826433.07645-.02936.138639-.192554.138639-.364237zm-.618279-1.3873943c.257149-.282743.522036-.633201.588625-.778787.136363-.298253.171448-.917884.05187-.917884-.04308 0-.393499.132952-.778776.295447-.660887.27873-.70433.317126-.767537.678301-.03686.210567-.116948.512706-.178016.671419-.136059.353514.0015.565587.367577.565587.171266 0 .394287-.160065.716252-.514083zm2.768036-.04682c.129235-.336923.06325-1.601889-.09541-1.828466-.195279-.278802-.850963-.295222-1.300676-.03257-.256695.149939-.305992.245579-.332022.64417-.02002.306554.03868.62472.170205.921956l.200769.453864h.648086c.498251 0 .662176-.03676.709062-.158954zm1.979915-.616382c.160513-.09482.291841-.201885.291841-.237921 0-.03604-.186723-.388048-.414947-.782244-.364694-.629921-.450441-.716723-.708-.716723-.386096 0-.786345.400466-.786345.786782 0 .543691.119224.899103.337012 1.00451.335084.162195.958612.135712 1.280439-.05441zm-2.632793-1.753674c.221549-.0087.469916.0399.551932.107968.35306.293022.796629-.300201.746467-.998316-.02579-.359688-.08282-.47157-.302959-.594581-.256178-.143175-.2946-.135015-.697519.14818-.234533.164835-.575852.548117-.758495.851746-.383123.636944-.40894.750554-.137578.605322.107392-.05749.376586-.111624.598152-.120314zm13.9284 14.5233843c-1.145215-.863804-1.490356-.925647-2.186981-.391885-.339651.260248-.645703.3956-1.055129.466643-1.10253.191299-1.683904.293852-1.994266.351788-.303838.05674-.319127.04122-.571666-.57907-.142735-.350532-.555861-1.338253-.918113-2.194918s-.658961-1.583923-.659325-1.61611c-.000607-.0499 2.061417-.560013 2.662268-.65861 1.050228-.17233 1.752555-.397822 2.019141-.648251.181944-.170921.306431-.202567.611969-.155531 1.231462.189572 1.149446.202837 1.664793-.269225.26252-.24049.477319-.514233.477319-.608321 0-.179569.27426-.662834.44988-.792729.182461-.134953 1.096979-.04919 1.473686.138215.201284.100142.574351.420271.82903.711401l.463045.529337v2.676958 2.676957l-.401962.06429c-.375601.06008-.401948.0862-.401948.398887 0 .301395-.03853.346179-.388494.451007-.830152.248729-1.112814.173629-2.073247-.550819zm-4.044199-.644893c.510447-.1137 1.018694-.287478 1.129424-.386163.110728-.0987.480959-.281392.822718-.40597.546776-.19932.683109-.213277 1.135446-.11627.282725.06064.55706.110247.609618.110247.05612 0 .09556-.616931.09556-1.495026 0-1.644158-.0543-1.813305-.50274-1.565143-.150319.08322-.552888.139211-1.004588.139744-.960464.000796-4.622496.859045-4.622496 1.082969 0 .07766.208096.647263.46241 1.265698.254327.618451.501922 1.226199.550203 1.350554.107393.276752.165169.277595 1.324475.01934zm-.905114-1.166181c-.210933-.0851-.150926-.616222.08373-.741828.167004-.08937.248292-.07679.401948.0623.429508.388694.06325.901067-.485677.679546zm2.5072-.757447c-.333902-.333909.059-.90986.470524-.689652.279993.149851.342411.410513.149408.62379-.193593.213929-.445116.240657-.619917.06589zm3.264255-.48235c-.0076-1.050106-.02032-1.909287-.02685-1.909287-.215999 0-.639319.268389-.683565.433398-.07584.282943-.07706 2.664816-.0014 2.946636.05476.203888.355622.417014.609588.431742.086.0048.113155-.502871.102233-1.902489zm1.847179 1.302818c.173026-.09259.194368-.218696.194368-1.147828v-1.043804l-.358248-.118235c-.373143-.123154-1.002541-.05944-1.224455.123957-.08403.06947-.125594.413472-.125594 1.040437 0 .853985.01972.950449.223339 1.093075.253844.177796.99972.208081 1.290605.05244zm-49.6257353 1.711255c-.5802824-.121985-1.3326048-.54433-1.7626897-.989568-.3905712-.404361-.8723803-1.249958-.8723803-1.531095 0-.09905-.045202-.208026-.1004149-.242185-.125746-.07766-.1327235-1.197569-.0091-1.433333.050359-.09597.164562-.38248.2537522-.636689.3285628-.936373 1.3114146-1.787261 2.3809235-2.061255 1.0148116-.25998 2.1415357-.04851 3.0005525.563174l.2915972.207622 1.6886378-1.019223c.928776-.560574 2.056016-1.240202 2.505001-1.510283.592705-.356529.923058-.492266 1.205872-.495468.576217-.0065.889188-.142947 3.632211-1.583262 1.942057-1.0197503 3.316269-1.6455073 6.112822-2.7835303 3.249451-1.322324 4.138577-1.689986 5.114876-2.115059.266767-.116145.64229-.255539 2.210765-.820646.221079-.07965.552159-.259133.735727-.398852.306235-.233088.67099-.343989 2.077964-.631799.276354-.05653 1.045089-.22029 1.708312-.363915.958279-.20752 1.350292-.247823 1.909277-.196301.955489.08807.995396.105315 1.296565.560407l.263869.398749h-.255799c-.140612 0-.552858.199283-.915944.442849-.628655.421738-.792822.624547-1.431064 1.767906-.04626.0829-.441142.277445-.877491.432316-.436333.154871-.906904.343248-1.045725.418616-.196719.106802-.354742.113613-.716298.03088-.39368-.09008-.522596-.07739-.85166.08382-.4544.222644-.84259.754913-.84259 1.155342v.282458l-.483099-.242645c-.265703-.133452-.786253-.561176-1.156757-.950496-.370502-.389318-.74906-.707854-.841239-.707854-.239297 0-.83505.226956-.83505.31812 0 .158728.355683.268457.538523.166137.370246-.207196 1.029844.81549.951772 1.47568-.04035.340803.04369.29629-1.992734 1.057178-.91194.3407523-1.997223.7479603-2.411729.9049073-1.078626.408398-3.134703 1.17556-4.046035 1.50965-.429069.157301-.813937.306891-.855255.332428-.106331.06572-.358643-.139595-.569332-.463311-.143644-.220581-.256118-.276345-.557698-.276345-.576185 0-.970928-.103221-1.195724-.312634-.112095-.104389-.252585-.189809-.312302-.189809-.05977 0-1.090593.498782-2.290823 1.108408l-2.182233 1.108412-.573199.775819c-.50523.683817-.695835.849628-1.607335 1.398231-1.653234.99501-1.693764.902865.42787.972571 2.062631.06779 6.826464.206903 12.606445.368172 8.129309.22682 9.520873.282202 9.621576.382893.05627.05626.07341.177358.03823.269121-.05703.148529-.215559.160027-1.445322.104876-.759708-.03406-3.099649-.105497-5.199866-.15873-2.100216-.05324-4.632536-.121873-5.627371-.152581-3.510591-.108329-11.861236-.348175-12.13404-.348501-.26895-.000287-.276459.01519-.280751.577487-.003.317794-.06507.747898-.139247.95578-.07857.220367-.09632.4018-.04247.435101.05081.03143.644839.03199 1.320045.000795.675176-.03071 2.290262-.08026 3.589071-.110048 1.298825-.02976 2.994577-.07639 3.768347-.103539.773756-.02721 3.328676-.09658 5.67761-.154243 2.348933-.05769 5.649987-.142005 7.335697-.187424 1.685696-.04543 3.098829-.0631 3.14027-.03923.0414.02379.07538.129019.07538.233792 0 .2678-.179746.283968-3.868822.347984-1.768606.03071-3.690443.07862-4.270785.106468-.580314.02785-2.931765.09468-5.22541.148497-2.29366.05379-5.911263.149525-8.039101.212705l-3.8688383.11487-.3314146.337967c-.1822787.18588-.2953291.338531-.2512185.339223.044135.000574 6.0395724.01202 13.3232574.02515 11.644829.02093 13.25456.04201 13.33835.174589.262459.415168.714887.401951-13.76255.401951-8.721513 0-13.9560684.03621-14.1175511.09758-.3887511.147805-1.4611267.204484-1.9448472.102799zm2.1507885-1.000143c.8847576-.507455 1.4444571-1.428057 1.4444571-2.37588v-.437177l-.9750252.600546c-.8739277.538282-1.0309814.600539-1.5150506.600539-.4629093 0-.5820268-.04193-.8338071-.293741-.3409553-.34095-.3950306-.865092-.1309033-1.268284.089645-.136729.6574289-.546557 1.2618443-.910719.9995825-.602265 1.0825235-.674581.9173545-.799763-.3836998-.290827-1.149598-.472024-1.781013-.42134-1.4343696.115142-2.3858533 1.073203-2.6283505 2.646566-.080089.519901.1174035.745814.6520441.745814.4902428 0 .8158325.312814.6319916.607191-.1763327.282346-.1572812.347078.2250232.764393.3300493.360264.3550165.3699.5354901.206562.3499806-.316737 1.2286102-.16364 1.2286102.214089 0 .197172.18419.419035.3466739.417579.058095-.000573.3372997-.133889.6206-.296375zm-.6128186-2.318438c.4140518-.457523-.2958598-1.167426-.7533691-.75338-.391815.354573-.1697041.946192.3582169.954204.115735.0016.2935997-.08861.3951522-.200824zm13.1132054-6.428245c.04732 0 .100264-.162761.117403-.361695.02684-.311533.07994-.37894.382897-.486069.592356-.209485 4.707256-1.7622213 6.96894-2.6296933.489136-.187617.952637-.341119 1.029996-.341119.07736 0 .14061-.06516.14061-.144797 0-.356838-.187041-.313016-2.612711.612147-.635586.242416-1.585204.601714-2.110274.798434-2.738155 1.025908-3.352156 1.2754983-4.245652 1.7258183-.483599.243739-.879267.484301-.879267.534583 0 .05029.01062.0921.02518.09294.01366.000894.206001.06679.427066.146556.221079.07977.462197.124306.535808.09897.07356-.02531.172617-.04606.220034-.04606zm80.640149 9.694276c-.34316-.123623-2.603237-.14502-15.450168-.146317l-15.048202-.001625v-.238653c0-.18771.0681-.252283.319052-.30247.175468-.03509 6.721073-.06286 14.545752-.06175 7.824683.000796 14.255416.0016 14.290508.000796.0351-.000573-.078-.15441-.251225-.341889l-.315006-.34088-3.416635-.108798c-1.879142-.05984-4.434064-.134072-5.677611-.164954-2.049336-.05093-5.913431-.163457-10.199608-.297146-.884318-.02761-2.685369-.08028-4.002349-.117098l-2.394515-.067.249687-.249698.249703-.249697 6.013649.164969c3.307485.09074 6.646705.186716 7.420481.213293.77376.02658 2.266021.07178 3.316129.100508 1.050115.02872 2.745851.07528 3.768333.103476 1.022466.02817 2.389384.07631 3.037596.10692.648204.03064 1.220635.0296 1.272074-.0024.05574-.03446.03673-.2708-.04688-.585094-.07719-.290016-.140904-.681448-.141554-.869866l-.000796-.342567-2.386605.06676c-1.312642.03668-4.986766.133864-8.164721.215863-3.177972.082-7.519067.194268-9.646927.249458-2.127854.05523-3.947957.100898-4.044685.101582-.120892.000797-.175848-.07727-.175848-.249999 0-.223184.04202-.251297.376829-.251941.207261-.000279 1.801263-.0444 3.542247-.09779 1.740968-.05339 5.064626-.142768 7.385913-.198604 2.321296-.05586 4.808391-.124164 5.526884-.151831.718502-.02769 2.674254-.07941 4.346143-.114887 1.671881-.03549 3.039782-.09771 3.039782-.1382 0-.0405-.588404-.424088-1.307564-.852441-1.202541-.716269-1.357923-.843864-1.934408-1.588521l-.626836-.809701-2.199624-1.097114-2.199616-1.097115-.312601.232132c-.234877.174407-.481284.241826-.9909.271116-.438937.02524-.678308.08155-.678308.159579 0 .06633-.135947.250851-.302128.410053-.234065.224245-.329143.262439-.422053.169532-.06598-.06595-.179197-.11992-.251663-.11992-.07239 0-.323416-.08754-.557708-.194532-.234286-.106931-.810348-.328629-1.280127-.492593-.469796-.163966-1.351578-.487567-1.959547-.719115-1.131479-.430943-3.005555-1.1374313-4.170273-1.5721133-.881678-.329052-.949375-.372805-.988692-.639107-.100869-.68351.559548-1.737096.955943-1.524951.186072.0996.535203-.0074.535203-.163975 0-.078-.715009-.32094-.944583-.32094-.07903 0-.4058.298419-.726036.663156-.481445.548382-1.404063 1.241361-1.657799 1.245188-.03443.00057-.09177-.181447-.127415-.404368-.04156-.259505-.188119-.539653-.407484-.778782-.334721-.364863-.359597-.373558-1.078533-.377063-.404754-.002-.803745-.03284-.886639-.06859-.08297-.03575-.444662-.166127-.803911-.289726-.82058-.282313-.827543-.287991-1.357284-1.106881-.332704-.514322-.605553-.790817-1.122735-1.137777-.375797-.252087-.785889-.458342-.911332-.458342h-.228095l.227026-.350738c.364011-.562389 1.551712-.796597 2.638756-.520353.331611.08428 1.077745.248855 1.658073.365742 1.830067.368615 2.351587.514572 2.713187.759341.193443.130933.736093.380443 1.205874.554458.46978.174015.996639.379839 1.170803.457392.174163.07756.348205.141006.386764.141006.03853 0 .21263.06616.386778.147026.392802.182394 1.968512.829688 3.4318 1.409757.607953.241005 1.602794.648951 2.210756.906546.607953.257595 1.399311.580642 1.758558.717878.359247.137244 1.150589.500766 1.758542.807838 1.594442.8053203 3.748054 1.9258423 4.256346 2.2145713.275307.156377.666875.269219 1.055136.304066.51324.04606.761435.142932 1.471519.574297.818951.497495 3.791872 2.258932 3.940454 2.334686.03941.02008.249309-.07564.466459-.212729.6763-.426923 1.3449-.593244 2.17157-.540194 1.30525.08378 2.16749.668899 2.92958 1.988072.3556.615554.37771.704022.38372 1.536116.004.536491-.0368.911077-.10376.954643-.0605.03946-.13903.189938-.17435.33445-.19421.794575-1.31203 1.877019-2.22085 2.150564-.62139.187026-1.59127.184981-2.11715-.0048zm.53258-.770863c.0663-.06636.12058-.200387.12058-.297934 0-.09754.0875-.224163.19438-.281367.2823-.151092.86698-.127435 1.00654.04074.16122.194268.34303.108711.66446-.312727.19723-.258561.23847-.38111.15601-.463562-.30633-.306329.0486-.775311.58681-.775311.46147 0 .60745-.145347.60745-.604797 0-1.910224-1.99974-3.341862-3.73977-2.67734-.81427.310969-.79258.361298.47795 1.108918 1.43416.843894 1.6865 1.22927 1.29748 1.981545-.18277.35342-.49479.49314-1.10129.49314-.35667 0-.61299-.105496-1.35588-.558079-1.314339-.800734-1.250127-.797416-1.173119-.06056.106365 1.017537.687529 1.914314 1.501819 2.317387.49125.243164.59144.255077.75658.08993zm.80363-2.417314c.0576-.06939.13457-.245185.17109-.390628.1143-.45547-.55238-.775494-.8972-.430676-.21336.213365-.20273.710405.0179.838937.24337.141766.58288.1333.70816-.01758zm-13.202945-6.546088c.184917-.07727.364942-.186949.400042-.243741.113385-.183465-1.897097-1.059438-5.802768-2.5282893-3.455408-1.299518-3.818386-1.416151-3.961576-1.272948-.14319.143204-.135303.166076.08585.249679 1.90442.719805 3.810715 1.423555 3.856044 1.423555.03153 0 .249178.08626.48347.191694.234293.105437 1.194716.473377 2.134291.8176563.939567.344282 1.764839.670535 1.833918.725012.06906.05447.125604.226023.125604.381221 0 .212727.05566.292888.226111.32572.124345.02395.23885.04971.254442.05722.0156.0076.179652-.04952.364569-.126792zm-31.679388 9.451999-.32509-.335405.02897-3.390879c.02533-2.965064.04914-3.405614.189225-3.508286.107848-.07902.572366-.107378 1.420507-.08672l1.260342.0307.06173.30845c.03398.169649.06173 1.746365.06173 3.503803v3.195354l-.309192.309201c-.29803.298022-.340865.309194-1.186171.309194-.862187 0-.882421-.0056-1.202035-.335404zm.386157-.769964c0-.110534-.06523-.200983-.144859-.200983-.177516 0-.291021.165374-.206897.301475.109214.176817.35171.107558.35171-.100492zm2.09113.02515c-.01866-.09671-.100415-.175862-.181839-.175862-.08145 0-.163227.0791-.181853.175862-.02381.123376.03049.175854.181853.175854.151382 0 .205608-.05244.181839-.175854zm-.85354-.137368c.612105-.313037.757859-1.057354.311059-1.588355-.210417-.250071-.336769-.309177-.660918-.309177-1.001525 0-1.359346 1.306629-.503273 1.837726.317338.196877.552828.213381.853132.05976zm-.870318-.473486c-.243863-.269471-.21395-.776345.05703-.966149.482066-.337656 1.083023-.06748 1.083023.48687 0 .192501-.07676.399858-.183765.496746-.243924.22074-.749061.21151-.956292-.01743zm-.367272-1.474288c0-.194491-.19728-.295125-.326061-.166338-.07645.07647-.07069.152118.02017.261458.141673.170698.305916.119621.305916-.09512zm2.060021-.05164c0-.215393-.291993-.184288-.334343.03564-.02579.134286.01517.175218.14941.149364.101779-.01957.184977-.102846.184977-.184981zm-1.457093-1.807425v-1.105378h-.502438-.502453v.823541c0 .756803.02184.846362.270028 1.105369.148498.155014.374614.281844.502438.281844.228815 0 .232425-.01711.232425-1.105376zm1.242414.840449c.243999-.244.264916-.331283.264916-1.105369v-.840458h-.502438-.502453v1.105378c0 1.095072.0015 1.105376.237537 1.105376.1306 0 .35673-.119207.502438-.264927zm-1.292105-2.449171c.125746-.203495-.05961-.501544-.311953-.501544-.263323 0-.400841.203588-.305432.452199.06492.169266.520747.205697.617385.04934zm1.20531-.200079c0-.292533-.345337-.40056-.538082-.16832-.187694.226136-.02958.485368.274577.450101.205941-.02387.263505-.08544.263505-.281781zm-20.047531 6.53907c0-.161046.519201-.509739.758997-.509739.381864 0 .547366.109595.547366.362466 0 .228969-.03125.240468-.65318.240468-.359249 0-.653183-.04193-.653183-.09319zm16.681148-2.453694c0-2.1366.02397-2.578042.140004-2.578042.0769 0 .16743.07153.200967.158954.03352.08742.06098 1.165692.06098 2.396155 0 2.109593-.01214 2.247586-.20098 2.419089-.200482.181432-.200982.17552-.200982-2.396156zm4.388022 2.379405c-.03685-.03684-.06704-1.091634-.06704-2.343964 0-2.250173.003-2.27955.232577-2.495478.195854-.183994.350541-.218417.979772-.218051l.747195.000287.03428 2.154383c.01896 1.184909.0045 2.292609-.03307 2.461532-.05885.268254-.110273.307156-.405254.307156-.185782 0-.36574.0452-.399898.100492-.06886.111369-.982656.139474-1.088637.0335zm-19.90545-1.325773c-.668805-.392569-.918234-1.141629-.608708-1.828042.60534-1.342374 2.658839-.923483 2.660251.542666.0011 1.09831-1.145929 1.816958-2.051543 1.285376zm29.535625-.353443c-.976677-.500342-1.003996-.52368-.973219-.831489.11437-1.144033-.912395-2.245765-2.092937-2.245765h-.51169l.03033-.523886c.02882-.495853.04702-.527268.340621-.586903.546502-.111003.54391-.102782.54391-1.718839v-1.51141l-.653183-1.200867c-.587806-1.0806873-.653167-1.2583873-.653167-1.7756303 0-.551125.03671-.632488.894133-1.978411.491759-.772007 1.04125-1.578877 1.221056-1.793045.30892-.367963.352347-.386826.789045-.3427.789956.07981 1.376517.514596 1.865486 1.382801.466504.828305.709184.997389 2.298999 1.601836.253905.09653.275671.140702.213587.43357-.03807.179344-.06948.348692-.07008.376327-.0076.42051.07418.654396.330321.946067l.307419.35013-.433028.218452c-.238159.1201503-.682245.4544903-.986856.7429813l-.553829.524525-.903248.06961c-1.817767.14008-1.817008.139853-2.01406.576854-.154141.341825-.167581.581648-.107392 1.916312.0411.910787.115886 1.5823.185631 1.666313.09541.114878.394801.128453 1.629783.07392.832138-.03677 1.582671-.08592 1.667842-.109245.106483-.0292.239902.130936.427096.51262.231697.472436.272212.683366.272212 1.41761 0 .972499.13409.772979-1.224529 1.821032-.376146.290159-.718027.521817-.759709.514792-.04171-.0071-.527983-.24443-1.080688-.527564zm1.746339-.80099.3395-.352926-.472255-.333621c-.857894-.606046-1.222268-.560101-1.468224.185132-.133634.405117-.07038.634031.178092.644224.09844.004.314669.08844.480474.187583.348039.208073.463349.16765.942413-.330392zm.615154-1.359569c0-.815614-.08889-.926092-.680743-.846703-.422561.05666-.424639.05904-.424639.478006 0 .390905.03413.443702.47732.737467.262534.174023.511236.317746.55269.319378.04141.0016.07538-.308032.07538-.688148zm-2.431828.47004c.303641-.303623-.03746-.786944-.581966-.824637-.446968-.03096-.466565.09389-.08449.538528.362206.421534.480323.472237.666454.286109zm-1.28625-6.675681c0-.179613.04521-.354521.100414-.38868.05522-.03416.100415-.353366.100415-.7093523v-.647247h-.72062c-.751109 0-1.085769.151289-1.090305.492896-.0012.08816.168415.5298213.376828.9814813.338909.734397.410821.824863.68044.855868.371672.04275.552691-.148847.552691-.584966zm3.185728-.157171c.455052-.441058.431117-.7239693-.111032-1.3117643-.498207-.540181-.670474-.584006-.902657-.229634-.227603.34735-.205152.477562.139246.807446.209885.2010823.301456.3848673.301456.6049863 0 .543391.118011.569961.573033.128962zm1.033803-1.0646453c.214876-.174007.216908-.192701.06143-.564959-.08843-.211753-.16086-.510334-.16086-.663512 0-.286514-.003-.288682-1.482211-.874545-.08904-.03528-.125595.07944-.125595.394063 0 .380129.06583.522305.458708.990518.490575.584659.821672.898394.948131.898394.04308 0 .178229-.08098.300471-.179959zm-2.265203-.642204c.124683-.21104.191803-.526041.197521-.926694.0091-.596728.003-.609913-.343048-.780833-.449864-.222368-.988024-.229935-1.223089-.0172-.147891.133907-.183764.318281-.183764.946428 0 1.090601.0046 1.098022.74275 1.098022.591053 0 .629807-.0153.80963-.319723zm-2.223294-.393908c.201816-.09195.253449-.2068.304915-.678299.0587-.538074.04626-.581985-.239813-.843952-.498524-.45655-.716707-.379737-1.191538.419526-.227375.382725-.4134.738972-.4134.791653 0 .338836 1.024609.545826 1.539836.311072zm.821641-1.698107c.07949-.128566.763138-.130114 1.098845-.0024.141825.05389.257772.07313.257772.04271 0-.03041-.197372-.360377-.43861-.73327-.538994-.833221-1.027629-1.131162-1.426497-.86981-.207489.135953-.245167.240359-.245167.679411 0 .394334.05249.574563.218486.751352.232274.247241.433346.296864.535171.132086zm-3.041764 12.4004143c-.887397-.699327-.797632-1.885398.179851-2.376493.882133-.443201 1.915283.08059 2.072732 1.050861.07781.479852-.274305 1.232549-.673204 1.438824-.467688.241843-1.195028.189723-1.579379-.113192zm-28.788081-4.028626c-.09678-.0253-.175848-.11323-.175848-.195472 0-.120362.09313-.137062.477319-.08563.615914.08245.728553.120604.728553.246723 0 .101796-.68461.124642-1.030024.03438zm32.507994-.05634c.03793-.114016 1.078064-.312179 1.167785-.222462.02094.02089.01061.107727-.02154.193011-.07706.200723-1.212806.22991-1.146231.02945zm-32.839606-.471928c-.0537-.05345-.08191-.650433-.06447-1.362995l.03095-1.267894.823189.06953c.452762.03824.830394.07503.839176.08176.0091.0067-.0091.588788-.03974 1.293464l-.05567 1.281235h-.718966c-.395411 0-.761895-.04279-.814408-.09511zm32.577724-.522571c-.0355-.33972-.06462-.921634-.06462-1.29314v-.675466l.778808-.05168c.428324-.02842.793186-.03881.81078-.02307.01759.01573.0584.620903.09056 1.344827l.05855 1.316225h-.80476-.804776zm-26.267017.249657c-.09586-.03868-.125594-.655529-.125594-2.604779v-2.5540893h.742918c.584727 0 .755886.03384.803895.158952.03352.08742.06098 1.2356953.06098 2.5517153 0 2.089185-.02018 2.400498-.15895 2.453755-.186966.07175-1.141605.06774-1.323247-.0057zm-5.980324-2.515175c-.360963-.09417-.04323-.231963.534731-.231963.57191 0 .774665.111305.438064.240473-.176151.06759-.698551.06303-.972795-.0085zm32.383766-.08123c0-.113885.122864-.150727.502453-.150727.276338 0 .536355-.008.57781-.01797.04141-.0099.08995.05795.107847.150728.0276.142992-.06052.16871-.577795.16871-.475514 0-.610315-.0333-.610315-.150727zm-36.759972-2.7673553c-.459936-.428503-.112701-1.303931.515907-1.300902.396821.002.519458.07803.706454.438451.174163.335726.05643.810094-.240374.968977-.300562.160854-.746968.112427-.981987-.106528zm41.058211.02904c-.254283-.289582-.300288-.59626-.136819-.912324.254601-.492336.819564-.572262 1.219342-.1725.301427.301433.314655.644669.03838.995905-.253508.32229-.872806.37142-1.120869.08892zm-30.827291-2.324653v-2.299523l.226101-.0606c.354136-.09491.973645-.07368 1.187337.04068.183311.09811.194368.232445.194368 2.361486v2.257463h-.803896-.80391z" fill="#273839" stroke-width=".100489"/></svg>