<svg height="128" viewBox="0 0 90.792034 33.866668" width="343.151" xmlns="http://www.w3.org/2000/svg"><path d="m15.969098 30.569226c-.06735-.06735-.122431-.356581-.122431-.642769 0-.480804.05582-.522079.734591-.543294.404025-.01259.837894-.03323.964151-.0459.172395-.01722.242024-.857554.279615-3.374531l.05005-3.351577h-1.014206-1.014205v-.64276-.642768h.924003c.714151 0 .949887.07296 1.037977.321384.235747.664755.661834.964144 1.372143.964144h.706128v2.445917c0 2.881204-.269318 4.024294-1.174199 4.983751-.557471.591085-.705969.650844-1.617506.650844-.552025 0-1.058776-.05509-1.126115-.122436zm1.530399-8.570229c0-.345426-.17673-.480861-.477074-.365608-.39063.149898-.307808.610471.109778.610471.202013 0 .367296-.110191.367296-.244863zm-1.285535 6.672531c0-.280865.122432-.367291.520335-.367291.611167 0 .776835.123281.641075.477075-.05434.141636-.337902.257515-.630115.257515-.408863 0-.531295-.08465-.531295-.367299zm47.593027-.05777c-.25241-.304143-.10392-.495267.932919-1.200736 1.247407-.848738 1.94107-1.646043 2.300325-2.644004.342338-.950982.707752-1.127335.883667-.426457.127959.509844-.0251 1.105878-.397305 1.546472-1.056136 1.250404-1.583058 1.738205-2.49049 2.305581-.806673.504375-1.080795.597853-1.229116.419144zm-23.609834-.539076c-.254344-.227263-.507374-.66113-.562283-.964144l-.09984-.550948.209404.550948c.115173.303014.29107.654242.39088.780496.254229.321587 8.410238.330167 8.731221.0092.356808-.356809.25187-.599649-.115469-.267207-.290639.263023-.868562.30394-4.293236.30394-2.94537 0-4.00444-.05874-4.141356-.229564-.101175-.126254-.319321-.701683-.484757-1.278728-.165435-.577037-.349536-1.176191-.409113-1.331442-.08792-.229126.05327-.282288.749812-.282288 1.055565 0 1.491267-.217895 1.64278-.821566l.116448-.463963h3.393983 3.393985v.517612c0 .284683.131076.958993.291284 1.498468.160207.539467.252833 1.182001.205836 1.427855-.07241.378795-.04701.408556.166506.195049.213514-.213518.196117-.447233-.114006-1.531685-.201286-.703843-.36597-1.465928-.36597-1.693508 0-.678827.321419-.468634.420339.274892.125824.945774.525819 2.319695.711535 2.444007.08422.05639-.20795.490238-.649274.964144l-.802407.861657h-3.961935c-3.849215 0-3.975084-.01178-4.424371-.413206zm8.712703-.884641c.158213-.295628.137864-.479268-.09198-.830049l-.295141-.450441-3.890616.04956-3.890616.04956-.222958.447483c-.151002.303079-.165437.554971-.04472.780504.163789.306052.504377.333019 4.20555.333019 3.882927 0 4.034612-.01357 4.23049-.379616zm-8.144757.0771c-.236705-.236706-.126515-.943499.164507-1.055185.447102-.171559 7.298316-.12649 7.576522.04989.135095.08563.217736.352958.183643.594051l-.06197.438343-3.868351.04948c-2.127597.02722-3.925049-.0073-3.994342-.07653zm.789443-.294328c-.0015-.126254-.08419-.353519-.183648-.505033-.160744-.244856-.200926-.244856-.361671 0-.288543.439554-.215913.734596.180834.734596.202014 0 .366031-.103301.364485-.229563zm6.881761.05859c.05811-.09403.0203-.223689-.08398-.288153-.104302-.06443-.142096-.194138-.08397-.288161.05811-.09403.02697-.170958-.06918-.170958-.172972 0-.397783.423645-.397783.749612 0 .220309.498458.218473.634926-.0024zm-5.455704-2.87455c-.175007-.175013-.525876.108461-.39545.319483.07752.125433.180245.122273.312137-.0097.108124-.10812.145615-.247561.08331-.309863zm5.188075.09631c0-.09506-.123964-.17281-.275473-.17281-.283996 0-.364851.216694-.158031.423515.146724.14673.433504-.01918.433504-.250705zm-31.495594 3.877922-.918239-.115463.964265-.08525c.694479-.06142.964233-.02104.964152.144316-.000064.126255-.02078.21658-.04603.200711-.02526-.01584-.45912-.08084-.964151-.144316zm-.550943-.561429c-.06865-.111077.185353-.183648.642767-.183648s.711415.07256.642767.183648c-.06242.101013-.351671.18365-.642767.18365-.291097 0-.580342-.08264-.642767-.18365zm47.265876-.137734c-.226573-.288901-.220625-.29679.05882-.07808.264922.207359.402219.180221.929003-.183648.703006-.485599 1.810931-1.686473 2.147159-2.3273.205652-.391949.116228-.59635-.983554-2.248162-.665381-.999358-1.20978-1.856228-1.20978-1.904166 0-.04793-.337406-.606448-.74979-1.241149-.629313-.968564-.735385-1.264793-.660123-1.843528.10864-.835454-.08601-.917069-1.991411-.834909l-1.28169.05525.05254.642768c.132685 1.623082.09527 2.588526-.108181 2.791993-.318246.318239-.270336.845233.127597 1.403559l.347439.487468-3.54613-.05671c-3.49387-.05582-3.559795-.04981-4.473407.413212-.713414.361515-1.204.469886-2.127096.469886-1.079733 0-1.199814-.03697-1.199814-.369468 0-.328186.08207-.356338.734591-.252006l.734594.117472v-3.271668-3.271667l.550942.52784c.398278.381574.550942.698953.550942 1.145365 0 .722579.336964 1.42661 1.319636 2.757143l.712076.964161h2.005691c1.163885 0 2.207797-.09209 2.487226-.219408.6407-.291924 1.004932-1.044427 1.004932-2.076195 0-1.031769-.364232-1.784274-1.004932-2.076197-.310778-.141594-1.549162-.219399-3.492244-.219399-1.80904 0-3.056008-.07329-3.124209-.183649-.0749-.121201 2.263086-.18365 6.875956-.18365 4.537205 0 6.989458.06443 6.989458.18365 0 .101003-.291013.183649-.646709.183649-.515011 0-.690153.09537-.860119.468397-.181991.399442-.141431.608978.275502 1.423273 1.045735 2.04233 2.200906 3.826059 2.935991 4.533559.426058.41006.43472.464238.19929 1.246521-.278679.925957-1.24635 2.095509-2.35087 2.841303-.882529.595886-.904117.599129-1.229344.184429zm-11.959535-5.509341c.100411-.301575-.475006-.516839-.721806-.270042-.105619.105626-.133679.286455-.06236.401854.162263.262543.681944.175191.784166-.131812zm-.596909-.04598c-.06242-.101012.0202-.18365.183648-.18365.16343 0 .246071.08264.183644.18365-.06242.101003-.145064.18365-.183644.18365s-.121226-.08265-.183648-.18365zm-34.158489 5.15262-.918239-.115464.964265-.08525c.694479-.06142.964233-.02105.964152.144316-.000064.126262-.02078.216572-.04603.200704-.02526-.01584-.45912-.08076-.964151-.144309zm46.235933-1.066454c-.469877-.782461-.848038-1.220902-1.025383-1.188841-.154528.02787-.332816-.03315-.396183-.135639-.06768-.109541.0024-.141317.169797-.07702.156763.06013.285017.01787.285017-.09394 0-.111817-.06199-.203443-.137736-.203621-.07573-.000188-.372677-.372206-.659822-.826719-.287144-.454512-.591343-.783582-.67599-.731265-.08465.05233-.213706-.0016-.286796-.119901-.08299-.134282-.05329-.165815.07913-.08397.326136.201557.255535-.01642-.255364-.788433-.460612-.696028-.462939-.717389-.16063-1.47293.220069-.550006.271632-1.011018.182463-1.631305-.250696-1.743908-.362641-1.593003 1.22606-1.652868l1.423271-.05362v.809956c0 .692111.194651 1.114042 1.337942 2.900176.735865 1.149621 1.562283 2.419306 1.836477 2.821534.274193.40222.498541.921788.498541 1.154603 0 .456787-2.027527 2.613461-2.456966 2.613461-.131682 0-.574403-.557837-.98383-1.239623zm1.87979-3.721394c0-.393648-.533625-.33679-.611025.06508-.04729.245423.02754.320213.272959.272951.185933-.03583.338066-.187931.338066-.338066zm-1.970944 4.272334c-.139247-.27777-.402732-.732298-.585512-1.010067s-.292483-.505034-.243791-.505034c.116253 0 .955784 1.286455 1.108599 1.69875.184787.498574.0024.378836-.279296-.183649zm-46.708762-.183657c.04761-.330565.666097-.519024 1.125186-.342858.479468.18399.07125.664242-.564601.664242-.473172 0-.596673-.07077-.560585-.321384zm.563983-.586372-.918239-.115465.964265-.08525c.694479-.06142.964233-.02105.964152.144316-.000064.126254-.02078.21658-.04603.200712-.02526-.01584-.45912-.08085-.964151-.144316zm22.427718-.293053c-.06298-.164125-.109274-.394956-.10287-.512955.0064-.117991.09082-.01658.187592.225331.09677.241929.143066.472752.102871.512954-.04019.04022-.124612-.06118-.187593-.22533zm-23.070486-.268361c0-.101012.335444-.183648.74543-.183648.450188 0 .700476.07272.631929.183648-.06242.101003-.397868.18365-.74543.18365-.34756 0-.631929-.08265-.631929-.18365zm-.08087-.533226c-.0564-.09126.310657-.19457.815691-.229564.646138-.04477.918207.0041.918127.165928-.000132.268443-1.571596.326114-1.733818.06362zm.172698-.568661c-.06865-.111077.185354-.183649.642767-.183649.457414 0 .711416.07255.642768.183649-.06242.101003-.351671.18365-.642768.18365-.291096 0-.580342-.08265-.642767-.18365zm24.366902-.964152c.01587-.631288-.01698-1.443316-.07295-1.804513-.119856-.773425-.628467-1.822533-.883571-1.822533-.09841 0-.182395-.18594-.18663-.413205-.01201-.644613-.599332-1.593514-1.169351-1.889248-.414726-.215158-1.600887-.276437-5.960295-.307937-4.872177-.03518-5.105968-.04964-2.23093-.137736 3.025959-.09273 3.21561-.119648 3.280993-.465708.03817-.202011.163136-.428017.277708-.502222.114576-.07418 1.506864-.136191 3.093978-.137735l2.885661-.0024 1.475972 2.479018c.811786 1.363463 1.475974 2.528188 1.475974 2.588281 0 .06013.265838.55371.590745 1.096924l.590745.987657 2.301708.05712 2.301707.05712-2.410846.0399c-1.953995.03233-2.454169-.01227-2.639469-.23556-.12574-.151508-.379525-.27547-.563966-.27547-.434276 0-1.205806.718875-1.444041 1.345491-.102668.270042-.311612.490985-.464313.490985-.221219 0-.271788-.233269-.248825-1.147802zm.84947-.335156c-.03618-.108582-.14432-.19743-.240273-.19743-.09595 0-.20408.08885-.240271.19743-.03618.108582.07192.19742.240271.19742.168344 0 .276463-.08884.240273-.19742zm.953436-.812646c0-.151507-.07777-.27547-.172811-.27547-.231573 0-.397428.286788-.25071.433501.206826.206821.423521.12597.423521-.158031zm-8.142174-5.521778c.153062-.398873-.235519-.77398-.513655-.495853-.235076.235081-.08944.783673.208033.783673.107346 0 .244875-.129521.305622-.28782zm-.48927-.273967c0-.106966.08264-.143407.183648-.08101.101003.0624.183647.149948.183647.194488 0 .04453-.08264.08101-.183647.08101-.101002 0-.183648-.08751-.183648-.194488zm5.509434 0c0-.09505-.123962-.172811-.275472-.172811-.283995 0-.364852.216702-.158032.423523.146722.146722.433504-.01918.433504-.250712zm2.231288 7.540401c.105635-.303022.27817-.550948.38341-.550948.105245 0 .297624-.144617.427517-.321385.224927-.306076.26222-.306076.783172 0 .424749.24956 1.033215.330103 2.722443.360377 2.106675.03769 2.079656.04209-.85475.137734-2.921013.09519-3.036721.113637-3.211472.511957-.268978.613096-.472933.500865-.25032-.137735zm-2.380951.0092c.03437-.36503-.06111-.56506-.222184-.465505-.103507.06394-.169777.04818-.147261-.0351.06939-.25666-.230612-.977794-.406791-.977794-.0916 0-.296159-.250632-.454566-.556952-.167157-.323253-.373692-.503994-.49221-.430746-.125566.07759-.152434.04242-.06977-.09131.16818-.272122-.679359-1.745435-1.223208-2.126368-.338116-.236827-1.129925-.283936-4.772064-.283936h-4.366683v-.826411-.82641h5.315402 5.315404l.32545.55094c.178998.303013.3794.55094.445338.55094.06594 0 .579552.934512 1.141368 2.076699.893579 1.816659 1.008479 2.173598.917677 2.850622-.09966.742949-.128067.772305-.709609.733143-.333191-.02242-.601522-.08626-.596291-.14183zm-22.898141-.192866c-.06933-.112173.212349-.183649.723753-.183649.46049 0 .837253.08265.837253.183649 0 .101012-.325689.18365-.723752.18365-.398065 0-.774829-.08264-.837254-.18365zm44.534589-.183649c-.108114-.202012-.155252-.36729-.104751-.36729.0505 0 .180287.165278.2884.36729.108113.20202.155246.367299.104745.367299-.0505 0-.180281-.165279-.288394-.367299zm-44.442765-.36729c0-.101013.243047-.18365.540105-.18365.297057 0 .59118.08264.653606.18365.06754.109289-.151134.183641-.540105.183641-.359483 0-.653606-.08264-.653606-.183641zm50.088815-.645101c-.365632-.503749-.869975-1.295742-1.120769-1.759986l-.455975-.84409.424019.08109c.866799.165701 1.932213-.949171 1.933659-2.023433.00052-.461769.04713-.497323.505725-.38666.749781.180927 3.56038 1.175776 4.068834 1.440228.435475.226492.43168.231676-.265329.362439-1.076758.201996-2.318509.906571-2.931182 1.663154-.303022.374197-.649772.785589-.770566.9142-.120795.128619-.333027.511761-.471631.851418l-.251997.617581zm-18.062563.318898c-.112164-.07313-.34155-.401504-.509749-.729779-.291106-.568148-.356366-.59687-1.357069-.597268l-1.051263-.000422-.537032-1.101473c-.295364-.605799-.595243-1.101465-.666394-1.101465-.07115 0-.234312-.253353-.362577-.563013-.193223-.466473-.189167-.605768.02363-.812345.313642-.30446.739542-.340478 3.608412-.305167l2.249687.0277v2.394664c0 2.046027-.03753 2.360188-.257889 2.157859-.141841-.130236-.245145-.278118-.229563-.328624.01557-.05046-.0543-.09183-.155315-.09183-.101013 0-.162987.06199-.137734.137743.02525.07573-.03123.137735-.125542.137735-.09429 0-.197595.204442-.229559.454309-.03613.282433-.135261.404015-.262043.321376zm.109263-1.923487c-.0015-.227263-.317297-.991695-.701616-1.69874l-.69877-1.285537-1.273642-.05306c-.896021-.0373-1.382235.02633-1.639894.21476-.364248.266345-.36405.270155.03634.696352.221427.235706.620032.9035.885791 1.48399l.48319 1.055436h1.455724c1.388044 0 1.455583-.01926 1.452871-.413213zm-3.38929-1.125652c-.383442-.745363-.639929-1.447818-.569979-1.561006.07186-.116277.624181-.205791 1.269791-.205791h1.142601l.683038 1.380396c.375669.759216.683037 1.46167.683037 1.561006 0 .100778-.555069.180611-1.25566.180611h-1.255659zm1.555658-.389439c0-.302339-.503042-.501548-.653161-.258659-.06269.10143-.06847.303037-.01287.448004.119385.311089.666001.155683.666001-.189345zm2.708779-1.300869c-.175008-.175004-.525871.108469-.395446.319499.07752.125435.180239.122257.312133-.0097.108124-.108119.145616-.24756.08331-.309863zm34.388074 4.679298c-1.01589-.160688-6.072689-1.778017-6.244029-1.997041-.093-.118853-3.4091-1.301681-4.59119-1.637626-.353517-.100462-1.965029-.640672-3.581131-1.200461-1.616101-.559778-3.165628-1.018857-3.443397-1.020165-.466375-.0024-.505025-.05858-.505025-.736978v-.734589h-.789684c-.880286 0-1.230441-.241361-1.230441-.848119 0-.858434.166741-.988359 1.268449-.988359.57503 0 1.144682-.09917 1.26589-.220376.121201-.121206.220374-.617055.220374-1.101888 0-.75908.05102-.881509.367299-.881509.322774 0 .367291.122429.367291 1.010064 0 .555534.08264 1.010066.183649 1.010066.101012 0 .183649-.454532.183649-1.010066v-1.010064h7.932718 7.932708l.51509.493481.51507.493476v4.34473c0 4.11149-.0198 4.362568-.36729 4.67712-.72277.654102-.34342.947261 1.37736 1.06439l.55095.03746.0483-6.298032.0482-6.2980319-1.33386.054007-1.33387.054007-.0575.5968509-.0575.596857h-7.869908c-6.116377 0-7.893792-.05117-7.977049-.229559-.0857-.183649-.128553-.183649-.214257 0-.0589.126256-.265524.229559-.459119.229559-.29631 0-.351991-.134778-.351991-.851998v-.8519989l.964154.115812c.530277.063692 4.992922.1165263 9.916972.1174005l8.952838.00154v6.6113244 6.611324l-.59687-.02145c-.32826-.01178-1.05138-.09337-1.60691-.181236zm-.11147-1.740618c.0614-.15977.11147-2.075862.11147-4.257976 0-5.306708.53589-4.817575-5.278039-4.817575-2.736599 0-4.617646.07397-4.834656.19011-.322766.172737-.355225.404665-.355225 2.537992 0 2.319646.0065 2.354909.521413 2.931905.28678.321206.584301.584025.661163.584025.180823 0 4.791205 1.621684 5.548325 1.951599.31829.138694.66361.252168.76739.252168.10377 0 .29936.110686.43464.24596.609829.609828 2.237609.866262 2.423519.381792zm-1.3577-.02299c-.15152-.05988-.31679-.165523-.36731-.234763-.0506-.06922-.2571-.219611-.459119-.334173-.36233-.205465-.36204-.208357.0211-.213858.549229-.0082 1.355899-.694558 1.653949-1.407883.16757-.401082.25321-1.353316.25321-2.815709v-2.209671l-.50504-.02286c-3.277679-.148474-9.045151-.221714-9.044924-.114855.000154.07576-.08236.137734-.183373.137734-.101002 0-.183706-.185945-.183787-.413209l-.000138-.413207h3.994483c3.42821 0 3.99448-.03904 3.99448-.275473 0-.233021-.59426-.290487-3.85661-.372936l-3.856599-.09746 4.524939-.04029c4.074029-.03623 4.564079-.0083 4.917799.28111.38317.313449.39162.423396.34174 4.453464l-.0511 4.13207-.45912.03542c-.25251.01949-.58308-.01357-.73458-.07345zm-17.846292-6.726269c.03437-.177141-.05785-.306166-.218725-.306166-.34116 0-.547079.299373-.385603.560638.166115.268783.532796.114375.604328-.254472zm6.827417-2.326295c0-.101002-.08264-.183644-.18365-.183644-.101002 0-.183641.08264-.183641.183644 0 .101002.08264.18365.183641.18365.101013 0 .18365-.08264.18365-.18365zm14.875474 4.40755v-6.611322h.52846c.29064 0 .61382.1033028.71815.2295588.25478.3083102.47352 1.5330772.31859 1.7837662-.24612.398256-.42572 7.45152-.1956 7.68166.053.05298.0105.199924-.0946.326488-.13231.159419-.13182.266662.002.349122.10592.06549.19257.605296.19257 1.199646 0 .908505-.065 1.126165-.40816 1.36652-.22448.157234-.55505.285885-.73458.285885-.30683 0-.3265-.398303-.3265-6.611324zm-41.432229 6.137182c.06131-.15977.111279-.304394.111039-.321384-.000181-.01699.660899-.0041 1.469187.02901 1.120915.04567 1.469613.121931 1.469613.321384 0 .205961-.335631.261478-1.580658.261478-1.365898 0-1.565508-.03949-1.469181-.290492zm-26.180579-.114563c-.423574-.329167-.501061-.879774-.207907-1.477335.375768-.765966 1.188691-.701731 1.705688.134794.217488.351893.368852.827092.336363 1.055973-.04854.341997-.189966.425782-.793663.470218-.404026.02974-.872241-.0529-1.040481-.18365zm1.188689-.534137c.275204-.439245.01966-.897291-.500614-.897291-.560296 0-.882931.497314-.629658.970554.213756.399409.860387.357492 1.130272-.07329zm-.907739-.06963c-.06361-.165757-.02759-.389447.08004-.497079.279807-.279801.809961-.02405.736873.355453-.08142.422735-.669886.52476-.816908.141626zm24.855175.514792c-.04909-.08179-.335636-.606068-.636711-1.165052l-.547412-1.016338.612854.07158c.430532.05022.648799.188711.73369.465392.06646.216611.289659.55453.495989.750928.29322.279101.318328.373944.114949.434329-.143111.0425-.355569.19665-.472132.342582-.116556.145933-.252115.198413-.301227.116611zm.421335-.05687c0-.101002.07777-.183649.172811-.183649.09504 0 .223884.08265.286311.183649.06242.101013-.01535.183649-.172811.183649-.157468 0-.286311-.08264-.286311-.183649zm39.801359-.127416c-.29323-.07638-.27951-.139685.13774-.635562l.46342-.550736v-4.209284-4.209275l-.65664-.726809c-.43737-.484125-.63666-.867562-.59685-1.148329.054-.381203.16956-.426748 1.20757-.4761923l1.1478-.054673v6.0691413 6.069135l-.68868-.02129c-.37877-.0117-.83524-.05947-1.01436-.10612zm1.15209-.423524c0-.101012-.12883-.183649-.28629-.183649-.15748 0-.23525.08264-.17282.183649.0624.101003.19126.183641.28631.183641.095 0 .1728-.08264.1728-.183641zm-.10155-9.749022c-.0591-.09567-.18578-.125574-.28146-.06644-.0956.05913-.12558.185787-.0665.281459.0591.09568.18578.125573.28146.06645.0956-.05914.12558-.185789.0665-.281465zm-40.238383 9.565332c-.179001-.303021-.380636-.550947-.448087-.550947-.06745 0-.165855-.165279-.218683-.36729-.178682-.683296.544184-.428123.910415.321383.321315.657589.382114.691226 1.346569.745111 1.550235.08661 1.587217.402683.04711.402683-1.262891 0-1.324033-.02056-1.637332-.55094zm-29.441033-.388113c-.544414-.217262-.733202-.482444-.736964-1.03518l-.0029-.413212h3.408572 3.40857l-.057.6688c-.04262.5001-.16273.707621-.476163.822695-.344386.12645-.448356.0771-.582788-.276452-.325975-.857373-1.528743-.926436-1.990864-.114309-.294244.517089-.378351.54915-1.414731.539295-.606037-.0057-1.306157-.092-1.555821-.191637zm.316174-1.004597c-.175009-.175012-.525874.10846-.395451.319491.07752.125425.180244.122264.312137-.0097.108124-.108127.145615-.247569.08331-.309863zm5.371723.107144c0-.101003-.123962-.183641-.275472-.183641-.151509 0-.275472.08264-.275472.183641 0 .101012.123963.183649.275472.183649.15151 0 .275472-.08264.275472-.183649zm-11.1566034.09259c-.4985599-.566263-.239476-.643531 2.1578614-.643531h2.387423v.459119c0 .252516-.08264.459119-.183648.459119-.101002 0-.183649-.08264-.183649-.18365 0-.101002-.206604-.183649-.459119-.183649-.252516 0-.459119.08265-.459119.183649 0 .301926-2.9872225.218482-3.2597494-.09106zm11.7075474-.184412v-.459119h2.479244c2.506744 0 2.789207.08358 2.216893.65589-.333175.333173-2.71054.358588-3.229447.03453-.29036-.181326-.439247-.181326-.729607 0-.543932.339698-.737083.279085-.737083-.231294zm34.342136.275469c0-.101002.08264-.183649.183649-.183649.104938 0 .183643-.550939.183643-1.285529 0-.734589-.0787-1.285537-.183643-1.285537-.101003 0-.183649-.123963-.183649-.275469 0-.192392.193852-.275471.642766-.275471h.642767v1.017382c0 1.121664-.553774 2.471925-1.013792 2.471925-.149457 0-.271741-.08264-.271741-.18365zm-13.138371-.563158c-.06658-.10772-.08166-.235251-.03352-.283391.04816-.04818.136464.03998.196272.195869.124179.323611.01838.380526-.162747.08752zm.466672-.07962c0-.28279.479528-.361822.995045-.164003.508686.195203.312882.439474-.35228.439474-.448913 0-.642765-.08309-.642765-.275471zm-1.697184-1.349716c-.757797-1.25757-.809527-1.411165-.492965-1.463692.486614-.08076.474422-.767731-.01364-.767731-.225149 0-.369558.124385-.373138.321383-.0053.290802-.0315.287463-.275468-.0351-.422304-.558341-.33245-.653582.616596-.653582.703594 0 .973534.09294 1.309904.450986.341676.363707.641126.46349 1.547108.515563l1.123424.06459-1.125314.03542c-1.472769.04631-1.694097.294165-1.173645 1.314323.377089.739164.378084.765635.04472 1.189443l-.340952.433452zm-32.1859073.746338c-.5618839-.481576-1.0099868-1.262486-1.0099868-1.760109 0-.420054.04886-.442.7805028-.350554.4292759.05362.8590118.169756.9549688.257994.3055095.280962 1.3865405.191278 1.3865405-.115026 0-.184283.184288-.27547.556707-.27547.325437 0 .600621.114433.662415.27547.06549.170658.344999.275478.734592.275478s.669104-.10482.734592-.275478c.06429-.167529.342174-.27547.709177-.27547.367005 0 .644892.107941.70918.27547.06212.161899.337618.275478.668179.275478s.606056-.113579.66818-.275478c.05896-.153652.331972-.27547.617355-.27547.285384 0 .558394.121818.617355.27547.06044.157504.33448.275478.63993.275478.29382 0 .637099-.123971.762841-.275478.125741-.151507.389687-.27547.586547-.27547s.481889.123963.633399.27547c.151509.151507.520086.275478.819061.275478.313776 0 .58828-.116463.649297-.275478.05896-.153652.331973-.27547.617356-.27547s.558395.121818.617357.27547c.06635.172908.34718.275478.754239.275478.45404 0 .64853-.08262.64853-.275478 0-.430698.855966-.349789.97145.09183.0649.248194.250499.36729.572363.36729.616495 0 .62947.472688.01719.626356-.364078.09138-.459119.231083-.459119.674879 0 .501962-.05196.553653-.504159.501531-.39842-.0459-.52398-.173663-.598659-.609049-.08385-.488882-.166714-.550948-.735464-.550948-.588901 0-.645637.0485-.69851.596854-.05029.521535-.12413.596854-.585217.596854-.460783 0-.534967-.07548-.585219-.595351-.06207-.642176-.383525-.80951-1.17396-.611122-.348686.08751-.444595.232318-.444595.671231 0 .502173-.05186.553669-.505031.501531-.399643-.04598-.517376-.165758-.564188-.57399-.06739-.587584-.380797-.768552-1.04314-.602314-.360846.09056-.458709.231919-.458709.662577 0 .483209-.06328.547438-.539308.547438-.474214 0-.546254-.07207-.596855-.596854-.05291-.548722-.109379-.596854-.700316-.596854-.590936 0-.647408.04809-.700314.596854-.05268.54643-.110869.596854-.68868.596854-.542106 0-.63113-.06159-.63113-.436629 0-.993841-1.302811-1.176557-1.469805-.206131-.08049.467706-.177495.550939-.642145.550939-.464652 0-.561659-.08323-.642145-.550939-.0687-.399271-.211026-.567467-.516944-.610959-.541729-.07702-.9812145.288404-.9137305.759735.06947.485152-.2258029.557066-.6819738.166083zm.3673709-1.508576c-.08885-.143772-.194495-.154432-.3169279-.03202-.101002.101003-.123671.280687-.05038.399296.08886.143764.1944969.154432.3169279.03202.101003-.101003.123672-.280694.05038-.399303zm2.5710694 0c-.08885-.143772-.194496-.154432-.316927-.03202-.101003.101003-.123673.280687-.05037.399296.08885.143764.194495.154432.316927.03202.101002-.101003.123672-.280694.05038-.399303zm7.988679.172811c0-.09505-.123963-.172811-.275471-.172811-.283996 0-.364855.216702-.158034.423515.146722.14673.433505-.0191.433505-.250704zm-5.142139.01081c0-.101012-.165283-.18365-.367295-.18365s-.367294.08264-.367294.18365c0 .101002.165282.18365.367294.18365s.367295-.08265.367295-.18365zm2.57107 0c0-.101012-.123962-.18365-.275472-.18365-.151508 0-.275471.08264-.275471.18365 0 .101002.123963.18365.275471.18365.15151 0 .275472-.08265.275472-.18365zm5.325786 0c0-.101012-.08264-.18365-.183648-.18365-.101002 0-.183647.08264-.183647.18365 0 .101002.08264.18365.183647.18365.101003 0 .183648-.08265.183648-.18365zm2.571069 0c0-.101012-.08264-.18365-.183648-.18365-.101003 0-.183647.08264-.183647.18365 0 .101002.08264.18365.183647.18365.101002 0 .183648-.08265.183648-.18365zm-15.242767 1.193702c0-.367299.09183-.459119.459119-.459119.367296 0 .45912.09183.45912.459119 0 .367298-.09183.459119-.45912.459119-.367295 0-.459119-.09182-.459119-.459119zm2.571069 0c0-.367299.09183-.459119.459119-.459119.367297 0 .459121.09183.459121.459119 0 .367298-.09183.459119-.459121.459119-.367295 0-.459119-.09182-.459119-.459119zm2.884896.344434c-.0716-.07158-.13018-.281685-.13018-.46687 0-.253353.139515-.336683.563718-.336683.479551 0 .554954.06167.505031.413205-.05794.407964-.667457.661464-.938569.390348zm2.571069 0c-.0716-.07158-.130178-.281685-.130178-.46687 0-.253353.139514-.336683.563716-.336683.47955 0 .554953.06167.50503.413205-.05793.407964-.667455.661464-.938568.390348zm2.754716 0c-.0716-.07158-.130178-.281685-.130178-.46687 0-.253353.139515-.336683.563716-.336683.47955 0 .554954.06167.505032.413205-.05794.407964-.667457.661464-.93857.390348zm2.624538-.344434c0-.367299.09183-.459119.45912-.459119.367295 0 .45912.09183.45912.459119 0 .367298-.09183.459119-.45912.459119-.367295 0-.45912-.09182-.45912-.459119zm2.497202.324033c-.263517-.263517-.09265-.783152.257516-.783152.237943 0 .367295.122435.367295.347644 0 .348838-.419254.64107-.624811.435508zm16.731153-1.043355c-.325439-.58227-.397231-.86727-.254442-1.010058.250272-.250275 2.32923-.263908 2.32923-.01527 0 .101012-.235117.18365-.522481.18365-.712383 0-1.227983.576305-.961338 1.074531.242188.452537.248783.578304.03034.578304-.09237 0-.371962-.365024-.621308-.811159zm-16.954053-1.10643c-.05587-.145608-.07394-.387464-.04014-.537459.05057-.224454.140957-.207846.510754.09387.370552.302314.402743.396036.183648.534648-.374109.236682-.537201.213989-.654255-.09105zm19.179075-.194374c-.191223-.419688-.30953-.459119-1.377357-.459119-1.073028 0-1.185499-.03802-1.380908-.466903-.18267-.40092-.156162-.523485.187585-.867229.220178-.220171.400318-.299309.400318-.175866 0 .123451.123965.224462.275474.224462.158645 0 .275473.165896.275473.391177 0 .35499.07646.382566.826416.298034.454525-.05119.826415-.02064.826415.06793 0 .08859.12396.161086.275468.161086.151514 0 .275474-.06419.275474-.142586 0-.07841.338441-.110313.75209-.07085.655178.06248.743134.02762.682554-.270619-.05425-.267094-.22329-.337407-.769015-.319898-.641558.02064-.69258-.01365-.616196-.413204.04581-.239614.01208-.435654-.0749-.435654-.087 0-.158183.206602-.158183.459119 0 .252516-.08264.459118-.183643.459118s-.183649-.08264-.183649-.183649c0-.101012-.445687-.183649-.990417-.183649-.735935 0-1.019211-.07499-1.102483-.292044-.199043-.518691.06753-.62619 1.552797-.62619 1.43313 0 1.458341.0079 1.458341.459115 0 .285675.104064.459119.275469.459119.158099 0 .275472-.16562.275472-.388707 0-.315584.08636-.372193.459119-.300934.252516.04826.459122.01658.459122-.07043 0-.08699-.213494-.158177-.474422-.158177-.290034 0-.445583-.08652-.400219-.222624.10234-.307011 1.807952-.192884 2.153619.144105.235655.229747.22998.262163-.04591.262163-.173153 0-.314824.08265-.314824.183655 0 .235803.311795.238379.456796.0033.07-.113263.244057-.0969.469956.0442.302418.188858.358781.433502.358781 1.557245v1.333182h-2.207713c-2.176676 0-2.210648-.0065-2.416896-.459119zm-34.859665-.09178c0-.269343.122431-.36729.459119-.36729.336689 0 .45912.09794.45912.36729 0 .269352-.122431.367299-.45912.367299-.336688 0-.459119-.09794-.459119-.367299zm2.571069 0c0-.269343.122433-.36729.459119-.36729.336688 0 .459121.09794.459121.36729 0 .269352-.122433.367299-.459121.367299-.336686 0-.459119-.09794-.459119-.367299zm2.884896.252614c-.315349-.315347-.102013-.619904.43423-.619904.438436 0 .550738.07174.503155.321385-.06266.328818-.703128.532779-.937385.298519zm2.571069 0c-.315348-.315347-.102012-.619904.434231-.619904.438434 0 .550737.07174.503154.321385-.06266.328818-.703128.532779-.937385.298519zm2.754716 0c-.315348-.315347-.102012-.619904.434231-.619904.438436 0 .550738.07174.503156.321385-.06267.328818-.70313.532779-.937387.298519zm2.624538-.252614c0-.269343.122433-.36729.45912-.36729.336688 0 .45912.09794.45912.36729 0 .269352-.122432.367299-.45912.367299-.336687 0-.45912-.09794-.45912-.367299zm-15.3149411-.474136c-.061309-.159771-.111472-.367186-.111472-.460915 0-.103074 3.4294101-.151572 8.6773581-.12272l8.677358.0477.05869.413213c.04779.336529-.02889.413205-.413207.413205-.297029 0-.471893-.102074-.471893-.27547 0-.192855-.19449-.275469-.64853-.275469-.407059 0-.687892.102569-.754239.275469-.06026.157024-.334154.27547-.637004.27547-.349832 0-.531296-.09409-.531296-.27547 0-.204051-.214257-.275469-.826415-.275469-.612159 0-.826415.07141-.826415.275469 0 .18365-.183648.27547-.550944.27547s-.550943-.09182-.550943-.27547c0-.192855-.194491-.275469-.648531-.275469-.407058 0-.68789.102569-.754239.275469-.06026.157024-.334155.27547-.637004.27547-.34983 0-.531295-.09409-.531295-.27547 0-.198957-.204053-.275469-.734592-.275469-.530537 0-.73459.07653-.73459.275469 0 .190742-.191668.27547-.623119.27547-.38447 0-.663604-.105503-.728827-.27547-.06635-.1729-.347182-.275469-.754241-.275469-.454038 0-.648529.08262-.648529.275469 0 .192392-.193852.27547-.642768.27547-.448918 0-.642768-.08308-.642768-.27547 0-.192855-.19449-.275469-.648531-.275469-.407059 0-.6878905.102569-.7542385.275469-.148422.386782-1.4582807.374538-1.6077706-.01503zm18.8042501-.0073c0-.247145-.0481-.258034-.282113-.06386-.236146.195983-.373253.147282-.841502-.298895-.455903-.434419-.542302-.640054-.467008-1.111523.07008-.438782-.0067-.671625-.31813-.964147-.403797-.379348-.538837-.385664-8.249624-.385664h-7.8391073v-1.010059-1.010064h6.7072213 6.70722l1.46103.734591 1.461031.73459h3.952502 3.952505v.642767c0 .629455-.372883.895806-.642768.459122-.06741-.109065-1.21873-.183648-2.834891-.183648-2.194974 0-2.765616.05328-2.950013.275473-.144168.173706-.156478.275472-.03332.275472.107412 0 .246371-.08265.308796-.183653.06675-.108014 1.152805-.183644 2.637118-.183644 2.783581 0 3.511252.180655 3.513651.872322l.0014.413213h4.132076 4.132071v-.459119c0-.336692.09794-.459119.367298-.459119.420887 0 .465797.313965.111649.780503-.219377.28899-.652236.321384-4.294861.321384-2.227993 0-4.181619.05022-4.341388.111467-.159772.06134-.290492.223998-.290492.36153 0 .146826-.113725.206423-.275472.144357-.174436-.06695-.275472.0024-.275472.189409 0 .257945-.347.295117-2.754717.295117-2.418604 0-2.754716-.03632-2.754716-.297952zm5.106786-1.21714-.05647-.780504-2.020125-.05339c-2.635294-.06969-2.846541-.01324-2.846541.760898 0 .334766.0551.663755.122433.731095.06734.06735 1.187749.122427 2.489802.122427h2.367375zm-4.555843-.05175v-.648575l2.157862.05175 2.157862.05176.05755.596854.05755.596853h-2.21541-2.21541zm-1.652831-1.46336c0-.151507-.123961-.275467-.275471-.275467-.151509 0-.275471.12396-.275471.275467 0 .151509.123962.275475.275471.275475.15151 0 .275471-.123966.275471-.275475zm-15.242766-1.010246c0-.244862-.122432-.367292-.367295-.367292s-.3672965.12243-.3672965.367292c0 .244864.1224335.367299.3672965.367299s.367295-.122435.367295-.367299zm-.550943 0c0-.101002.08264-.183643.183648-.183643.101002 0 .183648.08264.183648.183643s-.08264.183649-.183648.183649c-.101003 0-.183648-.08264-.183648-.183649zm30.485532 3.856607c0-.101003.08264-.18365.183649-.18365.101002 0 .183649.08265.183649.18365 0 .101002-.08264.183648-.183649.183648-.101003 0-.183649-.08265-.183649-.183648zm9.770063-.404024c-.680611-.680615-.435686-.706907 6.390065-.685936 3.760545.01153 6.655079.09253 6.713977.187833.05696.09214.429235.167538.827294.167538.52091 0 .723758.07718.723758.275469 0 .240191-.924356.27547-7.217358.27547-5.368637 0-7.273812-.05647-7.437736-.220374zm-42.0370882-.861712c-.1193589-.191125-.1667849-.397727-.1053919-.45912.06139-.06142 1.1739617-.111621 2.4723731-.111621 2.339919 0 2.362597-.0041 2.56994-.459118.198793-.436306.285303-.459122 1.740717-.459122h1.531528v.91824.918238h-3.996076c-3.7212883 0-4.0109982-.02389-4.2130902-.347497zm3.6179712-.01974c0-.108827-.673375-.18365-1.65283-.18365-.9794544 0-1.6528302.07483-1.6528302.18365 0 .108826.6733758.183649 1.6528302.183649.979455 0 1.65283-.07483 1.65283-.183649zm12.815263.137735c.103695-.126262.226522-.436166.272948-.688683.06223-.338447.09099-.27811.109421.229564.01899.523103-.04663.688682-.272948.688682-.21649 0-.246409-.06281-.109421-.229563zm-8.04042-.688683c0-.457411.07258-.711411.183648-.642763.101002.06242.183647.351669.183647.642763 0 .291102-.08264.580344-.183647.642768-.111075.06866-.183648-.185348-.183648-.642768zm4.626019.0459.057-.688679 1.377145-.05487c1.101027-.04388 1.331158-.0089 1.147797.17446-.359823.359827-.269224.886286.183863 1.068401.295256.118673-.04866.169414-1.204797.177734l-1.618004.01171zm28.430582.232026c0-.150151-.309904-.561121-.68868-.913267-.5558-.516734-.837182-.64123-1.458344-.645239-.423317-.0027-.820742-.0876-.883163-.188616-.07301-.118139.599647-.183648 1.885652-.183648h1.999159l-.08052.548598c-.110227.751025.09522 1.471525.419605 1.471525.324377 0 .529827-.7205.419601-1.471525-.0617-.420319-.0095-.548595.223165-.548595.232673 0 .284855.128276.223167.548595-.110227.751025.09522 1.471525.4196 1.471525.324377 0 .529827-.7205.4196-1.471525-.0657-.44766-.0152-.548595.27462-.548595.24817 0 .321612.08737.243833.290065-.178662.465577.08991 1.730055.367455 1.730055.323819 0 .511003-.7716.381208-1.571414-.09873-.608388-.04378-.682538 1.400859-1.889527.826994-.690956 1.617041-1.393214 1.755665-1.5605632.221219-.2670614.765945-.3042771 4.453463-.3042771h4.20141v1.4691813c0 .808049-.07118 1.469181-.158178 1.469181-.087 0-.11869-.206601-.07044-.459116.04827-.252516.0049-.459118-.09689-.459118-.101563 0-.173176.144622-.159145.321383.02194.276198-.172656.32889-1.384011.374775-1.342695.05086-1.413334.03342-1.490082-.3673-.07174-.374632-.0833-.366131-.105577.0777l-.02502.498379-1.79057.05256-1.790562.05256-.0543 1.239624-.0543 1.239621h-4.399157c-3.770228 0-4.399157-.03908-4.399157-.273zm5.473116-.873073c-.04113-.713492-.132659-.977086-.353783-1.019081-.400442-.07605-.552321.388226-.412676 1.261516.08767.548258.199427.719988.468548.719988.310899 0 .346741-.115789.297911-.962423zm1.469187 0c-.04289-.743838-.12851-.976311-.376897-1.023532-.274944-.05227-.321384.0868-.321384.962431 0 .90979.04191 1.023523.376898 1.023523.339207 0 .371342-.09622.321383-.962422zm1.689141.31682c0-.295445-.502722-.499225-.648738-.262966-.06026.09749-.05595.346165.0096.552588.09511.299683.171523.331834.379151.159527.143007-.118699.260017-.320807.260017-.449149zm6.244025-3.965235c0-.225217-.12935-.3476456-.367299-.3476456-.350154 0-.521023.5196346-.257513.7831516.205554.20556.624812-.08667.624812-.435506zm-.550939.01962c0-.101003.08264-.18365.18364-.18365.101013 0 .18365.08264.18365.18365 0 .101002-.08264.183648-.18365.183648-.101002 0-.18364-.08264-.18364-.183648zm-5.139328 3.627044c.0021-.808841.05537-1.066448.180837-.872325.118681.183648.178958.198949.180832.04591.0015-.126256.135615-.229559.297932-.229559.174601 0 .255649.102866.198464.251886-.05448.141961.134069.422475.432032.642767.64212.474739.96037.500131.871383.0695-.03654-.176761-.207872-.309903-.380761-.295874-.172894.014-.31435-.08238-.31435-.21426 0-.131867-.103303-.281444-.229558-.332388-.126261-.05097 1.092707-.08615 2.708801-.07823 1.984553.0097 2.533738.04972 1.691858.123236-1.396611.121946-1.592887.28765-1.597218 1.348466l-.0024.688675-1.423273-.01454c-.782792-.0082-1.319965-.05614-1.193704-.107129.319759-.129025.28765-.429317-.04591-.429317-.151509 0-.275474.123963-.275474.275471 0 .183648-.183644.275469-.550942.275469h-.550932l.0025-1.1478zm.306285.562422c-.05862-.146501-.102142-.102984-.110951.110956-.008.193602.03545.302071.09646.241036.06102-.06102.06755-.219416.01447-.351992zm3.489307 0c-.05866-.146501-.102139-.102984-.110947.110956-.0082.193602.03542.302071.09646.241036.06101-.06102.06752-.219416.01446-.351992zm-29.289597-.47061c.04963-.773384.108047-.879301.515094-.93379.252516-.03378.537629-.137104.633585-.229558.240395-.23162 5.374798-.217153 5.518618.01557.06242.101003.356547.18365.653603.18365.525694 0 .540103.02452.540103.918239v.918235h-3.958487-3.958489zm.698742.229558c0-.151507-.07777-.275467-.172809-.275467-.231576 0-.397433.286777-.250711.433507.206822.206821.42352.125953.42352-.15804zm6.822513 0c0-.09596-.08884-.204075-.197418-.240271-.108583-.03618-.197424.07193-.197424.240271 0 .168342.08884.276469.197424.240272.108581-.03616.197418-.144315.197418-.240272zm-33.0841471-.275466c0-.350411.122432-.367298 2.6628921-.367298 1.464591 0 2.662894.06611 2.662894.146917 0 .47504-.552637.587676-2.883271.587676-2.3200831 0-2.4425151-.01844-2.4425151-.367295zm33.6075431-.459122v-.642767h2.14868c1.702385 0 2.101677.04701 1.922391.226289-.12446.124459-.848545.257712-1.609071.296114-1.1086.05598-1.425714.138568-1.599274.416483-.119067.190656-.361889.346647-.539609.346647-.246842 0-.323117-.151723-.323117-.642766zm-38.382345.229557c-.000022-.07576.103261-.138999.2295189-.140545.152379-.0021.136943-.06138-.04591-.177006-.241204-.152524-.23596-.213717.04215-.491909.293021-.293095.294614-.343143.02057-.645962-.2322469-.256629-.2497909-.385211-.0804099-.589308.1678009-.202186.1631629-.282522-.02057-.356242-.130473-.05236.8990968-.101706 2.2879325-.109684l2.5251574-.01453v1.0794c0 1.513868-.12236 1.583494-2.7829224 1.583494-1.1965177 0-2.1755045-.06198-2.1755265-.137739zm2.0200855-.51384c0-.247372-.3110139-.368552-.6308828-.245811-.223015.08559-.246608.174263-.09497.356975.20531.247389.7258518.167667.7258518-.111164zm1.2855338 0c0-.294162-.3856-.388267-.6595039-.160946-.2076599.172341-.2211789.263115-.05452.366116.253013.15637.7140269.0239.7140269-.20517zm1.2855347 0c0-.08424-.08984-.208683-.19965-.27655-.2549909-.157595-.6144898.191722-.4579639.444988.130349.210912.6576139.07586.6576139-.168438zm-2.6707364-1.264032c.05811-.09403.01771-.225316-.08978-.291747-.2717929-.16798-.7772108.05214-.6377709.277759.143539.23225.5873829.240782.7275499.014zm1.2571657-.102002c.01991-.09963-.108411-.208986-.2851719-.243027-.201021-.03873-.321383.05138-.321383.240512 0 .31951.5427339.321758.6065549.0025zm1.3677447.04341c-.115703-.347501-.6887659-.396903-.6887659-.05938 0 .170358.157019.28894.3826.28894.2244129 0 .3509979-.09492.3061659-.229558zm35.084965 1.848426c.160759-.156262 2.940876-.245977 3.087226-.09962.05866.05866-.641095.133366-1.554993.166027-.913903.03264-1.603407.0027-1.532233-.0664zm-34.4881961-1.424349c0-.600079.08264-1.142125.1836489-1.204552.115301-.07126.183647.334783.183647 1.09105 0 .680602-.07989 1.204548-.183647 1.204548-.101828 0-.1836489-.486115-.1836489-1.091046zm25.1597481.301361c0-.606908.421812-.679498 3.948427-.679498 3.526613 0 3.948425.07259 3.948425.679498 0 .279024-.843239.325018-1.010062.0551-.0677-.10955-1.25322-.183649-2.938363-.183649s-2.870657.07409-2.938365.183649c-.166822.269925-1.010062.223931-1.010062-.0551zm-9.592203-.781176-1.236225-.634552-6.798365-.0291c-3.739099-.01603-6.7983643-.09828-6.7983643-.182825 0-.08455.7079428-.153728 1.5732053-.153728h1.573204l-.05811-.505027c-.057581-.5004336-.071922-.5055247-1.573204-.5583787l-1.5150943-.053341.0145-.773077c.008-.4251909.05618-.6697736.107127-.5435128.1290279.3197642.4293179.2876501.4293179-.045914 0-.2413603 1.1930694-.2754682 9.6357444-.2754682 8.489657 0 9.623173.032744 9.530038.2754682-.06862.1788336.0047.2754739.209059.2754739.204343 0 .277685-.096641.209058-.2754739-.05814-.1515084-.0267-.2754682.06986-.2754682.100309 0 .156881.610105.131972 1.4232717l-.0436 1.423267h7.070442 7.07044l.05334-1.5150908.05334-1.5150963h4.308297c3.37412 0 4.308295.050862 4.308295.2346547 0 .1290663.166226.3769907.369396.5509469.475333.4069918 2.110541.4336507 2.503378.040812.202952-.2029532.699156-.2754744 1.884832-.2754744 1.570417 0 1.621705-.013845 2.119896-.5729932.407798-.4576908.460105-.6067057.259917-.7404886-.169577-.113325-.04279-.1507382.392141-.1156829.559661.045134.650685.1212892.703997.5891784.03368.2955516.270752.8120623.526828 1.1477981l.465603.6104285h-2.058797-2.058795l-.917453.7805056c-.504601.429278-1.311333 1.131728-1.792741 1.561007l-.875292.780505h-6.043071c-5.844173 0-6.050613-.01207-6.272446-.367293-.217251-.347875-.428267-.367297-3.991045-.367297-3.562776 0-3.773794.01942-3.991046.367297-.218388.349693-.423112.366861-4.271369.358262l-4.041986-.009zm26.487795-1.09203v-1.5610109h-.734588-.734591v1.5610109 1.561006h.734591.734588zm-1.285531 0v-1.3773616h.550943.550945v1.3773616 1.377358h-.550945-.550943zm-30.156871-.459122-.06685-.4591173 3.188549-.02301c1.7537-.01265 3.260849-.095275 3.349216-.1836435.09179-.091793-.654508-.1606711-1.740915-.1606711-1.04587 0-1.863276.061978-1.816456.1377342.04682.075758-.06844.1377398-.256132.1377398-.276896 0-.328093-.1125694-.271451-.5968566l.0698-.5968573-1.805425.064822c-1.665767.059808-2.06904.1808797-2.078084.6238583-.0015.075758.776534.1377342 1.729068.1377342 1.586343 0 1.738866-.031078 1.815001-.3701089.06914-.3078741.07901-.3001537.05869.045914-.02346.3994433-.104946.419777-2.044561.5101334-1.111069.051748-2.929181.051748-4.040251 0-1.858395-.086577-2.02157-.123517-2.038175-.4614022-.01373-.2795916.000276-.2905546.05869-.045914.06641.278134.311459.3213833 1.820991.3213833 1.660684 0 1.738672-.017599 1.627682-.3672928-.07177-.2261227-.033-.3672979.10086-.3672979.134608 0 .182986.1801922.127003.4730423-.05839.3054794-.02734.4099701.08764.2949795.09793-.097935.149655-.3196494.11493-.492694-.05473-.2727667-.338081-.3181294-2.129216-.3408949l-2.066082-.026235.000043.5107951c.000025.2809395.103348.5470794.229605.5914224.126259.044354 1.468255.1450482 2.982218.2237957 2.564163.1333653 2.755221.1683223 2.790084.5104663.02913.28587.01643.296047-.05732.04591-.08118-.275369-.332271-.321384-1.753759-.321384-1.399227 0-1.64246.04315-1.553304.275474.05815.15151.01603.275475-.09359.275475-.113352 0-.154898-.169813-.09633-.393754.07354-.2812261.04645-.3372349-.09479-.195993-.108766.108769-.155984.306615-.104929.439664.06878.179261.601897.241907 2.058616.241907h1.965782zm4.239573.03248c.226991-.276828.241949-.263522.14801.131711-.07464.314022-.04798.383149.09325.241907.108768-.10877.156188-.306615.105379-.439664-.07011-.183587-.540842-.227898-1.952686-.183795-1.589427.04966-1.862973.103126-1.878613.367293-.0113.190693-.07467.133232-.165342-.149932l-.147036-.4591164-.01846.4591164-.01845.459124 1.790708-.05934c1.402498-.04649 1.84545-.126105 2.043218-.367299zm22.714353-.198501c-.06842-.110701-.284797-.2012707-.480851-.2012707-.402072 0-.506349.6484087-.126895.7890907.304932.113053.765558-.332478.607746-.58782zm-.653656.166026c0-.101012.07776-.183649.172805-.183649.09505 0 .223884.08264.286312.183649.06242.101003-.01535.18365-.172811.18365-.157469 0-.286306-.08264-.286306-.18365zm-27.822642-1.2679985c0-.2933708-.06198-.4950992-.137736-.4482789-.07576.0468-.137736.2868531-.137736.5334085 0 .2465504.06198.4482795.137736.4482795.07576 0 .137736-.2400327.137736-.5334091zm7.951949.1293839c.499875-.4998734.200686-.6060394-1.707924-.6060394-1.592863 0-1.927813.047946-1.92549.2754732.0025.2448639.0226.2448639.180836 0 .143956-.2227598.178561-.1964031.180836.1377342.0027.3950973.06962.4132079 1.527088.4132079.940684 0 1.608653-.084375 1.744654-.2203759zm19.136097-.803152c0-.1710197-.124949-.2647074-.306162-.2295636-.460731.089357-.523996.5184998-.07644.5184998.225582 0 .382598-.118577.382598-.2889362zm15.059119.1052869c0-.1010023-.08264-.1836436-.183649-.1836436-.101002 0-.183643.082642-.183643.1836436 0 .1010075.08264.1836493.183643.1836493.101013 0 .183649-.082642.183649-.1836493zm-30.04587 2.1274657c-.159107-.414628-.0018-1.2657082.249019-1.3480997.154964-.050911.229559.1384629.229559.5826913v.6580714h6.713985c4.429218 0 6.675354.0625 6.600479.18365-.07235.117071-2.574901.183643-6.903393.183643-5.685963 0-6.806112-.04227-6.889649-.259956zm-21.2580691-.05112c-.06459-.06459-.117439-.392911-.117439-.7295984 0-.4217084.0857-.6121616.2754719-.6121616.191491 0 .275471.1926494.275471.6319329 0 .6180191-.199178.9441541-.4335039.7098271zm.8007988-.247596c0-.3499111.09516-.3714268 1.4212793-.3213834 1.182218.044614 1.431602.1076904 1.482648.3750234.05434.284604-.108286.321383-1.421279.321383-1.3703963 0-1.4826483-.02838-1.4826483-.375023zm2.5710693.0077c0-.103595-.520335-.183649-1.193711-.183649-.6733745 0-1.1937104.08005-1.1937104.183649 0 .103595.5203359.183649 1.1937104.183649.673376 0 1.193711-.08006 1.193711-.183649zm-4.2238989-.36732c0-.2040561.1224319-.3672978.2754719-.3672978s.2754719.1632417.2754719.3672978c0 .20405-.1224319.367292-.2754719.367292s-.2754719-.163242-.2754719-.367292zm22.8591789.175646c-.06516-.105432-.02527-.3039954.08866-.4412606.155726-.1876371.148257-.2726107-.0301-.3424247-.130475-.051065.09334-.045086.497366.013276.404024.058354.966327.2468154 1.24956.4187882.447906.2719591.983259.3053331 4.110982.2562741 2.222859-.03488 3.670685-.1310809 3.791569-.2519695.108686-.1086856.913491-.1955597 1.811656-.1955597 1.49367 0 1.616104.027795 1.616104.3672986 0 .3603856-.122434.3672936-6.508656.3672936-4.323104 0-6.548441-.06437-6.62713-.191693zm2.300569-.3262448c-.719383-.3259845-1.047679-.6597471-.963935-.9799905.08216-.3141889.343121-.3385517 3.626828-.3385517 3.383844 0 3.542486.01603 3.634344.3672979.08889.3399367.264899.3697343 2.362926.4000219l2.266881.032744-1.744655.13838c-.959563.076107-2.568574.2351967-3.57559.353534-1.338711.1573129-1.918152.1606807-2.155368.012545-.404914-.2528751-2.104334-.2671499-2.257721-.018947-.127046.2055599-.773464.2234366-1.19371.033004zm28.729454-1.0889932c-.931013-1.0089862-.796396-1.2382485.731778-1.2462499l1.265013-.00658.639615.8903004c.634798.8835908.845999.9310148 1.001243.2248325.07264-.3304884.100859-.3186193.281426.1184778.110377.2671752.309326.5292338.442121.5823534.132778.053122-.651186.1031103-1.742153.1110858l-1.983578.014527zm1.306849.3053814c.189255-.3062191-.236397-.6573693-.489742-.4040254-.211917.2119163-.0793.603671.204384.603671.08907 0 .21749-.089841.285358-.1996456zm3.387593-.1741073c0-.2055707-.133468-.577455-.296594-.8264154-.464588-.7090561.000016-.5303476.734345.2824598.365275.404316.664137.7762053.664137.8264154 0 .050237-.247926.091294-.550939.091294-.431689 0-.550949-.080901-.550949-.3737538zm-36.250788-.1003827c-.06131-.1597701-.111473-.3663765-.111473-.4591226 0-.099405 2.826979-.1686253 6.886793-.1686253h6.886791v.4591175.4591225h-2.067777c-1.868877 0-2.089834-.035344-2.29715-.3672979-.21663-.3468763-.42827-.3672929-3.807399-.3672929s-3.59077.02041-3.807399.3672929c-.290172.4646403-1.512154.5204256-1.682386.076806zm35.508668-.4546766c-.483258-.678671-.334864-.9556333.180473-.336824.331621.39821.497908.8983434.298682.8983434-.04363 0-.259244-.2526825-.479155-.5615194zm-58.0710839.2440879c-.7274868-.076099-.8517128-.3203214-.4985699-.9801782.256634-.4795185 2.0723786-.5382655 1.8892816-.061125-.08366.2180181-.02278.2745786.2353229.2186526.1915-.041486.327519-.1738408.302268-.2940996-.03349-.1595099.5501949-.2186526 2.1578613-.2186526 1.665073 0 2.192551.056111 2.157862.2295588-.03178.1588908-.696091.2671913-2.157862.3518-2.6135052.1512695-2.5710692.1421753-2.5710692.5511346 0 .3484535-.05424.3557156-1.5150947.2029055zm45.6364759.019678c-.126261-.0550706-.229558-.2172097-.229558-.3603005 0-.2096046.419355-.2604808 2.157856-.2617661 1.186826-.00106 2.612394-.055786 3.167927-.1220237.91115-.1086336.986378-.091699.768236.1729306-.176966.2146755-.694152.3189939-1.928305.388938-.927558.052577-2.141.1376097-2.696533.1889695-.555533.051382-1.113368.048311-1.239623-.00674zm11.276293-.3633304c-.401188-.5506657-.247025-.8502522.172671-.3355581.278055.3409929.284522.3412327.17754.00658-.09396-.2939957-.06801-.3117001.168667-.1152507.326827.2712464.38051.6384353.06484.4433175-.144462-.089284-.176434-.032695-.09759.1728114.174858.4556499-.09965.3586088-.486103-.1718534zm-50.377967-.7162572c0-.1515141.110188-.2754739.244864-.2754739.134675 0 .244864.1239598.244864.2754739 0 .1515084-.110189.2754683-.244864.2754683-.134676 0-.244864-.1239599-.244864-.2754683zm.673374-.091825c0-.202015.117076-.3672978.260167-.3672978.143092 0 .29472-.1033036.336951-.2295588.05347-.1598535.555399-.2295585 1.652949-.2295585.866892 0 1.617024.041332 1.666959.091825.04994.050497.04714.3190872-.0062.5968515-.09258.4819284-.144345.5043704-1.131582.4905336-.569013-.00796-.931265-.056176-.805006-.1071289.265337-.1070623.309349-.7256214.06248-.8781925-.285594-.1765066-.751164.1044021-.751164.4532195 0 .1827896.103303.3740293.229561.424973.126257.050968-.162988.099154-.642768.1071289-.754728.012545-.872328-.035035-.872328-.3527946zm.856218-.4132073c-.05094-.1262608-.09263-.022962-.09263.229558 0 .2525167.04168.3558195.09263.2295587.05094-.1262551.05094-.3328615 0-.4591167zm2.816739.2601681c0-.2391267-.218316-.3981573-.395907-.2883992-.189932.1173851-.02616.4414384.223097.4414384.09505 0 .17281-.068875.17281-.1530392zm.367295.3366828c0-.1211584 6.029768-.1836436 17.722012-.1836436 11.692241 0 17.72201.062481 17.72201.1836436 0 .1211647-6.029769.1836493-17.72201.1836493-11.692244 0-17.722012-.062482-17.722012-.1836493zm35.699844-.1068427c.06131-.15977.111476-.4076944.111476-.5509414 0-.2150555.50413-.2553278 2.892452-.2310634 1.590846.016136 2.623867.062725 2.295596.1034595-.424081.052634-.596856.1694525-.596856.4035662 0 .2683678-.209432.3513889-1.128828.4474882-.620849.064886-1.704035.1179831-2.407068.1179831-1.090137 0-1.26184-.042738-1.166772-.2904922zm1.36456-.3215808c.03436-.1771421-.05782-.3061669-.218721-.3061669-.34117 0-.547079.2993735-.385606.5606401.166116.2687789.532795.1143763.604327-.2544732zm-.518494.061133c0-.1010064.08264-.1836485.183644-.1836485.101002 0 .183649.082642.183649.1836485 0 .1010075-.08264.1836493-.183649.1836493-.101002 0-.183644-.082642-.183644-.1836493zm-39.081781-.0137966c.0362-.1085825.144317-.1974236.240274-.1974236.09596 0 .204078.088842.240272.1974236.0362.1085816-.07193.1974228-.240272.1974228-.168344 0-.276467-.088842-.240274-.1974228zm2.968755-.2616997c.32071-.3207113 3.142377-.3984699 3.331896-.091824.147781.2391162 1.010062.2391162 1.010062 0 0-.1010022.206604-.1836443.45912-.1836443s.459119.082642.459119.1836443c0 .1010064.247926.1836485.550944.1836485s.550943-.082641.550943-.1836485c0-.1080249.642767-.1836443 1.561006-.1836443.91824 0 1.561006.075619 1.561006.1836443 0 .2391162.862282.2391162 1.010063 0 .147781-.2391112 1.010064-.2391112 1.010064 0 0 .2391162.862281.2391162 1.010063 0 .149743-.2422921 3.213836-.2422921 3.213836 0 0 .1010064.206603.1836485.459119.1836485.252515 0 .459119-.082641.459119-.1836485 0-.2391112.862283-.2391112 1.010064 0 .14778.2391162 1.010062.2391162 1.010062 0 0-.1080249.642767-.1836443 1.561007-.1836443.918239 0 1.561004.075619 1.561004.1836443 0 .1010064.201728.1836485.448279.1836485.246554 0 .499357-.082641.561784-.1836485.147782-.2391112 1.010064-.2391112 1.010064 0 0 .1010064.206601.1836485.459118.1836485.252516 0 .459123-.082641.459123-.1836485 0-.2422921 3.064085-.2422921 3.213835 0 .147781.2391162 1.010059.2391162 1.010059 0 0-.2391112.862282-.2391112 1.010064 0 .147781.2391162 1.010064.2391162 1.010064 0 0-.1080249.642765-.1836443 1.561006-.1836443 1.024317 0 1.561005.070306 1.561005.2044883 0 .1227515.22023.1721702.550943.1236315.303022-.04446.550946-.012545.550946.07098 0 .08351-7.980807.1518415-17.735129.1518415-15.764561 0-17.704521-.030607-17.459658-.275473zm36.113026-.9381459c0-.4064408.06322-.463162.417242-.3743056.434848.109139 1.61247-.1850645 2.245647-.56103.31473-.1868765.334445-.2717567.137739-.5930824-.374153-.6111881-.272428-.747272.558616-.747272.685771 0 .888591.102314 1.56101.7874549.584175.5952323.772827.931452.772827 1.3773573 0 .7109826-.280117.7786053-.448367.1082436-.110398-.4398612-.179865-.4719134-.800413-.3693184-.373737.06179-.906786.1132568-1.184555.1143658-.381926.00154-.505032.091554-.505032.3693176 0 .3346475-.122429.3672986-1.377357.3672986-1.362016 0-1.377357-.00528-1.377357-.4790294zm4.740394-1.0387326c.0731-.3795211-.457065-.6352543-.736874-.3554499-.279805.2798101-.02405.8099653.355448.7368761.175908-.03389.347548-.2055185.381426-.3814262zm-.572721.1147874c-.146719-.1467244.01916-.433505.250709-.433505.09505 0 .17281.1239597.17281.275473 0 .2839955-.216694.3648514-.423519.158032zm-1.22931 1.1275007c0-.1878394.189864-.2762702.596857-.2779772.32827-.00154.796736-.055982 1.041038-.1213469.367027-.09819.423218-.064204.323486.1956955-.07165.1867099-.0469.2689349.06085.2023269.09985-.06171.181541-.024675.181541.082288 0 .1152717-.44879.194488-1.101883.194488-.857025 0-1.101889-.061214-1.101889-.2754743zm-42.567801-1.4232716c.04849-1.3772687.0883-1.5200891.437621-1.5699863.316017-.045134.456571.1342932.791189 1.0100645.223797.5857211.624162 1.292217.889698 1.5699861l.482794.5050319h-1.32732-1.327321zm40.308525.6637821c-.201506-.2015-.149781-.7664659.08336-.9105561.116333-.071898.311388.00585.433457.1728048.314679.430351.808117.3759817.995389-.1096744.138595-.3594164.175805-.3725147.285829-.100622.172435.4261227.01145.6311627-.590913.7527175-.279871.056477-.637133.1523623-.793914.2130821-.156787.060718-.342732.052731-.413208-.017753z" fill="#273839" stroke-width=".183648"/></svg>