<svg height="128" viewBox="0 0 73.522938 33.866667" width="277.88199" xmlns="http://www.w3.org/2000/svg"><path d="m22.023855 30.538528c-.05207-.08424.01158-.315317.141439-.513502.18616-.284115.361349-.360333.828235-.360333.357397 0 .556189-.05816.501461-.146716-.128787-.208379-1.50306-.185694-1.573616.02598-.03287.09861-.137141.12351-.243074.05804-.263956-.163133.329945-.557339.75563-.501555.180116.0236.345156-.02134.366753-.09988.05708-.207556-1.124624-.264533-1.364116-.06577-.111541.09257-.278765.121364-.371608.06398-.254612-.157359.136581-.356149.706132-.358833.262253-.0011.476824-.0762.476824-.166594 0-.110202-.291077-.143293-.883487-.100442-.585343.04234-.866181.01116-.832206-.0924.0282-.08597.328243-.176684.666757-.201585.338513-.02491.577067-.107431.53012-.183394-.12332-.199536-1.535191-.175106-1.535191.02656 0 .114839-.05551.118768-.183393.01299-.100867-.08343-.381144-.174045-.622841-.201357-.358261-.04049-.453382-.130976-.514868-.489805-.0673-.392785-.146312-.450814-.734271-.539306-.362367-.05454-.932378-.104054-1.26669-.110036-.397291-.0071-.637093-.08711-.69229-.230946-.06725-.175245-.382222-.220072-1.546315-.220072-1.333011 0-1.470074.02586-1.554995.293429-.05918.186477-.221985.293429-.44665.293429-.434145 0-.737854.446621-.87245 1.282986-.162534 1.009964-.368119.878126-.368119-.236069 0-.888028.05057-1.084499.379828-1.475804l.379829-.451402h3.77791 3.777909l2.444424 1.998489c2.132404 1.743387 2.444424 2.052391 2.444424 2.420791v.422306h-1.238416c-.70213 0-1.279409-.06633-1.333079-.153167zm2.837104-.339461c-.04095-.443005-.303438-.702031-2.605729-2.571368l-2.560195-2.078739-3.749028.0126c-3.29237.01108-3.785485.04282-4.048311.26061-.585237.484962-.727899.818806-.820608 1.920328-.06543.777395-.08241.50463-.05605-.900379.02533-1.350362.09856-2.088827.221865-2.237399.272642-.328513.893044-.283418.985901.07166.07129.272601.200121.293429 1.815037.293429 1.588146 0 1.751868-.02535 1.895341-.293429.138531-.258847.290438-.289993 1.288915-.264277l1.131878.02915-1.063682.05064c-.759496.03615-1.063681.106197-1.063681.244934 0 .142828.301217.199587 1.137038.214255 1.167319.02049 1.622335-.110967 1.434744-.414496-.08006-.129528.473626-.173047 2.218602-.174377 1.278905-.001 2.57286-.0033 2.87546-.0052l.55018-.0034v-6.000637-6.000638h.366787.366787l.000147 6.858913.000146 6.858914h-1.638172c-1.008306 0-1.65794.05894-1.689584.153285-.02828.08431.706595.744523 1.633048 1.467146l1.68446 1.313864.005.843609c.0053.901244-.240254 1.173708-.316301.350982zm.614679-9.190544c0-9.318338.01021-9.683171.271011-9.683171.149055 0 .337729.148548.419278.330107.110543.246112.154942-.154701.174491-1.575204.01442-1.0479222.07395-1.9530382.132278-2.0113692.05833-.05833 1.673602-.1252442 3.589488-.1486942 2.228189-.02728 3.470093-.0955 3.446419-.1893512-.02338-.09264-1.319246-.1467142-3.516263-.1467142-4.168094 0-3.953016-.09185-4.013318 1.7138169-.02242.6712618-.04582 1.3360149-.052 1.4772279-.0066.150145-.126559.256751-.288973.256751-.290727 0-.455842.270062-.455842.745573 0 .202383-.103023.281431-.366786.281431-.341845 0-.366788-.04939-.366788-.726284 0-.496042-.07042-.765693-.222138-.850599-.122176-.068371-.336746-.5786132-.476823-1.1338658-.140077-.5552516-.336622-1.0360692-.436767-1.0684822-.130594-.04227-.156545.06876-.09177.3926364.108279.5413926-.135304.892442-.619237.892442-.501581 0-.733307-.5072735-.437769-.958322.126775-.1934823.230499-.3871195.230499-.4303055 0-.04319-2.145702-.07852-4.768228-.07852s-4.768229-.04259-4.768229-.09465.18156-.3820484.403466-.7333108l.403465-.6386587 10.30671-.000265c5.66869-.000144 10.356225-.0024 10.416745-.0049.232341-.0096.205018.7996169-.03287.9735651-.275086.2011473-.07611.3981125.268567.2658483.138649-.0532.242633-.3123083.269991-.6727547l.04449-.5862227 2.127364-.02462c1.245916-.01441 2.157758-.0854 2.200721-.1713302.06809-.1361791-7.489443-.2139062-21.254921-.2186022-3.813811-.0013-4.288368-.02678-4.126727-.2215413.212676-.2562593 2.347435-.3229703 2.347435-.07336 0 .1908232.542282.1908232.660217 0 .118061-.1910262.806931-.1910262.806931 0 0 .08069.132043.1467152.29343.1467152.161386 0 .293428-.06602.293428-.1467152 0-.2160392 2.1026-.1861502 2.321755.033.141816.1418161.240413.1418161.467496 0 .347033-.2167263.878617-.2366953.878617-.033 0 .08069.128147.1467152.284772.1467152.156623 0 .325574-.06602.375445-.1467152.128823-.2084402 1.927627-.1823132 2.272408.033.227083.1418161.32568.1418161.467496 0 .215677-.2156783.854607-.2403533.854607-.033 0 .1908232.542281.1908232.660217 0 .131204-.2122952 2.030983-.1844082 2.248396.033.141817.1418161.240413.1418161.467497 0 .367292-.2293793.770273-.2293793.99965 0 .141816.1418161.240413.1418161.467497 0 .344779-.2153193 2.143584-.2414453 2.272407-.033.124452.2013683.660217.1857902.660217-.0192 0-.1074741.179719-.1367471.510249-.08311.345358.05605.49945.02781.476823-.08735-.01839-.09359.122978-.1938542.31414-.2228132.222127-.03365.405052-.2049453.506841-.4746156l.159272-.4219614 1.253737.0528c.689555.02903 1.295905.05948 1.347445.06767.05154.0082.138064.2513143.192278.5402976.07199.3837394.221115.5914437.553017.7702519.992932.5349316 1.273445.916534 1.312383 1.785333l.03616.8069299-3.091151.03954-3.091153.03954-.613998 1.3215061-.613998 1.321507.305264.428706.305266.428704 3.406471.04418c3.139324.04072 3.437139.06719 3.797553.337613.574664.431171.882064 1.018758.768885 1.469699-.06021.239919.003.601839.169586.971323.174364.386669.213345.622879.113507.68781-.08363.05439-.230287.247443-.325899.429002-.266734.506504-.456947.393909-.456947-.270486 0-.477206-.06028-.616359-.293429-.677328-.198952-.05203-.294075-.201132-.295432-.463086-.0048-.917916-.120244-1.046571-.939412-1.046571-.887245 0-1.112591.17027-1.112591.840666v.488551l-.432459-.319731c-.41155-.304272-.450566-.307867-.806932-.07437-.20596.13495-.374471.323067-.374471.418038 0 .437377-.278498-.16512-.320304-.692941l-.04648-.586858-.782162-.04476c-.941148-.05386-1.198487.123145-1.198487.824339 0 .471214-.01948.49693-.194836.257126-.242664-.331864-.96915-.348788-1.203687-.02804-.267275.365522-.341269.292511-.390297-.385127l-.04512-.623536-.802475-.04547c-.911421-.05163-1.178174.154054-1.178174.908478 0 .401853-.01695.416963-.194836.17369-.275747-.377106-.966551-.3417-1.273532.06528-.286774.380183-.395996.27269-.409617-.403127-.01362-.675896-.115342-.772209-.815554-.772209-.757189 0-.972897.192342-.978995.872951-.0039.437419-.03329.484134-.183393.291673-.290533-.37252-.655746-.437214-.942454-.166945-.243956.229968-.258798.500685-.190563 3.47536.07069 3.081704.08712 3.228237.36743 3.276779.161386.02795.378742.160784.483012.295189.145831.187979.495138.256291 1.513649.296018 1.243792.04851 1.328955.03295 1.404712-.256751.101327-.387478.406558-.392629.886677-.01496.309985.243834.59519.29343 1.687419.29343 1.190994 0 1.321584-.02754 1.391114-.29343.09465-.361929.418917-.381376.611585-.03668.118719.212396.400517.265517 1.63121.307492 1.408264.04803 1.491993.03432 1.568112-.256751.100412-.383975.265469-.387113.739727-.01407.304843.239791.595188.293429 1.588324.293429 1.440262 0 1.672935-.06652 1.572751-.449619-.06332-.242143.0038-.283955.456358-.283955.460889 0 .530612.04583.530612.348824 0 .388217-.303311.71076-.608093.646649-.140674-.02959-.211918.162029-.243555.655068-.03387.527836.0063.696896.165429.696896.11558 0 .294316.101415.397188.225369.102871.123953 1.447893 1.191159 2.988936 2.371567 1.541045 1.18041 2.852134 2.217866 2.913534 2.305459.0614.08759.09441.423349.07336.746121l-.03828.58686-1.564711.04151c-1.449074.03851-1.559572.02194-1.495204-.224204.04992-.190877-.253372-.552738-1.076152-1.283994-.630111-.560015-1.911828-1.730013-2.848261-2.599993l-1.702606-1.581775h-2.937623c-2.45153 0-2.968298-.03696-3.123006-.223373-.257894-.310743-5.352348-.25878-5.352348.05459 0 .158382.443178.193807 2.2145.177017l2.214498-.02099.529676.646397.529673.646398-.895083.09355c-.492294.05145-1.274433.09355-1.738085.09355h-.843004l-2.03309 2.492442c-1.118199 1.370843-2.115618 2.493212-2.216483 2.49415-.144881.0013-.183395-2.031825-.183395-9.681463zm7.744334-11.3337125-.04181-1.5038256h-2.274081-2.274078l-.04275 1.3088204c-.02352.7198517-.0091 1.3965737.03207 1.5038257.05781.150641.594409.195006 2.358646.195006h2.283816zm-4.369895.9987605c0-.144097.198988-.226034.623538-.256752l.623538-.04512.07336-.7335734.07336-.7335738 1.357111-.04218 1.357111-.04218v1.0325091 1.0325081h-2.054007c-1.691584 0-2.054006-.03734-2.054006-.211636zm0-1.3131718c0-.7199438.05394-.9586481.232072-1.0270041.127639-.04898 1.051942-.08905 2.054006-.08905 1.563329 0 1.821934.03293 1.821934.2320022 0 .1977252-.201371.2261423-1.362916.1923342-.749605-.02182-1.442832.0097-1.540505.07009-.09767.06036-.177588.3958914-.177588.7456158 0 .6547507-.14584.8139687-.745574.8139687-.248082 0-.281429-.11114-.281429-.9379488zm-5.984914-.7042088c-.240588-.2405893-.544707.06353-.411267.4112675.09177.2391462.11435.2398632.343302.01091.191417-.1914172.206298-.2838463.06797-.4221765zm13.972548-.5912086c.125614-.1793412.22839-.3774055.22839-.4401435 0-.1944363-.575517-.7009288-.796451-.7009288-.538602 0-.884052.901676-.494638 1.2910894.280122.2801223.814227.2047252 1.062699-.1500171zm-.892272-.1874273c-.116226-.3028803.04136-.6602157.291162-.6602157.300313 0 .555822.3646774.449548.6416207-.115017.2997294-.627887.3126054-.74071.01859zm3.145327.3374444c.266876-.2668773.211072-.7737808-.117969-1.0715572-.605988-.5484126-1.492554.3580394-.943535.9646991.288955.3192924.797842.3705194 1.061504.1068581zm-.945022-.3385304c-.05177-.1349151.0083-.3428263.135993-.4704965.311643-.3116433.724982-.1329941.665267.2875333-.05787.4074765-.662155.5454636-.80126.1829632zm10.098919 21.3114005c.03872-.535156.09616-.630741.405267-.674358.360931-.05093 2.637787-.814311 9.452497-3.169219l3.650628-1.261522 2.511388.04006 2.511393.04006v.342492.342491l-2.480808-.0016c-2.411219-.0016-2.511716.01068-3.582786.43616-.606097.240764-3.02189 1.164575-5.368438 2.052911-2.346544.888337-4.679258 1.80886-5.183805 2.045608-.504548.236749-1.152054.430453-1.438905.430453h-.521545l.04512-.623539zm-7.950837.167858c0-.109443.381996-.144901 1.173717-.108947.873116.03965 1.173719.0061 1.173719-.131181 0-.101463-.09458-.18448-.210186-.18448-.115603 0-.252094-.132043-.303316-.29343-.05122-.161386-.180014-.293429-.286205-.293429-.10619 0-.227603-.132043-.269808-.29343-.07034-.268981-.20012-.29343-1.557615-.29343-.999454 0-1.480883-.05368-1.480883-.165112 0-.114367.378669-.145238 1.232076-.100445.977414.0513 1.216769.02478 1.158021-.128317-.05389-.140429-.446988-.192984-1.443489-.192984-.843519 0-1.408012-.06242-1.469883-.162527-.07142-.115559.265274-.147358 1.165082-.110037.696038.02887 1.265516.01618 1.265505-.0282-.00008-.301971-.423092-.396174-1.459877-.325112-.70536.04835-1.243279.01653-1.415991-.08376-.220574-.128079-.04197-.162653.85852-.166186.657243-.0026 1.137039-.06637 1.137039-.151177 0-.08679-.531966-.146715-1.302469-.146715-.978763 0-1.347859-.05469-1.485111-.220072-.119514-.144005-.446423-.220072-.945784-.220072-.636781 0-.882733-.08502-1.485393-.513502l-.722253-.513501h2.741898 2.741894l.788046.696895c1.845289 1.631846 4.657473 4.191678 4.657473 4.239534 0 .02853-.957314.05187-2.127365.05187-1.456223 0-2.127362-.05119-2.127362-.16225zm11.297034-.120723c.12104-.07035 2.514448-.992782 5.318685-2.049836l5.098619-1.921917h2.115082c1.163301 0 2.219524.04008 2.347162.08905.29804.11437.314698 1.126878.02253 1.369359-.115251.09565-1.645349.666878-3.400211 1.269396-3.147071 1.080519-3.21487 1.096404-4.962151 1.162623-4.575459.173405-6.744532.200377-6.53971.08132zm-11.810536-.4506c-.05715-.09247.289019-.146715.936328-.146715.564853 0 1.067808.06602 1.117678.146715.05715.09247-.289019.146715-.936328.146715-.564853 0-1.067808-.06602-1.117678-.146715zm-.03668-.547021c.302599-.03165.797761-.03165 1.100361 0 .302598.03165.05501.05755-.550182.05755-.605198 0-.852779-.0259-.550179-.05755zm5.905266-1.815273c-1.371783-1.054645-2.642699-2.055441-2.824258-2.22399-.324571-.301311-.330109-.36525-.330109-3.811352v-3.504901l1.157857.03061c.95262.02518 1.232185-.02139 1.577182-.262712.23063-.161325.600887-.337215.822792-.390866.221907-.05365.408968-.178818.415693-.278147.04427-.653994.11183-.883215.294355-.998761.113804-.07204 2.996332-.131999 6.405615-.133234l6.198698-.0023v2.171378c0 1.49323.05498 2.226362.176063 2.347435.127244.127245 1.161569.176058 3.730575.176058h3.55452l.308057.39163c.283697.360666.30484.548216.267397 2.37209-.02924 1.424079-.09218 1.997575-.22405 2.041389-.100867.03351-.183393-.03654-.183393-.155672 0-.347782-.332435-.39471-2.796101-.39471h-2.33196l-4.074808 1.402969c-2.241148.771611-5.190804 1.794947-6.554788 2.274077-1.363985.479133-2.618395.870111-2.787579.868844-.169185-.0013-1.429978-.865198-2.80176-1.919845zm6.31433-.351928c1.596339-.524505 3.07967-.953647 3.296293-.953647.74423 0 .866476-.333042.911695-2.483816l.04113-1.957085 1.10036-.383736 1.10036-.383735.0424-1.371889c.02737-.88542-.01805-1.444682-.128002-1.577182-.262414-.316191-5.221368-.296016-5.676964.02309-.407109.28515-.42198.849421-.03265 1.238756.161386.161386.29343.32644.29343.366786 0 .04035-.586112.07336-1.30247.07336-.978764 0-1.347859.05469-1.485111.220073-.118873.143235-.470914.226133-1.008288.23743-.840815.01768-1.977536.225603-1.412505.258372.27008.01566.28963.103436.245672 1.103048l-.04775 1.086033.661051.454813c.363577.250147.752767.454815.864868.454815.1121 0 .557775-.264087.990387-.586859.432614-.322772.840667-.58686.906787-.58686.263558 0 .0939-.381369-.390229-.877157-.280745-.287509-.553084-.735939-.605198-.996511l-.09475-.473766 1.595523-.000458 1.595522-.000457 1.134215.770741 1.134212.770742.02483 1.870614c.01364 1.028838.03143 1.95314.03951 2.054006.0083.103324-.191033.203281-.456475.228944-.412261.03986-.496756-.01517-.675903-.440145-.112593-.267096-.79187-1.020737-1.509488-1.674721l-1.30476-1.189068-1.172111.785598c-.644661.43208-1.252454.785599-1.350655.785599-.23032 0-1.698613-.862314-1.839752-1.080467-.05928-.09163-.1088-.680347-.110036-1.308252-.0017-.863583-.05437-1.161647-.216267-1.223771-.332045-.127418-1.172353.206546-1.56166.62065-.333422.354659-.353854.485849-.393493 2.526571-.02299 1.18387.01002 2.225029.07336 2.313689.316016.442227 3.074822 2.259493 3.430305 2.259493.214603 0 1.696283-.429141 3.292623-.953646zm-2.068917-5.133063c-.05673-.302374-.299245-.773124-.538933-1.046113l-.435795-.496345h.50865c.503609 0 .510522.0088.697091.887958.134713.634796.143346.933046.03028 1.046112-.113065.113066-.18756.0015-.261292-.391612zm-.532829-2.914376.04471-.682087h-1.777471-1.777472l.04553.543986c.04252.507902.08736.554132.675939.696895.34672.0841 1.105969.146244 1.68722.1381l1.056816-.01481zm-3.01569.247749c-.100866-.0407-.183393-.200542-.183393-.355204 0-.25838.119072-.281203 1.467147-.281203.880288 0 1.467147.05869 1.467147.146714 0 .08069-.256003.146715-.568895.146715-.326698 0-.646651.09369-.751538.220072-.17485.210683-1.030697.284217-1.430468.122906zm-31.986436 8.753336c-.103595-.165884-.342143-.293431-.548794-.293431-.201049 0-.365543-.06602-.365543-.146714 0-.08652.521653-.146715 1.271528-.146715.699339 0 1.227481.04405 1.173646.09788-.05384.05383-.246399.114355-.427918.134489-.18152.02013-.375104.04211-.430186.04884-.05508.0067-.142058.144269-.19328.305656-.05123.161386-.138823.29343-.194668.29343-.05584 0-.183998-.132044-.284785-.29343zm53.562169-1.503827c-.06529-.100866-.151705-1.421408-.19205-2.934534-.06915-2.593286-.05798-2.751129.194671-2.750901.147424.000131.461025-.192747.696896-.428619l.428863-.428857v-2.701056c0-1.485581.03351-2.734592.07452-2.775581.041-.04099.321582-.03447.623536.01448l.549014.089.04157 1.749225c.03184 1.340928-.01353 1.886847-.194339 2.338827-.172978.432323-.275602 1.491448-.384699 3.970396-.170059 3.864285-.220112 4.041008-1.144478 4.041008-.316156 0-.628232-.08253-.693514-.183393zm-34.574313-.633664c-.574502-.720016-.427559-.765152.170783-.05246.266011.316847.43041.576084.365333.576082-.06507-.000003-.30633-.235633-.536116-.523625zm-19.352013-.178579c-.786757-.02309-1.430468-.09939-1.430468-.169546 0-.108485 2.921396-.04174 3.05409.06977.130515.109682-.327444.137825-1.623622.09978zm8.422101-.706879c-.582435-.407953-.26563-1.160539.446065-1.059647.260149.03688.348624.155716.38343.515016.05863.605209-.35514.876883-.829495.544631zm.558844-.271707c.221895-.267368.07775-.519928-.296756-.519928-.178333 0-.284771.100536-.284771.268977 0 .480421.287952.604684.581527.250951zm-8.756446.105624c.385727-.03032.979921-.02996 1.320432.000885.340512.03077.02492.05558-.701321.05513-.726238-.000458-1.004838-.02562-.619111-.05594zm4.910516.0045c.18156-.03497.478658-.03497.660216 0 .18156.03497.03301.06358-.330108.06358s-.511667-.02861-.330108-.06358zm1.68722.0024c.141212-.0369.372288-.0369.513502 0 .141212.0369.02567.0671-.256752.0671-.282426 0-.397963-.03019-.25675-.0671zm-17.349041-.346377c.000108-.353023.500463-.43281 2.714247-.43281 1.505332 0 2.41996-.05785 2.521605-.159497.114855-.114856.18709-.114856.258074 0 .06771.109556 1.590488.159497 4.863306.159497 5.291919 0 5.487983-.03205 5.487983-.897161 0-.350661.06128-.423271.357235-.423271.655487 0 1.118125.27725 1.337081.801286.431892 1.033665 1.155491.950664-8.66329.993724-4.881947.02141-8.876255.0026-8.876241-.04177zm17.84289-.726181c-.142956-.894002-.529398-1.197996-1.454906-1.144507-.726791.042-.7652.06487-.812759.483756-.02745.241816-.126486.488388-.220071.547934-.09359.05955-2.31916.109278-4.94572.110513-3.625982.0017-4.820323-.0419-4.961499-.181147-.148971-.146937-.223644-.132352-.375626.07336-.167281.226421-.474617.256751-2.601644.256751-1.680345 0-2.465358.0534-2.588012.176057-.216273.216272-.228425.04922-.02418-.332417.140693-.262889.329337-.283784 2.56204-.283784h2.410164l.617993-.916967c.339895-.504333.68897-.965474.775719-1.024758.08675-.05928 2.435472-.107349 5.219385-.106814 4.676769.000886 5.108841.0224 5.682164.282654.358263.162633.745566.486799.916418.76703.339911.55752.391053 1.471735.09603 1.716585-.162824.13513-.218925.05458-.295492-.424244zm1.413442-.106191c-.363103-.04506-.476822-.13068-.476822-.359004 0-.229573.06017-.274101.25675-.190027.141213.06039.438311.140971.660217.179064.386645.06637.59797.501003.220072.45262-.100866-.01291-.397964-.0501-.660217-.08265zm-.0873-.895743c-.344692-.380883-.300644-.860756.103303-1.125433.546208-.357889 1.11415-.0467 1.118787.613004.0049.687949-.769437 1.012605-1.22209.512429zm.903572-.502393c.02696-.141458-.05573-.297391-.183763-.346522-.302365-.116027-.675617.196187-.568439.475485.112341.292753.690724.19359.752202-.128963zm4.509085.359786c-.238257-.02996-.508832-.157905-.60128-.284335-.09245-.12643-.241088-.184755-.330313-.129612-.290651.179631-.909292-.06854-.909292-.364766 0-.152638.09903-.277525.220072-.277525.121041 0 .220073-.06602.220073-.146715 0-.08069-.09903-.146714-.220073-.146714-.185502 0-.220072-.334184-.220072-2.127363 0-1.79318.03456-2.127364.220072-2.127364.121041 0 .220073-.09903.220073-.220072 0-.121039-.09197-.220072-.204377-.220072-.229345 0-.427553-.395239-.300943-.600098.143823-.232712.522621-.144616.78815.183297.358691.442966.597458.224964.597458-.545503v-.651557h.660215c.558466 0 .660217.04443.660217.288266 0 .158548-.133892.359925-.297538.447506-.163646.08758-.255227.227699-.203513.311374.06049.09787.144586.101577.235775.01039.09119-.09119.268442-.02433.496942.187434.351298.325572.355193.359164.355193 3.063259 0 1.648033-.05592 2.734077-.140777 2.734077-.07743 0-.291998.150874-.476824.335277-.237019.23648-.463696.319229-.769238.280816zm-1.033954-3.550388c0-.78266-.06285-1.390173-.146715-1.417968-.09127-.03025-.146715.505763-.146715 1.418383 0 .912898.05542 1.448488.146715 1.417968.08383-.02802.146715-.635999.146715-1.418383zm1.657877 1.291089c.103238-.103238.176057-.598813.176057-1.198169 0-1.262133-.18033-1.185874-.203376.086l-.0167.921437-.476822.04597c-.262253.02528-.476822.107813-.476822.183393 0 .199368.790259.168762.997659-.03864zm.02934-3.345095c0-.322772-.06602-.586859-.146715-.586859-.08069 0-.146714.264087-.146714.586859 0 .322773.06602.586859.146714.586859.0807 0 .146715-.264086.146715-.586859zm-.733572-1.027003c0-.08069-.06602-.146714-.146714-.146714-.0807 0-.146715.06602-.146715.146714 0 .08069.06602.146715.146715.146715.08069 0 .146714-.06602.146714-.146715zm3.88794 6.64441c-.242078-.03327-.517821-.161417-.612762-.284754-.104546-.135817-.284941-.188602-.457446-.133851-.344052.109198-1.057155-.138577-1.057155-.36732 0-.09024.132043-.198611.293429-.240815.161388-.0422.29343-.135056.29343-.206337 0-.07128-.132042-.129603-.29343-.129603-.279939 0-.293429-.09781-.293429-2.127363 0-2.029554.01349-2.127364.293429-2.127364.161388 0 .29343-.09133.29343-.202961 0-.111628-.132042-.23749-.29343-.279693-.175559-.04591-.293429-.200121-.293429-.383899 0-.409247.576954-.41392.924949-.0075.357167.417139.542198.236815.542198-.528403v-.651555h.806932c.44381 0 .806931.05712.806931.126929 0 .06981-.139571.304364-.310156.521228-.170586.216864-.260579.440338-.199986.496608.0606.05627.141252.01496.179242-.09181.05081-.142775.161913-.106904.420059.135609.34562.324695.350985.371179.350985 3.041973v2.71224l-.466569.416552c-.256614.229105-.471183.406662-.476823.394571-.0056-.01209-.20832-.04921-.450399-.08249zm-1.04199-3.312949c.102358-1.26153.03397-1.717716-.257461-1.71744-.116155.000109-.159396.439758-.140693 1.430468.03368 1.784031.02265 1.682352.172568 1.589695.06942-.0429.17093-.629127.225586-1.302723zm1.791402.959945c.22765-.29989.272824-1.884262.05752-2.017328-.09252-.05718-.146716.291907-.146716.944987v1.035662h-.5135c-.282427 0-.513503.06602-.513503.146714 0 .253057.908563.163489 1.116198-.110035zm-.0782-2.864605c-.006-.0585-.011-.304434-.011-.546512 0-.24208-.06602-.440145-.146714-.440145-.08069 0-.146715.269589-.146715.599085 0 .362048.0624.578285.157718.546512.08674-.02891.152767-.100437.146714-.15894zm-.744578-1.426801c0-.08069-.06602-.146714-.146714-.146714-.08069 0-.146715.06602-.146715.146714 0 .08069.06602.146715.146715.146715.08069 0 .146714-.06602.146714-.146715zm7.777164 6.62721c-.281721-.02691-.560202-.126075-.618845-.220376-.05865-.0943-.257286-.176671-.441425-.183043-.891076-.03083-.995019-.06687-.995019-.344998 0-.176665.1242-.307657.330108-.348162l.330109-.06494-.330109-.109094c-.321977-.106407-.330108-.16107-.330108-2.219346 0-2.012442.0136-2.110252.293429-2.110252.163016 0 .29343-.09781.29343-.220071 0-.12104-.124343-.220073-.276318-.220073-.263358 0-.515952-.479258-.343488-.651721.169314-.169314.538637-.07143.85624.226948.441931.415172.643854.246594.643854-.537531v-.651557h.733574c.619883 0 .733574.0427.733574.275533 0 .151545-.148549.375403-.330108.497464-.18156.122061-.279493.274261-.217627.338222.06186.06396.182619.04616.268345-.03957.110006-.110007.260361-.05902.511055.17332.351793.326031.355093.355007.344601 3.026581l-.0106 2.697398-.466232.36709c-.341195.268643-.603598.353972-.978449.318174zm-1.059765-3.679549c-.02303-.680219-.108397-1.258761-.189697-1.285648-.0938-.03103-.128632.373613-.09531 1.107332.02935.646246-.01643 1.285015-.103771 1.448225-.204726.382538-.01061.570325.238038.230276.132041-.180576.17945-.652387.150742-1.500185zm1.762713 1.424437c.103239-.103238.176058-.598813.176058-1.198169 0-.562162-.04952-.972011-.110036-.910775-.06052.06124-.110036.517885-.110036 1.014777v.903439l-.553253.04572c-.304288.02514-.514962.107672-.468163.183393.121588.196734.856801.170248 1.06543-.03838zm.02934-3.345095c0-.322772-.06602-.586859-.146714-.586859-.08069 0-.146715.264087-.146715.586859 0 .322773.06602.586859.146715.586859.08069 0 .146714-.264086.146714-.586859zm-.761696-1.038006c-.02892-.08675-.115293-.157719-.191952-.157719-.07666 0-.163036.07097-.191951.157719-.02892.08674.05746.157718.191951.157718.13449 0 .220868-.07097.191952-.157718zm-4.471169 6.382179c-.05776-.150528-.198236-.203478-.403282-.152015-.490238.123042-.966018-.05805-.966018-.367683 0-.151975.09903-.276319.220073-.276319.121039 0 .220071-.06602.220071-.146715 0-.08069-.09903-.146714-.220071-.146714-.185501 0-.220073-.334184-.220073-2.127363 0-1.79318.03457-2.127364.220073-2.127364.121039 0 .220071-.09903.220071-.220072 0-.121039-.09197-.220072-.204375-.220072-.192233 0-.382484-.297874-.382484-.598859 0-.253998.668274-.134818.924948.164957.357167.41714.5422.236816.5422-.528402v-.651557h.806931c.443811 0 .806931.05712.806931.126928 0 .06981-.139569.304364-.310156.521228-.170586.216864-.266028.438426-.212095.492359.05393.05393.156941.0028.228906-.11365.11145-.180327.144394-.176404.222244.02647.05027.131.218875.271519.374678.312262.267541.06996.282936.227707.277071 2.838716l-.0062 2.764636-.517466.330108c-.60852.388195-1.49036.442087-1.621967.09912zm-.484315-3.081633c.08697-1.29499.04033-1.675798-.205202-1.675434-.112796.000161-.166282.472126-.166282 1.467287 0 1.766983.257115 1.911046.371484.208147zm1.742988 1.054075c.225858-.27214.377435-1.614598.220183-1.950066-.08739-.186431-.148129.04153-.202714.760815l-.07794 1.027003-.476822.04597c-.262252.02528-.476823.107813-.476823.183393 0 .215374.824977.160772 1.014111-.06712zm.01289-3.316615c0-.322772-.06602-.586859-.146715-.586859-.08069 0-.146714.264087-.146714.586859 0 .322773.06602.586859.146714.586859.0807 0 .146715-.264086.146715-.586859zm-.733573-1.002551c0-.191033-.17441-.318082-.316287-.230398-.151734.09378-.0209.352661.178232.352661.07593 0 .138055-.05502.138055-.122263zm5.721874 3.954801c0-2.01371.142014-2.636032.429181-1.880727.07436.195583.241464.396383.371341.446222.201265.07723.230012.334798.194633 1.743907l-.04151 1.653292-.476823.04597-.476823.04597zm-19.867758 1.131285c-.03378-.107577-.101356-.638105-.150164-1.178953-.07916-.877223-.05774-.999945.198416-1.13704.157937-.08452.327078-.15368.375871-.15368.182761 0 .0076 2.542598-.179382 2.604547-.100823.0334-.210959-.0273-.244741-.134874zm1.387035-.335883c-.236928-.285481-.07004-.519928.370114-.519928.402247 0 .461941.210575.148535.523982-.260753.260752-.299126.260453-.518649-.004zm.984143-.336535c-.117964-.268922-.177908-1.357499-.179763-3.264403-.0024-2.433214.03473-2.92674.248095-3.30108.241794-.424207.251089-.306003.256751 3.264402.0033 2.037501-.02877 3.704547-.07111 3.704547-.04235 0-.15663-.18156-.253969-.403466zm-1.557735-3.191045c0-2.746321.03668-3.440442.166706-3.154367.229994.506038.233011 5.814574.0036 6.308733-.134702.290133-.17029-.369087-.17029-3.154366zm-12.782763 2.251782v-1.049298l1.577183.09961c.86745.05479 2.584296.161683 3.815215.237545 1.230916.07586 2.365448.206124 2.521183.28947.155734.08335.419536.151538.586227.151538.26139 0 .303074.09081.303074.660216v.660216h-4.401439-4.401441zm57.805607.902604c-.201732-.06461-1.96781-.124047-3.924617-.13209-3.094855-.01272-3.557835-.04394-3.557835-.239896 0-.196718.439012-.222901 3.463639-.20657 1.957639.01057 3.522728-.04039 3.599544-.117206.07475-.07475.117134-.889589.09419-1.810757l-.04172-1.67485-3.631191-.03924c-2.253313-.02435-3.631185-.09394-3.631185-.183394 0-.09124 1.64245-.144151 4.474797-.144151h4.474797v2.043357c0 2.032724-.0021 2.044941-.386572 2.347436-.420752.330963-.401779.327766-.93386.157363zm-48.562579-.806931c0-.349921.03993-.366786.868289-.366786.477559 0 .972722-.04008 1.100361-.08905.180931-.06943.232072.0114.232072.366787v.455837h-1.100361c-1.075907 0-1.100361-.0082-1.100361-.366788zm4.108013.146715c0-.122262.130414-.220072.29343-.220072s.293429.09781.293429.220072c0 .122261-.130413.220073-.293429.220073s-.29343-.09781-.29343-.220073zm36.825398-1.532687c0-1.28013.03449-1.483123.27414-1.611355.150774-.08069.309976-.110879.35377-.06708.07629.07628 2.222707.115652 2.526456.04634.0807-.01842.990316-.04011 2.021385-.04821l1.874664-.01473-.04074 1.540504-.04074 1.540504-3.48447.03934-3.484474.03934zm4.658831.90915c.04427-.134269-.198227-.183394-.905376-.183394-.897489 0-1.120246.09015-.861659.348735.176666.176672 1.701275.03401 1.767035-.165341zm-46.797198-.338816c-.138222-.08057-1.821773-.248444-3.741225-.373043-4.881149-.316853-4.443561-.201634-4.443561-1.170006 0-.512434.06664-.827824.183395-.868013.100866-.03472 1.932966-.200594 4.071333-.368612 2.138368-.168017 4.482134-.362087 5.208372-.431267 1.233876-.117536 1.38054-.101246 2.237399.248511l.916967.374292v1.013067 1.013067l-.811112.358713c-.662202.292855-1.046034.357894-2.090686.354251-.703764-.0024-1.392661-.07039-1.530882-.15096zm2.792898-.773703c.02745-.141517-.04619-.244593-.174735-.244593-.272556 0-.437058.239167-.30806.447889.132709.214727.425647.09138.482795-.203296zm.02593-1.483009c0-.116277-.05267-.243965-.117042-.283749-.187692-.116-.517197.15309-.406598.332045.14557.235537.52364.200667.52364-.0483zm2.567508 1.238416c.04987-.08069.152801-.146714.228731-.146714s.138055.06602.138055.146714c0 .08069-.102929.146715-.228731.146715-.125801 0-.187928-.06602-.138055-.146715zm18.999551-.422179c0-.07081.09384-.20663.20853-.301815.171106-.142005.194365-.118899.129602.12875-.07711.29489-.338132.428485-.338132.173065zm.916968.02366c.221905-.03361.585024-.03361.80693 0 .221906.03362.04035.06112-.403466.06112-.443811 0-.625372-.0275-.403464-.06112zm1.569279-.05685c.65779-.262711.778373-.43441.511883-.728879-.299349-.330778-.150945-.869766.23948-.869766.241188 0 .283544.106062.283544.710024 0 .618481-.04818.731974-.37369.880288-.20553.09364-.519132.16608-.696896.160965-.311073-.0089-.309733-.01468.03568-.152632zm-21.485803-.131499c-.04987-.08069.01225-.146714.138055-.146714.125802 0 .228732.06602.228732.146714 0 .08069-.06212.146716-.138056.146716-.07593 0-.17886-.06602-.228731-.146716zm19.810459-.153141c.05206-.08423.02506-.236993-.06-.339477-.08505-.102485-.140255-.666603-.122667-1.253596.03457-1.153721.08724-1.056776-1.043073-1.919631l-.392096-.299313.91201.03623c.57273.02275.97935-.0311 1.093025-.144783.09956-.09956.400321-.181016.668363-.181016.39554 0 .640486.15314 1.300257.812911.647607.647605.803588.893738.767063 1.210396-.0369.319884-.131778.407182-.48599.447148-.671025.07571-.848475.295442-.761609.943082.06698.499389.03367.580772-.287767.702981-.504054.191643-1.708189.180317-1.587517-.01493zm1.335498-.412681c-.2257-.249394-.226663-.288865-.01143-.467494.180981-.150201.224038-.40834.187093-1.121704-.04798-.926476.06514-1.120964.436173-.749931.09683.09683.176058.294898.176058.440145s.06602.264086.146715.264086c.08069 0 .146714-.163359.146714-.363019 0-.253608-.13046-.430483-.432857-.586859-.784624-.405744-.85626-.33374-.776534.780523.06165.861694.03538 1.018359-.1849 1.102892-.141219.05419-.347427.02329-.458239-.06868-.151028-.125341-.201477-.124822-.201477.0021 0 .09311.10409.209226.231309.258045.127223.04882.290643.244813.363156.43554.07252.190728.242745.346777.378288.346777.230754 0 .23075-.01734-.00007-.272393zm1.668181-.149786c0-.457113.0795-.781585.220073-.898253.326954-.271349.28161-1.202531-.07336-1.506464-.366364-.313689-.378066-.865613-.02513-1.185019.363726-.329169.394923-.317914.761105.27458.576773.933237.616464.949755 2.282153.949755h1.530025v.497806c0 .627375.12798.675912 1.782222.675912.724942 0 1.452869.07213 1.617613.160308.216621.115931.34391.115931.459842 0 .209487-.209489 5.621166-.222281 5.750141-.01359.09516.153971-2.523167.195171-9.414536.148139-3.562331-.02431-3.703433-.01443-3.997976.280116-.167925.167924-.305317.457167-.305317.642761 0 .333713-.242279.689559-.469488.689559-.06455 0-.117372-.322024-.117372-.715608zm-22.740782.06405c0-.125801.06602-.22873.146715-.22873.0807 0 .146716.06212.146716.138056 0 .07593-.06602.178859-.146716.228731-.08069.04987-.146715-.01225-.146715-.138057zm-13.497757-1.53539v-1.04077h4.401441 4.401442v.581204c0 .54816-.03128.589404-.55018.725445-1.038034.272142-1.289941.300031-4.071334.450748-1.53317.08308-3.101182.189997-3.484475.237598l-.696894.08655zm13.497754.866521c0-.08069.06602-.146714.146715-.146714.0807 0 .146716.06602.146716.146714 0 .0807-.06602.146715-.146716.146715-.08069 0-.146715-.06602-.146715-.146715zm-1.429452-.190052c-.309843-.138694-.323764-.208233-.238019-1.189026.05009-.572942.148663-1.104436.219055-1.181094.283567-.308813.432695.202995.39104 1.342046-.04234 1.157739-.04792 1.173171-.372076 1.028074zm38.951746-.200542c.100867-.0407.265922-.0407.366788 0 .100865.0407.01836.074-.183394.074-.201733 0-.28426-.03331-.183394-.074zm.770257-.04955c.300991-.194518 7.335731-.194518 7.335731 0 0 .09407-1.355611.145909-3.777901.144468-2.493372-.0015-3.703079-.0506-3.55783-.144468zm-41.682135-.255018c-.944083-.04954-.967004-.06018-.898706-.417467.0679-.355218.102638-.365304 1.115506-.323897 1.019271.04167 1.046581.05283 1.091844.446204.03099.269283-.01781.393909-.146715.37473-.106226-.0158-.629096-.05161-1.161929-.07957zm34.14662-.111767c-.04645-.121039-.1908-.220072-.320783-.220072-.189802 0-.216199-.09388-.134067-.476823.143971-.671253.162791-.687538.755567-.653799.338076.01924.5474.110405.574802.250334.02371.12104.08712.36862.140931.550181.07361.248372.03797.330107-.143954.330107-.132985 0-.279792.09903-.326238.220072-.04645.12104-.169357.220072-.27313.220072-.103772 0-.226679-.09903-.273128-.220072zm.427744-.526285c.05422-.08772.02235-.235721-.07081-.328881-.128034-.128035-.201343-.11767-.300308.04246-.139835.22626-.06932.445923.143143.445923.07117 0 .173756-.07178.227973-.159498zm5.917126.612704c-.0093-.04753-.02955-.15244-.04505-.233133-.01545-.0807-.08576-.274799-.156183-.431346-.08562-.190312-.06982-.304042.04771-.343208.09665-.03222.268865-.151714.3827-.265548.267831-.267829.377234-.256213.784398.08327.285377.237942.317565.353138.21224.759599-.110625.426917-.183242.481173-.666502.497955-.298291.01036-.549967-.02005-.559275-.06758zm.798127-.549742c.132679-.132679-.196129-.506537-.357683-.406691-.202284.125016-.153037.503228.06553.503228.107588 0 .239054-.04344.292151-.09654zm-38.099804.169894c.04645-.121039.20943-.220072.362183-.220072.152751 0 .277732.09903.277732.220072 0 .136188-.138052.220073-.362182.220073-.261664 0-.338745-.06108-.277733-.220073zm27.901032-.476823-.04554-.550179-1.638255-.04137-1.638257-.04137-.466786-.727424-.466785-.727424.279762-.478283.279764-.478283 2.485495.0422c4.885012.08294 10.795117.606018 15.836539 1.401619l1.173721.185228v.547712c0 .63447.21824.824564.95364.83065.734677.0061 1.17372.149772 1.17372.384142 0 .16716-.620444.20296-3.517483.20296h-3.517485l.0874-.437039c.07429-.371426.03178-.458173-.28284-.577808-.203641-.07742-.413577-.210864-.466523-.296536-.155191-.251103-.411982-.176026-.959238.280449-.45729.381429-.493291.461305-.328872.729628.183239.299013.167054.301298-2.12736.300162l-2.312003-.0011-.183393-.394892c-.100864-.21719-.183392-.513772-.183392-.65907 0-.1453-.04951-.270337-.110035-.277861-1.169733-.145421-1.72706-.0082-1.631624.401703.01607.06901-.02178.307038-.08411.528944-.110432.39315-.140831.403466-1.188927.403466h-1.075596zm-27.99469-.248094c0-.116278.07052-.254998.156716-.308269.08619-.05327.123374-.183748.08262-.289947-.04076-.1062.02077-.229493.136712-.273984.147324-.05653.210808.02557.210808.272628 0 .194438.0671.394993.149107.445678.238198.147214.01262.365307-.377839.365307-.214007 0-.358127-.08508-.358127-.211413zm-.340981-.581174c-.08284-.215873.012-.38113.218719-.38113.06724 0 .122262.132042.122262.293429 0 .336406-.223487.393887-.340981.0877zm1.221268-.1524c0-.206495.06602-.375446.146715-.375446.08069 0 .146716.128148.146716.284771 0 .156624-.06602.325574-.146716.375446-.08321.05142-.146715-.07183-.146715-.284771zm-13.876801-.341009c-.245493-.166449-1.234816-1.694096-1.234816-1.906719 0-.1039402.173808-.2550643.386238-.3358304.397949-.1512992 9.172488-.1865732 9.912546-.03985.331455.06572.402764.1650312.440144.6130114.04282.513219.06885.536364.651121.578875.924624.06751 1.398591-.405937 1.488205-1.4865707.04888-.5895026.12983-.8317899.277884-.8317899.162985 0 .199303.2001922.165225.910766-.04209.8775606-.06508.9257696-.630538 1.3222746-.85811.601713-1.803514.69945-6.774907.700404l-4.427472.000813-.288514-.366787c-.158683-.201734-.32853-.366787-.377437-.366787-.209037 0-.06256.41376.250644.707999.335164.31487.404089.318921 5.318409.312565 4.945771-.0064 5.117294-.02037 6.286666-.51218.572574-.24081.05523.253264-.555669.530674-.554248.251684-1.03341.275013-5.667095.275906-2.783913.00052-5.133198-.04753-5.220634-.106814zm12.849799-.327862c-.353131-.353131-.366885-.563412-.06504-.994358.277005-.395483.812533-.422558 1.142659-.05777.338116.373613.302857.846719-.08326 1.117167-.430946.301847-.641227.288094-.994358-.06504zm.851367-.533005c.02459-.171588-.05247-.347125-.172666-.393246-.2793-.107177-.591514.266072-.475487.568439.12508.325953.594494.199073.648153-.175193zm10.690192.728625c-.27856-.27856.07221-.342335 1.882838-.342335 1.803909 0 2.368228.113307 1.748577.351091-.315862.121207-3.509152.113508-3.631415-.0088zm4.303632-.122263c.145046-.174771.571553-.220072 2.071969-.220072 1.581592 0 1.889328.03585 1.889328.220072 0 .185231-.328029.220072-2.07197.220072-1.825118 0-2.05021-.02622-1.889327-.220072zm-4.548157-.64654c0-.07317.194213-.565904.431585-1.0949611l.431587-.9619221 3.330212-.04208 3.330212-.04208.492929 1.0819992c.271111.595099.492929 1.106767.492929 1.137039 0 .03027-1.914627.05504-4.254728.05504-2.447084 0-4.254726-.05653-4.254726-.133038zm5.049658-.102731c.286845-.110072.319478-1.1229093.04356-1.3519025-.105954-.08793-.957327-.1679592-1.94397-.1827252l-1.755456-.02627-.405488.6889997c-.223019.37895-.367671.750189-.32145.824977.09201.148873 4.007878.190797 4.382806.04692zm-3.940539-.394369c.05501-.143371.512933-.183097 1.866009-.161885 2.128753.03337 2.013172.02159 2.013172.205164 0 .09055-.756492.146716-1.976044.146716-1.557174 0-1.960588-.04028-1.903137-.189995zm.408746-.7269733c-.03742-.06052.728119-.1100361 1.7012-.1100361.973079 0 1.769235.06013 1.769235.1336221 0 .1590933-3.371652.1361782-3.470435-.02359zm5.345081.9820063c.407109-.28515.42198-.8494241.03265-1.2387576-.35313-.3531314-.56341-.3668844-.994358-.06504-.389772.2730073-.429822.8809386-.08326 1.2638826.297209.328413.615716.340578 1.044976.03992zm-.98867-.347841c-.191777-.358341-.06142-.7067364.308337-.8240945.548107-.1739632.948163.5195965.536921.9308385-.264067.264068-.674548.21223-.845258-.106744zm-19.995569.170004c-.168196-.03631-.256751-.193409-.256751-.455476 0-.2200241-.07923-.4792694-.176058-.5761005-.130466-.1304662-1.554899-.1760572-5.500559-.1760572-5.165607 0-5.329969.0088-5.50775.2934283-.232863.3728734-.55281.3797054-.55281.01181 0-.2453933-.0989-.2780483-.768804-.2538373-.598511.02163-.779633.08401-.817689.2816243-.04197.2179413-.233355.2538364-1.353398.2538364-1.394508 0-1.608266-.1157182-1.608266-.8706441 0-.3004223.04421-.3030733 5.053-.3030733 3.210407 0 5.086064-.0535 5.143673-.1467152.05666-.09168 1.511464-.1467141 3.87826-.1467141h3.787584l.09268.4633835c.186696.93347-.57233 1.8060612-1.413109 1.6245392zm2.53083-.578936c0-.1700482.115782-.2663563.330107-.2745833.18156-.007.437127-.06028.567928-.1184682.153213-.06816.269012-.0245.325503.1227072.06516.1698202-.0078.2285043-.284143.2285043-.204504 0-.49953.06835-.655611.151877-.231309.123793-.283784.103445-.283784-.110037zm12.551583-5.0668197c-.179716-.5815606-.178266-1.4408356.0028-1.6796569.177743-.2343952.200958-.1779552.205096.4986486.0034.5511736.07148.8003499.245337.897649.132369.07408.194494.2094012.138055.3007193-.137593.2226313-.520634.2113873-.591322-.01736z" fill="#273839" stroke-width=".146715"/></svg>