<svg height="128" viewBox="0 0 108.67971 33.866667" width="410.758" xmlns="http://www.w3.org/2000/svg"><path d="m66.365834 30.265493c-.164176-.234395-.298503-.489799-.298503-.567562 0-.07776 1.725873-.166426 3.835274-.197026 2.469176-.03581 3.832933.01266 3.828696.136116-.0036.105465-.168543.385905-.366502.6232-.346638.415515-.47699.431446-3.530194.431446-3.058688 0-3.180771-.01499-3.468771-.426174zm-.182111-1.219417c-.06401-.166822-.116392-2.742125-.116392-5.722894 0-5.006877.02671-5.443748.350668-5.736931.296083-.267952.825894-.316358 3.40363-.310971 4.303065.009 3.915854-.601869 3.915854 6.177639v5.451405l-.488406.222533c-.308891.140741-1.675712.222533-3.718683.222533-2.768699 0-3.24691-.04334-3.346671-.303314zm5.190744-2.700743 1.02074-.703012v-3.323818-3.323819l-1.294338.0048c-1.172419.0043-1.380133.0677-2.205169.673002l-.910831.668248v3.225993c0 1.774297.05753 3.283519.127837 3.353828.07031.07031.603302.127836 1.184426.127836.903211 0 1.204771-.102053 2.077335-.703012zm-3.00609-2.746693v-2.874445l.910831-.673405c.767625-.567529 1.046498-.665804 1.773722-.625063l.862893.04834.05282 2.904263.05283 2.904261-.751558.595247c-.638454.505663-.913336.595244-1.826547.595244h-1.074991zm-2.876307 2.778566c0-.991726-.02806-1.054646-.470363-1.054646-1.037091 0-1.421066-.407087-3.238459-3.433375-2.505277-4.171739-2.428188-3.989852-2.421469-5.713347.0044-1.109689.05626-1.409025.201282-1.160045.161505.277287.474161.335569 1.800191.335569h1.604739l.414787.671138c.383072.619824.486895.671138 1.357916.671138h.943129v5.369108c0 2.953009-.04315 5.369107-.09588 5.369107s-.09588-.474592-.09588-1.054647zm-.0208-6.471691.0208-.719076h-1.13664-1.136638l-.685023-1.127669c-.376762-.620217-.685021-1.224242-.685021-1.342277 0-.118034-.137958-.214608-.306573-.214608-.259695 0-.241439.109944.119411.719077.234288.395492.95099 1.649589 1.592667 2.786882.641678 1.137292 1.342974 2.257719 1.558438 2.489839l.391748.422033.123005-1.147563c.06764-.631158.132367-1.471146.143815-1.866638zm17.970305 4.346716c-.06401-.166822-.116393-.418478-.116393-.559233 0-.457187-2.100864-4.012197-2.691521-4.554498-.530859-.487394-.695713-.527323-2.177123-.527323-.917547 0-1.943192-.120107-2.399026-.280935-.558236-.196956-.938297-.226931-1.271429-.100274l-.475171.18066.09932 2.196689c.06263 1.385141.02754 2.241048-.09496 2.31676-.128612.07949-.189724-1.034207-.180801-3.294876.0074-1.878221.07668-3.254192.153922-3.057713.224091.569987 2.202126 1.272673 3.582523 1.272673 1.161467 0 1.199712-.0163 1.494093-.636657.339921-.716335.172896-1.605383-.458981-2.443081-.430048-.570129-.709316-.358521-.405847.307521.336191.737856.232933 2.580464-.144603 2.580464-.07207 0-.235907-.507787-.364094-1.128415-.334551-1.619722-.793916-2.130653-1.918933-2.134337-.493303-.0016-1.026347-.08658-1.184544-.188817-.189731-.122614 1.435137-.186881 4.773906-.188817l5.06154-.003-.520639.482511c-.286349.265378-.598429.434431-.693508.375669-.379263-.234397-2.101669.901371-2.101669 1.385856 0 .228187 1.360379 2.832706 3.012108 5.766839l.461669.820111.990415-.866391c.85353-.746649 1.027879-.828921 1.261514-.595285.413487.413486.174694.754046-1.413875 2.016423-1.486299 1.181143-2.069457 1.400645-2.277901.857445zm-3.1091-6.327875c.184127-.47983.138244-.655456-.171238-.655456-.17897 0-.287631.181101-.287631.479385 0 .535558.279732.642893.458869.176071zm-45.015771 3.932718c-.434945-.342128-.505244-.542231-.505244-1.438153v-1.040729h2.396923 2.396922l-.0072.814954c-.007.785352-.04624.83759-1.082181 1.438153-1.298783.752937-2.427766.83261-3.199233.225775zm3.329832-1.505241c0-.734649-.892489-1.037286-1.366736-.46345-.240686.29123-.226575.295647.165174.05169.375566-.23388.469617-.22548.763269.06817.29365.29365.302049.387704.06817.763266-.243961.39175-.239545.405862.05169.165175.175142-.144743.318437-.407925.318437-.584848zm-2.301046.01216c0-.627164-.939524-1.098831-1.235347-.620178-.0591.09563.04969.132775.241771.08255.427544-.111806.886986.395591.729595.805746-.06622.172572-.03461.250263.07442.182879.104256-.06443.189558-.267381.189558-.450993zm47.462198-.194627c-.623254-1.120665-1.348606-2.45891-1.611897-2.973877l-.478712-.936304.615318-.549788c.802951-.717436.992777-.693414.992777.125634 0 .512237.176203.871286.729298 1.486093.63654.70756 2.338763 3.341196 2.338763 3.618472 0 .05511-.326781.362804-.726179.683769l-.726179.583574zm-51.22793 1.413995c-.09459-.246488-.902859-.28763-5.65072-.28763h-5.540345l-.02424-.719077-.02423-.719077-.201341.719077-.201341.719077h-1.979596-1.979596l-.0058-1.006707c-.0047-.818225-.04483-.93959-.214108-.648219-.114553.197169-.166472.729394-.115375 1.182724.0788.699116.04581.807551-.217337.714328-.593587-.210284-.789626-.484625-.789626-1.105019 0-.743598.389104-1.118562 1.160741-1.118562.310774 0 .565043-.06255.565043-.139008 0-.229625.978551-.40216 1.216804-.214543.225941.177922 13.639852.448841 14.075563.284282.710018-.268159.01222-.442076-1.773723-.442076-1.788704 0-2.013706-.03745-2.016032-.335569-.0015-.184563-.05465-.529719-.118243-.767015l-.115613-.431446h11.623469 11.623471v.862892.862892h-.961372c-.528754 0-1.144053-.107861-1.367329-.239692-.324768-.191754-.423319-.191754-.492763 0-.110741.305794-.523354.305794-1.041268 0-.324767-.191754-.423319-.191754-.492763 0-.05699.157386-.503822.239692-1.301243.239692-.800794 0-1.241851-.08164-1.294919-.239692-.06259-.186415-.196638-.177805-.603076.03874-.430903.229577-.591772.235225-.916876.03219-.282799-.17661-.452952-.187562-.601779-.03874-.297211.297212-2.570712.269819-2.672115-.03219-.06393-.190409-.17564-.191286-.543301-.0043-.261452.132992-1.40159.258138-2.620447.28763-1.999495.04838-2.157592.0259-2.15723-.306839.000384-.307084-.04392-.322274-.305778-.104951-.244465.202888-.292486.555431-.238272 1.749264l.0679 1.495166h-.822393c-.554126 0-.858398-.09383-.932767-.287631zm67.996152-1.501666c-1.047834-.482715-4.814533-3.244443-4.965059-3.640355-.08767-.230579-1.327328-1.217321-2.754807-2.19276l-2.595412-1.773525h-1.251244c-.688183 0-1.289349-.06472-1.335922-.143815-.04657-.0791-.01129-.337966.07838-.575261.156961-.415313.251555-.431447 2.529731-.431447 2.317444 0 2.395011.01396 3.728992.671139l1.362319.671139h3.425288c2.789814 0 3.504364.05538 3.851474.298504.4142.290118.42617.397857.42617 3.835075v3.536573l-1.00671-.01557c-.55369-.0086-1.22563-.116428-1.4932-.239693zm1.88415-3.94935c.0431-1.382856.00058-1.758515-.19176-1.694761-.17238.05714-.26387.619237-.3025 1.85858-.0431 1.382856-.00058 1.758515.19175 1.694762.17239-.05714.26388-.619237.30251-1.858581zm-1.68529-.142714v-1.471023l-.866264-.830022-.86625-.830023h-2.111945c-1.788691 0-2.130593.04859-2.233779.317498-.119664.311838-.01772.426897 1.251316 1.41241l.512462.397967-.613677-.296922c-.759251-.367357-.852129-.367806-1.31515-.0064-.355539.277551-.34981.285519.12787.177801.278418-.06278.820031.02091 1.22188.188812.86262.360426.930157.367624.752521.0802-.169852-.274826-.06308-.21043 2.022142 1.219524.89117.611133 1.732494 1.111151 1.869604 1.111151.18287 0 .24927-.39187.24927-1.471024zm-2.109294.995536c0-.114556-1.459263-.866789-1.681492-.866789-.08951 0-.330242.130757-.534962.290572-.355809.27776-.350323.285638.124395.178673.273137-.06154.790873.01639 1.150522.173171.713827.31119.941537.365455.941537.224373zm3.451574-3.276318c0-.353279-.45228-.850286-.77376-.850286-.45991 0-.47451.149425-.0594.608101.29701.328188.83318.484039.83318.242185zm-10.498523-1.015862c-.342761-.293422-.6232-.63011-.6232-.748196s.366729-.247733.814953-.288104c.706845-.06366.66869-.07785-.28763-.106903-1.372578-.0417-1.454604.271419-.287631 1.097966 1.021188.72329 1.200245.744412.383508.04524zm11.960853 1.876499c.0468-3.312001.004-6.0468811-.0997-6.4237532-.20492-.7421819-.11983-.7831042.81565-.3922395 1.24839.5216104 1.51963 1.9835144.86338 4.6531977-.1259.51219-.24244 2.403202-.25898 4.202251-.0165 1.799049-.0936 3.373826-.1713 3.499507s-.38633.22851-.6859.22851h-.54468zm-51.12657 3.08292c0-.368469.127837-.383508 3.259816-.383508 1.792897 0 3.259814.03608 3.259814.08019s.05238.216684.116393.383507c.103418.269505-.259935.303314-3.259815.303314-3.248371 0-3.376208-.01452-3.376208-.383508zm20.855277-.403801c-.194867-.109975-1.769341-.16481-3.787365-.131904-3.813796.06219-3.685469.10815-3.242877-1.161466l.21051-.603875h3.307215c3.006828 0 3.337191.03313 3.637261.364698.21492.237483.308896.601209.26941 1.042734-.052.581508-.108116.651241-.394154.489813zm-44.73495-.373447c-.06866-.111091-.06528-.715116.0075-1.342276l.132339-1.140291h2.000606c1.601424 0 2.022629.05739 2.11098.287631.06071.158196.22001.28763.35401.28763.134001 0 .351057-.129434.482349-.28763.356365-.429395 9.99834-.429395 10.354705 0 .30577.368431.694979.368431.836359 0 .09246-.240957.671441-.287631 3.567961-.287631h3.457586l-.0021 1.198461-.0021 1.198461-.491157-.6232c-.65094-.825964-.979566-.787552-1.230357.143816-.187227.695303-.264111.766334-.822344.759738-.497333-.0059-.716912-.153446-1.141311-.767015-.672023-.971571-1.033129-.969544-1.29616.0073l-.206536.767015-1.19107-.0073c-1.168424-.0072-1.201063-.02172-1.716572-.767016-.672022-.971571-1.033129-.969544-1.29616.0073l-.206536.767015-2.341592-.0073-2.341594-.0073-.525501-.759738c-.672075-.97157-1.033182-.969543-1.296213.0073-.199953.742571-.232271.766783-1.014098.759738-.721169-.0065-.863782-.08856-1.333065-.767015-.672022-.971571-1.033129-.969544-1.296159.0073-.177355.658645-.279996.765986-.726467.759738-.385295-.0054-.656013-.204016-1.045434-.767015-.672023-.971571-1.03313-.969544-1.29616.0073-.21854.811596-.285315.889274-.485709.565029zm3.170262-.102847c0-.0622-.194151-.275045-.431446-.473005l-.431446-.359926.415467-.0064c.228505-.0035.45899.101482.512184.233313.05319.131831.10353.04554.111856-.191754.01327-.37804-.0798-.431445-.751876-.431445-.421859 0-.767016.0514-.767016.114213 0 .283616.821123 1.228062 1.067703 1.228062.151015 0 .274574-.05088.274574-.113078zm17.903997-.318367c.217717-.812408.147896-.91083-.646154-.91083-.421858 0-.767015.0514-.767015.114214 0 .270203.815339 1.228062 1.045338 1.228062.138715 0 .30424-.194151.367831-.431446zm-.837908-.239692c-.199437-.240306-.17175-.287631.168276-.287631.233929 0 .406985.122305.406985.287631 0 .158196-.07573.28763-.168275.28763-.09255 0-.275694-.129434-.406986-.28763zm-6.423752-.479385c.07687-.124377-.832715-.191753-2.588677-.191753s-2.665547.06738-2.588676.191753c.06908.111779 1.148741.191754 2.588676.191754s2.519594-.07998 2.588677-.191754zm-12.712032 1.205856c-.351009-.0672-.413941-.168375-.311749-.501209.193466-.630104.266852-.644077.664511-.12652.384528.500465.472562.781928.230841.738037-.0791-.01436-.341721-.064-.583603-.110308zm2.647892-.199148c.0015-.184563.08854-.465003.193165-.6232.161192-.243726.247903-.214456.568061.191754.512159.649814.483295.767015-.1889.767015-.421151 0-.574475-.0899-.572326-.335569zm4.071833.200242c-.462679-.08912-.540627-.361847-.235345-.823442.161192-.243726.247903-.214456.568061.191754.394255.500221.487612.7854.242545.740902-.0791-.01436-.337966-.06351-.575261-.109214zm6.703042-.0011c-.35101-.06719-.41394-.168374-.31175-.501207.186331-.606862.224232-.613249.644487-.108611.397414.477212.497645.764937.250866.720128-.0791-.01437-.341721-.064-.583603-.110307zm4.410338 0c-.35101-.06719-.413942-.168374-.31175-.501207.193467-.630105.266852-.644077.664512-.126521.384527.500466.472562.781928.230841.738038-.07909-.01437-.341721-.064-.583603-.110307zm3.259814 0c-.351008-.06719-.41394-.168374-.311748-.501207.18633-.606862.22423-.613249.644486-.108611.397413.477212.497644.764937.250865.720128-.0791-.01437-.34172-.064-.583603-.110307zm1.686187-.635228v-.771652l3.211877.05257 3.211876.05257.05951.719077.05952.719076h-3.271387-3.271392zm11.082702-.571838c-.321495-.564988-.351763-.57407-1.917539-.57536l-1.590887-.0013-.456163-.669828-.456164-.669828h-3.239519-3.239517l.314106-.479385.314104-.479384 4.723853.0024 4.723853.0024.433209.668765c.408134.630053.494153.668764 1.486092.668764h1.052883v1.054642 1.054646l-.91083-.0012c-.810454-.0011-.946829-.06447-1.237481-.575259zm9.896163-.379055c-.142376-.143889-1.33303-.193975-3.699882-.155637-3.461165.05607-3.490823.05304-3.595929-.366688-.214776-.857698-.150839-.871872 3.769382-.83563 2.049522.01894 3.755943.06399 3.792042.100089.0361.0361.03834.381627.005.767836-.04409.510279-.118038.644209-.270594.49003zm.7267-.290861c.0039-.316394.04689-.422613.0955-.236043s.04542.445438-.0071.575262c-.05252.129823-.0923-.02282-.08839-.339219zm-21.669775-.335569.06009-.6232 3.163938-.01775c3.300266-.01851 3.443074.01597 3.448633.832703.0029.43116.000792.431446-3.364905.431446h-3.367845zm-26.114308-1.677846v-.767015h.95877.958769v.767015.767015h-.958769-.95877zm2.301046-.09588v-.862892h1.821661 1.821661v.862892.862892h-1.821661-1.821661zm4.02683 0v-.862892h4.9856 4.985598v.862892.862892h-4.985598-4.9856zm10.162952 0v-.862892h2.121208 2.121205l-.619681.862892-.619683.862892h-1.501525-1.501524zm4.022894.100848c.336282-.424592.677087-.771986.757345-.771986.08026 0 .302101.172578.49299.383508.190889.210928.527848.382235.748798.38068.37769-.0027.374282-.017-.05695-.239692-.252273-.130276-.576738-.416491-.721032-.636032-.24138-.367252-.139213-.562724 1.277819-2.4448613.847096-1.1251323 1.581976-2.0456948 1.633065-2.0456948.05109 0 .571045 1.0137146 1.155457 2.2526988.882178 1.8702633 1.029164 2.3260133.865803 2.6845533-.130255.285876-.376406.439374-.728201.454098-.344015.0144-.409347.05389-.185253.111981.1904.04936.312736.190352.271863.313326-.05139.154619-1.007239.239909-3.098722.276498l-3.024405.05291zm4.366335-.02033c-.227945-.132766-.443192-.132766-.671138 0-.273767.159454-.211965.195451.335569.195451s.609336-.036.335569-.195451zm12.103022.111236c-.344958-.58466-.492374-.671139-1.144057-.671139-.411441 0-.748074-.08629-.748074-.191754s-.266059-.191753-.591241-.191753c-.325183 0-.562479-.07799-.527322-.173304.03516-.09532.452218-1.130156.92681-2.2996413l.862891-2.1263362.958769-.0000948c.868442-.0000863.999059.059088 1.386409.6281057.235203.3455112.709795.9345383 1.054646 1.3089503l.627007.6807483 8.916551-.08542c7.239729-.06936 8.973483-.1354563 9.219282-.3514913.519544-.4566308 2.002756-.3320236 2.868656.241002.445833.2950383.985348.4891933 1.290227.4643133.288193-.02352 3.759832-.102768 7.714755-.17611l7.19077-.13335-6.96828-.04333c-6.890269-.04285-6.972044-.04798-7.304716-.4588163-.39135-.4832976-.952514-.3694258-1.107912.224816-.09489.3628733-.140525.3529083-.882464-.192721-.613095-.4508756-.981685-.57538-1.703387-.57538h-.920994v-1.1505198c0-1.372169-.02038-1.3683583 3.451569-.6456075.369126.07684 3.857274.1712775 7.751438.2098598 7.995536.079218 7.456976-.036679 7.692646 1.6554295.0714.512628.0688 1.6640393-.006 2.5586893l-.1355 1.626637-.51911-.497335-.5191-.497336h-3.465074-3.465078l-1.472717-.671139c-1.421007-.647573-1.553279-.671137-3.76725-.671137-2.261419 0-2.297685.0069-2.512955.479384-.173455.380694-.360122.479989-.90672.482321-.897051.0038-1.35257.272384-1.022263.602691.130949.130949.238089.436555.238089.679123v.441033h-5.56086c-5.312141 0-5.56086-.0161-5.56086-.360027 0-.753847-.35658-.808631-4.726498-.726162-4.597246.08676-4.724546.0978-4.600211.399072.378649.917474.406338.878872-.630442.878872-.923312 0-1.010832-.04251-1.381732-.671139zm18.050266-.379855c0-.560671-.463182-.730781-1.741166-.639469-.764326.05461-.853467.112312-.908186.587878l-.06068.527323h1.355013c1.314737 0 1.355013-.01414 1.355015-.475732zm-16.372267-.993403c-.16223-.299352-.298415-.483619-.302637-.409483-.01298.227933.433126 1.118229.517861 1.033493.04385-.04385-.05299-.324659-.215224-.62401zm9.181499-.448399c-.07149-.115669-1.411959-.191754-3.378325-.191754-2.124381 0-3.218538.06679-3.141305.191754.07149.115669 1.411958.191754 3.378324.191754 2.124381 0 3.218538-.06679 3.141306-.191754zm-7.957784 1.629908c.131293-.158197.44387-.287631.694617-.287631.277414 0 .455906.112611.455906.287631 0 .202737-.205015.28763-.694617.28763-.595697 0-.660622-.04096-.455906-.28763zm1.725784 0c0-.235488.330243-.287631 1.821661-.287631 1.49142 0 1.821662.05214 1.821662.287631 0 .235487-.330242.28763-1.821662.28763-1.491418 0-1.821661-.05214-1.821661-.28763zm4.218584 0c0-.38189 1.138761-.386122 1.641196-.0061.34271.259212.292408.282015-.634489.28763-.769724.0046-1.006707-.06161-1.006707-.281532zm-68.7678247-.968615c-.558198-.851917-.221881-.942385 3.772635-1.014824l3.6339707-.0659v-.461423-.4614233h-3.8350767c-3.525736 0-3.834839-.02707-3.83214-.335569.0071-.8050796.121647-.824623 5.0933711-.8685784l4.7790136-.042253v1.4381527c0 .790985.07054 1.632305.156738 1.8696l.156737.431446h-4.8023456-4.8023471zm10.2633927.178079c-.292231-.352116-.463519-2.7305623-.222102-3.0840321.139707-.2045525 1.244906-.3405541 2.212023-.272204.314967.022264.31856.06648.04794.5898038-.367362.7103983-.374186 1.8619213-.01512 2.5502603l.275078.527323h-1.019794c-.706817 0-1.099049-.09549-1.278028-.311151zm38.78266-2.13371-1.196989-2.4448611 2.719885-.053362c1.495934-.029352 2.75637-.016879 2.800968.027721.1083.1082992-2.015211 4.3310221-2.342615 4.6584261-.141319.141318-.375589.256941-.520601.256941-.147338 0-.791755-1.078638-1.460648-2.444861zm3.230945 2.253107c0-.105465-.129434-.191754-.287631-.191754s-.289109-.06472-.290918-.143815c-.0017-.0791.442865-1.114569.988164-2.3010463l.991451-2.15723h2.388043c1.833145 0 2.366021.055696 2.293272.2396922-.05213.1318307-.501781 1.2535909-.999237 2.4927991l-.904462 2.253108h-2.089341c-1.265059 0-2.089341-.07565-2.089341-.191754zm-39.69696-.774341c-.115042-.214959-.182795-.754266-.150562-1.198462l.0586-.8076273 6.18406-.05059 6.184061-.05059v1.2490563 1.249056h-6.0335c-5.874945 0-6.038994-.01027-6.242665-.390834zm12.659672-2.1978428c0-2.4608405.01895-2.5886765.383508-2.5886765.243466 0 .383507-.1278359.383507-.3500828 0-.3627768.745741-1.1839479 1.075193-1.1839479.103169 0 .183897-.4530182.179395-1.0067079-.0062-.758184.06088-1.0067071.271581-1.0067071.155856 0 .333912.2547921.402008.5752615.06723.3163934.308064.9014706.535185 1.3001705.558791.980934.531608 1.2878449-.114378 1.2914418-.290027.00159-.656756.086583-.814953.1888176-.324302.2095808-.66658.2024196 10.067075.210615 10.440418.00797 9.875321.025011 9.875321-.2977307 0-.2108476.315715-.2926996 1.294339-.3355686l1.294338-.056697.05796-1.0067079c.03188-.5536888.150305-1.0067071.26317-1.0067071.130892 0 .118759-.1041704-.0335-.2876307-.211173-.2544471.350247-.2876307 4.866244-.2876307h5.104955v.767015.7670157h-4.889726-4.889722v.5752615.5752613l1.294339.032751c.711885.01801 2.275317.015937 3.474293-.00464 1.336428-.022909 2.276645.042876 2.429835.17001.181016.1502303.359711.1387925.648414-.041506.326679-.2040154.470387-.2040154.797067 0 .286756.1790823.468023.1912166.646296.043267.287976-.239 3.872271-.2247661 4.353048.017285.217475.1094906.35237.06556.431445-.1405058.157867-.4113981.162168-.4031375-.268462-.5157503-.593429-.1551847-.491626-.8370284.143815-.9632264.67453-.1339615 3.483935.071445 3.602567.2633947.04947.080037.03728.282743-.02707.4504571-.08517.2219396-.375465.3049353-1.066586.3049353-.522263 0-.901247.078188-.842184.1737518.05906.095564.284974.1273112.50203.070546.289953-.075824.423007.00529.501557.3056325.09996.3822497.229311.4088353 1.989164.4088353 1.784939 0 1.889092-.022308 2.014519-.4314465.24447-.7974388.457159-.9273243.969161-.5918477.36179.2370533.41703.3627644.248593.565718-.274144.3303236-.08839.8410833.305892.8410833.164905 0 .361765-.1553404.437463-.345201.118901-.2982112.228994-.3177878.808776-.143815.474168.1422814.671137.3131691.671137.5822668 0 .5339186.668397.6297951.802972.1151805.07958-.3043186.257077-.4001848.740941-.4001848.34996 0 .844207-.07905 1.098327-.1756659.25412-.096616 1.165775-.1274315 2.025898-.068474l1.563862.1071896v.7396149.7396147h-1.810344c-1.000054 0-1.863389.085827-1.928856.1917543-.06783.1097567-1.056636.1917536-2.312363.1917536h-2.193856v-.4793843-.479385h-2.594693c-2.129506 0-2.614486-.051565-2.70507-.2876307-.162238-.4227844-3.520913-.4227844-3.520913 0 0 .4166451-2.724108.4144382-3.070126-.00246-.20787-.2504691-1.134569-.2832265-6.780822-.2396929l-6.54005.050428-1.785426 2.3489844-1.785423 2.3489833h-9.290333-9.290334zm3.331889 1.7773208c.160822-.255378.135814-.405214-.108394-.649421-.574439-.5744383-1.431465.176311-.913598.800304.298156.359257.742001.293729 1.021992-.150883zm1.917538 0c.160822-.255378.135814-.405214-.108394-.649421-.574439-.5744383-1.431465.176311-.913598.800304.298156.359257.742001.293729 1.021992-.150883zm1.917539 0c.160822-.255378.135813-.405214-.108395-.649421-.574439-.5744383-1.431465.176311-.913598.800304.298156.359257.742001.293729 1.021993-.150883zm1.917537 0c.160823-.255378.135814-.405214-.108394-.649421-.574439-.5744383-1.431465.176311-.913598.800304.298157.359257.742001.293729 1.021992-.150883zm1.917539 0c.160821-.255378.135813-.405214-.108395-.649421-.574439-.5744383-1.431465.176311-.913598.800304.298156.359257.742002.293729 1.021993-.150883zm1.917538 0c.160822-.255378.135814-.405214-.108395-.649421-.574438-.5744383-1.431465.176311-.913597.800304.298156.359257.742.293729 1.021992-.150883zm1.917538 0c.160822-.255378.135813-.405214-.108395-.649421-.574439-.5744383-1.431465.176311-.913597.800304.298156.359257.742001.293729 1.021992-.150883zm1.917538 0c.160822-.255378.135813-.405214-.108395-.649421-.574438-.5744383-1.431465.176311-.913598.800304.298157.359257.742002.293729 1.021993-.150883zm1.917538 0c.160822-.255378.135814-.405214-.108394-.649421-.574439-.5744383-1.431466.176311-.913598.800304.298156.359257.742001.293729 1.021992-.150883zm-14.765043-2.1092976c.160822-.2553783.135813-.4052137-.108395-.649421-.574439-.5744382-1.431465.1763115-.913597.8003044.298156.3592569.742.2937289 1.021992-.1508834zm1.917538 0c.160822-.2553783.135813-.4052137-.108395-.649421-.574439-.5744382-1.431465.1763115-.913597.8003044.298156.3592569.742001.2937289 1.021992-.1508834zm1.917538 0c.160822-.2553783.135814-.4052137-.108395-.649421-.574438-.5744382-1.431465.1763115-.913597.8003044.298156.3592569.742001.2937289 1.021992-.1508834zm1.917538 0c.160822-.2553783.135813-.4052137-.108395-.649421-.574438-.5744382-1.431465.1763115-.913597.8003044.298156.3592569.742001.2937289 1.021992-.1508834zm1.917538 0c.160822-.2553783.135813-.4052137-.108395-.649421-.574438-.5744382-1.431465.1763115-.913597.8003044.298156.3592569.742001.2937289 1.021992-.1508834zm1.917538 0c.160822-.2553783.135814-.4052137-.108394-.649421-.574439-.5744382-1.431466.1763115-.913598.8003044.298156.3592569.742001.2937289 1.021992-.1508834zm1.917539 0c.160822-.2553783.135813-.4052137-.108396-.649421-.574438-.5744382-1.431464.1763115-.913597.8003044.298156.3592569.742001.2937289 1.021993-.1508834zm1.917537 0c.160822-.2553783.135813-.4052137-.108394-.649421-.574439-.5744382-1.431465.1763115-.913598.8003044.298156.3592569.742001.2937289 1.021992-.1508834zm1.917538 0c.160823-.2553783.135814-.4052137-.108393-.649421-.574439-.5744382-1.431467.1763115-.913599.8003044.298157.3592569.742001.2937289 1.021992-.1508834zm20.781154-.2335087c-.500958-.5519226-.910831-1.1034945-.910831-1.2257152 0-.3593197 2.614743-.2972139 2.753897.065415.08994.2343849.552843.2876307 2.500577.2876307h2.390206l.06068.5273228.06068.5273229 2.348984.053841c2.190684.05021 2.348984.079288 2.348984.4314468 0 .367063-.148557.377028-5.321168.35692l-5.321168-.02068zm2.450037.2615358c.18363-.5785655-.529783-1.2535162-1.48668-1.4065303-1.143292-.1828197-1.291744.110306-.51386 1.0146401.772756.8983714 1.777332 1.0951594 2.00054.3918902zm-1.520337-.398444c-.540367-.7714838.16425-1.0377317.836552-.3161006.512548.550155.493378.7308585-.07753.7308585-.262901 0-.596001-.1820189-.759017-.4147579zm11.006973.9098252c0-.1495712-.05238-.4084385-.116392-.5752618-.101403-.2642528.13319-.3033133 1.821662-.3033133 1.065931 0 1.938054.039085 1.938054.086854 0 .047768-.10014.3066377-.222535.5752614-.212568.4665407-.294127.4884077-1.821661.4884077-1.252624 0-1.599128-.05893-1.599128-.271948zm-15.292365-.6798206c-.237295-.3008724-.431446-.5981103-.431446-.6605284 0-.062415.632127-.1134876 1.404728-.1134876 1.250444 0 1.454191.052652 1.855086.4793843l.450359.479385h-.992195c-.545708 0-.992194.086289-.992194.1917535 0 .4027498-.882124.1461509-1.294338-.3765068zm-38.971027-.150816c.0058-.6655472.276824-.8360761 1.115534-.701961.677113.1082753.799069.1972.799069.582653 0 .4180163-.07769.4548773-.958769.4548773-.786396 0-.958242-.060334-.955834-.3355693zm52.000187-2.3469695c-.664708-.075496-1.290989-.219693-1.391733-.3204382-.195449-.1954476.904167-1.7908688 1.234325-1.7908688.202931 0 2.000983 1.1117704 2.369251 1.4649531.129947.1246239.34567.2708696.479384.3249888.185729.075172.175221.146416-.04452.3018153-.315302.2229854-.822568.2267323-2.646713.019554zm-2.578578-.8001479c-.290028-.1059271-.527323-.2612111-.527323-.3450764 0-.2605567 2.057459-1.9248512 2.379567-1.9248512.359035 0 .361955.016952.114859.6668633-.197307.5189543-1.175758 1.837331-1.343903 1.8107919-.05274-.00833-.333173-.1018005-.6232-.2077276z" fill="#273839" stroke-width=".191754"/></svg>