<svg height="128" viewBox="0 0 88.232712 33.866667" width="333.478" xmlns="http://www.w3.org/2000/svg"><path d="m39.326308 30.214924c-1.557084-.442825-1.576842-.45492-1.678194-1.027443-.06313-.35662-.110953-.435877-.124391-.206165-.02234.381782-.272237.47234-.647021.234462-.162846-.103358.05037-1.145543.941098-4.599966.633405-2.456482 1.426911-5.436589 1.763345-6.62246.336435-1.18587.619309-2.290597.628612-2.45495.01407-.248607.115456-.282034.603334-.198918 1.405706.239476 5.559502 1.37548 5.533432 1.513314-.01577.08338-.07778.374117-.137806.646079-.08275.37495-.06641.434338.0676.245691.268359-.377765.234924-.0552-.234683 2.264105-.433837 2.142638-2.45041 9.355342-2.746508 9.823468-.207788.328508-.274953.608613.911552-3.801597 1.19224-4.431517 1.950281-7.615947 1.868724-7.850251-.03579-.102817-.120022.07428-.187184.393556-.30726 1.460646-3.144012 11.876618-3.273829 12.020835-.273875.304256-.721524-.157739-.666629-.687995l.05068-.48952-1.938967-.542711c-1.066432-.298491-2.040837-.581801-2.165344-.62958-.124507-.04778-.226376-.01409-.226376.07488 0 .08896.466471.289758 1.036601.446219 2.998928.822997 2.802198.729393 2.746054 1.306556-.03033.311808-.151399.536765-.299674.55683-.136831.01852-.95782-.167981-1.824418-.414437zm3.197086-2.311672c.146444-.52452.214702-1.004581.151686-1.066803-.06302-.06222-1.084836-.338292-2.270707-.613492-2.608937-.605444-2.545953-.635346-2.639879 1.253326-.01083.217776.416906.393135 1.976454.810296 1.094651.292806 2.108604.540919 2.25323.551359.184231.0133.342667-.266522.529216-.934686zm-1.455597.290457c-.273662-.07667-1.068121-.263096-1.765461-.414275l-1.267891-.274872.08825-.692133c.04854-.380671.106914-.714839.129721-.742595.04172-.05077 3.938151.793384 4.020444.871025.02424.02287-.01634.332334-.09017.687698-.144271.694381-.325587.786293-1.114897.565152zm2.174006-3.607578c.151758-.52452.308155-1.039295.347548-1.143943.04097-.108838-.270345-.299289-.727398-.444997-1.193534-.380496-3.340976-.940365-3.606886-.940365-.152232 0-.321753.387362-.487486 1.113939-.139749.612667-.222334 1.145697-.183518 1.184511.08413.08413 3.887148 1.148694 4.179128 1.169844.111477.0081.326854-.41447.478612-.938989zm-1.261796.298948c-.622627-.196661-2.180922-.625721-2.672012-.73571-.427542-.09576-.430649-.107191-.248671-.915191.101353-.450022.228391-.862333.282308-.91625.08673-.08673 3.458558.835638 3.610738.987724.09695.09689-.331387 1.737875-.449873 1.723488-.05932-.0072-.294438-.07203-.52249-.144061zm2.392892-4.097204c.152399-.606702.217449-1.161389.144555-1.232639-.177774-.173768-3.686187-1.144785-4.141216-1.146158-.283515-.000887-.413573.166028-.613125.786731-.474245 1.475122-.590443 1.343288 1.802253 2.044743 1.185872.347656 2.240351.636224 2.343288.641261.102935.005.311846-.487235.464245-1.093938zm-2.724605.0045c-.866598-.222711-1.665627-.436214-1.77562-.474449-.150758-.0524-.134637-.265421.06549-.865357.146009-.437709.282489-.817442.303284-.84385.05595-.07105 3.626621.823302 3.760053.941788.06278.05574.03808.45588-.0549.889179-.197937.922468-.124862.911255-2.298311.352689zm3.380011-3.16727.1053-.699916-.954839-.268348c-.52516-.147591-1.472873-.418455-2.106026-.60192-1.103222-.319673-1.160236-.3212-1.368314-.03664-.11942.163315-.217125.533022-.217125.821571 0 .509441.03482.534481 1.202458.864584 2.424252.685366 3.029045.825259 3.130061.724007.05675-.05688.150571-.418387.208485-.803342zm-2.53461-.145443c-.948955-.216681-1.744693-.413658-1.768309-.437727-.112546-.114707.150826-.941484.318152-.998745.104564-.03578.98152.186116 1.948792.49311 1.668555.529567 1.75468.579075 1.680692.966125-.09139.478055.01906.47921-2.179327-.02276zm-5.804155 10.167301c-.03303-.58092 2.404525-9.740722 2.944151-11.063428.287643-.705066.207044-.08984-.133517 1.01913-.178034.579739-.811578 2.919951-1.40787 5.200472-1.274056 4.872615-1.380269 5.239374-1.402764 4.843826zm25.802321-5.160779c-.06037-.15739.416949-.568189 1.457631-1.254407 1.591002-1.049096 1.883129-1.450504 1.530572-2.103115-.09094-.168333-.725205-.926818-1.40947-1.68552l-1.244121-1.37946.357892-.357895.357892-.357896 1.401719 1.39443c1.539537 1.531531 1.797127 1.970513 1.718432 2.928459-.05067.616454-.124952.69008-1.86284 1.845752-1.874265 1.246363-2.156082 1.364778-2.307707.969652zm-.02858-1.410577c0-.801805.01379-.823548.829277-1.310508.456102-.272346 1.01587-.529682 1.24392-.571858l.414641-.07668-.3948-.02258c-.217144-.01242-.899162.249828-1.515601.582781-1.0099.545471-1.658924.651663-1.653746.270581.0013-.07128.560737-.448177 1.243924-.837553 1.236641-.704813 1.448867-.987221 1.013424-1.348603-.178034-.147754-.528699-.03603-1.582028.504033-.930345.477006-1.406807.640359-1.524493.522669-.117693-.117691.221243-.38658 1.084464-.860342.69061-.37903 1.255654-.759934 1.255654-.846454s-.223263-.272762-.496134-.413872c-.563012-.291145-1.173434-.20139-1.851457.27223-.498164.347985-.822883.387832-1.07839.132327-.123027-.123027-.325239-.04894-.679076.248784-.497776.418854-.538455.423983-3.362771.423983h-2.858928l-.699743-.704857c-.38486-.387688-.729558-.794648-.765994-.904355-.03644-.109706-.5067-.313812-1.045028-.453566-1.141365-.29631-1.04672-.232343-1.119671-.756743l-.05768-.414641 1.602096-.04729 1.602098-.04729-.08944.666848c-.07373.549687-.01133.769261.355153 1.249746l.444597.582896h2.619553c3.039436 0 3.168537-.05617 3.168537-1.378578 0-.759065-.01379-.778937-.823771-1.189397-.81334-.41215-.875073-.417433-4.87723-.417433-4.034734 0-4.053044-.0016-3.962481-.347916.0874-.334228.155855-.343272 1.740032-.229886l1.649052.118029.560118-.542888c.542807-.526109.620546-.54765 2.515238-.696959 1.722254-.135722 2.005584-.201715 2.378834-.554074.382269-.360875.568843-.400251 1.907343-.402543.816-.0014 1.562595-.05737 1.659106-.124392.538327-.373833.736734-.977905.736734-2.2430231 0-1.1479325-.05109-1.3680104-.434325-1.8704407l-.434334-.5694346h.75656c.815268 0 1.827831.4821606 2.106654 1.0031434.08886.1660436.161573 1.0897311.161573 2.0526385v1.7507415l-1.050454.476295c-1.137748.51588-1.82785 1.266139-1.739137 1.890742.03718.261841.310145.498358.916555.7942 1.12064.546712 1.176356.615569.743497.918758-.596568.41785-.430407.859077.860303 2.284472 1.466992 1.620075 1.697191 2.251904.984904 2.703328-.256784.162747-.855533.578142-1.33055.923099-.475021.344957-.922828.627195-.995137.627195-.07231 0-.131471-.366901-.131471-.815332zm-2.239064-8.140864c0-.312482-.110571-.331712-1.907346-.331712s-1.907346.01924-1.907346.331712c0 .312483.110571.331712 1.907346.331712s1.907346-.01923 1.907346-.331712zm1.111676 6.297715c-.07254-.277399.08737-.425056.910155-.840392.903102-.455888 1.622409-.54504 1.392201-.172551-.08032.129959-2.034699 1.34947-2.162654 1.34947-.02846 0-.0913-.151437-.139702-.336527zm-.779963-1.312245c0-.177058-.08012-.371439-.178041-.431957-.269925-.166823.367326-.546737 1.110686-.662165.449828-.06985.74264-.02321.974702.155259.182441.140305.241698.257475.13169.260376-.110013.0029-.579768.22918-1.0439.502842-.998077.588487-.995137.587968-.995137.175645zm21.437671-.462905c-.48666-.04385-.75796-.164025-.878415-.38909-.229489-.428811-.0286-.762432.238887-.396661.177639.242926.223478.245545.407915.02331.169572-.204317.157485-.278527-.06572-.403437-.23181-.129727-.155106-.254275.503092-.81688l.776592-.663814.09298-2.679486c.08698-2.5063754.113701-2.6794851.413742-2.6794851.185046 0 .289825-.087719.247627-.2073208-.040267-.1140241-.188652-.1981278-.329851-.1868953-.181038.0144022-.288784-.1933874-.365488-.704888-.226623-1.5112186-.337223-.6080957-.337223 2.7535532 0 3.441191-.0044 3.481931-.392751 3.855691l-.392751.377751.105178-3.482977c.06516-2.1574067.04211-3.6997247-.0605-4.0524881-.09113-.3132314-.141167-.5940399-.111196-.6240194.03-.029976.569813.00238 1.199625.071943l1.145112.1264509-.06259 4.8098266c-.03444 2.645403-.130317 4.940436-.213153 5.100072-.15262.294116-.344167.31095-1.921146.168844zm-1.624948-.353447c-.573212-.349553-1.070133-1.029646-1.072714-1.468122-.0025-.388391-2.200621-4.217328-2.54664-4.435593-.207083-.130626-.329828-.07989-.542993.224457-.271421.387501-.303555.391588-2.205314.280351-1.061432-.06209-1.986669-.05609-2.056099.01334-.18639.186388-4.443725.183333-4.879105-.0035-.255357-.109581-.373174-.301574-.373174-.608089 0-.38865-.05505-.43743-.415595-.368501-.228576.0437-.519979-.0072-.647563-.113069-.133424-.110734-.417839-.145866-.669499-.0827l-.43753.109814.04852-1.386222c.04005-1.1457763.09709-1.3955064.328706-1.439749.220705-.04216.293794.098313.344192.6615903l.06399.715116.02898-.6914555c.02867-.6842292.03716-.6932072.814307-.858949.87827-.1873163 1.032292-.086325 1.03656.6796612.0025.411174-.05467.4561035-.577962.4561035-.319276 0-.580499.074636-.580499.1658559 0 .091221.33728.1658566.749519.1658566.716656 0 .744947-.018175.645438-.4146405-.129948-.5177751-.0364-.5177751.725548 0 .418182.2841626.83571.4146405 1.326854.4146405.491137 0 .908659.1304771 1.326847.4146398.489869.3328755.814434.4146404 1.645939.4146404.921768 0 1.065631-.045629 1.307423-.4146404.238545-.3640669.390018-.4146398 1.241906-.4146398.809049 0 1.000526.056607 1.152582.3407273.147408.2754224.315414.3310529.876577.2902481.624448-.0453936.748417-.1315489 1.233263-.8570324.343285-.5136593.539036-1.0105606.539036-1.3683129v-.5617707h1.221391 1.22139l.271319.7104328c.149222.3907384.271313 1.1370907.271313 1.6585612v.9481266h-7.463554c-4.86511 0-7.463523.05774-7.463523.165857 0 .10811 2.595579.165856 7.454999.165856h7.455019l.04997 2.40517c.02752 1.322844.0086 2.405055-.04179 2.404913-.05048-.000142-.52719-.933199-1.059327-2.073459l-.967511-2.073201-1.096806.02788-1.096813.02789.986542.09651.986543.09651.85301 1.741488c1.11965 2.285823 1.168386 2.504883.662929 2.979731-.377119.354281-.385984.40202-.143463.772149.310404.47373.146583.500012-.533101.08553zm.919308-9.5594391c0-.197448-.239573-.2487845-1.160998-.2487845-.921419 0-1.160992.05134-1.160992.2487845 0 .1974473.239573.2487839 1.160992.2487839.921425 0 1.160998-.051337 1.160998-.2487839zm2.890654 9.6196511c.132378-.495418.414402-9.1323868.311101-9.5274128-.124812-.4772853.246999-.4317441.469937.057558.131744.2891346.130767 1.0586521-.0038 2.8023828-.101836 1.32209-.18516 3.261563-.18516 4.309941 0 1.684772-.03957 1.951611-.340476 2.29769-.303999.349589-.330983.356001-.251851.05984zm-40.705902-1.510214c-3.497405-.881364-3.33391-.82383-3.215796-1.131627.0809-.210816.723133-.256774 4.143737-.296525l4.048001-.04704-.000128.640784c-.000123.619629-.01679.63834-.504818.566713-.412676-.06056-.593185.02672-.990071.478743-.266959.304049-.506319.545521-.531911.536605-.02559-.0089-1.352648-.345358-2.949014-.74765zm13.057717-.113406c.119209-1.057615-.06665-1.143239-2.348192-1.081787-1.055889.02844-1.919652-.0042-1.919471-.07268.000166-.06842 1.042686-.124393 2.316685-.124393 2.75042 0 3.418581.204415 3.58605 1.097104.141432.753895-.0015.893169-.916138.893169h-.79912zm-26.49207.181127c-.360235-.104662-2.475685-.143565-5.575228-.102529l-4.994728.06613 1.06571-.545937 1.065713-.545937h3.972995 3.972995l.881643.497568c.795445.448922 1.026271.497816 2.360939.500108 1.016357.0018 1.401437.05286 1.230509.163316-.323585.209117-3.230414.185226-3.980548-.03272zm-13.600211-.464852c-.276426-.276427-.331712-.552854-.331712-1.65856 0-.729767.04694-1.326849.104291-1.326849.05736 0 .393433.261223.74683.580496l.642541.580497h4.820256c3.13572 0 4.937275-.06263 5.155106-.179206.184166-.09856.441486-.434423.571819-.746353.276857-.66261.730086-.764295.730086-.1638 0 .255907.176082.528729.481707.746352.434094.309102.720993.343007 2.902484.343007h2.420776v.912208.912208l-1.700026-.0028c-1.585052-.0027-1.75611-.0361-2.529307-.49474l-.829282-.491911-4.108623-.0028-4.108622-.0028-1.319487.663424c-1.102814.554484-1.483502.663425-2.318305.663425-.777677 0-1.072261-.07344-1.330532-.331713zm19.280785-.117676-.870745-.06551v-.654756-.654757h2.156131 2.156131v.41464c0 .273705-.09244.41464-.271964.41464-.149579 0-.354827.105248-.456105.233886-.210309.267125-1.435897.407984-2.713448.311862zm-20.688459-.668916c-.927057-.09449-1.080169-.279744-1.080169-1.306916v-.891901h.91221.912209v1.160993c0 .638545-.01866 1.148445-.04147 1.133111-.0228-.01533-.339059-.05822-.702786-.09529zm-7.7355593-.678791c-.0877784-.230875-.2263748-.947212-.3079918-1.59186l-.1483942-1.172086.043178 1.45124c.033136 1.113668-.00778 1.451241-.175877 1.451241-.1204784 0-.2190518-.07464-.2190518-.165856 0-.09801-.5970824-.165856-1.4595345-.165856-.9140521 0-1.5339189-.07438-1.6585627-.199027-.2582424-.258243-.2582424-1.831545 0-2.089787.1225984-.122598.723907-.199027 1.5658459-.199027.7517503 0 1.4129452-.07464 1.469323-.165856.057213-.09257.8310039-.165857 1.7512792-.165857h1.648774v1.083392c0 .595865.1119523 1.351333.2487842 1.678815.310695.743599.310038.756889-.03413.690608-.1773307-.03415-.3933081-.3946-.5787156-.965832-.2723943-.839235-.2982705-.46458-.039205.567621l.1103339.439605-1.0282275-.03085c-.9344117-.028042-1.0427894-.069157-1.1878256-.450629zm.6975904-2.195009c.2807273-.177677.9730897-.203514.7333295-.02737-.091221.06702-.1658559.271123-.1658559.453565 0 .236327-.1063062.328033-.369692.318917-.2889779-.01-.3298074.03526-.1870114.20732.2383384.28718.3925401.277656.7143176-.04412.3731717-.373172.2442-1.131302-.2037017-1.197419-.7109894-.104949-1.0337824.244371-1.0112187 1.094319l.020762.781981.1166559-.718987c.064161-.395443.2227479-.786135.3524171-.868205zm2.2416259 1.723502c-.145406-.426744-.2632322-1.079802-.2618352-1.451241.00266-.700747.2257622-1.248677.4266712-1.047769.09382.09382.216306 3.274907.126102 3.274907-.01461 0-.145531-.349153-.290938-.775897zm.564906-.965591v-1.575633h1.149458c1.060163 0 1.155041-.02899 1.221335-.373175.03953-.205247.08204.04684.09446.560188.01462.604427.110263 1.006128.27137 1.139836.158918.131889.248785.498695.248785 1.015444v.808973h-1.492706-1.492706zm29.854119 1.326849c0-.212117.449242-.248784 3.048033-.248784 2.507024 0 3.084678.04416 3.254503.248784.182339.219703-.173943.248784-3.048033.248784-2.78232 0-3.254503-.0361-3.254503-.248784zm6.894278-.331712-.442766-.580497h-3.160425-3.160424l-.645829.511505-.645828.511506v-1.340786-1.340785h4.561046 4.561046v1.210749c0 1.100708-.161402 1.608804-.511054 1.608804-.06215 0-.312244-.261224-.555766-.580496zm-15.394409-.206942c1.299898-.02802 3.427004-.02802 4.726902 0s.236345.05095-2.363451.05095-3.663349-.02293-2.363451-.05095zm-15.009988-.319556c-.205246-.143173-.373176-.325846-.373176-.405941 0-.08009 1.936113-.145626 4.302473-.145626 2.689408 0 4.340905-.06218 4.404978-.165856.05638-.09122.657866-.165856 1.336639-.165856 1.349919 0 1.548873.182828.90242.82928-.317261.317261-.546675.331333-5.265935.323013-4.204334-.0074-4.989424-.04721-5.307399-.269014zm31.80293-.717423c0-.74276.03893-.831627.373177-.851768.205246-.01237 1.2688-.06835 2.36345-.124392l1.990275-.101904v-.580496-.5804962h-2.156131-2.156131l.05658-1.0583445c.04654-.8707072-.0049-1.1415141-.29025-1.5274525-.190755-.2580096-.346827-.5467658-.346827-.6416802 0-.1163692 1.968833-.172572 6.045312-.172572h6.045313l.423079.5546874c.351693.4610953.423117.7339479.423305 1.6170963l.000163 1.0624095-2.695384-.050715c-2.215273-.041678-2.754473-.00571-3.027099.2020452-.301136.229459-.06035.253243 2.612238.258032 1.848599.0033 2.944002.06699 2.944002.171131 0 .09122-.149274.165857-.331714.165857-.184284 0-.331709.11057-.331709.248783 0 .20246-.274181.248784-1.472477.248784-1.283432 0-1.501692.04239-1.700028.330183-.192693.279604-.545128.359349-2.300752.520589-1.882293.172874-2.128856.234105-2.677566.664954-.509624.400155-.75765.474547-1.582174.474547-.946339 0-.977597-.014-.971269-.435088.0091-.607366-.474385-.89656-.857853-.513092-.241238.241238-.255497.345554-.08463.619149.170826.273535.163285.329031-.04471.329031-.189656 0-.250189-.200643-.250189-.82928zm7.131817-3.4000484c0-.4843059-.100542-.7859305-.331712-.9951362-.329022-.2977616-.331713-.2896901-.331713.9951362 0 1.2848257.0027 1.2928969.331713.9951362.23117-.2092069.331712-.5108315.331712-.9951362zm-1.442481.00228c.01799-.089971-.09791-.188737-.257545-.2194806-.181546-.034968-.290249.04639-.290249.2172102 0 .2885543.490155.2905869.547794.00228zm6.306156-.1943147c.149988-.1499888-.22172-.5726231-.404349-.4597493-.228671.1413279-.173.5688821.07408.5688821.121629 0 .270251-.049111.330273-.1091328zm-10.502786-.3055337c0-.1382141-.147428-.2487839-.331713-.2487839s-.331712.1105698-.331712.2487839c0 .1382135.147427.2487839.331712.2487839s.331713-.1105704.331713-.2487839zm1.211217.00228c.01799-.089971-.09791-.1887376-.257544-.2194805-.181546-.034962-.290249.04639-.290249.2172096 0 .2885549.490155.2905868.547793.00228zm-22.357884 4.3929178c-.06747-.109166 1.601553-.165856 4.882969-.165856 3.213079 0 4.985475.05896 4.985475.165856 0 .106814-1.738228.165855-4.88297.165855-3.076407 0-4.920894-.06136-4.985474-.165855zm9.631694-.478082c-.04976-.08051-3.039574-.201677-6.644035-.269258l-6.553569-.122901v-.725878-.725878h6.717177 6.717177v.995136c0 .968385-.05063 1.149898-.23675.848753zm-25.305107-2.8292371c0-1.5864681.06407-2.5176496.178074-2.5881077.12329-.076198.161558.3530116.124391 1.3951816l-.05368 1.5052366 1.74149.046269 1.741491.046269.04938 1.0365996.04938 1.036601h-1.915261-1.91526zm1.480444 1.8375391c.215775-.403179-.138964-.911272-.577293-.826859-.334647.06445-.49741.491278-.341887.896564.130779.340804.723539.295853.91918-.0697zm2.064877-.06126c.139102-.220887.117471-.350486-.09376-.561712-.496856-.496855-1.238136.1525-.79021.692218.257889.310735.641789.254058.883966-.130506zm.76694-.381493c0-.8402572.05956-1.1061271.265523-1.1851606.390866-.1499888.558363.242406.561218 1.3147576.0025.907357-.0176.953672-.412099.953672-.399961 0-.414642-.03835-.414642-1.083269zm1.526257.04667c.04732-.993443.06837-1.0387853.505482-1.0890805l.456104-.052478v1.0890815 1.08908h-.505483-.505482zm1.824418.0017c.03961-.830211.106792-1.0458713.339626-1.0902249.252598-.048115.290249.086132.290249 1.0349339 0 .988124-.0318 1.090226-.339628 1.090226-.311253 0-.3355-.08646-.290247-1.034935zm1.625012.155899c0-.483471.08956-.9685998.199027-1.0780648.109465-.1094651.594595-.1990271 1.078066-.1990271h.879037v1.0780639 1.078064h-1.078065-1.078065zm1.792597.02253c.0381-.32934-.03785-.470101-.298208-.552735-.619617-.196659-1.070021.440419-.625581.884858.347014.347014.866856.160119.923789-.332123zm14.903596-.08334c-.06081-.06081-.110572-.211284-.110572-.334377 0-.183442.814764-.215848 4.517378-.179678 4.150095.04054 4.521918.06773 4.573208.334378.05205.270618-.24598.290248-4.406808.290248-2.454449 0-4.512393-.04975-4.573206-.110571zm-32.507819-.331782c-.060812-.06081-.1105709-.210085-.1105709-.331712 0-.1708822.4146403-.2211413 1.8244185-.2211413 1.7138474 0 1.8244184.020103 1.8244184.3317123 0 .398901-.257536.434805-.464617.06477-.137303-.245347-.157671-.245347-.2518194 0-.082133.214037-.3609423.266939-1.4068461.266939-.717427 0-1.3541695-.04975-1.4149835-.110571zm38.909343-.5111131-2.85878-.0495545-.255284-.4936619-.255281-.4936606-3.229938-.0248787c-1.776465-.0136855-3.323232-.032343-3.437258-.0414688-.123469-.0098804-.207319.1846536-.207319.4809829v.4975684l-1.534171.047684c-.843793.026229-1.53417.0059-1.53417-.045147 0-.051057.299374-.688258.665277-1.4159998l.665276-1.3231633h5.378687c3.172041 0 5.418156.063861 5.474891.1556613.05292.085614.262564.1103745.465894.055026.203328-.055351.991948-.1310665 1.752487-.1682587 1.848955-.090416 2.017254.053483 2.017254 1.7247671 0 .6700179-.05598 1.2014387-.124392 1.1809337-.06842-.0205-1.410845-.05958-2.983173-.086834zm-9.663363-2.2807965c0-.1382141-.147428-.2487842-.331713-.2487842s-.331712.1105701-.331712.2487842c0 .1382129.147427.2487839.331712.2487839s.331713-.110571.331713-.2487839zm-9.911314 1.9137788c-.203125-.3290711-.353366-.3381468-5.597648-.3381468-4.201417 0-5.38857-.045686-5.387327-.2073203.000888-.114026.379997-.7111073.84249-1.3268486l.840895-1.1195281.857536-.00526c.787303-.00483.83136-.02508.537932-.2470727-.175783-.1329878-.25886-.2985434-.184614-.3679014.07425-.069359.16831-.03281.209034.081214.05477.153372.722504.20732 2.566045.20732h2.492003l-.104068.4146366-.104069.4146399h2.875323 2.875326l-.676562 1.3683059c-.638854 1.2920572-.708799 1.3709822-1.255065 1.4162116-.436147.036116-.62987-.035311-.787231-.2902482zm-7.876766-1.9135061c.449081-.6933005.455005-.7466273.08293-.746621-.251088.0000044-1.202458.9771635-1.202458 1.2350541 0 .050487.16793.090866.373178.089737.242451-.00133.503901-.2038684.746352-.5781696zm3.858637.079172c.680638-.9558663.120025-1.1817262-.597664-.2407869-.481978.6319045-.771701.6772233-.333943.052237.593615-.8475008-.01777-.8958015-.661195-.052237-.481978.6319045-.7717.6772233-.333942.052237.505512-.7217169.160316-.8881394-.55289-.2665538-.233932.2038808-.332036.263589-.218009.1326847.289954-.3328729.258385-.5033762-.0932-.5033762-.26112 0-.674175.4242872-1.085313 1.1148258-.09227.1549785.310522.1991755 1.713145.1879766 1.81009-.014447 1.838033-.020611 2.163012-.4770047zm7.464378.8460948c.544257-1.1021571.991809-1.7570292.991809-1.4512462 0 .2400331-1.355612 2.7647626-1.484494 2.7647626-.08577 0 .135937-.5910827.492685-1.3135164zm-21.5042325.8999862c-.0574436-.1497054-.0249168-.3517195.0722808-.4489215.2527005-.2526993.7314948-.0217395.6654867.3210133-.0735257.3817813-.6049889.473922-.7377675.1279082zm-1.9819156-.1440727c-.0476788-.12424-.0639922-.6646204-.0362574-1.2008449.0378434-.7316785.1160496-.9874272.3134272-1.0249434.2197307-.0417675.2553482.1080564.2164754.9105964l-.0465256.9605863.1711818-1.0365998c.09415-.5701305.2337166-1.0366003.3101481-1.0366003.076432 0 .1361626.4860327.1327354 1.0800737-.00357.6222333.080586 1.1846811.1985741 1.3268486.1757167.2117259.1069575.2467742-.4841343.2467742-.4283573 0-.7217251-.08544-.7756211-.2258908zm2.9166497-.8386083c0-1.0602867.1032305-1.5891974.3101746-1.5891974.05986 0 .1088309.5970818.1088309 1.3268485 0 .9582792-.058198 1.326848-.2095037 1.326848-.1470044 0-.2095018-.3175564-.2095018-1.0644991zm.6842862.525467c-.165842-.5236311-.0300282-1.8290712.2158722-2.0749724.236336-.236334.421706.4168126.424151 1.4944761.002.8586286-.05244 1.1195284-.233382 1.1195284-.129756 0-.312745-.2425639-.4066412-.5390321zm.8084192-.704888v-1.2439205h1.243922 1.243921v1.2439205 1.2439201h-1.243921-1.243922zm60.070205.8292803c-.38055-.3202104-.679957-.4146404-1.31469-.4146404-.650423 0-.965552-.1040416-1.510232-.4986079-.631094-.4571594-.688309-.5605668-.688309-1.2439207v-.7453123l1.782953-.00564c.980625-.00313 3.480698.2021295 5.555714.456104l3.772767.4617733.000495.4676846c.000336.2572267-.227029.7983319-.505071 1.2024564-.608174.8839538-1.301144 1.0208571-1.620413.3201318-.173308-.3803639-.278016-.4146404-1.266715-.4146404-.966642 0-1.105825.042762-1.349488.4146404-.242274.3697504-.38495.4146399-1.317949.4146399-.87404 0-1.127374-.068254-1.539037-.4146399zm-63.1151679-.283486c-.1393233-.520107-.1276221-1.5003881.0206234-1.7280835.0670184-.1029337.4406937-.2170155.8303901-.2535149.5475827-.05129.6888706-.015107.6219607.1592538-.047614.1240883-.086577.5567922-.086577.961563 0 .6929173-.023147.730137-.3959317.6365746-.2887198-.0724635-.4626469-.0041222-.642312.2523866l-.2463816.3517582zm6.5279439-.9604341v-1.3268489h1.243922c.684156 0 1.243921.038483 1.243921.08551 0 .2237981-2.065567 2.5681867-2.262748 2.5681867-.170798 0-.225095-.3200614-.225095-1.3268478zm9.688642-1.2853848c.06835-.068416 2.668253-.1617098 5.777565-.2073199 4.292801-.062971 5.669747-.1324568 5.721659-.2887349.0537-.1616835-1.756368-.2150209-8.442834-.2487841-7.87033-.039743-8.515301-.064284-8.56567-.3259345-.0499-.2592351.22106-.2822809 3.231946-.2748815 1.80753.00445 5.656089.00113 8.552352-.00729l5.265935-.0153646v-.4146399c0-.3808547.06081-.4146405.746353-.4146405.410494 0 .746353.074636.746353.1658565 0 .2157192.613031.2157192.746353 0 .133181-.2154924 1.078065-.2164044 1.078065-.00107 0 .1611011.330974.1442493.829282-.042225.616461-.2306874 1.020327-.2499313 1.096191-.05223.06259.1630952.27283.1724911.934092.041743.588107-.1162833.871214-.1150653.910875.00395.03938.1181664.300924.1207353.828841.00814.545138-.116267.858636-.1099558 1.069169.021527.369505.2307581.799943.2416109.799943.020166 0-.091221.293584-.1658564.652409-.1658564.579356 0 .658285.0485.704889.4331203.05129.4233187.07969.4329002 1.254937.4233695 3.308196-.026829 3.026876.012938 3.026876-.4278541 0-.3612209.159122-.4510227 1.617098-.9126161 1.861404-.5893181 3.163734-.6699175 3.56942-.2209077.144234.1596368.286413.5887891.315955.9536722l.05371.6634246 1.528997.082928c1.15599.062697 1.599625.1537349 1.818499.3731758.275704.2764196-.26975.2902482-11.448698.2902482-7.783228 0-11.703656.055884-11.635687.1658558.06518.1054594 2.2164.1658565 5.907472.1658565 3.827743 0 5.770054.056492 5.702462.1658558-.06683.1081398-4.350842.1658558-12.31079.1658558-6.714558 0-12.152366-.055979-12.084019-.1243917zm31.680636-1.9606553c.327263-.3272629.327324-.4782628.000332-.805258-.196487-.1964866-.338799-.2182912-.580497-.0889392-.361025.1932131-.419836.6571335-.121169.9558003.262295.2622948.388525.2512069.701334-.061601zm-.734505-.4027936c0-.2211415.11057-.3317123.331712-.3317123.221141 0 .331712.1105708.331712.3317123s-.110571.3317123-.331712.3317123c-.221142 0-.331712-.1105708-.331712-.3317123zm-40.5245 1.6297775c-.125903-.4814517.01424-.6701176.405513-.5459308.252192.080042.360573-.0084.499836-.4078937.0978-.2805532.250992-.5100971.340423-.5100971.08943 0 .138106-.2798819.108167-.6219599-.05367-.6132704-.04548-.6226952.586443-.6745639.701497-.057577 1.432326.4391344 1.432326.9734935 0 .1554136.167929.3997125.373175.5428855.313286.2185363.326595.2617105.08293.269014-.226603.0068-.290249.1541756-.290249.6721235v.6634239h-1.722146c-1.628494 0-1.727273-.019602-1.816417-.360495z" fill="#273839" stroke-width=".165856"/></svg>