<svg height="128" viewBox="0 0 83.560441 33.866667" width="315.819" xmlns="http://www.w3.org/2000/svg"><path d="m60.516736 29.066633c-.734742-.893769-1.663713-2.006233-2.064385-2.472142-.582842-.677734-.688808-.894929-.52999-1.086291.271752-.327444.594767-.299907.955327.08144.166739.176345.455669.348701.642071.38301.210299.03871.360438.222495.395632.484298.03119.232052.126512.494356.211823.582897.0853.08854.155109.359026.155109.601076 0 .28599.224594.659404.641406 1.066411.529996.517525.758117.624039 1.313297.613192.369539-.0072.925478.04094 1.23541.107013l.563522.12014-.554396.571994c-.400139.412837-.703894.571993-1.091666.571993-.473159 0-.696658-.193895-1.87316-1.625034zm1.780454-.02368c-1.118032-.08945-1.705449-.737847-1.930139-2.130511-.156627-.970786-.204752-1.05439-.635468-1.103949-.607526-.0699-.590963-.296706.04573-.625941 1.023024-.529024 2.25595-2.676232 2.869445-4.99728.209398-.792216.481872-1.554777.605495-1.694579.123622-.139803.249463-.559211.279649-.932018l.0549-.677832 2.864854-.052 2.86486-.052-.105384 1.96649c-.08905 1.661652-.164249 2.049151-.485101 2.49974-.294856.414101-.371363.732621-.342367 1.425521.03271.781961-.04945 1.034514-.664737 2.042896-.91231 1.495207-1.520735 2.287627-2.672487 3.480673-1.004078 1.040082-.876557 1.000616-2.749203.850793zm1.967391-.808429c0-.282167-.127689-.346308-.762562-.383064-.881323-.05102-1.282281.142455-1.128066.54434.08495.221369.294744.269442.99908.228926.761479-.04381.891548-.100731.891548-.390202zm-1.525124.08473c-.06334-.102494.171037-.169459.59311-.169459.422067 0 .656443.06696.593104.169459-.05759.0932-.324505.169457-.593104.169457-.268605 0-.535506-.07626-.59311-.169457zm-.85088-1.349852c.149037-.24115-.556232-1.530934-.837138-1.530934-.132411 0-.282864.06816-.334345.151457-.09497.153659.276242 1.183231.510543 1.416029.179391.178235.540541.158262.66094-.03655zm-.551735-.214488c-.09899-.119276-.23251-.426142-.296707-.681926-.174343-.694645.196341-.575072.43214.139395.214798.650854.154604.892004-.135433.542531zm4.537593-.350535c0-.387049-.3891-.626995-1.01675-.626995-.627644 0-1.016744.239946-1.016744.626995 0 .156277.295461.220295 1.016744.220295.721277 0 1.01675-.06402 1.01675-.220295zm-1.694583-.11862c0-.0932.30052-.169459.667829-.169459.367303 0 .714956.07626.77256.169459.06399.103506-.195937.169457-.667828.169457-.424908 0-.772561-.07626-.772561-.169457zm-.77579-.789184c.06398-.166664-.07068-.550447-.331202-.944125-.347121-.524537-.487356-.623146-.670281-.471329-.180587.149872-.191488.3105-.04969.732301.320935.9549.821985 1.280516 1.051212.683153zm-.753526-.492781c-.205733-.541126-.209201-.751529-.01238-.751529.08408 0 .236595.240148.338911.533661.227212.651766.227224.652545.01244.652545-.09552 0-.248022-.195604-.338917-.434677zm3.857457-.620082c.291035-.273415.383185-.548844.383185-1.145344 0-.841426-.163962-1.136994-.874284-1.576029-.335706-.207491-.670197-.252528-1.311463-.176578-.714376.08461-.914966.187464-1.17908.604593-.440844.69627-.193928 1.638979.615421 2.349593.529532.464937.677618.512493 1.290599.414472.380841-.0609.864866-.272718 1.075622-.470707zm-2.186782-.13063c-.295036-.226765-.490836-.578592-.564431-1.014162-.180222-1.066713-.02183-1.312683.929426-1.443516 1.072667-.14753 1.866056.258259 1.866056.954417 0 .251887.03678.559534.08173.683659.04497.124127-.05472.402536-.2214.61869-.431557.559526-1.492241.661422-2.091378.200912zm3.507424-3.12714c.575074-.240282.765253-.641453.40857-.861891-.422689-.261236-1.843787.543864-1.61459.914721.159245.257653.498496.242794 1.20602-.05283zm-.937457-.06199c0-.222678 1.162301-.715528 1.27135-.539086.05388.08719-.181304.275219-.522649.417843-.719094.300456-.748701.30525-.748701.121243zm-1.221029-.399352c.05681-.294974-1.267175-1.210324-1.522445-1.052559-.321084.198442-.104242.767978.413426 1.085879.627668.385446 1.030701.373337 1.109019-.03333zm-1.174977-.295281c-.220024-.178381-.353185-.371402-.295909-.428935.121433-.121978 1.164136.438113 1.16572.626171.0018.235709-.46694.129376-.869811-.197236zm1.379263-2.034261c0-.385515-1.078761-1.108058-1.444695-.967637-.418898.160744-.28017.60142.300854.955674.705144.429938 1.143841.434526 1.143841.01197zm-1.059118-.196852c-.163101-.095-.296549-.279774-.296549-.41061 0-.192899.09594-.183295.507305.05078.27901.158768.507783.345862.508375.415763.0012.177976-.366693.149335-.719131-.05594zm3.099362.179587c.724817-.369775.803752-.52278.429805-.833129-.189377-.157171-.389841-.124445-.93202.152153-.64492.329014-.844559.643577-.577772.910364.176891.176889.359745.13805 1.079987-.229388zm-1.023501-.07693c0-.110943.95908-.597454 1.177789-.597454.330197 0 .180885.283144-.253739.481173-.439935.200447-.92405.261367-.92405.116281zm-12.836436 5.729719c-.116501-.04701-.211822-.168433-.211822-.26983s-.103917-.304746-.230926-.451888c-.127005-.147142-.277413-.514366-.334236-.816055-.09788-.519703-.05232-.581154.866388-1.169573 1.593684-1.020679 1.959585-1.129791 2.46238-.73429.795978.626117 1.273769.43295 2.251012-.910065l.746949-1.026535v-1.973325c0-2.57193.04022-2.531914-2.55521-2.541013-1.805154-.0063-1.904344-.02365-1.473672-.257366.25396-.13782.542601-.401663.641425-.586318.159682-.298373.358177-.335736 1.783571-.335736h1.603886v.577869c0 .505203.160317.721348 1.274877 1.718879.701189.627555 1.323941 1.091947 1.383908 1.031981.05995-.05997.07725-.131875.03845-.159798-.03881-.02793-.585342-.494772-1.214451-1.037442-1.033943-.891872-1.143841-1.047817-1.143841-1.623061 0-.985329-.209844-1.06388-2.580355-.96593-3.008504.124312-7.508059.572723-7.91103.788386-.190387.101892-.426842.336021-.525456.520289-.09862.184268-.273231.335032-.388035.335032-.128376 0-.21573.267019-.226919.693608-.01057.402564-.159099.88253-.354002 1.143842-.347672.466124-.893001.696915-.893001.377929 0-.100036.114381-.181884.254183-.181884.184264 0 .25419-.189524.25419-.688972 0-1.14006-.201914-1.344523-1.327734-1.344523-.537291 0-1.068402.09151-1.180247.20335-.273251.273254-.273251 2.878663 0 3.151917.283523.28352 1.813506.253976 2.680031-.05175.542101-.191264.780664-.207274.953322-.06398.389355.323137.264239.465328-.64776.736162-.885765.263044-4.395366.372409-4.962842.15465-.235226-.09027-.273834-.400075-.258686-2.075859.0098-1.083367.01358-2.141334.0085-2.351039-.0081-.330295-.100009-.38128-.687199-.38128-.468831 0-.67783-.07333-.67783-.237832 0-.244227.59389-.355912 2.891874-.543834.884855-.07236 1.1579-.03636 1.33405.175883.16111.194124.530104.266867 1.353692.266867 1.056598 0 1.167316-.03678 1.657751-.550738.289044-.302906.666813-.855763.839478-1.22857l.313939-.677832 9.276508-.04381c5.822006-.0275 9.276514-.104757 9.276514-.207471 0-.6231088-3.271511-.9770684-3.992238-.4319387-.276899.2094337-1.461493.2496507-7.487099.2541867-6.971632.0053-7.163677.01422-7.369819.344305-.197765.316676-.417485.341429-3.348229.377212l-3.136572.0383 3.092604.05025c1.860575.03023 3.09261.116047 3.09261.215402 0 .09083-.275768.470391-.612822.843467-.592077.655358-.649105.67832-1.684579.67832-.60561 0-1.12256-.08221-1.188567-.189006-.07928-.128268-.797713-.169111-2.235608-.127094l-2.118794.06191-.06366-.677832c-.048532-.516276-.204691-.803277-.655224-1.204163-.743529-.6615937-.793953-1.0274502-.091555-.6642248.686809.3551618 1.120286.3241568 1.523828-.1089974.321708-.3453096.532199-.3722927 3.480491-.4461677l3.138077-.0786309v-.597236-.5972361l9.001631.120822c8.046075.1079963 9.048191.1513003 9.440209.4079359.421021.2756182.303648.2889569-2.931356.3331609-2.130792.029116-3.4336-.017617-3.543075-.1270931-.183675-.1836767-10.054866-.2497437-10.718183-.071735-.198341.053227-.446177.2845425-.550734.514033-.249253.5470456-.244199.5707678.121593.5707678.171448 0 .398578-.1906408.504743-.4236457l.193025-.423645h5.172101c3.335092 0 5.172097.060185 5.172097.1694582 0 .1077051 1.324616.1694577 3.634924.1694577 2.807208 0 3.665778.050345 3.770438.2211162.07453.1216131.421475.3947299.770982.606924.349507.212194.635471.493972.635471.626174 0 .132201.146269.240365.325049.240365.69682 0 .861153.182795.861153.957892v.752173l-1.143846-.05011c-1.099577-.04817-1.145862-.06766-1.19626-.503715-.0905-.783046-.292674-.828782-3.44375-.77905l-2.943227.04645v.593102.593103l1.94877.08473c1.071819.0466 2.044078.146421 2.160578.221823.138058.08935.211826.574178.211826 1.392066 0 1.067321.04897 1.281201.327782 1.430392.450208.240948 2.10039.221332 2.349656-.02793.365205-.365203.24355-1.265551-.220299-1.630413-.535129-.420938-.590544-1.21648-.08473-1.21648.22595 0 .338922.112971.338922.338916 0 .218947.112973.338915.319147.338915.176641 0 .358728-.15134.407781-.338915.05988-.22902.231147-.338916.528139-.338916h.43951v1.948766c0 1.583792-.04575 1.948766-.244189 1.948766-.134296 0-.291316-.07626-.348915-.169458-.0618-.09995-1.160668-.174946-2.678969-.182836-1.415824-.0074-2.478906-.05184-2.362405-.09885.231523-.09342.295185-.565603.07626-.565603-.07456 0-.225274.08971-.334916.199346-.152822.152822-.27901.127251-.540684-.109565-.321826-.291247-.324475-.321718-.04634-.532872.272366-.206797.265746-.224374-.08631-.229351-.331023-.0047-.381278.08155-.381278.654312 0 .430078-.08847.693653-.254181.757242-.179338.06882-.254194.348599-.254194.950149 0 .839023-.0083.852609-.521166.852609-.510121 0-.520197-.01586-.475198-.74759.04347-.707552-.203639-1.285905-.549499-1.285905-.0818 0-.148714.618299-.148714 1.373998v1.373998l-1.626895 2.311712c-.894795 1.27144-1.748191 2.407031-1.896428 2.523533-.265552.2087-3.419942.289451-3.890457.09959zm1.650302-.986156c.37073-.599848.341544-.989775-.06245-.834742-.335875.128888-.982463 1.069504-.865398 1.258925.200909.325081.568713.156937.927863-.424183zm2.398833-.214055c.30325-.481108.313497-.562581.08193-.651443-.284421-.109145-1.10838.691361-1.117833 1.086015-.0099.415133.683747.124125 1.035904-.434572zm1.723571-2.520638c-.129593-.337712-.377333-.288435-.740896.147368-.333584.399867-.416947.8303-.202377 1.044875.182963.182965 1.050308-.913309.943273-1.192243zm.878515-2.069706c0-.992044-.327787-.965592-.391277.03157-.03939.618888.0026.804083.169456.748439.135466-.04515.221821-.348812.221821-.780014zm.198322-2.160579c.06033-.157204-.04714-.418384-.2595-.630761l-.362462-.362461v.630761c0 .453448.07294.63076.2595.63076.142729 0 .305838-.120735.362462-.268299zm3.614483-2.029385c0-.358917-.06861-.5607-.169452-.498373-.09321.0576-.169464.328999-.169464.603104s.07626.498373.169464.498373c.0932 0 .169452-.271397.169452-.603104zm.508375.01c0-.326207-.07625-.593103-.169458-.593103-.0932 0-.169458.266896-.169458.593103s.07626.593102.169458.593102c.0932 0 .169458-.266895.169458-.593102zm-12.328063-1.898449c1.001917-.322695 1.821669-.656668 1.821669-.742164 0-.227835-.370147-.191568-2.658221.260452-2.080473.411005-2.764426.644995-2.764426.94574 0 .34043 1.839048.103446 3.600978-.464028zm17.11525.176365c-.116506-.04701-.211825-.185343-.211825-.307408 0-.253596-.462402-.476066-.693124-.333473-.08479.0524-.154168.243292-.154168.424194 0 .269486.114814.326498.635472.315537.349501-.0074.540146-.05184.423645-.09885zm-18.004903-1.158706c0-.192052-.207116-.254187-.847291-.254187-.640177 0-.847286.06213-.847286.254187 0 .192053.207109.254187.847286.254187.640175 0 .847291-.06213.847291-.254187zm1.038518 10.224096c-.111487-.178526-.150217-.40953-.08606-.513341.0664-.107431.04035-.141591-.06046-.07929-.09741.0602-.301591-.08053-.453735-.312734-.275333-.420209-.274026-.422201.278015-.424784.305057-.0013.660716-.06977.79036-.151862.142627-.09032-.193908-.114781-.852146-.06195-.855182.06865-1.134722.03086-1.306926-.176627-.189617-.228475-.126185-.291777.471963-.470985.852134-.255308.789291-.412651-.07005-.175375-.533141.147207-.592506.136946-.418785-.07238.143645-.173085.147193-.243899.01224-.243899-.104614 0-.190207-.108938-.190207-.242083 0-.416723-.509207-.774665-1.102039-.774665-.428969 0-.652019-.115939-.904083-.469936-.295955-.415632-.307778-.518437-.102276-.889654.127793-.230845.235053-.852744.238357-1.381997.0094-1.5015.05873-1.526355 3.649352-1.837905 1.11842-.09704 2.327155-.223048 2.686082-.280011.576187-.09144.645626-.066.593101.217378-.03548.191292-.416927.492091-.944291.744593-.486643.233004-1.006891.546272-1.156107.696149-.237961.239016-.352552.244511-.932472.04471-.556364-.191683-.802888-.1906-1.555217.0068-.619054.16246-.806911.269998-.610741.349616.155821.06325.436769.03287.624325-.06752.904652-.484154 2.574031.08673 2.315601.791877-.04272.116503.02107.211823.141698.211823.120632 0 .395503.187528.61083.41673l.3915.41673-.658513-.09185c-.494789-.06901-.595308-.04688-.404323.08905.139802.09949.46121.182064.714234.183491.463906.0026.923124.531194.731232.841678-.05246.08484-.01781.202144.07689.260685.273046.168752.200327.424267-.124329.436823-.236506.0091-.21954.04862.0838.194939.217126.104735.450744.438415.544387.777553.181939.658923.11419.880076-.2696.880076-.141281 0-.772574.333605-1.402874.741345-1.090355.705344-1.155843.725583-1.348714.416751zm1.511335-1.830991c-.09763-.06034-.286431-.257711-.419566-.438603-.228545-.310551-.248592-.312003-.35943-.02603-.168085.433686.397116 1.038599.720022.77061.154911-.128564.175252-.23411.05898-.305975zm-.346905-1.365852c-.326204-.07701-.859996-.07686-1.1862.000322-.495392.11722-.397675.140288.593101.140017.990518-.000271 1.088363-.02342.593099-.140341zm-1.115268-.762918c.534242-.06675.907307-.185409.829029-.263689-.151667-.151663-2.020433.223025-2.221073.445325-.0656.07269.0019.08886.150702.03595.148493-.05292.707099-.15083 1.241342-.217579zm-2.612801-.92641c0-.0932-.08076-.169457-.17946-.169457s-.132328.07625-.07473.169457c.05758.0932.138361.169458.17946.169458.04112 0 .07473-.07626.07473-.169458zm-.04592-.949671c-.05629-.05631-.202465-.06233-.324795-.01338-.135178.0541-.09503.09425.102385.102382.178634.0074.278721-.0327.22241-.089zm-.542722-.881639c-.0522-.05217-.188913-.000107-.303859.115703-.166112.16736-.146648.186824.09486.09486.167124-.06364.261171-.158391.208998-.210565zm23.736264 4.845744c-.139678-.21331-.491715-.912352-.78232-1.553428-.469655-1.036088-.505373-1.221073-.321515-1.664958l.206845-.499367.3938.478753c.312664.380115.425684.430566.548541.244872.152117-.229936-.37589-1.37597-.633952-1.37597-.06315 0-.08511-.311635-.0488-.692522.0872-.914412.20944-.774888 1.466151 1.673497.889126 1.732235 1.072494 1.98454 1.442279 1.98454h.423645l.04808-1.927377c.03815-1.528884-.0071-2.01162-.218871-2.334833-.321425-.490556-.205834-.7368.345866-.7368.285749 0 .49077.157562.679232.522008.224049.43326.249948.858207.152356 2.499505-.06468 1.087623-.193528 2.072816-.286336 2.189319-.09406.118063-.539033.211822-1.005298.211822-.51454 0-.796229.06523-.731807.169459.05759.0932.273921.169457.480712.169457.358476 0 .959677.51844.959677.827568 0 .08022-.644483.158557-1.432191.174076-1.32127.02603-1.451859-.0019-1.686139-.359621zm1.307079-.704626c.117081-.305106-.515-1.336691-.767465-1.252537-.326568.108859-.317311.355928.03504.93386.359978.590492.589767.690468.732435.318677zm2.150161.541956c0-.295568.113158-.662434.251461-.815258.188163-.207914.255999-.755188.26946-2.173933.01728-1.820435.03259-1.896543.384005-1.907979.315984-.01028.324894-.02816.06516-.130819-.404749-.159976-.84341-.998569-.573992-1.097309.351067-.128661-.943658-.274084-2.895591-.325236l-1.906403-.04996v1.375659c0 1.151729-.06302 1.469388-.387108 1.951458-.212902.316689-.556758.600258-.764129.630154-.376835.05433-.377021.05298-.364535-2.680804.0086-1.865532-.05089-2.811576-.186979-2.975501-.302702-.364739.170923-.474445 1.498735-.347151.743098.07124 1.589098.02115 2.445915-.144825 1.462359-.283272 4.254277-.226305 4.641062.0947.230268.191106.336675 1.169675.127181 1.169675-.0589 0-.344861-.146109-.635472-.324688-.290605-.178578-.8334-.369448-1.206204-.424154l-.677833-.09947.783557.29706c.786823.298304 2.257734 1.357074 1.588852 1.143672-.545229-.173953-1.858174-.400583-1.926261-.332496-.03439.03437.156206.109612.423514.167201 1.156631.249191 1.672415.518955 1.727831.90368.05448.378615.04539.380896-.466014.116437-.286891-.148359-.521626-.231616-.521626-.185015 0 .0466.228767.20303.508375.347619.600997.310791.663314.709145.127091.812427l-.381284.07344.381284.02308c.30864.01868.381284.123386.381284.549581 0 .400746-.06072.501935-.254194.423644-.661872-.267835-.85043-.2999-.515885-.08773.328894.208587.328894.211225 0 .348928-.324954.136051-.32481.138425.0075.122021.645099-.03184.762568.0238.762568.361212 0 .207843-.114694.34091-.296555.34407-.280338.0048-.280517.0145-.003.176088.221352.128984.288638.379973.27416 1.022706l-.01919.851773-.697806-.08531-.697806-.08531.635459.188811c.568982.169056.635472.247738.635472.752027l-.000006.563217h-1.270937-1.270937zm-4.66009-7.25767c-.751864-.191318-1.134996-.191318-1.01675 0 .05759.0932.424322.160435.814928.149408.670825-.01894.682014-.02722.201822-.149408zm3.010207.05016c-.208423-.04022-.589701-.04127-.847285-.0023-.257596.03895-.08706.07186.378946.07313.466007.0013.676757-.03059.468339-.07082zm-.468339-.812976c-.368774-.12669-2.859538-.197691-2.541868-.07246.186399.07349.872706.13295 1.525118.132142.652419-.000837 1.109953-.02767 1.01675-.05968zm5.004156 3.940141c-.0042-3.983777.03217-4.702458.23904-4.702458.134297 0 .286766.06889.338803.15309.14768.238956-.246443 8.694527-.419005 8.989299-.09463.161662-.155657-1.544187-.158838-4.439931zm-63.890783 1.223254c0-2.018561.05443-2.736776.211823-2.794988.116502-.04309 1.260343-.103556 2.541868-.134373 2.162767-.05201 2.330047-.03383 2.330047.253119 0 .256973-.139499.30915-.826541.30915-.527972 0-.902743.09182-1.037496.254186-.121743.146692-.491358.254187-.874001.254187-.364674 0-.851001.123154-1.080727.273677-.405158.265469-.417683.33407-.417683 2.287682v2.014006h-.423644-.423646zm1.186206.790598c0-1.86699.01416-1.941784.417683-2.206182.229725-.150522.682761-.273676 1.006747-.273676.323985 0 .636192-.07626.693794-.169459.0576-.0932.481511-.169457.94202-.169457h.837288v1.016747c0 .559212-.0427 1.016748-.0949 1.016748-.05219 0-.451364-.272185-.887049-.604855-.784528-.599031-.794824-.601561-1.069284-.262617-.15242.188232-.370855.944748-.485411 1.681147-.243473 1.56511-.280797 1.63977-.894883 1.79006l-.46601.114049zm-8.6132103.61129c-.3856942-.541658-.4767465-1.011084-.2831695-1.459899.0961053-.222822.0533347-.364326-.1434141-.47443-.2414335-.135113-.2783808-.491062-.266067-2.563257.0078635-1.323494.0685074-2.839675.1347629-3.3692884.1072207-.857084.2014058-1.0347658.8568042-1.6163812.6796647-.6031496.7186733-.6817391.5067889-1.0210199-.2041291-.326862-.1847261-.4152912.1751816-.7983953.3878453-.412843.4830578-.4303241 2.2815983-.4189108 2.115803.013424 2.385236.083863 2.385236.6235567 0 .2097042.07626.3622164.169459.338916.0932-.0233.166452-.213941.162778-.4236446-.0066-.3749784.02757-.3812806 2.065397-.3812806h2.072079l-.0319.4475021c-.01755.246126.06342.4812492.179919.5224953.139873.049519.211822-.1024815.211822-.4475019v-.5224955h2.088876 2.088874l-.07461.5083738c-.04479.3051619.000837.5083738.114077.5083738.103781 0 .188692-.2287679.188692-.5083738v-.5083738h2.19249 2.192494l-.0319.4144429c-.01755.2279436.04438.39952.13756.38128.0932-.01824.166453-.2047387.162776-.4144423-.0066-.3752563.02651-.3812806 2.093988-.3812806 1.797641 0 2.086603.036667 2.00313.2541869-.115765.3016835.03465.7625607.248868.7625607.08323 0 .151331-.2287679.151331-.5083738v-.5083738h2.965514 2.965515v.4766698c0 .3010521-.175111.6444324-.475287.9320181-.427386.4094656-.602414.4558923-1.736944.4607384-1.550881.00662-1.854759.1962063-1.854759 1.1571336 0 .6353107-.03996.7015142-.423646.7015142-.393051 0-.423646-.058746-.423646-.813398 0-.4473691-.09151-.9049053-.203349-1.0167478-.127616-.1276152-.763559-.2033494-1.707543-.2033494h-1.504184l.04874-.6752467c.02684-.3713864-.02453-.6573464-.11413-.6354672-.08959.021879-.162891.3258389-.162891.6754661v.6356868h-2.118223-2.118226v-.6356868c0-.3496272-.07626-.6356865-.169458-.6356865-.0932 0-.166344.3050243-.162535.6778322.0064.6293098-.07426.7475808-1.127125 1.6522145l-1.134046.9743828h-1.344137c-.739276 0-1.386284-.04214-1.437796-.093657-.05151-.051511.249894-.418256.669789-.8149868.703599-.6647808.741937-.7428369.489059-.9957141-.165642-.1656431-.274386-.556043-.274386-.9850718 0-.6318406-.03004-.6857555-.270761-.4859746-.190101.1577697-.243508.3926477-.179278.7884473l.09148.5637355-2.06604-.047504-2.06604-.047504-.08473-.7483841c-.07516-.6638635-.111035-.7164455-.31765-.4655878-.145553.1767194-.194814.4733266-.13133.7907484.08361.4180641.04604.5079527-.212339.5079527-.472115 0-.666994.3423717-.72587 1.2752371l-.0532.8429882-2.813034.04634-2.813034.04634-.1948442.427636c-.2044747.448774-.2316157 2.339885-.046039 3.207745.076585.358151.2083653.508374.4459597.508374.4888265 0 .5716645-.755146.096471-.879413-.2378096-.06219-.352321-.229296-.352321-.514144 0-.335452.060825-.396971.2965507-.299927.1631035.06715.4247248.159076.5813818.204287.38133.110052.516688.505969.212844.622565-.179239.06878-.243487.403052-.243487 1.266828 0 .939-.05644 1.195051-.282523 1.281808-.215332.08263-.235483.155456-.084729.306209.307603.307603.23408.941944-.17299 1.492537-.4629713.626202-.8654798.636783-1.2946767.03402zm1.2809175-1.10147c-.1003486-.261371-1.3443331-.276927-1.430678-.01789-.034558.10368.1425159.432559.3935041.73084l.4563395.54233.3307988-.522461c.1819396-.287349.2944555-.617118.2500356-.732815zm-.9711206-2.836956c0-.405371-.072961-.508375-.3600974-.508375-.3129333 0-.3462257-.06936-.2541874-.529556.05825-.291255.1059112-.672536.1059112-.847289 0-.174754.076256-.317734.1694582-.317734.093201 0 .1706256.209704.172053.46601.00144.256305.076515.580393.1668624.720196.1189915.184125.1649835.03548.1668636-.539319.00209-.644787-.06064-.813576-.3348048-.900592-.1855699-.0589-.414338-.05954-.5083736-.0014-.1948483.120422-.2211587 1.027893-.063215 2.180238.084376.615596.1763142.786217.4236451.786217.2380082 0 .315882-.125328.315882-.508373zm5.6768414-5.5073841v-.8472895h-.762561-.762561l-.05366.6532874c-.08274 1.0074479.03147 1.1531659.857031 1.0934758l.721746-.052187zm-1.373619.5226883c-.05063-.1319296-.0673-.4560178-.03705-.7201959.04783-.4176496.126865-.4803243.60574-.4803243.302907 0 .550739.057192.550739.1270937v.7201959c0 .547396-.03959.5931033-.513692.5931033-.286667 0-.554373-.1060109-.60574-.2398727zm-.744606-1.723015c0-.5454699-.06306-.7559767-.211822-.7071279-.231529.076025-.376592.8613473-.229778 1.243938.194364.5065037.4416.2059625.4416-.5368101zm22.368446 0c0-.5454699-.06302-.7559767-.211823-.7071279-.231524.076025-.376591.8613473-.229775 1.243938.194363.5065037.441598.2059625.441598-.5368101zm5.515268 10.9017938c-.203074-.649709-.259423-1.482757-.100291-1.482757.09742 0 .177134.116778.177134.259505 0 .354808.457003.502463.764723.247078.138611-.11504.247196-.371404.241285-.569696-.01057-.353921-.01358-.353541-.164.02075-.420622 1.046455-.989303.0096-1.124628-2.050502l-.107413-1.635208h.618663c.539398 0 .618662.0519.618662.40514 0 .222827-.150837.737555-.335196 1.14384-.370288.816051-.445615 1.756534-.155058 1.936106.130412.0806.152131-.04546.07126-.413643-.1058-.481697-.07843-.529574.302667-.529574.530464 0 .624696.257703.624696 1.708439v1.172346h-.683152c-.398238 0-.710762-.08834-.749357-.211822zm1.8844.09885c-.06213-.06213-.112973-.69506-.112973-1.4065 0-1.376665-.149101-1.700229-.783469-1.700229-.362013 0-.366836-.01991-.123149-.508373.217248-.435494.348998-.508374.919024-.508374h.665424v2.118224c0 1.652216-.0497 2.118225-.225946 2.118225-.12427 0-.276779-.05084-.338911-.112973zm-5.597325-.740246c.105869-.105957.563403-.374351 1.016747-.596434 1.156415-.566504.671028-.512411-.843385.09399-1.036903.415198-1.512894.507851-2.597038.505519l-1.327434-.0029.554097-.354829c.619194-.396514 1.353744-.599822 3.343437-.925395l1.355665-.221827-1.355665.0862c-.87505.05564-1.908116.272784-2.913982.612509l-1.558324.526314-1.407191-.369292c-1.245364-.326823-1.874908-.371335-5.474184-.387053-2.240964-.0098-3.838737-.07584-3.558616-.147119l.508373-.129359-.466009-.02005c-.335891-.01446-.466009-.108955-.466009-.338421 0-.736405 1.673023-.894369 5.67684-.535997 1.945636.17415 3.058607.185758 4.74482.04949l2.202957-.178027-2.287685.08524c-1.529342.05699-3.214536-.0104-5.083738-.203288-2.529295-.261005-4.284056-.251443-5.010449.0273-.160844.06172-.242745-.02125-.242745-.245906 0-.304794.152585-.351133 1.509976-.458566.830483-.06573 1.76462-.07051 2.075859-.01062.480426.09245.517165.07871.24327-.09094-.220043-.136299-.880044-.171384-2.075859-.110354-1.706886.08711-1.753251.07988-1.753458-.273545-.000169-.359731.02785-.362548 3.092607-.310391 1.70105.02895 3.165263.124269 3.253801.211822.215301.212894 1.909314.204374 2.041969-.01027.05758-.0932.762557-.169458 1.566566-.169458 1.190347 0 1.526806.05886 1.811675.316924.38963.352975 2.298605.653936 2.298605.362388 0-.09402-.362219-.183142-.804931-.198058-.618682-.02084-.677497-.04293-.254184-.09547.302905-.03759.550741-.13977.550741-.227066 0-.08737.71433-.158722 1.589098-.158722 1.174086 0 1.641828.06353 1.790987.243261.167388.201685.105768.255141-.360527.312773-.475704.05879-.457905.06752.115412.05661l.677831-.0129v1.691256 1.691256l-1.186204.051c-.885925.03809-1.137483.0022-.993716-.141652zm-11.588537-1.516879c.994587-.0016 1.482758-.06584 1.482758-.195276 0-.245534-2.773894-.09791-3.38916.180371l-.423645.191609.423645-.08719c.233004-.04796 1.090886-.08824 1.906402-.08951zm6.181438.04347c-.351587-.03669-.885381-.03606-1.18621.0013-.300829.03743-.01319.06745.639248.0667.652415-.000777.898542-.03138.546962-.06806zm3.350572-.215246c.483658-.12307.475422-.129519-.169462-.13265-.372805-.0018-1.097235.05469-1.609849.12555l-.93202.12884 1.101482.0038c.605808.0021 1.330239-.0544 1.609849-.125549zm1.65221-.112225c-.116501-.04701-.307138-.04701-.423639 0-.116502.04701-.0212.08547.211822.08547.233004 0 .328325-.03846.211817-.08547zm1.694584-.176821c-.209703-.04039-.552855-.04039-.762564 0-.209703.04039-.03811.07344.381285.07344.419406 0 .590982-.03305.381279-.07344zm-2.033495-.511367c-.302905-.03759-.798572-.03759-1.101476 0-.302911.03759-.05508.06835.550735.06835s.853645-.03075.550741-.06835zm1.355659.01036c-.116502-.04701-.307138-.04701-.42364 0-.116501.04701-.0212.08547.211823.08547.233003 0 .328325-.03846.211817-.08547zm2.16059 1.064996c0-1.205804-.06129-1.639984-.254184-1.800057-.367764-.305215-.312024-.949664.116681-1.349063.31216-.290822.325571-.345517.08473-.345517-.231197 0-.286137-.166178-.286137-.86542 0-.699641.04868-.846734.254184-.767879.139802.05365.25419.02882.25419-.05518 0-.335018-.921016-.378682-5.510906-.261268-3.437465.08793-4.816027.06953-4.89943-.06542-.08397-.13587 1.339033-.187786 5.147138-.187786 3.395822 0 5.263198-.06012 5.263198-.169458 0-.104937-.907188-.169458-2.382641-.169458h-2.382642l.05258-.635468.05258-.6354673 1.431138-.049753c1.230159-.042762 1.497882-.0004066 1.906407.3016247l.475262.3513775v-.8576806c0-.5443188.07739-.8774492.211822-.9117852.116502-.029756.593102-.1877812 1.059109-.3511653 1.361686-.4774109 1.560635-.5154472 1.313298-.2510883-.116502.1245216-.211817.3128273-.211817.4184556 0 .2197779.206494.2548452 1.587491.2695928.830531.00887 1.008306.063854 1.078873.3336979.05848.2235667.234989.3230794.5731.3230794.612482 0 .624004-.2524515.06213-1.3612967l-.426496-.8416563-1.734094.035463-1.734089.035469 1.62125.055023 1.62125.055023.369884.761331c.203434.4187322.369879.8355471.369879.9262555 0 .3068649-.46821.1673599-.555237-.165435-.07226-.2763495-.262212-.3386827-1.161895-.3812781-.921061-.04361-1.084208-.099592-1.136028-.3898363-.103065-.5772-.265283-.6050727-1.363345-.2342509-1.102167.3722071-1.529656.2870354-1.318692-.262732.08819-.2298241.559497-.3605378 1.014795-.2814467.07683.013347.0914-.053877.03234-.1493905-.07137-.1154827.704966-.1735983 2.317454-.1734844l2.424778.0001698.476562.8485016.476562.8485013-.361009.5069899c-.272584.3828113-.494289.5069922-.905164.5069922-.349755 0-.631421.1210768-.788426.3389154-.335607.4656299-1.18621.4656299-1.18621 0 0-.1864029-.07626-.3389154-.169456-.3389154-.0932 0-.169456.1525125-.169456.3389154 0 .1864041-.07626.3389165-.169462.3389165-.0932 0-.169456-.1525124-.169456-.3389165 0-.1864029-.07625-.3389154-.169456-.3389154-.09321 0-.169462.1906403-.169462.4236445 0 .3711942-.07343.4236451-.593101.4236451-.591622 0-.593153-.00197-.614244-.804925l-.02113-.804925-.134864.9311845c-.07417.5121517-.189689 2.7045153-.256694 4.8719163-.06701 2.167403-.187447 3.940732-.26764 3.940732-.08019 0-.14581-.715097-.14581-1.589102zm27.565154-.726823c-.06213-.06213-.112972-.615711-.112972-1.230172 0-1.495792-.159388-1.596144-2.711326-1.707098-1.581605-.06877-1.948764-.132619-1.948764-.338916 0-.213993.449425-.261537 2.84216-.300666 2.470408-.0404 2.855693-.0112 2.945643.223213.05693.14833.0171.356073-.08847.46165-.266225.266229-.239776.463092.06225.463092.181878 0 .254193.185369.254193.651568 0 .436358.111938.752875.338917.958283.186405.168693.33891.447408.33891.619367 0 .264815-.138279.312652-.903771.312652-.497079 0-.954619-.05083-1.01675-.112973zm-61.2600799-2.352145c-.2468945-.541873-.2506932-1.22684-.0106257-1.915505.1783046-.511485.224829-.533661 1.1196066-.533661.7816745 0 .9168356.04361.8307126.268046-.05657.147425-.102859.795602-.102859 1.440392v1.172346h-.8200889c-.7143569 0-.845444-.05565-1.0167476-.431618zm5.3157519.108545c-.0564-.17769-.404687-.443969-.77398-.59173-.8755308-.350318-.8497879-.683633.08023-1.038809.413417-.157886.794322-.39822.846454-.534074.122985-.320493.644927-.157887 1.228139.382615.24361.225771.508049.410492.587641.410492.07959 0 .144714.173299.144714.38511 0 .276663-.178946.472829-.635468.696619-.349507.17133-.76788.379311-.929719.46218-.401827.205754-.430889.196611-.54801-.172403zm1.524554.160833c-.05515-.08923.130991-.281831.413644-.427997.736026-.380614.702314-1.004613-.07919-1.46571-1.056217-.623184-.73249-.876447 1.270934-.994296l1.440392-.08473.08473-.9320184.08473-.9320187 1.60985-.043253 1.609851-.043253-.877056.8481746c-.48238.466497-.79465.8481755-.693932.8481755s.05796.138303-.09501.307339c-.373173.41235-.07553.706718.72551.717524l.601576.0081-1.270935 1.177863-1.270934 1.177864-1.726943.00022c-.949819.000132-1.772064-.07278-1.827213-.162008zm5.502922-1.21348c1.11204-1.041406 1.331844-1.178112 1.758126-1.09345.267955.05321.873206.09676 1.345003.09676h.857812l-.455349.475282c-.326264.340548-.455349.652799-.455349 1.101477v.626195l-2.160589-.008-2.160588-.008zm3.389159.585511c0-.454585.127637-.764863.455348-1.10692.407862-.425714.562497-.472774 1.482757-.451235.827475.01937.911991.0441.434306.127094-.880095.152909-1.355664.530311-1.355664 1.075828v.467611h1.270935 1.270935v-.750135c0-.571921-.07045-.768547-.296552-.827632-.163103-.04263.156496-.08634.71022-.09716.862573-.01685.963818.01175.706858.199646-.210658.154037-.283337.393586-.24421.804925l.0557.585623 1.059112.05045c.761993.0363 1.059114.115913 1.059114.283795 0 .189553-.620123.236759-3.304431.251543l-3.304429.0182zm6.920462-.353631c-.07467-1.267118-.000658-1.736944.27352-1.736944.299682 0 .369615.391839.294872 1.652215-.04349.733562-.131687 1.059112-.286892 1.059112-.153169 0-.242252-.30836-.2815-.974383zm.874601-.127094c0-.605812.05719-1.107747.127095-1.115412.0699-.0077.355859-.05196.635469-.09844.279604-.04648 1.061228-.0337 1.736945.02839l1.22857.112903v1.087018 1.087019h-1.86404-1.864039zm2.541869-.254187v-.677831h-1.186203-1.186203v.564859c0 .310673.05085.615697.112972.677832.06213.06213.595926.112972 1.186204.112972h1.07323zm-2.14167.254187c-.213079-.555269.06824-.762561 1.034879-.762561.92851 0 .937336.0048.937336.508374 0 .503588-.0088.508374-.937336.508374-.676869 0-.964447-.07064-1.034879-.254187zm3.666791-.08473v-1.186204h.593103c.519671 0 .593107.05245.593107.423644 0 .310674.09038.423645.338912.423645.188286 0 .338918-.112971.338918-.254187 0-.139802-.07625-.254186-.169456-.254186-.09321 0-.169462-.07626-.169462-.169459 0-.0932.259756-.169457.577237-.169457.49381 0 .564434.04898.488615.338916-.06692.255886-.0051.338915.251917.338915.187306 0 .384443-.114383.438095-.254187.05367-.139803.243104-.254187.42102-.254187.177923 0 .41842.114384.534447.254187.286041.344663.451769.319475.557473-.08473.04874-.186404.210151-.338916.358676-.338916.214366 0 .270055.192195.270055.932018v.932019l-.550742.0054c-.302904.0029-.69876.117348-.879673.254187-.242118.183124-.812425.248797-2.160591.248797h-1.831651zm-29.5280428.800497c-.2563049-.103449-.4660092-.248285-.4660092-.321859 0-.268098 1.4751915-1.664842 1.7583463-1.664842.2497632 0 .2841244.151085.2408709 1.059111-.049796 1.045352-.057053 1.059481-.5588243 1.087396-.279606.01556-.7180781-.05635-.9743837-.159806zm18.9627648-.540075c-.140239-.365454.685566-.938253 1.352676-.938253.538742 0 .570249.03277.570249.593103v.593103h-.913888c-.645809 0-.9418-.07273-1.009037-.247953zm3.364506.08042c-.0648-.104852-.07106-.376948-.01391-.604655.09427-.375583.189493-.414014 1.025878-.414014.919203 0 .921862.0016.886425.508037-.03254.465551-.08753.508066-.65715.508374-.341883.000186-.734517.04366-.872513.09662-.137996.05295-.303924.01049-.368727-.09436zm14.045691-.10051c.05655-.147425.102859-.505829.102859-.796452 0-.644916.244135-.448177.479822.386667l.167444.593103.01531-.52763c.01038-.358012-.128332-.67125-.431466-.974384-.506088-.506085-.347584-.594032.246651-.136858.25788.198396.425786.546698.488327 1.012979l.09531.710622h-.633541c-.508092 0-.613181-.05308-.530688-.268047zm-30.5690269-1.017665c0-.581123.3437196-.917246.9379809-.917246.322927 0 .587141.06444.587141.143194 0 .200885-.507649.602147-1.0591129.837155-.3929317.167449-.466009.157553-.466009-.06311zm9.8285589-.698549c-.139802-.0514-.380164-.202954-.534138-.336778-.153972-.133823-.38274-.229222-.508373-.211997-.821675.112658-.894279-.0081-.30675-.5103247.670541-.5731496.840888-.6241079.840888-.2515449 0 .1494603.348735.4247777.804925.6354674.740492.3419942 1.113529.3760602 4.660093.4255722 2.232329.03117 3.855166.120331 3.855166.211822 0 .167533-8.361432.203384-8.811811.03778zm5.083738-1.2199672c.636903-.5658709.949772-.7509798.988086-.5846018.04428.1922901.347077.2331723 1.440395.1944758 1.755537-.062132 1.748512-.3554515-.01159-.4839302-.789736-.057646.225222-.108437 2.539756-.1270937l3.855167-.031077v.9320187.9320194l-4.871915-.0019-4.871914-.0019.932018-.828075zm5.317812-.0889c.244064-.3199879.443757-.6250122.443757-.6778308 0-.05282-.266897-.096037-.593102-.096037-.578979 0-.593102.01614-.593102.6778324 0 .372807.06721.6778319.149345.6778319.08214 0 .349038-.2618088.593102-.5817965zm1.629967-.180764c0-.7173524-.135537-.7392024-.730861-.1178213-.592845.6188014-.574996.7109241.137753.7109241.564863 0 .593108-.028243.593108-.5931028zm14.161894-.7505426.440612-.6658129-.575495-.9864013-.575495-.9864021-.946501-.0502962c-.772459-.041048-.96241-.1111543-1.033054-.3812807-.116918-.4471095-.79902-.4412082-.916469.00793-.07627.291641-.233612.3396679-1.127978.3443056-.643994.00333-1.164472.1000288-1.368289.2541869-.2776.2099656-1.487609.2487973-7.752702.2487973h-7.423759v-.4376974-.4376997l2.45284.046594c1.349068.025625 2.498048.00141 2.553301-.053857.05527-.055247.367406-.026746.693687.063343.43123.1190692.662536.1062829.847017-.046825.199436-.1655156.374035-.1671392.815287-.00758.403721.145987.692094.1533953 1.026208.026362.332571-.1264437.530495-.1220705.696115.015378.130682.1084561.361443.1359483.530124.063157.381279-.1645306.726806-.1634277 1.115066.00359.181138.077905.47776.041599.720197-.08815.340231-.1820872.486783-.1806993.83928.00795.328106.1755942.473397.18223.626995.028635.111282-.1112767.673269-.1999191 1.267511-.1999191h1.067588v-.6439414c0-.8593551.237564-1.0506394 1.304825-1.0506394.751888 0 .898126.049668.898126.3050243 0 .5324632.369821.7117233 1.468325.7117233.892266 0 1.090888.054696 1.245113.3428678.157544.2943623.227784.3118516.496513.1236263.20976-.1469215.63707-.1901488 1.295429-.1310449l.982418.088196.636014 1.2709346c.632177 1.2632779.743208 1.7699682.547699 2.4995041-.09678.3611055-.186448.3812799-1.694674.3812799h-1.592486zm-7.428092.2506222c-.255382-.1867432-.263471-.2468148-.056361-.4187111.194428-.1613579.264245-.1300161.356268.1599191.14711.4634945.07047.5296256-.299919.258792zm4.03888-4.5959219c-.406379-.4063769-.321395-.5807386.284446-.5835932.302904-.00141.661011-.072362.795791-.157634.359144-.2272173.856425.1016248.856425.5663364 0 .3366514-.06802.382381-.466013.3133152-.256304-.0444743-.569212-.2054791-.695359-.3577812-.203932-.2462251-.216748-.2346589-.115669.104368.136926.4592721-.248201.5264101-.659621.1149888z" fill="#273839" stroke-width=".169458"/></svg>