<svg height="128" viewBox="0 0 117.64564 33.866667" width="444.64499" xmlns="http://www.w3.org/2000/svg"><path d="m62.018524 30.58516c-.08406-.08406-.335017-.564693-.557687-1.068073-.36944-.835178-.404853-1.413096-.404853-6.606737v-5.6915l-1.74799-.807573c-.961396-.444166-2.478265-1.016464-3.370821-1.271773-1.591946-.455366-1.878456-.465565-15.054257-.535878l-13.431426-.071673v-1.002723c0-.551497-.06082-1.30682-.135153-1.678496l-.135158-.675775-3.85797.06939c-2.121884.03816-5.988434.05055-8.592331.02754-4.384259-.03876-4.729249-.06869-4.665241-.404856.05742-.301604.367037-.380557 1.830267-.466729 1.380837-.08132 1.761232-.17091 1.761536-.4148704.000333-.2737112 1.285829-.3003454 10.682909-.2213418 33.498901.2816342 36.093329.2764532 36.093329-.072087 0-.2879459.461452-.3288768 3.707752-.3288768 3.796144 0 5.21788.2287099 5.74232.923747.149642.198318.840855.323171 2.178068.393421 1.077375.0566 2.344656.165536 2.816186.242083.54197.08798.908904.05571.997558-.08773.0876-.141735.986573-.226908 2.394965-.226908 1.727623 0 2.327467-.07274 2.565883-.311152.403717-.4037235 1.369221-.397912 1.954106.01176.253563.177603.461027.263104.461027.190004s.363481.15497.807731.506825c.444258.351855.910985.639736 1.037178.639736.126194 0 .229448.136084.229448.302408 0 .166326.404916.539709.89982.829741.811529.475585 1.116867.527333 3.111524.527333h2.211711v-.950745c0-1.187595.465192-1.162431.631691.03418.08137.584952.488517 1.291685 1.452051 2.520677l1.338935 1.707821 7.928288.0035 7.9283.0035-.0458 2.229927c-.0407 1.982669-.094 2.269079-.48072 2.583008-.36229.294092-.45763.672451-.57066 2.264707-.0746 1.051395-.18101 1.956962-.23642 2.012367-.0554.05541-2.64566-.811347-5.75612-1.926122-3.11045-1.114773-5.854125-2.027538-6.097038-2.028364-.337455-.0012-.501903-.203394-.696969-.857173-.309578-1.037591-1.670536-2.411434-2.388821-2.411434-.276203 0-.975818.186691-1.554713.41487-.578894.228179-1.179494.414871-1.334676.414871-.155181 0-.845573-.869744-1.534197-1.932764l-1.252055-1.932764-1.261839-.350823-1.261837-.350823-1.050256.532202c-.577641.292712-1.14026.5022-1.250264.465529-.110012-.03667-.552294-.718742-.982846-1.515717-.634834-1.175104-.888123-1.461464-1.339813-1.514731-.465951-.05495-.537499-.143308-.437781-.540627.213484-.850602-.915588-1.521172-1.528799-.907966-.343872.343879-.311908 1.100049.0595 1.408324.185919.154297.529941.20041.865966.116072.488648-.122642.524273-.09988.288452.184272-.227738.274402-.912968.324197-4.461324.324197h-4.19226l-.812643 1.815057-.812642 1.815057-.103718 6.119338c-.09653 5.695341-.133254 6.169641-.529997 6.845359l-.426279.726023-3.735183.05638c-2.054348.03101-3.803956-.01239-3.888017-.09645zm4.135197-1.192758c.06996-.278741.06623-.605452-.0083-.726023-.08047-.130224-.972676-.219226-2.197591-.219226-2.205811 0-2.368428.09266-1.739194.991019.290239.414373.499752.461027 2.070399.461027 1.680144 0 1.752387-.01954 1.874683-.506797zm2.261164-.702365 1.551942.06827.117913-.829741c.06486-.456357.09018-3.07004.0563-5.808184l-.06161-4.978443-1.166883-.06143c-.966417-.05088-1.191257.0026-1.308758.311153-.113774.298786-.09014.321228.119333.113297.143667-.142611.6626-.259295 1.153185-.259295h.89197v5.393314 5.393314h-.89197c-.490585 0-1.017726-.116682-1.171425-.259293-.227344-.210945-.257269-.195872-.16049.08084.0879.251327-.03954.37184-.488059.461543-.500641.100129-.604714.222281-.593869.697037.0129.565308.01661.566967.206821.09249.182394-.455004.284043-.479162 1.745617-.414869zm-6.321726-6.051068c0-4.655766-.04255-5.393314-.311152-5.393314s-.311153.737548-.311153 5.393314.04255 5.393314.311153 5.393314c.268601 0 .311152-.737548.311152-5.393314zm4.978443 3.015841c0-.26601-.345571-.319184-2.074351-.319184h-2.07435v1.037175c0 .570447.07067 1.037176.157072 1.037176.08639 0 .123661-.420055.08283-.933458l-.07424-.933458h1.784088c2.017723 0 2.183101.162405 1.16178 1.140893-.342268.327914-.619972.695424-.61712.816691.0082.347496 1.654295-1.489219 1.654296-1.845835zm.56988-5.4415c-.03619-1.346986-.06592-.302113-.06606 2.321942-.000145 2.624054.02946 3.726134.0658 2.449066.03633-1.277069.03645-3.424022.000207-4.771008zm-.777314 4.283325c.257857-.174303.153792-.352998-.607542-1.043244-.869969-.788735-.979991-.829671-2.074352-.771808-1.144843.06054-1.156278.0676-1.222131.755015-.115749 1.208281-.01452 1.277039 1.875023 1.273546.944818-.0016 1.857868-.09783 2.029002-.213509zm-3.733833-.82049c0-.620081.0043-.622306 1.205802-.622306 1.068999 0 1.273443.0706 1.802008.622306l.596206.622306h-1.802008-1.802008zm45.797545-2.5452c.049-2.231909.008-2.668252-.26194-2.771724-.73194-.280871-.93705.294516-.93705 2.628701 0 2.580793.0887 2.942073.70057 2.854766.41899-.05978.44315-.191207.49842-2.711743zm-2.27766 1.881407c.33039-.330382.33039-3.113041 0-3.443423-.17495-.17496-1.34602-.248922-3.94125-.248922h-3.69235v.589008c0 .618389.620434 1.070473 1.4691 1.070473.22682 0 .62533.139515.88559.310034.41576.272422.52183.273223.87429.0066.61822-.467654.89216-.377176 1.08256.357533.14798.571127.27312.677334.81869.694907.35421.0114.95501.219864 1.33515.463235.81175.519714.84361.525183 1.16822.200558zm-.96082-.311918-.4497-.372618.67415-1.030234.67415-1.030235.0638 1.114577c.0804 1.404503-.27348 1.88936-.96242 1.31851zm-1.99581-.639506c-.16729-.167294-.13178-1.76879.0453-2.045702.21248-.332163 2.44837-.593029 2.62557-.306329.0758.122645-.18706.705392-.58412 1.294992-.57456.853174-.84966 1.082049-1.34765 1.121226-.34415.02707-.67677-.0018-.73914-.06419zm-2.46675-1.253351c-.18882-.208638-.34331-.535349-.34331-.726022 0-.287871.22543-.346678 1.32891-.346678 1.22678 0 1.32058.03188 1.22042.41487-.0597.228179-.27287.41487-.47377.41487s-.48148.14002-.62352.311153c-.34351.413915-.69183.392493-1.10873-.06819zm-1.743494-.38034c-.142614-.05755-.259291-.289454-.259291-.515354 0-.338427.118668-.399285.67416-.345725.516715.04982.689655.174008.740455.53173.0529.372423-.0309.46342-.41488.450354-.264633-.009-.59783-.06346-.740444-.121005zm-34.170308.940702c.510853-.470887.928824-.937617.928824-1.037176 0-.09956-.746767-.181016-1.659481-.181016h-1.65948v1.037176 1.037176h.730656c.567874 0 .937591-.190744 1.659481-.85616zm-2.182703-.181016v-.829741l1.503905.0052 1.503905.0052-.873568.824554c-.623548.588565-1.053971.824555-1.503904.824555-.597104 0-.630338-.04375-.630338-.82974zm3.111527-1.951317c0-.160511-.463681-.680054-1.030405-1.154541-.828096-.693322-1.164101-.849844-1.71134-.797198-.665533.06402-.682353.09014-.743634 1.15454l-.0627 1.089034h1.774039c1.386447 0 1.774039-.06376 1.77404-.291835zm-3.111527-.74534c0-.785994.03324-.829741.630338-.829741.449933 0 .880356.23599 1.503904.824555l.873568.824554-1.503905.0052-1.503905.0052zm28.833481.311152c0-.171133-.140011-.311152-.311148-.311152-.323922 0-.41155.245334-.17286.484015.238681.238682.484008.151063.484008-.172863zm14.416744-1.037175c0-.391373-.15766-.418162-2.78373-.472995-2.80752-.05862-3.29555.04875-3.05625.672368.10931.284851.52511.322931 2.9835.273238 2.69895-.05456 2.85648-.08062 2.85648-.472611zm-34.976884-3.215244.782031-1.763199 3.361951-.05703 3.36195-.05703.204794-.538647c.319036-.839132-.06003-1.11049-1.551235-1.11049-.704795 0-1.376728.09529-1.493187.211745-.13826.138259-1.344008.162922-3.474344.07107-2.865277-.123545-3.28737-.186962-3.466007-.52075-.450825-.8423716-1.239626-1.0066712-4.833044-1.0066712-3.398717 0-3.420218.00293-3.825846.5185882-.300383.381874-.605122.518588-1.155949.518588h-.748028v1.745245 1.745245l1.267259 1.058897 1.267259 1.058897 4.760184-.05562 4.760182-.05562zm-11.549114.355159c-.862707-.879035-.872929-.906969-.872929-2.385505v-1.496052h.724265c.499612 0 .804631-.128685.983355-.41487.242384-.388117.483745-.414871 3.742889-.414871 2.857625 0 3.575696.06021 3.995087.33501.28121.184255.51129.464294.51129.622306 0 .226426.458872.287296 2.165827.287296 1.220127 0 2.221806.09058 2.29403.207434.16704.27028 2.529615.27028 2.696656 0 .138797-.224578 2.647095-.291569 2.862222-.07644.07205.07204.03765.305411-.07644.518588-.189502.354088-.498781.387596-3.577491.387596h-3.370058l-.753825 1.659481-.753826 1.659482h-4.849062-4.849057zm-21.527544-2.34061c.179284-.179283.32597-.452654.32597-.607489 0-.395059-.582839-.933458-1.010506-.933458-.820389 0-1.191648 1.236173-.493399 1.642866.512079.298258.802921.273095 1.177935-.101919zm-1.1842-.356038c-.164475-.428614.156697-.821424.601569-.73575.551123.106138.510547.881971-.05031.961996-.242181.03455-.490247-.06725-.551255-.226246zm20.06111.224899c.272823-.389509.278566-.519885.03884-.881599-.375844-.567093-.900976-.643923-1.388092-.203089-.488898.442445-.499983.672005-.05613 1.162451.460796.509176 1.015791.478467 1.405389-.07777zm-1.258576-.268309c-.07168-.186805-.03451-.435471.08261-.55259.33814-.33814.983035-.110245.983035.34739 0 .527646-.877102.69654-1.065647.2052zm-1.63101-.311758c0-.2695-.956276-.318466-7.143371-.365781-4.186434-.03201-7.222904.0249-7.335504.137503-.582353.582352.216984.647529 7.284397.593961 6.232565-.04724 7.194478-.09613 7.194478-.365683zm-18.565046-.103718c-.000622-.331728-6.892118-.275796-7.002996.05684-.06955.208652.658178.252311 3.457654.207436 2.187992-.03507 3.54559-.136271 3.545342-.264274zm74.558214 14.465426c-.14327-.09847-.18992-.901912-.13178-2.270345.083-1.953708.12834-2.143084.58477-2.442145.48939-.320665.49479-.362753.49479-3.859453 0-2.086105-.0898-3.703104-.21915-3.944733-.21148-.395169-.1553-.407379 1.60762-.349374l1.82678.06011-.0213.726023c-.12091 4.115235-.32453 9.064513-.41575 10.105274-.10361 1.18224-.16969 1.324319-.7959 1.711339-.68679.42446-2.46326.584103-2.93005.263308zm3.37332-4.14158c-.0526-.201828-.0991-.08692-.10331.255346-.004.342269.0388.5074.0956.36696.0568-.140441.0603-.420478.008-.622306zm.0637-1.416377c0-.439355-.084-.686358-.20743-.610064-.34391.212541-.22741 1.348329.13828 1.348329.038 0 .0691-.332219.0691-.738265zm.20744-1.750956c0-.214713-.0934-.448077-.20744-.518588-.12135-.075-.20743.140216-.20743.518588 0 .37837.0861.593585.20743.518587.11409-.07051.20744-.303876.20744-.518587zm0-1.659482c0-.342268-.0934-.622306-.20744-.622306-.23073 0-.28629.889167-.0691 1.106321.23436.234355.27658.160458.27658-.484015zm0-1.67837c0-.09654-.14002-.121796-.31116-.05612-.17113.06566-.31115.260862-.31115.433759 0 .255911.0578.266346.31115.05612.17114-.142028.31116-.33722.31116-.433759zm-80.488749 8.830199c-.198994-.239773-.236963-1.2338-.157659-4.127557l.104459-3.81172-.645619-.579126c-.632777-.567605-.689983-.577953-2.875549-.520199-1.927056.05092-2.229927.01401-2.229927-.271761 0-.296668.78957-.330688 7.6751-.330688s7.675099.03401 7.675099.330688c0 .286854-.30509.32165-2.301675.262509l-2.301675-.06817-.62182.695939c-.484496.542245-.592445.816402-.488801 1.241397.210399.862725.497208 3.936157.513351 5.50103.01894 1.835292-.153399 1.978125-2.397223 1.986906-1.26275.0049-1.751733-.07268-1.948061-.309241zm2.717511-.513904c.107697 0 .190469-1.435878.190469-3.304145 0-2.727189-.05692-3.361066-.325969-3.630115-.487293-.487293-1.071401-.394785-1.484307.235077-.309482.472098-.367793 1.038884-.367793 3.575012v3.013963l.622306.133654c.342268.07351.746621.09831.898565.0551.151943-.04321.36197-.07855.466729-.07855zm-1.608819-.466729c-.2337-.368843-.06913-5.599946.185989-5.911901.358847-.438794 1.135811-.312399 1.27512.207434.162732.607234.160965 2.120903-.0049 4.25242-.132584 1.703179-.135982 1.711341-.712537 1.711341-.318624 0-.653249-.116682-.743609-.259294zm54.549889.444736c-1.013047-.292968-.984739-.527915.09608-.797289 2.396873-.597375 2.473287-1.218472.539305-4.382951-1.245401-2.037786-1.464119-2.286249-2.29035-2.601786-.890411-.340054-.93956-.336623-1.948655.136014-.569369.266676-1.132413.601991-1.251221.745143-.223536.269347-.807981.166652-.807981-.141974 0-.0963.609322-.515842 1.354042-.932317 1.40679-.786722 1.349958-.781748 3.248364-.284271.680435.178307.883526.407791 1.839811 2.078866.591221 1.033139 1.200242 1.926514 1.353372 1.985279.153139.05876.990997-.104692 1.861904-.363235 1.460274-.433508 1.6263-.445072 2.134185-.148644.606099.353765 1.484168 1.868456 1.484168 2.560239 0 .489115-.000784.489475-4.036377 1.658041-2.69347.77995-2.609755.768506-3.576651.488885zm4.493958-2.769295c.313733-.378025.109928-.73511-.419567-.73511-.252137 0-.40263.142145-.40263.380298 0 .679253.407129.854944.822197.354812zm-5.884688 1.419405c-.210305-.548035-2.400852-4.041925-2.854816-4.553388-.570475-.642722-.474504-.865795.605215-1.406826.869479-.435679 1.081043-.466305 1.799537-.260498.733456.210095.95463.457426 2.229925 2.493636.77864 1.243225 1.415718 2.476874 1.415718 2.741444 0 .638817-.740515 1.097314-2.016283 1.248411-.879915.104212-1.053301.06557-1.179296-.262779zm-16.378116-1.883574c-.212509-.21251-.153647-1.516814.121953-2.702229.189302-.814239.348911-1.095109.622306-1.095109.511054 0 .478053.826431-.0701 1.755488-.280965.476199-.404822.966748-.345738 1.369317.0903.615226-.06589.93506-.328417.672533zm7.023863-.9392c-.342269-.12135-.870081-.394017-1.172915-.605929-.302836-.211911-.788559-.385293-1.079387-.385293-.525529 0-.526638-.0038-.180743-.606416.329624-.574333.327412-.629204-.0418-1.037176-.387624-.42832-.385688-.43076.341828-.43076.687052 0 .739363.04816.857972.789901.191457 1.197309.91843 1.758274 2.419296 1.866836 1.634685.118243 1.863552-.08377 1.863552-1.64496 0-.674517-.09267-1.219211-.207433-1.219211-.114088 0-.207432.402214-.207432.893811 0 .491596-.138369 1.075007-.307487 1.296469-.288342.377581-.300071.362778-.188279-.237662.09195-.493882.000415-.778519-.400408-1.244611l-.519625-.604289h-4.166698c-2.291684 0-4.16676-.02567-4.166831-.05704-.00007-.03137.327757-.708128.728503-1.503904l.72863-1.446868h4.057195c3.387928 0 4.110234-.05304 4.378709-.321514.544602-.544601.938111-.255639 1.77779 1.305456.720001 1.33859.773909 1.53616.495218 1.81485-.172003.172004-.440753.312734-.597217.312734-.520534 0-.782329.487689-.782329 1.457375 0 1.328187-.580064 1.867669-1.984 1.845212-.563097-.009-1.303847-.115663-1.646114-.237014zm-4.17478-1.295531c-.220236-.573925.0261-.694432.398772-.195079.325183.435723.330964.499388.04535.499388-.180042 0-.379895-.136939-.44412-.304309zm-.077639-1.239212c0-.177868.09335-.323395.207436-.323395.114089 0 .207435.08784.207435.195193 0 .107356-.09335.252884-.207435.323394-.11409.07051-.207436-.01732-.207436-.195192zm19.754418-2.449605c-.702761-.864042-1.315713-1.856933-1.440656-2.333645-.119608-.456358-.285254-.993097-.368099-1.192753-.141717-.341546.264955-.363011 6.877435-.363011h7.028062l2.43243 2.298839c1.46025 1.380059 2.43243 2.457836 2.43243 2.696657 0 .385143-.25072.397818-7.86921.397818h-7.869213zm2.774849.772567c.322017-.49145.31981-.54984-.03569-.94259-.464235-.512978-1.083884-.448259-1.482264.154818-.268066.4058-.254722.495074.131805.881598.569637.569637.969095.542597 1.386093-.09383zm11.786433.197932c.17928-.179282.32597-.452652.32597-.607488 0-.725567-1.10813-1.194393-1.618-.684536-.50985.509858-.041 1.617995.68454 1.617995.15483 0 .42821-.146687.60749-.325971zm-85.241029-.687887-1.037175-.368894-.06095-1.486693-.06095-1.486694 2.187156-.03112c1.202938-.01711 2.30384-.04044 2.446451-.05187.371602-.02973.325854 2.304668-.06057 3.090783-.27371.556818-.414863.626571-1.341345.662835-.569752.02231-1.501918-.125381-2.072622-.328364zm3.09671-1.593898c.435649-.435649.410708-.777656-.08974-1.230557-.844096-.763896-2.00796.501925-1.202282 1.307604.344523.344523.903806.311172 1.292024-.07704zm-1.210891-.265754c-.231957-.375312.126695-.883817.577947-.819432.603585.08612.597988.8701-.0068.956288-.245934.03505-.502939-.02654-.571118-.136856zm-13.416301.954735c-.01688-.834643-.02745-.8494-.19861-.277068-.09943.332493-.132571.682539-.07364.777882.138351.223856.02086.218456-.629867-.02895-.479003-.182117-.531775-.311471-.528916-1.29647.0051-1.747661-.0823-1.70752 3.878294-1.781695l3.482477-.06523v1.620984 1.620984l-.726023.143622c-.399313.07899-1.72949.149002-2.955951.155576l-2.229927.01196zm98.248131.06467c-.78601-.807652-.7989-.842276-.31115-.835951.76674.0099 1.27682.490645 1.19848 1.129434l-.0673.549065zm-92.090644-.808719c-.199078-1.759625-.0701-1.970634 1.098247-1.796752.525681.07823.968292.15685.983579.174701.01529.01785.06638.662539.113548 1.432641l.08576 1.400188h-1.072072-1.072072zm3.082652.07324c-.164443-1.316148-.0387-1.811473.415573-1.63715.444938.17074.466314 2.774685.02277 2.774685-.203389 0-.340769-.356508-.438352-1.137535zm-11.9116667.528868c-.3022181-.564699-.2672233-1.090997.1081813-1.626962.561226-.801263.8169219-.559777.8309652.784783.011051 1.058092-.04197 1.243413-.3557127 1.243413-.2027852 0-.4653303-.180556-.5834338-.401234zm11.4697007-.947095c.000948-.798625.03842-1.099917.08332-.669537.04491.430379.04415 1.0838-.0016 1.452046-.04581.368246-.08256.01612-.08164-.782509zm59.407695-.785724c-.164476-.428614.1567-.821424.601569-.73575.551126.106138.510546.881971-.05033.961996-.24218.03455-.490247-.06725-.551251-.226246zm-5.750059-1.703497c-.285223-.163048-.73225-.299759-.993393-.303802-.462702-.0072-.473277-.05361-.41487-1.822408l.05994-1.8150574 1.956252-.060141 1.95625-.060141 1.207136 1.1945386c.663918.6569958 1.205586 1.1041144 1.203705.993597-.0016-.1105187-.438289-.6209989-.969783-1.1344002-.777619-.7511476-.893431-.9475319-.592981-1.0055154.589985-.1138598 3.018233 2.400873 3.018233 3.1257325 0 .4506999-.09683.5764399-.443865.5764399-.244117 0-.567864-.163355-.719421-.3630119-.262446-.345725-.275883-.345725-.282164 0-.0055.3150459-.226734.3630119-1.672588.3630119-1.289525 0-1.692973.07031-1.785392.311153-.149277.389007-.846563.389007-1.527061 0zm.207435-.5467833c0-.1599303.29989-.1945266.933459-.1076859l.933458.1279449-.020679-.8776309c-.016611-.7048098-.048866-.7755116-.163842-.3590429-.118981.4309852-.288008.5292316-1.000609.5815966-.754105.055416-.868457.00543-.948804-.4148697-.0515-.269409-.103679-.093291-.119606.4037192-.01553.4848799.06511.881599.17919.881599.11409 0 .207436-.106033.207437-.2356303zm-.944409-3.1010491c-.06679-.1080667-.209851-.1418394-.317919-.075053-.108068.066789-.141839.2098535-.07505.3179202.06679.1080675.209852.1418401.317919.075053.108068-.066789.141841-.2098528.07505-.3179202zm-3.204293 3.1482884c0-.4670228-2.575524-1.0562192-4.616995-1.0562192h-2.047217l.065-.6741646.065-.6741644 2.248219-.059059c1.674937-.043999 2.383147-.1474693 2.777356-.4057651.37323-.2445497.994312-.3493856 2.107918-.3558081l1.578782-.0091.06025 1.7113402.06025 1.7113402h-1.149274c-.632104 0-1.149281-.08478-1.149281-.188391zm.82974-.2264787c0-.1140895-.09335-.2074347-.207435-.2074347-.11409 0-.207436.093345-.207436.2074347 0 .1140895.09335.2074355.207436.2074355.114089 0 .207435-.093346.207435-.2074355zm1.244611.034574c0-.2700961-.246593-.449726-.447187-.325753-.214533.1325892-.02955.4986155.251995.4986155.107355 0 .195192-.077793.195192-.1728625zm-68.9358143-.171062c-.0750686-.0750686-.0547315-.2384253.0451902-.3630119.0999248-.1245858.2465678-.5299718.3258724-.9008568.110225-.5154923.0670012-.7039534-.1834819-.800075-.9445973-.3624761.0573344-.496223 3.7173126-.496223h4.044986v1.3483279 1.3483285h-3.9066958c-2.148682 0-3.9681157-.061416-4.0431859-.1364897zm1.8937684-1.2636977c-.0455194-.709447-.1503411-.9853163-.3743765-.9853163-.2240363 0-.3288548.2758693-.3743774.9853163-.056731.8840686-.018259.9853172.3743774.9853172.3926345 0 .4311049-.1012486.3743765-.9853172zm1.6524371.4019064c.0451588-.135481-.0656841-.2463294-.2463287-.2463294-.1806414 0-.3284393.1477978-.3284393.3284385 0 .3663153.4465579.3025213.574768-.082109zm1.2446116 0c.0451588-.135481-.0656841-.2463294-.2463294-.2463294-.1806414 0-.3284393.1477978-.3284393.3284385 0 .3663153.4465577.3025213.5747687-.082109zm1.2921481.064821c0-.1711346-.1400186-.3111527-.3111528-.3111527-.323925 0-.4115441.245333-.1728626.4840152.2386822.2386814.4840154.1510624.4840154-.1728625zm-2.904092-1.037176c0-.1711338-.1400189-.3111527-.3111526-.3111527-.3239258 0-.4115449.2453337-.1728626.4840152.2386815.2386822.4840152.1510624.4840152-.1728625zm1.0371752 0c0-.1711338-.1400182-.3111527-.3111527-.3111527-.323925 0-.411544.2453337-.1728626.4840152.2386823.2386822.4840153.1510624.4840153-.1728625zm1.2446112 0c0-.1711338-.1400181-.3111527-.3111531-.3111527-.3239249 0-.411544.2453337-.1728625.4840152.2386826.2386822.4840156.1510624.4840156-.1728625zm1.1970742-.064821c.0451585-.1354811-.0656913-.2463295-.2463297-.2463295-.1806409 0-.3284389.1477978-.3284389.3284393 0 .3663154.4465582.3025208.5747686-.08211zm1.9198045.7389876.0053-1.2964698.788629-.3630116c.433748-.1996559.876216-.3630108.983264-.3630108.10705 0 .207711.5688494.223694 1.2641106.03375 1.4683242-.361284 2.054851-1.383984 2.054851h-.622306l.0053-1.2964694zm8.911298.7741935c-.189728-.2286086-.969062-.3100277-3.388769-.3540332l-3.142376-.057146-.06223-1.3145814c-.03742-.7906191.0347-1.43138.180977-1.6076224.194103-.2338802 1.05022-.2930414 4.240594-.2930414 4.364117 0 4.249214.033516 4.249214-1.239383 0-.6291224.303093-.8349681 1.229428-.8349681.623169 0 1.172722.4848729 1.293079 1.140893.05196.2832201.239777.4148705.591863.4148705.4287 0 .526599-.1121914.580044-.6647351l.06429-.6647358h4.233565c2.607354 0 4.282965.079928 4.362165.2080793.08039.1300707.218886.1355517.369428.014622.365858-.2938983 6.147652-.2965686 6.501376-.00298.220597.1830782.349487.1834608.53137.00157.314347-.3143468 1.457676-.3086846 1.775152.00879.193605.1936057.304239.1936057.497844 0 .304376-.3043758 3.899781-.347359 3.899781-.046625 0 .1314443.186366.1314443.532092 0 .70602-.2684291 1.612248-.2567732 1.893372.024352.163913.1639123.343882.1639123.650156 0 .232927-.1246586 1.166194-.2266524 2.073926-.2266524h1.650425l.08476.7260231.08476.7260225-13.597208.035641-13.597208.035641 9.749452.1718504c14.281159.2517297 16.905965.3623703 16.905965.7126214 0 .1588703.186691.2888548.414869.2888548.228179 0 .414871.086678.414871.1926187 0 .1059397.146686.3393048.32597.5185876.296335.2963357.14076.3254459-1.71134.3202071-1.982119-.00557-2.0537-.022461-2.64233-.6223053-.332759-.3390987-.674508-.616543-.75944-.616543-.08493 0-.390059.2800379-.67806.6223054-.668529.7945072-1.089455.7843865-1.947039-.0468167-.753948-.730754-1.203885-.6693944-1.608513.2193573-.301911.6631419-1.103173.5697863-1.926027-.2244024l-.698496-.6741643-.604923.6741643c-.768915.8569265-1.422462.8736219-2.030018.051862-.253051-.3422684-.581043-.6223055-.728874-.6223055-.351521 0-1.21596.9229132-1.034449 1.1044234.0771.077107-.137945.1401874-.477881.1401874-.415964 0-.813026-.203492-1.214276-.6223053-.691439-.7217082-.947053-.7654471-1.419896-.2429606-.450563.4978678-.433161.6578303.07156.6578303.35169 0 .414871.1382902.414871.9080595 0 1.1484529-.318169 1.41512-1.591507 1.3338933l-1.001431-.063881-.064519-1.0171074c-.041548-.6549192.028376-1.0745213.19636-1.1783395.191848-.1185693.126589-.2729958-.24663-.5836139-.279129-.2323106-.554182-.4227521-.611226-.4232029-.057045-.0004563-.407092.2751644-.777883.6124802-.570454.5189545-.674164.7573467-.674164 1.5496828 0 .9021354-.02276.9363825-.622305.9363825-.608476 0-.622305-.023049-.622305-1.037176 0-.655799.08957-1.0371759.243593-1.0371759.133978 0 .02436-.2333644-.243593-.5185876-.599647-.6382961-.782086-.6387077-1.503905-.00337-.480661.4230571-.570447.6668973-.570447 1.5492092 0 .9786442-.03392 1.0471256-.518587 1.0471256-.481134 0-.518589-.071906-.518589-.9956885 0-.5476288-.112015-1.1077037-.248921-1.2446108-.193605-.1936066-.05804-.2489222.610063-.2489222.472441 0 .916675-.093346.987187-.2074357.0832-.1346225-.920587-.2074348-2.859701-.2074348-2.706678 0-3.022618.038361-3.356767.4075926-.364264.4025075-.34077.4083311 1.882927.4667294l2.251794.059138-.06699.9334581c-.03685.5134025-.08185.9438912-.100022.9566433-.01817.012749-1.448473.078716-3.178466.1465972-2.585558.1014469-3.189294.07057-3.391828-.173471zm2.016372-1.1890634c-.04944-.2567011-.0899-.046672-.0899.4667289 0 .5134022.04045.7234309.0899.4667294.04944-.256701.04944-.6767573 0-.9334583zm-4.779059-1.1944634.449494-.8280296h-.484436c-.326267 0-.625414.2281091-.916225.6986488-.542356.8775514-.539307.9612268.03495.959121.330128-.00117.598286-.2440558.916224-.8297402zm1.521138.00172.423301-.8297403-.470944.00157c-.33118.00109-.611297.2473698-.943869.8297403l-.472922.8281432h.520566c.398486 0 .619836-.194585.943868-.8297403zm1.580956.015508c.425062-.7831695.426731-.8142961.04898-.9130794-.2866-.074951-.559232.1421263-1.020475.8125204l-.629393.9147893.580412-.00172c.46075-.00134.671139-.1688743 1.020475-.8125204zm11.8371-.2591159c.264055-.2480668.480099-.5047679.480099-.570448 0-.065677-.466729-.1194168-1.037176-.1194168s-1.037176.040659-1.037176.090348c0 .1309025.882491 1.0505448 1.008106 1.0505448.05832 0 .322093-.2029629.586147-.451028zm3.79906-.570448c0-.065677-.420056-.1194168-.933458-.1194168-.513401 0-.933458.040659-.933458.090348 0 .04969.203455.3069152.452121.5716092l.452123.4812656.481337-.4521924c.264734-.2487058.481335-.5059298.481335-.5716099zm3.0463.5704472c.264054-.248066.480171-.5047671.48026-.5704472.000122-.091274-1.503778-.1124126-2.058812-.028938-.11821.017781.857399 1.0504131.992404 1.0504131.05833 0 .322094-.2029629.586148-.4510279zm3.772581-.2430876c.21269-.2562761.09255-.312843-.795072-.3743366-.575093-.039843-1.045564-.031784-1.045493.017907.00007.04969.199701.3027827.443623.5624262.463128.4929772.86617.433544 1.396942-.2059979zm3.138007.1755289.487188-.5185883h-1.109493-1.109495l.487189.5185883c.267954.2852233.547991.5185876.622306.5185876.07431 0 .35435-.2333643.622305-.5185876zm3.526397 0 .487189-.5185883h-1.109495-1.109493l.487188.5185883c.267955.2852233.547991.5185876.622305.5185876.07432 0 .354352-.2333643.622306-.5185876zm-25.968304-2.025499c.08256-.4286809-.516267-.7175388-.832316-.4014891-.31605.3160504-.02719.914874.401488.8323181.198692-.038267.392565-.2321374.430828-.430829zm13.314759 3.892419c0-.8758375.07229-1.1408938.311153-1.1408938.171135 0 .311153.093346.311153.2074357 0 .1354387 3.491825.2074348 10.060605.2074348h10.060605v.8297406.8297409h-.897533c-.871067 0-.894944-.017627-.809802-.5977407.04825-.3287579-.01458-.6609768-.139643-.7382658-.149686-.092511-.227293.1294364-.227138.6496001l.000239.7901237-4.2008-.063691c-2.31044-.0350311-4.289477-.1517169-4.397861-.2592959-.111217-.1103894-2.14896-.1955992-4.677664-.1955992-3.20833 0-4.55128-.070678-4.72952-.2489221-.162177-.1621781-.248922-.1710287-.248922-.025402 0 .5818532.677976.6824613 4.994602.7411723l4.443697.060442-4.926585.047512-4.926586.047504zm-7.882534-.1037178c0-1.0141278.01384-1.037176.622305-1.037176.608476 0 .622306.02305.622306 1.037176 0 1.0141276-.01384 1.037176-.622306 1.037176-.608476 0-.622305-.023049-.622305-1.037176zm3.318962 0c0-1.0141278.01383-1.037176.622305-1.037176.608476 0 .622306.02305.622306 1.037176 0 1.0141276-.01384 1.037176-.622306 1.037176-.608475 0-.622305-.023049-.622305-1.037176zm25.514523-.1951934c0-.6778022.07053-1.2759648.156759-1.3292499.08622-.053281.412927-.04791.726023.01194.543893.1039719.569265.1632138.569265 1.3292498v1.2204294h-.726024-.726023zm1.866916-.029526c0-1.0807887.490494-1.0091211.58297.08518.04897.5795138-.01309.7618472-.259295.7618472-.240431 0-.323675-.2178403-.323675-.8470272zm1.037176.2247214c0-.5992572.03457-.6223055.933458-.6223055.898885 0 .933458.02305.933458.6223055 0 .5992574-.03457.6223057-.933458.6223057-.898885 0-.933458-.02305-.933458-.6223057zm-3.993126-.9671207c.142611-.057546.375976-.057546.518587 0s.02593.1046273-.259294.1046273c-.285223 0-.401905-.04708-.259293-.1046273zm12.654436-1.159089c-.255493-.6947524.05943-.7778821 2.946946-.7778821 2.290411 0 2.912936.062093 3.11964.3111526.226309.2726878.02582.3111528-1.62184.3111528-1.034039 0-1.937764.093346-2.008276.2074356-.190106.3075973-2.320963.2622432-2.43647-.051862zm.362119-1.4001876c.07052-.1140895.337389-.2074348.593061-.2074348.560919 0 .962703-.3636067.962703-.8712276 0-.2725318.160266-.3733833.593354-.3733833.326342 0 1.009414-.057028 1.517935-.1267284.711484-.09752 1.005017-.046296 1.273563.2222518.427957.427958.472176 1.563958.06088 1.563958-.158458 0-.275139-.1597791-.259294-.3550642.015931-.1964203-.146636-.3911339-.363865-.4357933-.311023-.063944-.368979.00989-.278714.3550642.110427.4222661.04658.4357933-2.056928.4357933-1.394438 0-2.125037-.07419-2.042689-.2074357z" fill="#273839" stroke-width=".207435"/></svg>