<svg height="128" viewBox="0 0 101.54443 33.866667" width="383.79001" xmlns="http://www.w3.org/2000/svg"><path d="m58.78638 29.25631c-.537546-.789464-1.389402-2.02142-1.893014-2.73768-4.108055-5.84267-4.680025-6.773021-4.680025-7.612391v-.830267h-1.485401c-.915133 0-1.584399-.09765-1.743273-.254348-.206608-.203787-.310173-.18356-.520957.101738-.32879.445027-.690521.452103-1.164907.02279-.298638-.270263-.426218-.285229-.674552-.07913-.326548.271011-2.605961.344573-3.211396.103639-.494694-.196864-.98506.03049-1.111899.515525-.05871.224487-.301816.44794-.540249.496563-1.251836.255281-2.80671.383402-6.012767.49545-2.073471.07247-3.57081.208318-3.607958.327351-.03493.111914.991993.913805 2.282045 1.781979 1.931825 1.300076 2.442599 1.556738 2.89578 1.455127.628048-.140819 1.331702-.908233 2.095486-2.285366.571482-1.030406 1.222067-1.398111 2.088804-1.180574.757834.190205.679096.656086-.330986 1.958409-.477403.615525-1.265766 1.714314-1.751918 2.441753-.59812.894978-1.128469 1.437749-1.640282 1.678705-.887957.418038-2.205318.455016-2.704503.07591-.32753-.24874-.316496-.300473.15946-.74761.281238-.264209.485366-.595781.453619-.736824-.031747-.141047-1.566321-1.274937-3.410167-2.519759l-3.352451-2.263314-.573169.641489-.573169.641489-1.009229-.725058c-.757798-.544425-1.213683-.725058-1.829904-.725058-.787334 0-.836909.03927-1.220163.966527-.591233 1.430449-.70458 1.576966-1.219974 1.576966-.408016 0-.507812-.161986-.752168-1.220877-.154954-.671483-.246729-1.472682-.203941-1.780445.07693-.553358.06508-.559569-1.067145-.559569-.629716 0-1.254818-.109878-1.389114-.244175-.189915-.189913-.298438-.189913-.488351 0-.294895.294895-1.38366.326917-1.38366.0407 0-.111913-.137348-.203479-.30522-.203479-.16787 0-.305219.09157-.305219.203479 0 .312852-3.40075.263823-3.52844-.05087-.07424-.182949-.150396-.190806-.271307-.02799-.106151.142942-1.138053.237418-2.80008.256363-2.55327.0291-2.9487555-.05576-2.960589-.635336-.00169-.08394 5.124566-.152609 11.391731-.152609 9.604137 0 11.394847.04454 11.394847.283448 0 .475679.492358.530469 4.766872.530469 3.864731 0 4.14623-.0255 4.491442-.406959.35506-.392336.626709-.406958 7.560275-.406958 4.659001 0 7.191981.07166 7.191981.203479 0 .111913.457829.203479 1.017397.203479.559569 0 1.017398.09157 1.017398.20348 0 .124232.941265.203479 2.416838.203479 1.900065 0 2.470999-.06526 2.670147-.305218.323096-.389308.610438-.391517.610438-.0047 0 .165291.228247.450082.507215.63287.681526.446552 1.465473.22655 1.897323-.532456.280731-.493401.475953-.602079 1.083422-.603134.615792-.0011.761986.08237.865262.493849.06835.272325.303729.552095.523071.621712.542351.172134 1.228089-.228249 1.228089-.717049 0-.391264.188299-.3998 8.819823-.3998 10.244517 0 9.493322-.166303 9.493322 2.101687v1.357464h-1.017395-1.017395v.712177.712179h1.119139c1.084546 0 1.119213.0173 1.121904.559567.0015.307762.05692.761475.123088 1.008249.117905.439752.08833.447001-1.486133.364328-1.541295-.08093-1.634981-.05996-2.310479.517369-.387225.330947-.781822.601937-.876878.602199-.09505.000204-.827577-.680213-1.62783-1.51217l-1.45502-1.512645.864795-.739823c1.030172-.881314 1.109127-1.474024.305209-2.291225l-.559562-.568817-5.015314.107778c-4.558375.09796-5.054281.143095-5.443071.495405-.754721.683902-.55268 1.410492 1.131502 4.069179.857599 1.353822 1.704576 2.614702 1.882182 2.801955.426464.449632 1.468013.535494 2.139098.176341.525089-.281021.572986-.253632 1.955411 1.118199.779425.773452 1.417138 1.516523 1.417138 1.65127 0 .134746-.341344.526355-.758545.870245l-.758531.625252h-3.569998-3.569998l-.339862-.661309c-.186922-.36372-.367984-.805045-.40236-.980724-.03438-.175681-.978157-1.764032-2.097294-3.529674l-2.034794-3.210257-3.760621.1346c-2.06834.07403-3.79214.166123-3.830667.204649-.0615.0615 1.432959 2.295574 3.872671 5.789269l.77092 1.103968 3.340594-.05117c3.165578-.04849 3.352062-.02974 3.559511.357885.120405.224978.218919.506639.218919.62591 0 .14624-1.321659.216857-4.058758.216857h-4.058762zm1.52576-8.717916c.03375-.716072-.01689-1.380205-.112538-1.475852-.09565-.09565-1.016026-.114126-2.045288-.04107l-1.871386.132835v1.258234c0 .692029.03925 1.296387.08721 1.343016.04797.04663.940733.08478 1.983925.08478h1.89671zm15.809366 6.849425-1.56321-1.477889 1.778517-1.576965c.978187-.867332 1.89476-1.576965 2.036833-1.576965.142065 0 .863046.663852 1.602179 1.475225l1.343876 1.475225-1.072669.986424c-.589975.542534-1.407842 1.253366-1.817494 1.57963l-.744824.593205zm-44.896692-4.280868c-2.940546-2.028722-2.976463-2.062672-2.6727-2.526271.169343-.258452.398711-.469913.509705-.469913.208165 0 5.11914 3.294825 5.639019 3.783279.248003.23301.250485.351774.01648.789004-.151502.283086-.328661.506953-.393685.497479-.06502-.0095-1.459495-.942581-3.098825-2.073578zm55.503721.641009c-.26118-1.305916-.208767-1.39892.788486-1.39892.908035 0 .915651-.0058.915651-.701028 0-.691959-.01253-.701832-.966523-.763049l-.966524-.06202-.113562-1.458195c-.06245-.802008-.233915-1.603209-.381009-1.780445-.147094-.177237-.187555-.316017-.08992-.308397.09764.0076.749809.703251 1.449269 1.54585 1.178777 1.419999 1.271748 1.604933 1.271748 2.529641 0 .548702.06871.99705.152608.996328.08393-.000733.587549-.374111 1.119139-.82975 1.43187-1.227291 1.368774-1.469669-1.094617-4.205284l-2.061139-2.288911h-2.313665-2.313665v1.032317c0 .873265-.05485 1.021899-.356089.964697-.268316-.05095-.371373-.305426-.418108-1.032317-.03406-.530584-.126332-.964697-.204948-.964697-.07861 0-.111196.398964-.07247.886587.06798.855274.04748.891207-.583531 1.017396-.933472.186694-5.893651.162291-5.893651-.02899 0-.08789.618079-.474699 1.373491-.859566 1.129196-.575297 1.681113-.721589 3.103066-.822499l1.729573-.12274-1.903998-.0351c-1.845127-.03401-1.947313-.01151-3.305182.727956-.770644.419677-1.401796.880313-1.402542 1.023637-.000737.205847-1.048437.251564-4.985641.217622-4.923751-.04244-4.989664-.0487-5.427675-.514938-.638417-.679564-1.281848-.587268-2.383839.341946l-.965258.813918h-2.07257-2.072568v-1.627829-1.627835h1.831315 1.831315v-.620151-.620148l1.271746.06058 1.271746.06058.06202.966527c.056.872625.110357.966528.559568.966528.273654 0 .49755.09156.49755.20348 0 .130435 1.899141.203479 5.290465.203479 4.187772 0 5.290468-.05478 5.290468-.262831 0-.144558.505641-.51082 1.123647-.813917.981409-.48133 1.367756-.551088 3.052193-.551088 1.150039 0 1.928542-.08214 1.928542-.203478 0-.111914.137347-.20348.305217-.20348.167871 0 .305225.09157.305225.20348 0 .294121 2.975657.254719 3.456824-.04577.31495-.196686.451692-.196686.648382 0 .137082.13709.414061.249254.615514.249254.323974 0 .366264-.199711.366264-1.729574 0-1.60283-.0303-1.729575-.413346-1.729575-.227346 0-.466054.137347-.530477.305218-.151569.394996-.480534.394996-.480534 0 0-.247367-.327836-.305218-1.729573-.305218-1.401752 0-1.729581.05785-1.729581.305218 0 .447148-.341896.372489-.465913-.101739-.09791-.374397-.277548-.406958-2.245136-.406958-1.695452 0-2.337965-.08541-3.100042-.4120745-1.2006-.5146378-1.375446-.3982376-.354858.2362535.670095.416596 1.080705.490206 3.065133.549474 2.008093.05997 2.317152.116576 2.499775.457828.248638.464568.770408.51157.934422.08418.1679-.43755 2.556015-.421265 3.232597.02204.458924.300699.509656.300699.625047 0 .272121-.709145.489005-.262594.489005 1.006859v1.334119l-.602014-.355617c-.4792-.283069-.697131-.309381-1.068268-.128976-.790661.384328-2.764169.474608-3.097108.14168-.34402-.344022-.851449-.378832-1.041423-.07145-.08563.138541-.86851.199401-2.129427.165539l-1.994034-.05355-1.089139.75012c-.87973.605894-1.274632.750119-2.053902.750119h-.964765l-.0023-1.983924c-.0015-1.091158-.05899-2.327295-.128364-2.746972l-.126116-.763054h1.349239c1.063666 0 1.349239-.0646 1.349239-.3052185 0-.2508402-.360442-.3052194-2.023094-.3052194h-2.023098l-.06257.8647875-.06257.8647864-1.678705.0591-1.678705.0591v-.9238864-.923886h-2.034683-2.034793v1.1191363 1.1191371h-1.017399-1.017398v-1.0173968-1.0173975h-2.136533-2.136534v-1.2432606-1.2432607l4.222198.1690294c5.543271.2219164 5.547789.2217303 5.887317-.2424518.255322-.3490623.515938-.3849457 2.455548-.338104 1.193452.028824 2.26079.1432782 2.371857.254349.111074.1110703.940347.2019458 1.842835.2019458 1.835655 0 2.968514.335107 5.107423 1.5107944l1.323482.7274794h3.648465c3.398882 0 3.662878.026925 3.859111.3935817.115848.2164706.210632.4453842.210632.5086984 0 .063317-2.083119.1131032-4.629151.1106414l-4.629158-.0045-1.6246-1.0129377-1.6246-1.0129206h-2.256496-2.256491l-.213652-.7630448-.213652-.7630482-.02572.9665273-.02572.9665273 2.594362.0005083 2.594361.0005092 1.526093 1.0163797 1.5261 1.0163644 4.73728.00051c5.02955.000548 5.19324-.03215 4.834887-.966012-.201453-.5249605-.166484-.5541978.58516-.4894393.378252.032588.748158-.038537.822018-.1580489.171099-.2768438 7.678623-.2996927 7.954416-.024212.118944.1188096.154164 3.1911592.09156 7.9865672l-.101744 7.793483-1.296557.06123-1.296557.06122.138239-1.290858c.122623-1.145076.09096-1.333645-.280408-1.669726-.380773-.344597-.418647-.613184-.418647-2.969161 0-2.546081.0088-2.596047.51439-2.927333.513821-.33667.514315-.340081.457825-3.126462l-.056554-2.7894218-.679546-.0651235c-.594074-.056932-.663688-.01518-.553502.331992.08153.2568523.01607.4393043-.18524.5165643-.25436.09761-.311285.546325-.311285 2.453842 0 1.510824.08083 2.384344.229108 2.475982.158743.09811.181082.554828.07277 1.487235-.12401 1.067176-.267668 4.538284-.297807 7.195674-.0037.322995-.285363.35609-3.030791.35609h-3.026742zm5.732571-1.348049.0606-1.271747h-.674518c-.510394 0-.93359.226637-1.739284.931437-.606062.530167-1.064772 1.103504-1.064772 1.330845 0 .369393.126155.394968 1.678701.340309l1.678702-.05909zm-3.011031.900768c0-.325605 1.975919-1.969036 2.367397-1.969036.201114 0 .277835.309043.277835 1.119137v1.119137h-1.32262c-.961451 0-1.322612-.07352-1.322612-.269238zm3.00601-7.920809c.05397-3.508148.04372-3.611759-.356089-3.611759-.275999 0-.41165-.134106-.41165-.406959 0-.223827-.134398-.406959-.298663-.406959-.494999 0-.03325.905141.502195.98445.452554.06703.461143.111366.335165 1.729576-.07115.913429-.129849 2.416199-.13052 3.339486-.0015 1.605793-.02109 1.67857-.459049 1.67559-.321224-.002212-.837264-.464681-1.729574-1.550103l-1.271747-1.546985v-2.214267c0-2.078615.02492-2.214267.406961-2.214267.271309 0 .406961.135652.406961.406959 0 .329442.135651.406958.712178.406958.624 0 .712178-.06298.712178-.508698 0-.279785-.09156-.508699-.203481-.508699-.111911 0-.203487.183132-.203487.406959 0 .236714-.135652.406959-.324261.406959-.178355 0-.372162-.183132-.430694-.406959-.07997-.305801-.277547-.406959-.794864-.406959h-.688445l.000015 2.390883.000022 2.390883 1.439581 1.690461c1.306082 1.533685 1.499507 1.684652 2.08564 1.627835l.64606-.06262zm-4.633847-3.216809c0-1.041414-.07421-1.593952-.203481-1.514087-.111911.06917-.20348.807096-.20348 1.639844 0 .873738.08605 1.514087.20348 1.514087.118819 0 .203481-.682268.203481-1.639844zm-14.09506-1.560418c-.04407-.422174-.08083-.126626-.08173.656769-.000737.783396.03515 1.12881.08008.767586.04499-.361223.04568-1.002183.0015-1.424355zm23.455113 11.616718c0-1.235226.0606-4.874809.134722-8.087962.133093-5.771449.139861-5.8413641.55957-5.7813986.386833.055273.430185.2143126.484559 1.7776446.03281.94432-.03414 1.951543-.1489 2.238273-.114735.286732-.29769 3.030653-.406563 6.097603-.118421 3.335875-.283423 5.661736-.41067 5.78899-.147978.147968-.212718-.470893-.212718-2.03315zm-12.819208-.582498c0-.249888.350435-.30522 1.933054-.30522 1.582628 0 1.933062.05533 1.933062.30522 0 .249886-.350434.305219-1.933062.305219-1.582619 0-1.933054-.05533-1.933054-.305219zm4.605654-.0021c-.071-.18504-.129104-.595445-.129104-.91201 0-.407661-.392289-1.05578-1.344701-2.221632l-1.344701-1.646001h-1.809229-1.809236v-.712177-.712178l2.08567.0093 2.085663.0093 1.983925 2.23425c1.09116 1.228839 1.983926 2.350637 1.983926 2.492887s-.353951.604259-.786561 1.026687c-.65358.638206-.808378.711173-.915652.431613zm-26.784905-3.558754c-.512205-.512205-.514357-.857132-.0082-1.315197.916628-.829536 2.152932.406767 1.323394 1.323396-.458061.506155-.802989.504005-1.315193-.0082zm4.055432.08468c-.36147-.435544.0022-1.00034.643983-1.00034.553686 0 .762599.565515.379457 1.027172-.319115.384509-.690131.374782-1.02344-.02683zm-11.99113-2.22125v-1.526095h.813918.813918v1.526095 1.526096h-.813918-.813918zm-49.3784937 1.164853c-.1310195-.083343-.296012-.425313-.3666513-.759933l-.1284347-.6084.3222798.559569.3222806.559569h2.5369936c1.5556764 0 2.5369937.07871 2.5369937.203479 0 .237621-4.854977.280112-5.2234617.04571zm5.2469957-.610024c-.2362296-.46305-.3495989-.988001-.2856329-1.322616.099839-.522277.1703319-.554829 1.2014779-.554829.602478 0 1.095415-.09157 1.095415-.203479 0-.129488 1.627836-.20348 4.476547-.20348 2.848712 0 4.476548.07399 4.476548.20348 0 .113043.542612.203479 1.220876.203479.709611 0 1.220877-.08863 1.220877-.21163 0-.225574 1.64887-1.869956 1.761811-1.757015.03681.03681-.207195.373954-.542225.749213-.417213.467306-.609148.895143-.609148 1.357819v.67553h-7.104106-7.1041072l.3515802.722809.351579.722808 6.737393-.01569c4.397809-.01024 6.782148.05673 6.866275.192849.08704.140834-2.119704.208535-6.797291.208535h-6.926173zm14.351579.153806c-.247934-1.239665.07373-2.488099.851033-3.302998.40031-.419676.818784-.763048.929939-.763048.111156 0-.09056.301948-.448253.670996-.970906 1.001718-.876646 1.363799.355032 1.363799.552964 0 1.061979-.09157 1.131147-.203479.07766-.125649 1.833427-.20348 4.590295-.20348 2.840706 0 4.464539.07401 4.464539.20348 0 .113043.542612.203479 1.220877.203479 1.040964 0 1.220875-.05409 1.220875-.367043 0-.371261 1.186458-1.667752 1.52621-1.667752.101318 0-.13843.343372-.532774.763048-.529562.563579-.713231.935922-.702605 1.424356l.01439.661308h-7.2881-7.288101l.140066.45783c.311117 1.016942.002.974573 7.462519 1.022764l7.044277.04551.137565-1.369831c.12521-1.246819.210984-1.443251.955134-2.187405.449664-.449667.916329-.817575 1.037029-.817575.120702 0-.08531.314445-.457815.698767-.919365.948545-.747943 1.336028.591055 1.336028.56308 0 1.023782-.09157 1.023782-.203479 0-.129488 1.627834-.20348 4.476547-.20348 2.848712 0 4.476547.07399 4.476547.20348 0 .113043.542613.203479 1.220877.203479 1.085223 0 1.220876.04522 1.220876.406959 0 .39922-.135653.406958-7.134064.406958h-7.134063l.06316.723625.06316.723624 7.070908-.01635c4.699965-.01087 7.070911.05352 7.070911.192033 0 .140264-4.781032.208387-14.625082.208387h-14.625097zm-20.1525058-1.539195c-.06793-.177024-.1235097-.360156-.1235097-.406959 0-.0468 1.190355-.0851 2.6452321-.0851 2.5095799 0 2.6452326.02087 2.6452326.406959 0 .385066-.1356527.406958-2.5217222.406958-2.111774 0-2.5418017-.05233-2.6452328-.321861zm58.8690128-.441187c-.0091-.08394-.03197-.518872-.05087-.966527l-.03436-.813918h-1.831315c-1.744222 0-1.834408.02177-1.896337.457829-.06029.424492-.167711.457829-1.475225.457829h-1.410206v-2.136534-2.1365344h1.729575 1.729574v.9156584.915657h1.642921 1.642922l-.05742-1.068267-.05742-1.068267 1.295553-.061415c.898637-.042607 1.347032.019737 1.463577.203479.193283.3047232.236233 4.648385.05074 5.131763-.0948.247051-.425863.32186-1.424356.32186-.715465 0-1.308275-.06868-1.317352-.152609zm3.475656-1.772523v-1.940976h1.838951 1.83895l-.0585 1.882185-.0585 1.882184-1.780444.05879-1.780446.05879zm4.273066-.82184c0-1.69566.07787-2.7469715.203484-2.7469715.125602 0 .203477 1.0513115.203477 2.7469715 0 1.695662-.07788 2.746973-.203477 2.746973-.125611 0-.203484-1.051311-.203484-2.746973zm-66.6639221 1.841059c-.2388307-.622384.1536036-.721922 2.8462465-.721922 2.0555505 0 2.7899111-.07098 3.0910516-.298747.21724-.164311.573804-.30166.792365-.305219.325798-.0053.254209.140155-.397384.807446l-.7947697.813918h-2.7120621c-2.1832647 0-2.7341703-.05761-2.8254473-.295476zm6.9427171-.518442c.437123-.447655.886335-.813918.998248-.813918.111914 0-.154166.366263-.591289.813918-.437124.447654-.886335.813918-.998249.813918-.111913 0 .154167-.366264.59129-.813918zm.915657.06166c.391699-.462618.786045-.848875.876326-.858348.269277-.02825-.3511.747606-.991983 1.240601-.565062.434672-.558963.414513.115657-.382253zm10.377718.04233c.391551-.446419.734801-.850834.76278-.8987.02798-.04787.09497-.04293.148874.01097.0539.0539-.289348.458317-.762779.898701l-.860784.800696zm.915389-.103983c.437123-.447655.886338-.813918.998251-.813918.111912 0-.154169.366263-.591291.813918-.437122.447654-.886336.813917-.998249.813917s.154167-.366263.591289-.813917zm2.774242.01723c.376701-.438182.817949-.804446.980554-.813919.165197-.0096-.05503.341905-.499125.796694-1.021952 1.046574-1.377279 1.059288-.481429.01723zm.37969.641331c0-.245894 1.397307-1.567347 1.523683-1.440972.05799.05799-.261122.444571-.709129.859081-.448004.414511-.814554.676361-.814554.581891zm10.37745.03309c0-.263652 1.385688-1.612061 1.51931-1.478438.05558.05558-.263527.457057-.709129.892175-.445599.435118-.810181.698936-.810181.586263zm1.451624-.674426c.376701-.438183.81795-.804445.980554-.813918.165198-.0096-.05503.341905-.499124.796694-1.021952 1.046574-1.377278 1.059286-.48143.01723zm2.211006.674426c0-.263652 1.385687-1.612061 1.51931-1.478438.05558.05558-.263528.457057-.70913.892175-.445599.435118-.81018.698936-.81018.586263zm1.526095-.69165c.437121-.447655.886335-.813919.998249-.813919s-.154168.366264-.591291.813918c-.437122.447654-.886335.813917-.99825.813917-.111914 0 .154169-.366263.591292-.813916zm10.302978.01723c.376701-.438183.81795-.804445.980555-.813918.165197-.0096-.05503.341905-.499126.796694-1.02195 1.046574-1.377278 1.059286-.481429.01723zm.379691.657906c0-.105619.264939-.445863.588755-.756097.506972-.485709.573913-.674725.481905-1.360686l-.106848-.796622h.942451.942447v1.424353 1.424356l-.661307.0022c-.36372.0012-1.004679.05899-1.424356.128363-.431819.07138-.763047.04277-.763047-.06591zm-39.576746-.878624c.321661-.335741.676402-.610438.788316-.610438s-.05969.274697-.381357.610438c-.32166.335742-.676402.610439-.788316.610439s.05969-.274697.381357-.610439zm.951051.01126c.260318-.329549.604893-.604247.765723-.610438.184171-.0071.07592.214715-.292418.59918-.752321.785253-1.091065.793311-.473305.01126zm.880264-.01126c.321661-.335741.676403-.610438.788316-.610438.111914 0-.05969.274697-.381357.610438-.32166.335742-.676403.610439-.788317.610439-.111913 0 .05969-.274697.381358-.610439zm1.154531.01126c.260317-.329549.604892-.604247.765722-.610438.184171-.0071.07592.214715-.292418.59918-.75232.785253-1.091065.793311-.473304.01126zm.880264-.01126c.321659-.335741.676401-.610438.788316-.610438.111913 0-.05969.274697-.381358.610438-.321661.335742-.676403.610439-.788317.610439-.111913 0 .05969-.274697.381359-.610439zm.951051.01126c.260317-.329549.604893-.604247.765723-.610438.184169-.0071.07592.214715-.292418.59918-.752322.785253-1.091066.793311-.473305.01126zm.575044.469239c0-.261836.981908-1.19425 1.116212-1.059947.05523.05523-.173323.36268-.507896.683222-.334575.320542-.608316.490068-.608316.376725zm1.322615-.480497c.321661-.335742.676403-.610439.788316-.610439.111915 0-.05969.274697-.381356.610439-.321661.335741-.676403.610438-.788317.610438-.111913 0 .05969-.274697.381357-.610438zm.947833 0c.248224-.335742.542793-.610439.654599-.610439s-.05989.274697-.381555.610439c-.321661.335741-.61623.610438-.654599.610438-.03837 0 .133331-.274697.381555-.610438zm.883483 0c.32166-.335742.676402-.610439.788315-.610439.111914 0-.05969.274697-.381357.610439-.321659.335741-.676401.610438-.788316.610438-.111914 0 .05969-.274697.381358-.610438zm6.444995.01126c.260316-.32955.604892-.604247.765723-.610439.184171-.0071.07592.214715-.292418.59918-.752321.785254-1.091065.793311-.473305.01126zm.575044.469238c0-.261836.981908-1.19425 1.116213-1.059947.05523.05523-.173324.362681-.507896.683223-.334574.320541-.608317.490067-.608317.376724zm1.390747-.342983c.244361-.260108.382409-.534805.306777-.610439-.07564-.07563.07801-.137514.341425-.137514h.478942l-.584837.610439c-.321659.335742-.675232.610438-.785717.610438-.110484 0-.001-.212815.24341-.472924zm.644047.342983c0-.261836.981908-1.19425 1.116213-1.059947.05523.05523-.173324.362681-.507898.683223-.334573.320541-.608315.490067-.608315.376724zm1.322616-.480497c.321661-.335741.676402-.610439.788316-.610439.111915 0-.05969.274698-.381357.610439-.321659.335742-.676403.610438-.788315.610438-.111914 0 .05969-.274696.381356-.610438zm.916396.10174c.27938-.335742.530851-.64859.55883-.695222.02798-.04663.0957-.03995.150487.01484.05479.05479-.196683.367639-.558829.695221l-.658445.595605zm.914919-.10174c.321661-.335741.676402-.610439.788316-.610439.111913 0-.05969.274698-.381357.610439-.32166.335742-.676403.610438-.788316.610438s.05969-.274696.381357-.610438zm.916396.10174c.279379-.335742.530851-.64859.558829-.695222.02798-.04663.0957-.03995.150488.01484.05479.05479-.196683.367639-.558829.695221l-.658445.595605zm.914918-.10174c.321661-.335741.676403-.610439.788316-.610439.111915 0-.05969.274698-.381356.610439-.321661.335742-.676403.610438-.788316.610438-.111914 0 .05969-.274696.381356-.610438zm.951594.0106c.260019-.329188.543547-.60359.630062-.609783.255392-.01828-.458774.961161-.794878 1.090137-.200769.07704-.143408-.09014.164816-.480354zm6.476143.09114c.279379-.33574.530852-.64859.558831-.695221.02798-.04663.0957-.03995.150487.01483.05479.05479-.196683.367639-.558831.695221l-.658444.595604zm.914919-.101741c.321661-.335742.676403-.610438.788316-.610438.111914 0-.05969.274696-.381356.610438-.321661.335741-.676403.610439-.788317.610439s.05969-.274698.381357-.610439zm.916396.101741c.27938-.335742.530852-.648592.55883-.695223.02798-.04663.0957-.03995.150487.01484.05479.05479-.196682.367639-.558829.695221l-.658445.595605zm.914919-.101741c.32166-.335742.676403-.610438.788316-.610438s-.05969.274696-.381357.610438c-.321661.335741-.676402.610439-.788316.610439-.111913 0 .05969-.274698.381357-.610439zm.951594.0106c.260018-.329188.543546-.603591.630062-.609782.255391-.01828-.458775.961161-.794878 1.090137-.200769.07704-.143408-.09014.164816-.480355zm.879721-.0106c.32166-.335742.676403-.610438.788315-.610438.111914 0-.05969.274696-.381356.610438-.321661.335741-.676402.610439-.788316.610439-.111915 0 .05969-.274698.381357-.610439zm1.085528.137515c.244361-.260109.382409-.534806.306775-.610439-.07564-.07563.02133-.137514.215476-.137514.316845 0 .308482.0625-.08168.610438-.239068.335741-.535964.610439-.659765.610439-.1238 0-.02516-.212817.219197-.472924zm.949265-.137515c.321662-.335742.676403-.610438.788317-.610438s-.05969.274696-.381358.610438c-.32166.335741-.676402.610439-.788316.610439-.111912 0 .05969-.274698.381357-.610439zm.951051.01126c.260317-.329549.604894-.604246.765724-.610438.184171-.0071.07592.214715-.292418.59918-.75232.785253-1.091065.793311-.473306.01126zm.880264-.01126c.321661-.335742.676403-.610438.788317-.610438.111913 0-.05969.274696-.381357.610438-.321661.335741-.676403.610439-.788316.610439-.111914 0 .05969-.274698.381356-.610439zm-48.1813076-.184955c-.3482186-.589487-.4582097-1.734216-.2250211-2.341897.1555923-.405466.8124053-.420736.9652457-.022443.091877.239428.6738706.310776 2.9046738.35609l2.789775.05666.1901682.571342c.14889.447321.112536.657126-.1674675.966528-.3199235.353511-.6429222.395184-3.0629618.395184-2.189418 0-2.7377964.05802-2.8756025.304272-.1370488.244893-.2382952.18913-.5188098-.285743zm8.9097826-1.035923c-.329853-.533712.305557-.610438 5.055391-.610438 4.793981 0 4.929634.0112 4.929634.406959s-.135653.406958-4.929634.406958c-3.066931 0-4.977152-.07689-5.055391-.203479zm14.548777-.203479c0-.395885.135655-.406959 4.985246-.406959 4.849592 0 4.985246.01107 4.985246.406959 0 .395885-.135654.406958-4.985246.406958-4.849591 0-4.985246-.01107-4.985246-.406958zm14.447039 0c0-.395885.135654-.406959 4.985245-.406959 4.849593 0 4.985245.01107 4.985245.406959 0 .395885-.135652.406958-4.985245.406958-4.849591 0-4.985245-.01107-4.985245-.406958zm-3.904262-.342479c.146886-.05878.322386-.05155.390003.01606.06762.06762-.05257.115708-.267066.106871-.237044-.0098-.285259-.05798-.122937-.122934zm2.441753 0c.146886-.05878.322387-.05155.390003.01606.06762.06762-.05257.115708-.267066.106871-.237045-.0098-.285259-.05798-.122937-.122934zm-29.582955-.772289c-.215659-.163156-.300539-.298156-.188626-.3.302358-.005.819154.358222.691431.485944-.06089.06089-.287148-.02279-.502805-.185944zm.934592.000549c-.160495-.193384-.175931-.310138-.04101-.310138.245917 0 .532627.386042.391515.527154-.05121.05121-.208946-.04644-.35051-.217016zm.896723-.000549c-.34426-.260449-.350121-.297435-.04803-.303118.189245-.0035.404437.09119.478205.210547.221657.358648-.01201.408932-.430179.09257zm.934592.000549c-.160495-.193384-.175932-.310138-.04101-.310138.245916 0 .532627.386042.391515.527154-.05121.05121-.208945-.04644-.35051-.217016zm.896722-.000549c-.34426-.260449-.35012-.297435-.04803-.303118.189244-.0035.404435.09119.478204.210547.221657.358648-.01201.408932-.43018.09257zm1.857827-.021c-.33006-.241346-.3403-.288581-.06256-.288581.182657 0 .392458.09766.466227.217016.215675.348969.02253.383211-.403667.07157zm1.831315 0c-.330061-.241346-.340301-.288581-.06255-.288581.182655 0 .392457.09766.466226.217016.215675.348969.02253.383211-.403667.07157zm1.925477.02156c-.160495-.193384-.175931-.310136-.04101-.310136.245916 0 .532628.38604.391515.527153-.05122.05121-.208945-.04644-.35051-.217017zm2.034793 0c-.160494-.193384-.17593-.310136-.04101-.310136.245916 0 .532627.38604.391514.527153-.05121.05121-.208945-.04644-.350509-.217017zm.896723-.00055c-.215658-.163159-.300539-.298159-.188625-.300005.302359-.005.819153.358223.691431.485945-.06089.06089-.287148-.02279-.502806-.185944zm.934593.00055c-.160494-.193384-.175931-.310136-.04101-.310136.245915 0 .532625.38604.391514.527153-.05121.05121-.208944-.04644-.350508-.217017zm.896721-.00055c-.34426-.260448-.35012-.297434-.04803-.303117.189244-.0035.404435.09119.478205.210547.221657.358648-.012.408933-.43018.09257zm.934594.00055c-.160495-.193384-.175933-.310136-.04101-.310136.245916 0 .532627.38604.391515.527153-.05121.05121-.208945-.04644-.350509-.217017zm.896721-.00055c-.344261-.260448-.350121-.297434-.04803-.303117.189243-.0035.404435.09119.478204.210547.221657.358648-.012.408933-.430179.09257zm1.857828-.021c-.330062-.241345-.340301-.288582-.06256-.288582.182659 0 .392458.09766.466227.217018.215674.348969.02253.383211-.403667.07157zm1.831315 0c-.330062-.241345-.340301-.288582-.06256-.288582.182659 0 .392458.09766.466227.217018.215674.348969.02253.383211-.403667.07157zm1.925477.02156c-.160494-.193382-.175932-.310134-.04101-.310134.245915 0 .532626.386041.391514.527153-.05122.05121-.208943-.04644-.350509-.217017zm.896722-.000548c-.215658-.163155-.30054-.298156-.188626-.300002.302358-.005.819153.358224.691432.485946-.06089.06089-.287149-.02279-.502806-.185944zm.934593.000548c-.160494-.193382-.175933-.310134-.04101-.310134.245915 0 .532625.386041.391515.527153-.05122.05121-.208946-.04644-.35051-.217017zm.896721-.000548c-.344261-.260448-.350121-.297435-.04803-.303117.189244-.0035.404436.09119.478205.210545.221656.358649-.01201.408933-.43018.09257zm.934593.000548c-.160494-.193382-.175932-.310134-.04101-.310134.245915 0 .532627.386041.391516.527153-.05122.05121-.208946-.04644-.35051-.217017zm.896722-.000548c-.344261-.260448-.350122-.297435-.04803-.303117.189243-.0035.404436.09119.478205.210545.221656.358649-.01201.408933-.43018.09257zm1.857828-.021c-.330062-.241344-.340302-.28858-.06256-.28858.182657 0 .392458.09766.466227.217017.215673.34897.02253.383211-.403667.07157zm1.831315 0c-.330062-.241344-.340301-.28858-.06256-.28858.182658 0 .392457.09766.466227.217017.215673.34897.02253.383211-.403667.07157zm2.034793 0c-.330062-.241344-.3403-.28858-.06256-.28858.182657 0 .392456.09766.466227.217017.215674.34897.02253.383211-.403668.07157zm1.925478.02156c-.160495-.193381-.175933-.310133-.04101-.310133.245914 0 .532626.386041.391514.527152-.05122.05121-.208945-.04644-.350509-.217016zm2.034794 0c-.160495-.193381-.175933-.310133-.04101-.310133.245916 0 .532627.386041.391515.527152-.05122.05121-.208945-.04644-.35051-.217016zm.896721-.000548c-.215658-.163156-.300539-.298156-.188625-.300001.302357-.005.819153.358222.691431.485944-.06089.06089-.287148-.02279-.502806-.185943zm.934593.000548c-.160494-.193381-.175932-.310133-.04101-.310133.245916 0 .532626.386041.391514.527152-.05121.05121-.208944-.04644-.350509-.217016zm.896722-.000548c-.344261-.260468-.350121-.297455-.04803-.303137.189243-.0035.404436.09119.478205.210546.221656.358649-.01201.408932-.430181.09257zm.934593.000548c-.160494-.193381-.175932-.310133-.04101-.310133.245915 0 .532626.386041.391514.527152-.05122.05121-.208944-.04644-.350509-.217016zm.896721-.000548c-.34426-.260449-.350121-.297436-.04803-.303118.189244-.0035.404436.09119.478205.210546.221657.358648-.01201.408933-.43018.09257zm1.857828-.021c-.330061-.241343-.3403-.288578-.06256-.288578.182657 0 .392457.09766.466226.217016.215674.34897.02253.383212-.403667.07157zm1.852323-.04901c-.511591-.565296-.426213-.6465301.679511-.6465301.881743 0 1.017397.054263 1.017397.4069591 0 .299781-.135654.406959-.515084.406959-.283298 0-.56779-.137349-.632208-.30522-.06442-.167886-.210105-.305235-.323749-.305235-.117641 0-.09578.133562.05077.310137.375303.452213.122326.573765-.276635.132917zm-49.7833824-.137865c-.1460068-.175935-.1657822-.305227-.0466856-.305227.1136435 0 .2593304.137349.3237481.30522.064416.16787.085427.305218.046689.305218-.038745 0-.1844281-.137348-.3237479-.305218zm10.2757094.101732c-.06917-.111913-.03419-.20348.07772-.20348.111913 0 .260069.09157.329236.20348.06917.111914.03419.203479-.07772.203479-.111915 0-.260071-.09156-.329238-.203479zm1.831315 0c-.06917-.111913-.03419-.20348.07772-.20348.111915 0 .260071.09157.329238.20348.06917.111914.03419.203479-.07772.203479-.111913 0-.260069-.09156-.329238-.203479zm1.831316 0c-.06917-.111913-.03419-.20348.07772-.20348.111914 0 .26007.09157.329236.20348.06917.111914.03419.203479-.07772.203479-.111914 0-.26007-.09156-.329236-.203479zm2.034792 0c-.06917-.111913-.03419-.20348.07772-.20348.111913 0 .260071.09157.329237.20348.06917.111914.03419.203479-.07772.203479-.111914 0-.26007-.09156-.329237-.203479zm6.511342 0c-.06917-.111913-.03419-.20348.07772-.20348.111913 0 .260069.09157.329236.20348.06917.111914.03419.203479-.07772.203479-.111915 0-.260071-.09156-.329236-.203479zm1.831315 0c-.06917-.111913-.03419-.20348.07772-.20348.111913 0 .260069.09157.329235.20348.06917.111914.03419.203479-.07772.203479-.111913 0-.260069-.09156-.329235-.203479zm1.831314 0c-.06917-.111913-.03419-.20348.07772-.20348.111914 0 .260069.09157.329237.20348.06917.111914.03419.203479-.07772.203479-.111915 0-.26007-.09156-.329237-.203479zm6.511342 0c-.06917-.111913-.03419-.20348.07772-.20348.111913 0 .260068.09157.329235.20348.06917.111914.03419.203479-.07772.203479-.111914 0-.26007-.09156-.329236-.203479zm1.831315 0c-.06917-.111913-.03419-.20348.07772-.20348.111913 0 .260068.09157.329236.20348.06917.111914.03419.203479-.07772.203479-.111913 0-.260069-.09156-.329235-.203479zm2.034793 0c-.06917-.111913-.03419-.20348.07772-.20348.111914 0 .260069.09157.329236.20348.06917.111914.03419.203479-.07772.203479-.111914 0-.260069-.09156-.329236-.203479zm1.831315 0c-.06917-.111913-.03419-.20348.07772-.20348.111914 0 .26007.09157.329236.20348.06917.111914.03419.203479-.07772.203479-.111915 0-.26007-.09156-.329236-.203479zm2.034794 0c-.06917-.111913-.03419-.20348.07772-.20348.111913 0 .260069.09157.329235.20348.06917.111914.03419.203479-.07772.203479-.111913 0-.260069-.09156-.329235-.203479zm6.511341 0c-.06917-.111913-.03419-.20348.07772-.20348.111914 0 .260069.09157.329237.20348.06917.111914.03419.203479-.07772.203479-.111914 0-.260069-.09156-.329237-.203479zm1.831315 0c-.06917-.111913-.03419-.20348.07772-.20348.111914 0 .260069.09157.329236.20348.06917.111914.03419.203479-.07772.203479-.111914 0-.260069-.09156-.329236-.203479zm-49.0666942-.9156572c-.3089172-.8050261.0133123-.9156572 2.6670025-.9156572h2.5498789v.6104379.6104387h-2.5498789c-2.0788508 0-2.5715141-.05638-2.6670025-.3052194zm7.9638542.1017403c-.06917-.1119139-.623965-.2034805-1.232886-.2034805-.971474 0-1.1071279-.049862-1.1071279-.4069581 0-.3992079.1356539-.4069589 7.1217799-.4069589h7.121779v.6104379c0 .4747852-.09043.6104387-.406959.6104387-.223828 0-.406959-.091567-.406959-.2034791 0-.1130449-.542611-.2034805-1.220877-.2034805-.678264 0-1.220876.090436-1.220876.2034805 0 .2766709-8.476883.2766709-8.647874 0zm12.530048-.3560891-.016066-.6613084h7.121779 7.12178v.6104379c0 .3357411-.09156.6104387-.203479.6104387-.111914 0-.203481-.091567-.203481-.2034791 0-.1130449-.542611-.2034805-1.220876-.2034805-.678264 0-1.220876.090436-1.220876.2034805 0 .1293424-1.593921.2034791-4.374807.2034791s-4.374807-.074137-4.374807-.2034791c0-.305989-2.385986-.2576415-2.510472.050872-.05645.1398928-.109861-.043234-.118696-.4069581zm14.634452-.050872v-.6104393h7.22352 7.223518v.6104379c0 .4069588-.101739.6104386-.305219.6104386-.16787 0-.305219-.091567-.305219-.2034798 0-.1130441-.542612-.2034798-1.220877-.2034798-.678263 0-1.220876.090436-1.220876.2034798 0 .1291935-1.560009.2034798-4.273067.2034798-2.713059 0-4.273068-.074283-4.273068-.2034798 0-.1130441-.542613-.2034798-1.220877-.2034798-.678263 0-1.220877.090436-1.220877.2034798 0 .1119132-.09157.2034798-.203479.2034798-.111913 0-.203479-.2746976-.203479-.6104386zm14.853997-1.3226147v-1.5260955h.813918.813918v1.5260955 1.5260953h-.813918-.813918zm-50.0531558.0508731c.0015409-.1398921.0579867-.4603723.1254715-.7121782.1197673-.4469092.1900714-.4578283 2.9476733-.4578283 1.5537386 0 2.824979.032116 2.824979.071376 0 .039253-.1005229.3597368-.2233846.7121774l-.2233847.6408024h-2.7270666c-2.0474825 0-2.7263744-.063384-2.7242879-.2543493zm5.8981238.1425045c0-.061517.139701-.3819939.310445-.7121773l.310445-.6003337h6.91695 6.916951l-.133749.5595683c-.07356.3077623-.172276.6282426-.219365.7121781-.09706.1730076-14.101677.2134921-14.101677.040768zm14.650517-.2784721c0-1.0761977-.294905-1.0340389 7.23328-1.0340389 4.2135 0 7.033879.077045 7.106236.1941213.06598.1067672.06146.4272476-.01005.7121782l-.130025.5180534h-7.09972c-6.863163 0-7.099721-.013006-7.099721-.3903171zm14.688495-.2709915.06376-.6613074 6.104381-.1098174c3.35741-.060402 6.21426-.030101 6.348551.067338.134296.097435.592124.146852 1.017398.1098173.739883-.064431.775977-.038822.836989.5939705l.06376.6613078h-7.249303-7.249303zm-5.988681-1.4752255c.104195-.5450647.20306-.5705236 1.982856-.5106148.559569.018834 1.047919.1185377 1.085223.2215604.08681.2397455 1.051312.2466886 1.051312.00754 0-.3213609.831788-.4174037.949873-.1096775.06109.1591839.335585.2894243.610001.2894243.274414 0 .447007-.084022.383538-.1867169-.06457-.1044839.524265-.2165038 1.336994-.254349 1.026711-.047812 1.480858.00692 1.549516.1867168.133086.3485308.672141.3200403.946808-.050042.200537-.2702025.291375-.2702025.808739 0 .67332.3516524 1.146747.3933129 1.146747.1009116 0-.2978007 2.714183-.2566147 3.016574.045774.196686.1966853.33343.1966853.648373 0 .219516-.1370896.527784-.2492541.68504-.2492541.157257 0 .34493-.235105.417049-.5224558.125928-.5017322.184485-.5205218 1.476211-.4736932 1.301937.047197 1.371864.024041 2.180074-.7218929l.834992-.7706607 2.003768.1961823c1.878316.1838998 2.201427.3069157 2.419283.9210731.03017.085059.466598.2246036.969835.3100995.73237.124424.927952.2458442.979998.6083957.04038.2813306.207429.4529485.440872.4529485.206717 0 .414372.1144572.461458.2543492.06698.1990194.15022.2010505.382646.00934.184271-.151997.871814-.2292456 1.811028-.2034791 1.280784.035138 1.524883.098328 1.584713.4102352.06603.3442626-.0889.3611211-2.337508.2543469-7.368107-.3498721-9.428271-.3554931-9.428271-.025725 0 .2416327-.220625.3183354-.915658.3183354-.678263 0-.915657-.079131-.915657-.3052192 0-.213686-.215492-.3052198-.718562-.3052198-.451017 0-.762175.1136449-.835688.3052198-.101522.2645622-1.248849.3052192-8.613274.3052192h-8.496148z" fill="#273839" stroke-width=".203479"/></svg>