<svg height="128" viewBox="0 0 78.577534 33.866667" width="296.98599" xmlns="http://www.w3.org/2000/svg"><path d="m39.929932 30.214103c0-.26266-.07141-.665389-.158695-.894953-.155466-.408913-.144126-.417389.558555-.417389.60227 0 .735122.05869.828811.366117.237162.778238.537965.935632 1.78813.935632 1.070851 0 1.200044-.036 1.439248-.401072.144537-.220589.262796-.513483.262796-.650875 0-.196836.207008-.249802.976312-.249802.910519 0 1.215381.158476.799413.415557-.09729.06013-.142384.241274-.100214.402544.05923.226494-.109101.370421-.739758.632511-.702841.292085-1.153008.339294-3.235515.339294h-2.419083zm-.813596-2.21302c0-.518302.03118-.558567.314745-.406797.187888.100555 1.672627.168443 3.68391.168443 3.017909 0 3.391707.02969 3.585333.284759.118891.156616.218491.339675.221338.406796.0031.06712-1.75219.122039-3.900077.122039h-3.905249zm.433919-.67227c-.05966-.05966-.108479-.487251-.108479-.950193 0-.74407.04809-.863621.414454-1.030551.62417-.284393.700546-.241789.755435.421356l.05049.610196 1.627192.07539 1.627185.07539-1.627185.08733c-1.532838.08227-1.630205.108559-1.679184.453449-.0396.278821-.159229.366116-.501716.366116-.247348 0-.498537-.04881-.558199-.108479zm4.610365-1.736666c0-1.810252.0077-1.848653.406792-2.030497l.406798-.185348v2.030495 2.030495h-.406798-.406792zm1.139029-.258881c0-1.18301.0663-2.12666.149408-2.12666.08218 0 .267421-.04528.411657-.100632.234462-.08997.257421.129787.216708 2.074663-.04428 2.116153-.05548 2.176709-.411657 2.227292-.363649.05165-.366116.03769-.366116-2.074663zm-4.556122 1.778589c0-.09643.596636-.162719 1.464469-.162719.867832 0 1.464468.06629 1.464468.162719 0 .09642-.596636.162718-1.464468.162718-.867833 0-1.464469-.06629-1.464469-.162718zm13.758274-.04068c-.175226-.569347.01999-.845466 1.076249-1.522532.836905-.536442 1.111908-.803853 1.111908-1.081196 0-.387435-.528352-1.484026-1.32126-2.742261l-.472117-.749186-1.2426-.105039c-.683425-.05777-1.345399-.190358-1.47105-.294636-.12565-.104279-.718965-.18747-1.318486-.18487-.712502.0031-.84659-.01922-.387136-.06444l.70289-.06917-.04121-.889483c-.03358-.725189.01691-.929389.273423-1.105523.519448-.356682 2.103361-.891953 2.985732-1.009004.74514-.09885.827341-.07875.827341.202244 0 .171598.137692.582064.305975.912145.257802.505659.270612.629501.08136.786564-.327887.272123-.291467.374968.426583 1.204604.35815.413816.948526 1.366697 1.311947 2.117511.400596.827638.784875 1.404511.975999 1.465172.422983.13425.418704.95097-.0073 1.376894-.279688.279686-3.421636 1.955603-3.666301 1.955603-.0492 0-.117588-.09153-.152022-.203399zm3.86962-2.306846c.138317-.36043-.291944-.639148-.534851-.346469-.109072.131426-.151071.315388-.09334.408805.151743.245524.52424.208562.628193-.06234zm-4.386472-6.038648c.05566-.14501-.01009-.290947-.156247-.347044-.303853-.116599-.636347.172647-.483236.420385.159672.258355.528426.216063.639483-.07334zm-13.078705 7.084423c0-.48641.0031-.488156.94587-.488156.838552 0 .998925.05538 1.413553.488156l.467682.488156h-1.413552-1.413553zm2.1967-.325437c-.407339-.42517-.584478-.489117-1.372871-.495614l-.905188-.0075 1.464469-.560872c.805459-.308479 1.482771-.561404 1.505145-.562057.02239-.000671.04066.474768.04066 1.056487 0 .58172-.05953 1.057672-.132275 1.057672-.07275 0-.342733-.219671-.599963-.488156zm11.234849.122039c-.03512-.111869-.150847-.496292-.257132-.854274-.106278-.357981-.36812-.971297-.581876-1.362923-.213749-.391628-.388637-.729195-.388637-.75015 0-.02095.413157-.08074.918133-.13286.504971-.05211.994873-.171504 1.088674-.265303.118916-.118912.333575.134592.709057.837355.741715 1.388227.712828 1.574942-.341189 2.205381-.985888.589683-1.056908.609669-1.14703.322774zm-17.212255-.063426c-.04372-.07698-.12768-.341336-.186505-.587449-.09358-.391491-.05915-.447476.275182-.447476.291639 0 .379074.0867.369215.366117-.0079.222701.08269.366117.23116.366117.148467 0 .239014-.143416.231154-.366117-.0071-.201364.07205-.366117.175903-.366117.103848 0 .713756-.541371 1.355349-1.203048 1.198751-1.236278 1.431941-1.782439.841092-1.969967-.303546-.09634-.32544-.246198-.32544-2.227861v-2.124572l-1.505144-1.438802-1.505151-1.438803-3.254374.000456-3.254374.000455-.447476.589787c-.246113.324388-.447478.761061-.447478.970388 0 .375114-.0249.380594-1.730021.380594-1.444011 0-1.81677.05362-2.254763.324309-.47323.292473-.535018.422608-.629401 1.325619-.05757.550721-.104657 1.283462-.104657 1.628316 0 .344852-.07322.637988-.16272.651413-.08949.01342-.239861.03173-.334148.04068-.09428.009-.368872-.345499-.610194-.787664-.413059-.756833-.519803-.835472-1.821875-1.342181l-1.383109-.538244-3.592996-.000249-3.592995-.000249-.213093.398167c-.227374.424853-.59053.637503-.832896.487712-.08142-.05032-.148035-.563121-.148035-1.139561v-1.048068l3.213695.0058c2.479186.0044 3.30667.05892 3.620492.238312.223738.127901.480019.232072.569514.231492.488377-.0031-1.075839-.62576-1.586506-.631468-.587588-.0066-.610196-.02792-.610196-.576336 0-.313234-.07322-.569516-.162718-.569516-.08949 0-.162719.256282-.162719.569516 0 .397757-.07361.569515-.244079.569515-.170466 0-.244078-.171758-.244078-.569515s-.07361-.569516-.244077-.569516c-.170468 0-.244079.171759-.244079.569516 0 .710785-.286632.753651-.355808.05321-.07367-.745958-.457785-.801983-.457785-.06677 0 .40981-.07253.583076-.244078.583076-.170467 0-.244078-.171759-.244078-.569516 0-.397756-.07361-.569515-.244078-.569515s-.244078.171759-.244078.569515c0 .313234-.07322.569516-.162719.569516-.0895 0-.162719-.256282-.162719-.569516 0-.397756-.07361-.569515-.244078-.569515-.170467 0-.244078.171759-.244078.569515 0 .397757-.07361.569516-.244078.569516-.171549 0-.244078-.173266-.244078-.583076 0-.395169-.06555-.560604-.203398-.513348-.111869.03835-.202692.300733-.201826.583075.000895.305133-.08156.513349-.203399.513349-.130654 0-.204971-.235991-.204971-.650875v-.650878h3.17548 3.175479l.869833.490902.86983.490902 4.294024-.04342 4.294023-.04342.05006-.406797c.02753-.223738.310203-.644772.628161-.935632l.578111-.528836h3.409824c2.059026 0 3.550622.06802 3.765244.171696.34333.165856.344677.163089.03955-.08136-.264327-.21177-.902698-.253055-3.912903-.253055h-3.597054l-.602539.617056c-.331396.339381-.602539.742109-.602539.894953 0 .255056-.35423.277898-4.309603.277898h-4.309601l-.793355-.488176-.793355-.488156h-3.081795c-3.188523 0-3.47232.05586-3.47232.683418 0 .161091-.07322.292895-.162719.292895-.0904 0-.162719-.433918-.162719-.976313v-.976313h8.793656 8.793656l-.04753-1.248011c-.05769-1.514831-.372964-1.801252-.372964-.33883v1.017322h-1.301736-1.30175v-1.017306c0-.908809-.0347-1.017289-.325438-1.017289-.290734 0-.325437.10848-.325437 1.017289v1.017289h-1.139033-1.139031v-1.017289c0-.908809-.0347-1.017289-.325438-1.017289-.290734 0-.325437.10848-.325437 1.017289v1.017289h-1.139031-1.139032v-1.017289c0-.908809-.0347-1.017289-.325436-1.017289-.290735 0-.325439.10848-.325439 1.017289v1.017289h-1.13903-1.139031v-1.017289c0-.908809-.03471-1.017289-.325437-1.017289-.290735 0-.325438.10848-.325438 1.017289v1.017289l-2.429553.04519c-1.56247.02907-2.512004.113626-2.660579.236933-.19845.1647-.222979-.224104-.173947-2.757346.0314-1.6219947.09649-2.9884164.144661-3.0364928.06436-.064234 16.988271-.1624285 18.899024-.1096549.233254.00644.282958.2432504.33459 1.5940739.03335.8725789.159152 1.8427898.279554 2.1560228.120404.313233.242128.661045.270499.772914.03888.153292.774379.203399 2.985627.203399h2.934045v.813593c0 .614715.05966.813594.244075.813594.134242 0 .244081.138264.244081.307253 0 .169926.579663.87135 1.29693 1.569356l1.29693 1.262102.04551 1.969777.04551 1.969776 1.015949.667775 1.015949.667777 2.038264-.406903c1.12104-.223797 2.08619-.358972 2.144774-.30039.05861.05859.03881.369941-.04391.691909l-.150429.585397-4.149324 1.543933c-4.172793 1.552663-5.09851 1.83011-5.245174 1.572036zm4.848026-3.460091c-.139716-.226067-.527399-.231015-.664926-.0085-.05775.09342-.0134.28015.09846.414964.177981.214453.23303.215514.440056.0085.130147-.130146.187034-.316879.126414-.414964zm4.249858.04932c.12479-.325204-.270993-.594523-.542528-.36917-.246221.204345-.103843.629669.210785.629669.127477 0 .276762-.117225.331743-.260499zm-22.100515-5.452501c-.121424-.07694-1.136063-.127142-2.254755-.111566l-2.033983.02832 1.980461.09123c1.089253.05017 2.033066.144153 2.097359.208842.0643.06469.187728.07384.274294.02033.09188-.05678.0655-.155504-.06338-.237162zm-6.363119-2.870409c.05153-.155222-.398191-.203398-1.898668-.203398-1.657346 0-1.966185.03915-1.966185.249242 0 .212222.282006.242433 1.898668.203398 1.340449-.03237 1.918519-.105644 1.966185-.249242zm4.393405 0c.05153-.155222-.39819-.203398-1.898668-.203398-1.657345 0-1.966184.03915-1.966184.249242 0 .212222.282006.242433 1.898667.203398 1.340451-.03237 1.918519-.105644 1.966185-.249242zm4.393406 0c.05153-.155222-.39819-.203398-1.898668-.203398-1.657347 0-1.966184.03915-1.966184.249242 0 .212222.282006.242433 1.898666.203398 1.340451-.03237 1.91852-.105644 1.966186-.249242zm1.790604 0c.04693-.142852-.155183-.203398-.678976-.203398-.702205 0-.897073.119917-.629571.38742.186475.186475 1.235291.03898 1.308547-.184022zm-14.57712-1.611727c.381431-.345189.375884-.585704-.02181-.945608-.366998-.332128-.72073-.250292-.975458.225673-.142818.266858-.113386.394606.152075.660066.398594.398595.465653.403344.845189.05987zm-.732981-.164619c-.238408-.238407-.101161-.705115.207355-.705115.415353 0 .575227.280109.329126.576644-.214817.258838-.369155.295798-.536481.128471zm2.831156.265472c.178593-.09558.314739-.339458.314739-.563789 0-.331135-.388873-.732234-.709914-.732234-.169998 0-.591835.521906-.591835.732234 0 .210326.421837.732234.591835.732234.04423 0 .222068-.0758.395175-.168445zm-.65116-.388524c-.252595-.304358-.09231-.582063.335945-.582063.243256 0 .313818.09062.275155.353372-.06498.441576-.34687.547069-.6111.228691zm12.529626.388524c.669772-.35845.140795-1.468825-.56983-1.196133-.41297.158472-.518649.88795-.165995 1.145817.358799.262361.34179.261198.735825.05031zm-.651158-.388524c-.252595-.304358-.09232-.582063.335944-.582063.243254 0 .313816.09062.275154.353372-.06497.441576-.346869.547069-.611098.228691zm-13.858474-1.544444c.372705-.235996.07827-.6648057-.456477-.6648057-.566232 0-.774732.2419369-.496951.5766437.22124.266578.614261.30292.953428.08816zm4.369694.01825c.11187-.03685.203399-.205612.203399-.375028 0-.2851121-.145265-.3080279-1.952625-.3080279-1.784975 0-1.952625.025615-1.952625.2983176 0 .1640743.05492.3535033.122039.4209513.121624.122216 3.193175.09114 3.579812-.03622zm4.312046.02616c.156617-.04414.284758-.221783.284758-.394742 0-.2933462-.131173-.314473-1.952625-.314473-1.784975 0-1.952624.025615-1.952624.2983181 0 .1640749.04166.3399819.09259.3909039.113911.113912 3.13401.131026 3.527905.01999zm4.352653.02304c.179031-.05682.325511-.244826.325511-.417785 0-.2933459-.131174-.3144727-1.952625-.3144727-1.784976 0-1.952624.025615-1.952624.2983181 0 .1640746.03518.3334946.07817.3764896.122988.122988 3.13916.172474 3.501567.05745zm2.109502-.155614c.289187-.3484512.06236-.5766437-.573205-.5766437-.434465 0-.559912.066838-.559912.2983181 0 .1640746.04881.3471336.10848.4067966.193601.193602.822814.11471 1.024637-.128471zm-12.37767-1.1958233c.115647-.2160888.062128-.4634379-.202443-.9356326l-.359651-.6418881-1.654377-.0462734c-1.549415-.0433366-1.666229-.0241269-1.841205.3028156-.163349.3052205-.109171.4286215.431099.9819083l.61793.6328169h1.42572c1.207909 0 1.449737-.044875 1.582927-.2937444zm-3.3651-.5650649c-.514533-.5308638-.539923-.7683781-.082137-.7683781.123249 0 .202574.1281408.176278.2847577-.04178.2488405.136905.2950199 1.416656.3661172 1.157111.064284 1.464469.1325857 1.464469.3254371 0 .1911576-.265208.2542348-1.223178.2909201-1.199452.045932-1.233436.03626-1.752088-.498854zm7.921224.5650649c.115647-.2160888.062128-.4634379-.202443-.9356326l-.359651-.6418881-1.663987-.0463797c-1.644866-.045848-1.666158-.041614-1.852927.3682943-.172998.3796915-.13517.4625311.448367.9818876.624293.5556289.666262.567214 2.055371.5673382 1.200607.000108 1.442171-.04492 1.57527-.2936174zm-3.366552-.5286699c-.529144-.4812591-.568622-.8047731-.0982-.8047731.139838 0 .221468.119945.193795.2847577-.04192.2495996.122845.2906723 1.334384.3326607.760207.026348 1.455218.1209257 1.544467.2101743.283425.2834252-.266286.4692959-1.380836.4668949-.945484-.00201-1.114519-.053976-1.593608-.4897145zm7.759958.5286699c.115645-.2160854.062132-.4634435-.202414-.9356326l-.359622-.6418881-1.619983-.0470337c-1.382595-.040142-1.650151-.00578-1.825846.2344992-.2909.3978305-.275525.4399879.39959 1.0957262.601897.5846203.613805.5880729 2.02826.5880729 1.205101 0 1.446862-.044942 1.580015-.2937439zm-3.371073-.5712272c-.509104-.5252614-.532781-.7622158-.076166-.7622158.123251 0 .202577.1281408.17628.2847577-.04191.2495996.122844.2906723 1.334383.3326607.760209.026348 1.455218.1209257 1.544467.2101743.282978.2829777-.265182.469038-1.389595.4716649-.995337.00235-1.101293-.033474-1.589369-.5370418zm7.609212.5573038c.124919-.2334145.077212-.4687158-.197674-.9749706l-.362332-.6673022-1.662143-.0013425c-1.525455-.00123-1.677259.026907-1.845974.3421531-.159514.298054-.102086.427214.434095.9763131l.617929.632808h1.425719c1.231737 0 1.448123-.04186 1.59038-.3076673zm-3.289851-.4679601c-.491794-.5133216-.570872-.8515595-.199092-.8515595.134242 0 .244078.1435953.244078.3191025 0 .2890959.133883.3235235 1.423789.3661166 1.136216.037524 1.423788.096314 1.423788.2910929 0 .1911878-.265387.2542353-1.224696.2909481-1.161585.04445-1.247535.02303-1.667867-.4157006zm11.272577 15.4299158c0-.08421.07322-.19837.162722-.253681.09981-.06169.162716-1.374651.162716-3.396254v-3.295687l-.453106-.434104c-.513657-.492115-1.057111-.557499-4.875933-.586641-2.056428-.0157-2.156022-.03179-2.156022-.34848 0-.182614.160218-.548731.356038-.813593l.356039-.481568h3.105326 3.105328l1.338836 1.345828 1.338836 1.345828v2.126506 2.126506l.430316.196064.430315.196065-.468414.52161c-1.575716 1.754646-1.756724 1.904717-2.297357 1.904717-.294604 0-.53564-.0689-.53564-.153116zm20.828001-.493685c0-.403174-1.004175-2.282328-1.610805-3.014371-.660645-.797222-.780828-1.209882-.390248-1.339924.423913-.141139 2.651924 3.442336 2.651924 4.265288 0 .139172-.142551.247652-.325435.247652-.178997 0-.325436-.07139-.325436-.158645zm-5.207588-1.714166c-.09455-.248678-.215822-.523198-.2695-.610049-.17715-.28664 2.280211.0404 2.509083.333925.273503.35076.02977.481746-1.155523.621056-.888029.104369-.916706.09525-1.08406-.344932zm-11.104968-.993059c-.556501-.419331-.772913-.695012-.772913-.984576 0-.328122.0599-.383153.32544-.298882.292229.09275.325433.02924.325433-.6225 0-.896493.05996-.923328 2.062857-.923328 1.306469 0 1.622167-.05276 2.02279-.338025l.474712-.338025-.34384-.482882-.343846-.482882-2.353925.02364c-1.294661.013-2.397884-.02032-2.451611-.07405-.05375-.05373-.01224-.09769.09215-.09769.224167 0 .256965-.590182.04022-.724127-.08228-.05086-.254911.01284-.383619.141559-.203546.203543-.334031.132474-1.002068-.545761-.633192-.642854-.720011-.798214-.494454-.884768.159033-.06103.234598-.206619.180465-.347696-.08177-.213093.879076-.242707 7.874976-.242707h7.968111v.676094c0 .636903-.01673.660961-.288466.415039-.232433-.210346-.728811-.266047-2.55533-.286746-2.767999-.03137-2.851362.02175-2.851362 1.817139v1.121004h-1.464469c-1.31498 0-1.464468.03064-1.464468.300219 0 .489566-.517343.814319-1.384285.868963l-.81242.05121v.650875.650874l1.274083.30429c.700749.167359 1.213308.363896 1.139035.436748-.07428.07285-.830675.248969-1.680881.391369-.850207.142403-1.728888.292461-1.952625.333466-.28956.05307-.629544-.09329-1.179711-.507851zm5.637065-4.062985c.18322-.477462.100638-.725051-.303208-.909056-.30737-.140046-.46056-.134536-.650872.02341-.252895.209885-.33801.836962-.140417 1.034552.213319.213322.996379.106786 1.094497-.148908zm-.987721-.328551c-.113917-.296866.216757-.564422.542897-.43927.119987.04604.218159.222327.218159.391742 0 .384452-.61698.422983-.761056.04753zm.110178 3.853431c-.134243-.07684-.668457-.233459-1.187135-.348046-1.063427-.234932-1.164546-.325899-1.016773-.914685.09387-.373996.164297-.407867.675578-.324897.752741.122153.967044.02271 1.375588-.638339l.342001-.55337h1.451203 1.451197l.0025-.610195c.0012-.335608.05646-.525386.122416-.421732.06595.103655.390974.239314.722262.301464l.602345.113-.337784.456872c-.200552.271263-.358779.770964-.389467 1.229993-.03426.51235-.164771.886212-.38697 1.10841-.189758.18976-.335286.248968-.335286.13641 0-.109383.07322-.198878.162717-.198878.231824 0 .201701-.865353-.04071-1.168518-.28743-.359511-.859017-.461688-1.946749-.347998l-.94151.09841v.765194c0 1.047587.286252 1.272446 1.71221 1.344999 1.071293.05451 1.052719.05929-.329099.08469-.805459.01481-1.574308-.03595-1.708549-.112782zm24.434665-1.829618c-.864981-.974261-1.719126-1.804102-1.898122-1.84409-.178991-.03999-1.481946-.182305-2.895467-.316258-1.413516-.133952-2.640013-.286798-2.725539-.339658-.08553-.05286-.155502-.432628-.155502-.84393v-.747824l5.732075.116353c3.152634.06399 5.747536.131818 5.766439.150721.03988.03984-.437366 5.377373-.483936 5.412935-.01712.01305-.421713.05959-.899165.103429l-.868102.07971zm1.600337-.549511c0-1.01287-.508565-1.701957-1.2561-1.701957-.861479 0-.825459.369037.142132 1.456002.478436.537465.924808.978912.991924.980993.06712.0021.122044-.328686.122044-.735038zm2.004441 1.999893c.04794-.201364.178902-1.484471.291083-2.851348.132298-1.61178.265155-2.464799.378025-2.427095.18172.06071.179091.153686-.07917 2.796982-.225689 2.310031-.322152 2.847578-.510982 2.847578-.09133 0-.126855-.164752-.07895-.366117zm-33.537776-1.952624.04723-1.34243 2.115341-.0467c2.012698-.04444 2.129529-.0293 2.407638.312091.266222.326794.269402.381755.03561.61622-.194009.194552-.722429.277296-2.163564.338785l-1.906856.08136-.05006.691554c-.03475.480207-.123781.691555-.291338.691555-.197574 0-.23274-.243253-.194038-1.342429zm9.729021-.02266c0-.124327.128363-.384573.285249-.578323.248633-.307041.420993-.345918 1.342435-.302784l1.057172.04949-1.116618.528836c-1.223413.579413-1.568238.645989-1.568238.302783zm2.766221-1.010464c0-.110735-.03857-.301755-.08563-.424489-.05627-.146584.125202-.299037.528832-.444314 1.216452-.437829 1.346703-.597987 1.346703-1.655925v-.957598h.569515.56952v-2.003542c0-1.9827477-.0049-2.0080778-.456385-2.4407806-.264567-.2534745-.640707-.4372396-.894948-.4372396-.24255 0-.438434-.090911-.438256-.2033989.00016-.1540174-.460339-.1910244-1.897114-.1524315-1.890123.050765-1.900061.053126-2.579901.6101949l-.682459.5592286-1.773149.00313-1.773149.00313-.616667 1.0545551-.616672 1.054554h-2.396748-2.396746l-.525714-.956275c-.289142-.525953-.525714-1.0124274-.525714-1.0810555 0-.068627.950076-.086244 2.111276-.039147 1.678033.068058 2.149597.03946 2.29799-.1393371.142311-.1714751.717624-.2249653 2.419625-.2249653 1.956561 0 2.266244-.036831 2.502213-.2975708.148117-.1636637.269296-.343226.269296-.3990271 0-.0558-1.153266-.1369149-2.562815-.1802521-3.058979-.094049-4.622512-.2359513-4.83275-.4386101-.08502-.081955-.872174-.1490085-1.749225-.1490085-1.308984 0-1.594646-.043723-1.594646-.2440783 0-.1627189.162723-.2440783.488157-.2440783.268484 0 .488156.073224.488156.1627188 0 .089495.109839.1627189.244081.1627189s.244075-.073224.244075-.1627189c0-.2547057 5.89922-.215818 6.171112.040685.172477.1627188.230514.1627188.290175 0 .09451-.2577595 5.90534-.2977884 5.90534-.040685 0 .089495.109833.1627189.244075.1627189.134243 0 .244081-.073224.244081-.1627189 0-.094016.515272-.1627188 1.220388-.1627188 1.218923 0 1.220411.000537 1.23661.4474766l.01623.447476.112256-.406796c.195257-.7075987.828208-.6158672 2.590435.3754227 2.362123 1.3287429 2.554807 1.4117632 3.48484 1.5014717.4828.046564 1.051177.2236194 1.299186.4046971.41749.30483.716952.321908 5.64487.321908 3.984492 0 5.234826.04766 5.335629.203397.0724.11187.131638.953936.131638 1.87126v1.667861l-.528839.000006c-.361595.000004-.528832-.07718-.528832-.244072 0-.134243-.112132-.244078-.249184-.244078-.137053 0-.291329.109835-.342844.244078-.06047.157486-.312223.244078-.70972.244078-.397502 0-.649293-.08659-.709719-.244078-.05152-.134243-.208102-.244078-.347957-.244078-.139861 0-.296442.109835-.347952.244078-.07726.201348-.50456.244078-2.440782.244078-1.936223 0-2.363519-.04273-2.440778-.244078-.05158-.134243-.197965-.244078-.325441-.244078-.127481 0-.27392.109835-.32543.244078-.07495.195293-.431682.244078-1.78481.244078-1.579019 0-2.130154.164167-1.365698.406797.178991.05681.325436.238813.325436.404453s.04162.409701.09255.542357c.06893.179633-.07643.269741-.569512.353048-.364135.06152-.662064.178644-.662064.260272 0 .08163-.878686.148416-1.95263.148416-1.808344 0-1.97959.02705-2.317532.366118-.431694.433121-2.075871.839209-2.075871.51271zm6.183308-4.118962v-.962067l-1.342427-.768274c-.738338-.422552-1.397349-.799399-1.46447-.837439-.06712-.03804-.122041.740616-.122041 1.730346v1.79951h1.464467 1.464471zm-2.440782-.500474v-1.299828l1.016996.62083c.960039.586063 1.019794.658854 1.067024 1.299827l.05007.678998h-1.067024-1.067033zm6.152702-1.423843c-.08169-.424165-.620261-.47147-.620261-.05447 0 .232866.104502.337368.337362.337368.232872 0 .320496-.08763.282899-.282889zm-19.102146.0214c.171825-.06594.257383-.303031.257383-.713265 0-.5411324-.05344-.6247149-.447473-.7000849-.246111-.047068-.557313-.021224-.691555.057442-.196192.1149687-.177778.1440014.09385.1479782.282192.00414.326116.085477.266289.4931047l-.07164.488156h-1.599116c-.890557 0-1.64368.0721-1.699681.162719-.110147.178219 3.442055.236587 3.89194.06395zm6.960963 5.632915c-.991528-.112615-1.517778-.36019-1.27714-.600828.139691-.139687 2.88764.403185 3.10816.614033.174211.166574-.276786.163322-1.83102-.01321zm-1.656804-.986159c-.0037-.904365.157286-.968176 2.445616-.968176 1.786697 0 2.093028.03918 2.326876.297571.14811.163663.269296.337704.269296.386758 0 .04905-.379953.25264-.844333.452413-.677558.291476-1.007014.34139-1.667868.252688-2.119191-.284442-2.245605-.287883-2.38684-.06497-.09393.148251-.14108.03057-.142747-.356281zm13.181637.09979c-.116294-.30589-.289131-.40815-.75629-.447477-.494776-.04165-.610309-.117942-.631622-.417092-.02405-.33717.04257-.366118.841676-.366118h.867761v.813594c0 .897669-.09296 1.01826-.321525.417093zm11.386398-3.491339c0-1.370522.05174-1.792354.228173-1.860055.12549-.04815.271941-.04378.325436.0097.05353.0535.09726.890522.09726 1.860054 0 1.654306-.02003 1.762785-.32543 1.762785-.30552 0-.325441-.108479-.325441-1.772495zm.945803.389387c-.01678-.760711-.03513-1.578372-.04067-1.817026-.0056-.238654.08136-.464426.193227-.501716.154908-.05164.203397.381485.203397 1.817026 0 2.208386-.308704 2.643508-.355951.501716zm-71.5167109.56237c.047834-.182926-.016396-.530737-.1427378-.772913-.2919933-.5597-.2896624-.60321.050541-.943414.1552433-.155243.2616825-.439291.2365321-.631216-.044551-.339958.010055-.349945 2.1178406-.387331 1.1899627-.02111 2.8408857.01014 3.6687166.06943l1.5051484.107804v1.340228 1.340229l-1.0983512.103733c-.6040935.05705-2.2967725.104253-3.761509.104889-2.6024156.0011-2.6611733-.0064-2.5761822-.331437zm1.5781685-.236922c.276494-.333154-.1405399-.336881-.5790951-.0051-.3096623.234216-.3090675.239004.030338.244078.1904064.0029.4373485-.104661.54876-.238904zm1.8006033.07564c.4253941-.227665.3959513-.393192-.1110284-.624187-.361559-.164737-.4585839-.150271-.643368.09592-.1848768.246317-.1773468.320501.050074.493312.3230213.245457.3120165.244911.7043243.03496zm1.8688769-.147817c-.2355788-.260312-.3407842-.282172-.5947348-.123578-.4681553.292368-.3721967.439833.2862077.439833.5786722 0 .587005-.0085.3085271-.316255zm-3.9685941-.361731c.8064813-.241628.7238819-.48048-.2625016-.759074-.6589441-.186111-.8144253-.185572-1.0034757.003506-.1898049.189805-.1854027.278408.02904.584569.291355.415967.3789667.428081 1.2369364.171027zm3.8789259-1.03056c0-.700554-.020547-.732235-.4748484-.732235-.2611657 0-.5879186.04339-.7261168.09642-.2252053.08642-.2241676.137782.010008.495173.204413.311974.8838222.823686 1.1502809.86636.02237.0036.040679-.322991.040679-.72572zm-1.789906-.08873v-.658248l-.6101955.110318c-.3356072.06068-.6374191.133933-.670693.162791-.099125.08598.915423 1.043388 1.1056529 1.043388.09638 0 .1752356-.296212.1752356-.658249zm-2.1153437-.145745c0-.237594-.2681339-.346816-.5684746-.231564-.2171017.08331-.228342.132463-.055363.242114.2908064.184342.6238381.17871.6238376-.01055zm32.8691801 1.129428v-.813594h-3.091654-3.091656v-1.210787c0-.6659328-.07322-1.2560419-.162718-1.311353-.08949-.055313-.162719-.2060789-.162719-.3350403 0-.1954705.487232-.2344751 2.928937-.2344751h2.928937v.5695154c0 .5655767.005.5695155.724286.5695155h.724292l.618142 1.1797105.618137 1.179711 2.542157.0447 2.542157.0447.700559-1.224417.700558-1.2244176h1.780081c1.761605 0 1.786101-.00531 2.359134-.5084085l.579046-.5084084 2.168282.073538c1.998023.067763 2.200204.1035239 2.57477.4554128.387099.3636608.40649.4697792.40649 2.2247767v1.842901h-9.193609-9.193609zm17.764211-1.082891c.36507-.330384.387125-1.082372.04188-1.4276261-.574853-.5748532-1.696927-.1170512-1.696927.6923391 0 .870383 1.009972 1.31908 1.655058.735287zm-1.267127-.453432c-.167133-.435537.01685-.8223421.418212-.8792318.511625-.072519.875047.3834288.646297.8108458-.192236.359199-.934615.406891-1.064509.06839zm19.074643-.159642c.09763-.254399.547662-.477792.685285-.340168.09022.09022-.451748.557398-.657187.56649-.0643.0029-.07695-.099-.02814-.226322zm-63.6250578-1.2827689c-.17865-.1306323-.2690034-.3657418-.2344992-.6101954.0503179-.3564754.1446453-.4027751.910407-.4468624l.854273-.049182v.6593777c0 .6552819-.0039.6593794-.619775.6593794-.340875 0-.7505584-.095632-.9104058-.2125159zm27.5651758-.6824378c0-.4278937-.07081-.5734463-.284757-.5853251-.156617-.0087-1.419721-.016077-2.806898-.016413l-2.52214-.0006153v-.3903714-.390386h2.78792c2.57304 0 2.793974.023142 2.866428.3002284.06664.254831.309406.3161243 1.605487.4053539 4.012616.2762537 4.211833.3040122 4.211833.5868764 0 .5924384-.320525.6601676-3.124199.6601676h-2.733674zm-5.206998-2.0968745c0-.2841386.690521-.4382041 2.400101-.5354971 1.14502-.065163 1.342429-.038745 1.342429.1796354 0 .1408189.109836.2560336.244078.2560336.134243 0 .244079-.073223.244079-.1627185 0-.2596781.769091-.1879563.872437.08136.05406.1408891.297285.2440781.575302.2440781.264898 0 .591476-.1098353.725718-.2440781.274302-.2743029.9182-.3313564.9182-.08136 0 .089495.329506.1627185.732232.1627185s.732237-.073223.732237-.1627185c0-.089495.183055-.1627185.406792-.1627185.223743 0 .406798.073223.406798.1627185 0 .089495.292893.1627185.650879.1627185.357979 0 .650873-.073223.650873-.1627185 0-.089495.178737-.1627185.397192-.1627185.218459 0 .442448.073223.497762.1627185.131148.2122064 1.383109.2122064 1.383109 0 0-.089495.183055-.1627185.406792-.1627185.223743 0 .406798.073223.406798.1627185 0 .2122064 1.251962.2122064 1.38311 0 .13094-.2118643.894954-.2118643.894954 0 0 .2122064 1.251956.2122064 1.38311 0 .13094-.2118643.894955-.2118643.894955 0 0 .089495.146443.1627185.325433.1627185.243429 0 .328675-.1127608.338288-.4474764.0071-.2461118.04975-.3559471.09492-.244078.05511.1366277.471705.2033983 1.268979.2033983.856516 0 1.243296.067941 1.389475.2440781.111407.1342427.303435.244078.426718.244078.123282 0 .224155.073224.224155.1627192 0 .1069177-3.878128.1627185-11.30895.1627185-9.532479 0-11.308953-.035442-11.308953-.2256096zm22.201529-.50145c-.202593-.1532291-.706302-.2407584-1.40461-.2440782-.598807-.0028296-1.137012-.0832697-1.196003-.1787195-.161554-.2613971-.054304-.3047251 1.036866-.4187719.849727-.088814 1.003808-.1534763 1.003808-.4212546 0-.1739847.229082-.6353256.509067-1.0252017.459386-.6396768.533642-.6842956.760798-.4571375.208786.2087815.216535.30808.04545.5820329-.115632.1851555-.14212.374351-.06027.4305368.211197.1449923.226314 1.511019.01949 1.7602373-.223682.2695188-.326977.2655231-.714575-.027644zm-22.150037-.1159011c-.209198-.2644499-.224053-1.4474834-.02141-1.7053731.09147-.1164146.08296-.229379-.02218-.2943605-.254655-.1573864-.206024-.7371179.06183-.7371179.299715 0 .743858.444143.743858.7438571 0 .1278505.06836.2324552.151911.2324552.08355 0 .17508.2013645.203398.4474769.04802.4173623.108977.4507864.90576.4966599.707151.040713.854274.1013734.854274.3522325 0 .2556296-.159136.3142458-1.016992.3746007-.559345.039354-1.168555.1239158-1.353797.1879157-.209015.072214-.401248.034901-.506655-.098346zm3.3656-.2960708c0-.089495.07322-.1627185.16272-.1627185.08949 0 .162718.073224.162718.1627185 0 .089495-.07322.1627191-.162718.1627191-.0895 0-.16272-.073224-.16272-.1627191z" fill="#273839" stroke-width=".162718"/></svg>