<svg height="128" viewBox="0 0 135.46665 33.866667" width="512" xmlns="http://www.w3.org/2000/svg"><path d="m105.3249 29.518034c-.29094-.224101-.35416-.598533-.35416-2.097693 0-2.270126.11114-2.396687 2.02693-2.30818.83235.03845 1.42158-.02277 1.50409-.156284.0746-.120727.5369-.219503 1.02729-.219503 1.00298 0 1.38379-.4118 1.27252-1.376054-.0858-.743235-.44456-.614338-.56902.204421-.0756.497042-.20373.66569-.50594.66569-.30838 0-.42885-.168648-.50595-.70832l-.10118-.70832-1.77411-.05852c-1.93826-.06394-2.15271.05721-1.78998 1.011272.16796.441759.11051.598906-.39649 1.084647-.57675.552567-.59291.622153-.59291 2.553952v1.98591h-1.27231-1.2723l.0812-2.607697c.11047-3.545407.19461-3.46362-3.562916-3.46362-3.300426 0-3.68782-.15002-3.68782-1.428116v-.798033h1.315451c1.268227 0 1.315451.01816 1.315451.505943v.505943h7.768244 7.76825l.32684-.498822c.25974-.396401.32685-1.05482.32685-3.20667 0-3.430025.0341-3.387994-3.00407-3.701261l-2.15656-.222363 4.30052-.03061c3.70137-.02634 4.30051.01169 4.30051.272956 0 .256345.51944.308289 3.33923.333923 1.83657.0167 3.44547.03946 3.57533.0506.12986.01113.27405-.0936.32043-.232733.0653-.195984-.71731-.252972-3.47414-.252972-1.95716 0-3.55846-.08045-3.55846-.178774 0-.33499.90846-.42283 4.4017-.425595l3.49101-.0028v.505942c0 .371025.10793.505943.40475.505943.29154 0 .40476.134919.40476.48234 0 .31214-.14283.519689-.40476.588185-.36318.09497-.40475.276046-.40475 1.762757 0 1.48671.0415 1.667783.40475 1.762756.56983.149014.56219 1.070524-.009 1.070524-.38401 0-.40937.10504-.35416 1.467235l.0594 1.467235h.8095c.79204 0 .81089-.01669.87316-.773038.035-.425171-.0302-.886109-.14487-1.024305-.1286-.154949-.21691-2.069563-.23039-4.994712l-.0219-4.743446 1.53278-.05911 1.53278-.05911v1.425154c0 1.385245.0142 1.425153.50595 1.425153h.50594v3.743979 3.743979h-.60713-.60713v2.646377 2.646378l-3.89577-.06607c-4.95317-.084-5.21121-.18273-5.21121-1.993848v-1.209066h-3.29624-3.29623l-.99773 1.012954c-.97454.98941-.99957 1.045657-1.07722 2.419895-.0696 1.23181-.14239 1.448149-.58473 1.73798-.58379.382514-1.08087.115895-.57172-.306659.22786-.189103.31214-.648629.31214-1.701788v-1.442697l1.06248-1.251683 1.06248-1.251682 5.21122-.0129 5.21121-.0129v-1.011879-1.011886h-3.23804-3.23803v.70832.708321h-2.11516-2.11515l-1.21323 1.441312c-.66728.792721-1.24088 1.635116-1.27466 1.871989-.0565.396487-.20187.435318-1.83036.489124-1.66347.05496-1.77599.08668-1.88779.532083-.0654.260501-.089.735083-.0525 1.054629.0658.575935.0805.58187 1.68541.682179 1.25924.0787 1.61902.168647 1.61902.404755 0 .42348-3.87176.535176-4.40171.126983zm19.47096-2.743228c.24717-.461839.10039-.947732-.33701-1.115578-.42908-.164651-.8694.243191-.8694.805267 0 .72903.86346.951129 1.20641.310311zm1.71151.267254c.41087-.157664.42362-1.210779.0165-1.366985-.51656-.198223-.91069.09098-.91069.668239 0 .78461.22077.957141.89414.698746zm2.02377 0c.39362-.151045.4204-.958635.0422-1.272511-.59785-.496169-1.31596.281299-.92851 1.005257.22255.415825.37743.462527.8863.267254zm-3.72743-6.960362c0-.111308-.23815-.202377-.52922-.202377-.51596 0-.52103-.01249-.20237-.498823.43328-.661274.44904-2.790608.0233-3.143967-.16696-.138565-.30357-.377391-.30357-.530723s-.0911-.278786-.20237-.278786c-.31224 0-.23932.7293.10118 1.011886.19936.165459.30357.616996.30357 1.315452 0 .698457-.10421 1.149994-.30357 1.315452-.16696.138566-.30356.468461-.30356.7331 0 .414982.0974.481163.70832.481163.38957 0 .70832-.09107.70832-.202377zm-9.12358-.48593c.15064-.181509.21418-.928032.17656-2.074367l-.0587-1.790813h-.80951-.80951l-.0591 1.817847c-.0499 1.535002-.005 1.857759.29165 2.074366.46026.336551.9761.32556 1.26873-.02703zm-1.15557-1.892002c.0532-1.413803.099-1.568424.46386-1.568424.36485 0 .41058.154621.46386 1.568424.059 1.566932.0586 1.568423-.46386 1.568423-.52248 0-.52292-.0015-.46386-1.568423zm4.49992 1.72577c.44461-.634764.43129-2.931495-.0199-3.430042-.41652-.460252-1.03559-.474563-1.52113-.03516-.28756.260248-.37009.633787-.37009 1.675177 0 1.526475.3545 2.239814 1.11308 2.239814.26969 0 .62212-.198636.79803-.449785zm3.84518 0c.20092-.286865.31503-.893642.31503-1.675176 0-1.405197-.376-2.124961-1.11009-2.124961-.84911 0-1.11605.495809-1.11605 2.072887 0 1.052997.0895 1.535714.33493 1.806939.45537.503184 1.19408.465836 1.57618-.07969zm-15.99651 8.868829c-.0634-.165172-.0835-.465004-.0447-.666295.061-.316623.28845-.365981 1.68673-.365981h1.61624v.607132.607132l-1.57149.05916c-1.24153.04674-1.59568-.0039-1.68673-.241151zm23.19237-2.95486v-2.226149h.50594.50594v-4.452298-4.452299h-.50594c-.47835 0-.50594-.06071-.50594-1.113075 0-1.219459.002-1.220448 1.32703-.886672l.89912.226402v7.56512 7.565121h-1.11308-1.11307zm-65.101835-1.568422c-.06932-.194789-.16291-.422463-.207969-.505944-.04506-.08348.834145-.151783 1.953788-.151783h2.035716v.505943c0 .502326-.01307.505943-1.827745.505943-1.557778 0-1.846364-.05231-1.95379-.354159zm5.683821.199277c-.21912-.14631-.688022-.926211-.688022-1.144351 0-.06137.543822-.386101 1.208491-.721625.890598-.449572 1.49045-.610046 2.280361-.610046.809857 0 1.25387-.123673 1.816429-.505942l.744561-.505943h5.038805c4.78178 0 5.057485.02064 5.405097.404754.297634.328887.623317.404754 1.737494.404754 1.267906 0 1.376076.03431 1.435868.455349.0589.414434.173783.455349 1.278935.455349 1.105159 0 1.220076-.04091 1.278935-.455349.0527-.371154.193035-.455349.758916-.455349.543898 0 .694245.08218.694245.379458 0 .208701.055.654563.122268.990804.09223.461138.01767.715978-.303562 1.037184-.422579.422571-.510794.425812-11.505993.422737-6.094084-.0017-11.180356-.07-11.302828-.151784zm14.250738-2.324238.06402-.556538h-3.359014c-2.799101 0-3.378436.05061-3.475509.303566-.0641.166961-.06318.442436.0023.612166.10066.2623.612494.300254 3.411472.252972l3.292952-.05563zm-23.033849.466984v-1.428276h.919944.919945l-.05985 1.366046-.05984 1.366046-.860104.06223-.860103.06223zm-17.684078.739207c-.260862-.190747-.3394-.476862-.291652-1.06248.06036-.740274.115541-.806277.723071-.864854l.657727-.06342v1.125897c0 .951324-.05676 1.125897-.366075 1.125897-.20134 0-.526722-.117469-.723071-.261043zm1.4939-.95322v-1.011886h.708321.70832v1.011886 1.011886h-.70832-.708321zm1.821395 0c0-.944427.03373-1.011886.505943-1.011886s.505944.06746.505944 1.011886c0 .944427-.03373 1.011886-.505944 1.011886-.472213 0-.505943-.06745-.505943-1.011886zm1.416641-.01407c0-.932552.0393-1.020074.43163-.961292.366845.05497.43519.20898.455349 1.026119.02144.86921-.01997.961433-.43163.961292-.412314-.000142-.455349-.09712-.455349-1.026119zm1.41664.01407c0-.876968.05397-1.011886.404755-1.011886.350786 0 .404754.134918.404754 1.011886s-.05397 1.011886-.404754 1.011886c-.350787 0-.404755-.134918-.404755-1.011886zm1.214263 0c0-.944427.03373-1.011886.505944-1.011886.472213 0 .505943.06746.505943 1.011886 0 .944427-.03373 1.011886-.505943 1.011886s-.505944-.06745-.505944-1.011886zm1.416641 0c0-.876968.05397-1.011886.404754-1.011886.350787 0 .404755.134918.404755 1.011886s-.05397 1.011886-.404755 1.011886c-.350786 0-.404754-.134918-.404754-1.011886zm1.416641 0v-.809509h3.440413 3.440412v.809509.809509h-3.440412-3.440413zm9.916484-2.934469v-3.541602h2.084485c1.351431 0 2.16989.0854 2.327339.242853.374257.374258.314412 2.683855-.07798 3.009514-.323744.268683-.315646 1.1445.02279 2.463968.113177.44125.04392.637868-.336248.954558-.394421.328566-.790805.40003-2.249585.405577l-1.7708.0067zm34.624217 1.640364c-.154194-.185799-.214521-1.032778-.17656-2.47912l.05767-2.196903 2.471721-.05676 2.47172-.05676.058 1.979347.058 1.979347 2.22351.05793c2.72058.07087 2.73474.05885 2.73474-2.322757v-1.681527h1.8821c1.19403 0 1.9709.08879 2.12497.242853.33196.331967.33196 4.241759 0 4.573725-.38179.381784-13.587349.3444-13.905849-.03937zm2.402741-.821134c.34227-.412411.17756-1.021607-.27621-1.021607-.55286 0-.87373.591957-.53931.994921.32954.397063.50342.402753.81552.02669zm-.66102-.240326c-.18886-.188868.0394-.477716.37747-.477716.1604 0 .29162.136604.29162.303565 0 .304828-.42721.416023-.66909.174151zm10.55837.185236c.23446-.418961-.0546-1.067706-.4758-1.067706-.42531 0-.71369.629181-.4846 1.057254.24445.456759.70781.461802.9604.01046zm-.7823-.359387c0-.166961.13661-.303565.30357-.303565s.30356.136604.30356.303565c0 .166962-.1366.303566-.30356.303566s-.30357-.136604-.30357-.303566zm-8.94081-1.985223c.10949-.568517-.33601-.9809-.79455-.735496-.4412.236121-.49302.607665-.13474.965945.33755.337552.8441.211936.92929-.230449zm-.75123-.01196c-.18042-.217397-.18414-.331181-.0142-.436173.33005-.203989.73953.24913.46932.519345-.14636.146354-.28571.120885-.45506-.08317zm10.49402.08865c.15784-.294918.13124-.468568-.10852-.708321-.17469-.17469-.35014-.31762-.38989-.31762-.0398 0-.21521.14293-.38991.317621-.3662.366201-.10621 1.09902.38991 1.09902.15912 0 .38341-.175815.49841-.3907zm-.67256.04791c-.24188-.241872-.13069-.669089.17415-.669089.16696 0 .30356.13123.30356.291622 0 .338101-.28885.566334-.47771.377467zm-74.553645 2.943492c-.352756-.181294-.455349-.409441-.455349-1.012603v-.778583l4.300516.005 4.300516.005.873772.824509c.480575.45348.822534.875747.75991.938372-.240378.240376-9.314201.257249-9.779365.01818zm14.615432.08122-3.85149-.05945-1.271439-1.10886-1.271436-1.10886h-4.616478-4.616476l-.126485-.632428c-.06957-.347836-.126486-.985325-.126486-1.416641v-.784211h9.499785c6.114889 0 9.544353.07211 9.624863.202377.06879.111307.575051.202377 1.125019.202377h.999942v.721625c0 1.307938.23892 1.504524 1.828515 1.504524 1.328713 0 1.409152-.02611 1.403084-.455349-.0035-.250441-.140146-.632126-.303565-.848189-.163422-.216061-.29713-.603108-.29713-.860103 0-.418875.09431-.467262.910697-.467262h.910698v1.41664 1.41664h.778142c1.07337 0 1.448007-.465915 1.448007-1.800811 0-.984146.03283-1.055957.455349-.99595.440697.06259.455348.136299.455348 2.290819v2.226149l-.945168.06102c-.519842.03356-1.054644.192936-1.188448.35416-.254803.307018-.180988.306052-10.824848.141773zm4.145811-2.164837c.13348-.160834.212933-.502346.176562-.758914-.09112-.642782-1.058838-.765975-1.375091-.175051-.457759.855331.587675 1.669998 1.198529.933965zm-.800265-.517081c0-.260843.102486-.404323.252972-.354161.139135.04638.252972.20575.252972.354161 0 .148409-.113837.307781-.252972.354159-.150486.05016-.252972-.09332-.252972-.354159zm-1.214263-.708318v-1.113075h-2.428527c-2.793748 0-2.897641.08671-1.696658 1.416058l.73187.810092h1.696657 1.696658zm-3.509711.101189-.540956-.607132h1.822957 1.822956v.607132.607132h-1.281999c-1.169314 0-1.32955-.05337-1.822958-.607132zm37.355843 3.130653c-.151479-.270682-.899503-.29652-5.92959-.204812-3.165927.05772-7.122282.12881-8.791894.157976l-3.035659.05303-.0653-.569617c-.03591-.31329.08509-.799145.268904-1.079678.249922-.38143.317427-.863088.267676-1.909958l-.06653-1.3999 2.377932.000456 2.377933.000456.0022 1.264857c.0021 1.201779.0432 1.307751.824726 2.124961l.822544.860103h4.92781 4.927806l.822548-.860103.82254-.860104.0023-2.782686.0023-2.782687h6.412435c6.206634 0 6.426747.01345 6.858447.419012.42579.400014.65673.418068 5.09282.398159 3.71454-.01667 4.69311.03496 4.87767.257334.12698.153003.17095.338111.0977.41135-.0733.07324-4.95285.133163-10.843573.133163h-10.710404l-.379867.455349c-.315892.378659-.379868.796191-.379868 2.479121 0 2.508257.245652 2.934469 1.691333 2.934469.512377 0 1.089732.0817 1.283012.181566.19328.09986.579091.275838.857358.391058.384151.159062-.185846.212788-2.367879.223188-2.379459.01134-2.903638-.03959-3.04717-.296062zm-15.065526-.944981c.324466-.324465.324466-3.237375 0-3.561839-.34055-.34055-1.085454-.302274-1.462898.07517-.393425.393426-.451989 3.10985-.07517 3.48667.313061.313061 1.225005.313061 1.538066 0zm-1.249218-.47132c-.06982-.181949-.126946-.821048-.126946-1.42022 0-.862156.08-1.132216.383502-1.294647.61295-.328041.859264.183288.790281 1.64057-.0535 1.130091-.111768 1.289812-.490299 1.343821-.253383.03615-.481662-.0744-.556538-.269524zm27.509457 1.011302c-.305275-.2309-1.076415-.29713-3.459637-.29713-3.776654 0-3.736665.02562-3.736665-2.393867v-1.653677h2.38349c1.811619 0 2.489542-.07427 2.825451-.309555.397552-.278454.518986-.2771 1.208703.01348l.766741.323032-.505937.282917c-.35419.198055-1.249555.285067-2.985068.290088-2.266607.0066-2.992213.171728-2.159003.491461.176063.06756 1.272533.122841 2.436589.122841 1.717095 0 2.266186-.07637 2.909857-.404755.436362-.222614.84255-.404754.902632-.404754.06012 0 .109257.956233.109257 2.124961s-.0683 2.122065-.151785 2.118525c-.08348-.0035-.328559-.140145-.544625-.303567zm-5.982039-1.803014c0-.605623-.09108-1.157416-.202382-1.226208-.126414-.07813-.202375.335194-.202375 1.101131 0 .682553.08973 1.226207.202375 1.226207.111307 0 .202382-.495509.202382-1.10113zm-2.903103.933412c-.511314-.564995-.484137-4.08682.03518-4.55678.330402-.299014 1.176837-.334932 7.892712-.334932 4.880155 0 7.522615.07109 7.522615.202377 0 .128769-1.61504.202378-4.440352.202378-2.74194 0-4.4882.07741-4.565439.202377-.07435.120307-1.351278.202377-3.148786.202377h-3.023713v.607131c0 .472214.08994.607132.404757.607132.327656 0 .404757.134918.404757.70832s-.0771.70832-.404757.70832c-.312771 0-.404757.134919-.404757.59369 0 .492618.09209.604591.54093.657726.297512.03522.578311.177874.623998.317008.132074.402212-1.054661.305496-1.437122-.117124zm15.131067.09818c-.0574-.14955-.0773-.946411-.0442-1.7708l.0601-1.49889h2.12496 2.12496l.0584 1.770801.0585 1.7708h-2.13919c-1.60413 0-2.16529-.06801-2.24353-.271911zm-28.783198-1.002577c-.560466-.578254-.646832-.809074-.646832-1.728719v-1.061358l1.568424.05911 1.568426.05911.06639.708321c.11634 1.240766.447278 1.41664 2.665674 1.41664s2.549333-.175874 2.665673-1.41664l.06639-.708321 1.669617-.05878 1.669611-.05878v.978999c0 .86656-.08814 1.065067-.767445 1.728391l-.767453.749392h-4.555842-4.555848zm-72.085992-2.671864v-2.327337h5.565374 5.565373v2.327337 2.327339h-5.565373-5.565374zm4.4118238.870223c.133569-.133569.2428527-.592336.2428527-1.019481v-.776628l-1.8719895.05819c-1.791702.05569-1.8748785.0786-1.9393564.534121-.037051.261763-.012552.694344.054453.961292.1155038.460205.2034272.485359 1.6965038.485359.9549196 0 1.6702688-.09558 1.8175392-.242853zm5.0889342-.04749c.132531-.15969.211984-.592271.176563-.961291l-.0644-.670947h-1.821399-1.8213948l-.064855.676992c-.1121697 1.170915-.00704 1.245592 1.7539278 1.245592 1.143466 0 1.669409-.08292 1.841555-.290346zm48.176751.08797c0-1.343314.02409-1.41664.465467-1.41664.669712 0 .951174.375229.951174 1.268044 0 1.043598-.305878 1.565238-.917817 1.565238-.482672 0-.498824-.04587-.498824-1.416642zm-45.93963-1.003972c0-1.724044.06066-2.247686.252971-2.18393.407481.135086.458614 3.861162.05756 4.194011-.275974.229038-.310525.0054-.310525-2.010081zm41.730183 1.975382c-.133568-.133573-.242852-.629697-.242852-1.102503v-.859645l-1.06248-.06117-1.062481-.06117-.06326-.766396-.06326-.766395 1.98584.05808 1.985842.05808.0591 1.449516c.03928.963158.158105 1.53168.354159 1.694392.162282.134682.295058.324795.295058.422473 0 .269366-1.908018.212401-2.185674-.06525zm21.823388-.553356c-.369794-.690956-.241208-.822813.802385-.822813 1.066946 0 1.233845.196595.730172.860103-.363108.47833-1.268394.456302-1.532557-.03729zm3.268063-.165087c.04582-.398483.193356-.574904.519391-.621207.560894-.07966.606489.371099.08525.842812-.523973.474192-.67819.417669-.604638-.221605zm-65.809748-1.060419v-1.418702h9.217411 9.21741l-.05984 1.366046-.05984 1.366046-9.15757.05266-9.157569.05266zm64.830551.899908c-.06593-.171762-.06915-.36302-.0069-.42502.177225-.177224.544403.12338.544403.445692 0 .388332-.386041.373479-.53729-.02068zm-2.458863-1.863262c.05936-.924995.08691-.963714.729583-1.025467.48039-.04616.718355-.196886.847621-.536878.516798-1.359289 1.216573-.708291 1.216573 1.131777v1.39186h-1.427729-1.427729zm3.198534-.06404c0-.999146.01423-1.023694.556535-.961292.509661.05865.561735.145006.618222 1.025328.06096.950477.05477.961292-.556542.961292-.608026 0-.618215-.0169-.618215-1.025328zm16.594931.70463c-.628511-.257242.101179-.27989 6.476072-.201002 4.12062.051 7.40015.175717 7.69033.292474.35363.142283-1.59606.202797-6.47607.201002-5.59092-.0021-7.123136-.06033-7.690332-.292474zm-63.306919-.842967c.03522-.306095.166075-.537702.29079-.514682s.59454-.272957 1.044058-.657726c.723264-.619088.949022-.699581 1.962106-.699581 1.65123 0 1.927702.204196 1.927702 1.423761v1.004766h-2.644346-2.644346zm4.010393-.66616c0-1.234417-.693383-1.31234-1.588095-.178473-.662431.839501-.484315 1.120486.652938 1.030036l.935157-.07438zm1.41664.02038c0-.739616-.09735-1.265328-.252971-1.366045-.139135-.09005-.844925-.2177-1.568424-.283668-.723498-.06596 1.029594-.134269 3.895762-.151783l5.211213-.03184v1.517829 1.517829h-3.64279-3.64279zm3.403894-.669669c-.05249-.369625-.213437-.467525-.854888-.520026-1.14674-.09386-1.739497.101903-1.739497.574476 0 .358931.139181.400899 1.329527.400899 1.263013 0 1.326293-.02278 1.264858-.455349zm3.238036 0c-.05886-.414434-.173778-.455349-1.278934-.455349-1.105155 0-1.220073.04091-1.278932.455349-.0615.432983.0015.455349 1.278932.455349 1.27761 0 1.340428-.02237 1.278934-.455349zm1.048405.351783v-1.520205l7.842117.05297 7.842117.05297.05993 1.490466.05993 1.490466-.768248-.133793c-1.826345-.318064-2.488456-.354097-2.488456-.135425 0 .129089-.382943.222755-.910698.222755-.899591 0-.910697-.0083-.910697-.68354 0-1.037331-.297825-1.159863-2.660451-1.094573l-2.095414.05791-.06223.860103-.06223.860104h-2.922833-2.922833zm16.392555.0024v-1.517828h.910697.910698v1.126379c0 .619508.09427 1.302532.209496 1.517829.195398.365101.134096.39145-.910697.39145h-1.120194zm4.493646.151785.05984-1.366047 2.580309-.05664 2.580311-.05664v1.422686 1.422687h-2.640155-2.64015zm5.827592.0506v-1.315452h2.529715c1.55156 0 2.529717.07825 2.529717.202377 0 .111307-.354542.202378-.78786.202378-.888435 0-1.033535.201215-1.033535 1.433191v.792958h-1.619019-1.619018zm8.49984.44523c0-1.044395-.265034-1.355927-1.153546-1.355927-.367316 0-.667849-.09107-.667849-.202378 0-.12454 1.011889-.202377 2.630909-.202377h2.630902v1.315452 1.315452h-1.720208-1.720208zm-16.392681.161559c-.111237-.292573-.202248-1.123438-.202248-1.846368 0-1.190577-.06674-1.40182-.70832-2.242077-.389576-.5102485-.708321-.9897942-.708321-1.0656927 0-.0759.229638-.3537305.510305-.6174034l.510305-.4794065 1.114875 1.1010275 1.114876 1.1010271-.05675 2.226977-.05675 2.226977-.657856.06342c-.552079.05323-.690378-.0221-.860103-.468522zm.97626-.572966c.03873-.199698-.06451-.337389-.252972-.337389-.187731 0-.318404.173031-.318404.421619 0 .493202.472909.423489.571376-.08423zm42.879681-.647315c-.21589-.296628-.5653-.499583-.8601-.499583-.63282 0-.66565-.5609-.0412-.703113.51747-.11784 6.7824-.899812 8.09291-1.010136.47425-.03993 1.18103-.134063 1.5706-.209198.70822-.136589.70842-.136415 1.37029 1.208935.36409.740048.60916 1.43101.5446 1.535471-.0646.10446-.60242.189927-1.19524.189927-.92639 0-1.12444-.0711-1.40936-.505943-.27383-.417915-.49296-.505943-1.25948-.505943-.88878 0-.92261.02137-.80099.505943l.12699.505943-2.88774-.0063c-2.83398-.0063-2.8945-.01566-3.25133-.505944zm-10.26119-.803149c-.18933-.22812-.698452-.303566-2.048553-.303566-1.661701 0-1.79662-.0304-1.79662-.404754 0-.370774.134919-.404755 1.607073-.404755.883892 0 1.663361-.09107 1.732155-.202377.08288-.134094-4.146631-.202377-12.535443-.202377-10.831214 0-12.660522-.04173-12.660522-.288801 0-.243304.884743-.288204 5.615967-.285002 7.026955.0047 7.133795.0018 7.133795-.198223 0-.090692-.341508-.334864-.758909-.5426044l-.758916-.3777457 1.178979-.1603501c.953305-.1296573 1.277802-.095598 1.695272.1779372.349761.2291749 1.094497.3659335 2.308936.4239963 1.566625.074898 1.80973.041174 1.928189-.2675181.08665-.2258247.0143-.421079-.200623-.5413549-.268882-.1504738-.291691-.2712469-.11393-.6033891.543446-1.0154347-.582518-2.801166-1.766224-2.801166-1.156843 0-2.01349 1.1217162-1.841175 2.4108685l.09704.725978h-4.071756c-2.239469 0-4.094535-.068305-4.122361-.1517825-.02784-.083481-.05056-.8348059-.05056-1.6696125v-1.5178254h1.988501c1.859395 0 2.019356-.032844 2.463803-.5059436.409846-.4362575.651635-.5059428 1.755487-.5059428 1.237592 0 1.280174.017179 1.280174.516519 0 .4959525.0423.5140835 1.062478.4553491.96582-.055607 1.058096-.1025963 1.014276-.5165197-.04421-.4177992.03503-.4553484.961291-.4553484.831979 0 1.009502.06318 1.009502.3592728 0 .3262709.194978.3520545 2.122716.2806949 1.624849-.060143 2.314076-.00199 2.938571.2478596.448707.1795397 1.038468.3264361 1.310571.3264361.815266 0 1.126675 1.1107607.787232 2.8079834-.114221.5711306-.198825.6324289-.872831.6324289-.56452 0-.887564.1473982-1.325999.6050206-.318806.3327617-.516783.6678818-.439957.7447108.07683.07683.885758.146082 1.797622.153894l1.657929.0142.75161 1.07368c.63638.909063.78106 1.021064.94366.730501.21292-.380452.65011-.224746.65011.231536 0 .416911-2.0811.406676-2.42852-.01194zm-4.128832-4.2499572c.01553-.9495195.0023-1.0070982-.06119-.2640883l-.08114.950175-.833738.061711c-.460434.034076-.872771.1803252-.920913.3266219-.06555.1992447.15629.2494101.894975.202377l.982135-.06253.01989-1.2142634zm3.113845-1.0624778c-.0023-.8259813-.06004-1.0755765-.199277-.8601031-.222162.3437632-.26329 1.2248036-.07954 1.7036548.214139.5580264.282.3526993.278818-.8435517zm-24.686923 4.604082c0-.391263.134919-.404755 4.047544-.404755 3.912628 0 4.047547.01349 4.047547.404755 0 .391262-.134919.404754-4.047547.404754-3.912625 0-4.047544-.01349-4.047544-.404754zm8.49984.202377c0-.111307.182143-.202377.404757-.202377s.404757-.09107.404757-.202378c0-.111306.182136-.202377.40475-.202377.222621 0 .404757.09107.404757.202377 0 .111308.182143.202378.404757.202378.222613 0 .404749-.09107.404749-.202378 0-.111306.136609-.202377.30357-.202377.16696 0 .303562.09107.303562.202377 0 .111308.182143.202378.404757.202378.222613 0 .404757-.09107.404757-.202378 0-.111306.227669-.202377.505944-.202377.371018 0 .505937.107935.505937.404755 0 .382268-.134919.404754-2.428527.404754-1.484094 0-2.428527-.0787-2.428527-.202377zm5.464185-.202377c0-.350787.134919-.404755 1.011889-.404755s1.011889.05397 1.011889.404755c0 .350787-.134919.404754-1.011889.404754s-1.011889-.05396-1.011889-.404754zm2.630909 0c0-.382268.134919-.404755 2.428527-.404755s2.428527.02249 2.428527.404755c0 .382268-.134919.404754-2.428527.404754s-2.428527-.02249-2.428527-.404754zm-12.462059-3.3075692c-.05737-.1495513-.0773-.946411-.04421-1.7708006l.06012-1.4988898.657729-.063417.657721-.063417v1.8342176 1.8342169h-.61348c-.337416 0-.660437-.1223603-.717827-.2719101zm11.24798-.132658c-.562998-.5630005-.460747-1.3612997.2412-1.8830261.51084-.3796823.576391-.3844407 1.047135-.075999.722362.4733096.858498 1.0896872.382147 1.7301896-.509624.68523-1.129215.7701068-1.670482.2288355z" fill="#273839" stroke-width=".202377"/></svg>