<svg height="128" viewBox="0 0 135.46665 33.866667" width="512" xmlns="http://www.w3.org/2000/svg"><path d="m84.711312 27.518567c-.932558-1.792496-1.085681-2.269388-.72868-2.269388.107456 0 .465331.622457.795269 1.38324l.599895 1.383238.72181-1.043883c.623815-.90217.828602-1.044656 1.508438-1.049554 1.337155-.0096 1.519915-.279047.864084-1.273746-.31192-.473101-.688076-1.087745-.83589-1.365875-.253317-.47663-.226066-.505692.474073-.505692.677432 0 .828339.138569 1.714024 1.573872 1.40461 2.276246 1.746295 1.805842.48464-.667209-.254403-.498664-.372572-.906663-.2626-.906663.264282 0 1.381062 2.589817 1.38745 3.217528.0025.269984.202782.743725.444512 1.052759.24173.309033.441751.803576.444503 1.098983.009.965849-.540067 1.133656-3.734557 1.14139l-2.952914.0071zm6.605144.427635c0-.550314-.03941-.563202-1.913418-.626042l-1.913408-.06417-.407765.690287-.407755.690285 2.321173-.06424c2.308949-.06391 2.321173-.0672 2.321173-.626123zm-39.786334-2.753211c-.0694-.278131-.09661-1.517077-.06047-2.753212l.06571-2.247519h2.247519 2.24752l.06571 2.247519c.09987 3.416349.211631 3.258903-2.313226 3.258903-2.018122 0-2.133015-.02579-2.252753-.505691zm28.283693-.449505c-.37969-.401743-1.427655-2.146381-2.328809-3.87697-2.242879-4.307272-2.300978-4.382663-3.377383-4.382663-.775699 0-.883704-.06403-.883704-.523901 0-.799994.774087-1.079457 2.779745-1.003557l1.759113.06657 1.832295 3.525873c1.634735 3.14572 1.801195 3.576803 1.543895 3.998237-.240413.393769-.22847.57381.07178 1.082089.28055.474934.308276.746244.125397 1.227247-.306798.80694-.679056.779325-1.522328-.112925zm2.175432.198874c0-.16875.202273-.563971.449498-.878269.589939-.74998.56939-1.421913-.05615-1.837595-.278129-.184812-1.365373-2.005878-2.416082-4.046813l-1.910394-3.710792-1.966579-.0039c-1.742464-.0035-1.966581-.05001-1.966581-.408457 0-.95511-1.101783-1.259823-1.662206-.459706-.244135.348553-.276983.600475-.117213.899007.21298.397955-.0022.414756-5.313098.414756-5.19475 0-5.570203.02763-6.106519.449504-.547979.431041-.91177.449504-8.856966.449504h-8.285545v-1.23613-1.236136h6.24994 6.249943l.66118-.893695.661182-.893695 5.186307-.0054 5.186303-.0054.52786.561879.527859.56188h10.260237 10.260234l.527861-.56188c.595732-.634128 1.591218-.744738 2.022767-.224752.497433.599369 2.103899.372223 7.014869-.991859 2.631536-.730943 5.154296-1.4281103 5.606116-1.5492606l.8215-.2202741.0844.8847824c.0657.6886563-.061 1.1082623-.57144 1.8929693-.76837 1.181218-1.09612 1.165037-.39717-.0196.52741-.893906.65097-2.3664073.19642-2.340848-.15451.00869-.48321.1081646-.73044.2210598-.40468.1847925-.39347.2000283.11238.1527671.78188-.073053.85052.6874081.16113 1.7849001-.29698.472795-.49689.98605-.4442 1.140566.0747.218914-.95335.280941-4.656014.280941-2.613479 0-4.700075-.08366-4.636884-.185916.0632-.102255.727212-.37131 1.47559-.5979.74838-.226591 1.32178-.450898 1.274211-.49846-.137094-.137101-2.229738.411018-2.725795.713958-.287847.175785-2.062454.331173-4.934346.43206-2.466659.08665-4.590565.241928-4.719793.345057-.129219.103129-1.400523.234284-2.825112.291454s-2.822123.22809-3.105638.379822c-.46794.250432-.486314.321035-.19918.765473.17396.269278 1.352929 2.234232 2.619926 4.366567 1.266999 2.132333 2.355933 3.87697 2.419864 3.87697.06396 0 .315131-.252846.55822-.56188.428652-.544952.525294-.56188 3.20754-.56188 2.326362 0 2.814553-.06039 3.074028-.38027.209595-.258389.218412-.326174.02752-.211489-.198493.119251-.280932-.01902-.280932-.471142 0-.479035-.243216-.843227-.96736-1.448534-.827286-.691529-1.092112-1.145876-1.829015-3.137933-.473912-1.281129-.909097-2.455748-.967081-2.610265-.07373-.196478.174207-.28094.824686-.28094 1.119847 0 1.321185.345543.91624 1.572526-.271656.82312-.245357.938893.544927 2.399374.968481 1.789798 1.772882 2.543741 2.713731 2.5435 1.074699-.00027 5.494767-1.481549 6.09027-2.041.31062-.291807.539914-.76406.539914-1.111987 0-.80134-.798947-1.789149-1.447082-1.789149-.425526 0-.601228.235252-1.007149 1.348512-.270424.741681-.58739 1.348512-.70437 1.348512-.116969 0-.212677-.758538-.212677-1.685639v-1.68564h-2.444753c-1.898924 0-2.50722-.07527-2.724536-.337128-.247863-.298655.588987-.333099 7.3331-.301818 4.1871.01942 7.10722.09527 6.48914.168563l-1.12376.133255-.0703.978166c-.0504.701684.0446 1.105022.33592 1.426965.39485.436299.38793.463332-.24823.970591-.64329.51295-.6478.531835-.26601 1.114537.3791.578574.37463.603572-.18722 1.04552-.31658.249025-.5756.552119-.5756.673543 0 .121425.40832.822053.90737 1.556952.6232.917696 1.05483 1.336179 1.37817 1.336179.61557 0 1.92476-.816494 2.23315-1.392729.26919-.502989.60732-.314542.74819.417.13047.677415-.0719.876716-2.01332 1.983101-2.15842 1.230024-2.46207 1.272022-2.27047.314029.11162-.558151-.0238-.971436-.66316-2.023956-.44188-.727423-.99806-1.42675-1.23594-1.55406-.23788-.127309-.43251-.468126-.43251-.757371 0-.368517-.213834-.629461-.714521-.871951-.653308-.316407-.802516-.311577-1.741827.05638-.565016.221334-1.381292.471112-1.813937.55506-.432654.08395-1.618189.374647-2.634529.645997-1.634379.436357-1.862883.561191-1.977619 1.080383-.192623.871639-.969467 1.098398-3.770438 1.100585l-2.517892.002-.867558 1.346544c-.731135 1.134804-.969705 1.346558-1.517078 1.346558-.398989 0-.649511-.118342-.649511-.306819zm18.353083-13.852553c1.28341-.370842 2.39878-.674256 2.47861-.674256.0799 0 .0877-.05749.0174-.127751-.12084-.120832-4.881909 1.166786-5.09232 1.377204-.198221.198216.307206.08624 2.59631-.575197zm15.69685 12.835154c-.81564-.123995-.90554-.204196-.96927-.864749-.054-.559202.14153-1.023831.84282-2.003167.50492-.705108.91307-1.535556.91307-1.857771 0-.361809-.81024-1.796265-2.13748-3.784196l-2.13748-3.201512h-3.01639-3.0164l-.0716-2.082514-.0716-2.0825151 1.23614.00357c1.20825.00348 1.23779-.011654 1.30961-.6706966.0818-.7505233.4884-1.3451002.4884-.7141853 0 .2129051.41744.8399626.92764 1.3934622l.92763 1.0063618h2.77286c2.54285 0 2.79283.037291 3.01344.4495041.22576.42184.17092.4495034-.89109.4495034-.85611 0-1.13168.08209-1.13168.3371275 0 .256937.28118.337128 1.18208.337128.93866 0 1.23987.09256 1.46279.449504.40814.653557 3.1034.653557 3.93427 0 .49989-.393217.91177-.449504 3.28921-.449504 2.26595 0 2.71777-.05605 2.71777-.337128 0-.282444-.47569-.3371275-2.93263-.3371275h-2.93262l-.30619-.7282175c-.16842-.4005195-.25871-.805073-.20065-.8990075.058-.093934 1.81894-.17079 3.91308-.17079h3.80752v.7866312c0 .5493935.10167.7866321.33712.7866321.18542 0 .33713.1517078.33713.3371282 0 .18542-.15171.337128-.33713.337128-.25922 0-.33712.288597-.33712 1.248866 0 1.019306-.1678 1.574754-.91281 3.021771-.89106 1.730647-.91173 1.822499-.86708 3.853595.0307 1.396709-.0387 2.108817-.21095 2.166253-.14118.04706-.25669.258353-.25669.469542 0 .535016-1.73918 2.183055-2.74599 2.602074-.6322.263117-1.58957.340003-3.93315.315873-1.70367-.01754-3.50212-.0934-3.99656-.168564zm8.00996-1.7329 1.1029-.809596-.0614-3.854006-.0614-3.854006-4.10174-.06125c-4.81099-.07185-4.71304-.144099-2.97796 2.196401l1.12377 1.515869v2.838096 2.838097h1.93646c1.86963 0 1.97454-.02795 3.03936-.809597zm-4.52631-2.437637v-2.797731l-1.12377-1.350334c-.61806-.742684-1.12376-1.405334-1.12376-1.472556 0-.06723 1.66879-.122222 3.70841-.122222h3.70841v3.438042 3.438043l-.8523.832244c-.83374.814127-.89001.832246-2.58465.832246h-1.73234zm-6.0683-9.45125c0-.283615-.49946-.3371274-3.14653-.3371274-2.64708 0-3.14653.053515-3.14653.3371274 0 .283616.49945.337128 3.14653.337128 2.64707 0 3.14653-.05352 3.14653-.337128zm-32.051892 13.052223c-.204481-.532861.08486-1.071017.529738-.985339.248806.04792.393995.280665.393995.631601 0 .640684-.709381.912337-.923733.353738zm21.654102-1.299663c-1.36857-1.855089-1.34663-1.779064-.70648-2.447237.55136-.575492.56204-.63384.23271-1.270712-.33301-.643969-.32537-.676558.21683-.923599.30912-.140843.59552-.256077.63646-.256077.041 0 .46262.581545.93707 1.292324.47445.710778 1.03945 1.497321 1.25557 1.747873.49864.578083.32881 1.263291-.45715 1.844375-1.11795.826538-1.51308.828976-2.11501.01306zm-20.961685-2.799723c-1.078265-1.83372-2.154552-3.656746-2.391754-4.051168-.426588-.709317-.426435-.719723.01359-.955196.244661-.130935 1.437577-.241283 2.65094-.245213 1.582742-.0051 2.329379-.100388 2.642378-.337128.908164-.686903 1.142444-.44701 2.146994 2.19848.75486 1.987928 1.169939 2.746321 1.941636 3.547562.667732.693295.981521 1.214233.981521 1.629451v.610348h-2.684282c-2.465684 0-2.710998.03815-3.012394.468452-.311572.444824-.426995.300295-2.288588-2.865588zm7.311007 1.942814c0-.38855-1.167552-2.017949-1.445969-2.017949-.215337 0-1.251054 1.77261-1.251054 2.141155 0 .0585.606826.106365 1.348512.106365.768044 0 1.348511-.09882 1.348511-.229571zm39.936388.735262c-.1-.154516-.47927-.28094-.84281-.28094h-.66099v-2.836187-2.836187l.84282-1.377912.84282-1.37791.0641 2.179375c.096 3.260722-.0392 6.849342-.24601 6.529761zm.95206-5.82482c-.009-3.316964-.092-6.5618206-.18447-7.2107923l-.16804-1.1799472h.84266c1.39591 0 1.62874.428181 1.45964 2.6842725-.65875 8.788192-1.03544 11.442886-1.65244 11.645194-.21979.07207-.28451-1.220544-.29735-5.938727zm-78.533764 3.073621c-.241678-.761458.0736-.90102 2.035393-.90102h1.897128v.674256.674256h-1.895246c-1.695016 0-1.910252-.04727-2.037275-.447492zm-23.926231-.732455c.01939-.934516.553187-3.428041.721702-3.37128.09175.0309.355513.05619.586142.05619.372474 0 .398678.106722.23454.955195-.101634.525358-.189192 1.385034-.194575 1.910392-.0093.909319-.04218.955195-.684044.955195-.552503 0-.672361-.09131-.663765-.505691zm9.904686-.155787c.409126-.553371.466773-.849588.352733-1.812483-.129415-1.092687-.111146-1.147427.360496-1.080351.400386.05694.510758.240994.568644.94824.104326 1.274646-.0826 1.77488-.827698 2.215021-.925016.546421-1.017419.491403-.454175-.270427zm-23.130592-.05773c-.38826-.388261-.346284-2.533477.05611-2.867432.179195-.14872.609094-.240683.955332-.204365.346236.03632.762612-.01622.925279-.116755.162666-.100534.324643-.147377.359948-.104095.0353.04328-.03851.862516-.164021 1.820521l-.228209 1.741828h-.817367c-.449551 0-.938732-.121367-1.087068-.269702zm2.427321-.485562c0-1.573382.277427-2.840768.621837-2.840768.263181 0 .305799.182629.196676.84282-.07662.463551-.140422 1.272658-.141783 1.798016-.0018.698129-.0932.955196-.339602.955196-.232786 0-.337128-.233754-.337128-.755264zm1.208057-.846249c.08186-.880832.203494-1.689939.27029-1.798016.06679-.108076.803906-.196503 1.638026-.196503h1.516579l-.212964 1.573264-.212964 1.573263h-1.078864c-.593375 0-1.141371.10114-1.217768.224752-.0764.123613-.299166.224753-.495043.224753-.305621 0-.335024-.227165-.207292-1.601513zm11.643381 1.37589c-.345835-.146577-.484583-.353829-.412208-.61573.06001-.217131.174363-.87519.254134-1.462354l.145041-1.067573h2.380957c2.252774 0 2.361877.02118 2.026508.393317-.508852.564645-.675198 1.439816-.4075 2.143916.226949.596922.214148.609294-.630423.609294-.474141 0-1.306028.04951-1.84864.110038-.54261.06052-1.221153.01061-1.507869-.110908zm-8.131646-.754392c0-.415394.06432-1.224501.142925-1.798016l.142926-1.042751h.987093.987093l-.137034 1.517075c-.188118 2.082607-.18598 2.078955-1.216942 2.078955-.878496 0-.906061-.02298-.906061-.755263zm13.182824.344251c-.827327-.914183-.141981-2.342198 1.124085-2.342198.677789 0 1.425728.749968 1.425728 1.429597 0 1.109604-1.791317 1.750731-2.549813.912601zm4.797332-1.229677c0-.902379-.108506-1.749194-.241124-1.881812s-.208472-.582683-.168563-1.000147l.07256-.759022 1.741827-.06565 1.741828-.06565v2.217797c0 2.027639-.0446 2.259697-.520177 2.706477-.381285.358199-.801363.488681-1.573264.488681h-1.053087zm-15.632805.123614c.245528-2.092671.140761-1.992339 1.978773-1.895.896392.04748 1.686716.151926 1.756279.232119.06956.0802.03545.77792-.07581 1.550504l-.202285 1.4047h-1.804289-1.80429zm26.896584.827036c-.538573-.328343-.830384-.393674-1.000146-.223913-.145729.145731-1.411521.239697-3.228897.239697h-2.989201v-.56188-.56188h8.634222c6.697082 0 8.659654-.06303 8.747582-.28094.06235-.154517.121345.09833.131104.56188l.01775.84282h-1.415939c-.801615 0-1.532949-.117015-1.685639-.269703-.209767-.209768-.329637-.209768-.539404 0-.148337.148336-.54692.269703-.885743.269703s-.678549.101138-.754946.224751c-.0764.123615-1.068467.224374-2.204598.223912-1.690051-.000697-2.203975-.08515-2.826141-.464447zm10.918976-1.567295c-.0678-.259285-.0029-.512976.145972-.570082.14748-.05659 2.642804-.0757 5.545166-.04244 5.107033.05851 5.27702.07494 5.27702.509961 0 .435423-.169874.451386-5.422993.509626-5.327194.05906-5.425152.05187-5.545165-.407065zm-24.879778-1.113943c-.185743-.120036-2.178981-.219413-4.438852-.221309-2.582353-.0022-4.101723-.08669-4.101723-.228194 0-.123615.139913-.224752.310915-.224752s.36381-.202277.428462-.449504c.112971-.431997.306565-.449504 4.970756-.449504h4.853209v.899008c0 .88963-.0088.898972-.84282.895565-.463551-.0019-.994527-.101481-1.179947-.22131zm35.759201-.308641c-.374443-.451176-.05521-1.076364.50836-.995566.55187.07912.776328.824279.332932 1.10527-.416598.264011-.545037.247263-.841292-.109704zm32.264024-2.16363c.21905-.370841.46815-.674255.55354-.674255.22873 0-.0596.983869-.34483 1.176506-.51074.34497-.59268.147761-.20871-.502251zm-101.3579103.045285c-.5795491-.640395-.697649-1.68232-.2818292-2.4864264l.3647684-.7053842h5.7348567 5.7348574l-.06565 1.7418276-.06565 1.741828-5.5242993.06003c-5.1147499.05558-5.5519267.029494-5.8970616-.351875zm7.0387063-.607163c0-.283021-.486963-.337127-3.0341517-.337127-2.5471885 0-3.0341512.05411-3.0341512.337127 0 .28302.4869627.337128 3.0341512.337128 2.5471887 0 3.0341517-.05411 3.0341517-.337128zm0-1.573264c0-.283021-.486963-.3371277-3.0341517-.3371277-2.5471885 0-3.0341512.05411-3.0341512.3371277 0 .283021.4869627.337128 3.0341512.337128 2.5471887 0 3.0341517-.05411 3.0341517-.337128zm19.696131 2.427688c-.183849-.183849 3.663661-4.1133274 4.027525-4.1133274.135546 0 .483983-.2528457.774307-.5618796.321514-.3422356.776117-.5618795 1.162936-.5618795.349294 0 .63508-.1011388.63508-.2247526 0-.1236137-.157678-.2247516-.350393-.2247516-.192717 0-.287885-.1011388-.211488-.2247516.09095-.1471573 7.164953-.2247526 20.489739-.2247526 17.997292 0 20.335872.03899 20.221463.337128-.114107.2973623 1.462173.3371278 13.363471.3371278 9.36545 0 13.633853-.075465 13.953803-.2466922.5559-.2975152 1.00611.066189 1.12059.9052935.0668.4892052-.0663.5904798-1.27397.970174-1.28663.4044923-2.07202.4174847-17.113327.2830966-8.670638-.07747-18.632771-.067973-22.138065.021109l-6.37326.1619623-1.412375 1.7619279-1.412377 1.761928h-6.272115c-3.938971 0-6.323785-.0836-6.411018-.224752-.181179-.293153-3.864356-.293153-4.045536 0-.08361.135289-1.630026.224752-3.884962.224752h-3.746058l1.792742-1.805138 1.792743-1.8051364.0674 1.2432574.0674 1.243257h1.786798c1.041367 0 1.786801-.09376 1.786801-.224751 0-.124863-.599339-.224753-1.348511-.224753h-1.348504v-.796478-.7964784l1.625719.066036 1.625718.066037-.06964.9551954-.06964.955197h1.702826c.985382 0 1.702826-.09469 1.702826-.224752 0-.127008-.641543-.224753-1.475128-.224753h-1.475134l.07043-.730444.07043-.7304434 1.741826-.065646 1.741828-.065646v1.0208374 1.020839h1.68564c.973925 0 1.68564-.0949 1.68564-.224752 0-.126784-.636797-.224753-1.460888-.224753h-1.460886v-.786631-.7866318h1.68564 1.685639v1.0113838 1.011384h1.68564c.973925 0 1.68564-.0949 1.68564-.224752 0-.126784-.636797-.224752-1.460888-.224752h-1.460888v-.796086-.7960859l1.741828.065646 1.741827.065646.06956.9644089.06956.964408 1.728454-.0654c1.718544-.06503 1.728877-.0691 1.802192-.710624.04055-.354874.01969-.860566-.04636-1.1237602-.120069-.4784095-.122512-.4785352-9.269814-.4785352-7.119979 0-9.170493-.062324-9.243383-.2809398-.203742-.6110775-.932349-.1826449-2.973801 1.7486362-2.050622 1.939961-2.441327 2.200921-2.783249 1.858999zm17.814007-3.8693339c.172529-.1092451.251557-.3605422.175618-.5584384-.109407-.2851131-.483768-.359811-1.803246-.359811-1.741841 0-2.438206.3158661-1.894668.8594051.308103.3081028 3.056142.3540125 3.522296.058842zm4.786934-.046253c.135602-.083807.184413-.314289.108475-.5121852-.108272-.282152-.475188-.359811-1.700009-.359811-.859065 0-1.721915.06139-1.917443.1364219-.424317.1628255-.469629.676376-.07457.8451468.388349.1659048 3.280925.077462 3.583549-.1095722zm4.652649.052182c.172528-.1125071.251557-.366474.175616-.5643701-.202624-.528033-3.697764-.528033-3.90039 0-.07594.1978961-.01542.4356096.134471.528253.39929.2467746 3.223689.2751872 3.590303.036119zm3.35193-.4184888c-.05698-.2958706-.296953-.393316-.968597-.393316-.671645 0-.911619.097445-.968597.393316-.06336.3290241.09496.393316.968597.393316.873633 0 1.031961-.064295.968597-.393316zm-45.244732 4.0420927c-.123614-.09082-.224752-.771953-.224752-1.513634 0-1.2324246.161832-1.6728829.618068-1.6821971.09271-.00187.168563.7550961.168563 1.6821971 0 1.63165-.08598 1.863271-.561879 1.513634zm6.227021-1.457445.06604-1.6294519 1.96658-.064941 1.966579-.064941v1.6943899 1.694389h-2.032618-2.032613zm5.797208 1.424253-1.236135-.13193v-1.348512-1.3485112l.967437-.069706c.65896-.047485 1.012056-.190811 1.107367-.4495035.23382-.6346397.535873-.7099075 2.863246-.713482l2.241026-.00348-1.454395 1.4704697c-1.311624 1.326121-1.462024 1.419888-1.532118.955196-.04274-.283401-.190944-.65301-.329325-.8213556-1.059493-1.2889078-3.191512.067659-2.407796 1.5320416.287347.536914 1.261657.992756 1.632295.763689.142348-.08798.175124-.04274.08025.110769-.0882.142711-.280821.242993-.428042.222844-.147222-.02015-.823936-.096-1.503812-.168565zm-11.012845-1.480441v-1.4880218l.815979.069757.81598.069757v1.3485118 1.348513l-.81598.06976-.815979.06976zm2.022767 0v-1.4608868h.786632.786632v1.4608868 1.460888h-.786632-.786632zm2.022768 0c0-1.148732.07203-1.4608868.337128-1.4608868.265092 0 .337127.3121548.337127 1.4608868 0 1.148733-.07203 1.460888-.337127 1.460888-.265092 0-.337128-.312155-.337128-1.460888zm7.788776.600371c-.522533-.57739-.462916-1.092292.174846-1.510171.757652-.4964319 1.47596-.1083486 1.47596.797425 0 1.020113-.986991 1.446254-1.650806.712746zm39.184382-.825122-1.220781-1.2361358h8.589086 8.58908v1.2361358 1.236135h-7.3683-7.368304zm16.388161 1.179947c-.01028-.0309-.044-.283749-.07484-.56188-.05437-.490487.0034-.505691 1.929125-.505691 1.091857 0 1.985205-.06933 1.985205-.154079 0-.08474-.219908-.388158-.488684-.674256l-.48868-.5201768h7.051446c3.958627 0 6.957785.084894 6.837915.1935512-.32714.2965606-6.892637 2.0539686-7.673414 2.0539686-.37868 0-.814408-.151709-.968296-.337129-.433732-.522617-2.302383-.447871-2.809397.112377-.359159.396865-.692231.449503-2.844234.449503-1.340589 0-2.445866-.02529-2.45617-.05619zm-32.753106-1.348512c.06893-.714897.09617-.7319107 1.279774-.7993966 1.598465-.091139 1.773924-.00246 1.65105.8347666-.101936.694542-.103123.695074-1.551633.695074h-1.449619zm6.833909.224753c.596429-1.0483965.674645-1.0675721 4.354526-1.0675721h3.519149l.645978.6742561.645977.674256h-4.66273c-3.665586 0-4.628548-.06008-4.5029-.28094zm59.410444-1.0538559-.47753-1.1100431-2.84096.00255-2.84095.00255-.84568-.906611c-.59329-.6360512-.84567-1.11043-.84567-1.5895717v-.6829585h5.59127c6.26302 0 6.27194.00221 5.99407 1.4833509-.0979.5216246-.30263.8532269-.57008.9231643-.40467.1058252-.40405.1401543.0201 1.1298395.66817 1.5587615.46418 1.8576915-1.26763 1.8576915h-1.43949zm-33.394868.3795999c-.236361-.3824406.236056-.6180678 1.23918-.6180678.934011 0 1.604946.2771699 1.604946.6630178 0 .189793-2.725669.146715-2.844126-.04495zm-55.10132-2.6970234c.06875-.484071.175478-.5084232 2.496269-.5695688 1.844215-.048589 2.49967.011349 2.738762.2504383.615137.6151363-.08435.8248219-2.751521.8248219-2.521416 0-2.554376-.00671-2.48351-.5056914zm-2.728618-1.3939032c-.148957-.1794815-.235361-.5081811-.192008-.7304439.07118-.3648923.310115-.396216 2.462007-.3227517 1.588684.054238 2.434682-.00195 2.537649-.1685635.084955-.137459.60679-.2499253 1.159634-.2499253.752403 0 1.041528.098907 1.149735.393316.07951.2163242.278612.4741954.442452.5730482.163836.098852.297888.3264137.297888.5056914 0 .4828369-7.456623.4824844-7.857357-.0003822zm11.972446-.0413431c-.252457-.6578927.251731-1.0891522 1.358167-1.1617128.824388-.054068 1.044551.00518 1.044551.2809398 0 .4461327.361092.4545108.530781.012317.09776-.2547561.509618-.3371279 1.68564-.3371279 1.274241 0 1.5839.071278 1.708743.3933152.145215.3745872.166267.3745872.442139 0 .360945-.4900989 1.476248-.5325487 1.476248-.056183 0 .4362901.36336.4362901.530781 0 .09776-.254756.509618-.3371278 1.685639-.3371278 1.274242 0 1.583901.071278 1.708745.3933151.145214.3745873.166266.3745873.442138 0 .377612-.5127308 1.382148-.5127308 1.579691 0 .144321.3745873.162051.3745873.372343 0 .323905-.5769676 3.225709-.5769676 3.449378 0 .145214.3745873.166267.3745873.442139 0 .377545-.5126408 1.381896-.5126408 1.580628 0 .145215.3745873.166268.3745873.44214 0 .421494-.5723159 3.156778-.5723159 3.378644 0 .145214.3745873.166267.3745873.442139 0 .377544-.5126408 1.381896-.5126408 1.580628 0 .145214.3745873.166267.3745873.442139 0 .407473-.5532788 3.15677-.5741762 3.367279-.025594.130646.3404595.171232.3404595.547434 0 .532939-.4823033 1.294892-.4691861 1.486699.025594.145215.3745873.166267.3745873.442139 0 .397035-.5391047 3.151571-.5726421 3.44854-.041988.1783.3186047.223775.3186047.488192 0 .391431-.471646 1.275387-.4463068 1.46468.041988.145215.3745873.166267.3745873.442139 0 .419263-.5692868 3.146374-.5692868 3.487846 0 .224682.3745873.247158.3745873.47184 0 .305481-.5092795 1.2443-.5092795 1.441721 0 .145215.3745873.166273.3745873.442142 0 .419266-.5692868 3.146379-.5692868 3.487852 0 .224682.3745873.24715.3745873.471839 0 .305473-.5092795 1.244292-.5092795 1.441723 0 .145214.3745873.166272.3745873.442141 0 .419266-.5692868 3.146378-.5692868 3.487842 0 .22469.3745873.247158.3745873.471848 0 .305473-.5092795 1.244291-.5092795 1.441722 0 .145214.3745873.166264.3745873.442142 0 .395226-.536649 3.499011-.58649 3.499011-.056183 0 .43629.363364.43629.530783 0 .173858-.4530634 1.183361-.4303582 1.360251.030589.130647.3404595.171225.3404595.547432 0 .541282-.4898558 3.295902-.5269015 3.480132-.046805.0677.1765051.40639.3534969.75258.3933152.38368.044129.65854.2259562.70401.4657134.0708.3731475-1.62657.3933161-33.099863.3933161-30.506107 0-33.185795-.029578-33.315537-.3676769z" fill="#273839" opacity=".998" stroke-width=".224752"/></svg>