<svg height="128" viewBox="0 0 78.657705 33.866667" width="297.289" xmlns="http://www.w3.org/2000/svg"><path d="m3.8763616 30.380189c-.589368-.376577-.7973585-.712078-.6612828-1.066686.1370141-.357053.2129788-.341267 1.1171639.232151.8287444.525573.9036337.650297.5829919.970939-.2634284.263428-.4518213.238694-1.038873-.136404zm40.9513224-.07231c.05742-.05815 1.633402-1.155901 3.502173-2.439459 2.288052-1.571539 3.42733-2.454305 3.488284-2.70289.08414-.343121.198778-.37253 1.626009-.4171l1.535491-.04795v.716609c0 .535994.08407.769107.333541.924907.314161.196196.33354.166552.33354-.510227 0-.395188-.09177-.810298-.20394-.922464-.160742-.160741.466298-.194302 2.960172-.158431l3.164111.04551.05175.625388.05175.625388h1.470441c1.103618 0 1.522243.06241 1.678057.250155.361862.436016.500315.274492.500315-.583695v-.833852h3.085244 3.085254l-.0022.792159c-.0045 1.399515.774478 1.290114-9.341369 1.311909l-9.022555.01944-2.365598 1.648264-2.365599 1.648261-1.834472.0569c-1.008959.03129-1.787487.0093-1.730064-.04882zm-2.355806-.228267c-.762957-.345728-1.241514-.89637-2.274542-2.617152-1.131055-1.884075-1.151456-1.906104-1.769635-1.91083-.343963-.0026-.625388-.07983-.625388-.171553 0-.09925-.62926-.16677-1.554241-.16677-1.450008 0-1.578554.02796-1.916754.416925l-.362513.416926-5.546212-.000672c-6.529903-.000715-6.045687.133598-7.577518-2.102522-1.994145-2.910989-2.048277-2.93521-6.40908-2.867429l-3.270513.05088.249547-.380438c.340863-.519648.10107-.701987-.254069-.193196-.156197.223775-.519501.632003-.80734.907175-.287838.27517-.5712258.638182-.6297483.806694-.098504.283632-.1444809.274345-.6191673-.125078-.2820198-.237304-.6246314-.431462-.7613611-.431462-.3417928 0-.1565649-.53431.5484605-1.58209.3077689-.457394.560605-1.020244.5618572-1.250776.00543-1.000397.1486687-1.169618.99-1.169618.942118 0 1.043106-.07614.802208-.604857-.137117-.300939-.134254-.455001.01115-.600412.24456-.24456.262463-2.694207.02296-3.141719-.144396-.269806-.117115-.322577.166769-.322577.186675 0 .339409-.07505.339409-.16677s-.366044-.16677-.813431-.16677c-1.0821546 0-1.214147-.193797-1.1537367-1.693968l.04931-1.22451.6031937-.050441c.59377-.049651.604821-.063978.707324-.9172355.05727-.4767399.104782-1.1845806.105579-1.5729798.0011-.5495588.158646-.9445825.710223-1.7810941.657724-.9974916.753817-1.0757549 1.334161-1.0865989.343964-.00643.625863.044601.626443.113392.00056.068793.225719.2529185.50031.4091692.274591.15625.499256.4001513.499256.5420032 0 .2301138 1.194229.2579112 11.080374.2579112 7.517027 0 11.114974.055985 11.187959.1740759.05917.095741.01688.2833583-.09396.4169253-.172742.2081412-1.77835.2428499-11.234177.2428499h-11.032624l-.546241.4989068c-.502878.4593094-.542235.5685287-.495784 1.3758544l.05046.8769393 11.578339.1356119c11.254208.131815 11.59035.126683 12.007453-.1833378.631068-.469057.678474-1.4284827.100395-2.0318675-.348984-.364256-.391525-.4895823-.215718-.6354908.147581-.1224792 2.218508-.1927779 6.350246-.2155612 5.335629-.029423 6.157458-.0006328 6.333214.2217477.111083.1405559 1.308066.6177287 2.659965 1.0603837 2.363025.7737313 2.477801.8324039 2.970534 1.5185214l.512534.7136928h-.979108c-.60272 0-1.103555-.094126-1.302832-.2448519-.372042-.2813987-1.172127-.3349791-1.324343-.088689-.06176.099942-1.172778.1667702-2.772514.1667702-1.513129 0-2.808521.074432-2.990515.1718322-.235856.1262264-.452059.1040946-.814605-.083386-.635606-.3286845-2.016365-.3270173-2.808545.00342-.72014.3003624-1.671636 1.1599364-1.882837 1.7009424l-.146486.375234-5.966161.0037c-6.487698.004-6.37459-.0117-6.869746.95522l-.192156.375234h-7.34072-7.34072l.114242-1.459247c.06284-.802581.147967-1.496762.189183-1.542624.04122-.04586.53781-.128226 1.10354-.183032l1.0286-.099648-1.000621-.020127c-1.4526-.029216-1.58317.120449-1.58962 1.822123-.0036.965135-.08126 1.499582-.250155 1.722884-.148017.195695-.244852.695351-.244852 1.263398 0 .766604.07109 1.006463.385981 1.302287.366159.343988.536953.362611 3.325562.362611 1.616768 0 2.982.06864 3.033845.152526.05185.08389.0055.182127-.103069.218305-.415769.13859.0785.46302.705412.46302.473031 0 .657238-.07011.657238-.250156 0-.281867.275157-.341921.362739-.07917.0379.113688 2.732618.169869 8.041528.167653 7.238322-.003 8.003416-.02916 8.18657-.279634.142313-.194624.237122-.219534.32072-.08427.06528.105619.451966.192034.859309.192034.424394 0 .740623.0778.740623.182205 0 .116603-.33033.161637-.917463.125077-.897077-.05586-1.18037.05628-.653214.258571.145088.05568.858029.101227 1.584317.101227.769167 0 1.320521.06963 1.320521.166771 0 .106608-1.462736.16677-4.054668.16677h-4.054668l-.479328.500311c-.440745.46004-.570782.500311-1.615518.500311-1.074409 0-1.136189-.02085-1.136189-.383572 0-.630563-.314371-.78382-1.607829-.78382-1.315572 0-1.475737.09948-1.476781.917236l-.000672.50031-1.125699.04931-1.125699.04931v-.684538c0-.425684-.06474-.644533-.171192-.57874-.09416.05819-.160312.193953-.147012.301691.06516.527609-.04131.612812-.765774.612812-.999537 0-.965202.301486.04169.366096.684483.04392.799633.103598.847151.439048.03025.21352.611858 1.17049 1.292468 2.126599.680613.95611 1.237477 1.778701 1.237477 1.82798 0 .04928-.652866.06792-1.450812.04141l-1.450833-.04818-1.811697-2.376475-1.811696-2.376475h-4.358888c-3.390246 0-4.314415.04448-4.158763.200124.110068.110069.202406.35397.205195.542003.0046.312274.01979.316607.175057.05003.153749-.26397.520807-.291849 3.842555-.291849 3.338699 0 3.648745.02383 3.410501.262068-.314533.314533-.325682.441459-.06194.705199.532.532001 1.214392-.03294.814071-.673964-.116176-.186027-.131352-.30353-.03484-.269756.09405.03291.919253 1.110491 1.833791 2.394621 1.287493 1.807807 1.609366 2.364884 1.426067 2.468147-.309923.174599-.302667.688307.01342.950642.50626.420158 1.025379-.492229.550341-.967267-.155652-.155652.882029-.200124 4.669565-.200124 3.135279 0 4.869689.05939 4.869689.16677 0 .09172-.07505.16677-.16677.16677-.232242 0-.208987.558156.03335.800497.264831.264831.390577.25268.712072-.06882.238891-.238892.241542-.310753.02372-.643193l-.245221-.374254 2.281283-.0264c2.541994-.02941 2.505658-.01331 3.127974-1.386908.362447-.800008.209074-1.389363-.450303-1.73034l-.516015-.266843.466247-.486657c.461349-.481542.486081-.486657 2.352905-.486657 1.799706 0 2.074581.06728 1.737455.425264-.08206.08714-.198355.392147-.258434.677799-.08685.412941-.02118.624018.320479 1.030055.236342.280876.656079.560402.932751.62117.306678.06736.909657.523153 1.544733 1.167671.630972.640354 1.236351 1.098703 1.535389 1.162483.271531.05791.606262.163327.743848.234249.280857.144779 1.599946 1.982652 1.488892 2.074463-.03923.03244-1.094466.74622-2.344947 1.586176-1.923403 1.29196-2.372931 1.525386-2.918478 1.515469-.354681-.0064-.757447-.06273-.895032-.125078zm2.468199-1.897797c.110068-.110068.200124-.357721.200124-.550341 0-.192619-.09006-.440273-.200124-.550342-.443179-.443178-1.300808-.121175-1.300808.488399 0 .637649.867239 1.045854 1.300808.612284zm-.903895-.375585c-.127257-.33163.06127-.591681.428938-.591681.373123 0 .551357.390555.295155.646758-.260381.260381-.613342.233535-.724093-.05508zm-2.733493-4.842154c.522791-.629924-.45445-1.607167-1.084374-1.084375-.29863.247841-.32433.855774-.04786 1.132239.276465.276465.884399.250766 1.132239-.04786zm-.970479-.447441c.07112-.502085.722122-.551706.722122-.05504 0 .22236-.129528.351887-.388582.388581-.323335.0458-.379338-.01021-.33354-.333542zm-29.46328-2.806749c0-.32583-.09555-.428006-.437313-.467639-.5047067-.05853-.7671644.371689-.4557011.74698.3198761.385426.8930141.206145.8930141-.279341zm6.253881-2.442322c-1.397389-.123221-3.002584-.132598-3.002238-.01753.000206.06879.807126.112462 1.793155.09704.986028-.01542 1.530116-.0512 1.209083-.07951zm-3.615877-.167887c.190766-.190767-.735114-.558425-1.406291-.558425-.536837 0-.648017.05723-.648017.333541 0 .295421.11118.33354.972826.33354.535054 0 1.021721-.04889 1.081482-.108656zm3.330119-.347623c-.4782-.03357-1.303712-.03388-1.834471-.000672-.530761.0332-.139506.06066.869453.06104 1.00896.000383 1.443218-.02678.965018-.06036zm3.080692-5.795538c-.20722-.319898-.431123-.58256-.497561-.583695-.114111-.002-.62967.877138-.62967 1.073659 0 .05042.338399.09167.751998.09167h.752zm-15.0505069 18.674004c-.2740516-.223917-.7243312-.496834-1.0006211-.606481s-.5227282-.213044-.5476419-.22977c-.1119158-.07514 2.6630456-4.558495 2.8708174-4.638224.1283178-.04924.5395544-.540498.9138588-1.091685.6449601-.949747.7045242-.993633 1.13891-.839147.2520957.08966.6228802.292092.8239649.449853l.3656088.286838-.6203635 1.024313-.6203635 1.024312-.7008868-.413917c-.3854878-.227654-.7961742-.380375-.9126364-.339379-.1164622.04099.05091.192998.3719461.337783.3210325.144785.7677683.411215.9927457.592068.372572.299501.3902193.3711.1978983.802908-.2813971.631807-2.54253 4.061278-2.6726668 4.053647-.056262-.0033-.3265183-.189202-.60057-.413119zm66.9978869-2.687006c-.236569-.10248-.286853-1.681937-.0647-2.032242.09178-.144722.415113-.201106.956377-.166769l.817717.05187.04967 1.042313c.04452.934383.01646 1.042314-.271005 1.042314-.176361 0-.536408.03439-.800121.07641-.263701.04202-.573268.03577-.687921-.01389zm-23.693543-1.085032c-.712245-1.001418-.716774-1.016571-.375233-1.255798.320499-.224484.345715-.404995.345715-2.474788 0-2.11921-.02043-2.256413-.402228-2.700558-.382661-.445157-.482646-.470662-2.055434-.524326l-1.653208-.05641.07484-.90252.07484-.902521h-1.271427-1.271428v-.739187-.739189l.814288.547975c.447857.301387 1.118247.59658 1.489751.655986.478828.07657.70716.207878.784344.451065.161092.507553.995812.387796 1.001847-.143735.0024-.211206.114968-.453958.250156-.539449.135187-.08549 1.465301-.156588 2.955809-.157992 2.578941-.0025 2.710015.01322 2.710015.323491 0 .43575 2.352821 2.221935 3.391163 2.574461.581919.197567 1.42458.268127 3.202091.268127h2.412336v2.501553 2.501552h-1.585726c-1.500839 0-1.575423-.01651-1.393153-.30837.241435-.386599.06946-1.121401-.295198-1.261334-.60464-.232022-1.425483.825032-.895177 1.152778.511502.316127-.05298.416926-2.334783.416926-2.047097 0-2.501553.04293-2.501553.236274 0 .182813-2.494175 2.11392-2.704658 2.094072-.02588-.0025-.371476-.460578-.767997-1.018085zm2.830866-.770258c.134066-.160516.331704-.498225.439198-.750466.187004-.438819.246496-.458618 1.378006-.458618 1.119016 0 1.179702-.01947 1.129274-.362284-.04173-.28368-.442271-.535073-1.84607-1.15865l-1.79278-.796366v1.270597c0 .968832-.06829 1.346059-.287555 1.58834-.274114.302892-.268268.332562.125078.634812.510448.392228.55315.393857.854849.03264zm-.686711-.204964c-.185084-.114389-.173413-.193111.0638-.430324.228915-.228915.278729-.514389.23551-1.349646-.03015-.582626-.01588-1.059164.03173-1.058972.0476.000167.647971.234445 1.334161.52056 2.073021.864372 2.194655 1.147492.492983 1.147492-1.171363 0-1.171577.000086-1.272806.506234-.112273.561359-.536825.880072-.885376.664656zm3.663283-4.067206v-1.562156l-.672923-.445319c-.748401-.495269-.673797-.516654-2.104224.603219-1.384757 1.084123-1.321704 1.234486.915712 2.183688.977927.414876 1.796812.760711 1.819742.768522.02293.0078.04169-.688769.04169-1.547954zm-2.033318.333942c-.705568-.292291-1.329294-.577876-1.386054-.634637-.05676-.05676.361363-.460674.929161-.897586l1.032363-.794385.562154.30274c.554092.298398.562154.319106.562154 1.44387 0 .809643-.06055 1.136817-.208463 1.126282-.114655-.0082-.785746-.253994-1.491315-.546284zm5.668908-.139303c.539079-.539081-.06566-1.450649-.806409-1.215546-.406505.12902-.603108.833584-.325831 1.167682.247841.29863.855775.324329 1.13224.04787zm-.790337-.127137c-.318549-.196874-.139302-.756745.24228-.756745.210596 0 .349653.128947.381765.354006.05511.386104-.290298.609007-.624045.402739zm-5.555268-2.307668c.389825-.315636.708298-.621127.707719-.678871-.003-.299901-1.109148-.688684-1.959388-.688684h-.932792l.341771.375233c.458853.503779.716991 1.028745.716991 1.458118 0 .408459.09398.369573 1.125699-.465796zm-1.1463-.45575-.270757-.578265h.625569c.344064 0 .712916.105246.819672.233878.154811.186537.09466.304689-.297173.583696-.270201.1924-.517211.347374-.548914.344387-.0317-.003-.179481-.26565-.328397-.583696zm23.868738 3.374188v-5.119844h.524256.524255l-.09916 1.125699c-.05455.619134-.225682 2.851771-.380303 4.961413-.154627 2.109642-.345912 3.907008-.425088 3.994145-.08108.08923-.143958-2.077897-.143958-4.961413zm-12.105649 3.802734c-.203567-.811065-.03024-.917609 1.492662-.917609 1.542644 0 1.762782.143577 1.409382.919212-.177974.390596-.265611.414949-1.493284.414949-1.251765 0-1.308416-.01676-1.40876-.416552zm2.76652-.08376c.171618-.320677.126822-.333541-1.161529-.333541-1.005508 0-1.34003.05552-1.34003.22236 0 .379113.187758.444722 1.272704.444722.879666 0 1.079358-.0542 1.228855-.333541zm-3.535303-3.08739c-.04357-2.098811-.01702-2.406574.199893-2.316916.300434.12417 2.243978.103604 3.46049-.03662l.875539-.100923v2.353999c0 2.218959-.01859 2.353998-.323697 2.353998-.178035 0-.370082-.07505-.426773-.16677-.167994-.271828-2.801364-.207135-3.178453.07808-.178041.134667-.376153.247237-.440231.250155-.06408.0029-.139125-1.083836-.166768-2.415006zm6.318668 2.29599-1.469265-.05573.028-2.203065c.0154-1.211686-.01865-2.315636-.0756-2.453221-.08859-.213967.156105-.247265 1.691457-.230178l1.795023.01998-1.612171-.103426c-2.462839-.157999-2.151832-.354727.542065-.342883 1.609308.0071 2.280144.06047 2.028852.161465-.206479.08299-.506666.108679-.667077.05708-.237947-.07653-.247036-.06221-.04934.07775.250703.177518 1.040414.09121 1.550473-.169459.27157-.138784.291669.02218.289295 2.316581-.0011 1.35615-.05768 2.549842-.125075 2.652649-.138493.211283-1.3733.39683-1.3733.206358 0-.06789.07505-.169822.166768-.22651.303625-.187652.173079-.738642-.238966-1.00863-.325488-.213264-.477841-.227268-.770227-.07079-.306935.16427-.3507.297773-.277204.845703.04799.357854.07565.635209.06146.616348-.01417-.01886-.686997-.05937-1.495093-.09002zm2.624752-3.473152c.503714-.503715.213899-1.238864-.488398-1.238864-.447024 0-.75047.303445-.75047.750466 0 .702294.735154.992113 1.238868.488398zm-.869429-.278376c-.245686-.296034.008-.675084.401012-.59938.383529.07386.422473.697354.04811.769458-.146025.02812-.348113-.04841-.449079-.170078zm2.632424.990723c0-1.891914-.06082-2.779196-.200123-2.918478-.150432-.150431-2.316607-.200125-8.723657-.200125h-8.523539l-1.19348-.875543c-.656413-.481549-1.196038-.969351-1.199164-1.084006-.0045-.164671 2.250579-.208463 10.734899-.208463h10.740576l.0578.822252c.05197.740412.03158.798508-.205499.583695-.320997-.290839-.850349-.308989-1.120905-.03843-.257245.257243-.257245.843439 0 1.100683.242746.24275.908177.263875 1.050651.03336.263987-.427146.333542-.0098.333542 2.001242 0 2.011086-.06956 2.428387-.333542 2.001242-.155685-.251901-.848927-.199874-1.082214.08122-.281521.339217-.07826 1.039427.340301 1.172273.200722.06371.50969-.002.750073-.1595.224819-.147306.408763-.206062.408763-.130569 0 .321633-.448754.537509-1.117361.537509h-.717115zm-15.059137 2.446168c-.215667-.215666-.119746-.691675.161096-.799444.351489-.134879.60488.109949.527839.509998-.06123.317973-.483149.495234-.688935.289446zm12.383871-.15311c-.177245-.213561-.166286-.306792.06297-.536046.256993-.256991.297717-.25733.550482-.0045.303115.303112.201365.799134-.163918.799134-.12923 0-.33152-.116335-.449527-.258525zm3.292524-.18043c-.06432-.06432-.116943-.25453-.116943-.422691 0-.217154.124161-.305745.42852-.305745.3485 0 .418575.06976.375235.373529-.05275.369706-.461029.580685-.686812.354907zm-47.104441-2.054966c-.756719-1.090254-1.375854-2.049851-1.375854-2.132437 0-.0846 1.714714-.152984 3.927207-.156632l3.927206-.0065.459637-.440359c.438557-.420165.541866-.440358 2.252878-.440358h1.793244l-.05128.708773c-.04264.589202-.114585.717763-.426514.762064-.272863.03875-.375234-.0307-.375234-.254561 0-.258586-.106757-.297673-.66708-.244239-.850235.08108-.876494.450814-.04169.587004.343963.05611.830397.149527 1.080962.207587.39144.0907.481213.03834.637686-.371914.10016-.262614.152051-.683856.115311-.936096l-.0668-.458621h2.045073 2.045073l.37492-.66708.37492-.667081h1.220067 1.220068v.675591c0 .611904-.05395.698131-.572293.914709-.31476.131515-.619375.315302-.676923.408416-.06129.09917-.924899.169296-2.084866.169296h-1.980234l-.614949.750466-.614951.750466h-5.123939c-5.833488 0-5.678183-.03688-5.67339 1.347293.0029.816194.09032 1.010194.581142 1.288518l.33354.189139-.33354-.000672c-.237375-.000522-.730218-.572135-1.709394-1.982897zm11.416775 1.880793c-.234248-.06357-.291353-.231339-.26424-.776297.01954-.392767-.08811-.930988-.247456-1.237203l-.282046-.542003h.679645c1.486173 0 2.166938.866368 1.564658 1.991238-.318666.595167-.737018.757905-1.450561.564265zm-27.1348644-.106263c0-.182266.8716034-1.60588 1.0984714-1.794163.22343-.185432.247886-.092.203156.776141l-.05086.98695-.625388.05176c-.3439633.02846-.6253883.01916-.6253883-.02069zm-1.7684796-3.04286c-.1552114-.61841.026545-1.925162.2910803-2.092775.1246428-.07898.4330014-.144739.6852417-.146144.3902831-.0021.4586177.06611.4586177.458291 0 .392936-1.0291653 2.207478-1.2520298 2.207478-.041677 0-.123987-.192082-.1829099-.42685zm53.230875-1.010978c-.411362-.228089-.836377-.252971-2.751703-.161097-1.298665.06229-2.478676.04134-2.765509-.04911-.338634-.106785 1.24971-.1624 4.915135-.172103 4.623677-.01224 5.367348.01897 5.086488.213439-.200302.138692-1.046407.269005-2.163431.333198-1.517824.08723-1.918445.05887-2.32098-.164328zm11.299199-.991549c-.05516-.143751-.02039-.341332.07741-.43907.259401-.259403.700438-.03168.700438.36166 0 .411292-.625827.473572-.777844.07741zm-32.159267-1.406337c.05669-.09172.267495-.165621.46846-.164216.297057.0021.318608.03279.115235.164216-.328557.212329-.714922.212329-.583695 0zm-12.591148-.662622c0-.324536.100127-.337999 2.51378-.337999 2.304236 0 2.509112.02433 2.457767.291847-.04983.259661-.327079.296939-2.51378.337999-2.372575.04455-2.457767.03444-2.457767-.291847zm-7.838199-.08784c0-.213808-.472515-.250155-3.252018-.250155h-3.252018v-1.167395-1.167391h.480859c.340607 0 .506301.09728.568083.33354.07993.305667.227477.33354 1.765545.33354 1.671423 0 1.679842.0021 2.048218.500311.298476.403711.492639.50031 1.005613.50031h.635718v-.917235-.917237l4.294333-.000483 4.294331-.000484.333541-.50345.33354-.50345 1.667702.04531 1.667702.04531.04773 1.626009.04774 1.62601h-2.523204c-2.382951 0-2.528053.01854-2.610427.33354-.0722.276099-.227478.333541-.901623.333541l-.814401.000007v-.680978c0-.868914-.394338-.811296-.468686.06848-.05012.593077-.07259.612496-.708773.612496h-.657012v-.680978c0-.868914-.394338-.811296-.468686.06848-.04998.591412-.07405.612496-.699184.612496-.642452 0-.647819-.0054-.698706-.708773-.02821-.389825-.126328-.708773-.218052-.708773-.09172 0-.189846.318948-.218052.708773l-.05128.708773h-.824261c-.621497 0-.824262-.06154-.824262-.250155zm13.174844-.466956c0-.394412-.09006-.807167-.200124-.917236-.155652-.155652-.155652-.200124 0-.200124.133417 0 .200124-.333541.200124-1.000621v-1.000621h1.995375c2.340201 0 2.34065.000333 2.34065 1.740123 0 .983789-.03386 1.094969-.333541 1.094969-.271061 0-.33354-.11118-.33354-.593537 0-.353226-.06752-.551807-.16677-.490468-.09172.05669-.16677.323779-.16677.593537s-.06702.490468-.148928.490468c-.184905 0-.351382-.414692-.351382-.875285 0-.55482-.114296-.275812-.239006.583437-.104058.716964-.08364.792159.215147.792159.44485 0 .857709.169138.857709.351382 0 .08191-.825512.148928-1.834472.148928h-1.834472zm4.805178.508648c-.180206-.143562-.237974-.390199-.185544-.792162l.07614-.583695.904134.05712c.79816.05043.903866.0993.901856.416925-.0055.878569-.176505 1.110264-.81915 1.110264-.338664 0-.73351-.09381-.877432-.208462zm.614853-.625387c-.05669-.09172-.215639-.166771-.353224-.166771-.137586 0-.203776.07505-.147087.166771.05669.09172.21564.16677.353224.16677.137586 0 .203776-.07505.147087-.16677zm1.917857.08338c0-.639286.04942-.750466.33354-.750466.284127 0 .333541.11118.333541.750466 0 .639285-.04942.750465-.333541.750465-.284126 0-.33354-.11118-.33354-.750465zm2.918478.164026c-2.196765-1.183625-2.311982-4.139034-.211168-5.416616 1.972898-1.1997908 4.640327.310993 4.626915 2.620603-.0052.895613-.524065 1.925027-1.248982 2.477947-.777712.593192-2.361.752215-3.166765.318066zm1.417546-.330797c0-.229308-.07505-.416925-.16677-.416925-.186311 0-.228592.549669-.05559.72267.183838.183838.22236.13087.22236-.305745zm-.855989-.198341c.12584-.242058.132977-.400237.02118-.469332-.183124-.113177-.511196.581396-.379686.803846.09422.159372.108843.145726.358506-.334514zm1.825935-.135925c-.101676-.223157-.246109-.36789-.320963-.321629-.07485.04626-.0529.266694.04877.489852.101676.223157.246109.36789.320963.321628.07485-.04626.0529-.266694-.04877-.489851zm-2.671002-.282783c.110069-.110068.200125-.309316.200125-.442773 0-.192617-.06877-.180411-.33354.0592-.342612.310059-.43643.583696-.200125.583696.07338 0 .223472-.09006.33354-.200125zm3.702298.05377c0-.213258-.490367-.586264-.61149-.46514-.121125.121123.251883.61149.46514.61149.08049 0 .14635-.06586.14635-.14635zm-1.156884-.504674c.597979-.21105.914279-1.262422.602717-2.003411-.285897-.679948-1.485814-1.328376-1.869263-1.01014-.137998.114526-.418405.219721-.62313.233764-.213558.01465-.351699.119788-.324068.246644.02648.12161-.06905.399994-.212307.618632-.193156.294794-.412858.397523-.850161.397523-.386642 0-.550628.06321-.476241.183572.06438.104168.320387.142184.591867.08789.421521-.0843.515314-.02375.788766.509266.343074.66872 1.288123 1.238208 1.694233 1.020947.137585-.0736.442499-.201713.677587-.284685zm-1.856227-.501961c-.373682-.373681-.471927-.605941-.425388-1.005657.199267-1.711428 2.393838-1.627265 2.707748.103843.05193.286367-.06958.545999-.41908.895505-.636874.636874-1.230706.638885-1.86328.0063zm.67833.152364c0-.09172-.07948-.166771-.176614-.166771-.09714 0-.13023.07505-.07354.166771.05669.09172.136164.166769.176613.166769.04045 0 .07354-.07505.07354-.166769zm.83385-.166771c0-.09172-.03309-.16677-.07354-.16677-.04044 0-.119923.07505-.176612.16677-.05669.09172-.02359.166771.07354.166771.09714 0 .176613-.07505.176613-.166771zm-1.440622-.416923c-.0528-.137586-.172201-.250156-.265342-.250156-.09761 0-.0814.105967.03826.250156.114186.137584.23359.250155.265341.250155.03175 0 .01454-.112571-.03826-.250155zm1.940932-.166771c0-.137586-.02949-.250155-.06554-.250155s-.108739.112569-.161537.250155c-.05279.137586-.0233.250156.06554.250156s.161536-.11257.161536-.250156zm0-.750465c0-.09172-.07947-.166771-.176613-.166771-.09714 0-.13023.07505-.07354.166771.05669.09172.136164.16677.176613.16677.04045 0 .07354-.07505.07354-.16677zm-.502863-.542003c.0064-.314769-.263207-.08263-.288116.248052-.02209.293248.0055.320026.128727.125077.08626-.136428.157985-.304337.159389-.373129zm-2.4268 1.691296c-.04626-.07485-.266693-.0529-.489851.04877-.223158.101677-.367891.246111-.321629.320963.04626.07485.266694.0529.48985-.04877.22316-.101677.367892-.24611.32163-.320962zm4.597365.354815c0-.190525-.801722-.424436-.949214-.276943-.0549.0549.07992.171733.299614.259612.526596.210644.6496.213925.6496.01733zm.16677-1.003798c0-.09172-.187616-.166771-.416925-.166771s-.416926.07505-.416926.166771c0 .09172.187617.16677.416926.16677s.416925-.07505.416925-.16677zm-4.700161-.911346c-.305382-.255095-.799438-.39714-.887234-.255085-.113176.183123.581398.511194.803848.379684.07489-.04428.112418-.100347.08339-.124599zm4.293054-.167357c.258804-.195749.271588-.245914.06375-.250155-.142985-.0029-.405648.10488-.583695.239548-.258804.195749-.271589.245915-.06375.250155.142986.0029.405649-.104879.583696-.239548zm-3.928917-.568579c0-.213258-.490368-.586263-.611491-.46514-.121124.121123.251883.611491.46514.611491.08049 0 .146351-.06586.146351-.146351zm3.338749-.107835c.116025-.139802.16455-.300589.107835-.357305-.121123-.121123-.611491.251882-.611491.46514 0 .229718.27181.171522.503656-.107835zm-2.820019-.794724c-.288562-.288562-.398279-.01528-.164305.409238.192657.34956.221309.357761.279306.07995.03555-.170259-.01621-.390396-.115001-.489192zm1.977406.22518c.105278-.196715.112091-.361118.01739-.419646-.163333-.100946-.227223-.0285-.397951.451217-.141187.396715.16494.371318.38056-.03157zm-.995205-.270115c0-.242045-.07218-.382155-.16677-.323698-.09172.05669-.166769.248734-.166769.426768 0 .178033.07505.323698.166769.323698.09172 0 .16677-.192046.16677-.426768zm2.501553 5.34878c0-.05106.20208-.398192.449067-.771415.321194-.485357.469241-.95749.519916-1.658048.08637-1.194051-.0037-1.585267-.550587-2.391129-.233147-.343566-.380714-.694551-.327925-.779968.05308-.08588 1.343933-.155303 2.88788-.155303 1.980719 0 2.851253-.05936 2.996184-.2042868.161202-.1612025.273276-.1612025.531401 0 .182028.1136778.878515.2042868 1.570312.2042868.683759 0 1.289579.07505 1.346267.16677.05669.09172.499338.16677.983668.16677.794045 0 .932801.05737 1.411745.583696l.531156.583696h5.493497c5.06216 0 5.505583.02292 5.647256.291847.143735.27284.279086 2.390286.218531 3.418789l-.02699.458618h-4.47143-4.47143l-.369901-.500311c-.3521-.476244-.428324-.50031-1.584477-.50031-1.131837 0-1.247235.03408-1.693911.50031l-.479326.500311-3.09574-.0011-3.095739-.0011-.296254-.520449c-.27622-.485252-.346007-.51484-1.031972-.437522l-.735717.08293.253642-.387108c.146456-.223521.207864-.531346.145314-.728427-.132846-.418558-.833056-.621821-1.172273-.340296-.281093.23328-.33312.926517-.08122 1.082201.09172.05669.166771.178116.166771.26984 0 .09172-.06414.127131-.142529.07868-.07839-.04845-.322291.104107-.542003.339012-.40819.436416-.98317.815919-.98317.64892zm1.000233-.101522c.0026-.656677 2.332741-.94546 2.662163-.329929.162599.303818.09482.324241-1.245298.375233-.779489.02966-1.41708.0093-1.416865-.04531zm10.34014 0c0-.05458.137238-.223432.30498-.375233.43598-.394559 1.8877-.375896 2.254109.02898.151804.167739.275999.336593.275999.375233s-.637894.07025-1.417547.07025c-.779647 0-1.417541-.04465-1.417541-.09923zm12.708839-1.734954c-.01221-.962939-.102657-1.901021-.200924-2.084627-.162304-.303271-.127141-.333828.384134-.333828.720509 0 .917899.40309.950755 1.941558.04911 2.29945.06703 2.227696-.556295 2.227696h-.555409zm1.436683.153766c.0294-.87878-.02302-1.81703-.116405-2.085001l-.169843-.48722h1.388454c1.812439 0 1.844472.03924 1.700783 2.083328-.06082.865532-.154846 1.688948-.208899 1.829811-.07649.199345-.380807.256198-1.372908.256489l-1.274625.000367.05343-1.597782zm-54.330774.438575c-.287822-.404209-.487218-.500357-1.124019-.542003-.442527-.02894-.804266-.142152-.844488-.264294-.05534-.168066.22662-.18996 1.321125-.102582.765317.0611 1.485295.1852 1.59995.275782.114654.09058.208462.380644.208462.644584 0 .39712-.06995.47989-.405569.47989-.258647 0-.532322-.178008-.755461-.491377zm30.465852-.390472c-.132233-.34459.125978-.660394.483638-.591515.443083.08533.410462.709072-.04044.773408-.194704.02778-.39414-.05408-.443189-.181893zm-11.126873-.497434c0-.735314.308014-.990939 1.11406-.924568.604745.0498.63965.08414.688788.677842l.05176.625388h-.663508c-.36493 0-.782215.04555-.927302.101228-.209445.08037-.263796-.01851-.263796-.47989zm.833851-.280074c0-.252039-.228891-.33117-.443274-.153248-.329282.27328-.27239.459922.109733.359995.183448-.04797.333541-.141009.333541-.206747zm-23.848135.449071c0-.148104.232585-.190503.792158-.144403.600441.04947.711435.09737.458618.197942-.52773.209932-1.250776.178983-1.250776-.05354zm25.773799-.391072c-.124623-.664291-.05662-.819837.2988-.683451.130683.05015.268944.359605.307246.687683.05558.476065.0128.596505-.211855.596505-.191189 0-.317648-.192717-.394191-.600737zm-2.920982-.825148c-.01115-.36846.423538-.574259 1.15375-.546222l.758804.02913-.740216.06537c-.43515.03843-.828168.181069-.953623.346097-.117377.154397-.215796.201924-.218715.105613zm2.704712-.523546c.160517-.04195.423179-.04195.583696 0 .160516.04195.02918.07627-.291848.07627-.321032 0-.452364-.03432-.291848-.07627zm29.309864-.92438c-2.311903-.243097-7.36578-.333648-7.563898-.135523-.09584.09583-.633235.174241-1.194206.174241-.956064 0-1.052348-.03657-1.536736-.583696-.458974-.518421-.608802-.583695-1.339783-.583695h-.823019l-1.525994-1.9311172c-1.446652-1.830709-1.818808-2.5716778-1.291644-2.5716778.128895 0 1.611065.2596086 3.293709.5769086 9.718804 1.8326886 11.403088 2.1105273 12.161723 2.0061879l.77039-.1059555.942271 1.0412466c.941189 1.0400474 1.026295 1.2375994.83716 1.9433354-.113135.422163-.249057.430615-2.729973.169745zm1.742599-1.8804548c-1.166458-1.3653512-1.403205-1.1161709-.284725.2996778.696366.881511.974987 1.133237 1.013751.915921.03052-.171001-.282529-.6929614-.729026-1.2155988zm-53.415848-.6692895c.685162-.3721716 2.633166-.3958609 3.138538-.038165.402011.2845376.362325.2916812-1.584317.285171-1.834022-.00612-1.960619-.026254-1.554221-.247003zm19.576896-3.0400311c-.062748-.1638592-2.435996-.2084626-11.091895-.2084626-9.592071 0-11.012064-.031705-11.012064-.2458723 0-.1352304-.22514-.3622973-.50031-.5045935-.275172-.1422962-.500311-.2943168-.500311-.3378229 0-.043504 6.899229-.079102 15.331617-.079102 15.185152 0 15.33263.00321 15.43748.3335399.09406.2963446.252328.3335406 1.419252.3335406 1.06273 0 1.434566.071614 1.948311.3752332l.634921.3752323-2.001242.0409452c-6.961904.1424265-9.588173.1199735-9.665759-.0826379zm7.004293-.8644477c-.07323-.1184918-1.53737-.177866-4.386079-.177866-2.798673 0-4.219561.05659-4.112373.1637779.13129.131289 8.317502.3443711 8.549988.2225507.03211-.016829.0089-.1106369-.05153-.2084626zm2.07777-.177866c0-.091723.11257-.1667699.250156-.1667699.137585 0 .250155.075047.250155.1667699 0 .091724-.11257.1667706-.250155.1667706-.137586 0-.250156-.075047-.250156-.1667706zm-34.680578-.2409754c-.109995-.1325371-.175469-.4139616-.145497-.6253884.05402-.3810649.07628-.3845461 2.556046-.3997897 1.375855-.00846 2.636675-.074226 2.801824-.1461524.464085-.2021204 4.005086-.01386 4.082047.2170261.07932.2379467.645346.2579912.787557.027891.138052-.2233714 4.25264-.2233714 4.25264 0 0 .2661437.788241.1926361.89416-.083385.140059-.3649867 3.803519-.3649867 4.168506 0 .285815.2858146.60752.3299705.60752.083385 0-.223696 4.281159-.223696 4.41941 0 .157954.2555765.748923.1980712.856927-.083385.140598-.3663949 3.925483-.3663949 4.229563 0 .114186.137586.301802.2501554.416925.2501554s.30274-.1125694.416925-.2501554c.162331-.1955953.622347-.2501552 2.109177-.2501552 1.874883 0 1.903788.00586 2.060078.4169259.08718.2293089.235419.4169253.329413.4169253.09399 0 .170898.067164.170898.1492534 0 .2551569-1.401123.3199827-1.550911.071756-.109303-.1811354-3.140705-.2210095-16.802095-.2210095-9.167802 0-16.668731.060037-16.668731.1334163 0 .073378.09006.2234716.200124.3335399.110069.1100683.15678.2001242.103806.2001242-.05298 0-.186316-.1084389-.296312-.2409753z" fill="#273839" stroke-width=".16677"/></svg>