<svg height="128" viewBox="0 0 114.62278 33.866667" width="433.22" xmlns="http://www.w3.org/2000/svg"><path d="m83.808742 29.996521c0-.38233.07937-.744202.176387-.80416.40193-.248405.10144-1.08047-1.254113-3.472712-.78678-1.388481-1.613374-2.768211-1.83688-3.066068-.465513-.620377-1.815167-1.134137-2.9794-1.134137-.783047 0-1.161547-.234371-1.161547-.719235 0-.497526.531654-.775892 1.658313-.868265l1.075714-.08819.05093-1.543403.05093-1.543402h1.143947 1.143953l-.0208 1.994617c-.0222 2.130454.1364 2.776748.949826 3.870244.234567.315332 1.070154 1.690811 1.856848 3.056619 1.538918 2.671759 1.778009 2.896575 3.080452 2.896575.551994 0 .799664.0907.963335.352778.397262.636109 1.053254.433686 2.761604-.852155.880477-.662712 2.275547-1.678206 3.100167-2.256651 1.639033-1.149733 1.872012-1.584668 1.309067-2.443828-.287393-.438611-.28398-.474654.08168-.863875.552346-.587936.725929-1.383713.725929-3.327813 0-2.436742.01342-2.426511-3.175-2.426511-1.461971 0-2.46944-.06916-2.46944-.169518 0-.286461-.752461-.888816-1.11031-.888816-.186028 0-.494318.198437-.6851.440972-.29421.374037-.492841.440973-1.308563.440973-.863521 0-.978824-.04502-1.129363-.440973-.165449-.435162-.194438-.440972-2.200495-.440972-1.156172 0-2.032838-.07176-2.032838-.166386 0-.09151.176407-.289951.392027-.440973.3398-.238009 1.38536-.274586 7.849303-.274586h7.457283v3.527779 3.527778h.61736c.339552 0 .61736.04654.61736.103419 0 .05688-.168351.682809-.374109 1.390951-.367719 1.265548-.389413 1.29465-1.270795 1.704565-1.135945.528308-3.536522 2.2212-5.862349 4.134145l-1.807175 1.486364h-3.19209-3.192095zm5.115281-1.433365c0-.10353.277817-.450245.61736-.770481.848385-.800133.826037-1.366841-.08819-2.236532-.424146-.403477-.70556-.83301-.70556-1.076921 0-.223158-.198438-.619749-.440976-.881311-.302169-.325882-.440968-.677261-.440968-1.116362 0-.527579-.140242-.77709-.793752-1.412229-.436557-.424292-.793744-.89346-.793744-1.042601 0-.49081-.306378-.282687-.419978.28529-.231167 1.155816-.81475 1.382685-.81475.316732 0-.840849-.383165-1.664582-.90394-1.943292-.222534-.119095-.680861-.152174-1.144707-.08262l-.773574.116005v-.884453c0-.486448.09211-1.086624.204701-1.333724.20074-.440578.241127-.449272 2.086859-.449272 1.827116 0 1.889061.0129 2.118157.440972.213155.398271.342923.440972 1.340127.440972 1.074881 0 1.516008-.189928 1.696124-.730265.09477-.284304.952895-.05364 1.085438.291771.05736.14962-.05191.425686-.245129.618884-.550199.550198-.462729 1.456255.193927 2.008792.298487.251158.65034.456652.781911.456652.131563 0 .651808.683082 1.156096 1.51796.691976 1.145602 1.060248 1.577859 1.501291 1.762138.321414.134295.70198.199051.845702.143899.341606-.131083.862187.660452.786246 1.195462-.07706.54304-5.64802 4.515543-6.363601 4.537725-.266789.0083-.485068-.06967-.485068-.173195zm2.058124-4.852527c.0587-.153044-.02314-.408178-.181927-.566966-.267334-.267345-.310059-.267345-.577402 0-.360625.360624-.195101.845225.288701.845225.200115 0 .411903-.125216.470628-.278259zm-.701015-.01092c-.140921-.140929.01836-.416376.240794-.416376.09129 0 .165985.119062.165985.264583 0 .272769-.208132.350432-.406779.151786zm-1.357109-3.67957c.175185-.211088.175185-.31808 0-.529168-.440792-.531118-1.069095-.124747-.818163.529168.05585.14552.213373.264583.350059.264583s.347334-.119063.468104-.264583zm-.592756-.0342c-.198648-.198646-.120988-.406779.15178-.406779.145525 0 .264584.07469.264584.165979 0 .222423-.275452.381722-.416364.2408zm-76.983088 2.556555c-.137274-.137272-.209947-.834715-.206772-1.984375l.0049-1.772708 1.450313-.926946 1.450313-.926945.104144.50137c.162946.784453.308869.911549 1.046588.911549.730029 0 1.05413-.321827 1.05413-1.046737 0-.200406.04327-.364375.09616-.364375.252652 0 2.726911 1.801464 2.732865 1.989751.07838 2.478162.03946 3.298224-.168423 3.548704-.200709.241839-.745307.282379-3.793451.282379-2.533001 0-3.62012-.06103-3.770763-.211667zm7.162233-1.155347-.05376-.837847h-3.35139-3.351388l-.05653.590056c-.106512 1.111858-.191052 1.085638 3.500238 1.085638h3.36659zm.03443-2.037292c0-.574516-.413368-.652639-3.453264-.652639-2.437575 0-3.071604.05021-3.243101.256858-.450722.543085-.01055.625087 3.355386.625087 2.623724 0 3.340979-.04922 3.340979-.229306zm90.265798 2.241854c-.24923-.249234-.12883-.561758.42502-1.103258.47315-.462587.52175-.585073.32578-.821192-.12667-.152632-.38966-.254738-.58442-.226902-.29885.04272-.41797-.155816-.7634-1.272307-.48943-1.581904-.53645-3.303853-.13835-5.066686.25439-1.12647.31138-1.222954.68062-1.152368.57145.109241.78193-.485713.28793-.813919-.20033-.133101-.36425-.421038-.36425-.639861 0-.218822-.11818-.4959472-.26263-.6158327-.4703-.3903159-.11113-.5050106 1.27879-.4083526 1.62038.112683 1.88081.3215679 1.70444 1.3670693-.0646.38266-.26652 1.129305-.44883 1.659211-.4775 1.38785-.4607 4.333265.0338 5.934358.50468 1.633943.35909 2.495032-.48119 2.846125-.81624.341046-1.53327.473972-1.69332.313915zm-10.185233-1.130599v-1.058333h1.940283c1.17592 0 1.94028-.06948 1.94028-.176389 0-.165339-1.99201-.278715-3.307295-.188236l-.573268.03943v-.898937-.89894l.66146.03858c1.249433.07287 2.513543-.03236 2.513543-.209242 0-.09738-.37703-.165175-.83785-.150645-.46081.01453-1.175187.01483-1.587493.000666l-.74966-.02574v-1.024286c0-.95334.03363-1.037559.485068-1.215958.36075-.142549-1.624955-.196483-7.747569-.210439l-8.232652-.01877-.5427.456653c-.329693.277414-.5427.623581-.5427.881944 0 .413856-.0378.425293-1.404493.425293h-1.404494l-.05073 1.631597-.05073 1.631597-.839647.05384c-1.037713.06653-1.0873-.03476-.881713-1.80131.08572-.736632.09138-1.339332.0126-1.339332-.07882 0-.143293-1.391026-.143293-3.091171v-3.091174l.474253-.180313c.29176-.1109258 2.17532-.1598351 4.894794-.1271009l4.420529.053215 2.29958.9253199c2.185459.879401 2.333793.97114 2.98893 1.848669.379132.507844.678794 1.063422.665896 1.23462-.02155.286105.218086.311269 2.964193.311269 1.874176 0 2.987657-.06574 2.987657-.176388 0-.100935-.53264-.176389-1.245135-.176389-.785174 0-1.204859-.06516-1.136122-.176389.05996-.09701.62027-.176389 1.245135-.176389h1.136122v-.516892c0-.395802-.09298-.534808-.396876-.59334-.218287-.04204 1.29845-.08725 3.37051-.100463l3.76739-.02402-.13236.485069c-.23145.848154-.22223 3.950835.0171 5.776736.33356 2.544346.47061 2.429174-3.20908 2.69697-4.200793.305721-3.769502.402391-3.769502-.844886zm4.409723-1.234722c0-.09701-.035-.176389-.0777-.176389-.0428 0-.12684.07938-.1868.176389-.06.09701-.0249.176389.0778.176389.10273 0 .18679-.07938.18679-.176389zm1.5875-.08819c0-.145521-.11906-.264584-.26458-.264584s-.26459.119063-.26459.264584c0 .14552.11907.264583.26459.264583s.26458-.119063.26458-.264583zm0-1.940278c0-.184788-.18619-.264584-.61736-.264584-.33954 0-.61736.08472-.61736.188276 0 .108005.15041.140538.35278.07631.20238-.06423.35277-.0317.35277.07631 0 .103552.11907.188275.26459.188275s.26458-.119062.26458-.264583zm-23.900694-2.557643c0-.215556-.293713-.264583-1.58508-.264583-1.3824 0-1.59286.04034-1.645847.315488-.0554.287705.08419.311006 1.585087.264584 1.322753-.04091 1.64584-.102844 1.64584-.315489zm1.803954 0c.246666-.194028.671219-.352776.943452-.352776.272234 0 .546074-.08269.60854-.183765.0762-.123295-.370199-.166827-1.356599-.132291-1.458207.05105-1.470634.05542-1.525994.536541-.04847.421531.0054.48507.413154.48507.257926 0 .670779-.158751.917447-.352779zm7.544661-.529166c.07086-.114598-.817852-.176389-2.536818-.176389-1.573626 0-2.690016.07148-2.754854.176389-.07086.114598.817852.17639 2.536827.17639 1.573617 0 2.690007-.07148 2.754845-.17639zm2.381248 0c0-.09701-.357187-.176389-.793752-.176389s-.793752.07938-.793752.176389c0 .09701.357187.17639.793752.17639s.793752-.07938.793752-.17639zm-.04503-.60167c.04822-.04818-.15978-.423969-.462133-.835097-.394469-.536401-.82389-.859053-1.520553-1.142485-.548162-.223017-.970832-.314035-.970832-.20906 0 .362602 1.137723 2.249017 1.404596 2.328915.307946.09219 1.416261-.0096 1.548922-.142273zm-1.997379-.905604c-.258404-.440944-.427517-.84403-.375803-.895747.166657-.166657.937835.356257 1.527874 1.036007l.574165.661459h-.628194c-.558954 0-.679992-.08838-1.098042-.801719zm-5.036623-.488317c.49607-.879669.716018-1.439429.608036-1.547409-.09957-.09957-1.542792-.149389-3.507745-.121076-2.976814.04289-3.33622.07966-3.316967.339369.01187.160196.44844.852211.97014 1.537811l.948547 1.246548 1.760393-.03851 1.760398-.03851zm-4.959449-.01553c-.460813-.612195-.837847-1.164197-.837847-1.226672 0-.06247 1.38906-.113592 3.086807-.113592 1.69774 0 3.086804.04163 3.086804.09252 0 .05088-.324617.606511-.721367 1.234723l-.721364 1.142204-1.527593-.008-1.527594-.0081zm9.745484 1.389361c0-.05093-.278815-.646241-.619574-1.322916l-.619582-1.230319-1.188406.0012-1.188406.0012-.66146 1.214638c-.363803.668048-.66146 1.262829-.66146 1.321733 0 .05891 1.111249.107099 2.469448.107099 1.35819 0 2.46944-.04167 2.46944-.0926zm-4.40972-.336654c0-.04206.25219-.482165.560421-.978009l.56043-.901534.971377.05197.971377.05197.405035.926041.405035.926043h-1.936842c-1.065254 0-1.936833-.03441-1.936833-.07648zm-6.708138-.974812c.215933-.136567.168507-.276015-.284033-.835147-.695887-.859794-1.18882-.89138-1.26644-.08115-.03107.32453-.01373.701561.03853.837846.10768.280628 1.109987.332635 1.511907.07845zm-56.615501 8.45962c0-.09702-.109809-.176389-.244019-.176389-.134214 0-.281914-.198223-.328226-.440496-.07373-.385647.07197-.540644 1.170061-1.244801l1.254268-.804306 1.499305.08262c.824619.04544 1.796962.138036 2.160764.205766.440869.08208.661459.05789.661459-.07254 0-.139649 1.793182-.195688 6.261806-.195688h6.261805v-.507324c0-.421684.242523-.704552 1.436692-1.675694 1.400261-1.138746 2.238415-1.467108 2.53206-.991982.144254.23341.918271.226624 1.064098-.0093.07659-.12392 1.60859-.172154 4.604171-.144957l4.489392.04076.936572.718221c1.240069.950962 1.384598 1.312107 1.214109 3.033763-.137449 1.388017-.137747 1.388648-.681439 1.44171-.299163.0292-.962207-.111782-1.473429-.313288-.776154-.305931-1.472115-.383792-4.21857-.47196-3.801986-.122053-6.600081.106608-7.985134.652545-.741374.292222-1.168523.349881-2.003649.27046-3.411534-.324433-3.971817-.327248-3.971817-.01995 0 .612179-.451189.799251-1.927678.799251-.831549 0-1.423711-.07337-1.423711-.176389 0-.09702-.198437-.176389-.440972-.176389-.242536 0-.440973.07937-.440973.176389 0 .09701-.198437.176389-.440972.176389s-.440973-.07938-.440973-.176389c0-.09702-.238124-.176389-.529166-.176389s-.529166.07937-.529166.176389c0 .102893-.587963.176389-1.411112.176389s-1.411111-.07349-1.411111-.176389c0-.09702-.198437-.176389-.440972-.176389s-.440973.07937-.440973.176389c0 .09701-.238124.176389-.529166.176389s-.529167-.07938-.529167-.176389c0-.09702-.198437-.176389-.440972-.176389s-.440973.07937-.440973.176389c0 .102893-.587962.176389-1.41111.176389-.82315 0-1.411112-.07349-1.411112-.176389zm20.189977-3.105497c.218708-.218708.236758-.339313.07919-.529166-.112242-.135243-.303699-.245896-.425462-.245896s-.313221.110653-.425462.245896c-.157563.189853-.139513.310458.07919.529166.155799.1558.311619.283272.346267.283272.03465 0 .190468-.127472.346268-.283272zm-.577042-.259125c.03476-.104289.138611-.189618.230774-.189618.09216 0 .196012.08533.230775.189618.03477.104291-.06908.189618-.230775.189618-.16169 0-.265539-.08533-.230774-.189618zm14.957384.28006c.293087-.353149.09786-.795997-.350914-.795997-.200117 0-.409926.120074-.466242.26683-.101356.264132.209297.791504.466242.791504.07326 0 .231167-.118052.350914-.262337zm-.527303-.355025c0-.161689.08533-.265538.189618-.230775.10429.03476.189618.138613.189618.230775 0 .09216-.08533.196013-.189618.230776-.10429.03477-.189618-.06908-.189618-.230776zm51.317611 2.350335c-.27758-.742251-.67777-1.361097-1.25622-1.942604l-.84888-.853357v-1.232395-1.232395h.70556.70555v-1.207384c0-.945682-.0699-1.270658-.32257-1.499306-.42972-.388893-.86377-.369457-.99518.04456-.0587.185065-.22381.381388-.36684.436273-.20129.07724-.23541.0015-.15096-.334839.13038-.519501-.32548-.781619-.82108-.472115-.22772.14222-.33491.143596-.38116.0049-.0367-.110162-.62874-.215118-1.37958-.24458-.7234-.02839-2.02964-.132518-2.902775-.231407-1.659336-.187935-3.086808-.09739-3.086808.195789 0 .287656-2.969787-.318701-3.263192-.666262-.256358-.30372-2.224713-.7979407-2.689622-.6753534-.223754.0590015-.571314-.009937-.797601-.1582036-.354369-.2321962-1.379599-.4859401-2.292259-.5673337-.171294-.0152736-.405447-.1217856-.520347-.236687-.271812-.2718066-.577603-.2652227-.812234.0174866-.216459.2608217-.09204.5074521.409287.8113313.325858.1975172.319133.2050165-.0882.098287-.914782-.2397013-1.27778-1.1867224-.694751-1.8125325.30746-.3300187.547105-.3818207 1.766345-.3818207 1.411145 0 4.39647.6054014 4.39647.8915714 0 .3512787 3.434913.8542233 8.378467 1.2267885 1.45522.1096692 3.16177.2815851 3.79236.3820326.6306.1004495 1.8446.2196775 2.69779.2649525 1.3502.07165 1.53929.120675 1.45901.378278-.44899 1.440597-.84046 3.362781-.92533 4.54346-.0913 1.270116-.042 1.61996.45313 3.213602.30558.98358.60223 1.909861.65923 2.058404.0644.167794.005.270077-.15831.270077-.15941 0-.42139-.426355-.6693-1.089248zm-37.823855-.273805c-4.023682-.792741-4.088769-.799469-7.937502-.820551l-3.880559-.02125-.05582-.485069-.05581-.48507 3.230811-.02086c1.776948-.01148 3.468942-.07685 3.759982-.145254.291046-.06841-1.098021-.118553-3.086807-.111423l-3.615972.01296-.04937-2.03461-.04937-2.03461.578534-.170251c.577856-.170052.578596-.171744.630356-1.44907.051-1.258362.05946-1.278895.529166-1.283519.286734-.0028.894621-.3197821 1.52232-.7937507l1.044976-.7890501h6.103628c6.767354 0 6.814887.00759 6.920767 1.1047236.0484.5015212.124834.5776942.628367.6262442l.573266.05527v3.604794 3.604797l-.39688.0095c-1.544939.03712-3.920767.192369-3.989066.260669-.0454.04542.92284.08257 2.151686.08257h2.23426v.79375.79375l-.837853-.00003c-.460813-.000017-1.459987-.119079-2.220373-.264583-1.934413-.370158-2.28348-.297225-.469554.09811.82462.179719 1.955713.330392 2.51354.334829.557834.0044 1.01424.08744 1.01424.184457 0 .397056-2.828326.123219-6.790973-.657498zm-3.215741-2.280424c-.11942-.04831-.357548-.05126-.529167-.0065-.171627.04472-.07391.08425.217127.08785.29104.0036.431459-.033.31204-.08132zm.000526-1.66103c.361674-.298105.657574-.615605.657574-.705556 0-.08995-.793754-.163547-1.763887-.163547-1.989201 0-2.19418.164482-1.190627.955399.777954.61312 1.480467.586726 2.29696-.0863zm4.185355.294185c0-.331281-1.444433-1.163288-2.019566-1.163288-.545093 0-1.860995.827281-1.860995 1.169968 0 .189317.417.241142 1.940281.241142 1.548774 0 1.94028-.05 1.94028-.247822zm2.954514-.622847c.412306-.478773.749654-.954985.749654-1.058247 0-.123518-.819074-.187749-2.394187-.187749-2.13688 0-2.388054.0315-2.337154.293068.06979.358628 2.379401 1.823632 2.874807 1.823512.209113-.000051.66804-.361003 1.10688-.870584zm-6.482295-2.285483c0-.485958.0526-.520363 1.102428-.720713.60634-.115717 1.935874-.253033 2.95452-.305147 2.27696-.116489 2.46944-.203149 2.46944-1.111793 0-1.2335208-.05733-1.2445512-6.190753-1.1911129l-5.362723.046725-.05093 1.6493629c-.03286 1.064503.02167 1.736882.153887 1.89618.156847.188989.757694.246819 2.564493.246819h2.359654zm-4.550834-.936069c-.363067-.363069-.25674-1.324259.18036-1.630415.541334-.3791658.892193-.3441985 1.341113.133659.454727.484032.479794.786932.108941 1.316397-.306154.4371-1.267347.543428-1.630414.180359zm2.046113 0c.116414-.116417.211667-.457729.211667-.758472 0-.300744-.09525-.642056-.211667-.758473-.164633-.164629.709474-.211666 3.933469-.211666 4.273967 0 4.568474.04654 4.568474.721961 0 .424553-.354307.512252-2.086994.516578-.85926.0021-2.22042.156669-3.10754.352778-1.818915.402093-3.648142.478026-3.307409.137294zm6.383416 1.184052c.260833-.314288.122414-.760809-.284227-.916852-.417686-.16028-.814167.418495-.582813.850777.211806.395769.570713.423121.86704.06607zm-.703694-.355024c0-.181674.115607-.268187.30868-.231005.371801.0716.348354.384648-.0348.464424-.159807.03327-.273901-.06396-.273901-.233419zm2.359354.223795c.147933-.234914.124933-.372744-.09971-.597384-.528413-.528408-1.316767.162185-.840393.736178.274267.330469.682547.270193.9401-.138794zm-.825853-.07201c-.164614-.164614.03433-.41637.328993-.41637.139793 0 .254174.119063.254174.264584 0 .265682-.372354.362598-.583167.151786zm36.742894 7.168352c0-.09701.11906-.176388.26458-.176388s.26458.07937.26458.176388c0 .09701-.11906.176389-.26458.176389s-.26458-.07937-.26458-.176389zm-88.723624-2.962812v-2.610036l.668894-.653158.668898-.653159h9.876365 9.876367l.958088-.970139.958088-.970139h5.978558 5.978558l1.029078.548494c1.565122.8342 1.598766.896999 1.634848 3.051466.02866 1.711834-.13058 2.387174-.357916 1.517839-.05037-.192642-.573785-.708579-1.163131-1.146528l-1.071535-.796271-5.743621.0018-5.743621.0018-1.455208 1.178868c-1.197012.969701-1.455209 1.266706-1.455209 1.67393v.495057h-8.383073-8.383072l-1.449039.970139c-.883265.591351-1.639045.970139-1.935678.970139h-.486639zm1.039778.427532c.27277-.328668.05857-.816108-.35863-.816108-.427984 0-.612928.45088-.326507.795997.270292.325682.427702.330303.685137.02012zm15.856592-1.727951c-.034046-.957621-.125194-1.465498-.271716-1.514005-.162507-.0538-.220487.255552-.220487 1.176428v1.24942h-1.322916-1.322917v-1.126508c0-1.11358-.006-1.127387-.522399-1.203179-.627318-.09207-.712324.07189-.712324 1.373975 0 .901834-.02486.955712-.440972.955712-.424315 0-.440972-.04252-.440972-1.125964 0-1.058108-.02632-1.130997-.436827-1.20947-.240254-.04593-.478379-.04195-.529167.0088-.05078.05078-.09234.595048-.09234 1.209469v1.11713h-1.234723-1.234722v-1.126508c0-1.117297-.0044-1.127143-.53017-1.20432-.291594-.04279-.569407-.03857-.617362.0094-.04796.04796-.08719.589897-.08719 1.20432 0 1.074012-.01702 1.117129-.440973 1.117129-.425143 0-.440972-.04116-.440972-1.146528 0-.872157-.05986-1.146528-.250157-1.146528-.137586 0-.375711-.04818-.529166-.107066-.238203-.09141-.27901.07528-.27901 1.139661v1.246727l-1.529168.05097c-1.028457.03427-1.553081.123161-1.602199.271451-.05768.174109 1.526922.220485 7.533524.220485h7.606554zm-12.769621.179017c.342155-.488497.08148-1.031062-.495386-1.031062-.613168 0-.908651.435046-.662466.975362.245817.539511.800294.566185 1.157852.0557zm-.775361-.413702c0-.14552.119063-.264583.264584-.264583s.264584.119063.264584.264583c0 .145522-.119063.264584-.264584.264584s-.264584-.119062-.264584-.264584zm6.595668.396876c.283733-.452622-.07712-.926042-.705864-.926042-.398175 0-.522575.08911-.567578.406584-.11831.834566.832724 1.222508 1.273442.519458zm-.907125-.352778c.04042-.121267.179329-.220486.30868-.220486.129352 0 .268258.09922.30868.220486.04372.131161-.08133.220486-.30868.220486-.227345 0-.3524-.08933-.30868-.220486zm6.557886.47247c.508026-.508024.206843-1.133928-.545639-1.133928-.564965 0-.820614.547201-.481703 1.031062.315335.450203.646815.483394 1.027342.102866zm-.78115-.516568c0-.181673.115606-.268186.30868-.231003.371801.0716.348357.384648-.03478.464424-.159805.03327-.2739-.06396-.2739-.233421zm9.348612-2.830682c0-.16035-.956227-.950117-1.157625-.956104-.103117-.0031-.415623.232551-.694459.523593l-.506973.529166h1.179528c.648741 0 1.179529-.0435 1.179529-.09666zm1.594642-.289294c.846594-.625914.682621-.848773-.624503-.848773-1.259868 0-1.398434.150094-.763004.826479.476714.507438.725899.511442 1.387507.0223zm2.462302.222363c0-.202809-.862151-.894747-1.114849-.894747-.224224 0-1.001817.708415-1.001817.912691 0 .0801.47625.145642 1.058333.145642.582084 0 1.058333-.07362 1.058333-.163586zm1.706447-.288883c.32627-.248858.547359-.526671.49131-.617361-.05606-.09069-.613163-.164892-1.238028-.164892-1.283643 0-1.469841.241054-.671357.869142.593337.46672.700897.460129 1.418075-.08689zm2.350499.331546c0-.179986-.743224-.93741-.919836-.93741-.221251 0-1.196832.745943-1.196832.915116 0 .07877.476251.143217 1.058334.143217s1.058334-.05441 1.058334-.120923zm1.77103-.265026c.846595-.625914.682622-.848773-.624502-.848773-1.259869 0-1.398435.150094-.763004.826479.476713.507438.725898.511442 1.387506.0223zm2.462303.222363c0-.202809-.862152-.894747-1.11485-.894747-.224223 0-1.001817.708415-1.001817.912691 0 .0801.47625.145642 1.058334.145642s1.058333-.07362 1.058333-.163586zm-42.074812 5.229325c-.05553-.221275-.0769-.907553-.04746-1.525063.05939-1.245901.38823-1.68788.97956-1.316572.23032.144623.322265.478842.362198 1.316572.07654 1.605787-.03541 1.92738-.670879 1.92738-.396783 0-.546734-.09677-.623419-.402317zm1.048801-1.942025c.27557-.436869-.289977-.986229-.681111-.661617-.32851.272639-.348974.56681-.05956.856219.259485.259485.492935.198149.740675-.194602zm-9.4212151 1.638785c0-.341001.1162853-.352646 3.4836806-.348854l3.4836805.0039-.440972.344934c-.398293.31155-.735456.345313-3.4836805.348855-2.9264233.0038-3.0427086-.0096-3.0427086-.348855zm11.0707571-.310673c-.861628-.561541-1.012232-.738761-1.014236-1.193481-.0034-.764799-.447512-1.318067-1.058089-1.318067-.699106 0-1.060931.423276-1.060931 1.241115 0 .498444-.09355.736818-.341182.869346-.20346.108888-1.805492.182594-3.9687499.182594h-3.6275692v-1.852083-1.852083h7.2626921 7.262692l-.383525.408243c-.344375.366571-.383524.600639-.383524 2.293055v1.884813l-.837847-.002c-.667707-.0016-1.04333-.135903-1.849731-.661451zm-13.8929792-.218493c0-.342986.083625-.365233 1.1906247-.316739.9175606.04019 1.1906253.112837 1.1906253.316739 0 .203903-.2730647.276545-1.1906253.31674-1.1069994.04849-1.1906247.02625-1.1906247-.31674zm0-2.028472v-1.322917h1.234722 1.2347227v1.322917 1.322917h-1.2347227-1.234722zm89.2527912-2.236151c-.768997-1.041272-.854271-1.098738-2.734032-1.842237-2.909862-1.1509385-2.803767-1.093101-2.55499-1.3928552.257875-.3107186 1.442743-.1874973 2.089503.2173007.229054.1433594.864049.2827716 1.411112.3098061 1.255348.062028 1.945127.2401364 2.453188.6334124.220115.170382.795488.364151 1.278627.430599.483131.06645.922874.192753.977213.280678.128091.207243 1.085808.207899 1.21379.0008.173666-.281006 2.087414-.382144 3.450308-.182344.72761.106667 1.79917.207269 2.38126.223561 1.06024.02968 1.49929.170531 1.49929.481003 0 .09713-1.2293.165982-2.96339.165982h-2.963409l-.989515.881944-.989523.881945-1.382844-.0074-1.382844-.0074zm-88.1944579-.072729c0-.310878.8722194-.766865 1.476806-.77206.5874648-.005.6523261.03116.4634721.258716-.337948.407202.3345954.339948.881944-.08819.4346567-.339994 1.4111117-.486462 1.4111117-.211668 0 .07761-.09525.236362-.2116667.352779-.3712767.371276.3708906.250773.8690904-.141111.4949202-.389304 1.6947734-.517753 1.3181324-.141112-.30451.30451-.260885.493889.113773.493889.178991 0 .469106-.158749.644699-.352777.229796-.253923.543272-.352778 1.118672-.352778h.799412l-.506972.529166-.506975.529168h-3.9357492c-2.1646623 0-3.9357497-.04681-3.9357497-.104018zm8.6430569-.03312c0-.450534.598873-.923209 1.200626-.947621.532473-.0216.562862-.03985.166388-.09991-.460257-.06973-.48507-.122238-.48507-1.026623 0-.8545146-.05475-.9936258-.529167-1.3443724-.291041-.2151808-.529167-.4556825-.529167-.5344525s1.309688-.1432173 2.910417-.1432173h2.910417v2.1166662 2.116668h-2.822222c-1.552222 0-2.822222-.06171-2.822222-.137142zm6.173611-1.118749c0-1.093685.02595-1.173741.352777-1.088274.252573.06605.352779.0054.352779-.213475 0-.2188859-.100206-.2795234-.352779-.2134747-.322658.084378-.352777.00537-.352777-.9249221v-1.0171767l5.512153-.1179487c3.031684-.064873 5.909028-.1579527 6.394098-.2068466 1.390629-.1401727 1.403505-.1078381.959434 2.4095078-.212238 1.20314-.435561 2.239163-.496272 2.302271-.06071.06311-2.868666.145372-6.239899.182805l-6.129514.06806zm11.553473-.334026c0-.378091-.512528-.32348-.586867.06253-.04539.235725.02644.307564.262169.262168.178583-.03439.324698-.180507.324698-.324698zm.881944 0c0-.378091-.512527-.32348-.586866.06253-.04539.235725.02644.307564.262168.262168.178583-.03439.324698-.180507.324698-.324698zm-28.1948863 1.090957c-.4371193-.483012-.4147859-2.8629512.0306467-3.2660645.4350187-.393687.601194-.369707 1.0972694.1583412.354362.3772008.3810947.4761615.164746.6098724-.169458.1047309-.400562.0663665-.6721407-.1115786-.2276373-.1491539-.449164-.235911-.4922813-.1927937-.04312.043119.1225199.2100388.368082.3709376.6057813.3969236.608546 1.1959796.00553 1.5911066-.2425347.158916-.4409721.372243-.4409721.474062 0 .101818.2077674.02169.4617048-.178053.4745193-.373256.7730173-.348886.7730173.06311 0 .194358-.7100766.803627-.9365947.803627-.036887 0-.1984267-.145158-.358984-.322571zm28.7135643-.250695c.154323-.725441.62785-3.1675358.62785-3.2379638 0-.038133 1.111251-.069327 2.469445-.069327h2.469445v.981452c0 .9566788-.02337 1.0032588-.926042 1.8453588l-.926041.863908-1.899542.0067c-1.878817.0066-1.89862.0024-1.815115-.390151zm5.289804-2.0925547c-.150303-.2431948-.605009-.1839845-.605009.078783 0 .1293517.05223.2874137.116062.3512477.159514.159514.608988-.2358.488947-.4300307zm-.957787 2.4048687c0-.04651.357188-.413806.79375-.816215.751461-.692672.79375-.782144.79375-1.6793277 0-.8133335.0475-.9476731.335018-.9476731.270058 0 .347242-.1537407.398078-.7929127l.063066-.7929127-17.728289-.0449333-17.7282902-.0449334v-1.2020047-1.2020047l2.3812507-.0032 2.3812503-.0032.3249174.5437481c.2982607.4991379.4023225.543748 1.2684092.543748.5189206 0 .9925486-.079375 1.0525076-.1763894.143623-.2323887 2.910416-.2323887 2.910416 0 0 .097014.198438.1763894.440972.1763894s.440972-.079375.440972-.1763894c0-.2461573.636007-.2202787 1.083773.0441.298744.1763893.3894.1763893.453278 0 .09803-.2707047 2.795982-.310886 2.960867-.0441.141939.2296633.970138.2296633.970138 0 0-.097013.198438-.1763886.440973-.1763886s.440972.079375.440972.1763886c0 .2296633.828199.2296633.970138 0 .142144-.2299926 2.680081-.2299926 2.822224 0 .141939.2296633.970138.2296633.970138 0 0-.2296627.828199-.2296627.970139 0 .141941.2296633.970139.2296633.970139 0 0-.1028934.587963-.1763886 1.411112-.1763886.823148 0 1.411111.073495 1.411111.1763886 0 .2296633.828198.2296633.970139 0 .14194-.2296627.970138-.2296627.970138 0 0 .097014.198438.1763894.440973.1763894s.440972-.079375.440972-.1763894c0-.2323887 2.766792-.2323887 2.910417 0 .14194.2296633.970139.2296633.970139 0 0-.097013.198437-.1763886.440972-.1763886s.440972.079375.440972.1763886c0 .2296633.828199.2296633.970139 0 .143625-.2323887 2.910417-.2323887 2.910417 0 0 .097014.193753.1763894.430562.1763894s.479619-.079375.539577-.1763894c.05996-.097013.302768-.1763886.539577-.1763886s.430562.079375.430562.1763886c0 .097014.198437.1763894.440972.1763894s.440973-.079375.440973-.1763894c0-.1028934.587962-.1763886 1.41111-.1763886.823149 0 1.411112.073495 1.411112.1763886 0 .097014.238125.1763894.529167.1763894.291041 0 .529166-.079375.529166-.1763894 0-.097013.198438-.1763886.440972-.1763886.242536 0 .440973.079375.440973.1763886 0 .097014.193753.1763894.430562.1763894s.479619-.079375.539577-.1763894c.05996-.097013.73933-.1763886 1.509716-.1763886.816208 0 1.400701.073605 1.400701.1763886 0 .097014.198438.1763894.440972.1763894.242535 0 .440973-.079375.440973-.1763894 0-.2296627.828198-.2296627.970139 0 .14194.2296633.970138.2296633.970138 0 0-.102694.581673-.1763886 1.39224-.1763886 1.459453 0 1.606366.081979 1.606366.8963706 0 .2988.13918.33992 1.190627.3517707l1.190628.01342-.617361.2377447c-.388033.1494313-1.420006.2427293-2.778125.251164-1.31397.00816-2.160764.082545-2.160764.189808 0 .097014-.396875.1763887-.881944.1763887s-.881944-.079374-.881944-.1763887c0-.108882-.911344-.1763887-2.381251-.1763887s-2.38125.067507-2.38125.1763887c0 .225354-1.71474.2329673-1.793288.00796-.03311-.09485-1.175974-.1798844-2.616434-.1946684l-2.557639-.026247-.0286 1.9983357-.0286 1.9983349-.630261.57759-.63026.577591h-2.38384c-1.311112 0-2.383841-.03805-2.383841-.08456zm-29.4569464-6.0008585c0-.4213734-.04704-.4409721-1.0583334-.4409721-1.0112968 0-1.0583334.0196-1.0583334.4409721 0 .4213739.047034.4409726 1.0583334.4409726 1.011296 0 1.0583334-.0196 1.0583334-.4409726zm49.9446514 5.2878725-.943546-.789956h-6.508885-6.508884v-1.4111109-1.4111109h8.025695 8.025694v2.2048608 2.204861l-.573263-.0038c-.417662-.0028-.829372-.218214-1.516811-.793752zm-12.550204-2.7302331c0-.097014-.119063-.1763894-.264583-.1763894-.145521 0-.264583.079375-.264583.1763894 0 .097013.119062.1763886.264583.1763886.14552 0 .264583-.079379.264583-.1763886zm1.234722 0c0-.097014-.07938-.1763894-.176388-.1763894-.09701 0-.176389.079375-.176389.1763894 0 .097013.07937.1763886.176389.1763886.09701 0 .176388-.079379.176388-.1763886zm58.913894 2.7340281c0-.145522.0794-.264584.17639-.264584.097 0 .17639.119062.17639.264584 0 .14552-.0794.264583-.17639.264583-.097 0-.17639-.119063-.17639-.264583zm4.00295.151785c-.14092-.140923.0184-.416369.24079-.416369.0913 0 .16599.119062.16599.264584 0 .272769-.20813.350432-.40678.151785zm-103.7214768-.357573c-.1873161-.187316-.1360128-1.4699075.0587934-1.4699075.097014 0 .1763887.3571885.1763887.7937505 0 .807579-.02678.884565-.2351853.676157zm.5879633-.764352v-.8819443h.6173613.6173607v.8819443.881944h-.6173607-.6173613zm2.5038777.0441c.04588-.7149919.1119566-.8461133.4506366-.8942134.3667954-.052092.3968747.011405.3968747.8378484 0 .841347-.02664.894211-.4506367.894211-.4275546 0-.4478833-.04291-.3968746-.837846zm2.0822348-.03182c0-.8413481.02664-.8942121.450636-.8942121.427555 0 .447883.042909.396874.8378471-.04588.714992-.111956.846112-.450636.894212-.366795.05209-.396874-.0114-.396874-.837847zm2.116666-.000547c0-.8139335.03138-.874981.48507-.9437098.4391-.066523.4292-.075991-.104471-.09991-.324247-.014541-.791357-.1851845-1.038023-.3792125-.696412-.5477965-1.462839-.4269298-.894798.1411112.164629.1646296.09231.2116672-.32544.2116672-.313094 0-.6702608-.1471346-.856366-.3527784-.175593-.194031-.5176965-.3527802-.7602322-.3527802-.4297993 0-.4328826.00894-.1217126.3527772.313482.3463936.3080866.3527784-.2981013.3527784-.3933487 0-.7332063-.1280078-.936621-.3527784-.1755927-.1940314-.4657073-.3527805-.6446994-.3527805-.3746573 0-.4182827.1893785-.1137726.4938883.1646293.1646296.056833.2104287-.48507.2060933-.4802668-.0038666-.8474427-.1382207-1.1818054-.4325125-.2667881-.2348151-.4850694-.4704318-.4850694-.5235918s1.7182314-.096655 3.8182924-.096655h3.8182915l.76782.6291703c.717374.5878333.767819.6863386.767819 1.4993052v.870135h-.705556-.705555v-.870228zm63.876538-1.5362055.05274-.85676-6.920007-.046147-6.920002-.046146-.895188.7076046c-.580314.45871-1.07574.7076011-1.408514.7076011-.505553 0-.513327-.014918-.513327-.9848384 0-.7105113.0614-.9638247.220488-.9094006.121266.041493.770166-.1106454 1.442006-.3380788 1.145768-.387872 1.481349-.413516 5.411262-.413516 2.776082 0 5.637289.1249534 8.479875.3703287 2.359567.2036814 4.647314.3916787 5.083874.4177721.436559.026094.992187.097401 1.23472.1584612.242533.06106 1.11566.1453714 1.94028.1873594.824619.041987 1.598528.081844 1.719801.088571.137055.0076.220484.275512.220484.7080647v.6958305l-3.748275.083563c-2.061547.045962-4.131813.1382206-4.600594.2050232l-.852333.1214578.052737-.856761zm10.417003-.076242c.0348-.1042898.138606-.1896178.230773-.1896178.09217 0 .196006.085328.230773.1896178.03472.1042898-.0691.189618-.230773.189618-.161692 0-.26554-.085328-.230773-.189618zm-8.412284-1.868693c-.29104-.03584-.886353-.1503474-1.322913-.2544534-.50462-.120336-3.284273-.1801687-7.631007-.1642587-6.129035.022433-6.848522-.00434-6.945928-.2581593-.06493-.1691793.03953-.42123.259393-.6260867.29654-.2762694.624546-.3429033 1.687946-.3429033.725934 0 1.36894.079375 1.428893.1763892.141941.2296628.97014.2296628.97014 0 0-.097014.198441-.1763892.440974-.1763892s.440974.079375.440974.1763892c0 .2296628.828202.2296628.970141 0 .143621-.2323893 2.910414-.2323893 2.910414 0 0 .097014.19844.1763888.440974.1763888.242533 0 .440972-.079374.440972-.1763888 0-.097014.238128-.1763892.529168-.1763892.444832 0 .529166-.069285.529166-.4347661 0-.6255793.47838-.8049953 2.458687-.9221287l1.740386-.1029427.286247.5535301c.157434.3044413.357907.55353.4455.55353.351427 0 .713627.588308.713627 1.1591267 0 .4089654.08229.604762.254173.604762.139793 0 .303227.079374.363187.1763887.10776.174362-.324167.1922253-1.411114.05836zm-.833-.8621134c.489454-.3428227.507334-1.0212247.03927-1.4893034-.465533-.4655273-.805726-.4450341-1.330933.080177-.525213.5252107-.545707.8654067-.08018 1.3309347.423793.423794.844233.447758 1.37186.078192zm-.99042-.2331327c-.129753-.082246-.209126-.3389994-.176386-.5705627.08191-.579338.944853-.701548 1.117293-.158232.200193.6307453-.382973 1.0824441-.940907.7287947zm-72.7596896-1.7265494c-.0646733-.0646733-.1175926-.3424886-.1175926-.6173613v-.4997687h2.0883533c2.0666941 0 2.0904775.00467 2.2930564.449272.112586.2470994.204702.524912.204702.6173614 0 .1892907-4.2813438.237672-4.4685191.050493z" fill="#273839" stroke-width=".176389"/></svg>