<svg height="128" viewBox="0 0 64.218336 33.866667" width="242.715" xmlns="http://www.w3.org/2000/svg"><path d="m50.099764 30.229772c-.573493-.38527-.697878-.603469-.749783-1.315282-.03863-.529769.02331-.853386.163337-.853386.764363 0 2.063881.525801 2.547747 1.03085l.563302.587958h3.260455c2.266116 0 3.334523-.07406 3.503287-.242822.133559-.133551.242823-.709556.242823-1.28001 0-.844263.09395-1.125445.505082-1.511685.27779-.260973.573731-.405957.657636-.322187.08391.08377.18502.981256.224689 1.994414.06225 1.590924.02254 1.878369-.291612 2.108075-.276239.201984-1.515575.26597-5.151565.26597-4.649732 0-4.807655-.01332-5.475398-.461895zm5.590474-.909644c-2.98886-.05549-3.037896-.06375-3.602488-.607054-.31481-.302937-.954537-.6457-1.421609-.761695-.705726-.17526-.859969-.302616-.912766-.753655-.03496-.298516.01945-.691047.120885-.872288.136387-.243707-.150106-.929231-1.099982-2.632051-.706425-1.266387-1.284405-2.486288-1.284405-2.710894 0-.224607-.10523-.408375-.233837-.408375-.128616 0-.534183-.229084-.901276-.509075-.367085-.279991-.949779-.565545-1.294884-.634565-.443418-.08868-.593852-.213055-.512892-.424035.08729-.227481.02975-.257057-.241842-.124252-.196031.09586-2.88327.199829-5.971653.231039l-5.61524.05675-.000166-.663799-.000166-.663799 4.790201.05788 4.790199.05788 1.128732-.694135c2.60181-1.600028 8.698299-4.721578 8.875449-4.544437.113225.113228.653436-.117702 1.379636-.589771 1.55303-1.009551 3.159376-1.733313 3.642462-1.641165.225693.04305.412926.277408.454164.568458.05713.403444-.306052.853028-1.960059 2.426146l-2.030231 1.930934.108255 1.011755c.06707.626886.251342 1.136904.484412 1.34075.448549.392308.31589.581585-.407624.581585-.362278 0-.815393-.289573-1.424867-.91058-.491516-.500818-1.00477-.910579-1.140556-.910579-.135792 0-.791303.324302-1.456693.720671-1.801674 1.073252-1.908499 2.133146-.243356 2.41447.709917.11994.904757.311997 2.214207 2.182598.789694 1.128097 1.435803 2.245675 1.435803 2.483508 0 .237831-.182116.597233-.404703.798672-.467937.42348-.528823 1.43823-.118724 1.978788.242612.3198.586339.353679 3.079415.303527l2.806318-.05646.06233-.863048c.04734-.655143.183227-.942239.564081-1.19178.469717-.30777.520165-.304351.791182.05364.397671.525288.376996.627663-.203525 1.008038-.444183.291036-.505881.475841-.505881 1.515178 0 .93192-.07533 1.21751-.354111 1.342597-.194772.08739-1.717671.133566-3.384235.102625zm-2.399639-2.608032c-.293642-.293648-.108752-1.033223.370976-1.483907.843136-.792083.669926-1.301097-1.325526-3.895257-1.604908-2.086437-1.902131-2.377625-2.426952-2.377625-.373087 0-.598067-.10486-.598067-.278749 0-.330432.218853-.513621 1.369023-1.145949l.863151-.47453.894682.878063c.883449.867045.908655.87662 2.008709.763086.853345-.08807 1.173605-.04319 1.368633.191809.211396.254716.17044.371472-.24129.687907-.272748.209615-.582408.383144-.688139.385619-.105723.0025-.09134.105386.03196.228691.164027.164022.42151.159072.959395-.01845 1.283599-.423627 1.770284.05135.700263.683427-.812.47966-.503796.789874.483655.486816.564754-.173328.817226-.174296.987729-.0038.170508.170506.06615.321815-.408292.591948-.993834.565855-.672749.917374.509811.558145.379192-.115188.51842.01718.983583.935132l.541861 1.069313-.631296.518958c-.472092.388087-.63083.684806-.629463 1.176601l.0013.657641h-2.495658c-1.372618 0-2.55637-.0607-2.630567-.134902zm-45.4615258-8.465018-.4752474-.505877h10.3551742c5.695347 0 10.355175.03159 10.355175.07022 0 .03862-.170032.266262-.37785.505877-.337541.389191-.583973.435663-2.310173.435663-1.365614 0-1.95726-.07418-2.017348-.252938-.06802-.202351-.226029-.202351-.790046 0-.890329.319421-1.437863.321003-1.7538.005-.195595-.195594-.332097-.195271-.647231.0015-.475363.29687-6.632557.297148-7.014005.000324-.148794-.115788-.393664-.104527-.644338.02963-.222384.119004-1.259498.216381-2.304698.216381-1.7654234 0-1.9341119-.03592-2.3756128-.505878zm21.6515598-.380684c0-.04244.318703-.320246.708228-.617352l.708228-.540192v.617351c0 .570643-.05358.617351-.708228.617351-.389525 0-.708228-.03472-.708228-.07716zm3.193382-.884009c-.232639-.481844-.387883-.556466-1.15766-.556466h-.888994l-.970155-2.078165c-.533586-1.142991-.918443-2.212922-.855241-2.377624.09727-.253474.90212-.29946 5.241272-.29946 3.199299 0 5.173371-.07607 5.25142-.202351.07383-.119461 1.296872-.202351 2.985671-.202351h2.860616l.853423.961167.85343.961168 1.383379-.708229c1.367011-.699847 1.38414-.718812 1.447281-1.602576.102087-1.4287688-.04703-1.6832884-1.463259-2.4978405-1.292742-.7435192-1.350056-.7560083-3.469751-.7560083-1.882214 0-2.139735-.040556-2.032472-.3200762.06755-.1760424.122825-.4492159.122825-.607053 0-.2340908.522879-.2869772 2.837301-.2869772h2.837299l2.519358 1.4670448c2.306592 1.3431484 3.017508 1.9729234 2.227119 1.9729234-.600743 0-.286251.53569.55316.942241l.856698.414918-.644299.333176c-.791132.409111-.866741.411698-.866741.02965 0-.504125-.986967-.376951-1.230991.158616-.14376.315512-1.506683 1.146488-4.295625 2.619041l-4.085051 2.1569-.06281-1.047746c-.04496-.750021-.212518-1.244025-.589658-1.73848l-.526848-.690734-3.278192.134364c-2.794864.114554-3.315717.08915-3.532725-.172334-.198729-.239451-.734623-.306697-2.444147-.306697-2.033292 0-2.212099.03211-2.504612.449726-.173249.24735-.315.63685-.315.865555 0 .228707.141751.618206.315.865556.292705.417894.470891.449726 2.517447.449726 1.250021 0 2.256525-.0875 2.327504-.202352.315953-.51122.505877-.09338.505877 1.112932v1.315281h-1.506589c-1.443524 0-1.51784-.0233-1.775261-.556465zm-26.7131924 0c-.9373488-1.063307-2.335811-5.071724-2.0391469-5.844817.0496732-.129452-.0069596-.295479-.1258281-.368952-.1188799-.073473-.2161461-.310327-.2161461-.526345 0-.3820367.2145431-.39276 7.8579655-.39276 4.32188 0 7.906335-.048373 7.965457-.1074928.059118-.0591183-.09623-.6737622-.345224-1.3658696-.248994-.6921078-.51597-1.4632576-.593281-1.7136669l-.140564-.4552896 10.282949.020015c5.655624.011006 10.761038.0793 11.345364.1517636l1.062412.1317513-1.224533 1.56822-1.224533 1.5682208h-5.934221c-5.197928 0-5.96763.040252-6.203473.324429-.226336.2727182-.196148.6098152.189402 2.1149422.252259.984782.763584 2.546126 1.136274 3.469653l.677621 1.679139-3.142093.05585c-2.812284.04999-3.170713.01812-3.414751-.303527-.257753-.339731-.273012-.340019-.279095-.0053-.006.330901-.508454.354114-7.664412.354114-7.0394902 0-7.683189-.0286-7.9701434-.354114zm7.0116514-.982817c.44456-.170594.405782-.489135-.35455-2.912441l-.666638-2.124686-2.0820275-.101174c-1.1451149-.05565-2.1738961-.04395-2.2861813.02599-.3413179.212598.042246 2.541214.5888624 3.574992.8538979 1.614914.9304184 1.660148 2.8083864 1.660148.91964 0 1.816106-.05527 1.992148-.122825zm-3.4996427-1.409049c-.4293093-.545779-.7602988-2.091297-.5597811-2.613837.148959-.388181 2.2125828-.432083 2.4947378-.05308.103566.139116.354074.799286.556685 1.467045.202611.667758.411941 1.327928.465178 1.467045.07134.186421-.250931.252938-1.22545.252938-1.179035 0-1.3665557-.05633-1.7313697-.520118zm10.3564547 1.278935c.314967-.233488.282645-.431886-.420317-2.579976l-.761521-2.327037-2.088354-.101174c-2.549623-.123524-2.605551-.08219-2.260764 1.670905.258721 1.315482.364599 1.575405 1.15334 2.831405l.476521.758816h1.779945c1.10708 0 1.90893-.09562 2.12115-.252939zm-3.680863-1.333628c-.260295-.365552-.43106-.973296-.469069-1.669396l-.05977-1.094584 1.246552-.05977 1.246553-.05978.524019 1.618748c.288211.89031.524018 1.668436.524018 1.729168 0 .06073-.585676.110421-1.301502.110421-1.198933 0-1.333759-.0453-1.710804-.574811zm22.14164-5.7206339c.269808-.8500914-.889841-1.2740297-1.209112-.4420208-.06617.1724408-.01653.4385747.110306.5914073.345538.4163486.94512.3348331 1.098806-.1493865zm-9.108004 8.1246199c-.159318-.257784.05634-1.01977.28861-1.01977.09081 0 .211863.178768.268999.397262.118879.45459-.342828.970032-.557609.622508zm12.303118-.136946c-.177018-.07223-.164104-.273096.05059-.78693.396538-.949045.367298-1.185041-.235585-1.901528l-.523865-.622578h.70144c.811988 0 1.089227.262535 1.251818 1.185421.08335.473121-.01129.890899-.330447 1.458771-.454578.80881-.494538.837967-.913947.666844zm-12.9404-1.381603c-.07418-.193326.000628-.473947.17226-.645506.269766-.269767.315501-.257604.411483.109425.141305.540357-.3936 1.031588-.583743.536081zm2.392783-.755798c-.133552-.133551-.242821-.434043-.242821-.667758 0-.758548.388576-.910744 2.316919-.907481 1.007202.0017 1.928975.07 2.048387.151763.395414.270756.464741.804502.160852 1.238365-.268399.383194-.49528.427932-2.170125.427932-1.184948 0-1.959379-.08899-2.113212-.242821zm-2.973639-.565093c-.164441-.26607.06876-1.013245.316242-1.013245.245581 0 .245878.952542.000404 1.104289-.103603.06403-.246067.02306-.316588-.09104zm-.871014-2.188944c-.359454-1.740304-.423727-1.657215 1.281914-1.657215 1.447065 0 1.514033.02003 1.314365.393112-.147212.27507-.468348.411783-1.069462.455289-.783487.05671-.853929.10669-.8006.568056.07172.620374-.111155 1.416457-.325373 1.416457-.0869 0-.267285-.529064-.400844-1.175699zm19.048897-.341941-.761144-.910572h-2.688886c-1.478888 0-2.688888-.04178-2.688888-.09284s.377339-.5974089.838536-1.2141068l.838535-1.1212701h2.413208c2.369094 0 2.430522.011608 3.360248.6352169 1.187512.7965131 1.452914 1.1253737 1.452914 1.80031 0 .586778-.360556.981937-1.355802 1.48591l-.647578.327919zm-7.744086-.839354c1.484526-1.7601914 3.223975-4.1337663 3.223975-4.3992916 0-.3339363.700497-.4635692.885702-.1639056.179127.289835-3.502131 4.7900022-3.981111 4.8667232-.412989.06615-.422135.04456-.128566-.303526zm-7.804155-.07122c.06879-.111294.352704-.202351.630937-.202351.285725 0 .451453.08806.380818.202351-.06879.111293-.352704.202351-.630936.202351-.285726 0-.451454-.08806-.380819-.202351zm1.821159 0c.06879-.111294.398233-.202351.732112-.202351.353176 0 .554752.08463.481995.202351-.06879.111293-.398233.202351-.732112.202351-.353176 0-.554752-.08463-.481995-.202351zm1.922335 0c0-.111294.273174-.202351.607054-.202351.333878 0 .607052.09106.607052.202351 0 .111293-.273174.202351-.607052.202351-.33388 0-.607054-.09106-.607054-.202351zm1.922335 0c.06878-.111294.398233-.202351.732112-.202351.353175 0 .554752.08463.481994.202351-.06879.111293-.398233.202351-.732112.202351-.353176 0-.554751-.08463-.481994-.202351zm-33.084392-2.2258583v-.8094051h5.576595c3.666203 0 5.533753-.06932 5.451536-.2023504-.07807-.1263215-2.059337-.2023508-5.2730699-.2023508-3.2698818 0-5.148008-.073244-5.148008-.2007593 0-.1104168.3414671-.3609687.7588159-.5567814.6534912-.3066061.7675339-.461305.8216192-1.1145232l.062805-.7585001h2.3087794 2.3087794l.461332.8041933.461332.8041933 3.431544.055799 3.431545.055799.445936 1.4670448.445936 1.4670452h-7.772739-7.772738zm5.9205998-2.5293884c-.0268136-.1112932-.6414566-.229276-1.3658691-.2621842-1.2119421-.0550573-1.5438331.0691907-1.1736559.439368.219909.2199087 2.5952699.0541778 2.539525-.1771838zm41.6318842 1.3197155c-1.789076-1.1194228-2.007391-1.2033479-3.14935-1.2106715l-1.227015-.00787.0896-1.2646933c.09617-1.3574984.238004-1.5603081 1.094545-1.5651224.413434-.00229.63239.1537704.875701.6242869.247107.4778377.728436.8140308 2.019277 1.4104059 1.575588.7279214 1.708246.8368415 1.885275 1.5478878.284938 1.1445161.401234 1.6758432.365952 1.672013-.01743-.00193-.896693-.544696-1.953981-1.2062367zm-2.832909-2.9504662c0-.1603714-.136593-.2915843-.303529-.2915843-.304784 0-.41597.4271612-.174129.6690019.188843.1888431.477658-.039364.477658-.3774176zm-29.408348 1.3946742c-.268079-.2680785-.126017-.6296252.290161-.7384588.234056-.061206.365082-.2082045.291584-.3271264-.09139-.1478678.542281-.215971 2.009502-.215971 1.718203 0 2.166065.060166 2.259452.3035265.06406.1669395.246178.3035266.404701.3035266.158526 0 .340642-.1365871.404702-.3035266.1569-.4088711 1.414084-.4025914 1.643981.00821.178397.3187773.857408.2150051.857408-.1310362 0-.099386.900838-.1807018 2.001861-.1807018 1.592765 0 2.025663.062025 2.118336.3035265.150925.3933085.916828.3933085 1.067753 0 .130818-.3409065 1.489634-.4331969 1.489634-.1011758 0 .2631861.747921.2631861.910579 0 .07032-.1137757 1.040269-.2023507 2.215868-.2023507 2.071505 0 2.091999.00474 2.22011.5151833.07112.2833506.07561.6020536.01.7082288-.13538.2190492-19.977594.276176-20.195625.058147z" fill="#273839" stroke-width=".202351"/></svg>