<svg height="128" viewBox="0 0 44.469047 33.866667" width="168.07201" xmlns="http://www.w3.org/2000/svg"><path d="m31.474952 30.557765c-.04563-.07384-.318976-1.069051-.607419-2.211578-.386302-1.530145-.474845-2.126151-.336146-2.262702.137601-.135473.253176-.09748.429283.14113.19995.27091.240988.280102.240988.05397 0-.193713.255405-.324739.883091-.453038 6.252628-1.278036 6.525937-1.320684 6.669608-1.040764.357465.696451.880137 2.587564.750224 2.714428-.07966.0778-1.128859.570828-2.331547 1.09563-4.715604 2.057689-5.477334 2.320096-5.698082 1.962918zm8.287982-3.695682c-.724143-1.903444-1.267376-3.901301-1.104958-4.063719.279297-.279297.587626-.214309.791618.166853.199511.372786-.06761.915868-.361228.734403-.198395-.122613-.188044-.0053.04458.505256.106555.23386.326643.467384.489087.518941.420095.133333.545904.586517.252753.910448-.313786.346727-.166628.975219.260041 1.11064.384402.122004.412378.342644.06056.477649-.174688.06703-.313992-.04909-.432459-.360471zm.573809-.237712c-.478899-.23408-.628232-.642511-.34022-.930523.448832-.448832 1.181275.24101.775286.730197-.23965.288759.03943.305701.341493.02073.179874-.169693.208016-.16158.145858.04205-.097.317784-.446916.369961-.922417.137541zm.728348-.72627c-.05325-.138771-.0235-.252312.06611-.252312s.162931.113541.162931.252312-.02975.252312-.06611.252312-.109678-.113541-.162928-.252312zm-10.599549-.330012c.114378-.298066-.143919-.225005 4.241092-1.199602 2.998957-.666537 3.613174-.75871 3.735621-.56059.08059.130408.09292.286916.0274.347793-.108854.101122-7.561172 1.658307-7.936262 1.658307-.08921 0-.119736-.110658-.06784-.245908zm9.915456-.354834c-.317245-.317245-.328491-.445265-.06248-.711279.304568-.304568.421585-.249139.608997.288475.244073.700142-.04531.924014-.546521.422804zm-9.670012-.95518c-.08263-.218044-.07771-.46023.01161-.571363.205949-.256265.75887-.09961.884144.250499.05487.153346.143325.392352.196565.531124.07723.201286.06445.206159-.06319.02409-.111804-.159488-.194639-.172153-.275046-.04206-.193051.312365-.602402.207976-.754081-.192302zm8.828972.114141c-.324623-.324623-.331726-.479584-.03334-.727226.473688-.393126 1.153685.286875.76056.760561-.247642.298391-.402602.291288-.727226-.03333zm-7.663692-.32226c-.294521-.354876-.0848-.759076.393846-.759076.450167 0 .697626.521547.392317.826854-.25272.252721-.540785.227887-.786163-.06778zm1.279773-.174385c-.325326-.325326-.337732-.451979-.07045-.719257.292281-.292281.602615-.248076.796067.113394.12888.240813.09528.381699-.142298.596705-.2866.259372-.332382.26009-.583315.0091zm.860297.06727c.114101-.114957.249827-.166639.301616-.11485.05179.05179-.04156.145845-.207455.209012-.23973.09128-.25905.07196-.09416-.09416zm6.548892.07694c-.06168-.06167-.112141-.190354-.112141-.285953 0-.105399.07835-.09547.199045.02523.109477.109476.15994.238155.11214.285953-.0478.0478-.137371.03645-.199044-.02523zm-6.239712-.488603c-.32462-.324623-.331724-.479584-.03334-.727226.473687-.393125 1.153688.286875.760562.760561-.247642.298391-.402605.291288-.727228-.03334zm.829027.09612c.05718-.09251.175183-.168208.262238-.168208.08705 0 .158279.07569.158279.168208 0 .09251-.118007.168208-.262239.168208-.144231 0-.215456-.07569-.158278-.168208zm1.093349-.165959c0-.197632.479126-.347796.58145-.182235.04818.07796-.06294.181105-.246928.229219-.183987.04811-.334522.02697-.334522-.04698zm-5.797917-.219763c-.072-.16589-.08372-.348817-.02603-.406502.170814-.170814.308509.06912.22989.400591-.0697.29385-.07877.294113-.203858.0059zm.617117.01566c-.250603-.250603-.257457-.516299-.01946-.754299.25435-.254349.779634-.08363.87595.284684.143677.549412-.450764.875343-.856492.469615zm4.465918.02017c-.353104-.205663-.379828-.547236-.06337-.809872.473685-.393125 1.153685.286875.76056.760562-.225639.271879-.30538.277517-.69719.04931zm4.343363-.08265c-.330492-.330491-.332072-.479295-.0079-.748294.315805-.262095.384387-.199002.51983.478211.118151.590748-.08436.6976-.511882.270083zm-2.366922-.07209c.05718-.09251.269802-.162887.472499-.156384.355315.0114.356469.01701.03212.156384-.462988.198953-.627582.198953-.504622 0zm-5.264906-.201849c-.307937-.307938-.241773-.603847.163803-.732572.465731-.147817.910014.361096.620148.710362-.230793.27809-.519879.286279-.783951.02221zm4.328316-.155957c-.149366-.279089-.141416-.389541.03613-.502048.588674-.373026 1.218544.122934.798662.628863-.277918.334868-.615124.283642-.834792-.126815zm-3.25351-.252243c-.120126-.313041.169515-.735615.504206-.735615.341141 0 .600105.579493.364329.81527-.280744.280743-.746634.238016-.868535-.07965zm4.395291-.0566c-.102734-.392849.273454-.757251.63752-.617546.370056.142004.509989.618642.233099.793969-.394144.24957-.779649.171451-.870619-.176423zm-7.418603-.09479c-.332156-.332157-.340701-.485875-.04085-.734735.366771-.304392.80406-.03837.745304.453394-.06311.52819-.345023.640779-.70446.281341zm4.365895-.0075c-.324624-.324623-.331727-.479584-.03334-.727227.473688-.393125 1.153689.286876.760563.760562-.247642.29839-.402602.291287-.727225-.03333zm4.588909.142986c-.36923-.08646-.504062-.658398-.2123-.90054.485222-.402698 1.189254.332239.722661.754385-.128292.116073-.357955.181842-.510361.146155zm-7.8792-.465246c-.294521-.354883-.0848-.759083.393844-.759083.450167 0 .697626.521547.39232.826854-.25272.25272-.540785.227886-.786164-.06778zm4.467745-.01416c-.312064-.312063-.327909-.445849-.08194-.691823.43653-.436529 1.203116.250472.80916.725158-.247641.29839-.402602.291287-.727225-.03333zm-3.382835-.429507c-.192517-.606568.61531-.906799.918015-.341185.114384.213732.105737.371166-.02772.504624-.309221.309221-.766949.225191-.890293-.163439zm4.477961.04677c-.192377-.359464.05349-.698601.506477-.698601.365459 0 .551817.478541.303077.778256-.267239.322003-.612789.288003-.809554-.07966zm-7.139779-.400691c-.150348-.561147-.132342-.633511.132359-.531937.347567.133375.448342.516953.19176.729897-.170314.141348-.245514.09542-.324119-.19796zm3.861031.101289c-.120126-.313041.169515-.735614.504206-.735614.341144 0 .600105.579492.364328.815269-.280743.280742-.746634.238016-.868534-.07965zm4.395291-.0566c-.102731-.392849.273457-.757251.637523-.617547.370053.142005.509989.618644.233096.79397-.394144.24957-.779647.171451-.870619-.176423zm-7.396074-.01966c-.353102-.205662-.379828-.547235-.06337-.809871.474685-.393955 1.161686.372631.725157.80916-.220561.220561-.284211.220628-.661785.000709zm4.343365-.08264c-.324623-.324622-.331726-.479584-.03334-.727226.473685-.393125 1.153685.286875.76056.760562-.247642.29839-.402603.291286-.727226-.03334zm4.373902.000502c-.298138-.29814-.283692-.598959.03385-.704806.193636-.06454.48927.74138.33028.900371-.04635.04635-.210213-.04165-.364128-.195565zm-7.664191-.322758c-.294521-.35488-.0848-.75908.393843-.75908.45017 0 .697629.521547.392319.826854-.25272.252721-.540784.227886-.786162-.06778zm4.467744-.01417c-.324624-.324622-.331727-.479584-.03333-.727226.474686-.393955 1.161686.372631.725156.80916-.245974.245974-.379757.230129-.691821-.08193zm-3.361077-.345721c-.120123-.313038.169515-.735612.504209-.735612.341141 0 .600102.579493.364326.81527-.280741.280743-.746634.238016-.868535-.07965zm4.456203-.03701c-.192378-.35946.05349-.698597.506479-.698597.365457 0 .551818.478541.303077.778255-.267242.322004-.612791.288004-.809556-.07965zm-7.458765-.04696c-.35143-.19667-.377775-.539752-.06159-.80216.304416-.252642.778256-.06017.778256.316122 0 .436984-.363637.683601-.716663.486038zm4.180016-.252446c-.120123-.313038.169516-.735611.504209-.735611.358244 0 .660837.682627.381157.859855-.36277.229875-.771486.172522-.885366-.12424zm4.373403 0c-.120123-.313032.169516-.735605.504209-.735605.274133 0 .629498.615237.487797.844516-.164851.266729-.877902.188451-.992006-.108901zm-7.466699-.09642c-.405729-.405728-.0798-1.000167.469615-.856493.368316.09632.539032.621602.284684.87595-.238001.238001-.503696.231146-.754299-.01946zm4.435879-.06247c-.32462-.324623-.331724-.479584-.03334-.727226.473687-.393125 1.153685.286874.760562.760561-.247641.298391-.402605.291287-.727228-.03333zm-3.290289-.322259c-.276469-.333124-.09497-.759077.323442-.759077.428715 0 .745341.544236.474308.81527-.263753.26375-.548892.243664-.79775-.05619zm4.369765-.08972c-.231528-.432618-.085-.669355.414311-.669355.455623 0 .689366.442719.410896.778256-.274018.33017-.614253.28527-.825207-.108901zm-7.236095-.430252c-.195984-.515477-.125389-.661557.250077-.517476.289778.111198.352206.705886.09104.867292-.09269.05729-.246192-.100133-.341121-.349816zm3.973.160095c-.120126-.313043.169515-.735616.504205-.735616.341142 0 .600106.579492.364329.81527-.280743.280741-.746634.238015-.868534-.07965zm4.456203-.03701c-.192381-.359462.05349-.698599.506476-.698599.365459 0 .551817.478541.303077.778254-.267239.322005-.612791.288005-.809553-.07965zm-7.458768-.04696c-.351429-.196671-.377774-.539752-.06159-.802159.304416-.252643.778256-.06017.778256.316122 0 .436982-.363637.6836-.716663.486037zm4.323229-.05307c-.256428-.190416-.287828-.30561-.146289-.536663.253068-.413115.494392-.456619.805757-.145256.218744.218745.230371.328497.06317.596237-.245138.392527-.300565.399099-.722632.08568zm4.229133-.202135c-.160257-.41762.01638-.474644.230566-.07443.10333.193074.117549.350821.03163.350821-.08587 0-.203856-.124374-.262191-.276387zm-7.373127-.0735c-.534865-.311531-.224141-1.033889.3771-.876661.368315.09632.539035.6216.284685.875949-.22056.22056-.28421.220628-.661785.000709zm4.343367-.08265c-.324624-.324622-.331727-.479584-.03334-.727226.474686-.393954 1.161686.37263.725159.80916-.245974.245974-.37976.230129-.691821-.08193zm-3.382835-.429505c-.07117-.224243-.0284-.411305.114817-.502047.385048-.243977.773438-.166278.862016.172447.172766.660648-.770724.978997-.976833.3296zm4.462308.01752c-.231304-.432196-.08508-.669355.41269-.669355.435713 0 .676349.527619.377113.826855-.27966.27966-.588837.218005-.789803-.1575zm-7.443113-.01771c-.35143-.19667-.377775-.539751-.06159-.802159.304416-.252642.778255-.06017.778255.316122 0 .436983-.363636.6836-.716662.486037zm4.180017-.252447c-.120126-.313042.169516-.735615.504206-.735615.341144 0 .600106.579491.364329.81527-.280743.280742-.746634.238014-.868535-.07965zm4.395292-.0566c-.0475-.181627.0075-.408116.122186-.503308.152862-.126864.260512-.05903.403158.254041.254417.558387.249965.579498-.12219.579498-.174239 0-.355658-.148604-.403154-.330231zm-7.44803-.08043c-.256427-.190417-.287828-.305611-.146288-.536664.380901-.621793 1.025218-.363218.848585.34055-.12604.502181-.245282.53548-.702297.196114zm4.39158-.02561c-.313457-.313457-.324139-.442134-.05874-.707537.266014-.266014.394032-.254769.711277.06247.343288.343289.333324.452699-.06381.700717-.266827.166635-.376835.156235-.588728-.05566zm-3.286548-.318517c-.294522-.354877-.0848-.759077.393842-.759077.45017 0 .697626.521546.39232.826854-.25272.25272-.540785.227885-.786162-.06778zm4.467743-.01416c-.324623-.324622-.331726-.479585-.03334-.727227.473685-.393125 1.153685.286874.76056.760561-.247642.298391-.402602.291288-.727226-.03333zm-7.391242-.450555c-.148738-.555014-.131877-.630779.140374-.630779.357437 0 .627723.572469.384924.815269-.284408.284406-.411612.239731-.525298-.18449zm4.008407.02105c-.192516-.606567.61531-.906798.918015-.341184.114384.213731.105737.371164-.02772.504624-.309221.309221-.766949.225192-.890293-.16344zm4.497813.155567c-.30794-.307938-.241773-.603848.1638-.732573.465731-.147817.910017.361096.620151.710362-.230796.27809-.519882.286282-.783951.02221zm-7.476943-.154807c-.352947-.197519-.37995-.540272-.06326-.803095.265212-.220106.71202-.0965.838009.231819.136116.354711-.423873.767633-.774743.571276zm4.178343-.253382c-.120123-.313041.169515-.735615.504206-.735615.341144 0 .600105.579492.364329.81527-.280741.280743-.746634.238015-.868535-.07966zm-3.000782-.07626c-.353102-.205662-.379829-.547235-.06337-.809872.473687-.393125 1.153688.286874.760562.760561-.225639.271879-.30538.277519-.697189.04931zm4.343365-.08265c-.324624-.324622-.331727-.479584-.03334-.727226.473685-.393125 1.153686.286874.76056.760561-.247642.298391-.402602.291287-.727225-.03333zm-3.29029-.322258c-.294911-.355348-.08457-.759078.395467-.759078.468442 0 .708346.438174.426103.778256-.249482.300603-.562234.293303-.82157-.01918zm4.365872-.097c-.234472-.438114.0451-.832487.504926-.712242.406305.106251.572032.529766.324174.828419-.275623.332104-.61461.284604-.8291-.116177zm-8.138287-.265634c-.160257-.417621.01638-.474645.230564-.07444.10333.193075.11755.350823.03163.350823-.08587 0-.203856-.124374-.262189-.276387zm.525717.171344c-.06558-.06558-.119235-.258006-.119235-.427616 0-.169609-.08016-.30838-.178135-.30838-.09797 0-.12636-.08377-.06308-.186166.06328-.102392.162367-.121315.220188-.04205.05782.07926.294363.144114.525649.144114.336416 0 .420519.0841.420519.42052 0 .295155-.102356.435171-.343337.469667-.188835.02703-.396992-.0045-.462571-.07009zm4.353365-.168589c-.120123-.313042.169516-.735615.504209-.735615.341141 0 .600103.579491.364326.81527-.28074.280742-.746634.238014-.868535-.07965zm-3.002561-.08397c-.35143-.196671-.377775-.539752-.06159-.802159.304415-.252642.778255-.06017.778255.316122 0 .436983-.363637.6836-.716663.486037zm4.180019-.252446c-.120126-.313041.169512-.735615.504206-.735615.341141 0 .600105.579492.364325.81527-.28074.280743-.746634.238015-.868531-.07966zm-3.093299-.09642c-.250603-.250603-.257457-.516299-.01946-.754299.25435-.254349.779634-.08363.87595.284684.143677.549412-.450764.875343-.856492.469615zm4.435881-.06247c-.324623-.324623-.331726-.479585-.03334-.727227.473688-.393125 1.153688.286874.760563.760561-.247642.298391-.402605.291288-.727226-.03333zm-16.99228-.05797c-.05238-.08475-.019-.354606.07418-.599678.284423-.748087.206359-1.732399-.167004-2.105762-.470389-.470389-.419778-.672832.168208-.672832.426127 0 .504623-.06541.504623-.420519 0-.333705.08477-.420519.410593-.420519.225826 0 .460651-.081.521836-.179996.06118-.099.273808-.245587.472499-.325754.277125-.111814.163436-.148241-.488195-.15642-.467197-.0058-.923079.06297-1.01307.152959-.08999.08999-1.33515.184608-2.767018.210259l-2.603398.04664-.376037.745594-.376037.745593-4.5860929-.03813c-4.3613993-.036258-4.6001397-.054689-4.8727196-.376206-.2303562-.271709-.2502665-.417869-.101425-.74454.1373218-.30139.1340356-.468109-.012715-.64493-.1517411-.182837-.1517411-.339796 0-.672831.1530318-.3358679.1515124-.4902703-.0067007-.6809057-.1450003-.1747145-.1547215-.3397599-.0333639-.5665132.0941845-.1759855.1284556-.4835981.0761585-.683584l-.0950866-.3636098h4.773079c4.6794762 0 4.7774412.00699 4.9955582.3562465.159573.2555178.171014.4077127.04046.5382652-.261436.2614357-.224309.45115.08829.45115.171167 0 .234796-.092541.173487-.2523116-.08438-.2198874.413655-.2523116 3.875511-.2523116h3.972332l.718463-.5887269.718464-.5887278h4.573351c4.290211 0 4.565747.018228 4.450558.2943639-.667519 1.6002186-.587166 1.6951336 1.490039 1.760075l1.540396.048158-.559355.3052407c-.307646.1678823-1.118826.4025303-1.80262.5214383-1.220286.212202-1.250129.208892-1.614615-.179084-.299627-.3189387-.544366-.3952828-1.26717-.3952828h-.895823v-.6827589c0-.9084416-.329176-.697634-.359322.2301139-.0126.3877262-.05486.5411464-.09391.3409346-.06181-.3168849-.201955-.3713371-1.082302-.4205192-.970829-.054235-1.008392-.041355-.938663.3219691.0714.3720088.04405.3784683-1.602214.3784683-1.846473 0-2.743264-.3052905-2.592323-.8824914.04652-.1778888-.01676-.2949632-.159429-.2949632-.130111 0-.236564.073317-.236564.1629284 0 .089611-.121036.116483-.268968.059716-.232825-.089343-.239836-.056569-.05217.2439318.345702.5535573-.02928.8665584-.904948.7553754-.389568-.049461-.821845-.1743257-.960616-.2774744-.214454-.1594018-.220323-.1465667-.03912.08554.117375.1503464.592515.3234014 1.057166.3850404.564871.07493.805091.174861.726406.302177-.0805.130251-.01607.150431.204395.06401.177076-.06942 1.305972-.168368 2.508658-.219892l2.186701-.09368.714884.776277c.617445.670471.714882.878208.714882 1.524137 0 1.012445-.352407 2.472299-.621761 2.57566-.345841.132711-.255419.362523.105503.268141.178629-.04671.364996-.189737.414151-.317833.125462-.326943.606731-.101631.606731.284048 0 .304684-.199096.318419-4.615787.318419-2.613868 0-4.657092-.06683-4.711022-.154092zm7.927724-.897209c.444814-.833819.401771-2.407147-.08744-3.195948l-.391203-.630779h-2.349543c-2.660228 0-3.187429.155385-3.492055 1.029236-.24002.688524-.239275 1.917316.0015 2.388029.445792.871704.724908.948393 3.466305.952397l2.560784.0038zm-1.690843-.672836c-.05579-.208158-.102461-.858639-.103724-1.445514-.002-.92252-.04761-1.078895-.33682-1.154526-.477836-.124957-.24218-.385649.348615-.385649.38072 0 .537708.102181.662903.43147.223981.589112.206644 1.982325-.03116 2.504252-.240862.528637-.407401.544053-.539811.04996zm-17.3019602-2.5486c.2239394.239727.7115763.144289.7115763-.139266 0-.105819-.087507-.09818-.2299937.02007-.1746331.144932-.2793411.13142-.4350006-.05614-.2740772-.330242-.053593-.649372.3717933-.538132.2607056.06818.2950689.04275.1450259-.107289-.1500437-.150044-.2800544-.144542-.5486861.02322-.2525061.157693-.4035143.168392-.5340662.03784-.2758373-.275837-.5878087-.218852-.7813146.142716-.1317577.246192-.1082642.390263.097132.59566.2363495.236348.3170689.240689.6325019.03401.301011-.19723.3966611-.199356.571032-.01269zm-1.1167893-.158365c-.2329534-.280691.045449-.689827.3816229-.560825.1481084.05684.269288.211153.269288.342929 0 .325243-.4396706.472425-.6509109.217896zm4.6542565.192258c.111017-.111017.201849-.360806.201849-.555086 0-.194279-.09083-.444068-.201849-.555086-.156994-.156993.687159-.201849 3.798692-.201849 3.125676 0 3.985216-.04598 3.930456-.2102596-.104885-.3146542-13.1024023-.3057291-13.2073348.00907-.058311.1749356.404674.2089826 2.2873516.1682086 2.1419097-.04639 2.3381642-.02654 2.1196376.214435-.664909.733195.3730656 1.8287 1.0711976 1.130567zm-.871644-.222842c-.2059067-.205907-.2295139-.349959-.09771-.596237.210876-.394025.548571-.417293.846489-.05832.156345.188384.171174.345563.05063.536664-.2466.390942-.490407.426899-.79941.117896zm-1.3521641-.121984c-.00812-.230213.08548-.378468.2389557-.378468.1546707 0 .246913.148606.2383611.384009-.00983.270602.038729.331329.1644266.20563.2249937-.224994-.065358-.733999-.4633775-.81233-.3131996-.06164-.5288743.347707-.3832054.727315.1387484.361571.2202791.311358.2048395-.126156zm-3.6010159-1.2455766c.3772136-.3413734.3898362-.6246071.0432815-.9711618-.2402966-.2402969.0884731-.2643266 3.6164677-.2643266 2.4750578 0 3.8807948-.06093 3.8807948-.1682076 0-.1075264-1.475292-.1682077-4.0894587-.1682077h-4.0894582l-.3680486.497812c-.4414238.5970583-.4460578.6510568-.0896663 1.0448651.3454288.3816952.6962774.3910502 1.0960878.0292248zm-.8362049-.0916752c-.4141727-.4141732-.0064095-1.0836922.5337659-.876407.3508059.1346166.3562886.8423372.007563.9761561-.338763.1299957-.3054448.1361347-.5413289-.0997491zm16.2083139-.7179443c.424798-.3213016.240785-.3244854-.369143-.00638-.264989.1382016-.363803.2517421-.219585.2523119.144218.0005609.409145-.1100966.588728-.2459264zm-14.2234615-.0894533c0-.092514-.1135405-.1682076-.2523116-.1682076-.138772 0-.2523119.075693-.2523119.1682076 0 .092515.1135399.1682077.2523119.1682077.1387711 0 .2523116-.075693.2523116-.1682077zm16.6203305-.8536543c-.03315-.099453-.132182-.180824-.220071-.180824-.08789 0-.18692.081371-.220071.180824-.03315.099452.06588.1808234.220071.1808234.154192 0 .253224-.081371.220071-.1808234zm7.277792-.033644c-.02081-.2011267-.25152-.1621752-.3238.054668-.03701.1110171.02355.1715717.134566.1345664.111017-.037007.196172-.1221612.189234-.1892344zm2.007657 7.1972307c-.276471-.333126-.09497-.759077.323439-.759077.428716 0 .745341.544236.474308.81527-.26375.263749-.548889.243663-.797747-.05619zm4.342489-.167117c-.104567-.229507-.323035-.459469-.485476-.511026-.388836-.123412-.549184-.569466-.30882-.859086.157476-.189746.10236-.213036-.309306-.130703-.607522.121504-.890219-.336226-.468262-.758183.373921-.373921.717722-.09888 1.153774.923028.199717.468044.49733 1.054.661363 1.302123.16403.248124.219179.451134.122547.451134-.09663 0-.261246-.187779-.36582-.417287zm-7.344676-.196344c.348893-.38994.412005-.706885.241246-1.211536-.15757-.465681.06294-.753817.460229-.601364.327553.125693.368473.589136.07769.879917-.111512.11151-.206128.4105-.21026.66442-.0059.361787-.0984.474483-.42757.520875-.397924.05608-.405371.04279-.141338-.252312zm4.069662.02276c-.113802-.296559.216097-.754794.543398-.754794.341141 0 .600105.579493.364329.815271-.274928.274924-.792247.240458-.907727-.06048zm-5.405229-.175602c-.453419-.317587-.48446-.931565-.06623-1.310054.583106-.527704 1.374469-.1539 1.374469.649238 0 .338579-.532412.922665-.841038.922665-.05134 0-.261584-.117832-.467196-.261849zm2.443531.07339c-.352947-.197519-.379949-.540272-.06327-.803095.265211-.220106.71202-.0965.838009.231819.136116.35471-.423873.767632-.774743.571276zm4.35145-.06789c-.325326-.325326-.337732-.451979-.07045-.719256.292281-.292281.602612-.248076.796067.113395.128877.240813.09528.381698-.142298.596705-.286603.259371-.332382.26009-.583315.0092zm-3.17389-.261747c-.53708-.312821-.223405-1.033697.381016-.875637.399302.104419.562127.52997.316174.826326-.225639.271879-.305381.277519-.69719.04931zm1.053078-.404904c-.276472-.333125-.09497-.759077.323439-.759077.428715 0 .745341.544236.474308.81527-.26375.263748-.548889.243663-.797747-.05619zm1.106667-.359878c-.120126-.313042.169515-.735615.504206-.735615.341144 0 .600105.579492.364328.81527-.280743.280742-.746634.238015-.868534-.07966zm-3.052738-.137036c-.256428-.190416-.287828-.30561-.146289-.536664.380902-.621792 1.025219-.363218.848585.34055-.12604.502182-.245282.53548-.702296.196114zm1.136895-.295805c-.250603-.250603-.257457-.516299-.01945-.754299.254347-.25435.779632-.08363.875948.284684.143674.549412-.450763.875343-.856491.469615zm-4.115924-.533499c.0894-.46767-.318841-1.344252-.93052-1.998028l-.432787-.462572h.956613.956612v1.327666c0 1.055488-.05455 1.348597-.266069 1.429766-.372116.142795-.368593.146477-.283849-.296832zm1.096594.287532c-.115643-.04666-.21026-.267768-.21026-.491344 0-.291937.09314-.406502.330499-.406502.42448 0 .738487.545809.469027.81527-.20717.207169-.261591.214796-.589266.08258zm4.055765-.140911c-.149381-.389277.06074-.756935.432595-.756935.428718 0 .745341.544236.474308.81527-.274116.274114-.792118.240795-.906903-.05834zm-3.018266-.161206c-.257955-.191586-.285229-.300583-.136075-.543825.258169-.42103.810255-.391355.872876.04692.07453.521671-.33321.796658-.736801.496905zm4.234088-.19653c-.120123-.313041.169516-.735615.504209-.735615.341141 0 .600103.579492.364326.81527-.28074.280743-.746634.238015-.868535-.07966zm-3.000782-.07656c-.353098-.205293-.37984-.546919-.06337-.809564.36677-.304393.80406-.03837.745303.453393-.05888.492749-.263339.59954-.681932.356171zm4.344912-.08079c-.329495-.329492-.333767-.480717-.02093-.74035.329129-.273153.554044-.104924.554044.414404 0 .544415-.195263.663799-.533115.325946zm-3.259972-.275483c-.250603-.250604-.257456-.516299-.01946-.7543.25435-.254349.779632-.08363.875948.284684.143677.549412-.450763.875343-.856492.469616zm-3.27804-.251104c-.339436-.574683-.280614-1.9297697.05986-1.37888.07566.122416.07043.303463-.01162.402326-.0997.12013.0012.177792.303985.173849.372815-.0048.453169.06867.453169.414619 0 .302521-.101744.435018-.362596.472191-.199427.02842-.398682-.0094-.44279-.0841zm4.331084-.240879c-.192516-.606567.61531-.906798.918018-.341184.114384.213731.105734.371164-.02772.504624-.309221.30922-.766949.225191-.890296-.16344zm-2.979129.000768c-.364242-.20384-.377628-.542199-.03277-.828401.217902-.180845.317011-.161484.594662.116169.31926.319257.320628.344541.03277.605044-.217921.197215-.381202.226647-.594665.107188zm4.178345-.253382c-.120126-.313048.169515-.735621.504206-.735621.341141 0 .600105.579491.364329.81527-.280744.280742-.746634.238014-.868535-.07966zm-3.014801-.0067c-.243827-.243832-.08737-.39249.41308-.39249.44779 0 .494348.0372.315819.252311-.220932.26621-.541261.327811-.728899.140174zm4.188975-.338245c-.125416-.326836.290711-.81985.554428-.656863.124327.07684.121053.235012-.01087.524526-.220717.484421-.392419.526224-.543568.132337zm-3.039556-.05425c-.05718-.09251-.04272-.169241.03212-.170504.07485-.0013.325317-.05223.556603-.113274.37757-.09964.396943-.08223.189665.170505-.258453.315132-.621025.367895-.778392.113273zm-3.390214-.427778c-.134894-.351529-.064-.387103.57697-.289511.445908.06789.514118.128213.357872.316478-.258558.311543-.811059.295604-.934842-.02697zm4.483566.09136c0-.09251.107349-.168207.238552-.168207.131206 0 .37721-.05202.546678-.115598.271237-.10176.280483-.08162.07726.168207-.249971.307304-.862494.389399-.862494.115598zm1.387715-.12007c-.297377-.107732-.260715-.393271.0841-.6550235.379208-.2878603.490241-.2874254.60144.00236.109226.2846395-.389855.7597885-.685542.6526685zm-13.650974-.51073c.12392-.1618999.236948-.3161204.251171-.3427132.0552-.1032039.910372.3625982.910372.4958692 0 .07766-.312042.141208-.693426.141208-.634101 0-.674151-.02518-.468117-.294364zm14.722263.03802c-.332627-.3326267-.341259-.4862695-.04131-.7352034.527842-.438071 1.127554.2709023.618696.7314144-.281136.254425-.326451.254722-.577385.0038zm.936588-.710848c.06757-.3545404.801166-.4960766.989742-.190956.201674.3263163.02515.4853196-.538816.4853196-.392122 0-.494316-.066713-.450926-.2943636zm1.314226-.042055c0-.311618.08276-.4049302.378467-.4267152.343819-.025328.375654.1099325.09251.3930741-.245613.2456187-.470977.2617158-.470977.0336441zm-6.833846-.247502c-.05224-.1361259.04476-.5335168.215538-.8830905l.310516-.6355885h1.682077 1.682079l.05388.5624095c.07163.7476195-.348546 1.2037724-1.10882 1.2037724-.526457 0-.571028-.036282-.464972-.3784678.284389-.9175646.229606-1.1519406-.0983-.4205193l-.358185.7989871h-.909421c-.64535 0-.936997-.071868-1.004395-.2475029zm1.703509-.088913c.0635-.1027433-.194498-.1682073-.662904-.1682073-.421775 0-.766864.075693-.766864.1682073 0 .092515.298307.1682077.662904.1682077.364598 0 .709686-.075693.766864-.1682077zm1.900747-.2018491c.111018-.1110171.201849-.2569978.201849-.3244009 0-.1975009-.510964-.6516608-.726898-.6460895-.109034.0028-.06578.082268.09612.1765662.32713.1905356.389128.580937.118789.7480157-.09657.059684-.285801.017032-.42052-.094773-.134721-.1118069-.244946-.1309384-.244946-.0425126 0 .4090357.631235.5275673.975606.1831971zm-1.586059-.6040357c.04523-.07318-.19631-.1066637-.536749-.074408-1.040163.098552-1.162829.1674675-.334543.1879499.433983.010732.826066-.040363.871292-.1135419zm2.88126.8058848c-.05718-.092514.0519-.1682073.242384-.1682073.190488 0 .346343.075693.346343.1682073 0 .092515-.109073.1682077-.242384.1682077s-.289166-.075693-.346343-.1682077zm-23.199194-.9281724c-.218045-.3327774-.230639-.441539-.05876-.5074931.120315-.046168 2.217074-.063729 4.659465-.039022l4.440711.044922-.667709.4625722-.667709.4625712h-3.714237-3.714237zm22.574585-.081074-.07406-.5046235h1.451094c1.4971 0 1.854795.1362436 1.854795.7064729 0 .2700561-.170613.3027741-1.578881.3027741h-1.578882zm.708711.084104c0-.1387721-.07569-.2523119-.168207-.2523119-.09251 0-.168207.1135398-.168207.2523119 0 .1387711.07569.2523116.168207.2523116.09251 0 .168207-.1135405.168207-.2523116zm.640591.071488c-.03315-.099453-.132181-.180824-.220071-.180824s-.186922.081371-.22007.180824c-.03316.099452.06588.1808234.22007.1808234.154193 0 .253225-.081371.220071-.1808234zm-33.6823769-.7124518c.0544325-.1418433.0210432-.4034954-.0741967-.5814494-.1258001-.2350602-.110937-.4123913.0543436-.6483637.1913138-.2731381.1910779-.3746281-.0014622-.6379698-.1676494-.2292731-.1822067-.4005716-.0543436-.6394824.0960536-.179478.131239-.439432.0781898-.5776763-.1919317-.5001655.2111655-.8998139.9075782-.8998139.3613422 0 .7027155-.073992.7586072-.1644268.062112-.1005025.8997548-.1302802 2.1545769-.076594 2.6271983.1124011 3.1463057.1950532 3.1463057.5009545 0 .1345791.01892.3014599.04205.3708452.02313.069386-1.4718187.1664275-3.3221036.2156476l-3.3641561.089492 3.4149581.036663 3.4149576.036664.175913.5046234c.140962.4043651.272901.5046235.664081.5046235.571934 0 .554511.062125.235857-.8410393-.292165-.8280814-.323973-1.2415979-.0841-1.0933509.09251.057179.168207.2403819.168207.4071209 0 .2326723.09778.2844716.42052.2227756.231286-.04421.420519-.052137.420519-.017616s.07041.3082758.156466.6083365c.137534.4795513.117568.5455648-.165003.5455648-.204184 0-.360692-.1562798-.428979-.428353-.05913-.2355941-.13995-.3959127-.179599-.3562638-.03965.039652-.02235.2702544.03844.5124571.08734.3480078.212537.4403679.596913.4403679.562801 0 .566476-.01684.240245-1.1008209-.135379-.4498291-.212854-.8511609-.172167-.8918474.08699-.086995.173825.1271587.466938 1.1516291.180852.6320975.291796.7657127.672698.8101596.539825.06299.588671-.2239911.217288-1.2766007-.23078-.6541045-.22625-.6793518.134268-.7482699.205209-.039226.653308-.038615.995775.0014.502474.05866.622668.1425037.622668.434348 0 .1989103-.151386.4561974-.336415.5717499-.440157.274882-.426197.5212882.03929.6934826.359352.1329332.361182.1431579.04205.2349196-.183509.052767-.787813.1895235-1.342899.3039081-1.282776.2643347-1.429765.3858765-1.429765 1.1822305v.6522347h-4.4437493c-2.4440626 0-4.5643392.046276-4.7117261.1028325-.1920538.0736968-.2399382.0297648-.1690125-.1550652zm2.7818434-2.3525011c-.2158924-.2158924-.4348261-.0490351-.2749921.2095838.061915.100179.1896284.134518.2838118.07631.1148861-.071004.1119834-.16509-.00882-.2858938zm6.8790595 1.6857039v-.5508211l1.445027-.3168215c1.137777-.2494564 1.475282-.3916366 1.587313-.6686853.09785-.2419826.145613.028965.152946.867642l.01066 1.219507h-1.597973-1.597975zm3.532364-.5088878c0-.5999416.08758-1.1472845.201849-1.2615586.156994-.1569943.156994-.246705 0-.4036987-.111017-.1110171-.201849-.4137911-.201849-.6728316 0-.358843.0801-.4709816.336415-.4709816.316913 0 .336416.1121386.336416 1.9343896 0 1.8222514-.01951 1.9343898-.336416 1.9343898-.300816 0-.336415-.1121384-.336415-1.0597089zm1.009246-.8746809c0-1.7752261.02762-1.9537372.294364-1.9023677.259017.049881.294364.2783131.294364 1.9023677 0 1.6240548-.03535 1.8524856-.294364 1.902368-.266741.051368-.294364-.1271421-.294364-1.902368zm.91341 1.7121574c-.0469-.1222288-.06345-.9737804-.03677-1.8923381.03923-1.3508414.09674-1.6701048.300818-1.6701048.206506 0 .260945.3435362.299872 1.8923375.04083 1.6246973.01035 1.8923378-.215539 1.8923378-.144704 0-.301475-.1000048-.348378-.2222324zm.936876-1.6280534c0-1.7381474.02039-1.850286.336416-1.850286.316027 0 .336415.1121386.336415 1.850286s-.02039 1.8502858-.336415 1.8502858c-.316027 0-.336416-.1121384-.336416-1.8502858zm1.009247.8413576c0-.7085534.08186-1.11545.26029-1.2938842.234912-.2349139.234912-.2883286 0-.5479056-.33037-.365053-.336749-.8498538-.01118-.8498538.350434 0 .446458.538967.38925 2.184841-.04181 1.2027819-.09604 1.4367739-.343993 1.4841521-.254513.048628-.294364-.083684-.294364-.9773495zm.953178.8967898c-.143597-.1435961-.1479-2.9156018-.0045-2.9156018.05919 0 .208166.1324634.331065.2943631.311158.4098973.319551 2.7333771.0099 2.7333771-.123354 0-.274741-.050459-.336416-.1121384zm.897108-1.14942c0-1.1494198.0299-1.2615584.336415-1.2615584.306512 0 .336416.1121386.336416 1.2615584 0 1.14942-.02991 1.2615584-.336416 1.2615584-.306511 0-.336415-.1121384-.336415-1.2615584zm1.009247.012335c0-1.1708554.02781-1.273892.343784-1.273892.319134 0 .340241.087317.294364 1.2177233-.04069 1.0025624-.101433 1.227647-.343785 1.2738918-.259378.049493-.294363-.095233-.294363-1.2177231zm.953178 1.1370858c-.06167-.061674-.11214-.6293766-.11214-1.2615581 0-1.0372811.03282-1.1494197.336416-1.1494197.306512 0 .336416.1121386.336416 1.2615584 0 .9391603-.05731 1.2615584-.224277 1.2615584-.123353 0-.274741-.050465-.336415-.112139zm.897107-1.1494194c0-1.1494198.0299-1.2615584.336416-1.2615584.306511 0 .336416.1121386.336416 1.2615584 0 1.14942-.02991 1.2615584-.336416 1.2615584-.306512 0-.336416-.1121384-.336416-1.2615584zm1.009247.012335c0-1.1708547.02781-1.2738913.343785-1.2738913.319134 0 .340241.087317.294363 1.2177226-.04069 1.0025631-.101432 1.2276477-.343784 1.2738925-.259378.049493-.294364-.095233-.294364-1.2177238zm.953178 1.1370864c-.228638-.2286377-.120349-2.3629725.13045-2.571117.133423-.1107317.272697-.4416973.309496-.7354793.0368-.2937814.07902.3552504.09383 1.4422933.02109 1.5483558-.02166 1.9764415-.197357 1.9764415-.123354 0-.274741-.050459-.336416-.1121385zm.897108-1.8222507c0-1.8222515.01951-1.9343901.336416-1.9343901.316913 0 .336415.1121386.336415 1.9343901 0 1.8222508-.0195 1.9343896-.336415 1.9343896-.316914 0-.336416-.1121388-.336416-1.9343896zm1.009247 0c0-1.775226.02762-1.9537378.294363-1.9023682.259017.049881.294364.2783131.294364 1.9023682 0 1.6240546-.03535 1.8524856-.294364 1.9023674-.266742.051368-.294363-.1271414-.294363-1.9023674zm.91341 1.7121569c-.04691-.1222279-.06345-.9729031-.03677-1.8903896.04165-1.4322353.09014-1.6761233.342869-1.7244902.266635-.051025.294364.1270449.294364 1.8903888 0 1.6360141-.04111 1.9467237-.25759 1.9467237-.141677 0-.295967-.1000048-.34287-.2222327zm.973419-1.6680914c.04137-1.6443425.08586-1.8976631.341924-1.9467236.266638-.051089.294363.1269547.294363 1.890324 0 1.8450399-.01786 1.9467237-.341924 1.9467237-.326299 0-.339751-.086388-.294363-1.8903241zm.972703-.044064c0-1.7752259.02763-1.9537376.294365-1.9023674.259014.049881.294362.278313.294362 1.9023674 0 1.6240546-.03535 1.8524856-.294362 1.9023677-.266743.051368-.294365-.1271417-.294365-1.9023677zm.913409 1.7121568c-.0469-.1222279-.06345-.972903-.03677-1.8903887.04165-1.432236.09014-1.6761234.342871-1.7244909.266634-.051025.294362.1270449.294362 1.8903896 0 1.636014-.04111 1.9467227-.257591 1.9467227-.141675 0-.295965-.1000047-.342869-.2222327zm.936878-1.72449c0-1.7633695.02772-1.9414114.294362-1.8903242.256059.04906.300553.3023805.341924 1.9467229.04539 1.8039364.03194 1.890324-.294363 1.890324-.324065 0-.341923-.1016831-.341923-1.9467227zm1.009247.2769783c0-.9319259.06642-1.6944111.147612-1.6944111.395407 0 .536932.5410555.490232 1.8741747-.04129 1.1784844-.09608 1.4111293-.343482 1.4584027-.264588.050555-.294362-.1151521-.294362-1.6381663zm.953177 1.557606c-.160352-.1603516-.139234-2.7473934.02244-2.7473934.375031 0 .538267.494803.538267 1.6316155 0 .9111256-.05786 1.2279166-.224278 1.2279166-.123353 0-.274741-.050465-.336414-.1121387zm.897107-.9812114c0-.6013433.03166-1.093351.07035-1.093351.465345 0 .602485.2721121.602485 1.195451 0 .8791114-.03806.9912501-.336415.9912501-.301911 0-.336417-.1121387-.336417-1.0933501zm1.009247.2408573v-.8524929l.504625.3593237c.522468.372031.706816.9080699.252309.7336592-.163796-.062856-.252309.00432-.252309.1914836 0 .1871635.08851.2543383.252309.1914836.138773-.05325.252313-.023503.252313.066107 0 .089611-.227079.1629289-.504622.1629289-.494316 0-.504625-.017419-.504625-.8524931zm-26.749203-1.5974725c-.233425-.6139551-.20639-.745985.152753-.745985.292322 0 .515905.4143151.521945.9671948.0042.3848283-.508149.2168454-.674698-.2212098zm2.523117 0c-.225481-.5930594-.206532-.745985.09243-.745985.230603 0 .584565.6177436.584565 1.0201976 0 .3429371-.522876.13115-.676995-.2742126zm2.022657-.073153c0-.092514.08016-.1682082.178135-.1682082.09797 0 .131354.075694.07418.1682082-.05718.092514-.137338.1682075-.178135.1682075-.0408 0-.07418-.075694-.07418-.1682075zm4.96213 0c-.05718-.092514-.0238-.1682082.07418-.1682082.09797 0 .178136.075694.178136.1682082 0 .092514-.03338.1682075-.07418.1682075-.04079 0-.120958-.075694-.178136-.1682075zm-4.246879-.7569354c.0018-.3700576.03631-.5016386.07655-.2924025.04024.2092355.03871.5120095-.0034.672831-.0421.1608215-.07502-.010369-.07315-.3804285zm5.718697.2618046c-.208156-.1736514-.378467-.3574183-.378467-.4083714 0-.050955 1.324636-.094572 2.943636-.096931 2.289594-.00331 2.943637.043797 2.943637.2121185 0 .5298905-.406197.6201003-2.767019.6145102-2.060063-.0049-2.411885-.046111-2.741787-.3213263z" fill="#273839" stroke-width=".168208"/></svg>