<svg height="128" viewBox="0 0 123.45325 33.866667" width="466.595" xmlns="http://www.w3.org/2000/svg"><path d="m115.78201 29.288781c.22334-3.119903.41805-12.232501.27838-13.028705l-.14942-.851705 1.37457.06609 1.37457.0661.0696 1.231469c.0384.677308-.0883 2.091412-.28146 3.142452-.43795 2.383411-1.01716 7.768495-1.02036 9.486536l-.003 1.29065h-.87199-.872zm1.99389-.112231c.31511-4.380763.61966-7.154535 1.0369-9.44351.25476-1.397737.41219-2.921839.34981-3.386893-.10607-.790826-.0792-.839001.41608-.744334.79566.1521.91149 1.254684.35306 3.360914-.56807 2.142651-1.38389 7.643032-1.38389 9.330506 0 1.327066-.29453 2.398427-.65938 2.398427-.13466 0-.17882-.594248-.11258-1.51511zm-3.94352.956852c-.55653-.152945-1.6171-.343571-2.35683-.423613-.73973-.08004-1.59749-.188366-1.90612-.240719-.49138-.08335-7.29741-.822934-10.437418-1.134192-.617275-.06118-2.031375-.218093-3.14246-.348677-1.558687-.183192-2.786262-.162927-5.373952.08871-3.015422.293226-3.407701.290817-3.887989-.02387-.322825-.211524-1.159805-1.624531-2.115352-3.571185-.869649-1.771647-1.670489-3.276374-1.779647-3.343837-.457043-.282469-.117115-3.238619.372411-3.238619.15967 0 .816756.449375 1.460208.998609.887636.757679 1.311754.976565 1.757888.907241 2.385865-.370736 2.20223-.271337 2.470633-1.337292.137366-.545496.249747-1.40507.249747-1.910167 0-.849109.04216-.912711.55916-.843475.34646.0464.953119.540287 1.59477 1.298329.569587.672896 1.723526 1.9349 2.564312 2.804454l1.528693 1.581007 5.911086.394401c3.25109.216918 6.52579.452032 7.27709.522475l1.36602.128076 2.16924-2.620034c1.93411-2.336026 2.16924-2.716112 2.16924-3.506364 0-.580684.10131-.88633.29379-.88633.91665 0 1.55647 1.630561.79891 2.035994-.2645.141556-.4097.449396-.39328.833781.02.465973.0514.503729.13402.160447.0594-.246907.20992-.549929.3345-.673382.15237-.150972.18135 1.061592.0886 3.703604-.0758 2.160435-.13059 4.700455-.12157 5.64449.0171 1.795074-.18575 3.353626-.43042 3.306086-.0788-.01533-.59871-.152994-1.15524-.30594zm1.12411-5.614415c0-.33233-.1286-.561152-.3154-.561152-.25047 0-.28991-.288816-.19152-1.40288.0681-.771584.2107-1.43676.31681-1.478167.32858-.128228-.0369-.485866-.49651-.485866-.36985 0-.43597.161117-.43762 1.066189-.00085.586404-.0657 1.596478-.1435 2.244609l-.14155 1.178419h.70465c.60198 0 .70464-.08175.70464-.561152zm-9.42735-.698279c0-.583906-.31909-.649956-4.22576-.874729l-2.317833-.133359.07319.516492c.0633.44634.271397.551163 1.532233.771758.80244.140395 2.2418.249262 3.19856.241926 1.6542-.01268 1.73957-.0383 1.73957-.522088zm-3.88898.142183c-.71923-.09559-1.42628-.299802-1.57123-.453803-.210065-.223192.21365-.248814 2.0884-.126284 1.29356.08455 2.39622.19801 2.45036.252144.35396.353955-1.35274.542563-2.96753.327943zm-23.139841 3.866894c-.09259-.09259-.235684-.172918-.317984-.178507-.497371-.03378-2.506481-.660734-2.506481-.782167 0-.08047-.555541-.270633-1.234535-.422586-.678993-.151951-1.234534-.376001-1.234534-.497886 0-.121887-.08784-.167322-.1952-.100971-.16223.100262-2.8761-.678004-3.142272-.901121-.04553-.03816.105976-.529291.33669-1.091384.272183-.663123.525327-.981829.72091-.907623.165787.0629.547649.176164.848585.251694.432654.108589.517376.237563.404854.61631-.128926.433957-.113745.443364.161489.10007.209542-.261358.497288-.339905.927489-.253179.505893.101983.599091.215949.493416.603373-.120893.44321-.107438.449325.186658.08484.438545-.543513.663753-.491271.483826.112231-.14896.499626-.14652.500227.227659.05612.352733-.41866.369083-.420302.242537-.02436-.117467.367533-.08749.384546.223244.126664.211879-.175844.4209-.211843.510177-.08787.08318.115514.277497.220128.431814.232473.154316.01234.432086.0376.617267.05612.18518.01852.344666.210432.354412.426476.01059.23466.06331.279844.130935.11223.137494-.340746.749187-.375746.749187-.04286 0 .13074.08941.182453.198678.114918.160435-.09915 1.514884.235843 1.775624.439169.10993.08573-.930153 2.126196-1.083776 2.126196-.07828 0-.218079-.07576-.310669-.168345zm-6.871635-4.433102c0-.123454-.09791-.07295-.217586.11223-.119673.185181-.217586.437699-.217586.561153 0 .123453.09791.07295.217586-.112231.119673-.18518.217586-.437698.217586-.561152zm-.737637-.154316c-.07165-.17906-.124841-.125872-.13561.135611-.0097.236619.04331.369192.117891.294605.07459-.07459.08256-.268184.01771-.430216zm9.009876 3.666269c.213005-.47577.682028-1.118558 1.042264-1.428422.560068-.481746.654983-.72488.654983-1.677799 0-1.565005-.424509-2.468847-1.28794-2.742257-4.416047-1.398349-8.323541-2.499887-8.554071-2.411424-.802503.307949-2.389361 4.186796-1.71284 4.186796.280331 0 .07555.683373-.383831 1.280855l-.380768.49524-3.417715-1.07291c-4.084064-1.282095-4.682422-1.728969-5.074128-3.789521l-.138677-.729497h1.004463 1.004462v.868015c0 .770836.105492.937827.942259 1.491574 1.222052.808716 2.511613.946856 3.546958.379957.962937-.527253 2.034281-2.186458 2.138945-3.312613.04271-.459509.167379-.925199.277046-1.034866.116221-.116221 2.767131.606807 6.355025 1.733316 5.437613 1.707273 6.227628 2.0146 6.7729 2.634756.681858.775513.78512 1.663685.370638 3.188073-.380598 1.399781-1.933097 2.805761-3.098161 2.805761-.438464 0-.439928-.0205-.06181-.865034zm22.225617-5.510561-6.432838-.473046-1.872212-1.999751c-1.91191-2.042134-3.08936-3.476686-3.100523-3.777531-.0034-.09259 5.091075-.168347 11.321133-.168347 10.96932 0 11.33472.01373 11.55973.434167.1278.238791.23236.602674.23236.808631 0 .205955-.9721 1.576195-2.16023 3.044977-1.61375 1.994959-2.28093 2.662093-2.63741 2.63723-.26245-.01831-3.37196-.246154-6.91001-.50633zm-20.93453-.952882c-.484538-.168777-.921297-.347192-.970578-.396476-.04929-.04928.129765-.90263.397888-1.896323.26813-.993694.446345-1.93021.396029-2.081148-.05031-.150938-.328009.605719-.617094 1.681458-.289094 1.075741-.610475 2.008336-.71419 2.072434-.260665.1611-2.661446-.61636-2.661446-.861871 0-.109399.257155-1.213378.571455-2.453285.314301-1.239907.534805-2.364326.490011-2.498709-.04479-.134383-.365072.825734-.711724 2.133592-.346655 1.307859-.698433 2.488191-.781723 2.622962-.101677.164514-1.480998-.186295-4.197338-1.067528-2.225242-.721911-4.630626-1.385624-5.345301-1.474916l-1.299412-.162351.155617-2.283109c.257476-3.777481.423859-4.7557809.798413-4.6944898.182323.029837 1.004129.2318498 1.826238.4489216 1.430127.3776151 1.500186.4281825 1.620624 1.1697542.06924.426291.08345 1.537373.03158 2.469069-.0831 1.492841-.07131 1.560726.09928.571688.106473-.617266.202434-1.703096.213248-2.412954.01082-.709858.07595-1.29065.14473-1.29065s.574982.113291 1.124879.251756c1.208176.304223 1.329408.627208 1.155465 3.078441-.07316 1.030928-.05053 1.450359.05648 1.04679.09819-.370361.190486-1.355183.205094-2.188494.01461-.83331.102312-1.507013.194902-1.497114.09259.0099.673383.186986 1.29065.393531l1.122304.375537-.02456 1.907191c-.01464 1.136178.04704 1.725709.152569 1.458271.09742-.246908.184233-1.012881.192908-1.702162.0087-.689282.07337-1.310839.143778-1.38124.18686-.186861 3.472872 1.052129 3.68022 1.387627.111278.180048.227511.201303.31619.05783.114884-.185886 2.253768.427782 2.567439.736626.0386.03805-.08622 1.266481-.277472 2.729857-.191262 1.463378-.374379 2.974713-.406956 3.358523l-.05921.697838zm-2.514697-3.267722c-.186639-.301988-.496844.343698-.507627 1.056612-.0056.368552.05366.337461.330873-.173668.185715-.342424.265252-.739749.176754-.882944zm-4.226881-1.412457c.203073-.493814.264112-.796836.135646-.673382-.128465.123453-.399721.62849-.602793 1.122304-.203073.493814-.264112.796836-.135646.673383.128466-.123454.399721-.628491.602793-1.122305zm1.827676.519065c-.07165-.179059-.124841-.125872-.135611.135613-.0097.236619.04331.369191.117891.294604.07459-.07459.08256-.268183.0177-.430217zm-4.657642-4.783821c.000449-.123453-.147484-.0284-.328737.211246-.181254.23964-.325973.593166-.321597.785614.0086.380918.648895-.600462.650334-.99686zm-6.04535 8.566546c0-.07113.252518-.501434.561152-.956232.358857-.528805.561151-1.139284.561151-1.693424 0-.769062.06163-.866521.547906-.866521.753055 0 .880585.313178.459287 1.127876-.338924.65541-2.129496 2.663595-2.129496 2.388301zm19.119298-1.709922c-.632076-.499626-1.267707-.908412-1.412521-.908412-.190922 0-.222057-.443716-.113272-1.614196.08254-.887809.176288-1.640462.208389-1.672565.03207-.0321 1.233842.265004 2.670525.660238 2.529399.695839 2.615455.739941 2.716232 1.391989.05727.37036-.06117 1.178419-.263135 1.795687l-.367211 1.122304-1.14489.06668c-1.045421.06088-1.244751-.01225-2.294117-.841729zm-57.604762.213893c-.03286-.06173-.12235-.37495-.19888-.696051-.137585-.577274-.158045-.582609-1.824447-.475666-1.113306.07145-1.793562.01831-2.004281-.156576-.217789-.180748-.365129-.190066-.464444-.02937-.210356.340364-3.261419.308563-3.261419-.03399 0-.209496-.05986-.209496-.269353 0-.340397.340398-1.526334.353924-1.526334.01741 0-.176347-.08435-.181949-.281077-.01867-.181474.15061-2.388745.220006-6.228789.195831l-5.9477112-.037455-.0717285-.505036c-.082426-.580358-1.5461792-.514732 13.6516077-.612061 4.629505-.02965 8.594044-.0682 8.810088-.08567.337814-.02732.392807-.276879.392807-1.782561 0-1.062448.105899-1.856694.269353-2.020148.148145-.148144.7596-.269353 1.358789-.269353h1.089437l-.03749 2.300724c-.02146 1.317238.0711 2.540598.216533 2.861876.227868.503368.240572.4722.123384-.302671-.07186-.475103-.04844-.81298.05202-.750837.100464.06215.147044-.735974.103513-1.773593l-.07914-1.886577h.584183c.579556 0 .584186.01393.584186 1.758276 0 .967052.07576 1.832865.168347 1.924028.09259.09116.295371.486774.450627.879137l.282285.713389-.118299-.673383c-.32541-1.852328-.386308-4.380237-.113442-4.709021.398348-.479981 2.375766-.469402 2.56115.0137.240979.627982.145857 3.13693-.129365 3.412152-.146089.146087-.19491.336317-.108491.422735.395786.395785.667766-.454195.619684-1.936618l-.05124-1.579935h.912905.912901v1.571225 1.571227h-.697397c-.545767 0-.667566.07774-.560193.357544.07546.196648.198223.600678.272808.897843.07458.297164.218613.5403.320065.5403.101451 0 .09051-.327608-.02433-.728017-.114834-.400409-.20859-.728683-.208342-.729497.000224-.000808.345898-.02606.768111-.05609.686875-.04886.78313.01583.914663.614692.08085.368114.251059.73361.37824.812212.210049.129816.144834-.262022-.194263-1.167213-.05362-.143128.230523-.255935.687983-.273131.690289-.02595.795977.04649.92503.634066.203543.926734.559981 1.066274.413199.161762-.112136-.691012-.07529-.744701.543527-.791853.573385-.04369.712358.06427 1.020085.792357l.356265.842938-.114786-.785614c-.107954-.738867-.07545-.788291.546264-.830632.566514-.03858.711323.07376 1.012629.785612l.351579.830634-.126378-.844467c-.106756-.713357-.07014-.822888.235807-.705484.204627.07852.362186.02604.362186-.120645 0-.506021.765075.159095 1.059255.920862l.289535.749734-.116987-.807464c-.111863-.772108-.0872-.80831.563363-.826807.57062-.01622.732284.104955 1.002364.751348.407237.974658.603851 1.000142.329252.04267-.114834-.400408-.208791-.738815-.208791-.752015s.606045-.04218 1.346765-.0644l1.346765-.0404-.000025 1.297462-.000022 1.297463h-11.58119c-6.369645 0-11.608054-.0505-11.640905-.11223zm1.775609-1.884981c-.08343-.444703-.252259-.808549-.375181-.808549-.122921 0-.161752.160894-.08629.357544.07546.196648.199404.605382.275432.908296.209287.833869.359155.465491.186039-.457291zm6.060442 0c-.08343-.444703-.252259-.808549-.37518-.808549s-.161752.160894-.08629.357544c.07546.196648.199403.605382.275431.908296.209286.833869.359155.465491.186039-.457291zm-5.488784-.584089c0-.123453-.101007-.22446-.224461-.22446-.123453 0-.224461.101007-.224461.22446 0 .123454.101008.224461.224461.224461.123454 0 .224461-.101007.224461-.224461zm4.040296 0c0-.123453-.101007-.22446-.224461-.22446-.123453 0-.224461.101007-.224461.22446 0 .123454.101008.224461.224461.224461.123454 0 .224461-.101007.224461-.224461zm-3.412196-1.927559c.03681-.257709-.07663-.587726-.252125-.733371-.648085-.53786-1.554619.368673-1.016757 1.016755.380517.458497 1.188671.278009 1.268882-.283384zm-1.193658.124743c-.08718-.141046-.05288-.362065.07622-.491154.301652-.301653 1.004942-.03854.882216.330056-.124935.375228-.760107.481991-.95843.161098zm5.883154.08885c.149975-.390824-.142227-1.012718-.537785-1.144571-.131168-.04372-.401522.08354-.600787.282805-.274767.274767-.306269.466993-.130385.795633.282915.528631 1.075627.569943 1.268957.06613zm-.898523-.0022c-.317729-.317731-.137938-.752882.311062-.752882.31379 0 .441742.121893.392807.374205-.08012.413117-.463287.619256-.703869.378674zm26.481705 4.035616c-.0823-.0823-.149641-.587339-.149641-1.122304v-.972664h2.020147c1.111081 0 2.020148.05703 2.020148.126721 0 .0697-.303022.381699-.673383.693337s-.673382.759649-.673382.995582c0 .368696-.168202.428969-1.197123.428969-.658421 0-1.264465-.06734-1.346766-.149641zm-8.903614-2.500688-.785613-.155405v-1.75967c0-2.639385-.04616-2.617316 5.474213-2.617316 4.893853 0 5.436579-.131334 5.3861-1.303377-.0202-.4691108-.05076-.5039724-.136384-.1556185-.241673.9831915-.372788 1.0100735-4.926577 1.0100735-5.824833 0-6.134044.157663-6.134044 3.127696v1.585982h-6.182929-6.182929l.06636-1.51511.06637-1.515111 4.713678-.05629c4.486236-.05357 4.732631-.07914 5.106484-.529903.451102-.543899.511851-1.712706.132315-2.5456954l-.260477-.571765h-4.902111-4.902107v-.7947806-.7947814l12.06477.078261 12.064771.07826 1.795687.5759497 1.795686.5759498-.01803.9822999c-.03589 1.954729-.360179 5.736662-.513135 5.984149-.180494.292035-12.418629.573999-13.722104.316154zm-1.840073-1.782745c.04134-.717974-.02444-1.17842-.168345-1.17842-.13029 0-.236191.452889-.236191 1.010074v1.010073h-1.346766-1.346764v-1.010073c0-.860433-.06652-1.010074-.448922-1.010074-.382414 0-.448922.149641-.448922 1.010074s-.06651 1.010073-.448922 1.010073c-.382413 0-.448921-.14964-.448921-1.010073s-.06652-1.010074-.448921-1.010074c-.382415 0-.448923.149641-.448923 1.010074s-.06651 1.010073-.448921 1.010073c-.382414 0-.448922-.14964-.448922-1.010073s-.06651-1.010074-.448922-1.010074c-.382413 0-.448921.149641-.448921 1.010074v1.010073h-1.458995c-.840627 0-1.458996.09689-1.458996.228599 0 .150329 1.78681.207968 5.218715.168344l5.218714-.06025zm14.29765.515616c0-.376006-.320995-.484573-2.46907-.835096-2.721758-.444135-3.703604-.376874-3.703604.253715 0 .71772.54309.89008 3.043548.96593 3.237048.0982 3.129126.111458 3.129126-.384549zm-6.330212.184368c.07795-.07795.04258-.327028-.07861-.553489-.371564-.694274.633796-1.180504 2.040775-.986995l1.143227.157234-.07104-.864844-.07104-.864844-3.314304-.06214c-3.575042-.06702-4.336517.09665-4.129669.887628.112894.431709.09979.434087-.31645.0574-.358515-.324453-.533-.347961-1.000762-.134833-.716228.326333-.905951.81361-.588261 1.510864.184004.403845.426498.546839.927351.546839.373007 0 .678195.101007.678195.22446 0 .245021 4.539748.323571 4.780601.08271zm-4.332195-.350079c.000224-.08531.109164-.222246.241955-.304316s.208547-.567817.168345-1.079437l-.07309-.930217h3.363839c3.025196 0 3.371455.03954 3.439486.392806.06517.338374-.108434.392806-1.252787.392806-1.411713 0-2.265573.516985-1.999416 1.210581.104167.271457-.227012.342081-1.881209.401167-1.104199.03944-2.007404.0019-2.00712-.08339zm-1.714639-.744406c-.07806-.203412.0055-.51723.185614-.697374.449125-.449126 1.122778-.158553 1.036371.447028-.08513.596652-1.015918.787341-1.221985.250346zm.817312-.33503c0-.123453-.04454-.224461-.09898-.224461-.05443 0-.16141.101008-.237709.224461-.0763.123454-.03175.224461.09898.224461.130739 0 .237709-.101007.237709-.224461zm-13.018729.448922c0-.493814-.101008-.897844-.224461-.897844-.123454 0-.224461.40403-.224461.897844 0 .493813.101007.897844.224461.897844.123453 0 .224461-.404031.224461-.897844zm1.721195.319287c.07473-.194754-.02945-.519421-.231506-.721483-.340205-.340205-.394566-.340205-.73477 0-.458908.458907-.248271 1.075579.367384 1.075579.254655 0 .524158-.159344.598892-.354096zm-.823352-.319287c0-.123453.101008-.224461.22446-.224461.123454 0 .224462.101008.224462.224461s-.101008.224461-.224462.224461c-.123452 0-.22446-.101008-.22446-.224461zm8.230559.319287c.07473-.194754-.02945-.519421-.231506-.721483-.340204-.340205-.394564-.340205-.734768 0-.458909.458907-.248272 1.075579.367383 1.075579.254656 0 .524157-.159344.598891-.354096zm-1.047812-.319287c0-.123453.151511-.224461.336692-.224461.18518 0 .336691.101008.336691.224461s-.151511.224461-.336691.224461c-.185181 0-.336692-.101008-.336692-.224461zm17.620176-.187051c0-.405973-.439337-.331858-.526473.08882-.04848.23405.03566.33666.224462.273727.166105-.05537.302011-.218512.302011-.362541zm.336692-2.61871c0-.18518-.151511-.336691-.336692-.336691-.185179 0-.336691.151511-.336691.336691s.151512.336692.336691.336692c.185181 0 .336692-.151512.336692-.336692zm-9.427356-.673382c0-.18518-.15151-.336692-.336691-.336692s-.336691.151512-.336691.336692c0 .185179.15151.336691.336691.336691s.336691-.151512.336691-.336691zm4.591861.12774c.166-.268591-.256248-.5347172-.555227-.349938-.251027.155144-.08623.558889.228123.558889.108881 0 .256078-.09403.327104-.208951zm-7.11237-.282057c-.138732-.4162008-.621943-.4852311-.621943-.08885 0 .195469.159929.355396.355396.355396.195469 0 .315415-.119945.266547-.266546zm1.1856-.07014c-.01759-.3331644-.519766-.2719575-.636267.07755-.06293.188798.03968.272941.273725.224461.20592-.04265.369063-.17856.362542-.302013zm-9.888133-2.2578763c0-.370377-.354747-.4329525-.561153-.098984-.183049.2961797.08534.7164951.352202.5515671.114922-.071025.208951-.2746892.208951-.4525831zm5.211233-.1401339c-.342868-.3428674-.595862-.089871-.405697.4056948.112284.292603.209628.3215973.409313.1219113.199687-.1996861.198825-.3251639-.0036-.5276061zm10.949948.1401339c0-.370377-.354747-.4329525-.561153-.098984-.183049.2961797.08534.7164951.352202.5515671.114922-.071025.208951-.2746892.208951-.4525831zm-21.323781.1387249c0-.3031049-.409178-.5132257-.677043-.3476758-.125466.077539-.170012.235015-.09898.3499384.168496.2726335.776025.2708621.776025-.00229zm15.885281-.05533c-.138733-.4162-.621942-.48523-.621942-.088848 0 .1954671.159927.3553958.355394.3553958.19547 0 .315415-.1199465.266548-.2665478zm-52.0982974 7.7485724c-.238844-.238844-.1728305-3.176446.0748194-3.329502.1425483-.088102.2244611.521411.2244611 1.670208 0 1.814108-.022074 1.936499-.2992805 1.659294zm.7482024-1.506332c0-1.948252.2056254-2.218564 1.6107531-2.117463l.9705473.06983.065197 1.851802.065196 1.851802h-1.3558432-1.3558434zm1.975256.264315c.4027044-.402704.3265746-.806532-.205756-1.091427-.624552-.334249-1.2125263.191477-.9918308.886829.1654617.521322.7764756.62571 1.1975868.204598zm-.9200123-.09699c-.3534607-.35346-.143664-.785234.3476368-.715459.2777704.03945.5050373.221855.5050373.405345 0 .356612-.5911701.571618-.8526741.310114zm2.0872085-.19481c0-1.646046.012471-1.683456.5611518-1.683456.5486827 0 .5611527.03741.5611527 1.683456s-.012471 1.683457-.5611527 1.683457c-.5486819 0-.5611518-.03741-.5611518-1.683457zm1.5712256.02749c0-1.948253.2056255-2.218565 1.6107532-2.117465l.970547.06984.06519 1.851801.06519 1.851803h-1.35583-1.3558434zm2.1993262-.04713c.03682-.257709-.07663-.587726-.252127-.73337-.648082-.537861-1.5546156.368671-1.0167549 1.016754.3805179.458497 1.1886709.278009 1.2688819-.283384zm-1.1936589.124742c-.087168-.141044-.052867-.362064.076221-.491153.3016529-.301653 1.0049419-.03855.8822159.330056-.124936.375228-.7601078.481991-.958432.161097zm2.1367849-.1051c0-1.646046.01247-1.683456.561152-1.683456.548683 0 .561152.03741.561152 1.683456s-.01247 1.683457-.561152 1.683457-.561152-.03741-.561152-1.683457zm1.73066 1.543609c-.271108-.271108-.179268-3.117447.109919-3.406634.148144-.148144.752264-.269353 1.342489-.269353 1.260218 0 1.373309.211935 1.262631 2.366192l-.06871 1.337412-1.243447.06591c-.683896.03625-1.315192-.0059-1.402881-.09352zm2.015711-1.349658c.149974-.390824-.142229-1.012718-.537786-1.144571-.131168-.04372-.401521.08354-.600786.282804-.274768.274768-.30627.466994-.130387.795635.282914.528631 1.075628.569943 1.268959.06613zm-.898524-.0022c-.317728-.317727-.137938-.752879.311063-.752879.313788 0 .44174.121894.392807.374207-.08012.413115-.463288.619255-.70387.378672zm1.912113-.13561c.06051-1.493287.107552-1.633251.570985-1.69907.48558-.06897.505038-.0063.505038 1.627343 0 1.670501-.0096 1.699067-.570987 1.699067-.565233 0-.570321-.0164-.505036-1.62734zm1.796256-.212984.06537-1.86328h1.234536 1.234534v1.795687 1.795687l-1.299913.06759-1.299913.0676zm1.949685.409779c.524596-.6321-.382812-1.539509-1.014913-1.014913-.324339.269178-.412276.919838-.158599 1.173513.253674.253677.904334.165739 1.173512-.1586zm-.944376-.06118c-.317728-.317703-.137938-.752855.311063-.752855.313787 0 .44174.121894.392807.374207-.08012.413115-.463288.619254-.70387.378672zm2.090291-.191726c0-1.533816.03991-1.683457.448922-1.683457.409018 0 .448922.149641.448922 1.683457s-.03991 1.683456-.448922 1.683456c-.409018 0-.448922-.14964-.448922-1.683456zm1.571227.03868c0-1.960445.203888-2.22989 1.610752-2.128665l.970547.06984v1.795686 1.795688l-1.290649.06731-1.29065.06731zm1.975255.253114c.402705-.402704.326574-.806532-.205756-1.091427-.624552-.33425-1.212526.191478-.99183.886829.165461.521322.776475.625709 1.197586.204598zm-.920012-.09699c-.35346-.353461-.143664-.785234.347637-.715459.277769.03945.505036.221855.505036.405345 0 .356611-.591169.571618-.852673.310114zm2.087208-.194809c0-1.646047.01248-1.683457.561153-1.683457.54868 0 .561152.03741.561152 1.683457 0 1.646045-.01248 1.683455-.561152 1.683455-.548681 0-.561153-.03741-.561153-1.683455zm8.994964-2.224724c-.454199-.547275-.06784-.805529 1.205085-.805529 1.074139 0 1.205267.05307 1.295343.524285.09373.490287.02497.52733-1.060283.571237-.803929.03252-1.246429-.05658-1.440145-.289993zm3.048234-.07603c-.0573-.09259 1.956825-.168345 4.475837-.168345 2.519009 0 4.580079.07576 4.58015.168345.000075.09259-2.014051.168347-4.475834.168347s-4.522853-.07576-4.580153-.168347zm5.015827-1.470218v-1.2793999h.785612c.781457 0 .785613.00534.785613 1.0100739 0 .90435-.05404 1.010074-.516259 1.010074-.283944 0-.637468.121209-.785613.269354-.209497.209496-.269353-.01497-.269353-1.010075zm2.020148-.01741v-1.261989l.729497.00348c1.05274.00492 1.335172.2628359 1.251186 1.142405-.06304.660221-.162766.77223-.746149.838052-.37036.04179-.799642.180414-.953959.30806-.21871.180911-.280575-.04618-.280575-1.029934zm-41.1511563.608518c-.0822991-.082299-.1496407-.932825-.1496407-1.8900515v-1.7404109l1.4028805-.1383176c.7715839-.076072 1.705903-.051597 2.076263.054397.6704709.1918829.6733825.1999261.6733825 1.8600232 0 1.5176678-.040289 1.6673088-.448922 1.6673088-.4015769 0-.4558768-.171624-.5148698-1.6273428-.0896406-2.2119565-.495204-2.0740842-.495204.1683458v1.795687h-1.1971244c-.6584184 0-1.2644627-.06733-1.3467651-.149639zm1.9548742-1.4734886c.1882536-.2989375.1589794-.47433-.1268818-.7601913-.6724188-.6724188-1.6756277.2063848-1.0694273.9368111.3490119.4205338.8685613.3438288 1.1963091-.1766198zm-1.1341934-.0829775c-.1762688-.4593499.3764886-.81789.7644901-.4958778.2190854.181825.2280092.3171479.0361569.5483126-.3378984.4071429-.6316765.3879036-.8006495-.0524366zm3.8375153 1.4032651c-.063915-.166566-.0859986-.9978727-.0490689-1.8473497l.0671389-1.5445026 1.1223042-.1886422c.617268-.1037538 1.555712-.1242018 2.085433-.045438l.963128.1432025-.06528 1.7244431c-.05879 1.5530409-.109906 1.7244439-.514206 1.7244439-.401577 0-.455877-.171624-.51487-1.6273419-.08964-2.211956-.495204-2.0740837-.495204.1683456v1.7956873h-1.241579c-.8348941 0-1.2796461-.0992-1.3577924-.302846zm2.0103562-1.320284c.188253-.2989377.15898-.4743302-.126882-.7601916-.672419-.6724188-1.6756277.2063849-1.0694274.9368105.3490124.4205351.8685614.3438301 1.1963094-.1766189zm-.9822105.056585c-.2992812-.1892501-.2992812-.2503164 0-.5495969.4138995-.4139003 1.0250335-.1102949.8253655.4100326-.157443.4102891-.346646.4422829-.8253655.1395643zm3.8412965 1.260535c-.170288-.205185-.246464-.8971374-.204524-1.8578248l.06683-1.5308619 1.122305-.1886421c.617267-.1037539 1.551585-.1248202 2.076262-.046813l.953959.1418273v1.7512869c0 1.6740556-.02228 1.7501646-.505038 1.7258186-.466814-.02354-.512814-.152875-.607807-1.7089254l-.10277-1.6834565-.12169 1.7956873-.121691 1.7956876-1.142242.06659c-.792222.04618-1.225392-.0336-1.413595-.260372zm1.95162-1.5265231c.052604-.4548131-.050789-.6360729-.431818-.7570059-.667164-.2117498-1.183687.4356996-.847997 1.0629428.346131.6467522 1.193042.4443012 1.279815-.3059369zm-1.003858.1339906c-.187078-.4875209.287858-.9459947.627806-.6060449.287318.2873172.109324.9578225-.254265.9578225-.131203 0-.299295-.1582993-.373541-.3517776zm3.900177 1.5589865c-.08785-.08785-.159723-.941471-.159723-1.8969379v-1.7372135l1.117954-.1537586c.614874-.084564 1.523941-.085167 2.020147-.00136l.902194.1524156v1.7281912c0 1.5672782-.0418 1.7313402-.448922 1.7620072-.411715.03102-.448922-.104552-.448922-1.6356896 0-2.2117091-.411798-2.1534907-.495595.070066l-.06555 1.7395716-1.130926.0662c-.62201.03641-1.202802-.0057-1.290651-.09352zm1.848516-1.3050913c.201864-.2432294.204892-.4393665.01234-.7991545-.286045-.5344795-.845697-.5228214-1.190514.024797-.519267.8246681.55205 1.5287908 1.178175.7743556zm-1.035014-.2538952c-.18708-.4875209.287856-.9459947.627805-.6060449.287318.2873172.109325.9578225-.254265.9578225-.131202 0-.299296-.1582993-.37354-.3517776zm3.890093 1.5489035c-.0823-.0823-.14964-.928239-.14964-1.8798602v-1.7302188l.70144-.1402884c.385791-.077158.991836-.1402884 1.346765-.1402884h.645325v2.0201478 2.020148h-1.197124c-.65842 0-1.264464-.06733-1.346766-.14964zm1.954876-1.4734892c.188252-.2989378.158978-.4743303-.126884-.7601916-.672418-.6724188-1.675627.2063848-1.069428.9368106.349014.4205342.868562.3438292 1.196312-.176619zm-.926098.1152597c-.380877-.1368289-.355281-.6600714.03971-.8116423.457512-.1755647.893186.3965082.524215.6883361-.155839.1232563-.409604.1787439-.56392.1233062zm3.684901 1.3581995c-.08231-.0823-.149641-.890361-.149641-1.795687 0-2.1306978-.408989-2.1461456-.495203-.018706-.059 1.455718-.113295 1.62734-.514871 1.62734-.40394 0-.455436-.171313-.513942-1.7097315l-.06502-1.7097335.710345-.142069c.39069-.078143 1.354267-.14207 2.141282-.14207h1.430939v2.0201479 2.0201481h-1.197124c-.65842 0-1.264465-.06733-1.346765-.149641zm1.954875-1.4734891c.188252-.2989376.158977-.4743301-.126884-.7601915-.67242-.6724188-1.675627.2063848-1.069428.9368104.349012.4205352.868563.3438302 1.196312-.1766189zm-.957497-.030546c-.194047-.2338121-.171595-.3758905.09426-.596532.429015-.356049.907748.019368.703487.551663-.166258.4332632-.461622.449876-.797747.044867zm3.836011 1.3843221c-.330821-.330821-.363893-3.2370971-.03912-3.437818.126628-.07826.783176-.1993595 1.458995-.2691104l1.228764-.1268227v1.6965016c0 .9330753-.06131 1.8562735-.136245 2.0515505-.166324.433434-2.098742.499348-2.512393.0857zm1.93219-1.5631812c.0526-.4548131-.05079-.6360728-.431819-.7570059-.667163-.2117496-1.183686.4356996-.847996 1.0629423.346133.6467528 1.193041.4443008 1.279815-.3059364zm-1.003859.1339901c-.187077-.4875203.287859-.9459941.627807-.6060443.287318.2873171.109323.9578229-.254265.9578229-.131202 0-.299295-.1583002-.373542-.3517786zm4.189377.9578221c0-1.143488.290954-1.279426 2.738422-1.279426h2.199716v1.010074 1.010075h-2.46907-2.469068zm-34.791432-1.167195c0-.972664.094772-1.6834565.2244608-1.6834565.1296886 0 .2244611.7107925.2244611 1.6834565s-.094772 1.683457-.2244611 1.683457c-.1296885 0-.2244608-.710793-.2244608-1.683457zm27.960679 1.511708c-.07014-.07014-.127534-.8682541-.127534-1.7735793 0-1.6134052.01132-1.6460458.570593-1.6460458.567184 0 .570202.010274.505037 1.7188101-.05371 1.408192-.133776 1.728709-.443059 1.77358-.207628.03013-.434895-.0026-.505037-.07276zm4.586144-1.6239387v-1.5712258h.897843.897844v1.5712258 1.5712267h-.897844-.897843zm-30.9329115-2.637415c.069489-.3610314.5474466-.3955536 5.9085545-.4267646 3.208126-.018681 5.977871.046287 6.154991.1443554.17712.098073.49791.06848.712866-.065764.283765-.1772139.546915-.1729611.960598.015525.355956.1621844.619863.1785484.703261.043606.176253-.2851842 2.489259-.2782506 3.026124.00907.281119.1504501.46666.1504501.559644 0 .182886-.295915 2.489122-.2903947 3.045352.00729.348394.186455.434165.1585713.434165-.1411462 0-.3346764.239132-.3565503 2.300365-.2104159 1.265201.089698 2.488133.263579 2.717628.3864006.28432.1521637.495403.1451732.662519-.021938.322848-.3228494 2.299065-.3151099 2.909143.011393.359797.1925574.500915.1925574.5651 0 .114258-.3427688 1.005779-.3272889 1.37807.023932.23793.2244606.317988.2244606.400289 0 .132732-.3619952 2.307982-.3741776 3.091216-.017315.44198.2013785.639689.2013785.841068 0 .342458-.3424583 2.474746-.3412826 2.817581.00152.203451.2034493.38871.1985128.79944-.021302.436787-.2337611.627823-.2308775 1.043936.015763.401484.2379664.530827.2424771.610924.021302.07771-.2145891 1.464093-.2805759 5.894869-.2805759 5.075635 0 5.810139.043978 5.929509.3550497.07493.1952772.136244.3972919.136244.4489211 0 .051631-12.077788.093877-26.839529.093877-25.440617 0-26.835589-.020471-26.7639275-.3928067zm43.7395935-1.6447721c.270546-.3799481.706705-.7779162.969242-.884373.721269-.2924698 6.76102-.9309103 7.367224-.7787627.449418.1127965 1.751858 1.7552094 1.751858 2.2091401 0 .079644-2.38055.1448093-5.290112.1448093h-5.290117zm1.895504-.091725c0-.4951963-.697826-.7417973-1.063721-.3759031-.377265.3772639-.0052.9735309.557681.893609.331117-.047016.50604-.2259732.50604-.5177059zm-.866537.1778746c-.252782-.2527846-.153955-.5176396.193154-.5176396.185181 0 .336691.095046.336691.2112135 0 .2830404-.350516.4857551-.529845.3064261zm7.443884-.8818778c.084057-.5890959-.584667-.8987314-1.013926-.4694735-.170251.1702523-.239215.4767481-.156041.693498.209848.5468511 1.083857.3794976 1.169967-.2240245zm-.853596-.0846826c0-.1234527.151511-.2244605.336692-.2244605.185179 0 .336691.1010078.336691.2244605 0 .1234536-.151512.2244614-.336691.2244614-.185181 0-.336692-.1010078-.336692-.2244614z" fill="#273839" stroke-width=".224461"/></svg>