<svg height="128" viewBox="0 0 59.458486 33.866667" width="224.72501" xmlns="http://www.w3.org/2000/svg"><path d="m24.679964 30.451071c-1.146843-.410312-2.188575-1.140066-4.264215-2.987169-1.120052-.996728-2.36008-2.029851-2.755618-2.295829-.395538-.265979-.617071-.517628-.492294-.559219.176529-.05884.178885-.165277.01062-.47969-.118938-.222236-.295912-.404066-.393277-.404066-.09736 0-.177028-.240355-.177028-.534123 0-.981752-.734134-2.555283-1.37776-2.953067-.720049-.445013-2.710085-.502804-3.659146-.106261-.758897.317087-1.018032.765259-1.018032 1.760673 0 .595475.116165.876274.536334 1.296443.507996.507996.618096.536335 2.083722.536335h1.547386l-.01954.555174c-.01741.494712-.09447.567203-.707599.665642l-.688061.110467v1.256701c0 1.146464-.04128 1.283746-.470581 1.565034-.669655.438776-1.831236.363895-3.1089778-.200418-1.2843974-.567254-2.0953171-1.285329-2.9642887-2.6249-1.3828367-2.131724-1.218763-6.071313.3217188-7.724827.3597492-.386145.4604258-.391744 7.0441187-.391744 4.254847 0 6.720313-.0666 6.792552-.183483.06237-.100916.02596-.183483-.08091-.183483-.109475 0-.194354-.380518-.194408-.871544l-.000096-.871544h1.330348c1.208025 0 1.330348-.03375 1.330348-.366966 0-.328603-.140376-.372628-1.342778-.421128-.947567-.03822-1.320929-.119227-1.268541-.275225.05512-.16414 1.251313-.223798 4.645472-.231689 3.269626-.0076 4.689865-.07532 4.987864-.237839.229144-.124966.497488-.177237.59632-.116157.09883.06108.17969.849289.17969 1.751574v1.640518l-4.999912.0129c-2.962639.0076-4.850388.07715-4.632945.170587.532943.229013 12.018135.229013 12.018135 0 0-.100916-.454119-.183483-1.009156-.183483h-1.009157v-.706863-.706862l1.215373-.02071 1.215373-.02071-.08754.911056c-.04815.501081-.02383.911056.05404.911056s.313453.278089.523515.617976c.356104.576188.381931.886382.381931 4.587075 0 3.263761-.04526 3.969098-.25472 3.969098-.140095 0-.903843.670307-1.697218 1.489574-1.594817 1.646866-2.333342 2.180622-3.775722 2.728842-1.123648.427075-3.339903.489154-4.365341.122278zm4.603438-.937989c.910347-.369907 3.654733-2.320665 3.654733-2.59785 0-.210381-.357141.0097-1.030129.634944-1.559801 1.449027-3.377323 2.228124-5.208293 2.232578-.878408.0022-1.120125.05301-.917415.193076.420567.2906 2.238407.05033 3.501104-.462748zm-4.984258-.174626c-.327957-.320079-2.003023-1.335852-2.003023-1.214648 0 .181036 1.630511 1.289263 1.896868 1.289263.100433 0 .148202-.03358.106155-.07461zm3.509109-.760267c.195002-.234963.182954-.337538-.06927-.589766-.28479-.284789-.325879-.284789-.610669 0-.252228.252228-.264276.354803-.06927.589766.129833.156439.298406.284433.374609.284433.0762 0 .244775-.127994.374607-.284433zm-7.273121-2.295782c-.696564-.715579-1.431614-1.386516-1.633446-1.490969-.201832-.104454.330511.518594 1.182984 1.384551.852472.865957 1.587523 1.536893 1.633445 1.49097.04592-.04592-.486419-.668972-1.182983-1.384552zm-8.972766.928868c-.302747-.07704-.756867-.14857-1.009156-.158964-.360062-.01483-.39952.01935-.183483.158964.151374.09783.605493.169359 1.009157.158964.706992-.0182.713727-.02404.183482-.158964zm-1.9279845-.321095c-.0007628-.075687-.3310468-.325855-.7339318-.555928-.4028856-.230073-.7325191-.349511-.7325191-.265419 0 .08409.309628.332364.6880616.551713.786641.455956.7802804.453752.7783893.269634zm16.1479165-.126783c0-.0445-.08257-.131943-.183483-.194313-.100915-.06237-.183483-.02596-.183483.08091 0 .106871.08257.194312.183483.194312.100916 0 .183483-.03641.183483-.08091zm-13.129267-.45298c.1525-.246749-.08504-.750489-.353897-.750489-.32283 0-.702093.493155-.558252.725895.145658.235679.771266.252549.912149.0246zm16.197435-1.687606c.960996-.465211 1.641584-1.313727 2.00115-2.494916.466507-1.532488-.07769-3.499138-1.079722-3.901998-.719553-.28929.76221-.211377 1.606635.08448l.733932.257143-.443872-.36561c-.41716-.343607-.697295-.363935-4.654593-.337774-3.811845.0252-4.297804.06403-5.130005.409874-1.074355.446482-1.604486 1.175006-1.605497 2.206329-.000971 1.01182.227216 1.312525 1.608139 2.119028.679623.396921 1.50389 1.055427 1.831703 1.463349.435881.542394.805557.791471 1.375864.927019 1.087273.258418 2.81264.08988 3.756266-.366923zm-22.128001-1.205047c-.1599148-.274999-.1957192-.282925-.2003017-.04434-.00596.309.1870043.587219.3170441.457179.042892-.04289-.00965-.228665-.1167424-.412836zm25.848704-1.344013c0-.100915-.03641-.183483-.08091-.183483s-.131943.08257-.194312.183483c-.06237.100916-.02596.183483.08091.183483.106871 0 .194312-.08257.194312-.183483zm-21.151323-2.427489c1.07928-.503868 1.051881-.485713.924813-.61278-.0575-.0575-.42217.06316-.810383.268127-1.503632.793885-1.5819503 1.029772-.11443.344653zm4.189948-.238849c-.195891-.148165-.443593-.266764-.550449-.263554-.106856.0032-.03401.12706.161879.275224.195891.148164.443593.266763.550449.263554.106857-.0032.03401-.127061-.161879-.275224zm-2.212598-.452873c.06237-.100916-.01045-.183483-.161825-.183483-.151374 0-.326255.08257-.388624.183483-.06237.100916.01045.183483.161826.183483.151373 0 .326254-.08257.388623-.183483zm1.19264.102571c0-.0445-.08257-.131943-.183484-.194313-.100915-.06237-.183482-.02596-.183482.08091 0 .106871.08257.194311.183482.194311.100916 0 .183484-.03641.183484-.08091zm-5.6803308-.570487c.1950021-.234963.1829536-.337538-.069279-.589767-.2847889-.284789-.3258776-.284789-.6106665 0-.2522288.252229-.2642773.354804-.069279.589767.1298318.156438.2984061.284433.3746084.284433.076202 0 .2447766-.127995.3746083-.284433zm24.9954678.05508c.130141-.373088-.0645-.688061-.425191-.688061-.404519 0-.611934.286113-.471923.650977.125153.326143.786745.353492.897114.03709zm-17.306558-.217626c.293932-.354166-.0592-1.020885-.540716-1.020885-.481518 0-.834647.666719-.540714 1.020885.120275.144923.363596.263496.540714.263496.177119 0 .420441-.118573.540716-.263496zm3.771135.08001c.06237-.100916.03083-.183483-.07008-.183483-.100916 0-.234513.08257-.296882.183483-.06237.100916-.03083.183483.07008.183483.100916 0 .234513-.08257.296882-.183483zm.64219-.366966c0-.100915-.03641-.183483-.08091-.183483s-.131942.08257-.194311.183483c-.06237.100916-.02596.183483.08091.183483.106871 0 .194311-.08257.194311-.183483zm.917415-.113141c0-.03869-.165134-.07034-.366966-.07034-.201831 0-.366965.07484-.366965.166306 0 .09147.165134.123121.366965.07034.201832-.05278.366966-.127617.366966-.166306zm2.293538-2.088655c0-.211345-.312881-.296517-1.348055-.366966-1.371449-.09333-1.610731-.01337-1.423102.475586.152808.398214 2.771157.295584 2.771157-.10862zm3.210952.01506c0-.308117-.162074-.359491-1.302436-.412836-1.325056-.06198-1.562228.02365-1.380085.498308.07597.197973.433761.266438 1.392383.266438 1.149416 0 1.290138-.03838 1.290138-.35191zm3.210953-.01506c0-.211345-.312881-.296517-1.348056-.366966-1.409218-.0959-1.571379-.04314-1.382245.449733.161067.419731 2.730301.341847 2.730301-.08277zm-4.147502-1.085186c.14085-.08919.205366-.29434.14337-.455898-.0882-.229862-.386641-.293743-1.372278-.293743-1.40106 0-1.574524.07621-1.307808.574574.146636.273991.394059.342277 1.232054.340031.576714-.0015 1.163812-.07578 1.304662-.164964zm3.230086-.290933c0-.328265-.14029-.372652-1.330251-.420876-1.198054-.04855-1.330252-.01968-1.330252.290515 0 .540425.178399.607713 1.460088.550712 1.060299-.04716 1.200415-.09622 1.200415-.420351zm9.403504 15.928282c-.40024-.104593-.419579-.530398-.03087-.679562.159626-.06126 1.919043-.111373 3.909815-.111373 2.746797 0 3.701164.05965 3.95791.24739.76981.562901.153199.670451-3.719323.648741-2.088044-.01171-3.940936-.05904-4.117538-.105196zm.412837-2.075316c0-.761115.05627-.917415.330269-.917415.514692 0 .770629.377814.770629 1.137595 0 .652385-.03541.697235-.550449.697235-.538216 0-.550449-.02039-.550449-.917415zm1.349681.63945c-.05866-.152882-.0652-.436527-.01451-.630322.14984-.572989-.357124-1.110026-1.047871-1.110026-.751792 0-1.175996-.418096-.837736-.825673.125629-.151374.494494-.275225.819703-.275225.908379 0 1.198601-.458876 1.198601-1.895148v-1.224063h1.743088 1.743089v1.167895c0 1.562709.415495 2.134799 1.550457 2.134799.982155 0 1.443904.41987.907918.825573-.191576.14501-.696327.266279-1.121668.26949-.86862.0065-1.153224.321989-1.153224 1.278154v.562511h-1.840588c-1.474888 0-1.861782-.05523-1.947254-.277965zm3.971326-.192804c0-.770152.321183-1.180578.923869-1.180578.522411 0 .543994.03276.543994.825674v.825673h-.733931c-.665554 0-.733932-.04386-.733932-.470769zm-9.541116-6.702614c0-3.910517-.01463-4.074681-.412837-4.632946-.274469-.38479-.443584-.945248-.504578-1.672198-.08035-.957676-.144768-1.105844-.518851-1.193453-.424679-.09946-.42394-.102371.130182-.512051.617267-.456364 1.12045-.524264 1.449162-.195552.166309.166308.314132.164206.637899-.0091.310072-.165946 1.664492-.211024 5.125898-.170602 3.65678.0427 4.663509.0056 4.520528-.166377-.239958-.288705-.03663-.604358.389292-.604358.406182 0 .607686.42862.331394.704912-.143251.143251-.01042.168549.473047.09009.645753-.104792.672224-.08793.672224.428132 0 .651815 1.179044 1.896074 1.796694 1.896074.402364 0 .405103.02166.405103 3.207855v3.207856l-4.724119.04897-4.724119.04897.05546.642787c.05291.613285-.01558.695395-1.492082 1.788959-1.466878 1.086432-1.601296 1.146173-2.578917 1.146173h-1.03138zm3.501672 2.4675c.993795-.780768 1.085403-.913176 1.085403-1.5688v-.716059l-1.565481 1.318279c-.861016.725056-1.523513 1.36025-1.472216 1.411546.0513.0513.611268-.357873 1.244385-.909263 1.480029-1.288979 1.609828-1.362389 1.609828-.910452 0 .221033-.412487.694988-1.055027 1.212245-.888274.715075-1.149278.835251-1.651347.760331-.327975-.04894-.596319-.01159-.596319.08297 0 .09457.295958.171947.657685.171947.504555 0 .910407-.198547 1.743089-.85274zm-1.112166-1.119702c.889733-.782096 1.61846-1.463277 1.619394-1.513735.0022-.1161-3.063058-2.822736-3.290016-2.905147-.09781-.03551-.168435 1.176178-.168435 2.889858 0 1.623059.04981 2.951017.110681 2.951017.06087 0 .838643-.639897 1.728376-1.421993zm-1.655574-1.517305c0-2.97597-.207459-2.846618 1.786319-1.113793 1.307228 1.136133 1.345403.947434-.527615 2.607992l-1.258704 1.115925zm5.951708-1.016028c.561355-.661694 1.020645-1.262522 1.020645-1.335173 0-.07265-.577971-.705634-1.28438-1.40663l-1.284381-1.274539v2.487389c0 3.268321.03945 3.307283 1.548116 1.528953zm-1.319647-1.264542.04675-2.100657.963285.947621c.529807.521191.963286 1.019839.963286 1.108107 0 .226658-1.661723 2.145586-1.858002 2.145586-.08914 0-.141038-.945296-.115324-2.100657zm4.493378 2.318129c.158393-.100609-.07568-.44231-.778341-1.136248-.602037-.594559-1.066429-.92191-1.158455-.8166-1.007184 1.152552-1.486986 1.894792-1.278835 1.978319.380455.152669 2.967433.132177 3.215631-.02547zm-1.556766-.179639c-.731638-.02965-1.327831-.112217-1.324873-.183484.003-.07126.258036-.407473.566837-.747129l.561458-.617555.760598.709297c.418328.390114.796268.729939.839866.755167.194434.112514-.16465.133925-1.403886.0837zm3.216334-2.331854c.02819-1.396541-.02359-2.614003-.115049-2.705468-.153447-.153447-2.772518 2.607451-2.785624 2.93647-.009.226859 2.468554 2.423664 2.665938 2.363807.107493-.0326.204708-1.107233.234735-2.594809zm-1.560708 1.330736-1.13189-1.146769 1.175836-1.284382 1.175834-1.28438.0072 2.431149c.004 1.337133-.0158 2.43115-.04395 2.43115-.02814 0-.560521-.516046-1.183061-1.146768zm2.868474.64219c.115994-.277518.454873-.917415.753062-1.421994l.542166-.917414.0035 1.319175.0035 1.319176-.688059.07197-.688061.07197.779802.03085.779799.03085v-1.690664c0-1.448478-.03648-1.652178-.254514-1.421993-.423311.446855-1.81002 3.112657-1.619157 3.112657.09779 0 .272713-.227059.388707-.504578zm-8.150085-.183483c-.03381-.176603-.06779-1.249978-.07551-2.385279l-.01404-2.064184h-1.338885c-1.320899 0-1.348539.0099-2.057587.736019l-.718703.736017.723257.594234c.397791.326829 1.261779 1.065606 1.919975 1.641727 1.242906 1.087923 1.666297 1.288968 1.561488.741466zm-1.376937-.928636c-.556693-.473178-1.337799-1.127468-1.735793-1.45398l-.723624-.593657.625017-.644853c.584631-.603187.699752-.644854 1.781663-.644854h1.156645v2.110055c0 1.16053-.02064 2.105005-.04587 2.098834-.02523-.0062-.501347-.398367-1.058038-.871545zm10.106439-1.069287c.571034-.94169.905547-1.70422.905547-2.064185v-.570838h-1.192635-1.192639l.0058 2.43115c.0067 2.780903-.08141 2.76872 1.473893.203873zm-1.296245-.422398v-1.845659h1.009157c.818448 0 1.009155.05764 1.009155.304969 0 .324124-1.571547 3.110232-1.852219 3.283698-.09493.05867-.166093-.688126-.166093-1.743008zm-2.935727-.69884c.555035-.667588 1.036679-1.281294 1.070317-1.363791.03364-.0825-1.019094-.149994-2.339409-.149994-1.320312 0-2.402618.06193-2.405124.137612-.0046.141137 2.408019 2.559118 2.573318 2.578959.05046.006.545861-.535197 1.100898-1.202786zm-2.158208-.15113c-.528552-.462365-.961004-.916827-.961004-1.009917s.877662-.169255 1.95036-.169255h1.950362l-.818523.952973c-.450188.524135-.895398.978597-.989356 1.009917-.09396.03132-.603287-.321353-1.131839-.783718zm5.644384-2.068149c0-.08527-.160478-.300277-.356619-.477782-.19614-.177504-.381916-.520467-.412837-.762139l-.05622-.439403-4.770557-.09652c-5.222934-.105669-5.638578-.04327-5.744319.86237-.03922.335942.07075.571609.36192.775551.359528.251823 1.159801.292966 5.69845.292966 2.904098 0 5.28018-.06977 5.28018-.155045zm-10.904132-.500251c-.356206-.356206-.361962-.523043-.02762-.800523.188318-.156289 1.614896-.206353 5.137524-.180295l4.876812.03608v.509504c0 .280227.10321.551151.229354.602051.126145.0509-2.055993.09906-4.849193.107032-4.385168.01251-5.117913-.02488-5.366878-.273845zm2.463915 10.117164c0-.286369.197184-.586619.550449-.838166l.550449-.391955v.617989c0 .686252-.270938 1.058346-.770629 1.058346-.227498 0-.330269-.138849-.330269-.446214zm5.424532-.02026c-.210773-.321679-.288517-.763075-.250457-1.421994l.05519-.955519 2.247667-.05152c2.112957-.04843 2.24767-.03038 2.24767.301204 0 .220649-.167203.394686-.446529.464793-.245589.06164-.620108.355845-.832267.653794-.430854.605082-.772769.575262-1.077699-.09399-.339261-.744592-.579236-.512361-.579236.560543 0 .990023-.01004 1.009157-.529347 1.009157-.364517 0-.624519-.145253-.834992-.466475zm6.501863-.726165c-.498514-.507946-.973964-.825674-1.235558-.825674-.418986 0-.420782-.0086-.122662-.585076.267703-.517675.293619-1.26277.224992-6.467776-.06505-4.934177-.125236-5.978122-.373265-6.474501l-.295707-.591801 1.130454.094464c3.431217.286723 3.422715.285206 3.61537.645189.176928.330587.114889.352208-1.0106.352208h-1.199094l.02933.68806c.02802.6567.03266.661535.102295.106089l.07293-.581973 1.044477.102725c.574457.0565 1.085752.139445 1.136209.184324.05049.04488.120874 1.437127.15647 3.093882.0525 2.442455.01775 3.011749-.183481 3.009471-.327356-.0037-.88474-.357483-.569304-.361346.126144-.0015.229354-.08538.229354-.186293 0-.100916-.123855-.183483-.275228-.183483-.465532 0-.320366.725852.183481.917415.63307.240692.575352.550449-.102566.550449-.327461 0-.514041.07644-.447883.183483.06234.100916.356233.183483.653021.183483h.539624l-.0129 2.064184c-.0083 1.324136-.06943 1.932619-.170589 1.697217-.126497-.294374-.160242-.230858-.170588.321096-.012.639324-.05187.688061-.563341.688061-.302752 0-.550449-.06883-.550449-.152953 0-.08413-.317593-.496962-.705747-.917416-.487079-.527599-.856606-.764461-1.192638-.764461-.480498 0-.486892-.01687-.486892-1.284381 0-.706409-.06193-1.284283-.137614-1.284163-.07569.000121-.137614.640018-.137614 1.421994v1.421774l.672883.09174c.516663.07044.85377.29789 1.452034.979702.653132.744336.863333.875605 1.299566.81158.446989-.0656.5204-.01486.5204.359662 0 .239823-.12597.679643-.279936.977379-.250589.484584-.371615.541337-1.154435.541337-.794075 0-.949026-.07594-1.684835-.825673zm0-6.330164c0-.100915-.1707-.183483-.379333-.183483-.295831 0-.353695-.08078-.262863-.366966.06685-.210512.03301-.366966-.07938-.366966-.213238 0-.271858.78024-.07352.978576.19034.19034.795095.14382.795095-.06116zm1.607616-.126068c-.175429-.04592-.505699-.04759-.733937-.0037-.228237.04389-.08471.08146.318959.0835.40366.002.590401-.03387.414978-.0798zm-1.0113-.920837c-.227059-.04373-.412835-.15634-.412835-.250237 0-.0939-.07998-.170722-.177725-.170722-.09775 0-.130201.123851-.07211.275225.06103.158996.310408.264672.590567.250237.432245-.02228.440081-.03363.07211-.104503zm-.266047-.824622c.121096-.121099.22018-.292131.22018-.380071s-.12975-.03015-.288335.128437c-.498438.49844-.963714.361547-1.0468-.307989-.07286-.587113-.07446-.585697-.10337.09174-.02725.63826.0078.688061.484389.688061.282565 0 .612834-.09908.733936-.22018zm1.477069-.467881c-.02212-.553465-.04244-.589357-.103932-.183484-.09248.610475-.472793.657274-.745538.09174-.198724-.412057-.199126-.411941-.211518.06116-.01526.582369.109958.718642.660351.718642.377288 0 .42486-.0817.400637-.688061zm1.403088 9.17415c.373252-.918501.417724-1.721426.377399-6.813041-.02406-3.039405.01657-5.526191.09038-5.526191.07379 0 .12269-.141329.108675-.314065-.04036-.49717.573237-.51325.677515-.01775.06366.302367.08082.266509.06005-.125318-.02996-.565097-.590504-.887886-.840212-.483843-.06664.107812-.20389-.255617-.305013-.80762-.175089-.955789-.165471-1.003643.201705-1.003643.706066 0 1.019512.41562 1.174435 1.557259.101102.745036.07098 1.40915-.09549 2.104993-.168807.705593-.2452 2.48562-.249736 5.818915l-.0062 4.802351-.475019.564526c-.519735.617672-.926211.755456-.718146.243432zm.859838-3.021354c-.131664-.13166-.217121-.142493-.217121-.02753 0 .24491.216982.461899.339444.339444.05215-.05214-.0028-.192503-.122323-.311921zm.07721-1.194933c-.186511-.186513-.340408.09429-.187378.341898.115603.187046.158821.187191.22097.000763.04251-.127482.02739-.281669-.03356-.342639zm.07263-1.150591c0-.100916-.08744-.183483-.194313-.183483-.106872 0-.143279.08257-.08091.183483.06234.100916.149806.183483.194313.183483.04452 0 .08091-.08257.08091-.183483zm-.14984-1.324136c-.131664-.13166-.217121-.142493-.217121-.02752 0 .24491.216982.461899.339444.339443.05215-.05214-.0028-.192503-.122323-.31192zm0-1.284381c-.131664-.13166-.217121-.142494-.217121-.02752 0 .24491.216982.461899.339444.339444.05215-.05214-.0028-.192505-.122323-.311922zm.07721-1.194933c-.186511-.186513-.340408.09429-.187378.341899.115603.187046.158821.18719.22097.000763.04251-.127481.02739-.281669-.03356-.342639zm0-1.467864c-.186511-.186513-.340408.09429-.187378.341899.115603.187046.158821.18719.22097.000763.04251-.127482.02739-.281669-.03356-.342638zm.32554-1.012979c.100756-.419999.06075-.504578-.238585-.504578-.197801 0-.410081.08162-.471732.181381-.06428.104009.0094.13477.172656.07211.215166-.08257.284749.01509.284749.399648 0 .600018.08535.549882.252912-.148561zm-.06942-2.41152c0-.481765-.501046-.784621-.801315-.484352-.13034.130342-.06345.189498.214167.189498.281337 0 .40366.111201.40366.366966 0 .201831.04126.366965.09174.366965.05049 0 .09175-.197584.09175-.439077zm-40.916711 12.998071c0-.227861.189735-.273723.948864-.229353 1.359039.07943 1.422946.514167.07558.514167-.803626 0-1.024447-.06139-1.024447-.284814zm-.273674-1.926153c.07649-.452738.03964-.954293-.09379-1.276402-.306452-.739841-.180774-.985997.323189-.633007.333425.23354.375983.35723.221944.645055-.270065.504621.08142 1.090042.654456 1.090042.613387 0 .651736.727343.03942.747566-.22706.0075-.605973.04939-.842028.09309-.408103.07555-.423.04281-.30319-.666341zm-6.3928743-5.801124c-.1952401-.195241-.1412784-2.596551.061158-2.721665.1165239-.07201.1834827.426222.1834827 1.365294 0 1.482922-.018044 1.582969-.2446441 1.356371zm.4281269-1.437284v-1.559605h1.5596064 1.559605v1.559605 1.559606h-1.559605-1.5596064zm2.0969484.720826c.436834-.436834.35704-1.126054-.170377-1.47163-.424923-.278421-.492491-.278421-.9174145 0-.5289775.346599-.5935542.939871-.1550452 1.424418.3726784.411806.8597417.430308 1.2428367.04721zm-1.1697995-.342131c-.1623213-.195586-.1664475-.361097-.0160125-.642191.390591-.729825 1.452864-.261398 1.201711.529915-.140219.44179-.8559791.509566-1.1857006.112276zm.8727515-.424566c-.03401-.176602-.183427-.321094-.332036-.321094s-.2980256.144492-.3320366.321094c-.043384.22529.055686.321096.3320366.321096.276353 0 .375423-.09581.332036-.321096zm2.420209.04587c0-1.541257.0054-1.559605.458707-1.559605.453311 0 .458708.01835.458708 1.559605 0 1.541257-.0054 1.559606-.458708 1.559606-.453311 0-.458707-.01835-.458707-1.559606zm2.018312 0c0-1.541257.0054-1.559605.458708-1.559605.453311 0 .458708.01835.458708 1.559605 0 1.541257-.0054 1.559606-.458708 1.559606-.453311 0-.458708-.01835-.458708-1.559606zm2.018314 0v-1.559601h1.467864 1.467863v1.559605 1.559606h-1.467863-1.467864zm2.049346.779803c.520131-.419085.542493-.865147.0672-1.340441-.544065-.544065-.724356-.556327-1.199131-.08155-.481221.481222-.46538 1.011157.04083 1.365718.493402.345591.717674.357158 1.091106.05628zm-1.118367-.479232c-.235007-.439117.151134-1.009135.621088-.916842.435145.08546.739273.576976.592946.958297-.157641.410808-.987149.382483-1.214034-.04146zm.86892-.346441c-.03401-.176603-.183426-.321096-.332035-.321096-.14861 0-.298026.144493-.332037.321096-.04338.225289.05569.321094.332037.321094.276353 0 .375422-.09581.332035-.321094zm1.463478.642304c.0944-1.734796.167327-1.906113.195308-.458822.01512.782096-.03443 1.422045-.110121 1.422107-.07569.000064-.114021-.433415-.08519-.963285zm-8.146639-.550563c.01656-1.050808.07878-1.330252.296187-1.330252.214378 0 .287142.294087.329133 1.330252.04885 1.205398.02105 1.330251-.296187 1.330251-.314207 0-.347947-.136364-.329133-1.330251zm1.985366 0c.04199-1.036165.114755-1.330252.329133-1.330252.21438 0 .287143.294087.329134 1.330252.0504 1.243756.029 1.330251-.329134 1.330251-.358136 0-.379537-.08649-.329133-1.330251zm2.018313 0c.03916-.966347.121526-1.330252.301082-1.330252.181935 0 .254576.351123.275224 1.330342.02462 1.167502-.01223 1.33033-.301081 1.330251-.291209-.000079-.322922-.153372-.275225-1.330341zm-10.6067912.522049c-.0544034-.141767-.0724512-.533961-.0401108-.871544l.0588-.613787h1.1926397 1.1926391l.055922.871544.055922.871544h-1.2084514c-.8685215 0-1.2362741-.07251-1.3073619-.257757zm43.0814422-.347298c-.555021-.572635-.586443-.679726-.586443-1.998682 0-1.534504.06117-1.616372 1.207644-1.616372h.627187v2.110055c0 1.911243-.03121 2.110054-.330977 2.110054-.182031 0-.594868-.272274-.917411-.605055zm.88142-.587584c.182232-.219577.182232-.330872 0-.550449-.458513-.552479-1.112084-.129765-.851061.550449.05809.151374.221945.275225.364129.275225s.361301-.123851.486932-.275225zm-17.964481-.412837c.01415-.378433-.03064-.858021-.09952-1.065749-.10326-.31142.06334-.509964.949519-1.131584.591113-.414642 1.477628-1.086813 1.970034-1.493713l.895283-.7398182 2.583378-.055173c1.576155-.033662 2.635935.016366 2.718182.1283137.07414.1009151.136066.4931095.137611.8715435l.0028.688062h-3.446084-3.44605l-1.089411 1.100898c-.599176.605493-1.005976 1.100898-.904002 1.100898.101973 0 .550058-.371553.995744-.825674s.860422-.825673.921635-.825673c.09294 0 .729712 1.179492.729712 1.351639 0 .03015-.334111.323307-.742469.651473-.720146.578723-.756486.587482-1.208561.291272-.256348-.167966-.508248-.263233-.559777-.211704-.05153.05153.07948.201839.291143.334022.539033.336631.479274.519026-.170048.519026-.523446 0-.553423-.03898-.529165-.688062zm3.903114-.686834c-.06355-.165615-.02757-.389099.07996-.496631.279557-.279556.809235-.02405.736211.35513-.08134.422356-.669283.524289-.816175.141501zm-28.2375373-.286282c-.2257378-.365251.7200692-1.053758 1.6081142-1.170637.4307822-.056699 3.6973031-.312636 7.2589341-.568753l6.475694-.465668 2.309007.832219c1.269954.457721 2.438114.832221 2.595912.832221.228772 0 .214739.05458-.06926.269389-.530609.401333-4.34458.39555-4.678745-.0071-.196095-.236279-.505679-.26862-1.719684-.17965-.814296.05967-2.925467.143461-4.69149.186188-6.6071087.159851-7.6308031.203451-8.2792795.352627-.478538.110083-.7052016.08744-.8092048-.08084zm20.6479123-.07626c0-.04735.987441-.831739 2.194312-1.743089l2.194311-1.6569977h1.210953c.687957 0 1.166018.072704 1.106913.16834-.188208.3045267-2.889771 2.2688307-3.844512 2.7953417-.686953.378834-1.191263.516731-1.898691.519172-.529808.0019-.963286-.03542-.963286-.08277zm6.90843-.146103c-.172429-.126085-.331796-.476332-.354147-.778329l-.04064-.549083 6.763506-.04815c6.126523-.04362 6.752936-.0206 6.651259.24436-.06173.160882-.112248.533462-.112248.827955 0 .401481-.08619.535443-.3445.535443-.189474 0-.447286-.123851-.572915-.275224-.125629-.151374-.373331-.275225-.550449-.275225s-.42482.123851-.550449.275225c-.191547.2308-.946744.275224-4.678816.275224s-4.487269-.04442-4.678817-.275224c-.288483-.347601-.532886-.347995-.915785-.0015-.245816.222461-.361229.230799-.616002.04451zm-29.8173787-1.742389-1.7166623-1.6033364.0018724-1.5596052.0018724-1.559606 2.9074116-1.0467713 2.9074123-1.0467712 11.6358963.0376143c8.760758.028322 11.653758.091208 11.708179.2545123.04368.1310697-.168094.2399785-.535176.2752245-.391716.037614-.607457.1560737-.607457.3335517 0 .1999841.225721.2823944.825674.3014512l.825673.026227-.733932-.1249233-.733932-.1249233.700544-.095271c.550872-.074917.738458-.024431.877999.2363085.144124.269298.107315.3315801-.195965.3315801-.501359 0-.472222.1755161.178178 1.0733682.386408.5334207.685386.7614615.99833.7614615.245699 0 .497755.082568.560125.1834828.06861.1110156-.186063.1834835-.644816.1834835-.60865 0-.746511.060229-.698889.3053409.04533.2333147.274966.3090572.973497.3210953.716797.012351.927682.085081.97674.3368492.05544.2845108-.10664.3210953-1.42253.3210953h-1.485095l-2.106277 1.5585084c-1.158452.857179-2.103836 1.497077-2.100854 1.421994.003-.07508.590265-.549352 1.305074-1.05393.714808-.504579 1.582262-1.165117 1.927672-1.4678644l.628022-.5504492-1.336776-2.0636716c-.735225-1.13502-1.398462-2.0639025-1.473858-2.0641841-.075395-.0002753-.46788.2983437-.872189.6636116-.603404.5451397-.783606.623869-1.00583.4394403-.193833-.1608677-.220801-.3179636-.094952-.5531147.193802-.3621223-.205252-.855534-.529734-.654993-.09836.06079-.230704.026616-.29409-.075946-.07501-.1213755-2.724895-.1864758-7.590379-.1864758h-7.475095l.06993.5963198.06993.5963192h5.627073c6.185655 0 6.452747.041595 6.452747 1.0049815 0 .443043-.27934.7759649-1.649569 1.9659868-.907261.7879434-1.65048 1.4739086-1.651596 1.5243656-.0011.05046.456064.06323 1.015955.02839 1.003971-.06247 1.043394-.0871 2.86385-1.7889597 1.369872-1.2806284 1.970923-1.7253045 2.33083-1.7244252.45772.00111.433787.044924-.42604.7798027-.501059.4282412-1.450583 1.2506831-2.110062 1.8276494-.913343.7990718-1.373926 1.0712508-1.93298 1.1422878-1.537579.195375-13.528538 1.038258-13.6100987.956697-.1547852-.154785.8953626-.279731 5.1698807-.61511l4.220109-.331109-5.085456-.04876-5.0854563-.04877-.648387-.8491668c-.6482989-.8490524-.85274-1.841724-.4952834-2.4048734.1881637-.2964401 2.9647491-1.4707823 3.3422465-1.4135856.2093114.0317128.2843986-.1207527.2843986-.5774787 0-.4668661-.078918-.6205688-.3186287-.6205688-.2914796 0-4.715265 1.5599493-4.8740357 1.7187199-.037781.037781.029112.2833313.1486403.545673.2933923.6439265-.068654 1.0997552-.7894718.9939622-.483237-.070924-.5150157-.034709-.5150157.5869627 0 .5603914.1485315.8040793.9632861 1.5804215 1.767088 1.683777 1.755011 1.676734 2.0798984 1.212893.436382-.623023 1.3604075-.41993 1.3604075.299004 0 .165328-.1222617.107868-.3383873-.159036-.2164937-.267359-.4478217-.375896-.64219-.30131-.3814544.146378-.3982851.837291-.023897.980958.2158468.08283.2317018.165495.069272.361207-.1158485.139589-.2624486.252834-.3257785.251657-.063329-.0012-.8876441-.723641-1.8318089-1.605476zm16.4776957-2.4654966c2.465076-2.2041781 2.564347-2.1653093-5.530223-2.1653093h-6.5670762l-1.2690375.5674323c-.8445001.3776063-1.3021138.6939181-1.367911.9455282-.0917792.3509635.2327773 1.2074684.6608044 1.7438626.1399288.1753558 1.64427.2293548 6.3896253.2293548h6.206607zm-13.7541767.8593884c-.44814-.5399761.050978-.6516304 2.6773597-.5989294 2.4148.048453 2.554206.071281 2.554206.4182184 0 .3464906-.13928.3698047-2.496271.4178413-2.0869077.042531-2.5354687.00368-2.7352947-.2371303zm5.5067907-.08897c0-.285418.122322-.3669656.550449-.3669656.428126 0 .550449.081548.550449.3669656 0 .2854186-.122323.3669662-.550449.3669662-.428127 0-.550449-.081548-.550449-.3669662zm1.467864 0c0-.3518033.122322-.3669656 2.960472-.3669656h2.960472l-.466522.3669656c-.41455.3260856-.744351.3669662-2.960472.3669662-2.371628 0-2.49395-.017996-2.49395-.3669662zm-9.9080822-1.9265714c.1822332-.219577.1822332-.3308713 0-.550449-.4585165-.5524788-1.1120852-.1297652-.8510624.550449.058086.151374.2219459.2752245.3641299.2752245s.3613039-.1238505.4869325-.2752245zm-.6116097-.0305824c-.211122-.2111214-.1336202-.4281269.1529025-.4281269.1513733 0 .2752245.1238511.2752245.2752244 0 .2865227-.2170056.3640245-.428127.1529025zm6.9417729-2.0819843c0-.3252112-.111829-.4721511-.389483-.5117668-.466352-.066539-.7221317.4449646-.410358.8206292.328979.3963954.799841.2145693.799841-.3088624zm-.64219-.1045191c0-.3240177.394994-.26759.508401.072629.03994.1198374-.05811.2178856-.217886.2178856-.159784 0-.290515-.1307312-.290515-.2905146zm16.580292 6.6219054c-.06355-.165615-.02757-.389099.07996-.496631.279557-.279557.809236-.02405.736212.355129-.08134.422357-.669284.52429-.816175.141502zm.667109-.18471c0-.151374-.123851-.275225-.275224-.275225-.151374 0-.275225.123851-.275225.275225 0 .151373.123851.275225.275225.275225.151373 0 .275224-.123852.275224-.275225zm-2.752245-.394695c-.857783-.327233-1.627156-.621872-1.709718-.654753-.122431-.04876 4.031791-3.8025708 5.473299-4.9457502.379651-.3010788.412648-.2698785 1.649482 1.5596059.694145 1.0267561 1.127079 1.7572829.962078 1.6233915-.662297-.5374234-1.74124.1536014-1.309212.8385056.170683.2705902.05948.4259892-.72214 1.0091562-1.044728.779473-1.093029.793678-1.408061.41409-.343688-.414118-.703285-.33329-1.057724.237749l-.318398.512974zm-17.9392848.26855c.113406-.340218.5084006-.396646.5084006-.07263 0 .159783-.1307312.290515-.2905143.290515-.1597838 0-.2578321-.09805-.2178863-.217886zm-2.019791-1.484268c-.7021059-.7084031-1.1414679-1.3064934-1.1414679-1.553847 0-.2829915.081965-.3706888.2766406-.2959845.1521528.058384.488228-.032483.7468339-.2019251.386815-.2534507.4597711-.4266616.4114203-.9767847l-.0587723-.6687024 1.8348298-.6836962c1.0091562-.3760328 2.0206065-.6886642 2.2476668-.6947363.8772426-.0234604.3447638.4738868-1.1258792 1.0515944-.8455645.3321605-1.6897054.772234-1.8758678.9779414-.5444857.6016499-.4372836 1.5905982.2808133 2.5905305l.6192907.8623479-.4399778.366379c-.2419882.201508-.4836469.369127-.5370198.372484-.053377.0033-.6107033-.512163-1.2385106-1.145601zm36.1055798.899416c0-.138759-.05066-.505595-.11258-.815189l-.11258-.5629006 2.451988-.056352c1.490082-.034244 2.504872.015624 2.586791.1271286.07414.100915.136068.49311.137613.871544l.0028.688061h-2.47702c-1.979393 0-2.477021-.05069-2.477021-.252289zm5.318502-.06881c-.0015-.176602-.0523-.506871-.113143-.733931-.108767-.4058646-.08259-.4128376 1.549747-.4128376 1.795553 0 1.634957-.089625 1.972695 1.1008976.09891.34865.01651.366967-1.651341.366967-1.548584 0-1.755749-.03784-1.757958-.321096zm-38.4279728-.030967c-.085519-.138371.6114925-.198385 2.3040788-.198385 1.334679 0 2.392285.0311 2.350238.06911-.04205.03801-1.078884.127284-2.30408.198385-1.530073.08879-2.2660221.06715-2.3502368-.06911zm12.8437738-.896524c2.945328-2.4955461 3.206528-2.8259597 2.815007-3.5609102-.458217-.8601456-.504409-.8664868-6.356229-.8726393-4.808738-.00506-5.55036-.042607-5.55036-.2810602 0-.2400429.935425-.2752245 7.317929-.2752245h7.317931l.08769.458708c.08575.4485859.06295.4587697-1.033636.4615172-.616729.00153-1.236565.075779-1.377416.1649648-.464316.2940032-.07793.724592.703943.7844732l.743066.056907-1.746252 1.6054769c-1.534501 1.4107971-1.828085 1.6054761-2.421115 1.6054761-.371174 0-.596424-.06646-.500554-.14769zm9.365178-.3757082c-.205173-.3319747.112065-.7817638.511212-.7248132.53389.076177.52894.7696314-.006.8458676-.217537.030998-.444865-.023474-.505172-.1210544zm.808954-.1997053c0-.247769-.334479-.4195306-.553442-.284203-.102561.063384-.138973.1921103-.08091.2860532.137735.2228613.634354.2214133.634354-.00187zm2.706374-1.2412166c.227061-.043731.598614-.043731.825674 0s.04128.079516-.412837.079516c-.45412 0-.639897-.035783-.412837-.079516zm-.38725-1.4128789c-.503492-.6601109-.579527-.8444814-.346681-.8406388.176152.00291 1.015747 1.2908093.910258 1.3962986-.04361.043606-.297215-.2064418-.563577-.5556598zm-9.19781-.2893438c-.06431-.1040551-.000763-.2337697.141227-.2882542.443317-.1701167 2.979144-.00284 2.931636.193396-.06032.2491795-2.922874.3375454-3.072863.094858zm-14.4946266-2.5679043c-.071454-.1156148 2.5860226-.1972504 7.4661036-.2293537 8.914523-.058641 11.888896.0005215 11.888896.2364875 0 .2388654-19.2073392.2317856-19.3549996-.00714zm.2165957-.4882738c-.3128347-.3128346.2408019-.4331151 1.9935729-.4331151 1.580561 0 1.915743.048155 1.915743.2752245 0 .2268876-.332988.2752245-1.895991.2752245-1.042795 0-1.9487912-.052801-2.0133249-.1173339zm5.2340439-.098929c.04381-.133345.350484-.2689777.681498-.3014068.434581-.042573.579706.00842.522188.1834827-.04381.133345-.350484.2689777-.681498.3014068-.43458.042573-.579706-.00842-.522188-.1834827zm2.528415.032781c0-.1107368.768122-.1834827 1.9374-.1834827 1.244877 0 1.896866.065582 1.824001.1834827-.150443.2434223-3.761401.2434223-3.761401 0zm5.045782 0c.06237-.100915.397512-.1834827.744761-.1834827s.631361.082568.631361.1834827c0 .1009158-.335142.1834835-.744761.1834835-.449783 0-.699846-.072672-.631361-.1834835zm2.522891.076451c.139669-.1396694 3.621732-.1396694 3.761401 0 .05887.05887-.787448.1070323-1.8807.1070323s-1.939568-.048162-1.880701-.1070323z" fill="#273839" stroke-width=".183483"/></svg>