<svg height="128" viewBox="0 0 95.581779 33.866667" width="361.254" xmlns="http://www.w3.org/2000/svg"><path d="m58.404899 30.53102c0-.08836.486456-.313995 1.081012-.501413.594557-.187418 1.081013-.4305 1.081013-.540183 0-.758171-1.184222-1.492906-2.054261-1.274539-.269231.06757-.593382.320819-.720332.562771-.223903.426725-.21919.429602.157212.09595.451632-.400332 1.017724-.437511 1.728757-.113543.592381.269907.556433.562834-.108628.885164-1.158392.561432-1.458676.526048-1.860003-.21917l-.376883-.699828.505105-.505104c.648408-.648407 1.63934-.884266 3.671579-.873894l1.630464.0083.282898-.677071c.398644-.95409.565887-.990397 1.3581-.294824.534311.469132.699684.766422.699684 1.25782 0 .35392-.126222.748244-.280489.876275-.189315.157118-.244932.451898-.171101.906867.194219 1.196831.000059 1.267053-3.503429 1.267053-1.716384.000007-3.120698-.07229-3.120698-.160647zm6.212556-.708452c.05898-.153704.0039-.472691-.122567-.708861-.268923-.502488-.647299-.465934-2.458937.237546l-1.174206.455956 1.179287.11437c2.12265.20586 2.464474.192723 2.576423-.09901zm-.56181-2.324793c-.04504-.135127-.199824-.245685-.343958-.245685-.144135 0-.298916.110558-.343959.245685-.04872.146151.09063.245685.343959.245685.253328 0 .392675-.09953.343958-.245685zm-7.001599-.986621c-.890612-1.613395-.924624-1.716517-.565486-1.714595.361885.0019 1.731775 2.609491 1.536715 2.925103-.110648.179031-.410458-.194643-.971229-1.210508zm.661048-.344029c-.621185-1.299668-1.131433-1.877321-1.47222-1.666703-.25057.154863-.982737-.430085-.982737-.785135 0-.309089 4.404617-4.660131 4.483948-4.429407.0339.09858-.386228.749114-.933602 1.445635-.547375.696521-.995227 1.329666-.995227 1.406988 0 .07732.48736.96868 1.083022 1.980794.595661 1.012115 1.164922 2.055627 1.265023 2.318914.170085.447355.125638.492897-.678687.695429-.473379.119199-.937931.216724-1.032337.216724-.09441 0-.426139-.532458-.737183-1.183239zm2.735604.151364c-.177578-.351329-.765025-1.365731-1.305439-2.254227-.716092-1.177331-.950036-1.737029-.86261-2.063751.132186-.493987 1.797112-2.472435 1.948573-2.315507.05217.05405.799621 1.513418 1.661005 3.243037 1.881734 3.778425 1.876214 4.02045-.09183 4.026219-.962431.0028-1.047076-.03706-1.349696-.635771zm12.547865-2.84283c-.135123-.04896-.245684-.363386-.245684-.698739 0-.335354-.169436-.792327-.376515-1.015497-.498886-.537636-3.161342-5.044346-3.161342-5.351171 0-.131949.08845-.294569.196548-.361379.108101-.06682.19936-.801714.202797-1.633118.0084-2.026659.112571-2.136558 2.111623-2.22734 1.693739-.07692 2.016956.04629 1.026889.391421-.509073.177465-.589641.303009-.589641.918812 0 .530447.151128.864388.589641 1.302903.324302.324303.589641.611744.589641.638757 0 .02701-.243224.01461-.540504-.02757-.297274-.04217-.710175.04918-.917545.203003-.369209.273875-.367578.294986.07864 1.01698.430434.696455.438209.766873.14032 1.271153-.309693.524268-.295602.563581.78464 2.189365.604997.91053 1.124699 1.685419 1.154886 1.721975.119884.145148 1.880313-1.019783 2.248569-1.487943.361746-.459893.392314-.467633.392314-.09938 0 .250826-.529993.860057-1.424973 1.638021-1.923604 1.672098-1.979092 1.711614-2.260304 1.609737zm-22.429181-3.250148c-.861193-1.648544-1.878962-3.505919-2.261711-4.127502-.682196-1.107879-.713504-1.130148-1.588866-1.130148-.491126 0-.892957-.08845-.892957-.196549 0-.108101-.221116-.196547-.49137-.196547-.270253 0-.491369.08845-.491369.196547 0 .110874-.556884.196549-1.27756.196549-.720675 0-1.27756-.08567-1.27756-.196549 0-.255637-.726472-.255637-.884465 0-.173578.280857-2.330328.244446-2.61899-.04422-.189984-.189986-.32207-.189986-.626285 0-.212038.13242-.640309.240763-.951714.240763-.444307 0-.679995.171968-1.094845.798848-.290759.439366-.617332.769288-.725719.733159-.108386-.03612-.407967-.584602-.665738-1.218829-.257768-.634227-.707357-1.402276-.999087-1.706775l-.530416-.553636 8.254187-.01154 8.25419-.01154 1.781213 3.294597c.979668 1.812027 1.96951 3.660938 2.199649 4.108689.715917 1.392868 1.14233 1.303975 3.294977-.686896 1.708471-1.580074 2.412692-2.065079 2.412692-1.661646 0 .309629-4.427386 4.580939-4.748329 4.580939-.17592 0-.370764.13267-.432988.294821-.07961.207462-.403224.294822-1.092134.294822h-.979zm22.615354-.282022c-.894641-1.354647-.973944-1.557637-.71873-1.83965.383052-.423267.362015-.7077-.108675-1.469292-.355346-.574964-.363107-.652456-.07639-.762482.217114-.08332.286555-.03751.217183.143265-.05612.146156-.02847.3847.06144.530097.134314.217329.218116.218937.471022.009.1692-.140423.259167-.333741.199926-.429594-.05923-.09585.06317-.174277.271953-.174277.416086 0 1.655625 1.253784 2.498012 2.526712.468361.707734.507691.879099.310592 1.352992-.179671.431983-1.082218 1.143805-2.004103 1.580602-.06413.03038-.569115-.629953-1.122197-1.467415zm1.53362.724254c0-.406914-.474173-.542392-.687915-.196548-.164521.266196.0575.589643.404698.589643.155765 0 .283217-.176893.283217-.393095zm-20.20053.261174c-.339099-.136332-1.071602-1.601759-.921804-1.84414.228098-.369068-.31004-1.561797-.704653-1.561797-.442883 0-1.056689-1.069601-.879214-1.532095.159435-.415485-.49044-1.612667-.875416-1.612667-.16478 0-.507294-.391507-.761144-.870016-.429446-.809518-.440745-.908605-.162489-1.424971.164479-.305225.347437-.709737.406575-.898913.08475-.271122.329409-.343959 1.155348-.343959h1.047827l.772641 1.621518c.929319 1.950337.846455 1.817303 1.022388 1.641368.07917-.07917-.252506-.89221-.737054-1.806761l-.880993-1.662822-1.362325.05422c-1.309537.05211-1.368033.07564-1.509608.607284-.308361 1.157956-.04995 1.117583-7.153459 1.117583h-6.537678l-.321956-.491378-.321959-.491369h-10.605277-10.605278l-2.427836 1.277561c-2.1596938 1.136458-2.5508493 1.277558-3.5416251 1.277558-1.517545 0-1.4712293-.318829.3062636-2.108265l1.4200525-1.429593h2.668139c1.580428 0 2.751245-.0831 2.871992-.203851.14077-.14077.369768-.14077.740021 0 .351745.133733 5.275698.203851 14.315114.203851h13.778944l1.293297-1.2388238c1.26864-1.2152084 1.311093-1.2373117 2.226897-1.1594945.858032.072911.933819.1214769.936284.6000447.0016.2863926.05602.7197186.121199.9629462.1173.4377084.154477.4422324 3.633447.4422324 2.342845 0 3.514936-.069405 3.514936-.2081466 0-.114481.08845-.153485.196547-.086674.120128.074241.196547-.2293207.196547-.7807594 0-.6782869.08537-.9347794.343959-1.0333542.189177-.072117.56417-.3346804.833319-.5834745.443699-.4101441.672948-.4519455 2.456846-.4479831 1.649771.00364 2.046834.066433 2.458856.3887246.351566.2750006.803164.3855988 1.587257.3887255.918017.00364 1.170811-.075382 1.557505-.4869988l.461619-.491369h5.05344 5.053441l1.180008 1.2614303 1.180008 1.2614309 3.770357.023739c4.071488.025633 4.638841-.071255 5.982735-1.0217237.521907-.3691216 1.012279-.5421383 1.536549-.5421383h.77001l-.0369 1.4249709c-.04485 1.7311644.192131 9.8597254.309465 10.6135734.07753.498116.0329.540506-.569212.540506h-.653353l-.414857-2.407708c-.228171-1.32424-.522528-3.35634-.65412-4.515777-.222628-1.961457-.214225-2.135741.120838-2.505982.198061-.218855.567512-.397916.821012-.397916s.460904-.08845.460904-.196548c0-.3547705-.84954-.205548-1.314024.230809l-.454905.427356v-.427356c0-.235046-.08844-.427357-.196541-.427357-.30066 0-.24041.972953.292188 4.719119.600947 4.226974.603325 4.322075.107824 4.322075-.212407 0-.467538-.154782-.566987-.343959-.358864-.68272-1.000952-3.373534-1.228633-5.148913-.127886-.997218-.330543-1.844104-.450337-1.881968-.119794-.03787-2.768527-.129022-5.886085-.202573l-5.66828-.133731.745338-.763299c.680436-.6968273.836009-.7632981 1.786469-.7632981.794406 0 1.041112-.069866 1.041112-.2948212 0-.2249793-.246776-.2948212-1.041692-.2948212-.572937 0-1.142115.1004111-1.264839.2231369-.166492.1664851-.420683.066677-1.001194-.3930947-.708309-.5609897-.904414-.6162336-2.187505-.6162336-1.317245 0-1.528713.064286-3.232426.9827384-1.002638.5405065-1.878767.9827385-1.946954.9827385-.06819 0-.546695-.396511-1.063344-.8811346l-.939362-.8811346-2.085215-.00332-2.085216-.00332-.936394.8242472c-.81889.720818-.890189.842401-.568178.968924.202518.07957 1.960252.154436 3.906074.166361 3.382708.02073 3.512001.03569 2.948215.341051-.335161.181533-.483086.355035-.342749.402008.13579.04545 1.262874-.455589 2.504627-1.113427 2.243411-1.1884813 2.268028-1.1960266 3.880612-1.1895296 1.313063.00525 1.710456.079532 2.081698.3889018l.45883.3823634-.728198.8886584-.728184.888657h-2.214015c-2.196526 0-2.216877.0043-2.57592.540507-.249908.373238-.384849 1.008724-.436047 2.053494l-.07415 1.512987-1.318166.796448c-.724991.438046-1.489743.797323-1.699446.798393-.209704.001-1.299665-.193107-2.422133-.431504l-2.040855-.433449-.76821.442127c-1.057064.608369-1.499579.434078-1.576197-.620805-.05774-.79497-.08256-.82326-.670637-.764516-.544464.05439-.680324-.04753-1.253048-.940049-.614599-.957769-.627607-1.01737-.300836-1.378447.333365-.368363.375101-.35079 1.744417.734537.771586.611561 1.518458 1.270745 1.659713 1.464854.162857.223791.509406.352925.947119.352925.379662 0 1.576411.22462 2.659448.499155 1.083036.274536 2.129336.448318 2.32511.386181.195775-.06213.718713-.375758 1.162088-.696936.802697-.581471.806134-.589467.806134-1.874699 0-1.110897-.04673-1.28174-.335376-1.226152-.211903.0408-.394682.350028-.496461.839888-.149443.719271-.628852 1.48292-.930959 1.48292-.07122 0-.0911-.530679-.04419-1.179286l.0853-1.179286-2.431333-.0055c-2.359582-.0053-2.452954-.02184-3.164023-.560286l-.732695-.554818 1.911981-.126614c1.051586-.06964 2.398434-.145174 2.99299-.167858.594557-.02269-.511024-.08948-2.456846-.148428-3.806107-.11531-5.642863.0538-6.328328.582652-.394379.304272-.406515.369462-.139683.750415.259254.370138.258053.46933-.01065.879423-.286584.437381-.26292.519526.440215 1.528123.603231.865291.862226 1.077486 1.376149 1.127485.58925.05733.633068.112476.633068.796771 0 .578487-.142859.873646-.670264 1.384828l-.670264.649646-.91932-1.593828c-.505621-.876606-1.042445-1.593829-1.192941-1.593829-.150492 0-.458484-.362357-.684426-.805237-.22594-.44288-.455023-.761013-.509074-.706963-.179159.179158.740222 1.752056 1.075323 1.839687.181002.04733.680964.743114 1.111024 1.54618l.781928 1.460117-.971668.986502c-.534418.542577-1.019217.979519-1.077331.970985-.05811-.0085-.218586-.06091-.356603-.116405zm-5.19343-9.341676c.373729-.37373.286559-1.29556-.144317-1.526158-.79182-.4237691-1.585302.0028-1.585302.85228 0 .580162.356018.909735.982738.909735.281063 0 .61716-.106136.746881-.235857zm24.296876-.669637c.170991-.06562.310896-.20216.310896-.303431 0-.286092-2.803186-.114937-2.899739.177049-.05895.17828.242387.245684 1.098355.245684.648771 0 1.319491-.05368 1.490488-.119302zm-14.823277-.897096c0-.4059884.636016-.949078 1.111475-.949078.253497 0 .460906.067167.460906.1492686 0 .1517848-.644018.6262392-1.179286.8687924-.222417.100787-.195683.136989.108855.147411.222022.0076.703716-.2957488 1.070431-.6741025l.666754-.6879172h-.78619c-.640471 0-.909772.1275046-1.452945.6879172-.499943.5158085-.58335.6879165-.333378.6879165.183357 0 .333378-.103593.333378-.230208zm10.154073-.6625417c.468928-.2748099.852597-.5843728.852597-.6879172 0-.1035438-.508567-.1812794-1.130149-.1727458-1.156821.015881-1.174436.049075-.147606.2781417l.589449.1314936-.491174.2651263c-.446561.2410424-.540084.2185715-1.029631-.2473845-.73217-.6968883-.950446-.3901748-.245771.345347.309623.3231768.604968.5875926.656319.5875926.05136 0 .477039-.2248438.945966-.4996537zm22.620248 7.3967097c-.203582-4.182829-.185794-9.0590797.03303-9.0590797.863764 0 .981533.7177357.580512 3.5378587-.115295.810759-.267343 3.066144-.33789 5.011965l-.128266 3.537858zm-65.705532-1.370436c-.04885-.04885-.0888-.472068-.0888-.940507v-.851706h-6.661592c-5.740104 0-6.677243-.04078-6.774727-.294821-.09968-.259767 1.119126-.294822 10.250447-.294822 10.150716 0 10.368621.0081 10.609072.393094.241066.38601.19629.393096-2.483776.393096-2.940742 0-3.011536.02328-3.472978 1.141929-.143851.348733-.364501.502072-.746527.518797-.298275.01306-.582278-.01622-.631119-.06506zm60.206542-1.432487c-.402997-.396707-1.372525-1.041373-2.154525-1.432591l-1.421815-.711304 1.942851.05675 1.942864.05675.266507 1.175345c.146588.64644.241841 1.265565.211668 1.375834-.03013.110269-.384559-.124089-.78755-.520797zm-27.651231-.946881c-1.394798-1.281798-1.419944-1.131455.246274-1.472473.330916-.06773.802452.160316 1.680157.812549l1.220137.906698-.436857.465011c-.698892.743937-1.296458.586969-2.709711-.711785zm-44.535246-.894051c.476108-.218007 2.638666-.2717 11.231325-.278859 9.283471-.0077 10.656124.02876 10.754819.285957.0998.260078-1.223783.29294-11.231326.278857-9.784108-.01377-11.26336-.0531-10.754818-.285955zm47.337963-2.449748c.654379-.5745509.724039-.589643 2.721734-.589643 2.021396 0 2.058096.00827 2.615082.589643l.564914.589643h-3.286649-3.286648zm-58.049812.1837134c0-.0984877.3537858-.2356408.7861907-.3047854.7225486-.1155397.7861795-.1753919.786052-.739376-.0001168-.5161336-.0783241-.6181714-.4921042-.6420501-.6679391-.0385471-1.0801385-.212872-1.0801385-.4568099 0-.2906363 1.5169818-.2512344 1.6542764.042967.091722.1965476.1375833.1965476.2293056 0 .0860935-.1844866 1.0897477-.2456847 4.0292269-.2456847h3.9145751v1.2820667 1.282066l-4.9136918-.019661c-2.8106082-.011249-4.9136922-.0963077-4.9136922-.198734zm10.220479-1.0681783v-1.2775592h2.260299c1.243164 0 2.254452.066337 2.247307.1474103-.0071.081076-.60416.654302-1.326697 1.2738362-1.196182 1.0256554-1.397226 1.1267586-2.247307 1.1301486l-.933602.0037zm36.478579.9151785c-.115143-.1863022 1.30769-.6203566 2.033529-.6203566.796614 0 .384102-.369431-.677888-.6070946-.595224-.1332055-1.040536-.2838784-.989585-.3348293.05096-.050954.704043.065944 1.45132.2597586 1.296579.3362895 1.437003.3368417 3.072264.012087.94247-.187173 1.757581-.2963146 1.811357-.2425386.112503.1125017-1.248739.5167908-1.74555.5184293-.46995.00159-.625862.344732-.210555.4634591.190501.054458.02133.052558-.375944-.00422-.601306-.0859488-2.591106.2376232-3.929157.6389475-.180082.0540158-.377987.0163789-.439791-.083621zm-32.645899-.8169043c.422232-.4324048.793968-.7861901.82608-.7861901.03212 0 .05838.3537853.05838.7861901v.7861907h-.82608-.826079zm1.906512.5503336c-.362582-.3625829-.28051-.9057001.173589-1.1487266.326644-.1748142.485634-.1501788.786191.1218204.457118.4136879.46715.5546371.06788.9539026-.369316.3693155-.707338.3933289-1.027663.073zm.845155-.5503336c0-.1591907-.15478-.3192458-.343958-.3556782-.241331-.046476-.343958.059648-.343958.3556782 0 .2960306.102627.4021542.343958.3556788.189178-.036427.343958-.1964882.343958-.3556788zm1.586421.47733c-.169873-.1698729-.30886-.3846717-.30886-.47733 0-.2183434.567847-.7861901.78619-.7861901.218344 0 .786191.5678467.786191.7861901s-.567847.7861907-.786191.7861907c-.09266 0-.307457-.1389872-.47733-.3088607zm.870426-.47733c0-.2620634-.131032-.3930954-.393096-.3930954-.262063 0-.393095.131032-.393095.3930954 0 .262064.131032.393096.393095.393096.262064 0 .393096-.131032.393096-.393096zm.97685 0-.09239-.8844643-2.515263-.098274-2.515262-.098273.885221-.8678863c.486873-.4773371.839614-.9416809.783871-1.0318749-.05574-.090194.705107-.1639895 1.690778-.1639895 1.144703 0 1.748245-.071002 1.670655-.1965474-.0672-.1087276-.956251-.1965483-1.989765-.1965483-1.8595 0-1.870777-.00297-2.39611-.6272747-.808214-.9605079-.706687-1.184076.553195-1.2181754.840309-.022746 1.220326.070044 1.706679.4167266.471016.3357485.897109.4459856 1.723843.4459856 1.078862 0 1.109187.015622 1.724346.8883542l.62617.8883549 8.853206-.1029199c4.869266-.0566063 14.936999-.1689152 22.372739-.2495754l13.519531-.146655-1.087889-1.074298c-.598339-.5908636-1.08789-1.1436542-1.08789-1.2284231 0-.0847683.776119-.1541244 1.724712-.1541244h1.724711l1.464268 1.4741077 1.464268 1.4741076h-3.938397-3.938399l-.564913.589643c-.469366.4899123-.71976.5896423-1.480417.5896423-.66589 0-1.0125-.1071779-1.271252-.3930948-.318585-.3520334-.60536-.3930957-2.745358-.3930957h-2.38961l-.564914.5896431-.564913.5896431h-5.031719-5.03172l-.967962.982739-.967961.9827377h-2.737076-2.737076l-.852917-.7861907c-.469103-.4324048-.969611-.7861901-1.11224-.7861901-.142628 0-.604787.3537853-1.027019.7861901-.422231.4324047-.899763.7861907-1.061182.7861907-.19262 0-.07758-.2227595.334709-.6481365.345509-.3564757.628199-.7102617.628199-.7861915 0-.07593-.619124-.1380528-1.375833-.1380528s-1.375834.062122-1.375834.1380528c0 .07593.282691.4297158.6282.7861915.412293.425377.52733.6481365.334709.6481365-.161419 0-.638951-.353786-1.061183-.7861907-.422231-.4324048-.864464-.7861901-.982738-.7861901-.118275 0-.560507.3537853-.982738.7861901-.444514.4552233-.953223.7861907-1.208408.7861907-.386319 0-.448102-.1152198-.500616-.933601l-.0599-.9336016-2.986905-.054199-2.986905-.054199-.06547 1.0369387-.06547 1.0369382zm16.883679-.4652573c.540122-.557262.590245-.6814537.317304-.7861906-.441879-.1695647-2.650567-.1581752-2.650567.013668 0 .2281783 1.239602 1.4343278 1.474108 1.4343278.119741 0 .506361-.2978122.859155-.6618052zm-1.345195-.2169882-.443892-.4725002 1.003937.036868c.552166.02028 1.004628.052959 1.005471.072622.000829.019664-.251174.2157-.560043.4356343l-.561582.39988zm-15.97427-1.0375466c.06081-.1836945-.341404-.2456844-1.594098-.2456844-1.552393 0-2.080634.1421272-1.751505.471256.242563.2425631 3.257931.03926 3.345603-.2255716zm4.077806.04914c0-.2092101-2.721727-.3860793-3.187963-.2071666-.152095.058366-.21935.198646-.149455.3117372.163628.2647543 3.337418.165311 3.337418-.1045706zm3.930954 0c0-.2092101-2.721728-.3860793-3.187964-.2071666-.152095.058366-.219349.198646-.149455.3117372.163629.2647543 3.337419.165311 3.337419-.1045706zm4.422323 0c0-.2373125-.304452-.2948215-1.560781-.2948215-1.438892 0-1.960827.1472819-1.644155.4639545.06913.06913.818519.1256886 1.665313.1256886 1.237521 0 1.539623-.057847 1.539623-.2948216zm11.006671-.9212367c0-.087876-.26534-.1597753-.589643-.1597753-.548545 0-.589643.050514-.589643.7246886v.7246894l.589643-.5649134c.324303-.310703.589643-.6368129.589643-.7246893zm25.502118-1.2898211c.107465-.3227567-.508368-.5531524-.772504-.2890116-.113035.1130354-.14307.3065698-.06676.4300758.173658.280988.729844.1875017.839244-.1410642zm-1.621575-.8354315c0-.1591906-.154784-.3192459-.343958-.3556779-.241331-.046473-.343959.059652-.343959.3556779 0 .2960301.102628.4021547.343959.3556786.189174-.03643.343958-.1964873.343958-.3556786zm-44.947998 5.3690706c.141882-.056773.311404-.049793.376717.015522.06531.065308-.05077.111765-.25797.1032314-.228967-.00943-.275539-.056006-.118747-.1187479zm2.403261-.1511145c-.520396-.6270388.247426-1.6126463.860153-1.1041276.369737.3068559.403651.8254393.07544 1.1536493-.315123.3151234-.647567.2975268-.935592-.049517zm.925822-.4515716c.107464-.3227558-.508367-.5531512-.772507-.2890111-.113035.1130359-.143068.3065704-.06674.4300758.17366.2809875.729846.1875012.839244-.1410647zm2.997889.048418.667348-.6885282.648766.6288108c.356823.345846.648769.6556832.648769.6885281 0 .032841-.592253.059717-1.316117.059717h-1.316114zm5.012142.098081.565684-.5904468.552101.5289457c.303654.2909193.5521.5566206.5521.5904475 0 .033822-.503003.0615-1.117784.0615h-1.117784zm-2.337646-.1717674c-.174083-.1923624-.316518-.4091198-.316518-.4816839 0-.1707975.778917-.145782 1.252241.040222.340004.1336105.330511.1689392-.125714.4678697-.461274.302238-.514153.3005137-.810009-.0264zm44.141863-1.0658938c-.561735-.5688059-1.021395-1.0756337-1.02145-1.1262847-.000062-.050648 2.659321-.067429 5.909741-.037277 5.373225.049838 5.904178.08432 5.84728.3797531-.03442.1787159-.460524.6064837-.946915.9505958l-.884345.6256567-3.941486.120875-3.941479.1208736zm-62.033108-.7006504c-.057854-.0936037-.311677-.1307147-.564059-.0824691-.602192.1151169-1.076972-.4100268-.738942-.8173274.173427-.2089687.489787-.2536813 1.199859-.1695839.596286.070623 1.066998.029009 1.233327-.1090344.27681-.2297316 1.900013-.2584066 1.900013-.033562 0 .069175-.291661.4084601-.648137.7539698-.517113.5012051-.812766.6281988-1.462508.6281988-.447903 0-.861702-.076585-.919553-.1701886zm8.764342-1.6605448c-.59157-.629698-.543858-.7243863.365002-.7243863.523008 0 .83082.1002212.905494.2948215.124831.3253062 1.053816.411939 1.053816.098274 0-.2832033 2.232457-.2440443 2.520716.044215.189985.1899858.322071.1899858.626286 0 .461385-.2881402 2.55288-.3243641 2.55288-.044215 0 .1081013.221117.1965474.49137.1965474s.491369-.088446.491369-.1965474c0-.110873.556885-.1965475 1.27756-.1965475s1.277559.085675 1.277559.1965475c0 .1081013.221117.1965474.491371.1965474.270252 0 .491368-.096385.491368-.2141896 0-.1391721.464665-.1937231 1.326697-.1557526 1.05557.046495 1.445425-.020191 1.907669-.3263157.561353-.371763 1.027111-.385575 13.794479-.4090738l13.213507-.024321.541137.5648256.541137.5648257-12.959782.00698c-10.864643.0058705-13.039219.0523749-13.451152.2878567-.403974.2309328-1.962238.2821313-8.761248.2878573l-8.269878.0069828z" fill="#273839" stroke-width=".196548"/></svg>