<svg height="128" viewBox="0 0 74.925233 33.866667" width="283.18201" xmlns="http://www.w3.org/2000/svg"><path d="m37.479916 29.650265c-.318816-.603151-.953541-1.796962-1.410503-2.652913l-.83084-1.556275.819793-.981106.81979-.981104-1.456035-2.618913-1.456036-2.618911.914309-.04939c1.077509-.05821.883315-.25896 2.573799 2.660717l1.232061 2.127921.880873.04739.880876.04739.921297 1.691909c.836148 1.535533.929324 1.806325 1.008136 2.929852l.08684 1.237943-.863345.816517c-.790223.747358-.928992.816666-1.63838.818291-.426268.000956-1.028818.04127-1.339002.08955-.557136.08671-.570993.07449-1.143631-1.00886zm2.439114-.996338c.819373-.820936 1.4655-1.610534 1.516341-1.853042.04872-.232412.122768-.590067.164544-.794788.04699-.230272-.07501-.594382-.319901-.954773l-.395855-.582552-.626533.246109c-.369854.145283-1.177649.800104-1.971773 1.598375l-1.345242 1.352265.598448 1.20944c.329146.665193.678047 1.209441.775333 1.209441.09729 0 .819374-.643713 1.604638-1.430475zm-1.731408.906789c-.08422-.11078-.354855-.554235-.601423-.985456l-.448305-.78404 1.185945-1.202043c.652269-.661122 1.471936-1.350234 1.821482-1.531357l.635533-.329312.290988.359354c.184595.227965.290985.625524.290985 1.087353 0 .697561-.05849.787774-1.398801 2.15746-.769339.786202-1.449309 1.429458-1.511043 1.429458-.06174 0-.181147-.09064-.265361-.201417zm2.886427-.395254c.419452-.409584.611047-.73799.611047-1.047372 0-.247886-.05439-.442202-.120851-.431815-.06647.01038-.549785.481702-1.074039 1.047372-.944354 1.018952-.948897 1.028486-.490197 1.028486.316534 0 .656286-.188746 1.07404-.596671zm-6.537169-5.080935c-1.004564-1.810384-3.164369-5.81805-3.164369-5.871702 0-.16183 1.918163-.02293 2.058543.149069.09042.110779.811246 1.292971 1.601842 2.627092l1.437449 2.425676-.686662.839662-.686663.839662zm16.141684.400463c-.694641-.812352-3.837175-6.564279-3.837175-7.023362 0-.24607-.166578-.536731-.423356-.738713-.343163-.269931-.3866-.377299-.229317-.566814.306203-.368952 1.640104-1.162389 2.315093-1.377074.848608-.269907.609354-.416085-.27552-.168335-.436267.122147-1.053969.501031-1.577345.96751-.693619.618211-1.12977.848943-2.251538 1.191103-1.207147.368203-1.677462.424366-3.553722.424366h-2.16245l-.269704-.56558-.269707-.56558.602413.08047c.331329.04426 1.400028.157438 2.374889.251512l1.772477.171042 1.190896-.491814c.654993-.270498 1.287153-.618613 1.404799-.773589.531275-.699846-.03937-2.29595-.820851-2.29595-.372207 0-.405204.05845-.405204.717779 0 .554204-.09347.811251-.410159 1.127939-.50559.50559-.659018.530226-.324081.05204.261629-.373527.3146-.918303.149276-1.535205-.0936-.349252-.164938-.362551-1.944835-.362551-1.406372 0-1.831713-.04811-1.780833-.201417.04978-.150001 1.030152-.224376 3.840364-.291348 3.183913-.07588 3.974933-.144727 5.062591-.440645.70899-.192893 1.706007-.351828 2.215594-.35319.914687-.0024.92652.0035.92652.462996 0 .410317-.07159.478891-.604254.57874-1.114615.208939-1.650157.524271-1.898064 1.117595-.322146.771001-.129609 1.185961.94874 2.044744 1.47504 1.174707 4.097027 4.700234 4.474511 6.016435.192479.671133-.1294 1.084745-1.582181 2.033133-1.340719.875231-2.205789 1.042448-2.657867.513763zm1.912883-2.14576c.723761-.274228 1.17871-.794681 1.17871-1.348432 0-.594902-1.06016-2.249367-2.458961-3.837411-1.135086-1.288648-1.628419-1.409666-2.500288-.613336-.657838.600842-.670203 1.141833-.04417 1.93227.261331.329956.777225 1.210516 1.14643 1.956797.369206.746282.820623 1.520024 1.003148 1.719427.362531.396056.955068.463506 1.675126.190685zm-1.463325-.293105c-.151233-.16711-.530577-.837831-.842991-1.490491-.312412-.652658-.852507-1.555903-1.200212-2.007207-.347704-.451305-.632189-.933239-.632189-1.070964 0-.257302 1.022286-1.250597 1.287097-1.250597.608246 0 1.382387.819464 3.023239 3.200233.936793 1.359223 1.018589 1.738169.483403 2.239505-.738524.691817-1.682649.860965-2.118347.379521zm-13.655671-1.555068-1.392795-2.330581.828825.0029.828828.0029 1.225586 2.212759 1.225585 2.21276-.419914.101788c-.230953.05598-.528681.107726-.661617.114984-.145873.008-.793907-.910813-1.634498-2.317379zm-20.429683-3.740505c.01905-1.755123.09413-2.668231.243444-2.960553.11875-.232479.170461-.468138.114913-.523685-.05555-.05555-1.603191-.100997-3.439208-.100997h-3.338211l-.58272.645001c-.5603636.620256-.5827191.691346-.5827191 1.853042 0 .664424-.058008 1.208043-.1289072 1.208043-.3635864 0-.5156292-.474996-.5156292-1.610867 0-1.204668.00972-1.233637.6110473-1.820816.3842551-.375215.7649242-.596671 1.0256402-.596671.228028 0 .59896-.145021.824293-.322269.396647-.312002.653687-.322268 8.068928-.322268 5.778335 0 7.691244.0475 7.78959.193406.0717.106373.789715 1.393432 1.595592 2.860131 1.399247 2.546635 1.511735 2.898111.930033 2.905959-.100585.0013-.749619-.99455-1.442296-2.213127-1.181762-2.078986-1.698049-2.766396-2.080907-2.77062-.08862-.000956-.0015.123503.193586.276623.286771.225072 2.787395 4.406175 2.787395 4.660592 0 .03902-.213102-.0808-.473562-.266262-.260458-.185463-.838504-.974933-1.284546-1.754378-1.207749-2.110501-1.054702-2.030069-3.97857-2.090907-1.687619-.03512-2.481163.0036-2.481163.12085 0 .338636-.59205.164329-1.043949-.307353l-.459706-.479829 3.128556-.04754 3.128556-.04754-3.262966-.03659c-1.794631-.02013-3.262966.0063-3.262966.05864 0 .05238.242144.378127.538097.723883.295956.345755.622252.909522.725104 1.252815.230245.768485.249315 2.923224.02587 2.923224-.08862 0-.161134-.277125-.161134-.615832 0-.849304-.445161-2.078388-.85733-2.367084-.530872-.371837-1.285177-.300649-1.720133.162341-.354705.377567-.375445.510335-.339821 2.175311.02611 1.220325-.01813 1.773203-.141898 1.773203-.125915 0-.171583-.760961-.152305-2.537863zm1.116742-3.034693c0-.284551-.346882-.234996-.446475.06378-.03508.105241.05102.191347.191347.191347.140321 0 .255128-.114808.255128-.255129zm.886942.09286c.05516-.08925-.0162-.206973-.158574-.261607-.308515-.118389-.480456.01207-.332158.252024.133803.216497.360121.220917.490732.0096zm-1.496453 3.681921c.04433-1.745751.0574-1.802643.488337-2.123974.920284-.686221 1.784253.154753 1.982032 1.929281l.110174.988509-.864665.32651c-.475566.179581-1.066435.404577-1.313043.499992l-.448378.173481zm14.139925.227116c.969238-.03896 1.448046-.130208 1.652067-.314843.274448-.248373.268962-.291243-.122788-.959717l-.41007-.699729.933315.001c.867565.000956.952648.035 1.207803.483402.27427.481999.275705.482388 1.786894.482388 1.41283 0 1.523107.02387 1.674966.362551.339663.757532.284797.767501-4.031763.732589-2.230366-.01804-3.441057-.05748-2.690424-.08766zm-2.721561-2.581648c-.657601-1.216869-1.333261-2.411893-1.501462-2.655608l-.305823-.443119h1.586979 1.58698l.636462 1.24879c.350054.686834.662039 1.303172.693299 1.36964.03126.06647-.311758.120851-.762263.120851-.681338 0-.819098.04878-.819098.290042 0 .492807.350424.676763 1.289191.676763h.90247l.354377.729413c.194907.401179.354377.763731.354377.805671s-.634466.07486-1.409924.07315l-1.409924-.0031zm40.270672 2.075079c-.396213-.109668-.405486-.150227-.563969-2.466475-.133149-1.945873-.214563-2.413685-.468694-2.692942-.258331-.283885-.277669-.403543-.120843-.747731.274376-.602208.239376-2.0838951-.054997-2.3282097-.152412-.1264933-.241697-.1372945-.241697-.0292376 0 .094246.07251.216169.161133.2709413.232106.1434495.18771 1.542793-.06331 1.995663-.161447.291265-.245001.332583-.345083.170644-.079-.127809-.05585-.239083.05761-.276899.23321-.07774.260515-1.8088408.02852-1.8088408-.260079 0-.184651-.4398994.09375-.5467295.140181-.053794.95792-.097807 1.817186-.097807 2.373751 0 2.263328-.1817935 2.176657 3.5837033-.0393 1.706851-.07532 3.513576-.08007 4.014946-.0075.793921-.05354.923625-.356455 1.004888-.449833.120674-1.525314.09646-2.03972-.04591zm1.933605-1.46772c0-.52962-.172764-.616001-.4834-.241702-.160039.192832-.160039.290571 0 .483403.310636.374299.4834.287919.4834-.241701zm-.25302-1.018765c-.170959-.445507-.391513-.306011-.391513.247622 0 .465888.02486.49305.247619.27031.140091-.140087.202576-.36501.143894-.517932zm.25302-.753711c0-.265872-.07023-.483402-.156077-.483402-.08584 0-.118799-.09715-.07324-.215886.04557-.118737-.03287-.311911-.174278-.429278-.229445-.190424-.253414-.136837-.222673.497871.0341.704881.212226 1.114097.484855 1.114097.07778 0 .141408-.217531.141408-.483402zm-1.933605-3.222683c0-.177248-.06823-.322269-.151626-.322269-.216295 0-.368707.293285-.25121.483403.168404.272484.402836.178712.402836-.161134zm.06059-.731204c.05475-.1426933-.0092-.2878296-.150845-.3421743-.315272-.1209831-.459145.024489-.337563.3413253.122314.318749.366258.319174.488408.000849zm-59.6802237 5.636344c0-.945559.053733-1.123683.5103717-1.691909l.510369-.635088h3.276282c3.456612 0 3.565888.02575 3.057882.720487-.14875.203428-.315054.261591-.521476.182379-.522228-.200397-5.2232-.135731-5.477536.07535-.139042.115394-.227954.493287-.227954.968848 0 .594553-.08373.857669-.352652 1.108209-.6202872.577886-.7752867.432285-.7752867-.728276zm25.7814627.412284c-.145258-.271415-.122541-.322268.143956-.322268.412829 0 .834007-.427966.718195-.729767-.06226-.162249-.330656-.237038-.850654-.237038h-.759694l-.713557-1.235992c-.919145-1.592103-.899996-1.503289-.324149-1.503289.48494 0 .496889.01832.499297.765388.0034 1.049028.140138 1.223991.819169 1.048037.639171-.165626.838365-.660794.320316-.796267-.242869-.06351-.336281-.217-.336281-.552549 0-.420331.05186-.464609.544127-.464609.49517 0 .57396.06886.875721.765388.182376.420962.607782 1.345469.945346 2.054459.337565.708991.638382 1.343457.668482 1.409924.0301.06647-.492591.120851-1.161536.120851-1.051352 0-1.23965-.0437-1.388738-.322268zm1.665091-.06879c.04853-.126456-.01986-.31963-.151982-.429277-.193382-.160493-.289469-.150097-.49289.05333-.138975.138975-.203567.332149-.143538.429277.156666.25349.68437.217799.78841-.05333zm1.612976-.381369c-.06211-.237512-.216851-.355515-.466194-.355515-.311272 0-.537297-.307589-1.361666-1.853043-.966271-1.81148-1.000848-1.853042-1.541592-1.853042h-.553152v.966804c0 .75196-.05371.966806-.241701.966806-.186535 0-.242264-.211467-.244168-.926522-.0013-.509586-.07862-1.035287-.171689-1.168222-.132471-.189209-.147075-.162963-.06724.12085l.101983.362552h-3.716944c-2.37054 0-3.716945-.05837-3.716945-.161134 0-.08862.108766-.161134.241702-.161134.132935 0 .241701-.108766.241701-.241701 0-.132936-.108766-.241702-.241701-.241702-.191362 0-.241702-.230267-.241702-1.1055941v-1.1055908l.443119.079845c.243715.043917.533757.1515038.644536.2390864.147886.1169185.201418.068346.201418-.1827574 0-.2599739-.09945-.3419979-.41465-.3419979-.308049 0-.400771-.072495-.360663-.2819852.04646-.2426809.28112-.2883547 1.683515-.3276818 1.53294-.042988 1.634708-.025881 1.716949.2886044.07117.2721501.02999.3160739-.221493.2362561-.261097-.082869-.308914-.017192-.308914.4243039v.5223484l.372937-.350356.372937-.3503565 9.254828-.025785c5.090155-.014186 9.01917-.05503 8.731142-.090776-.38818-.048172-.523685-.1457359-.523685-.3770479 0-.1716334-.108766-.3120598-.241702-.3120598-.134278 0-.241701.1432307-.241701.3222688 0 .1772471-.07251.3222682-.161134.3222682-.08862 0-.161134-.1450211-.161134-.3222682 0-.1790381-.107424-.3222688-.241701-.3222688-.134279 0-.241702.1432307-.241702.3222688 0 .3179195-.107423.3222682-7.961055.3222682-7.881723 0-7.960214-.00324-7.876779-.3222682.08219-.3143101.21979-.3222688 5.571639-.3222688 4.997412 0 5.515775-.025175 5.805577-.2819846.233243-.2066877.337027-.2282008.388667-.080567.05288.1511723.8018.2014174 3.002196.2014174 2.753864 0 2.948862.019996 3.213891.3295248.241313.2818322.438654.3226443 1.363501.2819852.919411-.040418 1.090238-.094098 1.140683-.3584129.05615-.2942777.04452-.2960442-.218453-.033088-.441764.4417621-.63962.2253434-.691538-.7564231-.05354-1.0123762.09839-1.1226181.981744-.7123738.332624.1544738.434.3169255.434962.6970162.0012.553098.361533.93445 1.359586 1.4397115l.633225.3205682-3.936474.09869c-2.165062.054281-5.984893.1086618-8.488515.1208508l-4.552039.022163v.8056715.805671l4.068637.0036 4.068637.0036-.402835.318247c-.373068.294731-.650612.317404-3.755858.306829-2.321644-.0079-3.422277.04606-3.578174.175444-.330589.274363-.561542.05092-.561542-.54327 0-.287227-.08701-.609245-.19336-.715594-.26895-.268948-2.646144-.261984-2.750151.0081-.05837.151563.266411.201419 1.312117.201419 1.332455 0 1.387711.01437 1.341591.348913-.02682.19455.458645 1.324931 1.097319 2.555055.629981 1.213378 1.10194 2.249622 1.0488 2.302764-.05314.05314-.138458-.06336-.18959-.258894zm-10.690238-4.303298c0-.132936-.108765-.241702-.2417-.241702-.132937 0-.241702.108766-.241702.241702 0 .132935.108765.241701.241702.241701.132935 0 .2417-.108766.2417-.241701zm23.283884-4.1089213c0-.2954126-.09064-.5673263-.201418-.604253-.139649-.046553-.201418.1387546-.201418.604253 0 .465499.06177.6508031.201418.6042529.11078-.036923.201418-.3088402.201418-.6042529zm.725102.2417011c0-.1329357-.07251-.2417011-.161132-.2417011-.08862 0-.161132.1087654-.161132.2417011 0 .1329362.07251.2417016.161132.2417016.08862 0 .161132-.1087654.161132-.2417016zm-21.59999 7.9036302c-.08421-.08419-.153118-.211086-.153118-.281984 0-.182336 5.600435-.16166 5.713381.02109.05099.0825.0063.203416-.09936.268701-.286799.177252-5.282943.170107-5.460906-.0078zm1.826693-.773444c-.217814-.284154-1.335274-2.328807-1.335274-2.443194 0-.05207.38068-.09418.845954-.09359l.845955.0011.644536 1.167144c.88439 1.601475.885373 1.569978-.04902 1.569978-.448439 0-.865361-.0882-.952149-.201418zm-28.9487859-.322268c-.1728075-.644828-.1122627-1.738996.099856-1.804625.1107803-.03427.7089904-.09802 1.329357-.141649.6203665-.04363.9829181-.04253.8056709.0024-.6148471.156025-.6413926.372767-.045657.372767.3205231 0 .6193422-.09064.6640424-.201417.044701-.11078.086998.324282.093995.966804l.012722 1.168223h-1.431414c-1.348218 0-1.4370606-.02107-1.5285736-.362551zm2.7988533.04028c0-.08863-.2537857-.161135-.563969-.161135s-.5639697.07251-.5639697.161135c0 .08862.2537864.161133.5639697.161133s.563969-.07251.563969-.161133zm0-.805671c0-.08863-.2537857-.161135-.563969-.161135s-.5639697.07251-.5639697.161135c0 .08862.2537864.161133.5639697.161133s.563969-.07251.563969-.161133zm1.5084788.725103c-.051013-.132936-.2300129-.241701-.3977787-.241701-.1677659 0-.305029-.07251-.305029-.161135 0-.08862.1493002-.161134.3317788-.161134.1942693 0 .2876893-.07134.2254018-.172119-.058508-.09467-.2078061-.133196-.3317777-.08562-.1286815.04938-.2254029-.01288-.2254029-.145092 0-.132211.096721-.194471.2254029-.145092.1239716.04757.2732713.009.3317777-.08562.062288-.100783-.031134-.172119-.2254018-.172119-.1824786 0-.3317788-.07251-.3317788-.161135 0-.08862.1812762-.161134.4028354-.161134.250654 0 .402836-.09131.402836-.241701 0-.194703.2506529-.241701 1.2890724-.241701 1.1816507 0 1.2890737.02686 1.2890737.322269 0 .211124-.107423.322267-.3114806.322267-.3149065 0-1.4609957 1.245448-1.4609957 1.587655 0 .274275-.8006938.224147-.9085335-.05688zm31.8036368-1.465997c-.05338-.05339-.45961-.109144-.90272-.123905-.919971-.03064-1.13068-.16234-.884541-.552848.152713-.242283.58232-.279326 3.685049-.317751l3.512185-.0435 1.184044-1.124727 1.184046-1.1247271h3.141629 3.141629v.7251041c0 .698248.0179.725103.483403.725103.411509 0 .483402.06149.483402.413429 0 .797972-.261107 1.036779-1.133606 1.036779-.745911 0-.800003-.02724-.800003-.402836 0-.254322.09097-.402835.246758-.402835.387337 0 .491369-.499859.155195-.745675-.326917-.239048-.724218-.04015-.724218.36257 0 .162375-.248762.222962-.926524.225662-.509586.002-1.796645.219362-2.86013.482959-2.345185.581282-2.980982.614956-2.980982.157887 0-.179038-.107423-.322269-.241701-.322269-.134279 0-.241701.143231-.241701.322269 0 .308107-.107424.322268-2.444609.322268-1.948438 0-2.498894.04913-2.712072.242053-.147106.133129-.311146.198372-.364533.144986zm9.194819-1.771263c1.063776-.479413 1.269857-.631705 1.202638-.888749-.09984-.3817905-.365008-.5636626-.503353-.3452401-.05656.089296-.682919.3365251-1.39191.5493981-1.168576.350863-1.293839.427988-1.340058.825092-.04338.372683.0087.43805.34897.43805.219975 0 .977645-.260348 1.683713-.578551zm-37.834044 1.234212c0-.365403-.01026-.36702-1.9671629-.310072l-1.9671628.05725-.1102604-.538504c-.1749694-.854537.00572-1.7979406.3443846-1.7979406.2395942 0 .2719743.1024781.2005741.6348036-.046833.349143-.038548.820459.018403 1.047372.1013963.403998.1333324.412568 1.5372573.412568.8961809 0 1.4557771-.0662 1.4925691-.17658.04148-.124435 2.376996-.182343 7.909001-.196098l7.850141-.01952v-1.173545-1.1735417h-1.208506c-.698247 0-1.208506.068035-1.208506.1611344 0 .088623-.176997.1611338-.393325.1611338-.21633 0-.438141-.072511-.492913-.1611338-.05477-.088624-.312839-.1611344-.573479-.1611344-.260641 0-.473892.072511-.473892.1611344 0 .088623-.217532.1611338-.483403.1611338s-.483403-.072511-.483403-.1611338c0-.088624-.213251-.1611344-.473892-.1611344s-.518707.072511-.57348.1611344c-.05477.088623-.276583.1611338-.492912.1611338s-.393325-.072511-.393325-.1611338c0-.088624-.213252-.1611344-.473893-.1611344s-.518707.072511-.57348.1611344c-.05477.088623-.272303.1611338-.483402.1611338s-.428629-.072511-.483402-.1611338c-.05478-.088624-.312838-.1611344-.57348-.1611344-.260641 0-.473892.072511-.473892.1611344 0 .088623-.176997.1611338-.393326.1611338s-.438139-.072511-.492912-.1611338c-.0587-.094979-1.038398-.1621478-2.38624-.1636019-1.535904-.00165-2.207297-.053751-2.044951-.1586669.147487-.095313 3.303685-.1571606 8.096991-.1586663l7.855289-.00244v1.6113404 1.611342h-7.442067c-7.419176 0-7.443216.0011-7.815006.350356l-.372937.350353zm-6.8208952-.562039c-.1281182-.333872.1062219-.446714 1.1638692-.560436.9938949-.106868 1.1845531-.433393.2120594-.363176-.8087287.058392-1.506883-.211442-1.3829176-.534492.0736726-.1919868.3684833-.2467596 1.326279-.2464096l1.2315504.0004514v.9447222.944721l-1.2285212.02952c-.96863.02328-1.2483634-.02219-1.3223192-.214909zm3.5982127-.969695v-.7149386l1.3294144.00372 1.3294151.00372-.05656.7112326c-.05355.673301-.08282.711235-.5487178.711235-.4756059 0-.4827111-.01043-.2113518-.310278.3212054-.35493.2861118-.833822-.069718-.951362-.2065655-.06823-.2098005-.04119-.022259.186013.2852695.345598.122886.753359-.3000127.753359-.422897 0-.58528-.407761-.300011-.753359.1875444-.227206.1843083-.254247-.022259-.186013-.3558296.11754-.3909237.596432-.069718.951362.2729022.301553.2619698.310278-.3887111.310278h-.6695143zm1.7005851.05636c.166053-.268675-.2074126-.576777-.4296989-.354491-.1859362.185936-.069565.529669.1793206.529669.078164 0 .1908335-.07883.2503783-.175174zm1.1998294-.549925v-.8862389h2.094744 2.094744v.8862379.886238h-2.094744-2.094744zm1.579205.06677c.0678-.5832188-.338949-.894781-.858873-.6578891-.71172.3242817-.389065 1.2146941.406475 1.1217251.299129-.03496.416536-.155331.452398-.463836zm-1.042327.08187c-.05365-.139808.02114-.3728775.166191-.5179314.244225-.2442244.283247-.2442244.527472 0 .329435.3294364.178225.7721274-.263736.7721274-.182811 0-.376278-.114389-.429927-.254196zm.678254-.07879c.148298-.239953-.02364-.3704139-.332157-.252025-.142376.05463-.213734.172358-.158575.261607.130612.211334.356929.206914.490732-.0096zm2.64584.183527c.375044-.7007746-.428538-1.2598439-.995671-.6927097-.262702.2627007-.286975.3802917-.136527.6614057.232029.433549.906936.45221 1.132198.0313zm-.920789-.03636c-.230677-.230677.02515-.7809847.363067-.7809847.337915 0 .593745.5503077.363067.7809847-.102201.102202-.265581.185821-.363067.185821-.09749 0-.260866-.08362-.363067-.185821zm.604768-.217015c0-.132936-.108765-.241702-.241701-.241702s-.241701.108766-.241701.241702c0 .132935.108765.241701.241701.241701s.241701-.108766.241701-.241701zm1.93361.01121c0-.8547523.01956-.897445.411256-.897445.39488 0 .409316.033683.362552.845955-.04243.736979-.09541.852586-.411256.897444-.338746.04811-.362552-.0074-.362552-.845954zm1.93361-.01121c0-.8378985.02197-.8862385.402835-.8862385.380862 0 .402835.048336.402835.8862385 0 .837898-.02197.886238-.402835.886238-.380863 0-.402835-.04834-.402835-.886238zm2.085058.845954c-.0054-.02216-.02345-.421016-.04029-.886356-.02817-.7790829-.0019-.8460643.331954-.8459549.332019.0001089.362552.074753.362552.8863569 0 .778815-.03906.886238-.322268.886238-.177249 0-.326627-.01813-.331954-.04029zm1.943295-.845954c0-.7788152.03906-.8862385.322269-.8862385.283206 0 .322268.1074233.322268.8862385 0 .778815-.03906.886238-.322268.886238-.283207 0-.322269-.107423-.322269-.886238zm2.094744.008v-.8942419h.975225.975227l-.0487.8459549-.0487.845954-.926522.04833-.92652.04833v-.894279zm1.443789.321959c.261891-.315521.069112-.8523176-.354374-.9867266-.477914-.1516843-.995724.4713651-.759139.9134276.194354.363153.837816.405533 1.113513.07334zm-.946218-.151795c-.143937-.173433-.127447-.283608.07235-.4834027.142324-.1423236.317225-.258772.388666-.258772.247132 0 .496787.4435917.396597.7046797-.123261.321217-.604673.342265-.857609.0375zm.630368-.178205c0-.132936-.108766-.2417015-.241701-.2417015-.132936 0-.241701.1087655-.241701.2417015 0 .132935.108765.241701.241701.241701.132935 0 .241701-.108766.241701-.241701zm-10.232018 0c0-.4774344.05563-.5639697.362551-.5639697.306923 0 .362552.086535.362552.5639697 0 .477435-.05563.563969-.362552.563969s-.362551-.08653-.362551-.563969zm2.014177 0c0-.4941453.04988-.5639697.402835-.5639697.35296 0 .402835.069824.402835.5639697 0 .494144-.04987.563969-.402835.563969-.35296 0-.402835-.06982-.402835-.563969zm2.094743 0c0-.4565464.06138-.5639697.322269-.5639697.260884 0 .322268.1074233.322268.5639697 0 .456547-.06138.563969-.322268.563969-.260884 0-.322269-.107422-.322269-.563969zm1.93361 0c0-.4941453.04987-.5639697.402835-.5639697.352962 0 .402837.069824.402837.5639697 0 .494144-.04987.563969-.402837.563969-.352961 0-.402835-.06982-.402835-.563969zm1.93361 0c0-.4941453.04987-.5639697.402836-.5639697.352961 0 .402835.069824.402835.5639697 0 .494144-.04987.563969-.402835.563969-.352962 0-.402836-.06982-.402836-.563969zm30.884047.456547c-.05907-.05908-.107423-.349125-.107423-.6445368v-.5370767h6.848199c3.766501 0 6.902581-.018132 6.969049-.040285.06647-.022158.143145.2678853.170396.6445365l.04955.68482h-6.91118c-3.801146 0-6.959511-.04834-7.018591-.107422zm-16.22084-.617645v-.5639691h4.623933 4.62393l-.546619.5639691-.54662.56397h-4.077313-4.077311zm-30.3737859-.5639691c-.2127582-.0914252.1797386-.1423326 1.1550443-.1498095.8125211-.00623 1.5928298-.055651 1.7340186-.1098329.187889-.0721.229997-.028903.157073.1611349-.080864.2107278-.3468206.2575074-1.4117504.248316-.7216648-.0062299-1.4571378-.0736431-1.6343855-.1498085zm-.3718175-1.163192c.0436902-.599458.0971526-.6816302.4523847-.6953583 2.7056068-.1045638 2.6830225-.1018483 2.0947432-.2518554-.3101823-.0790944-.7996278-.1046413-1.0876549-.0567719-.4024499.0668864-.5236857.0293916-.5236857-.1619661 0-.1961801.1997965-.2490027.9418309-.2490027 1.1040471 0 1.4751812.2849381 1.4751812 1.1325698 0 .4346187.04027.5029411.201417.3417345.142218-.1422699.201418-.8739811.201418-2.4895225 0-1.2584176.05866-2.3786701.13036-2.4894497.08039-.1242103.500356-.2014176 1.095598-.2014176h.965238l.573917 1.2085061c.507759 1.0691978.624689 1.208506 1.014366 1.208506.242247 0 .65033.1803446.90685.4007651l.466399.4007658 5.480343.042356 5.480343.042357-.644536.3222682c-.598079.2990391-1.020211.3256328-5.85644.3689463l-5.211903.0466803-.706176-.6509308c-.694547-.6402117-.726137-.6509309-1.918284-.6509309h-1.212105v.5639697.5639691h1.682399c1.702005 0 1.928832.075404 1.938859.644537.0033.1878869.265494.2522648 1.177566.2891461.693454.028037 1.134387.1104161 1.078145.2014174-.05501.089012-1.399809.1554845-3.187482.1575558-2.820976.00329-3.127671.031229-3.495158.3186859-.3364995.2632126-.6630724.3156915-1.9831584.3186843l-1.5803229.0036116zm19.2647954.0675725c-.892322-.076456-.734333-.3545883.201418-.3545883.443119 0 .805671.064753.805671.1438945 0 .2050258-.311832.2702641-1.007089.2106938zm-8.822094-.1934539c0-.095408.587655-.1611344 1.440697-.1611344.792383 0 1.485512.072511 1.540284.1611344.06374.1031303-.454874.1611343-1.440697.1611343-.919433 0-1.540284-.064949-1.540284-.1611343zm3.544951 0c0-.098829.778815-.1611344 2.014176-.1611344 1.235363 0 2.014178.062306 2.014178.1611344 0 .098829-.778815.1611343-2.014178.1611343-1.235361 0-2.014176-.062306-2.014176-.1611343zm28.790611-.04004c-.222482-.162682-.279599-.3841372-.240531-.9326023.0503-.7061391.06241-.7201818.66383-.7697686l.612599-.050505-.04863.9367462c-.0413.7955261-.09739.9437354-.372068.9831103-.177891.025499-.454731-.049643-.6152-.1669776zm.696937-.9401875c0-.8395489-.381011-.783878-.452846.066167-.03804.4501616.01017.5917968.201418.5917968.186765 0 .251428-.1692163.251428-.6579638zm-35.248224.4565471c.05102-.1533659 1.313179-.2206389 5.290571-.2819852 2.983587-.046015 5.361757-.1496651 5.54583-.241701.207915-.1039578 2.923806-.1325459 7.653872-.080567l7.331604.080567.01279.3625518.01279.3625513h-7.062413c-5.377177 0-7.0528-.045782-7.02213-.1918479.02216-.1055156-.08661-.2195984-.241702-.2535161-.175201-.038314-.281984.034336-.281984.1918484 0 .2257811-.618454.2535156-5.653123.2535156-4.450813 0-5.638872-.042839-5.586114-.2014169zm26.305279-.201418c0-.2506534.09131-.4028354.241701-.4028354.150392 0 .241702.152182.241702.4028354s-.09131.4028349-.241702.4028349c-.150391 0-.241701-.1521815-.241701-.4028349zm.88038.1681928c.107104-.1290537.147959-.3103294.090787-.4028354-.062524-.1011652.071573-.1681928.336485-.1681928h.440433l-.378445.4028354c-.398932.4246449-.823118.5704663-.48926.1681928zm1.133796-.2286182c0-.2473366.943732-.34241 3.398903-.34241 2.059856 0 2.37894.033545 2.299064.241701-.07753.2020272-.552796.2417016-2.895358.2417016-1.541433 0-2.802609-.063447-2.802609-.1409926zm-16.395398-.7757546c.155092-.04053.281985-.1408837.281985-.2230088 0-.2258943.768097-.1789128.851756.052101.05835.1611339.14117.1611339.414078 0 .187623-.1107798.843649-.2014182 1.457832-.2014182.746547 0 1.141178.066764 1.190551.2014182.05908.1611339.116553.1611339.287355 0 .117427-.1107798.410489-.2014182.651251-.2014182.240761 0 .470981.090638.511601.2014182.05908.1611339.116554.1611339.287355 0 .258652-.2440106 2.566062-.2802333 2.566062-.040286 0 .088623.108765.161134.241701.161134s.241701-.064081.241701-.1424026c0-.2361708 3.741867-.2165393 3.909617.020511.114407.1616705.159736.16188.224998.00104.10152-.2502005 1.182812-.2689904 1.182812-.02056 0 .1261992.07194.121156.238032-.016687.160118-.1328856.687571-.1789018 1.611366-.1405811l1.373331.056967-.000024-.4301688c-.000019-.3731068.106851-.4656668.805648-.69777.756163-.2511567.876667-.372761.821574-.8290794-.03299-.2732547.864943-.5346812 1.385007-.4032341.341761.086381.557112.3294128.882171.9955635.236519.4847076.48004 1.08069.541153 1.3244058l.111118.4431189-11.176007-.01869c-6.146806-.0102854-11.049116-.0518565-10.894024-.092388zm21.197196-.5656889c.546936-.5469369-.09626-1.4581305-.773443-1.0957124-.314259.1681857-.454882.941615-.214846 1.1816505.175079.1750797.77986.1224898.988289-.085938zm-.780154-.2175619c-.17125-.2063438-.160671-.2964251.06083-.5179309.250102-.2501013.286187-.2501013.536287 0 .221506.2215058.232087.3115871.06084.5179309-.11402.1373838-.26206.2497883-.32898.2497883s-.214962-.1124045-.32898-.2497883z" fill="#273839" opacity=".997" stroke-width=".161134"/></svg>