<svg height="128" viewBox="0 0 126.03717 33.866668" width="476.36099" xmlns="http://www.w3.org/2000/svg"><path d="m62.384802 30.517475c-.161259-.260915.000597-.812515.679055-2.311868l.523363-1.15687-1.231651-1.120329c-1.905947-1.733663-2.067392-1.820739-2.636624-1.422031-.286004.20033-.911349.333775-1.564097.333775-.772693 0-1.122622.09135-1.208641.315514-.101905.265555-.771584.315508-4.229324.315508h-4.108248v-.946534-.946534l2.208579-.0047c1.214719-.0024 4.196301-.0047 6.625739-.0047 2.429436 0 6.25512.0018 8.501516.0047l4.084363.0047-.0628.84203c-.06061.812643-.180625.937418-3.439397 3.575797-3.23364 2.618032-3.850215 2.993396-4.141831 2.521542zm1.578719-1.365334c0-.17353-.141978-.315507-.315514-.315507-.17353 0-.315508.141977-.315508.315507 0 .173537.141978.315514.315508.315514.173536 0 .315514-.141977.315514-.315514zm2.884123-2.564257c.09904-.258104-.205721-.661932-1.110894-1.472006-1.307499-1.170137-1.843031-1.362823-2.08166-.748993-.106691.274452.168528.647747 1.081786 1.467286 1.273966 1.143231 1.878459 1.359083 2.110768.753713zm-1.731106-.927361c-1.09374-.900129-1.353791-1.241055-.946658-1.241055.279821 0 2.317473 1.710618 2.317629 1.945658.000208.317047-.34538.139436-1.370971-.704603zm4.000337-.902615c0-1.094951-1.334104-1.312019-1.542763-.251018-.136582.694485.141272.994179.857705.925135.59998-.05783.685058-.141536.685058-.674117zm-1.095744.269584c-.333281-.333282-.09815-.81836.39668-.81836.304095 0 .395106.120297.345593.456787-.07911.537614-.406673.697174-.742273.361573zm-11.982273-.53608c.07611-.07612.03297-.265429-.09587-.420685-.177329-.213663-1.017481-.282279-3.456389-.282279-3.083558 0-3.673472.11105-3.352112.63102.143974.232959 6.6753.301008 6.904371.07194zm-5.063888-.228289c.896578-.03942 2.363706-.03942 3.260284 0 .896577.03941.163014.07169-1.630143.07169-1.793155 0-2.52672-.03226-1.630141-.07169zm10.998962-.06798c.193582-.313229-.03089-.483534-.433593-.328988-.185853.07132-.278999.224991-.206996.341496.170494.27587.465927.270098.640589-.01251zm33.821387 6.1259c-.35551-.216204-.761095-.70963-.901298-1.096507-.140204-.386873-.815026-2.331969-1.499618-4.32243-1.078646-3.136141-1.212185-3.690433-1.000864-4.154232.134122-.29437.312285-.535216.395897-.535216.267783 0 .401813.915064.174225 1.189301-.257763.310571-.07036.703768.335515.703768.410043 0 1.227432 2.50945.932972 2.864256-.260857.314315-.08194.711537.320378.711537.1513 0 .50935.657261.79568 1.460581.475302 1.333466.49157 1.489608.187015 1.794163-.304545.304555-.291095.344699.154563.461246.415456.108642 1.027801 1.040747.820123 1.248412-.03745.0375-.359078-.108683-.714588-.324879zm.974547-.135164c-.117827-.309889-.160338-.733222-.09448-.940732.06785-.213897-.0097-.452369-.179154-.550653-.478621-.277599-1.42331-3.118133-1.133429-3.408014.179618-.179618.128162-.31813-.204795-.55135-.484831-.339585-1.3733-2.682314-1.194228-3.148963.06109-.159102-.08565-.485902-.325931-.726223-.640153-.640149-.539874-1.006908.40742-1.490181l.844355-.430761.172592.479075c1.186201 3.292662 3.684522 10.881637 3.605637 10.952596-.05673.0511-.458876.15718-.893512.235767-.721828.130511-.808814.0941-1.004478-.420561zm-22.499642-.0018c-1.174961-.508934-1.876088-1.322698-2.863148-3.323095-.877401-1.778157-1.175897-3.072472-.708581-3.072472.117925 0 .672663.970198 1.232749 2.155993 1.329703 2.815218 2.328682 3.733556 4.061409 3.733556.35384 0 2.650801-.520598 5.104361-1.156876 2.453568-.63628 4.587331-1.156877 4.741718-1.156877.67852 0-.13449.263825-2.922994.948524-1.913073.469744-3.488618.999029-4.376638 1.470279-1.56452.83025-2.972479.962497-4.268876.400968zm22.932034-5.539961c-1.067206-3.115734-1.875539-5.76988-1.796293-5.898103.07926-.128228.316262-.178491.526702-.111706.477768.151643 2.779795-.951703 2.656434-1.273209-.126577-.329841 2.051749-1.355718 2.872339-1.352724l.67894.0024 2.05083 6.054551c1.12796 3.329998 2.05082 6.157703 2.05082 6.283783 0 .237764-1.43951 1.011173-1.59417.856503-.0482-.04818-.74381-2.020348-1.54579-4.382548-.80195-2.362203-1.61236-4.734948-1.80087-5.272776-.23223-.662593-.49128-1.018184-.80348-1.102922-.645535-.175218-3.826039 1.25565-4.093264 1.841511-.16183.354764.140435 1.45916 1.4327 5.234872.900779 2.631891 1.563012 4.785256 1.471623 4.785256-.0914 0-1.039314-2.549232-2.106521-5.664962zm-17.989023 5.111076c.988129-.562034 6.836075-1.979307 6.836075-1.656747 0 .146331-.118313.361949-.262927.479147-.481085.389894-4.324159 1.317492-5.245191 1.266019-.499002-.0279-1.143909.02159-1.433127.109898-.445071.135931-.428919.105464.10517-.198317zm19.043669-4.021027c-.831989-2.400517-1.529048-4.597824-1.549043-4.882899-.02938-.419237.164712-.63012 1.01537-1.103102 1.381383-.76809 2.583159-1.138082 2.845269-.875974.22545.225451 3.57384 9.847928 3.56373 10.241328-.0122.47871-.4163-.461301-1.35196-3.145632-2.23197-6.403352-2.35338-6.699441-2.77304-6.762932-.5468-.08272-2.792856.929069-2.945509 1.326876-.06721.175163.598384 2.354106 1.479113 4.842104.88071 2.487995 1.601316 4.568897 1.601316 4.624216 0 .05533-.0838.100591-.186275.100591-.102458 0-.867-1.964062-1.698971-4.364576zm3.256986 3.845196c1.332-.421143 2.33714-.60283 2.09888-.379388-.21474.201386-2.25096.705277-2.69788.66763-.13579-.01145.13376-.141149.599-.288242zm-1.05622-.269746c.11568-.112963.68361-.317189 1.26204-.453836.57844-.136646 1.2292-.301637 1.44615-.36664.23565-.07062.34175-.03297.26356.09354-.072.116457-.62808.32417-1.23578.46158-.60773.137417-1.29426.299546-1.52563.360291-.27583.07241-.34825.03971-.21034-.09494zm-26.20893-.525491c-.520607-.344736-1.038998-1.101636-1.90879-2.787017-1.2603-2.44208-1.334378-2.629259-1.040453-2.629259.101408 0 .636535.942747 1.189173 2.094996 1.880298 3.920448 2.049188 3.96531 8.647338 2.297085 4.278527-1.081757 5.508146-1.309958 5.106122-.947644-.04816.04346-2.154111.611363-4.679796 1.262048-5.113746 1.317438-6.232041 1.425972-7.313594.709791zm25.683071-.132191c0-.188047 2.413999-.866935 3.082649-.866935.70708 0-.0336.362939-1.44315.707221-1.643253.401341-1.639499.400978-1.639499.159714zm6.636199-.670628c-.0612-.165814-1.00878-2.928111-2.10599-6.138439l-1.99486-5.836963h.62538c.34397 0 .62541.03816.62541.08475 0 .04663.86411 2.611069 1.92023 5.698786l1.92022 5.614038-.43965.43965c-.35205.352044-.46178.37958-.55074.138173zm-45.391509-1.380951c-.896575-.744828-1.630137-1.435425-1.630137-1.534674 0-.355678.698694-.439485 1.133927-.136015.243993.170126.899662.716534 1.457042 1.214229.84277.752537.984442.981172.841363 1.357794-.162244.427075-.264959.375705-1.802195-.901334zm38.544963 1.218117c0-.09728.496946-.288664 1.104306-.425298.60735-.136643 1.31724-.304722 1.57755-.373518.2603-.0688.47327-.03089.47327.08422 0 .115115-.61104.362789-1.35787.550383-1.548236.388906-1.797256.411659-1.797256.164218zm-19.810143-.853293c.144768-1.518017-1.375613-5.97217-2.246835-6.582395-.382454-.267884-.413476-.403578-.234753-1.026758.113268-.394944.206586-1.049994.207373-1.455664l.0012-.737582 1.208033-.05965c.968148-.04781 1.303707-.162667 1.689815-.578438.264928-.285331.575844-.51879.690877-.51879.480656 0-1.239151 1.231275-1.81056 1.296249-.585677.06659-.637667.14885-.842567 1.333016-.215272 1.244107-.208649 1.27485.466333 2.163024.724059.952753 1.623638 3.482017 1.927406 5.419093.194887 1.242797.198215 1.234926-.602605 1.425473-.505553.120294-.527023.08825-.453992-.67758zm19.514932.01133c-.169106-.273639-.06554-.328648 1.424167-.756342 1.1965-.343512 1.81583-.325648 1.81583.05241 0 .100908-.49693.295266-1.1043.431902-.60735.136635-1.30657.301925-1.55381.367303-.247252.06538-.509092.02254-.581887-.09525zm-18.275285-1.137158c-.180541-1.670323-.912697-3.78496-1.732011-5.002456-.674755-1.002683-.720612-1.16873-.57077-2.066682.137797-.825748.243433-.987268.684671-1.046864.286958-.03876.758371-.291652 1.04759-.561976.669693-.625953 1.927674-.884453 2.273913-.467263.197316.237746.157487.382203-.192776.699184-.57642.521645-1.029431 1.412604-1.029431 2.024616 0 .268458.433658 1.228927.963682 2.134368 1.10081 1.880517 2.082056 4.324791 1.833522 4.567254-.127801.12468-2.755694.824116-3.096338.824116-.03447 0-.116406-.496934-.182052-1.104297zm2.593353.147201c.223557-.269351.209739-.386943-.07943-.676091-.326478-.326476-.373579-.326476-.700056 0-.289151.289148-.30296.40674-.07943.676091.148837.179338.342081.326067.429435.326067.08737 0 .280614-.146729.429443-.326067zm-.639774-.304952c0-.115691.09465-.210344.21033-.210344.115689 0 .210349.09465.210349.210344 0 .115687-.09466.210341-.210349.210341-.115679 0-.21033-.09465-.21033-.210341zm-2.839606-6.833202c0-.481275-.706148-.707352-.954458-.305574-.260158.420941.02099.856567.507962.787087.283859-.04048.446496-.215894.446496-.481513zm-46.380167 7.456822c0-.235444.149579-.656367.332399-.93539.182822-.279019.315629-.86727.295131-1.307232-.02049-.439954-.0281-.918235-.01689-1.062848.01536-.19803.817016-.262924 3.248064-.262924 2.960553 0 3.259191.03482 3.608396.420685.335983.371255.647843.420677 2.654459.420677 2.058477 0 2.295066-.03983 2.498893-.420677.158639-.296423.440415-.420685.953933-.420685h.728795l-.03535 1.630143c-.01946.89658-.0716 1.251529-.115902.788779-.0443-.462749-.235784-.959679-.425525-1.104293-.43256-.329674-6.405794-.368179-7.009314-.04519-.297223.159065-.406855.442465-.406855 1.051706v.833964h-2.285381c-1.966888 0-2.359916.05861-2.820194.420677-.692571.544784-1.20465.541635-1.20465-.0074zm6.06127-2.358936.06656-.578433h-2.012209c-1.967803 0-2.01221.01085-2.01221.490792 0 .269942.06651.557306.147796.638593.08129.08129.956831.120727 1.945652.08765 1.788011-.05983 1.798223-.06332 1.864415-.638594zm-3.747521-.05259c0-.238384.257083-.315514 1.051705-.315514.794621 0 1.051704.07713 1.051704.315514 0 .238383-.257083.315512-1.051704.315512-.794622 0-1.051705-.07713-1.051705-.315512zm2.365281.05259c.133223-.40452 1.000172-.462785 1.000172-.06722 0 .214766-.189901.330145-.543378.330145-.340661 0-.511079-.09809-.456794-.26293zm-3.206644-.696017c0-.347078-.332432-.405718-.525853-.09276-.171534.277544.07998.671422.330046.516869.107692-.06656.195807-.257409.195807-.424113zm49.366508 2.810243c.122791-.642379-.569164-2.390941-1.738803-4.393873-1.143496-1.958172-1.203997-2.736554-.301007-3.872824.714848-.899514.730619-.958405.368102-1.374582-.144615-.166012-.0027-.0738.315513.204941.705871.618428.706781.646326.05257 1.610335-.289221.426187-.525643.974648-.525378 1.218802.000213.244155.474787 1.28951 1.054491 2.323012 1.008715 1.798375 2.041867 4.244009 1.866807 4.419071-.04568.04567-.331418.145375-.634987.221564-.493763.123928-.541977.08637-.457327-.356446zm21.643692-3.271096c-.67806-2.053458-1.51321-4.514445-1.85586-5.468868l-.623-1.735308h-1.45773c-1.24985 0-1.66817.105957-2.933113.742977-.811438.408634-1.420825.831208-1.354167.939046.06665.107835-.3484.434015-.922322.724839-.652751.330776-1.072249.44249-1.120294.298347-.04579-.13744-.773794.120011-1.803903.637937-2.160359 1.086203-2.287752.84491-.147267-.278929.866407-.45489 1.575295-.937446 1.575295-1.072339 0-.280831 1.642018-1.075724 2.035719-.985475.143643.03291.836661-.23064 1.540024-.585707 1.210408-.611 1.392238-.642367 3.395588-.585719l2.11671.05986 1.65229 5.046388c1.50104 4.584444 1.80114 5.996505 1.27438 5.996505-.0767 0-.69425-1.680095-1.37235-3.733547zm-65.751678 2.371546v-.951745h3.482719 3.482719l-.06468.893945-.06468.893952-3.418039.05778-3.418039.05778zm58.400092.629434c-.174232-.454049 2.770126-1.35357 3.033846-.926857.24176.391183.0754.505624-1.30882.899944-1.459812.415878-1.57508.417679-1.725026.02689zm-.43941-1.100525c-.0698-.181787-.09958-.357768-.06628-.391069.09545-.09545 2.979936-1.126592 3.018046-1.078888.0188.02356.0957.24341.17094.488644.11195.364895.0308.468915-.44713.572686-.32116.06975-1.02599.264587-1.566333.432976-.880303.274364-.995571.271829-1.109226-.02432zm15.074846-2.262159c-2.24602-2.043817-2.52778-2.064703-4.3427-.321905-1.33419 1.281139-1.59409 1.448499-1.59409 1.026496 0-.129546-.58145-2.022614-1.29212-4.206815l-1.29209-3.971275-2.44145.0035c-2.28927.0035-2.50959.04139-3.534952.606748-1.004376.553802-1.325403.608948-1.325403.227692 0-.07885.378619-.31407.84137-.522743.954895-.430605.981147-.478525.473253-.864068-.523921-.397722-8.522386-.416504-8.85081-.02081-.170172.205047.05997.632315.934947 1.735314.638374.804807 1.283366 1.58896 1.433303 1.742553.225799.231295.638865.09548 2.404772-.790694 1.172668-.58848 2.132142-1.023367 2.132142-.966419 0 .05694-.473271.34337-1.051707.636488-.578436.293113-1.051708.626615-1.051708.741117 0 .225373-3.92851 2.247439-4.059045 2.089249-.04357-.05276-.807953-1.066133-1.698702-2.251934l-1.619548-2.155992h-2.937096c-1.639821 0-2.93708-.08516-2.93708-.192813 0-.106048.07099-.22436.157753-.262924.08676-.03857.713571-.709029 1.392908-1.489914l1.235134-1.419802 2.235489.0083 2.23548.0083.690274.938335.690265.938332h13.552921c15.37266 0 13.83547.202293 14.10861-1.856687.13607-1.025809.17907-1.088086.75126-1.088086h.60692l-.0555 6.57315-.0556 6.573154-1.99824.05896-1.99824.05897zm5.31646-1.163268c0-.154254-.11832-.319896-.26293-.368095-.15641-.05212-.26294.09699-.26294.368095s.10653.420231.26294.368095c.14461-.04817.26293-.213848.26293-.368095zm-1.07422-.122374c.24722-.644251.14096-5.880095-.12474-6.145787-.13881-.138822-.6005-.252406-1.02594-.252406-.43097 0-.8895-.139724-1.03539-.315514-.36093-.434881-8.23306-.471025-8.59124-.03941-.16976.204535-.0518.817706.45485 2.366336.63969 1.954958.71753 2.085511 1.20247 2.016819.28518-.04042 1.30218-.118427 2.26-.173388l1.74149-.09994 1.71076 1.488016c1.46256 1.272132 1.82461 1.488018 2.49541 1.488018.52147 0 .82748-.111605.91233-.332715zm-3.21047-1.364356-1.71766-1.486735-1.94184.0723c-1.06801.03977-2.07453.117216-2.23668.172098-.21345.07225-.45934-.422782-.89071-1.793269-.32773-1.041186-.59733-1.964061-.59912-2.050827-.002-.08676 1.83093-.157753 4.07266-.157753 3.36642 0 4.12149.05491 4.33775.315513.15036.181186.60909.315507 1.07746.315507h.81561v3.049944 3.049945h-.59991c-.44105 0-1.05473-.393669-2.31756-1.486731zm2.18314-.409356c.19568-.316616-.0772-.992248-.46019-1.139197-.98067-.376318-1.71714.740371-.91608 1.389029.46854.379394 1.05296.273312 1.37627-.249832zm-1.13681.02081c-.39771-.25156-.12043-.908988.34553-.819254.20281.03905.36874.251136.36874.471287 0 .466691-.29745.611601-.71427.347967zm-7.29342.1687c-.17923-.290012-.72147-.2194-.72147.09394 0 .154248.0623.342731.13841.418855.19021.190219.7262-.281189.58306-.512804zm-20.706074-5.337188c.317569-.38265.141891-.912953-.36109-1.089984-.205082-.07218-.62548-.364334-.934229-.64923-.64951-.59936-.940551-.494159-1.351095.488413-.408001.976476-.208856 1.316388.826356 1.410511.481668.04383 1.029801.09617 1.218087.11638.188294.02022.459172-.104027.601971-.27609zm-.904876-.03332c-.297732-.297746-.129256-.705523.291503-.705523.294052 0 .413955.114229.368098.350668-.07508.387127-.434144.580298-.659601.354855zm-1.616997-.665319c0-.209267.133437-.562957.296517-.785988.289433-.395815.306856-.396144.729426-.01371.335666.303772.385527.480332.22194.785983-.280456.524038-1.247883.534681-1.247883.01371zm33.864897-1.407422c0-.173529-.14198-.315507-.31551-.315507-.17354 0-.31553.141978-.31553.315507 0 .173537.14199.315514.31553.315514.17353 0 .31551-.141977.31551-.315514zm-20.908957 11.334574c-.07434-.193541-.109141-.36675-.07749-.384916.03161-.01819.697421-.28052 1.479502-.583017 1.359325-.525766 1.431125-.532909 1.629565-.162106.18074.337687.0648.440783-.89612.796645-1.890789.700262-1.988807.715561-2.135453.333394zm21.750307-7.022586v-7.3898756l.57844.066556.57844.066556v7.2567636 7.25676l-.57844.06656-.57844.06656zm-78.562316 6.310138c-.209391-.231371-.484358-.420523-.611038-.420332-.147095.000233-.230325-.588842-.230325-1.630136v-1.630497h-.841363-.841365l-.06262 1.438738c-.03445.791303.02867 1.548531.140245 1.682726.152211.183064-.312579.226108-1.861295.172374-1.329423-.04614-2.231165.01777-2.533328.179474-.671002.359111-.829271-.0042-.833127-1.911676-.0029-1.395987.05711-1.650154.483603-2.050822l.486824-.457347h11.362379c6.249309 0 11.428679.0663 11.509713.147336.08103.08104-.919164 1.216877-2.222673 2.52409l-2.370014 2.376757h-2.108828c-1.881029 0-2.137209-.04543-2.371548-.420685-.190802-.305519-.49052-.420678-1.0949-.420678-.616908 0-.890421.108827-1.057323.420678-.202792.378925-.440416.420685-2.393721.420685-1.901446 0-2.215476-.05181-2.549291-.420685zm14.408353-1.998238c2.198619-2.204874 2.480163-2.418918 3.181762-2.418918.490147 0 .813679.114593.890779.315513.13251.345302 1.1135.421555 1.584728.123178.161468-.102244.235425-.337426.164354-.522637-.110865-.288902.079-.336739 1.336567-.336739h1.465788v.736198c0 .595963-.08014.736192-.420684.736192-.377535 0-.420685.140224-.420685 1.367213 0 1.226988.04317 1.367218.420685 1.367218.308501 0 .420684.140224.420684.52585v.525855h-5.518023-5.518017zm6.977271.598425c.477304-.431954.489002-.870682.03655-1.370643-.489902-.541327-4.357086-.569899-4.946434-.03655-.472087.42723-.493295.985587-.05414 1.424761.48973.489729 4.418815.475818 4.964007-.01759zm-4.960161-.414741c-.136365-.355372.199777-.919877.547756-.919877.109786 0 .04758.152013-.138185.337796-.260802.260808-.282326.404627-.09444.631026.148487.178914.160089.293227.02976.293227-.117478 0-.272679-.153981-.34489-.342172zm4.695305.04894c.187886-.2264.166362-.370218-.09444-.631027-.185789-.185783-.24797-.337796-.138185-.337796.10978 0 .307483.129982.439329.288851.262907.316783.103407.973198-.23647.973198-.130331 0-.118723-.114312.02975-.293226zm2.28076 1.660439c.107379-.561714.682502-.73896.682502-.210336 0 .26494.45712.315507 2.852022.315507 1.847779 0 2.806236.07406 2.722016.210341-.0772.124901-1.394735.210343-3.243532.210343h-3.113533zm56.798908-3.94389c-.0333-2.45836-.0336-5.493422-.0006-6.744587.0582-2.2133753.0724-2.2730533.52585-2.2085819.36293.051632.4815.2291357.53599.8024599.0759.798074-.29808 2.313752-.57082 2.313752-.16267 0-.13973 1.375158.0632 3.786135.0536.636279.11771 1.2042.14262 1.262041.065.151016.16727 1.002379.25951 2.160661.0439.552079.14095 1.064787.21551 1.139347.25852.25853.1339 1.299098-.19498 1.627979-.84376.843772-.91257.552031-.97612-4.139206zm-55.800893 3.628381c-.07151-.115688.02755-.210341.220151-.210341.19258 0 .631365-.236638.975082-.525856.34372-.289212.759659-.525849.924318-.525849.221098 0 .299373-.290096.299373-1.109552 0-1.10126.0118-1.121269 1.577556-2.676584.867655-.861869 1.577554-1.68213 1.577554-1.822807 0-.73569-.627784-.381202-2.335927 1.31903-1.62783 1.620288-1.870888 1.955841-1.870888 2.582812 0 .666491-.02766.696858-.368095.404454-.202456-.173874-.533745-.374879-.736198-.446679-.236261-.08378-.368097-.349625-.368097-.742256 0-.487886.34331-.94694 1.695974-2.267765l1.695969-1.656049 3.773209-.105171c2.075268-.05783 3.773067-.03417 3.772895.05259-.000174.08676-.101559.157761-.225291.157761-.123731 0-.194721.212965-.157753.473267.06238.439215.172933.473266 1.536717.473266 1.271057 0 1.479796-.05343 1.545668-.395481.04192-.217508-.04293-.469063-.18843-.559-.147659-.09126.354651-.195358 1.136622-.235544.770666-.03959 1.401013-.04228 1.400769-.0059-.000209.03637-.40272.533254-.894387 1.104186l-.893951 1.038052-3.438171.000101c-2.87045.000089-3.539041.05969-4.049061.360965l-.610891.360863v2.331502c0 1.532938-.08645 2.417952-.252412 2.58391-.316498.316502-5.549003.354836-5.742305.04209zm5.354086-.303932c.138732-.167164.221312-.522119.18351-.788782-.05306-.374183-.223113-.499764-.745123-.550217-.576071-.05569-.696542.01491-.812265.475997-.238062.948502.774864 1.584763 1.373878.863002zm-1.042094-.514927c0-.470071.486295-.714113.799293-.401117.312996.312992.06895.799291-.401116.799291-.250452 0-.398177-.147728-.398177-.398174zm.584216-1.401647c.858386-.601238.38423-2.196656-.652843-2.196656-1.10247 0-1.621183 1.569601-.725938 2.196656.257119.180089.567342.327439.689394.327439.122045 0 .432275-.14735.689387-.327439zm-1.362615-.35617c-.358289-.473667-.26466-1.199287.18586-1.440401.314255-.168183.393763-.168289.289995-.000376-.08146.131794.0035.231318.197373.231318.19391 0 .278826-.09952.197368-.23133-.10377-.167901-.02427-.167795.289995.000381.779406.417132.411389 1.703331-.487363 1.703331-.260892 0-.563842-.118317-.673228-.262923zm1.022488-.396776c-.249938-.09246-.454432-.224067-.454432-.292468 0-.0684.09466-.06586.210343.0054.115683.07151.210336.02415.210336-.105169 0-.129344.09465-.176667.210342-.105172.115689.07151.210343.04871.210343-.05068 0-.09938-.33129-.180686-.736192-.180686-.404908 0-.736197.04871-.736197.10829 0 .285754.981986.995443 1.243218.898483.214038-.07944.170095-.156944-.157761-.278226zm5.01443-4.283312c0-.24221-.268767-.315507-1.156876-.315507-.888102 0-1.156876.07329-1.156876.315507 0 .242211.268774.315513 1.156876.315513.888109 0 1.156876-.0733 1.156876-.315513zm-1.524972-.04328c.260295-.05014.68624-.05014.946535 0 .260294.05015.04734.09116-.473267.09116-.520591 0-.733563-.04102-.473268-.09116zm23.923559 7.295628c-.07295-.118109.20537-.354739.618602-.52585.413232-.171109 1.097138-.454323 1.519825-.629375.422668-.17505.812968-.273788.867348-.219411.2818.281807-.25631.725514-1.374268 1.133141-1.440885.525378-1.45479.527434-1.631507.241495zm-91.8811928-.135809c-.077124-.07712-.1402268-.929005-.1402268-1.893068 0-1.47406.054088-1.752839.3400426-1.752839.2611328 0 .301885.109821.1756053.473267-.2117625.609461-.2117625 2.230136 0 2.839602.1565859.450663-.062997.645462-.3754211.333038zm20.7188778-.122702c-.029617-.308303-.252799-.368095-1.373996-.368095h-1.338639l-.327031-.893946c-.179865-.491672-.382531-1.130582-.450367-1.419801l-.123337-.525855.232913.525855c.509952 1.151325.517924 1.156877 1.662372 1.156877 1.127804 0 1.215817-.05759 1.607983-1.051705.128368-.325417.182239-.21698.237882.478823.03956.494731.03496 1.251959-.01024 1.682727-.04519.430772-.09809.617575-.117537.41512zm12.374754-1.4198v-1.262042h.631022.631023v1.262042 1.262047h-.631023-.631022zm24.904777.968654c-.06191-.161362-.08262-.658293-.04597-1.104288l.0666-.810901 1.209459-.06308 1.209465-.06307v1.167369 1.167372h-1.163478c-.80118 0-1.198534-.09136-1.276065-.293393zm-54.5248121-.309676c-.1738691-.110245-.2524109-.482115-.2103406-.995897.065583-.80089.087756-.821448.9541337-.884293.799627-.05801.900278-.01139 1.021921.473268.07421.295683.07554.774238.0029 1.063456-.106961.426164-.260813.525242-.811581.522631-.3737806-.0018-.8044665-.0824-.9570822-.179165zm2.2757201-.133123c0-.173607.186237-.315513.414082-.315513.281654 0 .37536.100902.293006.315513-.06659.173531-.252926.315514-.41408.315514s-.293008-.141983-.293008-.315514zm1.189944.01032c-.09277-.241765.01346-.325841.411743-.325841.335885 0 .504014.0984.449235.262925-.13085.392995-.717855.435889-.860978.06291zm1.258083-.01032c-.09069-.23632.03399-.315513.496747-.315513.462755 0 .587431.07919.496745.315513-.06659.173531-.290125.315514-.496745.315514-.206621 0-.430157-.141983-.496747-.315514zm1.478337.175283c-.284892-.28489-.12588-.490796.379024-.490796.375138 0 .485647.08757.398178.315513-.125603.327313-.533237.419248-.777202.175283zm1.262045 0c-.284891-.28489-.125879-.490796.379023-.490796.375139 0 .48565.08757.398178.315513-.125602.327313-.533236.419248-.777201.175283zm1.256095-.175283c-.08721-.22727.02231-.315513.391575-.315513.369271 0 .478787.08825.391577.315513-.06659.173531-.242801.315514-.391577.315514-.148777 0-.324986-.141983-.391575-.315514zm1.262044 0c-.09068-.23632.03399-.315513.496747-.315513.462756 0 .587432.07919.496747.315513-.06659.173531-.290127.315514-.496747.315514-.206621 0-.430156-.141983-.496747-.315514zm1.338111-.01002c0-.265434.239683-.313986 1.297936-.26293.80366.03875 1.330993.16275 1.384742.325548.06356.192509-.284069.262931-1.297935.262931-1.10963 0-1.384743-.06468-1.384743-.325549zm76.774413.08379c0-.3969 2.786839-1.468622 2.994529-1.151588.0982.149901-.22925.4083-.89446.705855-1.49261.667659-2.100069.796591-2.100069.445733zm-91.0775929-.915132c0-.691791.077624-.955716.2629265-.893952.1493712.04979.2629255.435877.2629255.893952 0 .458074-.1135543.844158-.2629255.893945-.1853005.06176-.2629265-.202161-.2629265-.893945zm60.2062949.315507c0-.404902.04328-.57055.09619-.368096.05289.202454.05289.533744 0 .736198-.05288.202446-.09619.03679-.09619-.368102zm5.594751-.206157c-.04436-.465051-.0071-.845543.08268-.845543.08982 0 .163316.09699.163316.215542 0 .118558.260297.319145.57844.445756.325232.129438.463345.272942.315513.327833-.144614.05372-.262931.18998-.262931.302853 0 .112875.118317.137138.262931.0539.144606-.08322.188352-.06946.09722.03059-.09114.100044-.388642.211755-.66112.248245-.438618.05872-.504646-.03059-.576041-.779204zm.774399.03345c-.167138-.167137-.528784.212285-.400376.420058.08735.141322.195739.11981.307505-.06102.09494-.153609.13673-.315173.09287-.359033zm2.784462.64694c-1.628862-.05462-2.050821-.132115-2.050821-.376658 0-.247095.367397-.307894 1.860465-.307894 1.593336 0 1.915134.0604 2.241177.42068.209395.231377.295056.400871.190357.376656-.104695-.0242-1.113226-.07496-2.241178-.112784zm-68.5185436-.684569c0-.580941.058427-.631027.7361926-.631027.6777658 0 .7361934.05008.7361934.631027 0 .580943-.058427.631021-.7361934.631021-.677765 0-.7361926-.05008-.7361926-.631021zm59.7534166.297983c.01009-.245037.05994-.294877.127078-.127082.06076.151838.0533.333257-.01657.403156-.06989.06989-.119606-.05432-.110478-.276074zm.57956-1.003862c.06845-1.09721.114514-1.171078 1.735308-2.782368.91575-.910385 1.665006-1.560437 1.665006-1.444569 0 .115873-.709904.915833-1.577561 1.777701-1.52415 1.513977-1.577555 1.601029-1.577555 2.571413 0 .552411-.07099 1.004512-.157753 1.004667-.08676.00016-.126117-.506919-.08744-1.126844zm-55.915819.705879c0-.135037 2.033296-.210342 5.679206-.210342 3.645907 0 5.679201.07531 5.679201.210342 0 .135031-2.033294.210337-5.679201.210337-3.64591 0-5.679206-.07531-5.679206-.210337zm12.052931-.918772c-.119584-.389639-.170629-1.195442-.113433-1.790676.114964-1.196449.375432-1.381839 1.75614-1.249945.684692.06541.718022.109435.847724 1.119792.07425.578437.03561 1.406653-.08587 1.840479-.214923.767464-.247458.78878-1.20401.78878-.93296 0-.994209-.03613-1.200543-.70843zm1.496853.160073c.182994-.07023.332714-.354181.332714-.631021 0-.398344-.111078-.503348-.532452-.503348-.619643 0-.891139.498435-.517029.949212.298018.359086.277394.353763.716767.185157zm-.508648-.60852c0-.192812.101753-.316651.226115-.275195.124366.04144.226117.16529.226117.275195 0 .109906-.101751.233745-.226117.275195-.124362.04143-.226115-.08238-.226115-.275195zm.841362-1.44988c0-.614446-.592188-.88768-1.012642-.467228-.427161.427165-.158312.970575.48019.970575.421374 0 .532452-.105004.532452-.503347zm-.841362-.02248c0-.192813.101753-.316652.226115-.275195.124366.04144.226117.165289.226117.275195 0 .109899-.101751.233738-.226117.275195-.124362.04143-.226115-.08238-.226115-.275195zm-13.041136 1.998239c0-.231378.130941-.420684.29098-.420684.160037 0 .340483.189306.400989.420684.0816.312038.0065.420678-.290978.420678-.260763 0-.400991-.14711-.400991-.420678zm1.2011 0c.0605-.231378.229911-.420684.376457-.420684s.315951.189306.376458.420684c.0866.33113.0065.420678-.376458.420678-.382912 0-.463048-.08955-.376457-.420678zm1.262045 0c.0605-.231378.237621-.420684.393589-.420684s.384893.189306.508721.420684c.201424.37636.159961.420678-.39359.420678-.515173 0-.600318-.07041-.50872-.420678zm1.362569.05497c.102423-.531835.725684-.579076.860069-.06518.09118.348718.01323.430867-.40891.430867-.38221 0-.502765-.09771-.451159-.365681zm1.305133.03297c.07022-.182993.127676-.372299.127676-.420679 0-.301167.601884-.01174.691968.332716.08846.338272.0065.420677-.418653.420677-.395656 0-.496542-.08371-.400991-.332714zm1.328776-.08796c.0605-.231378.22991-.420684.376456-.420684.146545 0 .315952.189306.376458.420684.0866.33113.0065.420678-.376458.420678-.382911 0-.46305-.08955-.376456-.420678zm1.262043 0c.0605-.231378.237622-.420684.39359-.420684.155969 0 .384893.189306.508721.420684.201424.37636.159962.420678-.39359.420678-.515174 0-.600317-.0704-.508721-.420678zm1.362047.05259c.05232-.275489.313941-.383945 1.039873-.431095.829256-.05384.986327-.000458 1.082705.368096.103512.395833.01846.431094-1.039873.431094-.984121 0-1.142387-.05378-1.082705-.368095zm54.76548-.57168c.167627-.401188.304776-1.016438.304776-1.367213 0-.540069.08056-.637781.525855-.637781.462897 0 .52585.09006.52585.752373 0 .551118-.164468.916841-.61484 1.367219-.831781.831775-1.118549.787463-.741641-.114598zm23.862947.519101c.173537-.112148.410164-.203903.525858-.203903.115704 0 .06841.09175-.105173.203903-.173528.11214-.410164.203895-.525859.203895-.115676 0-.06841-.09175.105174-.203895zm-34.533489-1.067883c-.08092-.848525-.05927-.878383 2.058632-2.839602l2.140413-1.982063h5.747248 5.747247l.975726-.961059c.861707-.84875 1.068721-.953212 1.771478-.893951l.79575.06711-.994967 1.104288-.994967 1.104287h-6.444325-6.444332l-1.844643 1.836098c-1.668559 1.660832-1.844646 1.911813-1.844646 2.629264 0 1.130577-.559794 1.076677-.668614-.06438zm-4.660018-.124054c-.301543-.301537-.112284-.490796.490797-.490796.420678 0 .63102.105171.63102.315513 0 .318362-.846478.450628-1.121817.175283zm28.099134-1.01745c-.882471-1.142633-.905756-1.156072-2.004018-1.156072-.67113 0-1.298614.131287-1.584486.331522-.449191.314631-.505196.297376-1.099426-.33875-.547764-.58638-.718152-.653003-1.361398-.532329-.459171.08614-.735267.05539-.735267-.08193 0-.142739 1.060977-.21987 3.024458-.21987h3.02446l1.187369 1.577554c.905674 1.203306 1.098844 1.57737.814256 1.576756-.205202-.000442-.774878-.521031-1.265948-1.156876zm-60.094083.684413c-.04402-.144613-.183035-.584675-.30891-.977927-.130696-.408305-.228866-2.373495-.228866-4.581511 0-3.2428698-.05089-3.8860534-.315513-3.9875932-.17353-.066593-.31551-.3475798-.31551-.6244264 0-.4698874.07689-.5033471 1.156874-.5033471h1.156876v5.4688677 5.468862h-.532453c-.292851 0-.568474-.118318-.612498-.262925zm.93461-2.694262c0-.108861-.141981-.197929-.315511-.197929-.325274 0-.417885.248198-.181003.485079.168048.168045.496514-.02194.496514-.28715zm0-3.878893c0-.173531-.08906-.315514-.197927-.315514-.265235 0-.455199.32847-.28715.496514.236883.236887.485077.144273.485077-.181zm.631023 2.944773c0-3.131742.04708-3.680965.315511-3.680965.264819 0 .315512.45464.315512 2.829705 0 1.710044.09722 3.043088.245713 3.368987.209584.459988.186389.584167-.157755.84457-.22191.167908-.47446.308299-.561226.311978-.08677.0035-.157755-1.649742-.157755-3.674275zm62.258134 2.062698c-.519073-.658674-1.067447-1.368572-1.218607-1.577555-.262536-.36292-.08491-.379972 3.95629-.379972 2.686375 0 4.185029.07466 4.10479.204481-.132917.215058-5.448482 2.950634-5.733459 2.950634-.09094 0-.58995-.538913-1.109014-1.197588zm1.638701-.181556c.574366-.402307.592099-.75663.06183-1.23648-.839887-.760077-1.918403.318429-1.158319 1.158307.443433.48998.502491.49419 1.096444.07817zm-.928311-.407351c-.07277-.189857-.03161-.446055.09168-.569329.320481-.320473.927699-.02755.843984.407114-.09324.484185-.767259.601038-.935652.162215zm-61.822383.84671c-.211126-.505302-.304778-1.539424-.304778-3.365456v-2.636016h2.302942 2.302943l.06563 2.997356c.0361 1.648548.145737 3.163003.243651 3.365456.163798.338679-.001.368097-2.063792.368097h-2.241816zm4.837839 0c-.211124-.505302-.304776-1.539424-.304776-3.365456v-2.636016h6.513965c5.703776 0 6.498907.03923 6.392893.315507-.102173.266257-.794249.315513-4.433319.315513h-4.312243l-1.344455 1.069819-1.344455 1.069813v1.980125c0 1.856322-.02698 1.980132-.431415 1.980132-.293466 0-.528871-.233244-.736195-.729437zm.706612-1.38975c-.04145-.124363-.165292-.226113-.275196-.226113-.109903 0-.233742.10175-.275195.226113-.04145.124365.08238.22612.275195.22612.192814 0 .316653-.101755.275196-.22612zm1.706904-3.263208c.859041-.722831.81613-.927836-.194202-.927836-.821331 0-.841364.01753-.841364.736197 0 .879325.178945.912441 1.035566.191639zm-.825224-.184238c0-.182689.182684-.322913.420681-.322913.231375 0 .420682.044.420682.09777 0 .05378-.189307.199078-.420682.322913-.335768.179695-.420681.15996-.420681-.09777zm-.841364-.545669c0-.108861-.14198-.197929-.315512-.197929-.325273 0-.417883.248197-.181002.485079.168048.16805.496514-.02189.496514-.28715zm.841364 4.153618v-1.958679l.677073-.512827c1.289335-.976556 1.495449-1.110333 1.351258-.877025-.09418.152382.04675.220293.402843.194119.436634-.03208.742097.204165 1.506362 1.165074.801977 1.008317.915309 1.257576.693388 1.524972-.145901.175803-.431484.319639-.634625.319639-.429536 0-2.103232-2.075786-2.103232-2.608516 0-.198596-.09465-.302587-.210341-.231086-.115687.07151-.21034.244095-.21034.383557 0 .450824 2.109092 2.876729 2.501039 2.876729.449577 0 1.074755-.636011 1.074755-1.093376 0-.446967-1.649428-2.48024-2.189005-2.698416-.26943-.108947.845204-.183197 2.872614-.191353l3.312868-.01336-.420681.42068c-.231376.231377-.420682.543694-.420682.694043 0 .4222 1.967196 2.764845 2.390128 2.846291.443829.08548 1.185666-.525896 1.185666-.977144 0-.464544-1.640616-2.55867-2.17255-2.773097-.29106-.117335.761848-.188944 2.902962-.19744 3.098623-.01228 3.323345.01211 2.892187.314106-.257117.180089-.467486.498161-.467486.706826 0 .604675 1.930407 2.941769 2.438905 2.952722.478972.01031 1.136893-.591155 1.136893-1.039345 0-.417667-1.70415-2.546155-2.19911-2.746695-.28319-.114742.142778-.178837 1.246791-.187614 1.57596-.01252 1.648791.0064 1.209462.314106-.257119.180089-.467486.498161-.467486.706826 0 .604675 1.930406 2.941769 2.438905 2.952722.478972.01031 1.13689-.591155 1.13689-1.039345 0-.417667-1.704148-2.546155-2.199107-2.746695-.287787-.116601.08173-.178694 1.116499-.187614 1.543819-.01329 1.548578-.01162 2.599424.933202l1.052772.946534 3.184952.01013 3.18495.01013-1.998238 1.880499-1.99824 1.880505-13.409233.0024-13.40923.0024zm7.992953-.144728c.231376-.231377.420681-.523327.420681-.648787 0-.125456-.439901-.78803-.977563-1.472385-.754519-.960384-1.104861-1.244278-1.535488-1.244278-.650848 0-1.062744.34523-1.062744.890749 0 .542587 1.920922 2.891576 2.366335 2.893663.202454.0012.557404-.187583.788779-.418962zm-1.975267-1.162147c-.797401-.978885-.928289-1.256269-.750002-1.589401.372236-.695534.948824-.460745 1.872307.762396.935594 1.239181 1.02664 1.843432.293586 1.948418-.331189.0474-.704813-.248485-1.415891-1.121413zm1.662148.737593c.152105-.246109-1.505185-2.415048-1.845339-2.415048-.496275 0-.33539.508881.487724 1.54267.877446 1.102028 1.119542 1.257593 1.357615.872378zm7.044027.424554c.231375-.231377.420682-.523327.420682-.648787 0-.125456-.439903-.78803-.977564-1.472385-.75452-.960384-1.10486-1.244278-1.535488-1.244278-.650848 0-1.062743.34523-1.062743.890749 0 .542587 1.920921 2.891576 2.366334 2.893663.202453.0012.557403-.187583.788779-.418962zm-1.5934-.590076c-1.347045-1.749058-1.426964-1.904999-1.148331-2.240731.467655-.563489.932964-.35812 1.850552.816751.952822 1.219988 1.08975 1.68251.558464 1.886384-.562759.215947-.807337.126242-1.260685-.462404zm1.274588.174735c.146572-.237156-1.5191-2.424261-1.84629-2.424261-.491514 0-.328499.526649.479365 1.548674.855625 1.082446 1.130327 1.258409 1.366925.875587zm-10.087272-.01473c.146665-.237316-1.472676-2.514729-1.788088-2.514729-.509037 0-.367835.516144.43046 1.573478.890098 1.178926 1.114557 1.334544 1.357628.941251zm-18.410616.472116c0-.729187-.09273-1.304117-.210343-1.304117-.129439 0-.21034-1.051707-.21034-2.734432 0-1.6827261.08091-2.7344309.21034-2.7344309.115688 0 .210343-.2366303.210343-.5258501 0-.5170902.02805-.5258547 1.682726-.5258547 1.622631 0 1.682727.017529 1.682727.490795 0 .2699371.06883.5596213.152952.6437462.206572.2065734.216026 5.1828145.01009 5.3100935-.08968.05539-.163049.682024-.163049 1.392464 0 1.004649-.05608 1.235604-.252408 1.039285-.138825-.138823-.782468-.252407-1.430319-.252407-.647849 0-1.291493.113584-1.430318.252407-.196318.196319-.252408-.03739-.252408-1.051699zm23.575458-1.12202c-.948255-1.190963-1.059255-1.926369-.306958-2.033703.567863-.08103 2.232893 1.922486 2.139629 2.574585-.123549.863876-.895612.636017-1.832671-.540882zm1.566132.649791c.140822-.227854-1.50237-2.514616-1.806918-2.514616-.490029 0-.338781.529774.449224 1.573478.890159 1.179008 1.114551 1.334555 1.357694.941138zm5.164776-.649791c-.953703-1.197801-1.059836-1.926362-.296456-2.03508.344329-.04901.672772.220686 1.332054 1.093901.925318 1.225574 1.019201 1.874596.286354 1.979665-.322953.04633-.684152-.237447-1.321952-1.038486zm1.557757.663343c.135675-.219524-1.506413-2.528168-1.798236-2.528168-.505657 0-.349311.562841.44085 1.587036.892861 1.157312 1.124516 1.317927 1.357386.941132zm1.807699-.663343c-.944721-1.186516-1.058883-1.926362-.313687-2.03282.534982-.07643 2.265069 2.036922 2.152187 2.628967-.152618.800556-.92613.549741-1.8385-.596147zm1.557754.663343c.135675-.219524-1.50641-2.528168-1.798234-2.528168-.505657 0-.349309.562841.440847 1.587036.89286 1.157312 1.124519 1.317927 1.357387.941132zm17.986668.228772c0-.236433.547124-.456977.715628-.288468.2532.2532.115045.476301-.294948.476301-.231373 0-.42068-.08453-.42068-.187833zm1.262042-.02248c0-.115689.283961-.210341.631026-.210341.347062 0 .631021.09465.631021.210341 0 .115689-.283959.210342-.631021.210342-.347065 0-.631026-.09465-.631026-.210342zm-16.417909-2.435125c-.398676-.413821-.98517-.907498-1.303306-1.097055-.318143-.189557-.57844-.466225-.57844-.614815 0-.213312 1.194959-.270157 5.679206-.270157 4.637729 0 5.679204.05224 5.679204.284997 0 .156752-.514927.771996-1.144284 1.367219l-1.144284 1.082214h-3.231614-3.231613zm9.013163-.195579c.779735-.70105 1.025821-1.057184.944751-1.367213-.107443-.410851.000245-.419235 5.383761-.419235h5.493397v.465302c0 .263586-.383741.856303-.885163 1.367218l-.885158.90191h-4.774351c-4.670793 0-4.77197-.0091-4.664342-.420683.07266-.277839.0065-.420679-.194977-.420679-.45925 0-.610105.242688-.34752.559084.187763.226238.09936.282278-.445255.282278h-.679532zm10.018987.407108c.40805-.408057.429335-1.218683.04048-1.541411-.201285-.167048-1.537134-.223216-4.364574-.183511l-4.074513.05724-.06695.697353c-.120746 1.257938.02069 1.300886 4.284487 1.300886 3.220022 0 3.904651-.05414 4.181063-.330533zm-8.195662-.312442c-.163047-.26382.05337-1.250094.274325-1.250094.08456 0 .153748.33129.153748.736192 0 .734154-.167598.935355-.428073.513902zm4.634887.0205c2.97697-.107331 3.155116-.137507 3.155116-.534437 0-.396799-.179106-.427302-3.155116-.537309l-3.15511-.116637 3.260282.01145 3.260286.01145.06591.68361.06591.683603-3.326196-.044-3.326195-.044 3.15511-.11375zm-3.891302-.42926c0-.233709.140226-.42068.315508-.42068.175283 0 .315513.186971.315513.42068 0 .233714-.14023.420685-.315513.420685-.175282 0-.315508-.186971-.315508-.420685zm2.375947-.15652c.901864-.03953 2.321665-.03929 3.155116.000523.833445.03983.09555.07216-1.639761.07187-1.735309-.000298-2.417219-.03285-1.515355-.0724zm6.66871-.802427c0-.309195-.449054-.414949-.699314-.164695-.190214.19022.281187.72621.512809.583059.102577-.06339.186505-.251663.186505-.418364zm8.078704 1.170839-.803225-1.053256h-3.322227c-2.81287 0-3.322233-.04836-3.322233-.315513 0-.277753 1.960323-.315507 16.380846-.315507 14.304129 0 16.414019-.04001 16.642669-.315514.17437-.210104.64635-.315513 1.41272-.315513h1.15085l-.14628 1.063618c-.0805.584985-.21446 1.318547-.29778 1.630136l-.1515.566532-13.37031.05414-13.370295.05414zm15.26914.482973 1.78788-.169011v-.631025-.63102l-2.62926-.15847c-1.44608-.08716-4.427661-.134482-6.625729-.10517l-3.996474.0533-.06739.703631c-.131638 1.374224-.323177 1.327389 4.955457 1.211706 2.633206-.05772 5.592176-.180977 6.575536-.273937zm-11.148071-.683871v-.642016h3.753117c5.399074 0 8.867324.211565 8.867324.540917 0 .353226-1.85111.503653-7.835184.636709l-4.785257.106406zm-1.198355.517741c.0229-.114103-.124176-.239363-.326625-.27835-.230231-.04436-.368099.05885-.368099.275469 0 .36595.621624.368526.694724.003zm17.394596-.10805c.15996-.298891.15996-.542475 0-.841365-.39733-.742433-1.68273-.421083-1.68273.42068 0 .841767 1.2854 1.163112 1.68273.420685zm-.99911.06242c-.43461-.161128-.31519-.903784.14535-.903784.22454 0 .47236.103734.55073.230525.18075.292464-.34682.802745-.69608.673259zm7.8983.105851c.62332-.623329.006-1.572426-.87853-1.350451-.61223.153657-.83712.649026-.54363 1.197414.24275.453596 1.03622.538979 1.42216.153037zm-1.01237-.276734c-.30895-.372257-.0945-.732901.43583-.732901.26036 0 .40826.144262.40826.398177 0 .50903-.52623.717708-.84409.334724zm-23.254664-1.177412c-.179247-.290006-.721476-.219399-.721476.09394 0 .154253.06229.342737.138406.418859.190222.190219.726213-.281188.58307-.512804zm-82.870403 1.649044c-.0627555-.163549-.0860038-.998406-.0516412-1.855236.0613932-1.5311443.0725352-1.5590293.6493052-1.6252425l.586843-.067372-.06099 1.8552605c-.05731 1.743489-.08956 1.859326-.535199 1.922605-.266313.0378-.524232-.06303-.588316-.230024zm3.996221-.000596c-.06263-.16318-.08574-.997733-.05138-1.854563l.06247-1.5578725h.631022.631024v1.7878965 1.787897l-.579635.06667c-.354818.04084-.623791-.04842-.693486-.230024zm-10.8214794-.350458c0-.24446.1372892-.432776.3155105-.432776.4281775 0 .39851-.350031-.052577-.620415-.3454746-.20708-.3422432-.240786.052577-.548452.3942033-.307184.3975135-.34095.052587-.536456-.2024539-.11476-.3680972-.393253-.3680972-.6188771 0-.4617578.4884248-.5340046 1.3627723-.201577.5307.201768.546755.258984.4869593 1.7353081l-.061838 1.526666-.8939492.06467c-.7830073.056642-.8939493.01098-.8939493-.368091zm2.1034078-1.27414v-1.4723827h2.1034087 2.1034105v1.4723827 1.472391h-2.1034105-2.1034087zm6.3102266 0v-1.4723827h1.051705 1.051704v1.4723827 1.472391h-1.051704-1.051705zm4.206818 0c0-1.121818.04675-1.262047.420682-1.262047.37394 0 .420682.140229.420682 1.262047 0 1.121817-.04675 1.262049-.420682 1.262049-.37394 0-.420682-.140232-.420682-1.262049zm4.767727 1.121817c-.07712-.07712-.140228-.645045-.140228-1.26204v-1.121824h.946535.946533v1.262047 1.262049h-.806306c-.44347 0-.86941-.0631-.946534-.140232zm-3.50568-1.121817v-1.051704h1.577555 1.577557v1.051704 1.051705h-1.577557-1.577555zm31.685406-.315513c-.105587-.275153.537206-.315506 5.025677-.315506 4.434663 0 5.14675.04364 5.14675.315506 0 .47474-9.990253.47474-10.172427 0zm-4.49885-.895387-14.566104-.05401.0012-1.9442141.0012-1.9442125h2.154692c2.137359 0 2.154138.00417 2.085828.491302-.03788.2702161.09511.6724896.295527.8939464.34954.3861508.784792.402648 10.623943.402648h10.259473l.06721.473267c.06091.4288589.197791.4790383 1.458775.5348166 1.159683.05128 1.47234.1475405 1.876367.57761.266651.2838286.445005.5400926.396345.5694706-.04866.02939-6.643225.0291-14.654584-.000596zm21.612528-.05116c0-.1345006 1.858009-.2103366 5.153354-.2103366 3.29534 0 5.15335.075835 5.15335.2103366 0 .134506-1.85801.210342-5.15335.210342-3.295345 0-5.153354-.07583-5.153354-.210342zm17.247932-.04777c.000009-.084095.236651-.3079531.525871-.4974565.289221-.1895033.525854-.52297.525854-.7410396 0-.3469892.167515-.3964939 1.341553-.3964939 1.151649 0 1.389054.067001 1.676979.4732671l.335422.473267.407559-.473267.407569-.4732671h7.249976 7.249967l.33541.4732671.33543.473267.40755-.473267c.40472-.4699587.44904-.4732671 6.33485-.4732671 5.88583 0 5.93015.00352 6.33486.4732671l.40756.473267.33541-.473267c.26056-.3676495.54092-.4732671 1.2563-.4732671h.92087v.9465341c0 .8581219-.047.9465329-.50334.9465329-.27684 0-.55784-.141977-.62443-.315507-.09-.2344838-.46307-.3155136-1.45281-.3155136-.73247 0-1.42523.093473-1.53947.2077126-.24255.242552-32.268984.406542-32.26894.165231zm-24.213421-.5306851c-.323066-.3568865-.493664-.7597078-.445404-1.0517048l.07822-.473267h9.972287 9.972289l.424953-.8329863c.233728-.4581399.431364-1.0497239.439193-1.3146285l.01425-.4816514.228245.4732679c.201972.4187874.387988.4740058 1.615907.479664 1.045319.00473 1.296843.05927 1.019561.2207949-.91773.5345237-.04382 1.95742.893946 1.4555394.522235-.2794941.554174-1.1633931.052564-1.4555394-.314702-.1832908-.284185-.2153267.210339-.2207949.565312-.0063.578432.021283.578432 1.2143901 0 1.1047653-.06591 1.284668-.693625 1.8930681l-.693626.672281h-3.070007c-2.534863 0-3.091116-.05497-3.191088-.3155085-.103042-.2685411-.885938-.3155123-5.25852-.3155123-4.372581 0-5.155477.046988-5.258524.3155123-.100092.2608455-.662039.3155085-3.243432.3155085h-3.122359zm-3.411328-.8238381c-.07712-.077124-.140228-.2664322-.140228-.4206793 0-.2049466.368097-.2804544 1.36722-.2804544 1.226986 0 1.367211.043169 1.367211.4206784 0 .3726031-.140225.4206839-1.226989.4206839-.674842 0-1.29009-.063108-1.367214-.1402286zm32.00249-.2138019c.151837-.060763.333262-.053301.403146.016639.06989.069893-.05432.1196119-.276069.1104776-.245034-.010076-.294877-.059938-.127077-.1270824zm15.985909 0c.15183-.060763.33326-.053301.40314.016639.0699.069893-.0543.1196119-.27607.1104776-.24503-.010076-.29487-.059938-.12707-.1270824zm13.25148 0c.15183-.060763.33326-.053301.40314.016639.0699.069893-.0543.1196119-.27606.1104776-.24503-.010076-.29488-.059938-.12708-.1270824zm-32.563405-.8138398c0-.2612143.217514-.31379 1.087754-.2629255 1.55798.091065 1.631247.5894335.08667.5894335-.921256 0-1.174402-.070385-1.174402-.326508zm-39.421448-.094176c-8.289283-.0847339-10.307299-.1594001-10.382175-.3841708-.076734-.2303593-.016509-.231277.345378-.0053764.345876.2159997.49266.2193924.695977.016101.335353-.3353558 1.163263-.3319631 1.285387.00538.07618.2103415.18428.2103415.540528 0 .530185-.3130391 3.185449-.3568744 3.185449-.052587 0 .1156826.189307.210336.420682.210336s.420681-.094653.420681-.210336c0-.3057049.999229-.2584473 1.111863.052587.07618.2103415.184281.2103415.540529 0 .530185-.3130391 3.185448-.3568744 3.185448-.052587 0 .1156826.189307.210336.420682.210336.231374 0 .420682-.094653.420682-.210336 0-.2935413.758428-.2626798 1.292379.052587.35625.2103415.464354.2103415.54053 0 .116733-.3223459 3.004931-.372884 3.004931-.052587 0 .1156826.189307.210336.420681.210336.231375 0 .420682-.094653.420682-.210336 0-.2920276.762119-.2633954 1.259651.04734.325563.2033188.466918.2033188.670236 0 .383247-.3832457 3.118298-.3488895 3.118298.039174 0 .4254828-1.12927.4546915-12.918499.3341925zm13.411775-.052587c-.05361-.086764.05015-.1577603.230501-.1577603.180358 0 .327921-.094652.327921-.2103359 0-.2935414.758432-.2626799 1.292386.052587.356249.2103415.464352.2103415.540527 0 .127066-.3508695 2.651352-.3508695 3.245607 0 .356249.2103415.464353.2103415.540531 0 .05235-.1446066.27792-.2629246.501224-.2629246.223299 0 .606396.118318.851313.2629246.35625.2103415.464354.2103415.54053 0 .125163-.3456173 2.825519-.3582037 3.168955-.014794.190647.1906536.370999.1824138.778255-.035531.444792-.238043.615424-.238043 1.060209 0 .407256.2179565.587608.2261963.778262.035531.329292-.3292926 2.740638-.3218324 3.071976.00948.203318.203317.344675.203317.670235 0 .532886-.3327928 1.198345-.3301333 1.319811.00538.07618.210336.184281.210336.54053 0 .612643-.361728 1.097221-.3369057.949282.048592-.102875.2680861-1.52802.319441-10.215091.3681002-5.552544.031128-10.139379-.014424-10.192964-.1012117zm24.139766-.024685c-.181842-.2191069-.1608-.3522479.08832-.5590067.402027-.3336511.850652.018131.659237.5169586-.1558.4060046-.432583.4215739-.747565.042038zm-57.811427-.4943572c.31973-.04836.792998-.047044 1.051704.00297.258706.049899-.0029.08948-.58133.087913-.578437-.00176-.790105-.042455-.470374-.090778zm29.392247-.2543224c0-.1072036-.138325-.2255215-.30739-.2629236-.419676-.092853 4.710161-2.7056556 5.302986-2.7009939.437571.00352.473266.098511.473266 1.2603667 0 1.2014682-.02963 1.2719565-.674342 1.6053564-.465021.2404707-.698982.2747963-.753722.1105731-.04364-.1309765-.33179-.249122-.640287-.2625426-.356206-.015508-.426575-.059502-.192812-.1205964.413918-.1081649.498596-.6178135.123423-.7428695-.134566-.044837-.72615.1527992-1.314631.43924-2.083947 1.0143443-2.016491.9917829-2.016491.6743898zm4.659048-1.8033202c0-.1099057-.101749-.2337437-.226113-.2751957-.124364-.041435-.226119.082379-.226119.2751957 0 .1928136.101755.3166516.226119.2751949.124364-.041435.226113-.1652901.226113-.2751949zm25.735213 1.7878965c.07148-.1156891.355449-.2103425.631019-.2103425.275561 0 .559514.094653.631019.2103425.07749.1254258-.177234.2103424-.631019.2103424-.453794 0-.70853-.084919-.631019-.2103424zm-24.57045-.3461838c-.07953-.079534-.144605-.6494266-.144605-1.2664299 0-.9906919.05038-1.1218159.431178-1.1218159.391404 0 .425359.1100281.368096 1.1928409-.05837 1.1032015-.301984 1.5480876-.654669 1.1954049zm9.19569-.1556079c-.06151-.1602927-.0822-.7045496-.04597-1.2094577.05419-.7558321.140172-.9180113.486534-.9180113.345731 0 .432341.162042.486121.9094962.0835 1.1604908-.602657 2.0623478-.926672 1.2179728zm-8.28859-1.0757623v-.9465341h3.996472 3.996479v.9465341.946534h-3.996479-3.996472zm-30.709772-.6310273c0-1.3181361.01886-1.3672125.525853-1.3672125.497168 0 .52585.063099.52585 1.1568765v1.15687h.723779c.398078 0 .78228.094653.853778.2103424.08162.1320612-.38344.2103416-1.24963.2103416h-1.37963zm50.06113 1.0517048c0-.4647102 3.894219-.4647102 4.072549 0 .10263.2674518-.198323.3155132-1.975738.3155132-1.723605 0-2.096811-.056165-2.096811-.3155132zm.000048-1.104287c.000047-.3242378.238146-.368937 1.998239-.3751681 1.779803-.0064 1.998192.033927 1.998192.3680963 0 .3336687-.22104.3751662-1.998239.3751662-1.762878 0-1.998234-.043345-1.998192-.3680944z" fill="#273839" stroke-width=".210341"/></svg>