<svg height="128" viewBox="0 0 39.763433 33.866667" width="150.287" xmlns="http://www.w3.org/2000/svg"><path d="m31.294487 30.497719c-.147854-.113602-.359556-.25966-.470448-.324574-.173169-.101369-.163162-.156971.07093-.394024.251666-.254857.295427-.259971.571261-.06677.193623.135622.298713.348408.298713.604849 0 .445478-.08377.477622-.470451.180521zm.73928-.172543c0-.33396.106938-.399282 1.548616-.945995.85174-.322995 1.583075-.552807 1.62519-.510692.04212.04211-.0045.240184-.103662.440155-.14752.297588-.442512.4554-1.62519.869423l-1.444954.505843zm-1.65781-.654069c-.07624-.126616-.627233-1.977736-.627233-2.107262 0-.05262.130803-.07634.290675-.05272.400025.05911.974588 1.684755.718996 2.034299-.180282.24655-.288284.282042-.382438.125679zm1.040053-.271818c-.278339-.229447-.959058-1.85896-.830343-1.987677.03658-.03658 1.22319-.453213 2.636908-.925851l2.570399-.859342.16075.536538c.148988.497278.129677.599555-.26393 1.397746-.341144.691807-.520979.901444-.914245 1.06576-.269264.112507-.502106.204557-.517428.204557-.01532 0-.02306-.134209-.01718-.29824.0065-.182089-.08109-.316826-.224959-.34597-.326367-.06611-.471833.37117-.191631.576058.189216.138357.08964.213452-.687166.518221-1.059019.415492-1.337343.434606-1.721165.1182zm.995786-.334995c.0535-.277778-.334532-.464955-.539324-.26016-.204798.204795-.01762.592823.260156.539327.128749-.02479.254376-.150419.279168-.279167zm.940902-.268829c.0535-.277778-.334532-.464954-.539327-.26016-.204795.204795-.01762.592823.260157.53933.128748-.02479.254376-.150422.27917-.27917zm2.041428-.02213c0-.147761.735282-1.643915.892057-1.81517.02931-.03204.124902.01333.212385.100811.117224.117228.119535.198576.0088.309329-.08265.08265-.122793.339718-.08921.571261.07691.530291-.05778.729978-.596612.884511-.322646.09254-.427389.0801-.427389-.05074zm-5.13132-1.984352c.376274-.594284.75557-.714983 1.096577-.348954.325474.349356.237487.507611-.108258.194717-.336886-.30488-.427086-.281048-.427086.112836 0 .18482-.04537.340531-.100813.346024-.05544.0055-.243214.03632-.417262.0685l-.316454.05851zm5.949354-.519494c-.242858-.542443-.25045-.969555-.0126-.709746.163161.17824.439303 1.130441.352882 1.216858-.04303.04302-.196136-.185183-.340272-.507112zm-6.3111.236144c.04682-.05914-.0864-.659313-.296042-1.333712-.209648-.674398-.350238-1.276237-.312424-1.337421.03781-.06118.295031-.111243.571594-.111243.276562 0 .573176-.07034.659142-.156302.118796-.118794.184349-.07847.273172.168018.06427.178376.257067.717482.428421 1.198014.442469 1.240796.488401 1.275388 1.352705 1.018718.809584-.240421.980056-.259955.881845-.101043-.0378.06115-.434361.221895-.881255.357204-.757302.229293-.82927.230872-1.058717.02323-.345481-.312657-.952281-.277094-1.358871.07964-.189586.166338-.306392.254044-.25957.194899zm4.072875-.866971c.0994-.419855.536069-.84227.863821-.835618.226183.0046.825199.438747.825199.59809 0 .04896-.158325-.03552-.351834-.187731-.410348-.32278-.589066-.261709-.589066.201294 0 .232089-.103346.370721-.344787.462517-.485018.184404-.5012.174834-.403333-.238552zm-2.113448.05798c-.109676-.08733-.336108-.582192-.503185-1.099687-.167074-.517496-.329006-1.009658-.359848-1.093695-.04988-.135916 1.386916-.720899 1.77063-.720899.233701 0 .881736 1.896546.791919 2.317634-.06319.296229-.187785.396527-.634415.51069-.305682.07813-.625512.165167-.710738.193404-.08522.02824-.244687-.02011-.354363-.107447zm3.829353-.521706c-.253721-.253719-.188533-.400393.107528-.241945.147855.07913.268831.20223.268831.273557 0 .178017-.182019.162729-.376359-.03161zm-2.028711-1.101358c-.142614-.377494-.324357-.854496-.403871-1.060004-.13173-.340456-.11273-.385758.213855-.509926.787807-.299523.844137-.260922 1.1913.81637.178679.554459.325682 1.040976.32667 1.08115.001.04017-.239053.137329-.533429.215903l-.53523.142861zm-6.318043-.504289c-.178911-.462903.206811-.800333 1.012834-.886027.359437-.03821.744254-.145937.855146-.239382.110892-.09344.465544-.213202.788115-.266129.322571-.05293.785994-.231611 1.029821-.397079.476199-.323158 1.222031-.548432 2.255928-.681394.37359-.04804.67742-.164218.720057-.275326.171407-.44668 1.721249-.01522 1.630886.454032-.02489.129261-.275109.300788-.579617.397333-.294705.09343-.656795.226838-.804652.296452-.147854.06961-.994667.347894-1.881801.6184-.887135.270505-1.764189.568594-1.949009.66242-.342492.173867-1.54484.452765-2.452201.568813-.434127.05552-.519981.02092-.625507-.252113zm-.01652-1.260617c-.09352-.112679-.146285-.225737-.117268-.251242.02901-.0255.657622-.220965 1.3969-.434357 1.128998-.325883 1.350795-.434557 1.385694-.678947.02285-.16003-.360387-1.599567-.851636-3.198968-.491255-1.599401-.8588-2.997613-.816773-3.107136.06167-.160717.32662-.191706 1.373373-.160634l1.296958.0385.937149 2.712855c.584374 1.691642 1.016776 2.743411 1.148676 2.794026.11634.04464.506645-.02495.86734-.154656.571313-.205442.671892-.210405.780592-.03853.200505.317027.161933.362389-.499913.587903-.750913.255862-1.333643.275576-1.473157.04984-.05589-.09043-.474516-1.345524-.930284-2.789098l-.82867-2.624679-.912521-.0402c-.501885-.02211-.963222.0105-1.025193.07246-.06197.06197.25092 1.380523.695309 2.930116.444394 1.549593.791534 2.964753.771424 3.1448-.03102.277703-.22879.40513-1.303838.84009-1.404118.568098-1.645609.607348-1.894162.307862zm-.02012-1.072067c.117279-.258747.26112-.470449.319646-.470449.222938 0 .07637-.541355-.746013-2.755495-.831731-2.239294-.85995-2.291301-1.409502-2.597547-.335129-.186757-.560778-.410001-.560778-.554803 0-.133265-.09588-.321873-.213069-.41913-.153599-.127477-.187482-.291511-.121401-.58772.05042-.225988.12083-.849415.15648-1.385393.05589-.840356.03443-.974504-.155875-.974504-.135314 0-.20572.091-.181993.235226.02128.129373-.01938.325954-.09036.436846s-.235251.500137-.365037.864989c-.229926.646362-.418944.876142-.724172.880339-.180514.0025-.157499-.333436.05802-.846781.174938-.416695.197751-.806925.07414-1.268187-.07825-.292008-.135818-.302432-1.670108-.302432h-1.589064l-.0844.571261c-.04642.314194-.06524.93418-.04184 1.377748l.04256.806486 2.132646.0065c1.932767.0059 2.150078.03039 2.318648.260916.426458.583216.333992.606236-2.435078.606236-3.276161 0-3.158198.069-3.159905-1.848198-.000673-.720796-.03931-1.628094-.08593-2.016215l-.08476-.705676h1.155275c1.021106 0 1.214508.04034 1.665299.347321.57577.392092 1.151744.379467 1.767573-.03874.454456-.308623 2.034665-.43157 6.706503-.521796 2.88225-.05566 3.528377-.102204 3.528377-.254148 0-.1023036.136096-.2053354.302433-.2289589.445144-.06322.41977-.6684625-.03361-.8015387-.262067-.076924-.217688-.093051.201622-.073268l.537658.025366v.7393214.7392792l-1.008109.07929c-1.23474.09712-1.747386.316792-1.747386.748768v.31446h-2.192148c-2.652768 0-2.67913.01148-2.620766 1.140764.05161.998626-.0073.978768 2.95785.996468l2.244575.0134.392784.84009c.216034.46205.615071 1.493437.886749 2.291969.271678.798534.611924 1.645345.756098 1.881801.144177.236458.262367.499845.262641.585305.000777.193426-1.119381.588082-1.318933.464751-.08043-.04971-.549282-1.268088-1.041885-2.707508-.492606-1.439421-.956561-2.692736-1.031009-2.785146-.08919-.110705-.48509-.162593-1.160613-.152115-1.282916.0199-1.817922.131262-1.865841.388375-.02056.110323.38386 1.561532.898711 3.224909.724187 2.339705.899628 3.059665.77502 3.180447-.197906.191826-1.889991.71757-2.309469.71757-.300135 0-.301751-.0082-.09225-.470451zm-.447638-7.000747c0-.214697-.111993-.263685-.672072-.293977l-.672072-.03635.537658.325348c.613398.371181.806486.372373.806486.005zm4.296817 6.899937c-.112711-.299582-1.810152-5.650524-1.810152-5.706249 0-.02971.312269-.03573.69393-.01339l.693928.04063.781188 2.553872c.429656 1.40463.782738 2.627928.784629 2.718439.0035.165147-.662871.574714-.935002.574714-.07992 0-.173753-.07561-.208521-.168018zm-27.8025259-7.644817c-.046205-.231025-.084009-.472971-.084009-.537657 0-.06469.6351078-.117613 1.4113509-.117613h1.411351v-.336036c0-.330617.017455-.336036 1.0823394-.336036h1.0823392l-.040627.705676-.040626.705675-.8064862.04098c-.4435677.02254-.8639487.09815-.9341805.168018-.070231.06987-.7733865.127034-1.5625669.127034h-1.4348732zm8.7873399.292124c0-.07864-.69947-.14823-1.713783-.170496l-1.7137834-.03762-.040627-.705675-.040627-.705676h1.6872034 1.687204v.403244.403242h3.234462 3.234462l-.04212.436847-.04212.436847-3.125134.03608c-1.994022.02302-3.125134-.01201-3.125134-.0968zm15.278435-.364932c-.125359-.125358-.108252-1.01705.0235-1.224657.08227-.129639.598502-.162593 2.105636-.134415l1.996645.03733.385443.705676.385442.705675h-2.403526c-1.32194 0-2.443851-.04032-2.493136-.08961zm-24.1552372-2.296245c-.0029973-.794725-.0132799-1.9288465-.0228459-2.5202699l-.0173895-1.0753147 2.9799612-.0361761 2.9799613-.0361764v.8762646.8762653h-.7345496c-.9220214 0-1.0128374.143835-1.0128374 1.6041362v1.084151h-.7392789c-.6989547 0-.7392789.01833-.7392789.336036v.336036h-1.3441441-1.3441436zm1.8200475.772882c0-.246345-.080882-.347521-.3030335-.379066-.3302702-.0469-.5178525.241354-.38402.590115.048577.126592.2022546.193829.38402.168018.2221512-.03154.3030335-.132722.3030335-.379067zm0-3.7636019c0-.2463453-.080882-.3475216-.3030335-.3790672-.1817654-.025813-.3354423.041429-.38402.1680179-.1338325.3487612.05375.6370149.38402.5901163.2221512-.031543.3030335-.1327222.3030335-.379067zm1.0753153 0c0-.2463453-.080882-.3475216-.3030335-.3790672-.1817657-.0258139-.3354425.0414292-.3840207.1680179-.1338318.3487612.0537503.6370149.3840207.5901163.2221512-.0315434.3030335-.1327222.3030335-.379067zm1.0753147 0c0-.2463453-.080882-.3475216-.3030332-.3790672-.1817659-.0258139-.3354428.0414292-.3840204.1680179-.1338321.3487612.0537502.6370149.3840204.5901163.2221514-.0315434.3030332-.1327222.3030332-.379067zm4.9061247 4.0996379v-.336036h-1.733006c-1.9232633 0-1.8961822.01336-1.8961822-.935435 0-.280614.082749-.578882.1838862-.662818.1313905-.109044 1.541585-.142522 4.939728-.117269l4.755843.03534.01701 1.176126.01701 1.176126h-.386648c-.419025 0-.540621-.315397-.175599-.455469.126591-.04858.193828-.202254.168018-.38402-.06353-.447402-.672427-.421944-.789335.033l-.08635.336036-.05412-.336036c-.04067-.252485-.136167-.336036-.3841-.336036-.239337 0-.353694.0923-.416326.336036l-.08635.336037-.05412-.336036c-.04067-.252485-.136167-.336036-.384099-.336036-.239338 0-.353695.0923-.416327.336036l-.08635.336036-.05412-.336036c-.04067-.252485-.136167-.336036-.384099-.336036-.239338 0-.353695.0923-.416327.336036l-.08635.336036-.05412-.336036c-.04067-.252485-.136167-.336036-.384099-.336036-.239337 0-.353695.0923-.416327.336036l-.08635.336036-.05412-.336036c-.04097-.254396-.135764-.336036-.390159-.336036-.44802 0-.569962.586434-.145048.697552.472862.123656.334948.44497-.190989.44497-.412204 0-.47045-.0416-.47045-.336036zm1.757999.123214c.0065-.156586.0383-.188436.08121-.08121.03883.09703.03405.212963-.01061.257627-.04467.04467-.07643-.03472-.0706-.176418zm.9409 0c.0065-.156586.0383-.188436.08121-.08121.03883.09703.03405.212963-.01061.257627-.04467.04467-.07643-.03472-.0706-.176418zm.940901 0c.0065-.156586.0383-.188436.08121-.08121.03883.09703.03405.212963-.01061.257627-.04467.04467-.07643-.03472-.0706-.176418zm.940901 0c.0065-.156586.0383-.188436.08121-.08121.03883.09703.03405.212963-.01061.257627-.04467.04467-.07643-.03472-.0706-.176418zm-8.8819612-1.659123v-1.2195853h.9200686c1.1626147 0 1.3649756-.1819114 1.3649756-1.2270342 0-.4044786-.07258-.8079995-.1612968-.896713-.1254532-.1254531.6755168-.1612972 3.6043638-.1612972h3.765661l1.239063.8736935 1.239064.873693h1.944499 1.944499l-.0074.6384685c-.0064.5502257-.06553.6844897-.427786.9714497-.586898.464915-1.311575.45152-1.817935-.03361-.362545-.347337-.450645-.366585-1.677888-.366585-.718511 0-1.332243-.05985-1.378325-.134414-.05284-.085501-1.809046-.1344142-4.826018-.1344142-5.4342485 0-5.1408806-.068094-5.2133227 1.2100652-.032554.574422-.093484.746263-.2769635.781143-.2100263.03993-.2352252-.08593-.2352252-1.174866zm14.9776022-.221079c.40764-.40764.112611-1.132921-.460849-1.132921-.320718 0-.672072.3513542-.672072.672072 0 .320718.351354.672072.672072.672072.137295 0 .344677-.09505.460849-.211223zm-.735276-.265973c-.142853-.172128-.134027-.2472715.05075-.4320465.208628-.2086286.238729-.2086286.447358 0 .184776.184775.193601.2599185.05075.4320465-.09511.114602-.218603.208367-.274426.208367-.05582 0-.179316-.09377-.274428-.208367zm-9.216315-.7090266c.06279-.1015939-1.195936-1.7708933-1.33533-1.7708933-.125788 0-1.136808.9776401-1.136808 1.0992744 0 .069901.105852.2726646.235226.4505857.210196.2890728.33807.3239423 1.201796.327717.531615.00233.997417-.045687 1.035116-.1066838zm-2.010506-.4410176c-.05054-.081775.08671-.327284.305003-.5455754l.396892-.3968924.361044.5455749.361045.545575h-.666047c-.366325 0-.707396-.066907-.757937-.1486821zm7.357422.3294711c.135195-.1223496.24345-.2886875.240567-.3696395-.0051-.1444136-1.041872-.9690093-1.372394-1.0915789-.167042-.061945-1.176237 1.257398-1.176237 1.5377215 0 .2532 2.017644.1863234 2.308064-.076503zm-1.899358-.079978c.003-.09241.181577-.3739792.39683-.6257093l.391367-.4576916.476864.363721c.544018.4149424.583781.5521897.216871.7485537-.376403.201445-1.488716.1797722-1.481932-.028876zm-1.140251-.5742847c.261164-.408266.438303-.801428.39364-.8736933-.1225-.1982091-.54828-.1576582-.73741.070231-.220138.2652501-.55759.2548218-1.058591-.032712-.282389-.1620688-.451369-.1912719-.547946-.0946958-.191045.1910454.899217 1.6731746 1.230796 1.6731746.149753 0 .428871-.28796.719511-.7423027zm-1.200687-.0810151c-.525774-.6142483-.552073-.8100515-.062768-.4673291.384833.2695472.703417.2742967.919685.01371.09203-.1108916.254074-.2016214.360093-.2016214.156526 0 .147115.0775-.05006.4122611-.133553.226743-.341498.5018112-.462099.6112621-.196964.1787534-.268683.14128-.704849-.3682826zm.662533-.8013669c.138517-.224125-.173019-.4811376-.358445-.2957115-.155104.1551041-.05803.4418377.149585.4418377.0652 0 .159189-.065757.20886-.1461262zm9.334562 1.7590986v-.672072h.672072c.582462 0 .672071.035846.672071.2688291 0 .2048221.08961.2688288.376361.2688288.432266 0 .698954.2154023.698954.5645403 0 .215063-.134414.241946-1.209729.241946h-1.209729zm2.603848.3024326c-.02748-.09241-.07832-.2587475-.112965-.3696399-.03781-.1210251-.225866-.2016215-.47045-.2016215-.272577 0-.407461-.066743-.407461-.2016215 0-.1745028.515255-.2016217 3.830809-.2016217h3.83081v.533082.5330822l-3.310383.03818c-2.55877.02951-3.321731.000032-3.36036-.1298386zm2.100655-.3024326c0-.073928-.176419-.1344141-.392041-.1344141-.215624 0-.413995-.065856-.440825-.1463468-.02907-.087217-.182945-.034718-.380841.1299426l-.332059.2762888.772883.00447c.428626.00248.772883-.055399.772883-.1299426zm-19.1612875-.5493692c-.1385172-.2241249.1730193-.4811376.3584457-.2957114.1551038.155104.058029.4418377-.149586.4418377-.065202 0-.1591884-.065757-.2088597-.1461263zm9.1276365-1.2765222-1.189949-.884991-4.738108.0516126-4.7381063.0516122v-.3091437-.3091437h6.2429043 6.242904l.04097.6384685.04097.6384683h1.814594 1.814594l.04097-.6384683.04097-.6384685h4.697139 4.697138v1.1425226 1.1425221h-6.908511-6.908516zm11.377795.1457122c0-.1108923-.09073-.2016215-.201622-.2016215s-.201622.090729-.201622.2016215c0 .1108916.09073.2016215.201622.2016215s.201622-.09073.201622-.2016215zm.537658 0c0-.1108923-.09073-.2016215-.201622-.2016215s-.201622.090729-.201622.2016215c0 .1108916.09073.2016215.201622.2016215s.201622-.09073.201622-.2016215zm.537658 0c0-.1108923-.09073-.2016215-.201623-.2016215-.110892 0-.201622.090729-.201622.2016215 0 .1108916.09073.2016215.201622.2016215.110893 0 .201623-.09073.201623-.2016215zm.537657 0c0-.1108923-.09073-.2016215-.201622-.2016215s-.201622.090729-.201622.2016215c0 .1108916.09073.2016215.201622.2016215s.201622-.09073.201622-.2016215zm.537658 0c0-.1108923-.09073-.2016215-.201622-.2016215s-.201623.090729-.201623.2016215c0 .1108916.09073.2016215.201623.2016215.110892 0 .201622-.09073.201622-.2016215zm-1.881802-.5376579c0-.1108916-.09073-.2016214-.201622-.2016214s-.201622.09073-.201622.2016214c0 .1108919.09073.2016215.201622.2016215s.201622-.09073.201622-.2016215zm.537658 0c0-.1108916-.09073-.2016214-.201622-.2016214s-.201623.09073-.201623.2016214c0 .1108919.09073.2016215.201623.2016215.110892 0 .201622-.09073.201622-.2016215zm.537658 0c0-.1108916-.09073-.2016214-.201623-.2016214-.110892 0-.201622.09073-.201622.2016214 0 .1108919.09073.2016215.201622.2016215s.201623-.09073.201623-.2016215zm.537655 0c0-.1108916-.09073-.2016214-.20162-.2016214-.110892 0-.201622.09073-.201622.2016214 0 .1108919.09073.2016215.201622.2016215s.20162-.09073.20162-.2016215zm-1.8818-.5376573c0-.1108916-.09073-.2016215-.201622-.2016215s-.201622.09073-.201622.2016215c0 .1108918.09073.2016217.201622.2016217s.201622-.09073.201622-.2016217zm.537658 0c0-.1108916-.09073-.2016215-.201622-.2016215s-.201622.09073-.201622.2016215c0 .1108918.09073.2016217.201622.2016217s.201622-.09073.201622-.2016217zm.537658 0c0-.1108916-.09073-.2016215-.201623-.2016215-.110892 0-.201622.09073-.201622.2016215 0 .1108918.09073.2016217.201622.2016217.110893 0 .201623-.09073.201623-.2016217zm.537657 0c0-.1108916-.09073-.2016215-.201622-.2016215s-.201622.09073-.201622.2016215c0 .1108918.09073.2016217.201622.2016217s.201622-.09073.201622-.2016217zm.537658 0c0-.1108916-.09073-.2016215-.201622-.2016215s-.201623.09073-.201623.2016215c0 .1108918.09073.2016217.201623.2016217.110892 0 .201622-.09073.201622-.2016217zm-22.6560625 1.1308102c-.1385172-.2241249.1730193-.4811374.3584457-.2957117.1551038.155104.058029.4418382-.149586.4418382-.065202 0-.1591884-.065757-.2088597-.1461265zm11.3204485-.481141c-.049283-.0492833-.089609-.2912311-.089609-.5376574v-.4480477h1.612972 1.612973v.3763603c0 .206998-.07258.4489437-.161298.5376574-.172195.1721952-2.810946.2357793-2.975038.071687zm-17.6005673-1.1524788c.03135-.3135089.077615-.5906295.1028081-.6158222.025193-.025193 2.2889552-.00173 5.0305821.052109 4.0524781.079602 4.9847771.1319303 4.9847771.2797868 0 .1469714-.528765.1818718-2.755495.1818718h-2.7554952v.3360351.3360364h-2.3320893-2.3320895zm1.1796107.032361c0-.2463448-.080882-.3475213-.3030331-.379067-.3302707-.0469-.5178525.2413551-.3840205.5901158.048577.1265918.2022545.1938291.3840205.1680182.2221508-.031548.3030331-.1327223.3030331-.379067zm1.0753152 0c0-.2463448-.080882-.3475213-.3030336-.379067-.3302702-.0469003-.5178521.2413552-.3840201.5901159.0485772.1265918.2022545.1938291.3840201.1680182.2221512-.0315483.3030336-.1327223.3030336-.3790671zm1.0753152 0c0-.2463448-.080882-.3475213-.3030338-.379067-.1817654-.0258137-.3354422.0414244-.3840203.168018-.1338322.3487614.0537502.6370147.3840203.5901161.2221515-.0315483.3030338-.1327223.3030338-.3790671zm1.0753145 0c0-.2463448-.080882-.3475213-.303033-.379067-.3302701-.0469-.5178525.2413551-.3840206.5901158.048577.1265918.2022547.1938291.3840206.1680182.2221512-.031548.303033-.1327223.303033-.379067zm16.5553717-.3584381c-.300364-.3003628-.01581-.4216115 1.204076-.5130704 1.273043-.095444 1.299267-.09141 1.643521.2528439l.349836.3498361h-.89631c-.49297 0-.933692-.060487-.979382-.1344146-.04569-.073928-.200476-.1344142-.343969-.1344142s-.260896.060486-.260896.1344142c0 .149507-.576164.1855172-.716876.044802zm3.136335-.3136333c-.389164-.32759-.593356-.3966383-1.181779-.3996296l-.711331-.00361.03926-1.041712.03926-1.041711 1.594938-.038005c1.388078-.033077 1.617127-.00766 1.766037.1959907.0941.1286969.137759.3208835.09701.4270806-.04075.1061975.01416.2599476.122028.3416666.107867.08172.280598.3602837.383846.6190309.10325.2587478.243897.5088204.312553.5557159.06865.046896.100567.1580379.07092.2469814-.02965.088944-.324331-.3224207-.654849-.9141443-.330523-.5917226-.622798-1.0540158-.6495-1.0273176-.02671.026697.230363.5602201.571261 1.1856043.340896.6253848.619815 1.1731172.619815 1.2171837 0 .044066-.438528.078494-.974506.076505-.880098-.00325-1.020078-.041978-1.444955-.3996272zm1.276935-.2688291c0-.2463453-.08088-.3475216-.303032-.3790673-.33027-.046901-.517853.2413552-.38402.5901163.04858.1265916.202254.193829.38402.168018.222151-.031548.303032-.132722.303032-.379067zm-.873691-.3831879c0-.062896-.0664-.3048415-.147565-.5376572-.119798-.3436566-.220959-.4233009-.537657-.4233009-.3655 0-.390094.033895-.390094.5376578v.5376573h.537658c.295712 0 .537658-.05146.537658-.114357z" fill="#273839" stroke-width=".134414"/></svg>