<svg height="128" viewBox="0 0 135.46666 33.866667" width="512" xmlns="http://www.w3.org/2000/svg"><path d="m110.72938 29.394824c-.17297-.172967-.24685-1.311938-.24685-3.805534v-3.558688h1.2753c.92853 0 1.73957-.175229 2.98272-.644421l1.70742-.644421v-2.13259-2.13259h-2.87987-2.87986v-1.372309c0-.988277-.0953-1.477579-.34044-1.748487-.32239-.356232-.30875-.3762.25713-.376546.58381-.00035.59757.02451.59757 1.079949v1.080314l2.03761.05926c1.97509.05744 2.05556.04206 2.62274-.50132.37148-.355912.58512-.771842.58512-1.13921v-.578628h5.86257 5.86257v6.068283 6.068284h-3.60423-3.60424l-.23432.514261c-.18184.399105-.38813.514261-.92125.514261-.57319 0-.68811.07664-.69392.462835-.004.25456-.46897 1.04138-1.03366 1.748489l-1.02669 1.285652h-3.03929c-2.08962 0-3.11642-.07713-3.28613-.246844zm6.52884-1.692214c.30242-.364391.209-2.543749-.12076-2.817433-.13016-.10802-1.10222-.169664-2.16014-.136984l-1.92348.05942-.0616 1.421517c-.0432.998133.018 1.472016.2057 1.591061.48156.305462 3.78864.209691 4.06025-.11758zm-4.10153-1.043657v-.92567h1.95419 1.9542v.92567.925671h-1.9542-1.95419zm-1.54278-1.337079c0-.166608-.162-.334119-.35999-.372249-.25257-.04864-.35998.06243-.35998.372249 0 .309822.10741.42089.35998.372249.19799-.03813.35999-.20564.35999-.372249zm8.63959 0c0-.166608-.162-.334119-.35999-.372249-.25257-.04864-.35999.06243-.35999.372249 0 .309822.10742.42089.35999.372249.19799-.03813.35999-.20564.35999-.372249zm6.84729-1.202799c.20424-.12959.26475-1.335496.26475-5.276893s-.0605-5.147303-.26475-5.276893c-.30342-.192515-8.66666-.232357-9.36718-.04463l-.46283.124035v5.204332c0 3.970994.0609 5.22892.25713 5.308086.43554.175744 9.2914.14055 9.57288-.03804zm-9.53189-.498714c-.0552-.143871-.0754-2.388621-.0449-4.988336l.0554-4.726752 4.78264-.05522 4.78262-.05522v5.043552 5.043552h-4.73766c-3.64336 0-4.76084-.06042-4.83803-.261582zm7.94359-.157065c.21883-.117118.39788-.290983.39788-.386368 0-.09538-.61036-.832664-1.35634-1.638398-1.15781-1.250546-1.45646-1.464974-2.04039-1.464974-.58634 0-.87686.211276-2.0341 1.479228-1.26999 1.391494-1.33008 1.501296-1.01331 1.85134.29179.322412.69149.372114 2.99256.372114 1.4607 0 2.83485-.09582 3.0537-.212942zm-5.6704-2.461216 1.01306-1.028524h-1.07222-1.07222v1.028524c0 .565687.0266 1.028522.0592 1.028522s.51504-.462835 1.07222-1.028522zm6.47968 0v-1.028524h-.94482-.94482l.86113 1.028524c.47361.565687.89879 1.028522.94482 1.028522.046 0 .0837-.462835.0837-1.028522zm-6.39679-3.908387c-.47699-.565687-.94534-1.028522-1.04076-1.028522-.0954 0-.17351.462835-.17351 1.028522v1.028523h1.04077 1.04076zm4.65835-.517965c1.34885-1.507109 1.3747-1.556872 1.01513-1.954194-.33232-.367213-.63843-.407705-3.08222-.407705-2.43029 0-2.75116.0419-3.07684.401768-.35245.38946-.32086.449326 1.03134 1.954193 1.90555 2.120707 2.21947 2.121161 4.11259.0059zm1.73844.475136v-1.071352l-.92566.908476c-.50912.499663-.92568.981772-.92568 1.071353 0 .08958.41656.162875.92568.162875h.92566zm-9.77095-1.602807c0-.166607-.162-.33412-.35998-.372249-.25258-.04864-.35999.06243-.35999.372249 0 .309822.10741.42089.35999.372249.19798-.03813.35998-.205641.35998-.372249zm-17.382035 13.385724c0-.405541.17699-.741404.542002-1.028522.479163-.376909.824993-.426339 2.982713-.426339h2.44071v-2.657627-2.657628l1.04874-.348332c1.19967-.398467 1.58059-1.019395 1.7738-2.891378.17675-1.712567-.0528-2.4733-.92518-3.066101-.7406-.503253-.84707-.515501-4.48056-.515501-3.704079 0-3.724236-.0025-4.205043-.514261-.26572-.282845-.420705-.525834-.344414-.539976.07629-.01414.254419-.03729.39584-.05143.392071-.03921.306401-.627703-.102852-.706518-.257117-.04952-.359983.06354-.359983.395651 0 .452597-.01681.44889-.631281-.139196l-.63128-.604172 6.236723-.12535c5.69918-.114546 6.28106-.0947 6.75099.23022l.51426.35557-.0505 7.072291c-.049 6.871107-.0635 7.09716-.50996 7.946535l-.45949.874244h-4.99263-4.992629zm2.057045-.632043c0-.425873-.49627-.567662-.71997-.205705-.17218.278598.0602.617114.42355.617114.16303 0 .29642-.185135.29642-.411409zm8.02247 0c0-.425873-.49626-.567662-.71996-.205705-.17218.278598.0601.617114.42355.617114.16303 0 .29641-.185135.29641-.411409zm.41141-3.59983v-2.571306h-.85037c-.46771 0-1.19722.103915-1.62114.230924-.71089.212987-.78064.303089-.89811 1.160085-.16869 1.23073-.1627 3.44198.01 3.614466.0754.07542.86225.137138 1.74849.137138h1.61135v-2.571307zm-3.08556.247029v-1.91287l.68314-.247029c.37573-.135865.97742-.247027 1.33708-.247027h.65393v2.159897 2.159899h-1.33707-1.33708zm-1.54279-11.046515v-.514263l-2.93557-.0571c-2.478818-.04822-2.954323-.0082-3.056145.257131-.06632.172826-.06632.455635 0 .628461.101822.265341.577327.305348 3.056145.257132l2.93557-.0571zm-5.656871-.102854c0-.258448.434265-.308556 2.674161-.308556 2.23989 0 2.67416.05011 2.67416.308556 0 .25845-.43427.308557-2.67416.308557-2.239896 0-2.674161-.05011-2.674161-.308557zm8.639591-.02201c0-.373333-.54037-.371834-.68379.0019-.0609.158646-.0617.337402-.002.397237.1889.188947.68564-.100203.68564-.399129zm14.12504 13.769926c-.0754-.07542-.13714-.538258-.13714-1.028522v-.891386h2.57131 2.57131v1.028523 1.028522h-2.43417c-1.3388 0-2.49588-.06171-2.57131-.137137zm6.29113-.01348-.87425-.07874v-.913842c0-.901681.009-.913843.69764-.913843.62865 0 .73218.08637 1.04719.873644.19226.480503.45687.941921.58802 1.025373.24332.154823.18157.155138-1.4586.0074zm-7.04538-.865763c0-.445872.0926-.867888.2057-.937811.12565-.07765.20571.237853.20571.810678 0 .515796-.0926.937811-.20571.937811-.11313 0-.2057-.364805-.2057-.810678zm-.35954-.114993c.002-.45255.0444-.613462.0936-.357585.0492.255879.0474.626147-.004.822818-.0515.196672-.0917-.0127-.0895-.465233zm8.72379.154278c-.15724-.311127-.4836-1.144599-.72524-1.852159-.41567-1.217142-.43935-1.673081-.43935-8.460125 0-6.142693.0445-7.2106524.31021-7.4311094.43195-.35848 2.07242-.143003 2.74743.360875l.54219.404737.0538 8.0699354.0538 8.069935-.7018.701799c-.85759.857592-1.45416.901697-1.84109.136112zm1.57818-1.57917c.14435-.376177-.37986-.817458-.78596-.661623-.32038.122943-.41665.575397-.17404.818003.24351.243511.84409.145678.96-.15638zm-.7798-.103678c-.15212-.246146.23484-.490036.50884-.320698.23005.142179.079.512189-.20906.512189-.0998 0-.23468-.08617-.29978-.191491zm.46434-5.403673c.62109-.621088-.01-1.606206-.76853-1.200123-.51872.277613-.55364.939932-.0646 1.224787.46733.272193.53835.270091.8331-.02466zm-.88857-.376803c-.0799-.12926-.0484-.33181.0698-.450112.27644-.276446.92097-.03531.8085.302476-.1145.343874-.6966.441715-.87835.147636zm.89628-6.962407c.15133-.09592.24389-.39534.20571-.66539-.0955-.675622-1.10189-.818143-1.303-.184529-.23345.735575.44664 1.262345 1.09729.849919zm-.80677-.354515c-.18277-.220225-.1908-.367417-.0288-.529348.28405-.284046.86907-.07125.86907.316125 0 .428645-.54635.567295-.8402.213223zm-31.238751 13.084487c-1.092339-1.745098-1.35358-2.040087-1.728817-1.952145-.243115.05698-.573561.01801-.734321-.0866-.249168-.162134-.241234-.268118.05376-.718343.337835-.515602.330988-.54157-.288195-1.093264-.348836-.310816-1.053721-1.238137-1.566413-2.060716l-.932164-1.495596-2.08718.0012c-2.311953.0012-3.523096.246471-3.717309.752585-.156291.407288.244518.873612 1.732981 2.016243 1.283444.985247 2.589335 1.287889 3.962139.918231.787396-.212023.81387-.246849.703701-.925736-.06296-.387989-.08156-.705431-.04133-.705431.233894 0 .953703 1.498025.795723 1.656006-.576436.576436-3.978821 1.314739-3.981065.863875-.000412-.08485-.573296-.617013-1.273048-1.182578-.699752-.565579-1.806425-1.768951-2.459275-2.674174-.652848-.905222-1.329632-1.807851-1.503964-2.005841-.174331-.19799-.316967-.545117-.316967-.771392 0-.356555.137137-.411409 1.028522-.411409.754251 0 1.138232.10971 1.439933.411409.372226.372227.68568.411409 3.291272.411409h2.879863v-.576589c0-.696494 1.129449-2.303274 1.619031-2.303274.522276 0 2.409484 2.044625 2.728395 2.955981.184892.528357.56465.992908 1.129207 1.381332.467842.321887 1.316622 1.213304 1.886162 1.980928 1.23355 1.662567 1.80394 2.220894 2.56245 2.50826l.56568.214315v2.473546 2.473545h-2.23099-2.23099zm-2.736474-11.057811c.112471-.337794-.53205-.578924-.808497-.302477-.1183.118302-.149732.320853-.06985.450113.181751.294079.763847.196236.878342-.147636zm-21.876734 10.151409c-.664049-.664049-.699395-.773207-.699395-2.159896 0-1.133871.06623-1.460503.296138-1.460503.19372 0 .318221.266787.359984.771391l.06384.771393 1.459228.05979c1.098471.04501 1.52223-.01613 1.714058-.24726.381882-.460139.08005-1.111285-.56038-1.208925-.305725-.04661 1.354858-.09861 3.690182-.115568l4.246042-.03082 1.153701.970008 1.1537.970009v1.189888 1.18989h-6.088848-6.088853zm13.07948-.586258-.0033-1.285653-1.282325-1.075876-1.282322-1.075877-5.667811-.004-5.66781-.004-.46375-1.43999-.463763-1.439932h-3.791568-3.791569l-.75322-1.134433-.753222-1.134431-5.959239.05448-5.959242.05448-.600443 1.954193c-.330244 1.074807-.74213 2.44017-.915303 3.034141-.271758.932106-.3855 1.07995-.830869 1.07995-.6206 0-.636057.09918.625134-4.011239l.883622-2.879864 6.359201-.05428 6.3592-.05429.821514 1.332627.821516 1.332627 10.285225.0105 10.285225.0105 1.420903 1.899583c.781495 1.044772 1.969439 2.353073 2.639876 2.907336 1.170117.967364 1.213429 1.037287 1.080718 1.744702-.257707 1.373699-.379235 1.464489-1.960313 1.464489h-1.432738zm-12.750352-2.30436c0-.6969.03244-.729781.719965-.729781.395981 0 .719966.09257.719966.205704 0 .113138.28414.205704.63142.205704.537147 0 .621607.0691.565688.462836-.05904.415701-.19666.469071-1.351386.524076l-1.285653.06124zm36.409701-1.861156v-2.365603h2.46845 2.46846v1.818843 1.818843l-1.39361.546759c-.87759.344314-1.79157.54676-2.46845.54676h-1.07485zm-18.812965.668539c.05912-1.776806.06713-1.799914.624458-1.799914.488583 0 .520147.05295.398547.66854-.333503 1.68834-1.068584 2.501292-1.023005 1.131374zm-41.372974-.308556c.284913-.905983 1.148742-3.83359 1.148742-3.89321 0-.03663 2.532488-.0666 5.62775-.0666h5.62775l.75119 1.131375.751193 1.131376h3.779011 3.779011l.230127.913908c.126567.502649.230124.965484.230124 1.028521 0 .06304-4.958574.114614-11.019054.114614-10.400325 0-11.012695-.02021-10.905844-.359982zm-2.061534-1.536356c.133599-.667992.445065-1.143145.628859-.95935.160337.160335-.348235 1.621462-.564376 1.621462-.112048 0-.139837-.285341-.06448-.662112zm17.609592-2.629161c0-.411409.102851-.617114.308557-.617114.205703 0 .308557.205705.308557.617114s-.102854.617114-.308557.617114c-.205706 0-.308557-.205705-.308557-.617114zm-1.542784 0c-.365868-.40428-.35929-.411409.379527-.411409.61471 0 .751847.07504.751847.411409 0 .262753-.137137.411409-.379527.411409-.20874 0-.547071-.185134-.751847-.411409zm2.571306 0c0-.395276.137137-.411409 3.496976-.411409 3.359841 0 3.496977.01613 3.496977.411409 0 .395275-.137136.411409-3.496977.411409-3.359839 0-3.496976-.01613-3.496976-.411409zm7.405362-.102852c0-.491406.05486-.514262 1.234227-.514262 1.179372 0 1.234228.02286 1.234228.514262 0 .491405-.05486.514261-1.234228.514261-1.179372 0-1.234227-.02286-1.234227-.514261zm3.291273 0c0-.434265.096-.514262.617113-.514262.521117 0 .617113.08.617113.514262 0 .434265-.096.514261-.617113.514261-.521117 0-.617113-.08-.617113-.514261zm1.85134 0c0-.377125.109708-.514262.411409-.514262.3017 0 .411409.137137.411409.514262s-.109709.514261-.411409.514261c-.301701 0-.411409-.137136-.411409-.514261zm1.439931-.02201c0-.433691.06886-.506095.359983-.378521.197991.08676 1.031094.199351 1.851341.250197 1.092103.06769 1.491357.169031 1.491357.378519 0 .223105-.407509.286074-1.85134.286074h-1.851341zm7.251084.121686c-.254558-.1041-.462835-.331106-.462835-.504458 0-.25659.344183-.323153 1.85134-.358041 4.00966-.09282 3.79407-.118627 3.794426.454264l.000411.514261-2.360208.04163c-1.298205.02289-2.568575-.04355-2.823134-.147651zm-54.974528-3.259443v-3.0569154l1.079948-.129717c.593972-.07135 7.166231-.130523 14.60502-.131506l13.52507-.0018v2.3656034 2.365601h-.822817-.822817v-2.057045-2.0570454h-2.082233c-1.951636 0-2.064833.02258-1.804793.359983.152593.1979914.85818 1.0678014 1.567972 1.9329114.709791.865112 1.29053 1.62879 1.29053 1.697063 0 .06827-.216664.124133-.481478.124133-.345292 0-.852976-.436381-1.794873-1.542783-.722366-.848531-1.361944-1.537888-1.421288-1.531904-.05934.006-.655564.700238-1.324939 1.542784-1.021226 1.285426-1.314879 1.531903-1.825103 1.531903-.69668 0-.744167.09493.955496-1.910231.554904-.654646.963133-1.23605.907175-1.292008-.05596-.05595-1.273152-.07574-2.704876-.04396l-2.603133.05778 1.360482 1.542783 1.360482 1.542785-.585194.07062c-.503213.06075-.786913-.149533-2.025123-1.501032l-1.439933-1.571676-1.285652 1.544798c-.70711.849638-1.285653 1.594538-1.285653 1.655331 0 .06079.963289.110535 2.140643.110535h2.140644l-.220965.719957-.220963.719967h-8.090815-8.090814zm4.470656-.154822c.991833-1.200769 1.834187-2.2652904 1.871898-2.3656034.03771-.100313-.818531-.182387-1.902766-.182387h-1.971334v1.9734504c0 1.800453-.03607 1.982883-.41141 2.081037-.592344.154902-.51567.676716.09944.676716.398627 0 .906982-.479586 2.314175-2.183213zm4.049223.177595c-.7724-.876816-1.42791-1.628976-1.45669-1.671466-.05524-.08156-.685354.639216-1.989502 2.275732l-.78889.989945h2.819722 2.819723zm3.828243-.257132 1.285443-1.542783-1.365615-.06082c-.751086-.03345-1.965543-.03345-2.698791 0l-1.333179.06082 1.36862 1.593052c.752743.876179 1.38875 1.570433 1.41335 1.542785.0246-.02765.623178-.744522 1.330172-1.593054zm65.408175 1.954194v-.92567h2.26275 2.26276v.585232c0 1.017392-.5184 1.266108-2.63894 1.266108h-1.88657zm-25.918763-1.31058v-2.083545h-11.108043-11.108043v-1.3407284-1.340729l16.233506.05508 16.233508.05507.625933.462835c.572842.423579.850479.462835 3.273328.462835 2.613144 0 2.647184.006 2.631064.462835-.0158.44729.0545.464805 2.09214.521458l2.10847.05862v-.521457c0-.488613.0648-.521458 1.02852-.521458.90704 0 1.02852.05092 1.02852.431097 0 .237103.15485.693228.3441 1.0136104l.3441.582514 4.48996-.119889 4.48996-.119889v.95762.957619h-11.39932-11.399316l-.630525.796103-.630523.796101-2.318052.133491c-1.274927.07342-3.220578.189933-4.323667.258919l-2.00562.125429zm1.73404 1.479763c.170302-.443804-.325209-.943239-.767457-.773533-.286299.109864-.338832.462349-.15905 1.067186.06514.21914.82175-.02067.926507-.293653zm5.955409-.889149c.553098-.612215.901454-.822818 1.361015-.822818.487065 0 .617648-.08984.617648-.424933 0-.233712-.09582-.60398-.212941-.822818-.193303-.361187-.452953-.397885-2.81518-.397885-2.388667 0-2.641311.03671-3.078331.447267-.364576.342502-.476092.670142-.476092 1.39879 0 .523339.11108 1.062605.246846 1.19837.151772.151773.895209.246845 1.930256.246845h1.683412zm-4.055335.06856c-.283318-.283316-.12651-1.454352.239043-1.785174.301924-.273236.821677-.340438 2.633018-.340438 1.481045 0 2.34169.08485 2.503682.246845.375868.375868.296982.575972-.227062.575972-.271557 0-.771869.307417-1.171728.719967-.677552.699056-.743444.719966-2.268818.719966-.864049 0-1.632711-.06171-1.708135-.137138zm11.999429-1.338023c0-.951516-.52883-1.198998-2.562047-1.198998-2.055451 0-2.374861.143866-2.374861 1.069664v.575972h2.468454c2.396214 0 2.468454-.01307 2.468454-.446638zm-4.5255-.129334c0-.678837.442752-.863959 2.066304-.863959 1.294316 0 1.636426.07051 1.933206.398446.60641.67008.2189.835781-1.954604.835781-1.832032 0-2.044906-.03855-2.044906-.370268zm10.49093.129334c0-.94804-.53071-1.198998-2.53557-1.198998-2.0325 0-2.60704.25636-2.60704 1.163256 0 .48031.011.48238 2.5713.48238 2.50178 0 2.57131-.01207 2.57131-.446638zm-4.7312-.03574c0-.640889.72609-.957552 2.19563-.957552 1.13699 0 1.51553.07983 1.78372.37618.67703.748107.4439.858047-1.81946.858047-1.67215 0-2.15989-.06248-2.15989-.276675zm-6.27399-1.6747c0-.4538164-.639515-.6798114-.974834-.3444914-.34574.3457384-.0047.8921824.511079.8189384.303449-.04309.463755-.207091.463755-.474447zm5.96543-.0028c0-.3016994-.13714-.4114074-.51426-.4114074-.47873 0-.67939.3440454-.45677.7831544.17519.345554.97103.04088.97103-.371747zm-37.193656-.3600004c.304535-.407658.200846-.862062-.214988-.942144-.522588-.100642-.818426.246774-.653261.767158.153002.4820704.57527.5671744.868249.174986zm2.016404-.363302c-.0012-.362628-.128015-.529027-.436653-.573244-.521123-.07466-.807178.499613-.458274.920015.368867.4444594.896972.2398264.894927-.346771zm-3.265832 4.4332094c-.194699-.297151-.332215-.93576-.332215-1.542785v-1.03576h1.645636 1.645636v1.542784 1.542785h-1.313421c-1.168992 0-1.349952-.05575-1.645636-.507024zm3.370467-1.035761c0-.891386.08685-1.542784.205704-1.542784.118851 0 .205704.651398.205704 1.542784s-.08685 1.542785-.205704 1.542785c-.118852 0-.205704-.651399-.205704-1.542785zm.822817-.0051v-1.547882l3.342698.05652 3.342698.05652.06044 1.491359.06044 1.491357h-3.40314-3.403136v-1.547881zm13.42222 1.402706c-.426881-.08222-.462836-.199896-.462836-1.514772v-1.425625h2.159897 2.159897v1.542784 1.542785l-1.697062-.02801c-.933384-.01541-1.905338-.06813-2.159896-.117158zm-6.222562-1.485414c0-1.328711.03653-1.455015.420808-1.455015.388332 0 .416112.106994.359982 1.38638-.04949 1.127878-.127946 1.399176-.420808 1.455014-.315381.06013-.359982-.111639-.359982-1.386379zm2.26275-.01508c0-1.142802.06367-1.439931.308556-1.439931.244887 0 .308557.297129.308557 1.439931 0 1.142804-.06367 1.439932-.308557 1.439932s-.308556-.297128-.308556-1.439932zm1.028521 0c0-1.302795.03918-1.439931.41141-1.439931.372227 0 .411409.137136.411409 1.439931 0 1.302796-.03918 1.439932-.411409 1.439932-.372227 0-.41141-.137136-.41141-1.439932zm1.439932 0c0-1.142802.06367-1.439931.308557-1.439931s.308557.297129.308557 1.439931c0 1.142804-.06367 1.439932-.308557 1.439932s-.308557-.297128-.308557-1.439932zm-3.291271-.102852c0-.75425.08967-1.33708.205704-1.33708.116038 0 .205704.58283.205704 1.33708s-.08967 1.33708-.205704 1.33708c-.116038 0-.205704-.58283-.205704-1.33708zm-73.3646002-.620828c-.01047-1.655136.01483-1.758705.4565-1.869558.929912-.2333934 1.215815-.03335 1.283333.89795.05872.80993.105794.87247.656712.87247.551128 0 .597971-.06236.656713-.874244.0566-.782279.12276-.881092.62894-.939334.544984-.06271.565688-.03026.565688.886662v.951748l.771392-.06385c.748771-.06197.773247-.08948.834645-.938088.0559-.772638.121647-.874244.565687-.874244.4583412 0 .5024352.08123.5024352.92567 0 .920772.0038.92567.719965.92567.716157 0 .719967-.0049.719967-.92567 0-.920772.0038-.92567.719964-.92567h.719967v1.85134 1.851341h-4.8954182-4.895417zm10.2557312.0716c.03899-.951453.151694-1.505079.317568-1.559927.190574-.06301.25713.318754.25713 1.474904 0 1.269138-.0592 1.559926-.317567 1.559926-.262381 0-.307066-.256315-.257131-1.474903zm1.191813-.06788v-1.33708h9.359555 9.359555v1.33708 1.337079h-9.359555-9.359555zm104.086476-.439341v-.953634l2.38321.14676c2.68008.165041 3.17081-.01433 3.17081-1.1589574v-.592952l1.90277.05914 1.90276.05914.0597 1.6970634.0597 1.697062h-1.03683-1.03685v-.719966-.719965h-3.29127-3.29128v.719965c0 .582829-.0784.719966-.4114.719966-.35225 0-.41141-.137137-.41141-.953633zm1.38959.233667.0983-.514262h2.65018 2.65018v.514262.514261h-2.74848-2.74849zm-10.68639-1.838703c-.23728-.2548294-.37131-.7146924-.37131-1.2739894 0-1.520727-.0223-1.516105 7.29686-1.512627 7.41844.0035 7.37738-.0048 7.4746 1.515021.10691 1.6712744.0294 1.7003544-3.97697 1.4922744-1.93158-.10032-4.87511-.10032-6.74044 0-3.13688.168705-3.331.157073-3.68274-.220679zm2.056-.1566314c.34351-.343501.30801-.886244-.0789-1.207396-.64127-.532209-1.44486.499315-.90022 1.155567.30144.3632174.64937.3816334.97918.05183zm-.88856-.376802c-.0799-.12926-.0485-.33181.0699-.450112.27644-.276447.92097-.03531.80849.302475-.11449.343874-.69659.441715-.87834.147637zm11.86727.283208c.2069-.18724.37618-.412045.37618-.499567 0-.215109-.60312-.80563-.82282-.80563-.22851 0-.82282.594303-.82282.822818 0 .200295.58248.8228184.76989.8228184.0679 0 .29267-.1531974.49957-.3404394zm-.85805-.482379c0-.274272.13714-.411409.41141-.411409s.41141.137137.41141.411409c0 .274273-.13714.411409-.41141.411409s-.41141-.137136-.41141-.411409zm-18.90857-.119994c.01-.239634.0586-.288378.12428-.12428.0594.148493.0521.325913-.0162.394267-.0683.06836-.11697-.05314-.10804-.269987zm.60087.01714c0-.169705.0926-.308557.20571-.308557.11314 0 .2057.138852.2057.308557 0 .169707-.0926.308557-.2057.308557-.11314 0-.20571-.13885-.20571-.308557zm.82282 0c0-.169705.13885-.308557.30856-.308557s.30856.138852.30856.308557c0 .169707-.13885.308557-.30856.308557s-.30856-.13885-.30856-.308557zm1.02852.102853c0-.113138.27771-.205705.61712-.205705s.61711.09257.61711.205705c0 .113138-.2777.205704-.61711.205704s-.61712-.09257-.61712-.205704zm-8.324462-1.384158c-.108568-.432572-.04061-.64254.296281-.915333.675335-.546852 1.326736-.209928 1.406634.727548.06358.746093.06056.749123-.749092.749123-.713756 0-.830123-.06849-.953823-.561338zm-31.241486-.42291c-1.913794-.05026-2.213242-.103776-2.108471-.376808.06717-.175023.122115-.727206.122115-1.227071 0-.710131.07476-.908847.341909-.908847.459332 0 2.162622 1.005887 2.498191 1.47532.147837.206811.403654.376021.568478.376021.164828 0 .47785.111266.695609.247258.313257.195634.506812.187912.927034-.03698.408035-.218372.587352-.228002.773803-.04156.319035.319037.92615.310568 1.035273-.01445.06742-.200802.206363-.193187.634256.03476.473139.252051.622706.252051 1.095845 0 .427892-.227948.566833-.235562.634254-.03476.109683.32667.559954.328821 1.07823.0051.318387-.198837.456627-.198837.655462 0 .302973.302973.992517.335122.992517.04627 0-.113137.185134-.205704.411409-.205704s.411408.09257.411408.205704c0 .283731.534545.257753 1.05819-.05143.348396-.205704.454117-.205704.528613 0 .119136.328977.724557.331943 1.05135.0051.198836-.198836.337076-.198836.655463 0 .487672.304557 1.026179.328841 1.026179.04628 0-.113137.185134-.205705.41141-.205705.226275 0 .411408.09257.411408.205705 0 .284516.687587.258652.983225-.03698.18645-.186448.3612-.179263.754094.03101.420294.224934.568877.225999.833988.006.265021-.219949.413092-.219278.829831.0037.424247.22705.596907.223709 1.055171-.02042.427892-.227947.566833-.235562.634254-.03476.171064.509489.832297.271737 2.538264-.912657.668638-.464212.938258-.789955.92567-1.118351-.01448-.377916.131258-.494977.790357-.634811.508425-.107867.886041-.09353 1.018237.03867.143024.143025.07366.210121-.217243.210121-.875788 0-1.171102 1.050649-.427021 1.519234.264733.166717.463614.16109.755792-.02138.3484-.217579.4475-.161228.816592.464336.329494.55845.552015.711967 1.031983.711967.33655 0 .654798.06943.707218.154279.08918.144365-24.048085.224181-28.940347.0957zm25.462994-1.915352c-.07664-.123994.01047-.375248.193567-.55834.306724-.306727.359067-.306727.665791 0 .388802.388802.221042.783784-.332896.783784-.212921 0-.449828-.10145-.526462-.225444z" fill="#273839" stroke-width=".205704"/></svg>