<svg height="128" viewBox="0 0 101.42959 33.866667" width="383.35599" xmlns="http://www.w3.org/2000/svg"><path d="m78.953131 30.596929c-.749808-.267976-.997653-1.319104-.319274-1.354079.308905-.01593.331483-.04181.09122-.104598-.175605-.04589-.319274-.152798-.319274-.237576 0-.08478-.04661-.275557-.103535-.423953-.08085-.210713.175126-.319613 1.168619-.49716.699689-.125042 1.409136-.174784 1.576546-.110541.423266.162423.273493.701484-.27152.977228-.249965.12647-.346461.231155-.214435.232634.887218.0099 1.243605-.889482.535329-1.351053-.361343-.235484-.563385-.234128-1.687578.01131-1.544462.337204-2.280507.158473-2.280507-.553768 0-.245133-.04985-.575558-.110745-.734278-.07688-.200387-.0052-.288583.233905-.288583.18956 0 .777386-.112252 1.306294-.249449.884212-.229363.993926-.222061 1.362457.09066l.400799.340111-.511883.45666c-.336026.299779-.417927.456667-.238396.456667.297697 0 .841502-.671956.841502-1.039811 0-.125875-.193293-.355513-.429547-.51031-.391101-.256262-.566618-.248589-1.961233.08574-1.733838.415643-1.805363.424563-1.805363.225139 0-.07953.356815-.240032.792901-.356669.870958-.232945 1.943715-1.112031 1.943715-1.592807 0-.168146-.239325-.545039-.531824-.837545-.615315-.615318-1.071181-.593384-2.7292.131322-.871672.381-1.257015.428573-3.471388.428573-3.194698 0-3.301825-.05953-3.301825-1.834751v-1.266741h2.382497c1.567364 0 2.343289.06344 2.267902.185417-.06303.101979-.183211.143011-.267073.09118-.08386-.05183-.362166.263578-.618454.700904-.396927.677298-1.154076 1.394226-1.472443 1.394226-.05068 0 .11063-.298801.358457-.664002.247835-.3652.450608-.866122.450608-1.113159 0-.44792-.0035-.4488-1.322696-.318975-.727485.0716-1.338486.143613-1.357779.160025-.01931.01641-.05482.411705-.07901.878426-.06723 1.299233.124538 1.422566 2.212167 1.422566 2.060868 0 2.24361-.11208 2.168706-1.330133-.04393-.713892.03778-.905287.743192-1.741889.93826-1.112721 1.470356-1.304095 3.629875-1.305536 1.3834-.000957 1.511811.02857 1.38611.318254-.258044.594679-.301417 1.461783-.09262 1.851909.114295.213573.553201.604788.975348.869363.96361.60394 3.72552 3.271101 4.068322 3.928752.141238.270959.256799.747099.256799 1.058093 0 1.07761-.400961 1.492797-2.510693 2.59978-1.874428.98352-2.478374 1.160657-3.14497.922423zm1.003418-1.332915c.351793-.151168.350541-.157255-.03483-.169617-.219847-.0071-.450468.06927-.512479.169617-.133366.215787.04514.215787.547318 0zm-1.094641-1.824406c.240598-.103385.271666-.160211.09122-.166824-.150517-.0055-.396808.06955-.547325.166824-.333493.21552-.04543.21552.456102 0zm-32.182045 1.596355c-.08507-.22577-.212712-.677311-.283639-1.003424l-.128961-.592931h1.588559 1.58856l-.12254.766321c-.172787 1.080546-.366449 1.240526-1.501696 1.240526-.854645 0-1.006152-.05454-1.140283-.410492zm-.26198-2.082865c-.06689-.06689-.121628-.354238-.121628-.638542v-.516915h1.550746 1.550745v.638542.638543h-1.429118c-.786016 0-1.483852-.05473-1.550745-.121628zm13.26234-.122594c.06468-.184494.120235-2.372814.123456-4.862937l.0055-4.527498 4.372238-.02486 4.372246-.02486v1.4778c0 .938742-.06654 1.43667-.182445 1.365045-.100342-.06202-.182438-.474463-.182438-.916551 0-.607971-.08597-.849808-.352887-.992657-.402056-.215173-6.917694-.259457-7.244039-.04923-.114436.07372-.237588.561086-.273658 1.083035-.03606.52195-.0095.891392.05903.820983.06854-.07041.15065-.456409.182438-.857778l.05778-.729763h3.648816 3.648808l.05502.852058c.03027.468631.173923.950749.319271 1.071372.206386.17129.264259.748763.264259 2.63712 0 2.851489-.103583 3.503018-.599086 3.768203-.322387.172534-.349479.154617-.216701-.14331.174984-.392657.449635-5.331077.315864-5.679665-.06918-.180281-.93536-.221477-3.85396-.183298l-3.764727.04925-.09122 2.775897c-.07935 2.414686-.136136 2.818264-.436396 3.10149-.331607.312803-.34055.312415-.227569-.0099zm.78671-.285037c.06371-.260791.205855-.534481.315836-.608202.13775-.09233.129006-.134906-.02806-.13683-.242753-.0029-.31503-.584764-.09944-.800357.179908-.179906.196981-1.574165.01931-1.574165-.161104 0-.100866-.655161.07655-.832573.06172-.06172.06675-.392228.01124-.734464-.106272-.65487.176246-.870818.396375-.30298.117877.304069.134964.304069.358905 0 .204021-.277032.565106-.319271 2.729301-.319271 2.143558 0 2.510317.04207 2.60901.299257.104956.273516.134812.271943.347018-.01827.127696-.17464.31974-.263412.426763-.19727.24367.150598.25733.828485.01669.828485-.101638 0-.129378.242522-.06475.565789.07667.383349.0311.62314-.14139.743652-.196037.136977-.202125.199133-.02648.270397.270258.109661.309555.79189.04565.79189-.100342 0-.182445.0821-.182445.182441 0 .100342.122634.182441.272519.182441.333516 0 .262377.764311-.08182.879045-.186852.06228-.186411.105494.0021.222114.18512.11441.16795.245997-.08184.627231l-.316113.482446-3.360449-.03832-3.36045-.03832.115876-.474165zm-1.589706-.702215c-.0041-.476627-.01406-1.400233-.02206-2.052458-.038-3.07236.02206-3.831254.303176-3.831254.233396 0 .273665.496644.273665 3.375153 0 2.878508-.04027 3.375151-.273665 3.375151-.2038 0-.275554-.221218-.281091-.866592zm16.791971-.680677c0-.3877-.137431-.77945-.346947-.988964-.340961-.340965-.333391-.352121.439628-.647337 1.314526-.502024 2.056035-.558517 2.465619-.187847.923124.835418.03262 1.851746-2.056587 2.347188-.474813.112599-.501713.08456-.501713-.52304zm-29.307111-.0038c-.127898-.333295-.0084-1.105544.162218-1.048659.07526.02509.75777.04561 1.516696.04561h1.379864l-.05717.578606-.05717.578607-1.424876.0463c-1.062448.03452-1.448959-.01647-1.519562-.200456zm44.495298-.756566c-.312513-.129431-.285989-.69989.06399-1.376731.224398-.433949.26353-.83132.168882-1.715147-.111186-1.038217-.19305-1.213457-.839926-1.797864l-.716723-.64752h-2.736078c-2.736092 0-2.736092 0-2.371214-.364882.318073-.31807.364885-.608135.364885-2.260989 0-1.538096.05295-1.916442.280644-2.003801.38082-.146132 2.835372 1.642923 2.708323 1.974016-.05214.13586-.000692.30506.113897.375998.264833.163674 5.43329.18974 5.594815.02822.06613-.06616.764985-.120285 1.55296-.120285h1.432679l-.04919 3.968085-.04919 3.968084-2.645392.03364c-1.454962.0185-2.748008-.0089-2.873436-.06082zm5.427605-3.712856v-3.101491h-1.058154c-.581986 0-1.156674.09852-1.277088.218929-.235738.235744-.325342 5.63438-.0973 5.862425.06686.06689.641581.121629 1.277088.121629h1.155452zm-2.250094 2.797423c-.227285-.227274-.138168-5.26208.0973-5.497545.120406-.12041.613002-.218928 1.094641-.218928h.875715v2.91905 2.919051h-.973013c-.535167 0-1.027749-.05474-1.094642-.121628zm-1.398717-2.06766c0-.100343-.0821-.182441-.182439-.182441-.100347 0-.182439.0821-.182439.182441 0 .100342.08209.18244.182439.18244.10034 0 .182439-.0821.182439-.18244zm-.279811-2.444264c-.167306-.511988-.398567-.991205-.513907-1.064925s-1.424733-.135294-2.909769-.136831c-2.059113-.0021-2.827824-.06887-3.238314-.28114-.590101-.305151-.725264-.177496-.218993.206821.232108.176194 1.075304.243946 3.08846.248164 3.426106.0071 3.30405-.06965 3.632117 2.286311l.127026.912203.168787-.619857c.124912-.458735.08972-.861826-.135407-1.550746zm3.928622-1.743046c0-.104427-1.602989-.176033-4.022422-.179681l-4.022416-.006-.766649-.516913c-1.202846-.811021-2.134953-1.352336-2.134953-1.239859 0 .05661.676589.555889 1.503519 1.109524l1.503511 1.006608h3.969705c2.390317 0 3.969705-.06907 3.969705-.173615zm.42661 6.90021c.06362-.237816.116856-2.753777.118226-5.591025l.0029-5.158634.592936.303802c.84525.433087.896665.563015.785846 1.986076-.05471.702397-.18168 2.426461-.282182 3.831254-.297528 4.158592-.344038 4.412894-.869978 4.757506-.454953.298092-.461043.29583-.347338-.128979zm-50.339133-.50843c-.04192-.0418-.07621-.216517-.07621-.388237 0-.171722-.184721-.441078-.410491-.598568-.382863-.267069-.259323-.286988 1.83542-.295913l2.245911-.0096-.05663.672502-.05663.672502-1.702584.01166c-.936421.0064-1.736879-.02256-1.778796-.06437zm-16.194869-1.924523c-.766936-.58103-.163461-.644879 6.095189-.644879 6.37255 0 6.635985.03057 5.973286.693275-.264707.264707-1.058156.292067-1.058156.03649 0-.100342-.2004-.18244-.445334-.18244s-.496074.0821-.55809.18244c-.06202.100343-.313155.182441-.55809.182441-.244933 0-.445333-.0821-.445333-.182441 0-.100342-.2004-.18244-.445334-.18244-.244933 0-.496074.0821-.55809.18244-.06202.100343-.313155.182441-.558089.182441s-.445334-.0821-.445334-.182441c0-.100342-.2004-.18244-.445334-.18244s-.496075.0821-.55809.18244c-.06202.100343-.313155.182441-.55809.182441-.244933 0-.445333-.0821-.445333-.182441 0-.100342-.241449-.18244-.536555-.18244-.295105 0-.587295.0821-.649309.18244-.06202.100343-.313156.182441-.55809.182441s-.445334-.0821-.445334-.182441c0-.100342-.2004-.18244-.445334-.18244s-.496074.0821-.558089.18244c-.166425.269282-1.406924.210686-1.797067-.08488zm14.110361-.100264c-.291861-.545348.03548-.601947 2.944485-.509108 2.502983.07988 2.880768.176522 2.892271.739866.0015.07526-1.266841.136831-2.818618.136831-2.641616 0-2.833947-.02342-3.018138-.367589zm-14.046481-1.261688c0-.415534-.09145-.54762-.410491-.592932-.395931-.05623-.410492-.126252-.410492-1.973926v-1.915627l.848989-.05489.84899-.05489.125457.742576c.069.408417.06846 1.15695-.0013 1.663408-.115707.841286-.09286.92967.264487 1.023117.523689.136948.377559.497639-.230787.569656-.404536.0479-.487554.148843-.487554.592932 0 .354109-.0926.535204-.273662.535204-.180997 0-.27366-.181031-.27366-.534633zm1.094644.272752c0-.144033.533639-.7333 1.185864-1.309481 1.020148-.901209 1.185864-1.134 1.185864-1.665866 0-.566836.04173-.613461.501712-.560534l.501712.05772.03172 1.870017.03172 1.870017h-1.7193c-1.372263 0-1.7193-.05286-1.7193-.26188zm3.77044.140254c-.15416-.15416-.157298-1.756485-.0056-2.86318.111877-.816235.137925-.846447.729762-.846447.601545 0 .613745.01559.613745.784495 0 .431472-.100567.885061-.223482 1.007977-.176349.176349-.176349.298954 0 .581335.122924.196819.223492.605261.223492.907649 0 .501477-.05345.549798-.608136.549798-.334475 0-.662869-.05474-.729762-.121627zm1.641967 0c-.193201-.1932-.141637-.76349.104699-1.157934.156431-.250487.170515-.461002.04561-.681676-.09939-.1756-.155471-.668189-.124616-1.094644.05435-.751182.0757-.775373.684153-.775373h.628052v1.915627 1.915627h-.608135c-.334476 0-.662869-.05474-.729763-.121627zm1.702779-1.794v-1.915627h.638541.638543v1.627044c0 .894875.04983 1.756907.110739 1.915627.0899.234281-.03025.288583-.638541.288583h-.749282zm1.641965 0v-1.915627h.640605.640607l-.03801 1.505135c-.02091.827825.02475 1.689857.101451 1.915627.129539.381273.08665.410492-.60259.410492h-.742057zm1.641966 1.313573c0-.33113.09686-.698914.215242-.817297.165364-.165363.162139-.314469-.01393-.643429-.126037-.235503-.202373-.709227-.169633-1.05272.05503-.577393.111166-.628808.743678-.681157l.684159-.05663v1.926639 1.926641h-.729763c-.703964 0-.729763-.02129-.729763-.602054zm1.824406-1.313573v-1.915627h.638543.638542v1.627044c0 .894875.04983 1.756907.11074 1.915627.0899.234281-.03025.288583-.638542.288583h-.749283zm1.719903 1.673137c-.05118-.133369-.06912-.974876-.03988-1.870017l.05317-1.627527h.638542c.608303 0 .641259.033.695926.696884.03156.383287-.0392.813258-.157242.955491-.119232.143665-.155429.401541-.08144.5802.07325.176877.166467.588414.207148.914527.0713.571625.05066.592932-.574599.592932-.371151 0-.688368-.103723-.741618-.24249zm1.685657.120863c-.192189-.192189-.141493-1.155458.06081-1.155458.23107 0 .238679-.600087.01053-.830105-.09455-.09532-.124792-.522236-.06719-.948691.09967-.738015.134323-.775373.719235-.775373h.614521v1.915627 1.915627h-.608136c-.334475 0-.662869-.05474-.729762-.121627zm1.702778-1.794v-1.915627h.626805.626803l.05735 1.916012.05735 1.916011-.684152-.000384-.684153-.000385zm1.641966 0v-1.915627h.729763.729763v.741756c0 .407966-.08971.909371-.199342 1.114231-.144163.26937-.144163.427655 0 .571816.109637.109638.199342.470267.199342.801397 0 .580768-.0258.602054-.729763.602054h-.729763zm1.716504 1.458011c-.06667-.265638-.03434-.567763.07216-.674258.119908-.119906.153181-.667397.08789-1.446168-.09997-1.192484-.0861-1.253212.286277-1.253212.372701 0 .391343.08256.391343 1.733186 0 .953252.02052 1.79476.04561 1.870017.02509.07526-.136208.162685-.358431.194285-.307249.04369-.432983-.05785-.524844-.42385zm1.202546-1.153423v-1.611039l.793829-.570086c.701261-.503603.959522-.576357 2.214579-.623859 1.286978-.04871 1.435132-.09282 1.573585-.468509.124083-.336684.02868-.552184-.50697-1.145076-.362905-.401687-.616641-.773522-.563864-.8263.05275-.05278.528145.400932 1.056374 1.008245l.960404 1.104205h4.61411c2.879281 0 4.656508.0686 4.726868.182441.07385.119488-1.254251.182441-3.848878.182441-3.944649 0-3.964197.0019-4.559607.456102-.708572.540452-.8453.553618-1.495342.143991-.486092-.306312-.489877-.305464-.203753.04561.465233.570841.553707 1.008484.336765 1.665823-.398203 1.20657-1.874624 1.519323-2.74976.582485-.294068-.314799-.560726-.540569-.59257-.501712-.03186.03885-.288772.501666-.570952 1.028464-.33362.622847-.630514.957813-.848933.957813-.300861 0-.335885-.167984-.335885-1.611038zm4.673909-.494502c.38752-.591429.113595-1.297035-.570139-1.468642-.918895-.230628-1.573923.969628-.898029 1.645524.437113.437111 1.119757.354868 1.468168-.176882zm-1.402668-.19026c-.321106-.386907-.01096-.878618.60072-.95239.509528-.06145.769353.336063.589679.902164-.133108.419376-.858627.449988-1.190399.05023zm.825881-.245762c.134923-.218309-.208275-.434616-.451282-.284429-.204035.126101-.07009.454263.185417.454263.0885 0 .208137-.07643.265865-.169834zm11.665436 1.96421c-.07223-.11686-.169964-.814695-.217204-1.550746-.08588-1.338179-.08585-1.338274.383446-1.338274.258129 0 .527952.09486.599603.210791.09613.15554 1.437882.181716 5.119101.09987 4.085361-.09083 4.98883-.06697 4.98883.131752 0 .133471.131106.351483.291351.484472.264546.219557.260348.253995-.04558.374398-.185333.07293-1.316404.138369-2.513499.145422l-2.176537.01283-.764536.820983-.764533.820983h-2.384551c-1.617591 0-2.426786-.06834-2.515861-.212472zm4.214693-1.703156c0-.45553-.07316-.547321-.436216-.547321-.583998 0-.904083.506296-.572594.905715.135915.163766.418502.27327.627964.243343.289441-.04136.380846-.185772.380846-.601737zm-63.186805.845427c-.2623369-.875601-.2745623-2.484429-.02246-2.955487.106404-.19882.380554-.352889.627927-.352889.433094 0 .437578.01777.329604 1.305688-.08096.965729-.05445 1.271686.101834 1.175097.116216-.07183.212558-.556761.214094-1.077636.0015-.520876.08238-1.070194.179647-1.220708.09727-.150513.180907-.232612.185861-.182441.01534.155383.02387 3.356575.0098 3.694424-.01023.246363-.173311.319271-.714142.319271-.655584 0-.714544-.04558-.912203-.705319zm2.890172.355359c0-.09214-.04983-.297381-.11074-.456101-.09225-.240411.04805-.288583.840502-.288583.770594 0 .931299.05197.846228.273661-.05775.150513-.0241.273661.07479.273661.107523 0 .160229-.605085.131105-1.505135l-.0487-1.505136 5.062728-.0485 5.062728-.0485v1.094551 1.09455l-4.880287.04859-4.880288.04859-.05717.592931c-.05681.589231-.06336.592933-1.049035.592933-.545525 0-.991864-.07538-.991864-.167519zm14.52355-.668385c-.06091-.158721-.110739-1.718588-.110739-3.466372 0-2.703076.04088-3.177791.273661-3.177791.232564 0 .273661.46757.273661 3.113486 0 1.797314.07984 3.262661.188858 3.466372.156371.292178.12834.352888-.16292.352888-.193479 0-.401614-.129862-.462521-.288583zm.885606-.0986c-.06759-.212951-.130867-1.341802-.140619-2.508559l-.01773-2.121378.493206-.05772.493208-.05772v2.566288c0 2.414833-.02081 2.566287-.352587 2.566287-.199126 0-.406072-.168518-.475475-.387182zm52.732426.0223c-.323317-.357259-.318663-.36488.223043-.36488.657502 0 1.141247.439813.678894.617236-.445026.170771-.544106.143048-.901937-.252356zm-55.796694.04561c-.09718-.160968-.19433-1.742276-.151312-2.462948.02844-.476434.07591-.501712.94215-.501712h.912204v.980618c0 .53934.05131 1.237176.114025 1.550746l.114025.570127h-.92424c-.508332 0-.961417-.06158-1.006852-.136831zm33.336977-.151753c.06088-.158721.11074-.528163.11074-.820983 0-.410774.08335-.532401.364876-.532401.310824 0 .364884.121627.364884.820984 0 .763071-.03351.820982-.475623.820982-.358747 0-.448408-.07091-.364877-.288582zm24.338872-2.447755c.0486-2.430109.08952-2.737505.364886-2.74243.26361-.0047.269082-.02877.03645-.160373-.150517-.08515-.478907-.211182-.729764-.280064-.348287-.09563-.39141-.07995-.182439.06636.204899.143454.01009.1923-.775375.194392-.928337.0025-1.049038-.03919-1.049038-.362088 0-.410816.137034-.442479.809116-.186956.257381.09786.467972.114351.467972.03665 0-.14896-1.060068-.579457-1.426868-.579457-.124199 0-.215091.269843-.215091.638543 0 .608135.03041.638541.638541.638541h.63854v2.286234c0 1.948333-.04411 2.303162-.298464 2.400764-.710448.272628-.883189-.155541-.978617-2.425734l-.09122-2.170043-1.607268-.05287-1.607261-.05287.749227-.89487c.642576-.767482.858388-.904751 1.516044-.964287l.766812-.06942-.852482-.03187c-.821702-.03072-.88344.0043-1.709736.97155l-.857254 1.003423h-5.359839c-3.49258 0-5.359832.06429-5.359832.184558 0 .121453 2.409037.180811 7.045528.173601 3.875036-.006 7.083165.02668 7.129153.07267.04602.04599.0257.747807-.04507 1.559586l-.12875 1.47596h-1.41784-1.417841l-.161754-.684153-.161747-.684152-8.967554-.09122-8.967557-.09122-.663606-.775373-.663613-.775373 2.522777-.02024c1.387526-.01113 3.076939-.0038 3.754246.01638.789378.02347 1.231476-.03477 1.231476-.162204 0-.119819-.406394-.198817-1.02278-.198817-.83297 0-1.146152-.09311-1.687579-.501712l-.664792-.501712-4.880291.05143-4.880285.05143v.569783c0 .540439.01718.554233.333636.267845.292859-.265035.927043-.301937 5.188789-.301937 3.039973 0 4.897316.06821 4.967912.18244.113029.182886-3.00793.273998-6.975913.203651-1.386291-.02457-2.009244.04016-2.417336.251186-.302371.156362-.549766.325859-.549766.376658 0 .0508.205059-.01508.455688-.146397.329651-.172723.879943-.20577 1.989598-.119487 1.284598.09989 1.640504.200571 2.189702.619468 1.045128.797157.885051 1.004209-.776359 1.004209-1.302417 0-1.500742.04969-2.189289.548466-.746304.540619-.757217.542577-.762685.136831-.0049-.367379-.02554-.37731-.191506-.09237-.173434.297766-.842785.319272-9.937467.319272h-9.751509v.792707c0 .949861-.401459 1.39658-1.255082 1.39658h-.587808l.03336-1.687576c.01835-.928167.07234-1.790199.119981-1.915627.06663-.175428 1.346022-.228051 5.544523-.228051h5.457907l-.298851.456102-.298849.456101h-3.53661c-2.236112 0-3.53661.06709-3.53661.182441 0 .19348 6.345171.261755 7.037918.07573.20836-.05595.52087-.342174.694468-.63605l.315631-.534323h4.266274c4.347078 0 4.485278-.02092 4.587301-.694334.02808-.18541-.02134-.190569-.222921-.02327-.218927.181692-.259013.04209-.259013-.902022 0-.82712.06521-1.116983.251323-1.116983.138226 0 .353524-.123148.47844-.273661.188387-.226994.865917-.273661 3.973203-.273661h3.746081l.622138.474526c.342169.260989.661585.435077.709798.386862.0482-.04821-.257785-.34171-.679997-.652208l-.767657-.564544-3.710564.115431-3.710562.11543v-1.377019-1.3770001l2.55417-.02366c2.448169-.022673 2.554164-.00837 2.554164.3446069 0 .3238543.118615.3682626.983649.3682626.899712 0 .993509.039315 1.099285.4607416.280615 1.118064 1.593291 1.55148 2.511475.829236.405904-.319283.899807-.364203 5.315384-.483427 2.677344-.07229 4.867901-.20124 4.867901-.286553 0-.221514 4.14991-.1950646 4.287356.02733.062.100342.236261.18244.387212.18244.19973 0 .258891-.161413.217278-.592932l-.05714-.5929325-1.55075-.01567-1.550746-.01567 1.550746.1068957c2.995255.2064687 1.074958.4141938-3.704212.4006973-2.6286-.00743-5.271867.049419-5.873918.126323-1.384057.1767866-3.230499.01972-3.330386-.2832942-.05882-.1785341 1.146242-.2372025 5.550082-.2701976 5.578141-.04179 5.588628-.042585 1.252404-.094616-2.581965-.0309837-4.447162-.1267865-4.554303-.2339266-.12031-.1203104 1.967925-.1652725 6.197257-.1334342l6.378714.04802.05663.7857303c.05633.7825118.05928.7855008.715662.7297618.89394-.07591 1.026077-.5120684.155141-.5120684-.621132 0-.653747-.030774-.653747-.6168473v-.6168463l-1.778803-.1343959c-.97833-.073918-4.529088-.1238855-7.890552-.1110393-3.36147.012843-6.44016.014198-6.841528.00302-.401366-.0112-1.109516.055494-1.573652.1481957-.464143.092703-2.018034.1310808-3.453097.085281-2.262828-.072217-2.563942-.116356-2.268336-.3325125.187471-.1370832.653566-.2492423 1.035756-.2492423.496055 0 .694891-.078306.694891-.273661 0-.2059682.220811-.273661.892684-.273661.676715 0 .925604-.077243 1.028752-.3192712.252681-.5929502.210895-.9902574-.126324-1.2008551-.220529-.1377246-.33562-.4254776-.33562-.8391268 0-.5719275.02248-.598834.24529-.2940714.198719.2717613.408724.3170337 1.106056.2384345.747998-.08431.843679-.057963.730332.2011263-.255618.5842957-.29424 1.4933087-.07468 1.7578615.12271.1478539.176459.390389.119441.5389669-.152105.3963852.263597.5706677.521126.2184785.333317-.4558408 1.756726-.4119316 2.053546.063348.23798.3810643 1.032509.4990858 1.228201.182441.14681-.2375429 1.003424-.2375429 1.003424 0 0 .2460498.606878.2306083 1.178837-.029995.36276-.1652826.564409-.1599021.908482.024244.261039.1397041.578096.1778984.773815.09322.452793-.195903 11.566305-.2510076 11.94943-.059252.168595.084382.332787.3349005.364886.5567051.04529.3129639.569085.6633736 2.33885 1.564621 1.254283.638736 2.349484 1.284357 2.433786 1.434714.132541.236381.07822.234557-.401425-.01348-.828925-.428651-.927365-.346236-.187196.15672.510321.346773.656397.571197.669395 1.028419.0092.321668.103903.672119.210561.778782.236401.236401.249111-.515083.02806-1.657841-.114345-.591087-.0937-.775372.08687-.775372.314185 0 .417897.4016.46831 1.813347.02761.774641-.03152 1.199285-.173669 1.246677-.147991.04933-.215627.685348-.215627 2.02773v1.955854l-.601611.583111c-.330894.320711-.679808.583234-.775376.583383-.104765.000165-.152019-1.086399-.118999-2.736609zm-48.492741-.365152c0-.100341-.0821-.18244-.182441-.18244-.100342 0-.18244.0821-.18244.18244 0 .100343.0821.182441.18244.182441.100343 0 .182441-.0821.182441-.182441zm15.096964-.855524c-.175599-.04589-.462944-.04589-.638542 0-.1756.04589-.03193.08343.31927.08343.351198 0 .494871-.03755.319272-.08343zm2.96466-.42156c.551884-.291559.938579-.533981.859325-.538715-.07925-.0048-.489746.170823-.912204.390127-.422457.219303-1.096497.455323-1.497866.524487l-.729763.125753.638542.01423c.376334.0084 1.050584-.203453 1.641966-.51588zm27.001211.110739c0-.24012-.102615-.472799-.228043-.517065-.365703-.129061-1.778802.06401-1.778802.243048 0 .0898-.73888.163278-1.641959.163278-2.169522 0-2.132521.333689.04558.411392.928167.03312 2.118598.07724 2.645392.09807.899169.03555.957807.01113.957807-.398718zm-1.824406-.009c0-.21591.200827-.28415.836186-.28415 1.07677 0 1.013529.431977-.07499.512201-.591493.04359-.7612-.0072-.7612-.228051zm-10.413518-2.519074c-.0079-.526797-.05578-.855191-.106424-.729762-.05061.125427-.351996.215749-.669743.200714-.551597-.0261-.555038-.03077-.07602-.103338.27594-.0418.501716-.152648.501716-.246326 0-.09559-.920502-.170322-2.09807-.170322h-2.098068v.707424c0 .406252.116504.804115.273658.934542.235732.195637.273664.122866.273664-.524983v-.752101h1.277082 1.277089v.714559c0 .755419.140708.889545.957812.913003.487187.01398.501295-.01331.487305-.94341zm-1.171459.410492c.06199-.100343.313154-.182442.558092-.182442.244932 0 .445333.0821.445333.182442s-.251145.18244-.558093.18244c-.325601 0-.511114-.076-.445332-.18244zm0-.547323c.06199-.100342.313154-.182441.558092-.182441.244932 0 .445333.0821.445333.182441 0 .100343-.251145.182441-.558093.182441-.325601 0-.511114-.076-.445332-.182441zm17.24064.266731c0-.05398-.663901-.397353-1.475344-.763045-1.394807-.628597-1.471229-.692957-1.399903-1.178934.04153-.282722.0076-.51404-.0754-.51404-.08297 0-.150841.26975-.150841.599445 0 .575479.06016.626019 1.505132 1.264151 1.752873.77411 1.596354.716027 1.596354.592423zm-15.142571-1.452595c0-.150513-.118305-.273661-.262894-.273661-.304798 0-.510542.260394-.340281.430654.218046.218046.603175.117804.603175-.156993zm9.35972.0025c.01981-.09897-.107703-.20761-.283301-.241427-.199693-.03845-.319267.05102-.319267.238929 0 .317409.539166.319643.602568.0025zm-20.397379-1.005938c0-.2115458-.285772-.2860495-1.259002-.3282354-1.250205-.054191-1.726883.1073441-1.48269.5024594.08074.130633.605637.186516 1.434511.152726 1.016629-.04145 1.307181-.114118 1.307181-.32695zm24.948761 8.585007c-.357639-.298352-.410291-.514862-.408914-1.681507.0029-2.256735.177807-3.254688.571154-3.254688.315386 0 .339466.187638.339466 2.64539 0 1.454964-.02054 2.642658-.04558 2.63932-.02511-.0033-.230334-.16017-.456109-.348515zm-70.192694-.686267c.0277-.48112.05926-1.018436.07013-1.194035.01086-.175599.105765-.319271.210895-.319271.263124 0 .143424 2.231457-.124438 2.319809-.139438.04599-.19052-.217116-.15658-.806503zm.758821.736795c-.150716-.150715-.154814-1.286689-.0066-1.83961.09167-.342081.23568-.410251.864102-.40905l.754094.0015.02201 1.184423.02201 1.184423h-.766976c-.421837 0-.821708-.05473-.888603-.121627zm56.737532-1.83547c-.454641-.378561-.831853-.749866-.838253-.825123-.0062-.07526 1.751921-.13683 3.907373-.13683 3.915976 0 3.919069.00031 4.008554.410491.269752 1.236371.52773 1.135055-3.030001 1.190004l-3.221053.04975zm23.331299-.402025c-.134928-.218309.208278-.434615.451285-.284428.20403.126101.0701.454263-.185421.454263-.08849 0-.208132-.07643-.265864-.169835zm-4.660028-.301471c0-.158874.09749-.256367.216644-.216647.338287.112761.394392.505512.07224.505512-.158875 0-.288861-.129989-.288861-.288865zm.729756-.167237c-.124905-.150513-.323022-.273661-.440232-.273661-.117218 0-.885826-.493766-1.708028-1.097259-1.546192-1.134903-1.626613-1.262631-1.721348-2.733994l-.05287-.820984 3.375156.0602 3.375156.0602 1.733183.703845c.953248.387113 2.017794.775026 2.365647.862027.546132.136593.653467.256425.786399.877926.08468.395858.102034 1.150758.03851 1.677556l-.115377.957813h-1.357656c-.764226 0-1.516059-.09893-1.720059-.226326-.288449-.180141-.436359-.180141-.724816 0-.54577.340841-3.542271.303842-3.833724-.04734zm-76.077746-.354885c0-.402764-.08419-.451508-.866593-.501712l-.866592-.0556v-1.185864-1.185865l.866592-.0556c.476626-.03058.866593-.133206.866593-.228051 0-.09484.361756-.172444.803903-.172444.73803 0 .796718.03364.716222.410491-.08549.400218-.08049.401628.19952.05635.164182-.202447.29994-.749475.31694-1.277083l.02974-.922944.107094 1.003423.107093 1.003424 1.277085.09122 1.277084.09122.01449 1.231475.01449 1.231474h-1.148332c-.934673 0-1.182272.06343-1.330768.340894-.100342.187492-.130597.392737-.06723.456102.06336.06336.02805.115208-.07848.115208-.106527 0-.224646-.324659-.262488-.721465l-.0688-.721465.825012-.05391.825013-.05391.02324-.729762c.01877-.589508.0078-.615805-.05717-.136831l-.0804.592932h-1.356744c-1.110713 0-1.42251.06576-1.719399.362654-.36191.361911-.361723.362577.09122.32509.249631-.02066.453874-.142806.453874-.271434 0-.128627.123148-.233868.273661-.233868s.273661.112885.273661.250855c0 .137971.05131.507413.114025.820983l.114025.570127h-.843788c-.773371 0-.843787-.03722-.843787-.446106zm-.06161-2.518555c-.05061-.125428-.09202-.02281-.09202.228051 0 .250855.04141.353479.09202.22805.05061-.125427.05061-.330673 0-.456101zm5.358811 2.246892c-.24193-.452052-.247073-2.873532-.0064-3.022265.100341-.06202.18244-.27119.18244-.464833 0-.257236-.392074-.549208-1.455476-1.083876-.800511-.40249-1.662543-.731799-1.915627-.731799-.436708 0-.460151.05165-.460151 1.013913v1.013914l-.775372-.0561-.775373-.0561-.05471-1.049033-.05471-1.0490349 9.90651.036716c5.448579.020199 9.261617.064853 8.473418.09924-1.239962.0541-1.445669.110617-1.526416.419386-.07913.302586-.254701.356862-1.154391.356862-.900843 0-1.078559-.0551-1.176881-.364882-.103776-.326968-.276038-.36488-1.657905-.36488-1.481727 0-1.608019.03392-3.226027.866593-1.046986.538806-2.02897.907101-2.596135.973686-.904964.106243-.906265.10733-.164084.136831l.748119.02974.01404 1.322696c.0077.727482.100052 1.548464.205179 1.824406l.191137.501712h-1.266166c-1.065084 0-1.29614-.05604-1.455009-.352888zm-14.3426344-.091343c-.1958189-.143187-.3675687-.609778-.4478635-1.216705-.1119605-.846285-.0795315-1.032789.2310557-1.328836.2786836-.265637.3941546-.291213.5050056-.111852.09557.154635.3182756.189192.6648278.10316.8119403-.201567 3.7712605-.484909 4.0295118-.385809.1617231.06206.2316398.550296.2316398 1.617579v1.52869l-2.4482771.01301c-1.7123727.0091-2.5437484-.0568-2.7659001-.219239zm1.6565841-.285532c.067237-.108787-.1537287-.182441-.5473219-.182441-.393594 0-.6145556.07365-.547322.182441.062017.100342.3083096.18244.547322.18244.2390116 0 .4853068-.0821.5473219-.18244zm1.7103806-.296467c.5856887-.117137.7941516-.433297.285699-.433297-.1564351 0-.2306924-.08695-.1650151-.193213.065679-.106267.3130303-.167841.5496747-.13683.2366444.03101.4340493-.02571.4386768-.126058.011225-.243442-.067313-.234759-1.4967213.16546-1.2763417.35736-1.5263674.573347-.820983.709209.2257704.04349.4618025.09025.5245169.10391.062713.01367.3705826-.02647.684152-.08918zm-2.1654863-.863901.5902099-.248165-.5993904-.208949c-.4997238-.174204-.6543385-.159221-.9298433.090107-.6343102.574043-.0741014.792994.9390238.367007zm2.9427187-.930559.613878-.26652-.7297627-.0046c-.9183411-.0059-1.5769154.165308-1.4467063.37599.1503052.243199.8725951.194746 1.562591-.104821zm1.3510379 1.630854c-.1339158-1.07183.00317-2.094097.2807596-2.094097.09237 0 .1679448.697836.1679448 1.550746 0 1.751431-.2586342 2.064619-.4487044.543351zm.8135855-.543351c0-2.037051.3732949-2.047383.4217899-.01167.02419 1.015466-.03296 1.462811-.193739 1.516573-.170765.0571-.2280509-.320935-.2280509-1.504899zm19.3387079.820983c0-.53516.02027-.547323.912203-.547323.501713 0 .912204-.0821.912204-.182439 0-.106424-.608135-.182441-1.459525-.182441h-1.459525v-.729763-.729763l1.140254-.03398c1.073765-.03201 1.049829-.03999-.410491-.13683-1.527045-.10127-1.551629-.11051-1.608474-.604553l-.05773-.501712h2.201405 2.201406v-.456102c0-.439728.04256-.456102 1.185863-.456102.710555 0 1.185865-.07719 1.185865-.192574 0-.1869078 5.233029-.1452911 13.980248.111181l3.30747.09698.120181.75157c.07079.442682.04237.829382-.06915.9409-.104132.104131-.18933.792938-.18933 1.530681v1.34135l-.957813-.05514-.957814-.05514-.105341-1.185864-.105341-1.185865-.03149 1.049034c-.01841.613369-.113722 1.049034-.229497 1.049034-.128353 0-.176489-.41729-.136832-1.186247.03365-.652436-.000364-1.186075-.07565-1.185865-.07526.000219-.13683.62214-.13683 1.382066 0 1.217355-.03798 1.374471-.319272 1.321057-.251284-.04772-.341702-.312796-.424612-1.244852l-.105341-1.184227-.03149 1.049034c-.04038 1.345195-.343285 1.364793-.425097.0275-.06856-1.120788.04108-1.454505.429001-1.305647.17931.06881.252233-.04479.246463-.383907l-.0082-.481629h-4.834669-4.834677l.01448.410492c.01224.346817-.08681.415021-.638541.439689l-.653029.0292.592933.07358.592932.07358v1.083085 1.219915c0 .07526-.431016.136831-.957814.136831h-.957813l-.02394-1.094644c-.02116-.967053.03028-1.13909.441204-1.475963.70294-.576258.443152-1.023929-.552423-.951947l-.777042.05619.06366 1.778797c.05845 1.633308.03607 1.778322-.27366 1.772995-.734783-.01264-.99857-.441649-.939906-1.528605.0304-.563177.137364-1.028847.237705-1.03482.331782-.01975.494625-.539681.258238-.82451-.150276-.181072-.477988-.254722-.972224-.218499-.605698.04439-.745539.123084-.745539.419524 0 .26243.140871.38109.501712.42261.497149.0572.501712.07006.501712 1.413915v1.356186h-1.114587-1.114584l.06937-1.373633c.05628-1.114582.02049-1.364026-.189802-1.322694-.203917.04007-.250943.391267-.220586 1.647294l.03859 1.596355h-1.014705c-1.005821 0-1.014704-.0048-1.014704-.547322zm3.881745-1.855002c-.330634-.330632-.441978-.356882-.679085-.160101-.377815.313558-.359875.858913.03566 1.084079.240534.136928.408007.09417.679085-.173375.358052-.353388.357877-.357062-.03566-.750603zm-.698857.562021c-.188009-.304205.234839-.653048.486517-.40137.210522.210523.07876.599707-.203032.599707-.0885 0-.216066-.08925-.283485-.198337zm1.871764-.577036c-.04348-.22577-.07906-.04105-.07906.410492 0 .451541.03558.636262.07906.410491.04349-.22577.04349-.595212 0-.820983zm3.337618.426412c0-.184868-.127624-.442042-.283609-.571498-.236973-.19667-.34758-.171402-.672645.153662-.376715.376715-.378562.400613-.05831.754487.255512.282341.408484.323835.672645.182462.188054-.100645.341917-.334245.341917-.519113zm-.830808.150624c-.188008-.304205.234841-.653048.486519-.40137.210522.210523.07876.599707-.203033.599707-.0885 0-.216065-.08925-.283486-.198337zm13.747606.34429c.303003-.303004.273736-.785551-.06468-1.066412-.23618-.196012-.34296-.176022-.63852.119538-.326563.326564-.332228.387297-.07093.760357.323582.461979.464672.495973.774127.186517zm-.611878-.34429c-.188009-.304205.234839-.653048.486518-.40137.210522.210523.07876.599707-.203033.599707-.0885 0-.216066-.08925-.283485-.198337zm-7.92634-2.903154c0-.100343-.0821-.182441-.182441-.182441-.100343 0-.182441.0821-.182441.182441 0 .100343.0821.182441.182441.182441.100342 0 .182441-.0821.182441-.182441zm6.613472-.135734c-.827824-.03381-2.182446-.03381-3.010269 0-.827825.03381-.150514.06147 1.505134.06147 1.655649 0 2.33296-.02766 1.505135-.06147zm-27.665848 4.408168c-.06091-.15872-.110739-.774457-.110739-1.368304v-1.079724h3.01027c2.999665 0 3.010276.0015 3.011856.410492.000884.22577.05336.841507.116632 1.368305l.115047.957813h-3.016163c-2.582048 0-3.032103-.04154-3.126903-.288582zm18.026522-.324779c-.05244-.136663-.07039-.724377-.03988-1.30603.04418-.842561.120371-1.066929.374737-1.103683.279499-.04038.319271.122311.319271 1.306031 0 1.092611-.05363 1.352162-.279387 1.352162-.153663 0-.322295-.111816-.374739-.24848zm1.474378.02044c-.04427-.125436-.108609-.6796-.142966-1.231482l-.06247-1.003424-.03375 1.049034c-.01892.588106-.117734 1.049034-.224894 1.049034-.118639 0-.170542-.43253-.136831-1.140255l.05432-1.140254h1.243378 1.243379l.0337 1.322836.0337 1.322835-.963538-.000141c-.606162-.000088-.993396-.08472-1.044038-.228191zm1.551476-1.231474c0-.521862-.630065-.8034-.990754-.442709-.157482.157482-.286331.356701-.286331.442709 0 .08601.128849.285226.286331.442708.360689.360691.990754.07915.990754-.442708zm-.912204 0c0-.274783.09526-.373291.319271-.330151.1756.03382.319272.182385.319272.330151 0 .147765-.143672.296332-.319272.330149-.224009.04314-.319271-.05536-.319271-.330149zm2.226906.138764c.04413-1.087393.110015-1.331523.372873-1.381682.281325-.05368.319271.103292.319271 1.320761 0 1.269927-.03016 1.381682-.372874 1.381682-.346137 0-.369029-.09471-.31927-1.320761zm1.516083 1.102315c-.0463-.130711-.112294-.689197-.146651-1.241079l-.06247-1.003424-.03375 1.049034c-.01857.576968-.115847 1.049034-.216189 1.049034-.208867 0-.245545-1.812826-.04281-2.116225.07372-.110329.667676-.216665 1.319902-.236302l1.185864-.03571-.0271 1.330946-.0271 1.330945-.932753.05522c-.642461.03803-.958952-.01875-1.016937-.182441zm1.54779-1.241079c0-.458908-.546384-.755672-.962524-.522788-.709034.396796-.07845 1.431945.638542 1.048221.17819-.09536.323982-.331809.323982-.525433zm-1.003424.18244c-.15271-.24709.05335-.547322.375649-.547322.144592 0 .262894.164196.262894.364882 0 .377707-.44014.503462-.638543.18244zm-9.943015-.15204c0-1.016393.101567-1.378537.344717-1.229131.1764.108392.0063 2.293369-.178481 2.293369-.09143 0-.166236-.478907-.166236-1.064238zm2.919051-.01964c0-.596133.0821-1.134616.18244-1.196632.114544-.07079.18244.332581.18244 1.083877 0 .676128-.07936 1.196632-.18244 1.196632-.101154 0-.18244-.48292-.18244-1.083877zm4.378575 0c0-.596133.0821-1.134616.182441-1.196632.114543-.07079.182441.332581.182441 1.083877 0 .676128-.07936 1.196632-.182441 1.196632-.101155 0-.182441-.48292-.182441-1.083877zm-38.3581461-1.0438c.125428-.05061.3306735-.05061.4561015 0 .1254278.05061.022803.09202-.2280507.09202-.2508559 0-.3534787-.04141-.2280508-.09202zm55.9882721-1.899262c-.544066-.427963-.613972-.9923873-.196697-1.5881299.577365-.8243107 2.087718-.2693221 2.087718.7671469 0 .44448-.746288 1.199106-1.185863 1.199106-.123448 0-.440767-.170155-.705158-.378123zm1.227532-.8085086c.05199-.1354188-.02792-.3477889-.177494-.4719337-.39965-.3316834-.966824.235486-.635141.6351413.249999.301229.666515.217578.812635-.1632076zm-28.926102.3322409c.131699-.052703.289054-.046223.349679.014404.06063.060626-.04713.1037427-.239453.095821-.212534-.0087-.255764-.05198-.110226-.1102234zm35.108424-.010987c.777649-.034205 2.050173-.034205 2.827829 0 .777656.034198.14139.062181-1.413915.062181-1.555304 0-2.19157-.02798-1.413914-.062181zm-55.507568-.581855c0-.3210942.651755-.3500709 6.841524-.304167 3.51625.026083 6.297932-.025781 6.422196-.1197279.135114-.1021489.46753-.075937.866474.068322.50362.1821114.695871.1854413.866309.015007.278256-.2782566 1.086653-.2814201 1.68979-.00663.364429.1660443.565165.1594941.919229-.029993.354065-.1894899.5548-.1960393.91923-.029993.571961.2606033 1.178837.2760445 1.178837.029993 0-.2375426.856614-.2375426 1.003425 0 .06202.1003426.313155.1824406.558089.1824406s.445334-.082098.445334-.1824406c0-.2375426.856614-.2375426 1.003424 0 .13091.2118179 1.003423.2498249 1.003423.043712 0-.1863132 7.326903-.1734714 7.616897.013351.125428.080803.228051.2241692.228051.3185891 0 .1059487-6.041843.1716746-15.781116.1716746-9.638921 0-15.781116-.066223-15.781116-.1701466zm45.427721-.2859555c0-.202711.212847-.2736608.820979-.2736608.60814 0 .820987.070951.820987.2736608 0 .2027125-.212847.2736616-.820987.2736616-.608132 0-.820979-.070951-.820979-.2736616zm5.06273-.2231964c.326111-.040472.859753-.040472 1.185863 0 .326111.040472.0593.073579-.592935.073579-.652221 0-.919046-.033108-.592928-.073579zm-3.473617-4.2009887c.05675-.5769687.112416-1.0588768.123648-1.0709072.01124-.012033 1.64187-.076403 3.623626-.1430512 2.942631-.098963 3.603203-.076557 3.603203.1222154 0 .5665994-.44125.6812513-2.621898.6812513-1.821473 0-2.24372-.053005-2.543525-.3192713-.349852-.310721-.352727-.308278-.107313.091221.240732.3918667.36027.4104912 2.634744.4104912 2.459236 0 2.820438-.09813 2.820438-.7662508 0-.1806159.0821-.3283932.182438-.3283932.100342 0 .182438.2052463.182438.4561021s-.07441.4561015-.165358.4561015c-.09095 0-.127675.1436717-.08162.3192712.07772.2963082-.138129.3154084-3.001062.2655637l-3.084808-.0537086-.304148.4641986c-.210304.3209565-.467688.4641987-.834096.4641987h-.529931zm2.01029-.3382756c-.06061-.060624-.217984-.067106-.349679-.014404-.145541.058238-.102307.1014706.110223.1102243.192326.00792.300081-.035201.239456-.09582zm5.95496.7943771c.060472-.2257704.111133-.7594092.112498-1.1858645.002069-.5664857.076215-.7753727.276154-.7753727.215185 0 .273665.2533899.273665 1.1858645 0 1.0860184-.03255 1.1858638-.386164 1.1858638-.31143 0-.364869-.079438-.276153-.4104911zm-9.736801-.5562978c0-.1634601.198187-.2138895.638541-.162481.351196.041.638541.1476629.638541.2370272 0 .089364-.287345.1624803-.638541.1624803-.402105 0-.638541-.087766-.638541-.2370265zm-.547322-.7709127c0-.3380177.809381-.6716287 1.448805-.5971674.324166.037752.484636.1797995.525119.4648524.05448.3835384-.0084.4104918-.957812.4104918-.788916 0-1.016112-.062197-1.016112-.2781768z" fill="#273839" stroke-width=".182441"/></svg>