<svg height="128" viewBox="0 0 135.46666 33.866667" width="512" xmlns="http://www.w3.org/2000/svg"><path d="m103.19934 28.738476c-.23569-.04499-.26906-.113707-.23781-.489151.0316-.380181.0903-.455144.45253-.578678.22889-.07806.90321-.144941 1.49847-.148629 1.14765-.0067 1.02314.0386 2.17159-.798315.25008-.182256.31488-.185983.58499-.03364.16707.09417.32391.232237.34854.306752.0247.07453-.2835.515943-.68475.980971l-.72951.845504-1.56493-.0162c-.86072-.0086-1.68832-.03984-1.83912-.06863zm-1.43774-.47393-.40397-.318275.46063-.386719c.57203-.480259.45114-.655452-.19981-.289578l-.48501.272574.32378-.489247c.17807-.269085.36295-.489246.41083-.489246.14548 0 .70771.480116.83016.708922.0898.167825.0723.211345-.0797.198859-.21371-.01754-.71065.717414-.57586.85168.0461.04594.18632-.0427.31149-.197134.23851-.2942.27165-.252615.15263.19153-.093.347174-.25118.335851-.74518-.05337zm-1.08237-1.013272c0-.09074.19652-.349347.43669-.574722l.43672-.409766-.30424.530555c-.31122.542774-.56917.748486-.56917.453933zm-.35671-.606223c0-.233962.62416-.883886.68205-.710218.0671.201309-.17212.602497-.44696.749582-.18175.09727-.23509.08835-.23509-.03936zm7.62975-.300547c-.27248-.251538-.49541-.536655-.49541-.633587 0-.493583 2.34404-3.070755 2.79298-3.070755.30241 0 .20106.415246-.23535.964243-.3038.382164-.41533.639697-.41617.960956-.0006.241387.0523.471947.11774.512369.24582.151918.10178.52841-.42718 1.116743-.30035.334069-.6125.607386-.69365.607386-.0811 0-.37048-.205808-.64296-.457355zm-8.301597.156426c-.05738-.149602.03469-.30253.324824-.539314.557573-.455077.358523-.566735-.310927-.174412-.302378.177205-.575638.296345-.607224.264749-.109857-.109847.696674-.914767.916588-.914767.355046 0 .500776.403618.310276.859352-.0895.214033-.25058.462064-.358037.551181-.167683.13906-.206732.132426-.2755-.0468zm5.992877-1.083336c-.24525-.303055-.4459-.642747-.4459-.754843 0-.112106.36342-.62642.8076-1.142935 1.29364-1.504291 1.59509-2.021112 1.255-2.151613-.13829-.05309-.55836.308668-1.48961 1.282729-1.49973 1.568684-1.52266 1.415327-.046-.307791.56033-.653851 1.01878-1.255813 1.01878-1.337686 0-.08187-.11055-.148887-.24566-.148887-.15617 0-.69715.465637-1.48511 1.278249-.6817.703022-1.23955 1.224732-1.23967 1.159329-.00012-.06538.53993-.758361 1.20012-1.53991.99589-1.178963 1.16421-1.433684.98816-1.495437-.32016-.112306-.74794.0048-.81926.22446-.0931.286823-1.92562 2.229464-2.0188 2.140175-.0438-.04184.15345-.362948.43819-.713429.28471-.350492.76935-.947002 1.07696-1.325591s.55929-.763355.55929-.855054c0-.476275-.35493-.251443-1.50286.952043-.67582.708503-1.25566 1.261284-1.28854 1.228401-.0329-.03288.39065-.603735.94118-1.268565 1.20235-1.451937 1.42815-1.952306.78956-1.749615-.21542.06834-.86814.74412-2.12757 2.20269-.61414.711238-.54201.307744.0878-.491143 1.82828-2.319076 1.85471-2.362529 1.43709-2.362529-.14325 0-.73322.503963-1.49636 1.278249-1.36071 1.380548-1.48038 1.340593-.26713-.08921 1.38833-1.636146 1.47504-1.783584 1.04881-1.783584-.14555 0-.72177.495661-1.48601 1.27824-.68653.703031-1.24841 1.221233-1.24859 1.151579-.00011-.06967.42551-.63149.94597-1.248512 1.09747-1.301086 1.28972-1.608791 1.11457-1.783937-.18824-.188241-.64384.07472-1.03315.596273-.38291.513017-1.741142 1.886006-1.741142 1.760061 0-.04499.345211-.506002.767132-1.024367 1.14317-1.404471 1.48194-2.030109 1.10563-2.042004-.0818-.0029-.69315.572111-1.358668 1.277077-1.31279 1.390623-1.727131 1.613691-.713058.383898 1.314986-1.594714 1.669916-2.250804 1.217636-2.250804-.14713 0-1.319839 1.210216-2.237132 2.308678l-.289548.346736-1.059299-.605175c-1.155659-.660217-1.951216-1.003293-3.140165-1.354203-.953871-.281514-2.811095-.574065-3.686077-.580641-.359691-.0029-.787755-.0814-.951248-.17485-.173375-.09911-.628539-.171686-1.092139-.174145-1.367974-.0076-1.636494-.253073-1.2246-1.12107.378185-.796971 1.463769-1.037062 2.209977-.488761.662955.487131 1.303837.741176 2.247064.890711 2.009648.318609 4.194548.973412 5.615657 1.682973.505383.252348 1.008936.458813 1.119021.458813.110076 0 .602735-.303035 1.094802-.673389.492068-.370364 1.108437-.794798 1.369707-.943209.56881-.323079.58475-.317055 2.21484.836697.59669.422338 1.47136.951329 1.9437 1.175532.84331.400282 1.64466.988548 3.8119 2.798267.59828.499588 1.27154 1.047194 1.49614 1.216897l.40835.308544-.40398.523797c-.42854.555603-3.57242 3.794021-3.68253 3.79324-.0357-.000238-.26559-.248412-.51083-.551476zm2.74462-2.583348c.0233-.120637-.0199-.280551-.0958-.355343-.17397-.17138-.49609.215577-.39619.475912.0905.235631.4399.149984.49201-.120569zm-12.707302-6.312529c.178262-.214785.06376-.421374-.233483-.421374-.123077 0-.258296.05585-.300481.124115-.07882.127575.140147.470422.300481.470422.04937 0 .15445-.07787.233483-.173163zm-3.458433-.885525c.21255-.134619.06643-.368181-.230339-.368181-.223432 0-.31316.234706-.151523.396346.103664.103661.182974.09781.381862-.02821zm6.081107 9.743353c-.0989-.1848-.08349-.308525.0672-.538418.223802-.34156.07091-.396041-.345535-.123153-.250861.164376-.313853.141024-1.00824-.373699l-.740651-.549026.239529-.405982c.408498-.692356.296421-.85291-.233905-.33506-.555927.54285-.731073.487302-.373633-.118502.327807-.555602.318456-.602458-.06071-.304179-.298984.235183-.637949.327836-.637949.174374 0-.163651.745556-.99808.891784-.99808.08711 0 .328407.214681.536226.477066.341779.431535.365426.512655.247792.850088-.181045.519356-.168683.532871.161554.176537.535149-.577448.764165-.250451.281666.40216-.275852.373109-.224698.606843.07787.355752.153472-.127375.181227-.10835.181227.124202v.274613l.333506-.319505c.578135-.553887.736648-.445051.736648.505811 0 .859629-.134704 1.135291-.354284.725001zm.483871-.03422c.17342-.336328.593737-.802623.723485-.802623.21734 0 .07615.331372-.293923.690117-.459395.44526-.623265.488188-.429562.112506zm5.458987-.812955-.41616-.360651.44442.27467c.24443.15107.44508.314807.44589.363854.003.12951-.017.118311-.47415-.277873zm-45.349821-1.723525c-.0397-.103442-.07217-.344953-.07217-.536683 0-.191739-.06559-.453638-.145763-.582014-.127573-.204273-.08746-.293113.321396-.711809.480839-.49244.375942-.655757-.178902-.27856l-.293995.19987.222178-.254531c.145232-.166377.197118-.348852.149822-.526857-.09865-.371278-2.43993-3.304422-2.637641-3.304422-.08709 0-.352011.11427-.588728.25394l-.430394.25394-.384677-.372851c-.309051-.299547-.488763-.374643-.914095-.381992-.816158-.01411-1.449678-.249174-1.654403-.613914-.354323-.631262-.411548-.625448 6.154746-.625448 5.708032 0 6.050604.01201 6.444649.226986.228897.12484.711958.37369 1.073473.55301.755087.37452 1.080357.819656.824355 1.128114-.08768.105644-.991993.783856-2.009592 1.507132-1.017601.723285-2.171224 1.644228-2.563613 2.04655-.840685.861983-1.575901 1.459666-2.32911 1.893451-.625547.36027-.884962.393391-.987532.126088zm2.189439-2.194522c.202557-.378475.03486-.7297-.327608-.686123-.451664.05433-.610803.378979-.335077.683654.280664.310136.497596.310946.662685.0029zm1.313949-2.553039c1.610411-1.064827 1.897572-1.354575 1.592976-1.607381-.413008-.342761-5.525256-.422423-5.525256-.08607 0 .269933 2.054215 2.705233 2.281906 2.705233.06613 0 .808793-.455296 1.650374-1.011757zm3.686691-.960288.288262-.307363-.28071-.227719c-.356472-.289168-.57019-.288481-.72582.0029-.149301.278978.03067.840128.269428.840128.08832 0 .290288-.138307.44884-.307362zm-9.113787-.711829c.207696-.207695.224004-.288643.09585-.475798-.237755-.347222-.979152-.226509-.979152.159419 0 .471461.536171.663515.8833.316379zm71.671349 6.253397c-.94816-.686829-.92824-.561246-.63794-4.024581.4168-4.972107.43207-5.371007.22464-5.866087-.17874-.426607-.19865-.436939-.99548-.516343-.44721-.04451-1.34818-.189367-2.00217-.321793-1.36688-.276796-2.0166-.241969-7.29514.390951-3.36668.403694-3.87073.518555-5.37807 1.225532-1.38172.648065-1.72655.720397-4.88769 1.025282-2.80703.270724-4.03273.441199-4.17302.580403-.16988.168559.0467.47005.69967.973774l.64568.49813 2.64871-.152032c1.4568-.08359 2.89826-.114613 3.20326-.06891.42531.06376.84113.287585 1.7845.960431.67648.482499 1.45473.947421 1.72946 1.033164l.49948.155892v1.292709 1.292717l-.68371-.07968c-.82533-.09622-1.66821-.353703-2.4654-.753127-.54349-.272297-.68158-.291083-1.66526-.226462l-1.07264.07044-.95065-.840519c-1.48697-1.314687-2.2626-1.876676-3.5214-2.551428-1.19949-.642994-2.71559-1.701006-3.13675-2.188994l-.23781-.275567.23781.109342c.37424.172067 2.9227.09893 6.47463-.185791l3.26418-.261651 1.07589-.540553c1.49414-.750687 2.37401-1.061329 3.27564-1.15646.42508-.04489 2.36488-.265081 4.31064-.489379 3.91762-.451618 4.86508-.489371 5.72607-.228177.79922.242445 1.32561.224917 3.83552-.1277 2.54795-.357954 3.05459-.351806 3.10991.03774.0231.162164-.0368.296792-.15144.340779-.12913.04956-.18103.198154-.16295.466619.0158.235345-.1014.648599-.29128 1.026635-.17481.348004-.39773.953769-.4954 1.346169-.27218 1.09341-.65105 3.896548-.77174 5.709736-.10091 1.516082-.12988 1.652197-.41509 1.949904-.16867.176032-.30664.410767-.30664.521634 0 .317904-.49862.245209-1.04802-.152786zm-20.73356-4.797486c.027-.227577-.0163-.317818-.15237-.317818-.22517 0-.35618.28037-.25464.544966.10744.279979.36392.136849.40701-.227148zm21.57299-.58535c.0967-.26287-.0414-.445898-.33639-.445898-.30768 0-.37775.218779-.14467.451846.18506.185048.41185.182246.48106-.0057zm.38695-2.052755c0-.169265-.0926-.246839-.32699-.273803-.25944-.02983-.32699.01106-.32699.198173 0 .129691.0669.263404.14863.297145.27822.114822.50535.01525.50535-.221515zm.2138-1.559782c.1144-.114393-.14058-.519441-.32699-.519441-.18676 0-.29446.225156-.21329.445898.0571.155206.41051.20332.54028.07358zm-63.167862 8.200775c-.265191-.370335-.482166-.734875-.482166-.810086 0-.223097.565754-.692585 2.139219-1.775235l1.48524-1.021955h1.937897 1.937897l.493826-.474502c.482142-.463283 1.088945-.694615 1.454276-.55443.09653.03708.253927.255045.349778.484462.118427.283429.277935.443124.497697.498282.405504.101774 3.360569-.03479 4.132264-.190891.650199-.131569 1.029658-.0057 1.029658.342103 0 .189805-.151378.224822-1.267007.293085-.696853.0427-2.187765.07749-3.313132.07749-1.125366 0-2.333932.05461-2.685693.121294-.876601.166243-1.102977.423814-1.17648 1.338543l-.05946.739927-.416167-.01763c-.228895-.0096-.740145-.05633-1.136107-.103594l-.719941-.08607-1.746679.906208c-.960667.498406-1.79754.906199-1.859712.906199-.06218 0-.330023-.302997-.595215-.673333zm6.152776-1.609659c.399753-.399748-.08677-.943904-.55236-.617794-.248529.174078-.338329.519813-.17693.681215.1292.129195.575484.09035.72929-.06338zm2.943375-2.483594c.122535-.198269-.153057-.425616-.317085-.261594-.137209.137211-.05136.390865.132328.390865.05769 0 .140818-.05814.184757-.129271zm46.872191 4.565724c-.16753-.04375-.19473-.139613-.13957-.491562.0376-.240444.1046-.918732.14865-1.507332.0773-1.032849.0902-1.070145.3698-1.070145.39336 0 .52177.527257.45829 1.881632-.057 1.215429-.16168 1.363925-.83717 1.187407zm-28.206892-.150202c-.03851-.06224-.149164-.985288-.245924-2.051125-.224375-2.471604-.266055-2.708017-.492778-2.795017-.249211-.09563-.539848.305465-.938001 1.294509-.421314 1.046565-.893658 1.612356-1.430041 1.712987-.472065.08854-2.784112-.214643-3.691476-.4841-.855927-.254187-1.37165-.641402-1.668226-1.252562-.310335-.639516-1.152296-2.398815-1.208048-2.524264-.02179-.04909.38519-.08921.904425-.08921h.944054l.08142.98099c.0958 1.154048.341366 1.722394.877525 2.030919.41425.238375 2.203807.553029 3.153169.55443.758056.000953 1.004534-.263157 1.440881-1.544932.18923-.55588.395913-1.07758.459284-1.159329.169816-.219075.514634-.183847 1.538498.157132 1.066034.355018.990245.183799 1.101538 2.488522.03793.784771.09797 1.589614.133485 1.788512.05099.28564-.0029.429342-.257483.683711-.332334.332334-.580384.406087-.702307.2088zm-8.217717-5.428575c.304403-.116824.235026-.522368-.08936-.522368-.367555 0-.4529.102937-.308718.372356.133217.248917.136807.25027.398078.150012zm34.515869 5.452651c-.0276-.04909-.009-.410223.0424-.802614.0508-.39238.0978-1.034479.10428-1.426869.014-.844227.11495-1.04543.49728-.991369.28281.03993.28375.04537.26447 1.501746-.0125.941893-.0704 1.523268-.16319 1.634964-.15024.181027-.6587.238433-.74523.08416zm-3.43591-.173868c-.18032-.137879-.18802-.289177-.0774-1.520542.0676-.75207.16393-1.447667.21407-1.545762.0501-.0981.24586-.178367.43492-.178367h.34376l-.0434.891797c-.0964 1.980594-.17602 2.434928-.43309 2.471775-.13128.01878-.32879-.03469-.43892-.118901zm1.79882-.04432c-.12661-.152557-.13061-.419364-.021-1.400411.0745-.666575.17081-1.304117.21403-1.416767.0787-.205092.58296-.286822.69101-.111991.0931.15064-.18745 2.80675-.3136 2.968999-.15739.202415-.38245.186707-.57045-.03984zm5.86449-.01554-.62425-.04623.002-1.212569c.00095-.666909.0412-1.27173.0892-1.344053.048-.07234.28841-.168445.53415-.213633.74672-.137316.85006-.425254.76387-2.128433-.0831-1.643247-.21045-2.202805-.60565-2.662276-.38619-.448977-1.11011-.472566-4.88563-.159171-4.26095.353684-6.00117.568537-6.32535.780949-.24425.160039-.27386.272555-.27325 1.038787.00035.472634.0573 1.063178.12645 1.312324.0692.249146.107.509348.0841.578239-.023.06891-.69951-.365312-1.50342-.964901l-1.46168-1.090189-2.91684.140356c-3.1639.152233-3.47812.119903-4.1389-.425892l-.35671-.294648.35671-.000953c.74393-.0029 5.97409-.482327 6.59927-.604898.35969-.07053 1.225-.391142 1.92291-.712477 1.55793-.717309 2.07811-.829167 6.04378-1.299571 4.21601-.500102 5.65592-.563561 6.65872-.293456.42509.114508 1.13602.214271 1.57987.221715.57665.0097.83916.06443.9197.191892.16076.254378.14016 1.527566-.0635 3.923884-.31797 3.741199-.43781 4.647226-.59716 4.514971-.20874-.173249-.53092-.01068-.53092.267846 0 .191977.0596.227567.30303.181026.23277-.04451.29452-.01325.26638.134771-.0391.205951-.69143.261336-1.96655.166996zm.20809-.641003c0-.160829-.0849-.225089-.29726-.225089-.21368 0-.29727.06405-.29727.227901 0 .125345.0669.251233.14864.279751.24418.08521.44589-.0427.44589-.282563zm-1.39929.131626c0-.228892.0245-.322526.0543-.208085.0299.114441.0299.30172 0 .416171-.0298.114441-.0543.02078-.0543-.208086zm-8.29153-.08607c-.47598-.116987-.53507-.266703-.53507-1.355386v-1.055591h.60233c.66841 0 1.06234-.155873 1.06234-.420354 0-.0958.0848-.174174.18839-.174174.16573 0 .17824.160801.10409 1.337686-.0463.735733-.13302 1.43134-.19256 1.545781-.10754.206665-.66154.261651-1.22952.122038zm.13705-.453457c.0896-.233524-.3139-.698628-.47036-.542173-.16302.163031.008.724962.2204.724962.0989 0 .21139-.08225.24996-.182789zm6.4716.113431c.006-.138517.0339-.166711.0719-.07187.0343.08588.0301.188394-.01.227901-.0395.03946-.0677-.03069-.0624-.156054zm-48.404025-.668549c0-.600924.04881-.815205.221381-.971354.365034-.330342 1.459193-.429629 4.742937-.430353l3.121279-.000601v.602344c0 1.374009-.188865 1.435962-4.607603 1.511554l-3.477994.05947zm46.645075.08397c.00095-.326988.024-.446642.0513-.265902.0273.18075.0266.448281-.002.594528-.0282.146256-.0506-.0019-.0497-.328626zm-62.400088.178357c.11837-.130797.241971-.237804.274671-.237804s-.0374.107007-.155765.237804c-.11837.130797-.24197.237813-.27467.237813s.0374-.107016.155764-.237813zm60.744828-.891892c.00036-.653984.0203-.906342.0443-.560816.0241.345534.0238.880607-.00061 1.189056-.0244.308449-.0441.02573-.0438-.62824zm-20.084651.160744-.470032-.49324.558739.375872c.614334.413264.789679.610608.542564.610608-.08874 0-.372756-.221963-.631271-.49324zm-41.195253.165118c0-.04966.120392-.164251.267539-.254655.266586-.163765.266731-.163441.04102.09036-.242339.27244-.308562.307715-.308562.164347zm66.617214-.563675c.00095-.261594.0256-.354609.0541-.206694.0284.147905.0273.361938-.003.475617-.0297.113688-.0531-.0076-.0518-.268923zm-1.7904-.356706c.003-.1962.0291-.26207.0592-.14638.0301.115699.0282.276224-.004.356724-.0326.08054-.0572-.0142-.0548-.210344zm-65.599702-.05948c.118371-.130787.23556-.237803.260424-.237803.02487 0-.01207.107016-.08206.237803-.07.130807-.187191.237814-.260423.237814-.07324 0-.0363-.107007.08206-.237814zm68.201582-.524092c-.094-.113278-.12754-.645187-.10375-1.645878.0483-2.030528.17154-1.927829-2.19226-1.82677-3.63435.155378-7.73201.596301-7.9468.855112-.17284.208275-.0271 1.118849.25273 1.578987.12187.200432.47781.497758.79095.660732l.56934.296306-.57263.0057c-.77086.0076-.95234-.114184-1.27086-.851776-.31027-.718538-.46583-2.15248-.24809-2.28706.26354-.16287 4.21905-.579765 9.25037-.974967 1.55273-.121952 1.70969.07787 1.95259 2.485463.071.703613.0956 1.412582.0547 1.575489-.0824.328141-.32294.385938-.53631.128834zm-68.558299-.189361c.11837-.130797.234131-.237813.257248-.237813.02312 0-.0248.107016-.106484.237813-.08168.130797-.197445.237813-.257248.237813-.0598 0-.01189-.107016.106484-.237813zm33.947657.208085c.000036-.01639.110749-.320944.246027-.676877.135286-.355934.257939-.837498.272569-1.070145.02106-.335385.08096-.430878.289047-.461006.21496-.03107.262454.01973.262454.281409 0 .26086.04358.308011.237811.257219.136704-.03574.237552-.0038.237198.0753-.0012.268695-.540875 1.024243-.944122 1.32175-.354475.261527-.601185.373318-.600984.272345zm-22.98648-1.540233c-.362981-.471099-.637096-.893541-.609137-.938767.09983-.161545 1.068568.149831 1.373761.441562.487729.466219 1.276239.640516 2.888781.638543 1.576793-.0019 1.979486-.116243 2.091415-.593728.06166-.263032.149057-.304884.778023-.372594.389712-.04194 2.378589-.08206 4.419737-.08921 3.483928-.0121 3.724198.00061 3.923889.210154.116998.122676.333169.260078.480383.305313.147214.04518.321796.183419.387953.307038.179286.334984-.181178.472558-1.238172.472558-.506356 0-1.13783.08225-1.453248.189375-.573118.19458-3.447765.28302-3.720491.114461-.07125-.04404-.129542-.180884-.129542-.304113 0-.391084-.458492-.594251-1.341105-.594251h-.812573l-.236686.535082-.236692.535072h-2.953166-2.953161zm-31.084718-.000363c-.0691-.08464-.164169-.688887-.211255-1.34287-.04708-.653975-.139356-1.255947-.205045-1.337686-.0784-.09758-.461626-.14863-1.115569-.14863-.874563 0-1.028766.03269-1.263446.267532-.259082.259315-.350505.268703-2.972644.305313l-2.70534.03774v-1.124863-1.124854l2.051124-.08483c2.265474-.09379 21.553858-.03765 21.654454.063.0347.03479.100528.558929.146273 1.164914l.08318 1.101798-5.544395-.03527-5.544394-.03527-.187308-.267551c-.163108-.232971-.292048-.267531-.998042-.267531-.445905 0-.976303.03307-1.178664.07358l-.36793.07358-.03338 1.383007-.03338 1.383016-.724301.03498c-.485341.02335-.765748-.01582-.84994-.118902zm-6.162989-3.860996c.09693-.252577-.209407-.569909-.458051-.474502-.237976.09131-.238213.249632-.00073.487121.239627.239624.363287.236221.458777-.01258zm8.030171.02631c.19202-.231361.05676-.421375-.29996-.421375-.452571 0-.379018.52719.08163.58515.04104.0048.139284-.06853.218321-.163775zm1.133926-.193465c0-.207427-.0657-.287356-.236182-.287356-.279017 0-.397045.399806-.161959.548616.245985.155721.398141.05585.398141-.26126zm8.245377.07663c.06604-.340683-.186418-.507193-.417956-.275652-.16467.164671-.171363.227939-.04075.385309.189413.228225.403116.177137.458714-.109657zm1.203311-.0019c.161305-.19436.07161-.421375-.166494-.421375-.213803 0-.461914.317609-.367478.470404.109352.176946.365989.153376.533972-.04909zm47.626085 2.84375c-1.373063-.66707-2.669886-1.074691-4.161699-1.308101-1.879753-.294133-2.155279-.382382-3.000744-.961213-.724252-.495842-.847067-.540619-1.350096-.492287-.96071.09226-1.618359.78542-1.8252 1.923646l-.08454.465228-9.235908-.07768c-5.079752-.0427-9.392952-.121218-9.584883-.174449-.418699-.116119-.483092-.254703-.260074-.559692.121679-.166405.286856-.22039.608208-.198754.242638.0163.517846-.03393.611573-.111715.103153-.08559.851272-.172792 1.895382-.220896 2.098061-.09665 2.191629-.152223 2.318407-1.377078.04473-.432021.136953-.841139.204974-.909153.347379-.347384 5.569616-.436816 6.187438-.105959.386512.20698.614191.826594.614191 1.671479v.717251h1.540176c.940861 0 1.661501-.05528 1.85196-.142062.682831-.311118.807303-1.159529.41201-2.80839-.130338-.543679-.236978-1.065379-.236978-1.159338 0-.2238113.67719-.2274141 1.141068-.0057.189887.09064.876229.199355 1.525193.241664 1.161449.07568 1.187721.08407 1.677099.535187.555311.511864.462035.474292 2.255913.908668 2.899053.702011 6.832482 2.294209 9.009134 3.646792.489913.304436.466647.438159-.147391.847-.436691.290769-.783408.230065-1.965211-.344086zm-17.824957-2.373346c.361699-.452437.361693-.85554-.000024-1.307968-.280705-.351091-.305535-.357372-1.574914-.398576-.709341-.02297-1.945175-.0038-2.746307.04165l-1.456594.08359v.805816c0 .853882.08271 1.00803.594527 1.108013.163499.03193 1.332464.05042 2.597699.04117l2.300436-.01697zm-5.457591-.231818c-.237136-.237127-.240702-.273775-.07339-.753709.115878-.33241.188682-.374634.77153-.447452.353963-.04423 1.379921-.05871 2.279891-.03222 1.841864.05433 2.326477.197163 2.385489.703346.0666.571358-.154839.62601-2.758203.680776-2.142554.04508-2.425864.02869-2.605314-.150764zm-7.54377 2.07115c-.548933-.220638-.362278-.596186 2.199552-4.42553l1.968817-2.9429224h.802465.802471l.08475.7431673c.16863 1.4786051.09643 1.4565881 4.775283 1.4565881 3.581628 0 3.718448-.0086 4.042799-.250004.292577-.2178738.344567-.3514918.404645-1.0399882.03791-.4344991.109726-.8303302.159581-.879616.144116-.1424439 6.142338-.069769 6.880019.083398.62899.1305871.708288.1174722 1.827983-.3022631.643761-.2413112 1.321175-.4821362 1.50536-.5351583.577279-.1661671.304774.1133737-.574419.5892383-1.143552.6189566-1.114566.7712081.239533 1.2582433 1.318437.4742157 3.519621 1.455148 4.29629 1.9146.867452.513151.369125.508452-.873745-.0086-3.194968-1.3282087-6.01776-2.2428996-6.715087-2.1759428-.313805.030119-.435465.1221043-.600474.4539618-.182401.3668372-.274021.42452-.772886.4866349-.664897.082731-1.717284-.037744-2.252165-.2579621-.274082-.11284-.503289-.1243251-.832339-.041747-.437989.1099425-.453143.1307872-.427334.5877702.01473.260583.139096.933906.276408 1.496266.137307.56236.232281 1.203238.211054 1.424162-.05568.579498-.384874.700515-1.911364.702612l-1.278241.0019v-.481527c0-.53816-.215696-1.020439-.761524-1.702674l-.368077-.460061-2.944891.05194c-2.733161.04813-2.968241.06929-3.269643.294342-.39654.296059-.62837 1.001463-.544405 1.656467.06255.487941.0625.488027-.394233.563485-.251237.04146-.831353.07749-1.28914.07997-1.27782.0067-2.973809.197477-3.240505.364035-.300288.187526-.623933.725353-.623933 1.036824 0 .348756-.320675.451922-.802609.2582zm5.002072-5.036128c.03475-.09055-.01783-.280427-.116894-.4218511-.14259-.2035675-.215021-.2281485-.347752-.1179963-.205259.1703512-.214241.3725744-.02495.5618644.190526.19052.411863.180569.489602-.02202zm26.537685 3.923779c-2.956635-1.525222-3.860494-1.866553-8.43064-3.183652-1.019165-.293723-1.497996-.721789-1.497996-1.3391728 0-.4034369.02057-.425311.399577-.425311.219762 0 .647826.034026.951241.075582.531985.072914.551672.089879.551672.4756168 0 .347412.03907.400006.297269.400006.184964 0 .297264-.06739.297264-.178348 0-.2440658.346474-.2243934 1.217755.0691.895082.301539 1.398171.643242 1.398171.94968 0 .25738.343912.313862.564994.09274.103305-.1033.357494-.05643 1.035105.190653.600866.219141 1.117811.324957 1.561733.319648.830826-.0099 1.54092.255846 2.983201 1.116533 1.233129.735876 1.940554 1.301058 1.940554 1.550375 0 .244895-.710732 1.00335-.933839.996554-.107664-.0029-1.158899-.502818-2.336061-1.11009zm-63.228151.915187c-.604723-.158028.209443-.51256 1.177075-.51256.543835 0 .636239.0325.636239.223945 0 .131721-.110173.253464-.267538.295639-.299937.08035-1.227447.07615-1.545776-.0067zm4.749443.0048c-.120672-.03479-.198325-.148687-.177129-.259925.05478-.287423 1.608877-.359403 1.716289-.07949.03988.103929.03908.222383-.0018.263243-.0977.09769-1.262198.155387-1.537388.07615zm13.71068-.488198c0-.174573.29894-.266769.871792-.268875.659122-.0029.743076-.07739.832062-.743387.102431-.766557.284858-1.096098 1.549475-2.799001l1.086732-1.4633642 1.37273.036504c1.142894.030405 1.429219.076345 1.710134.2743082.732606.516363.807456.531289 2.743518.547368 1.046374.0086 2.614222.04956 3.484115.09093l1.58162.07511-1.380346 2.031968-1.380347 2.031958-5.49258.08054c-3.02092.04432-5.827005.11387-6.235743.154577-.479304.04775-.743162.03041-.743162-.0487zm-.111399-.966499c-.139513-.260669-.171664-3.128876-.051068-4.5555457l.07534-.8913204 4.888972-.078346c2.688934-.043081 5.040514-.1119631 5.225733-.1530426.185213-.04108.367419-.1612394.404901-.2670358.159179-.4493393.30436-.5202515.509163-.248736.353855.469107 1.608976.5536488 2.364738.1592856.370359-.1932643 2.101067-.2210287 2.215704-.035551.04309.069768-.02063.2018138-.141615.2934754-.202016.1530521-.185414.1669772.203178.1704561.554605.00477.879163.2414255.776278.5655819-.04302.1355242-.243302.474311-.445087.75287l-.366868.5064494-3.698802-.0808247-3.698807-.0808246-.440748-.3054371c-.577736-.4003679-1.116688-.5154477-2.430206-.5188884l-1.082053-.00286-.890657 1.1593279c-1.264092 1.645411-1.764575 2.434966-1.99721 3.150731-.202657.623542-.20384.62459-.748727.660465-.44484.02926-.569122-.0076-.67216-.200269zm.666467-.539867c-.0916-.238738-.422089-.243703-.51265-.0076-.03796.09892-.00073.262137.08269.362682.133609.160991.172622.161906.326826.0076.09631-.09631.142715-.259526.103126-.362682zm-.0807-.958963c.175103-.210983.07762-.536588-.160647-.536588-.204029 0-.332349.288719-.237812.535072.08668.22588.211866.226357.398459.000953zm-17.097396-.203511c-.07848-.07844-.142686-.399519-.142686-.71343v-.570747l-1.872766-.0086c-1.766915-.0086-3.039592-.107808-3.180759-.248984-.03461-.0346-.09735-.6646302-.139429-1.4000486-.0619-1.0819255-.04456-1.3573488.09093-1.4431106.09209-.058331 1.257125-.1068162 2.588971-.107817l2.421536-.00191.313297.3661032c.172313.2013468.672141.7638501 1.110728 1.2499893.859313.9524627 1.043859 1.3758007 1.044944 2.3969837l.000669.624247h-1.046371c-.655303 0-1.099697-.05328-1.189058-.142683zm13.786342-.341322c-.214061-.08578-.264354-.175422-.213033-.379895.07768-.309487-.01533-.489132-.309369-.597625-.114446-.04222-.208085-.179749-.208085-.305599 0-.32328.251205-.394402 1.634955-.4629121l1.218784-.060333v.9668361.966826l-.921521-.0076c-.506835-.0038-1.047615-.05804-1.201731-.119769zm-33.067681-2.6372657c.0085-2.3861664.17508-2.8240015 1.074528-2.8240015.734152 0 .953315.2819332 1.067664 1.3734661.05446.5198511.101903 1.3866287.105429 1.9261617l.0064.9809704h-1.129608-1.129605l.0051-1.4565967zm-13.2066626.9137759c-.1830587-.4814785-.1441931-1.6711733.0613085-1.8766757.0974993-.0974947.513109-.2132417.923577-.2571901.9446465-.1011642 10.9749271.0057188 11.4139851.1211035l.326991.086258v1.1157512 1.1157329l-4.131976-.01849-4.1319756-.01849 3.1611266-.09698c1.738619-.053281 3.290339-.1455429 3.448266-.2048842.53123-.1996216-1.321279-.2755186-5.7375826-.2350586-4.1820382.0383155-4.2461766.0426045-4.6027836.3063898-.4638871.343181-.5886484.336786-.7309363-.0374572zm10.6450116-1.7062196c.488943-.0723418.552294-.1073499.356716-.1973341-.31552-.1451793-9.6782167-.1432159-9.9880854.0019063-.1998081.0936917-.1523038.1240486.2972645.1898997.7419939.1086749 8.6048199.1131831 9.3341049.0057188zm5.244575 1.8231484c-.0397-.1034517-.07217-.5866934-.07217-1.0738906 0-.7024977.03939-.9009183.190358-.958849.289329-.1110195.400346.1791867.40235 1.0517592.002.8851156-.06972 1.1690504-.295444 1.1690504-.0841 0-.185394-.08464-.225089-.18807zm.996668.03946c-.00073-.08178-.03447-.3492806-.07501-.5945281l-.0737-.4458889h5.0096 5.0096v.5945281.5945189h-4.93459c-3.867702 0-4.934872-.03212-4.935899-.14863zm17.194148-.9941343c-.58256-.6152775-1.01957-1.1583657-.971133-1.2068415.04844-.048514 2.95416-.1028703 6.457164-.1209033l6.369098-.032787-.07445.7972379c-.09811 1.0506631-.324028 1.2682606-.598305.5762663-.02593-.065384-.143559-.026973-.261523.085495-.201228.1918251-.202103.2179597-.01426.4255303.302379.334126.244794.4611866-.245761.5422686-.245242.04051-2.505938.06891-5.023767.0631l-4.577874-.01067zm34.78356.5061739c-.0734-.08845-.167839-.4897421-.20986-.8917875l-.0764-.7309959h4.176374 4.176374l.06954.2770817c.03822.152385.05264.5133032.03202.8020416-.03402.4754548-.07119.5320987-.394264.6006472-.196197.041651-1.995528.081968-3.998512.089784-2.928476.011342-3.667936-.017442-3.775245-.1467329zm-22.673063-.3494713c-.03562-.092834-.04863-.5109204-.02891-.9291116l.03585-.7603712h.416169.416171v.891797.8917874l-.387262.037267c-.25205.024305-.409872-.021636-.452018-.1314258zm1.501305-.069196c-.13878-.2593061-.169201-.9556275-.05478-1.2538209.07479-.1949036.479992-.2496795.718127-.097075.09235.059189.111525.317475.05946.800793-.06617.6140957-.112998.7185768-.336358.7503729-.163806.0233506-.306306-.0505162-.386444-.2002705zm-29.585857-.6899837c-1.021194-.035266-1.33769-.084256-1.33769-.2068558 0-.088354.120393-.1928735.267537-.2323137.349126-.093596 9.103885-.093596 9.45301 0 .320365.085876.344665.225089.05945.3406645-.237231.096122-6.424035.1683115-8.44231.098505zm30.889805-.8562837c-.301618-.2072561.388506-.3720507 1.519761-.3629007 1.055047.00858 1.606027.1182823 1.359331.270753-.230811.142644-2.691016.2213909-2.879092.092167zm3.464801-.1182251c-.217291-.1377545.522379-.2504134 1.644119-.2504134 1.066331 0 1.803014.1075597 1.714756.2503657-.08214.1329032-3.149243.1329604-3.358875.0000477zm4.090634-.00061c-.0818-.1323503.507466-.2522815 1.239563-.2522815.310642 0 .731147.033264.934456.073962.704222.1408427.235183.2827814-.934456.2827814-.646262 0-1.204066-.046989-1.239563-.1044239zm18.807111-.00762c-2.390065-.080729-2.853938-.1343423-2.678492-.3097928.03603-.036028 1.048199-.1923588 2.249303-.3474506 2.427415-.3134338 2.64927-.3736138 3.075624-.8342666.163493-.1766514.45579-.4036181.649542-.5043725.356764-.1855249 2.178721-.5052588 2.887904-.5068029.507506-.0009531.862067.3577539.862067.8725154 0 .2534824.09085.4799153.250464.6242655.137758.1245824.352876.4271696.478041.6724076l.227576.4458985h-.415534c-.34144 0-.448428-.063573-.599999-.356715-.212446-.4108382-.411486-.4597809-.499595-.1228527-.033655.1286331-.149021.2594013-.256404.2906065-.410324.1192259-3.750799.1602768-6.230497.0765356zm3.835496-.8982972c0-.099086-.105698-.1783575-.237814-.1783575-.13212 0-.237811.0793-.237811.1783575 0 .099086.105691.1783575.237811.1783575.132116 0 .237814-.0793.237814-.1783575zm2.662025-.5648148c.191712-.3044268-.05093-.6242465-.473604-.6242465-.418431 0-.523245.3260531-.214491.6672322.244329.269981.501111.25394.688095-.042986zm-20.703716 1.2552886c.11569-.030119.276213-.028212.356715.00381.0805.032597-.01418.057187-.210347.054804-.196191-.00286-.262063-.02907-.146368-.059189z" fill="#273839" stroke-width=".118907"/></svg>