<svg height="128" viewBox="0 0 105.75634 33.866667" width="399.70901" xmlns="http://www.w3.org/2000/svg"><path d="m75.456411 30.576333c-.151214-.06102-.217695-.560016-.217695-1.63395 0-1.324028-.05022-1.592918-.349803-1.871997-.269215-.250813-.32417-.454027-.238554-.882104.128433-.642175.09507-.644918 2.1981.180719.741685.291183 1.448459.491069 1.57061.444193.205624-.0789 4.482512-10.000142 4.482512-10.39822 0-.101219-.439325-.178263-1.0165-.178263h-1.016507l-1.975781 4.622627-1.97578 4.622629-1.056844-.05104-1.056845-.05103v-.867488c0-.79921.03297-.867749.418916-.870782.380733-.003.563319-.350557 2.002797-3.812498l1.583884-3.809208 2.425545.03003c2.392209.02962 2.438303.03766 3.352506.584468 1.221292.730484 1.202414 1.004535-.02102.304582-.879658-.50329-.95972-.519889-1.111604-.230477-.679956 1.29559-4.716537 11.08166-4.629246 11.222897.0609.0985.406443.309225.767916.468268.586005.257838.640267.333797.50077.700988-.122421.322251-.252494.393455-.598069.327394-.372999-.07131-.495035.0203-.78547.589583l-.34385.674004-1.346168-.01374c-.740395-.0075-1.444132-.05328-1.563864-.101591zm2.714998-1.024869c.111166-.243972.202121-.471697.202121-.506055 0-.08756-2.269007-1.140234-2.457741-1.140234-.08504 0-.154605.470221-.154605 1.044937v1.044936h1.10406c1.014098 0 1.120528-.03615 1.306165-.443584zm1.551831-1.421273c-.359194-.144248-.653094-.340151-.653094-.435342 0-.09519.857493-2.222396 1.905551-4.727127 2.345792-5.606227 2.611906-6.208543 2.743019-6.208543.05736 0 .444614.215358.860665.478571.551253.34875.730184.561341.659608.783702-.120065.378298-.0069.383307.542306.02387.542398-.355393.559605-.07606.02618.425063-.232693.218608-.628511.378669-.936407.378669-.613506 0-.351989-.512519-2.843691 5.572998-.88243 2.155183-1.614923 3.930191-1.627742 3.944462-.01286.01428-.317204-.09207-.676399-.236322zm-2.481727-1.966578c-.383148-.177364-.568623-.328293-.412169-.335397.194243-.0088.586408-.717152 1.236528-2.233407.882608-2.058498.988915-2.224644 1.457103-2.277431.736951-.08309.954408-.378451.278633-.378451-.612536 0-.641107-.04046-.377018-.533917.124985-.233543.365361-.336863.783699-.336863.331878 0 .60342-.07837.60342-.174156 0-.09579-.235102-.174156-.522466-.174156-.593742 0-.594073-.00061-.320353-.601352.146042-.320526.336444-.443586.686346-.443586.266322 0 .532667-.07837.591864-.174156.06275-.101504-.113051-.174156-.421379-.174156-.501078 0-.518539-.02299-.330631-.43539.153948-.337897.328607-.435391.779965-.435391.319876 0 .581594-.07837.581594-.174156 0-.09579-.195923-.174156-.435391-.174156-.270911 0-.435391-.09869-.435391-.261235 0-.188668.193505-.261233.696624-.261233.435737 0 .696624.08035.696624.214539 0 .259963-3.599804 8.766843-3.944101 9.320511-.286417.460585-.292145.460794-1.193501.04355zm-5.262711-.810127c-.116704-.0473-.258756-.374189-.315673-.726415-.05693-.352225-.460135-1.439134-.89602-2.415351-.672794-1.506785-.871625-1.802511-1.316061-1.957443-.392211-.136726-.501846-.265424-.437076-.513088.04957-.189433-.0815-.541205-.306892-.823875l-.393338-.493293-.975817.647906c-.916482.608514-1.05804.647885-2.3282.647527l-1.352388-.000381-1.466282-1.958876c-.806461-1.077382-1.6636-2.174395-1.904768-2.437806l-.438478-.478929h2.721727c1.626626 0 2.765032.07008 2.82936.174156.135918.219925 1.355006.228858 1.576109.01155.252654-.248315 3.15698-.394477 8.385444-.422003 3.529218-.01858 4.792423-.08044 4.954748-.242633.317088-.316836 2.140461-.283925 2.412233.04354.162479.195772.598517.261234 1.740101.261234h1.523291l.107946.653086c.129889.785798.14471 1.7851.02648 1.7851-.04696 0-.635494-.352666-1.307951-.783703l-1.222657-.783706h-2.500256-2.500272l-.382029.91432c-.210112.502876-.933028 2.26169-1.606468 3.908475-1.122963 2.746031-1.26281 2.998596-1.687519 3.047734-.434279.05024-.466334.11587-.515319 1.054976l-.0522 1.001397-1.079784-.01374c-.59388-.0075-1.175266-.05245-1.291963-.09975zm1.24149-.866431c.12615-.328742-.177149-.761629-.533631-.761629-.296526 0-.483587.424172-.345623.783703.133923.349003.742725.333719.879254-.02208zm1.541985-5.302674c.268439-.122311.693608-.756604 1.227286-1.830943.449109-.904091.816558-1.721136.816558-1.815654 0-.103022-.79822-.171853-1.992924-.171853-1.862001 0-2.010728.02543-2.264027.387063-.149109.212884-.270269.545958-.269229.740164.0026.499801 1.665186 2.847699 2.036262 2.875697.01942.0015.22017-.08155.446074-.184474zm-8.134038-.607502c.231407-.186311.271526-.300058.12717-.360559-.129539-.05429-.17339-.275905-.113676-.574484.05832-.291649-.02027-.713289-.196461-1.054028l-.293688-.567925-1.769591.124612c-.973275.06854-1.79901.153266-1.834955.18829-.03594.03502.343726.615511.843723 1.289974l.909092 1.226295h.995162c.642061 0 1.115114-.09657 1.333224-.272175zm28.685745 6.149945c.0465-.119732 1.308813-3.092426 2.805127-6.605986 1.496313-3.51356 2.720559-6.511222 2.720559-6.661473 0-.173343.15497-.273183.42405-.273183.56237 0 1.31752.295394 1.31752.515383 0 .09663-1.0972 2.66949-2.4382 5.717465-1.340994 3.047977-2.438179 5.596259-2.438179 5.662852 0 .06659.09796.121513.217696.122048.51633.0023 1.496952.374312 1.583881.600861.05204.135694-.06336.447645-.256544.693223-.337253.428752-.424166.446505-2.185855.446505-1.396704 0-1.814441-.05196-1.750055-.217695zm-4.52889-.348312c-.360626-.460906-.380058-1.071199-.05104-1.603501.351349-.568514 1.97003-4.469254 2.727899-6.573808.251663-.698864.632599-1.43349.846522-1.632502.213915-.199011.481669-.642803.595005-.986203l.206055-.624363 1.570131.526595c1.272998.426942 1.549644.580615 1.46186.812047-.05959.156997-.632784 1.511911-1.273852 3.01092l-1.165574 2.725469-.870782.113436c-.574726.07487-.963862.234166-1.144572.468542-.150591.195306-.541613.409876-.868926.476822-.520579.106467-.608286.202618-.700103.767471-.05774.355166-.234895.789332-.393701.964813-.444746.491436-.372814.868947.146649.769645.353497-.06757.435383-.0139.435383.285384 0 .265374-.109741.369362-.391845.371283-.316866.0022-.341864.03497-.130621.171489.199388.128851.132276.169454-.283444.17149-.299574.0014-.621328-.0953-.715009-.215029zm5.161089-7.13842c.607686-1.459644 1.138513-2.741554 1.179625-2.848687.09569-.249369-.959081-.697972-1.146004-.487405-.211774.238547-1.91017 4.636702-1.943221 5.032132-.06483.775506.01286.957859.407859.957859.347346 0 .534715-.331126 1.501741-2.653899zm-3.553079 7.181959c.191565-.08232.589724-.155184.884794-.161914.428238-.0098.647851-.167328 1.088469-.780877.3036-.422748.551991-.898441.551991-1.057097 0-.158654.23461-.629458.521358-1.046227.286747-.416771 1.11774-2.115852 1.846654-3.775737.728913-1.659884 1.355953-3.068586 1.393424-3.130448.03742-.06186-.07718-.291938-.254796-.511281-.316227-.390521-.314341-.41758.09086-1.302647.22758-.497112.367694-1.02397.311345-1.170796-.157343-.410026-1.072656-.711672-2.027317-.668111-.84817.0387-.860635.03178-.805503-.447308.03688-.320239.173542-.5089497.399791-.5519337.522274-.099218 3.404875.8770107 3.585346 1.2142187.23501.439122-.05951 1.235765-2.685139 7.263242-1.306811 2.999958-2.376026 5.518387-2.376026 5.596506 0 .366374-.909861.703943-1.866047.692324-.723924-.0088-.909484-.05437-.659207-.161914zm-.01116-.950435c-.351888-.382924-.352812-.40363-.0435-.98029.173766-.324009.315942-.69025.315942-.813872 0-.123621.240415-.27285.534261-.331619.293845-.05877.655527-.291919.803731-.518115.206678-.31543.427122-.411261.946062-.411261.372129 0 .676599.06299.676599.139992 0 .077-.26265.394561-.583657.705701-.442097.428491-.563347.672007-.499885 1.003965.06267.327967-.06198.588659-.495443 1.035864-.661416.682409-1.13795.73128-1.654072.169635zm-1.750032-2.837461c1.315396-4.409398 1.689865-5.817475 1.722162-6.475638l.03903-.795383-2.205764-.154903c-1.213161-.0852-2.32994-.107249-2.481724-.049-.234249.08989-.275969.486679-.275969 2.624892 0 2.396531-.01755 2.524573-.361427 2.633711-.198795.06309-.40692.06924-.462499.01367-.05559-.05558-.163041-1.244024-.238806-2.640989-.07576-1.396964-.22976-2.828089-.34221-3.180276-.197987-.620044-1.853491-2.9914495-2.08837-2.9914495-.06382 0-.414142.2368819-.778456.5264035-1.154096.917151-2.051777.942517-2.137844.06041-.05266-.5394456.353828-.9452925.580085-.5792061.164911.2668317.581848.1939835 1.105476-.1931534.447748-.331037.644964-.3512306 2.474673-.2533816 3.194809.1708519 7.80637.1892193 9.172094.036532l1.262627-.1411752v.8201218c0 .6384725-.169277 1.1326255-.76429 2.2310355-.420362.776004-1.131637 2.429728-1.580609 3.674945-1.34546 3.731548-1.999478 5.137607-2.389722 5.137607-.241755 0-.313224-.08767-.248461-.304773zm-.720536-.15888c-.119727-.04831-.217696-.183439-.217696-.300279s-.468835-.543072-1.04186-.947181l-1.041868-.734744.108379-1.084641c.05967-.596552.127386-1.108073.150599-1.136712.02325-.02864.536686.260582 1.141053.642713.604359.382131 1.152532.661599 1.218166.621039.0656-.04056.205916-.417653.311761-.837985.105837-.420332.241416-.891886.30129-1.047898.09567-.249308-.08321-.283656-1.477189-.283656-1.469937 0-1.586044-.0255-1.586044-.348313 0-.328962.116107-.348312 2.089879-.348312 1.555803 0 2.089863.05563 2.089848.217694-.000015.119733-.323818 1.275695-.719567 2.568804-.395749 1.29311-.757538 2.527442-.803985 2.74296-.08629.400444-.142254.430048-.522766.276511zm-29.704153-2.368631-1.360241-.685484-4.346267-.002-4.346267-.0021.06496-.633741.06496-.633741 4.871387-.0462 4.871388-.0462 1.168474 1.39591c1.003199 1.198461 1.112135 1.391884.770172 1.367448-.219065-.01565-1.010412-.336931-1.758548-.713947zm-51.0234885-.584534c-.068397-.0684-.1243572-1.053546-.1243572-2.189221v-2.064862l-.412334.270171c-.3340954.218908-.8876054.260976-2.9171164.22171-2.353526-.04554-2.5077376-.0695-2.5537313-.396774-.026922-.191571.4041138-1.484681.9578587-2.873576l1.0068085-2.5252643 1.0737306-.0514669c.6732725-.0322729 1.1521375-.1459397 1.2839569-.3047734.1467783-.176856.5729358-.2533066 1.4120102-.2533066h1.2017835l-.2836171.4789294-.2836161.4789294.3812056-.4789294c.3498716-.4395634.4802166-.4789294 1.5857726-.4789294.846636 0 1.205076.064684 1.206281.2176951.000924.1197324-.410501 1.1128297-.91432 2.2068816l-.916033 1.9891865-.10441-.94425c-.087779-.793837-.048365-1.0065588.247407-1.3354131.538688-.5989334.186858-.6960556-.429661-.1186077l-.544264.5097719.114008-.4789291c.08577-.3602823.0493-.47893-.147225-.47893-.1436784 0-.3104084.1959259-.3705102.4353909-.1172719.4672467-.3421166.571713-.468551.2176946-.0427676-.1197325-.1403933-.1592481-.2169586-.0878134-.076566.071431-.045324.3359397.069429.5877899.1832603.402211.2830649.445831.8205276.358612l.6118912-.0993-.102138 3.604176-.102139 3.604176-.4786632.0518c-.2632647.02849-.5346241-.0042-.6030215-.07256zm-.2985135-4.768522c0-.09579-.3218661-.174157-.7152574-.174157-.5023063 0-.6894645-.06482-.6286245-.217694.047649-.119733.4119713-1.03078.8096076-2.02455.3976364-.9937702.6824867-1.8473424.6330017-1.8968281-.1937902-.1937894-1.7359302 3.8801401-1.6014464 4.2306001.1124142.292946 1.502719.369394 1.502719.08263zm-1.8572327-2.133413c.5456928-1.3613288.5772384-1.5238666.2957557-1.5238666-.2309341 0-.4649613.371796-.8762267 1.3920516-.3130513.776608-.511673 1.52095-.4492565 1.683605.164407.428438.3451005.156135 1.0297275-1.55179zm-1.2413656.03772c.2606202-.7060496.433016-1.3245622.3831019-1.3744753-.0499138-.0499122-.2955431.0247136-.5458435.165843-.5903087.3328355-1.2766649 2.2100463-.8960965 2.4508593.4138477.261871.5722214.07606 1.0588381-1.24223zm4.3176923.441217c0-.281359-.7807884-.373586-.9428474-.11137-.137641.222708.078182.372603.5364819.372603.245109 0 .4063655-.103664.4063655-.261233zm32.654281 4.434233c-3.37432-2.475667-3.694227-2.791546-3.471708-3.427975.218935-.626178.948651-.742815 1.458361-.233106.319944.319942.571828.358863 2.322477.358863h1.96362l1.290015 1.298684 1.290015 1.298686 1.056732.05103 1.056733.05103.05114 1.262633.05114 1.262631-2.228121-.0029-2.228122-.0029-2.612343-1.916621zm5.311762.653505c0-.51262-.181177-.722336-1.736406-2.009923l-1.736399-1.437585-1.441947.05067c-1.376677.04837-1.441947.06891-1.441947.453855 0 .31304.467276.749483 2.089874 1.951963l2.089874 1.548773 1.088472.0073 1.088479.0073zm-4.12522-1.299908c-1.07155-.828044-1.909408-1.568423-1.861904-1.645284.04753-.07686.637843-.139751 1.311869-.139751h1.225495l1.463195 1.262632c1.026131.885474 1.463333 1.379682 1.463649 1.654484.000349.352719-.08217.390933-.826794.382653-.767302-.0085-.968404-.118283-2.77551-1.514734zm6.215094.388874v-.438436l4.289238.04659c4.230412.04595 4.292812.05195 4.549303.438433l.260067.391851h-4.549304-4.549304zm9.23028.003c-.30636-.326101-.342615-.43539-.144428-.43539.258716 0 .84105.521974.84105.753876 0 .240456-.300659.102998-.696622-.318486zm-12.834645-1.872178-1.244537-1.262632.266128-.653086.266121-.653086h4.246013 4.246011l.613923 1.219093c.570506 1.132875.653805 1.218986 1.177741 1.217568.5148-.0014.624389-.107255 1.260447-1.217568l.696623-1.216042 4.156519-.0015c4.615104-.0017 4.260793-.110077 3.75404 1.148347-.414526 1.029391-.248271 1.114165 2.185028 1.114165h2.182422v.723673.723672l-2.525267-.114743c-1.649583-.07496-2.525259-.05414-2.525259.06003 0 .114611-3.014027.174774-8.755711.174774h-8.755703zm3.240813.152768c.288178-.418852.474806-.810703.41473-.87078-.174365-.174364-2.837674-.126145-2.837674.05138 0 .175008 1.577851 1.578002 1.776735 1.579831.06723.000627.35803-.341573.646209-.760426zm-1.310987.03512c-.276324-.20794-.576864-.443051-.667864-.522442-.09099-.07939.364974-.144347 1.013257-.144347h1.178708l-.37203.522469c-.444087.623657-.505052.631296-1.152071.144346zm4.20952.536557c.114203-.184791-1.075143-1.551685-1.350144-1.551685-.21917 0-1.188483 1.420615-1.084312 1.589163.136575.220989 2.295255.187757 2.434456-.03748zm-2.008642-.289053c.002-.07184.155704-.326542.341265-.566006l.337395-.435391.569703.566007.569709.566008h-.910974c-.50103 0-.909224-.05878-.907098-.130618zm3.71945-.149514c.804321-1.008044.724096-1.191601-.547225-1.252103-1.367252-.06506-1.526313.18848-.740605 1.180522.304937.385014.606629.700023.670418.700021.06379-.000004.341627-.282801.617412-.62844zm-1.093561-.256006c-.218018-.294887-.358741-.573821-.312704-.619853.04601-.04603.446147-.05947.889141-.02985l.805454.05385-.394885.562998c-.217182.309649-.438913.564352-.492742.566008-.05385.0016-.276245-.238262-.494264-.53315zm17.398194.20648c0-.457583-.08955-.712358-.275476-.783703-.151517-.05814-1.209513-.105711-2.351112-.105711-2.334301 0-2.345267-.0078-1.723772-1.226031l.351849-.689687h1.892727 1.892721l.733918-1.1705272c.599146-.9555717.698393-1.2274208.540445-1.4803283-.181243-.2902233-.06683-.309799 1.810805-.309799 1.724775 0 2.004265.039026 2.004265.2798667 0 .1813827.09511.24337.270281.1761511.311586-.1195652.27175-.039889-.566016 1.1321869-.705877.9875458-.718186 1.1982938-.07 1.1982938.442 0 .616825.176076 1.400656 1.410679.492585.775873 1.018852 1.598761 1.169474 1.828639l.273852.417961h-3.677305-3.67731zm2.612341-3.101652c0-.178896-1.079079-1.4450412-1.231538-1.4450412-.139485 0-1.032489 1.2663082-1.032489 1.4640962 0 .04278.128782.103108.286184.134077.396411.078 1.977843-.04445 1.977843-.153132zm-1.567405-.574261c.204617-.2873571.400545-.5224683.435392-.5224683.03482 0 .230775.2351112.435391.5224683l.372031.522468h-.807422-.807422zm3.014941-.00293c.269327-.3806799.441033-.7708586.381576-.8670623-.1509-.2441575-2.003266-.2265277-2.003266.019063 0 .3262414.748828 1.5478173.946388 1.5438593.102097-.002.405982-.315184.675302-.6958634zm-1.003527-.04656c-.407365-.6217181-.307966-.7501635.500805-.6471385l.683584.087078-.440894.5109445-.440895.510945zm3.561586 2.43832c-1.064618-1.592188-1.393139-1.963479-1.776432-2.007714l-.470258-.05427.806632-1.1212834c.443645-.6167064.906617-1.121284 1.028817-1.121284.122207 0 1.048429.3639363 2.058277.8087476l1.836083.8087474v.7420864.742086l.740162-.08648c.411539-.04808 1.071062-.311362 1.485427-.592974.409892-.278571.804601-.5064921.877141-.5064921.187846 0 1.320692 1.5503211 1.755175 2.4019901.201735.39542.366778.996362.366778 1.33543v.616484h-1.458997c-1.084435 0-1.514668-.06707-1.675814-.261234-.156335-.188376-.569953-.261235-1.48301-.261235-.96487 0-1.290074.06217-1.366463.261235-.06529.170107-.329969.259206-.7588.25542-.643455-.0057-.688479-.05058-1.964718-1.959257zm2.282584.397665c.09032 0 .242732-.206504.3387-.458898.219281-.57676-.187647-1.282664-.739407-1.282664-.473054 0-1.011103.477744-1.011103.897773 0 .435281.661201 1.068808.985573.944333.144109-.0553.335913-.100544.426237-.100544zm-.813632-.422168c-.346884-.25365-.241955-.744061.195083-.911768.360496-.138337.818337.319506.68001.680004-.151962.395991-.517939.492919-.875093.231764zm.587768-.405074c-.07068-.367093-.379781-.343947-.458549.03434-.03288.157783.06313.270434.230468.270434.17937 0 .26479-.114142.228081-.304774zm8.392653 1.959257v-.43539h2.176946 2.176954v.43539.435391h-2.176954-2.176946zm6.540932 0c.05459-.287357.386865-1.003646.738383-1.591751.633269-1.059463.647782-1.070299 1.580224-1.179891 1.012273-.118972 1.763983.176226 1.763983.692721 0 .352254-.665505 1.643531-.847053 1.643531-.07885 0-.598932-.156741-1.155743-.348313-.556819-.191571-1.107894-.348312-1.224618-.348312s-.379211.372259-.583326.827241c-.272543.60755-.344743.68849-.27185.304774zm-79.294669-.394932c-4.078872-.04505-4.223288-.05844-4.223288-.391851 0-.189869.06148-.345216.136607-.345216.07513 0 .270379-.226457.433878-.503238.283738-.480331 1.11024-.76516 1.674508-.577071.282692.09423.235984.383684-.06191.383684-.208363 0-.615674.487122-.615674.736312 0 .03442.745884.08163 1.657522.104903l1.657521.04232.562969-.594801c.573906-.606354 1.585817-.954576 1.79419-.617422.06199.100304-.05253.298106-.254481.439562-.401617.281304-.496417.761492-.149497.757242.347952-.0043.596734-.22844.731079-.658776.173957-.557219-.1748-.905963-.905995-.905963-.472908 0-.741271.137918-1.186075.609548-.542498.575216-.63867.609545-1.707551.609545h-1.132676l-.05458-.566006c-.05121-.531142-.100111-.569304-.793815-.619516-.622356-.04505-.811841.0238-1.198404.435391l-.459163.488898.264752-.522469c.145613-.287357.385095-.81178.532182-1.165385.255327-.613815.290284-.6342889.772322-.45234.812706.306763 1.37704.05108 2.004134-.9079857l.56498-.8640758 1.267105-.00316 1.267105-.0031-.265708.5138198c-.357672.6916618-.334515 1.0045047.09122 1.2323517.693175.370976 1.252097.135207 1.972016-.8318517l.680654-.9143103h1.126177c1.006824 0 1.112159.032299.993926.3047734-.07274.1676246-.167653.5559356-.210924.862911-.06841.4853516-.01953.5729816.37485.6719656.792847.198992 1.296068-.05891 1.891342-.9693158.489171-.7481367.642872-.8644958 1.145499-.8672051.319288-.00171.553949.055646.521471.1274872-.03247.071839-.275438.5420621-.539915 1.0449372l-.480865.9143205h-2.093068c-1.606399 0-2.189846.06342-2.509299.272725-.489668.320843-.790607 1.084799-.790607 2.007015 0 .363197-.05878.684576-.130617.714175-.07184.0296-2.031096.03284-4.353904.0072zm4.764434-.358532c-.04893-.07916-.04441-.314273.01003-.522468.09815-.37531.134514-.378536 4.267485-.378536h4.168496l.182132-.522468c.100175-.287358.276349-.522469.391501-.522469.307907 0 .627341.372448.627341.731456 0 .28566.199257.313481 2.24515.313481h2.245149l.111149-.442848c.06113-.243566.227366-.487445.369409-.541952.337243-.129412.776295.24263.776295.657812 0 .299168.155951.326988 1.832951.326988 1.807305 0 1.835327.0062 2.002796.446728.09342.245701.169846.480811.169846.522469 0 .143429-19.310897.07555-19.399733-.06819zm9.472832-1.336395c0-.145129-.154805-.261234-.348312-.261234s-.348313.116105-.348313.261234c0 .145131.154806.261235.348313.261235s.348312-.116104.348312-.261235zm5.572998 0c0-.143678-.117555-.261234-.261235-.261234-.143679 0-.261233.117556-.261233.261234 0 .14368.117554.261235.261233.261235.14368 0 .261235-.117555.261235-.261235zm20.947688.914321c-.09232-.119732-.421155-.668325-.730732-1.219093l-.56287-1.001398h-14.5449-14.544898l.597391-1.088476.597388-1.0884764h20.883001c15.272279 0 20.939157-.052822 21.092037-.1966081.114973-.1081344.755541-.2017496 1.423484-.208035 1.709715-.016087 1.851154.2047965.960743 1.5003542l-.683267.9941623-6.26676.04643-6.266773.04643-.663289 1.2162c-.65158 1.194719-.957031 1.431049-1.290555.998504zm-23.722738-2.574931c.407814-.2182551.431671-.5708107.06353-.9389466-.206321-.2063194-.355756-.2292146-.609548-.09339-.5305.2839148-.431684 1.0523876.154162 1.1988716.03025.0075.206577-.06738.391851-.166535zm-.52407-.1619435c-.294459-.1819846-.112226-.7027098.245922-.7027098.147891 0 .266699.1505845.266699.3380338 0 .4147595-.200638.5574925-.512621.364676zm6.508224.068897c.374214-.3742156.0625-.9457654-.515811-.9457654-.236094 0-.429263.032774-.429263.072832s-.04369.1866933-.09709.3258564c-.09639.2511912.333474.820403.619562.820403.0821 0 .272274-.123.422606-.27333zm-.666813-.02893c-.05726-.057258-.104105-.2535306-.104105-.4361612 0-.4092598.579285-.351808.659635.065418.05468.2839141-.363367.5629012-.55553.3707392zm9.200808.02859c.312204-.3122094.309452-.3012315.167967-.6699471-.147937-.3855055-.889878-.3447927-1.106909.0607447-.135826.2537919-.112932.4032269.09339.6095469.343358.343359.501912.343295.845553-.000349zm-.587258-.068551c-.294458-.1819861-.112228-.7027106.245921-.7027106.14789 0 .266701.1505845.266701.3380338 0 .4147603-.200641.5574923-.512622.3646768zm8.865173.089358c.362658-.4369731.147167-.8791482-.428447-.8791482-.359853 0-.536087.095477-.578003.31314-.06914.3590519.255419.8188762.578003.8188762.120225 0 .313027-.11379.428447-.252868zm-.704395-.2002565c-.154743-.1864508-.161537-.3110675-.02442-.4481634.240484-.2404828.735781-.060321.735781.2676415 0 .3629049-.462556.4802899-.71134.1805219zm10.179746-.1064819.325211-.3982541-1.326606-.050867c-.729632-.027978-1.326606-.1259386-1.326606-.2176954 0-.096984-.867156-.1668308-2.071246-.1668308-1.72804 0-2.088755.045647-2.176951.2754783-.172673.4499904-.120877.9091529.111984.9926259.119732.04291 1.549989.05233 3.178353.02092 2.839385-.05478 2.973973-.07343 3.285861-.4553749zm-6.302171-.1805587c.05272-.3712078.143724-.3944609 1.727381-.4413799 1.333701-.039511 1.716573.00447 1.893505.2176954.153308.1847286.537772.2672236 1.245387.2672236.566307 0 1.02361.077806 1.02361.1741563 0 .1093019-1.107027.1741555-2.972768.1741555h-2.972762zm-38.166086 2.3511086c.0098-.230384.418434-.67719.810254-.885874.517834-.275799 24.611009-.292439 24.611009-.01699 0 .102083-.08113.337194-.180281.522468-.161174.301154-.379857.336864-2.062888.336864-1.661419 0-1.91963-.04092-2.197815-.348313-.173371-.191571-.532584-.348312-.798254-.348312-.471074 0-1.030386.384894-1.030386.709065 0 .08903-.804742.161716-1.790457.161716h-1.790458l-.197211-.522469c-.129266-.342465-.318138-.522468-.548211-.522468-.407165 0-.898347.435301-.898347.796142 0 .201801-.394755.248795-2.089874.248795-1.896368 0-2.089874-.02902-2.089874-.313481 0-.828564-.924485-.971606-1.357811-.210089l-.296673.521368-3.526662.0012c-3.019196.000924-3.526663-.03648-3.526663-.26013 0-.14513-.154805-.261234-.348312-.261234-.193506 0-.348312.116104-.348312.261234 0 .143679-.07837.261235-.174157.261235-.09579 0-.171663-.05878-.168617-.130618zm-7.441129-2.0720172c-.06056-.1578038-.012188-.5300625.107484-.8272418s.257015-.6970661.305207-.8886381c.205701-.817695.220018-.8353072.494104-.6078361.142545.118302.259173.3622394.259173.5420824 0 .2609631.130113.326988.644378.326988.657207 0 .633714.2554538-.03483.3787309-.237337.043769-.348312.2017417-.348312.4958345 0 .2373832-.0634.529569-.140896.6493007-.209555.3237817-1.155023.2729027-1.286307-.069221zm5.012736.044154c-.154884-.1866248-.132221-.3879831.09801-.8707809.293743-.6159873.319083-.628021 1.322441-.628021.637625 0 .982415.065606.915325.1741557-.05921.095787-.308731.1741564-.554516.1741564-.402996 0-.436687.050975-.343074.5190383.07996.3998032.02758.5598343-.228015.6966246-.464299.2484861-.972574.2211121-1.210171-.065172zm4.991658.1227102c-.374957-.097988-.386848-.4351574-.03907-1.1076927.245668-.4750704.338383-.5138194 1.229373-.5138194.598093 0 .922832.066066.856029.1741557-.0592.095787-.251365.1741564-.427036.1741564-.374258 0-.619902.5030515-.368436.7545175.115635.1156359.07383.2497523-.124908.4007302-.304223.2311103-.581706.2601773-1.125956.1179523zm31.914118-2.3077034c0-.2744916.875983-.3453281 4.179748-.3379974 3.346589.00742 4.528062.090247 4.528062.3174166 0 .073366-1.959262.143316-4.353908.1554439-2.483864.012579-4.353902-.045345-4.353902-.1348631zm10.884761-.707058-.857691-.8707804h5.609988c3.085496 0 5.609985.043075 5.609985.095727s-.119567.3269452-.265701.6095462c-.200002.3867636-.388526.51382-.762379.51382-.273171 0-.594235-.1175555-.71348-.2612342-.177491-.2138688-.765532-.2612342-3.243215-.2612342-1.66452 0-3.026407.068774-3.026407.1528319 0 .084057.11756.2503939.261237.3696365.468791.3890615.278122.5224686-.746713.5224686-.979063 0-1.032511-.024947-1.865624-.8707814zm-2.002797-.7133593c0-.1049907.123116-.6143972.273593-1.1320153l.273592-.9411239h4.545152 4.545163l.925758-.5224686c.74422-.4200107 1.131198-.5224685 1.973342-.5224685.61202 0 1.047576.075631 1.047576.1819033 0 .1000474-.127084.687824-.282405 1.3061713l-.282413 1.124268h-6.068165c-5.889918 0-6.07363.010229-6.254571.3483126-.197053.3682061-.696622.4810962-.696622.1574211z" fill="#273839" stroke-width=".174156"/></svg>