<svg height="128" viewBox="0 0 91.435501 33.866667" width="345.58301" xmlns="http://www.w3.org/2000/svg"><path d="m49.21618 30.339831c-3.232551-.427312-3.144203-.404102-3.144203-.826058 0-.237717.07687-.346122.244549-.344873.434752.0032 6.906985.674962 6.95292.721614.02445.02483.01123.218079-.02936.42944-.06963.362445-.114603.383385-.79118.368337-.394546-.0088-1.849269-.165582-3.232719-.34846zm1.327553-1.057618c-1.268162-.128823-2.697303-.27516-3.175871-.325193l-.870121-.09097.07557-.862617c.14544-1.660225-.172294-1.491458 2.807934-1.491458 2.546201 0 2.619126-.0082 3.218503-.359402l.613272-.3594-.09299 1.442404c-.05115.793323-.132944 1.631057-.181769 1.861632l-.08877.419227zm3.326849-3.224401c-.04964-.675046.04709-.935395.349635-.941122.06218-.0011.06653.07314.0097.165135-.05686.092-.08735.469305-.06776.838455.04855.914761-.223994.856366-.291551-.06246zm-10.021509-3.578925c-1.377713-2.064481-2.609668-3.793793-2.737677-3.842915-.12801-.04913-.454906-.08931-.726439-.08931-.670282 0-1.773384-.626488-2.186524-1.241797-.384937-.573307-.590534-1.273566-.373918-1.273566.08211 0 .142405-.384616.142405-.908325v-.908326h2.858596 2.858597l.04106 1.013133.04106 1.013132 1.607037.03791c1.308358.03087 1.639502.08128 1.781716.271258.126404.168863.174677 1.021011.174677 3.083587v2.85024l.501586.896918c.712304 1.273721.797418 1.314501 2.743582 1.314501h1.645815v-4.319565c0-3.890172.02709-4.406597.272502-5.19511.149875-.481552.240489-.927343.201366-.990647-.03912-.0633-2.171999-.115099-4.739723-.115099h-4.668592l-.66831-.828777c-.653189-.810024-.684121-.828884-1.367022-.833503-.384292-.0026-.855923.08514-1.048068.194985-.234149.133852-.792449.201344-1.692998.204663-1.184675.0044-1.390762-.03211-1.741913-.308327-.361368-.284253-.581635-.31802-2.377351-.364453l-1.979083-.05118-.558085.504196-.558084.504195h-2.742975c-1.508637 0-2.742975-.03113-2.742975-.06918 0-.151026 3.108636-5.1603674 3.52008-5.6723546l.439482-.5468755h9.837635c9.560766 0 10.378231.033142 10.378231.4207868 0 .1430321 1.554058 2.3882975 2.005913 2.8980943l.278683.31442h7.1025 7.102502v1.343851c0 1.334719-.0021 1.343065-.314419 1.228234-.17293-.06359-1.980849-.136571-4.017592-.162181l-3.703174-.04656-2.096135.861476c-2.417269.993456-3.000251 1.461787-3.282089 2.636623-.143801.599425-.13068.760703.105279 1.294128.32437.73329.97745 1.313753 1.680933 1.494025.284721.07296 1.547172.269888 2.805439.437612 1.730406.23066 2.368745.268055 2.62017.153497.182828-.0833.332414-.21434.332414-.291198 0-.08744-.132689-.07929-.354501.02177-.281007.128036-.895189.09164-2.962625-.175557-2.84149-.367239-3.168766-.487696-3.783926-1.392705-.271122-.398871-.319638-.617264-.271198-1.220795.100156-1.247881.503609-1.598803 3.119003-2.712897l2.226982-.948639 3.493557.000447c3.161435.000406 3.524941.02458 3.823678.25433l.330122.253886-.380344.299178c-.209188.164548-.735051.473369-1.168576.686268-.774562.380378-.846381.388653-4.142048.477223-1.844599.04958-3.863311.09674-4.486028.104807-1.452181.01882-1.982809.325917-2.260213 1.308089-.168036.594948-.15946.718644.08873 1.279713.173988.393328.432499.702681.704918.843556.236594.122348 1.515507.372527 2.842029.555956 2.295584.317428 2.428697.321905 2.761216.09287.192144-.132348.462816-.468701.601495-.747453.214739-.431635.228535-.596138.09301-1.10892-.08752-.331157-.342475-.890585-.566558-1.243176-.224092-.352596-.407432-.674817-.407432-.716052 0-.04123.896097-.10555 1.991327-.142923 2.085171-.07115 2.562109-.193628 3.703173-.95095.249788-.165785.45416-.236079.45416-.156209s-.06703.186649-.148968.237288c-.08194.05064-.333475.346763-.558973.658055-.321137.443319-.409994.714862-.409994 1.252916 0 .377812.06789.813797.150879.968855.116623.217916.100763.337303-.06987.525851-.121414.134159-.221135.333301-.221606.442537-.000528.138186-.183282.203431-.60047.214456-.759214.02007-1.914037.518021-1.914037.825328 0 .125426.644562 1.269464 1.432355 2.542306 1.020268 1.648439 1.540949 2.360594 1.809799 2.475309l.377439.161048-.491887.392483c-.270534.215867-.508945.370621-.529802.3439-.368059-.471609-3.058227-5.161629-3.081429-5.37215-.04569-.414672-.19571-.615487-.459758-.615487-.195715 0-.191326.02687.03095.189406.399616.292206.178497.571013-.713444.899582l-.815188.300294-2.351655-.36375c-3.241437-.501381-3.032959-.649776-3.032959 2.158837 0 1.557319-.05171 2.278356-.174675 2.435765-.09607.122979-.714362.512302-1.373974.865162l-1.199297.641565h-2.677284-2.677282zm2.209726.06631c.10903-.131372.148276-.839869.121919-2.200942l-.03887-2.007206-1.781715-.03911c-1.182628-.02596-1.781715.01052-1.781715.108498 0 .197798 2.488674 3.936029 2.768008 4.157819.286145.227198.513037.221129.712373-.01906zm6.231713-11.125398v-.489099l-2.150677.03494c-1.182873.01922-2.23169.03493-2.330702.03493-.399182 0-.630312.446299-.490166.946485.0059.02099 1.126883.02099 2.491118 0l2.480427-.03816zm-5.391751-2.8104676c-.142636-.2007371-.443685-.5623197-.668998-.8035183-.393965-.4217409-.453021-.4385427-1.541404-.4385427-1.322155 0-1.384.092149-.700563 1.0438195l.431184.6004109 1.36956-.018597 1.369561-.018596zm18.440156 17.1793456-.314635-.441867.620234-.553997c.637949-.56982 2.345303-1.981812 2.788989-2.30651.223178-.163325.267375-.129282.415712.320184.0913.276616.133115.588612.09293.693322-.09779.254823-2.430287 2.286885-2.909375 2.534634-.360834.186592-.394473.174677-.693855-.245766zm-20.005037-.075936c-.326019-.04918-.638887-.434734-1.939125-2.389616-.852712-1.282035-1.616854-2.393858-1.698094-2.470717-.202529-.191605.151324.369443 1.669982 2.647824.714552 1.072009 1.280917 1.967378 1.25859 1.989704-.02233.02233-.556115-.03454-1.186195-.126376-.830831-.121096-1.216232-.245437-1.402668-.452541-.420261-.466849-3.789965-5.384371-3.789965-5.530823 0-.07415-.05279-.134824-.117311-.134824-.151288 0-.441659-.636195-.441659-.967662 0-.140688.08797-.328805.195483-.418035.154278-.128039.382556-.04357 1.083003.40079.701977.445319 1.021395.563302 1.527888.564352l.640367.0014 2.224351 3.304195c2.217302 3.293722 2.485317 3.701654 2.405973 3.661985-.02303-.01151-.216813-.04733-.43062-.07958zm-4.383325-6.121895c-.07601-.198067-.476351-.485217-.676492-.485217-.07381 0 .640877.68172.727868.694296.0168.0024-.0063-.09166-.05137-.209079zm-1.12939-.576879c-.09461-.03828-.283262-.04061-.419227-.0052-.135964.03543-.05856.06675.172019.0696.230575.0028.341819-.02614.247208-.06442zm8.805914 5.227194c-.07382-.09607-.364501-.560208-.645951-1.031412l-.511728-.856734v-2.929586c0-3.607941.12955-3.392255-2.037267-3.391839l-1.526163.000294.04686-.908619.04686-.908619h4.25022c2.337619 0 4.250217.05498 4.250217.122173 0 .0672-.09433.389522-.209613.716281-.169245.479692-.209614 1.438464-.209614 4.978424v4.384315h-1.659798c-1.16309 0-1.699965-.05227-1.794021-.174678zm15.27332-2.621635c-.821284-1.307398-1.458429-2.433425-1.41587-2.502283.118487-.191714 1.32987-.570583 1.82436-.570583.276645 0 .547966.116665.731227.31442.54561.588763 2.412442 3.352411 2.412442 3.571368 0 .34435-1.347349 1.564164-1.727704 1.564164-.276951 0-.575842-.389432-1.824455-2.377086zm-29.933287 1.463065c.521101-1.357969.462111-2.905137-.152762-4.006526-.47416-.849338-1.454918-1.596703-2.249421-1.714123-.283391-.04189-.792989-.140878-1.132441-.219989-.375306-.08747-2.946897-.140523-6.561718-.135376-5.176079.0074-5.988148.03704-6.281929.229537-.18557.121588-.367674.336843-.404677.478342-.03738.142963-.246516.296637-.470691.345875-.512081.112471-.544364.165699-.970339 1.599871-.33802 1.138051-.373581 1.194125-.782847 1.234455-.428663.04224-.428757.04209-.519283-.824019-.0498-.476445-.09054-1.273486-.09054-1.771202 0-.788544-.02696-.882561-.209613-.730973-.17656.146533-.209614.120321-.209614-.166223 0-.215947-.153106-.453384-.419227-.650135-.410961-.303836-.419227-.33437-.419227-1.548495 0-.972019-.04511-1.255856-.209613-1.318983-.138359-.05309-.209614-.271942-.209614-.643792v-.563355h.613889c.41677 0 .639719.06731.694327.209614.06969.18161.846439.209613 5.814259.209613 3.856469 0 5.733822.04733 5.733822.144549 0 .09565 1.042749.139481 3.082692.12957 1.904001-.0093 3.148079.03928 3.253698.126944.105786.08779.249157.0933.37593.01443.173255-.107781.176157-.173886.01877-.427709-.117201-.189019-.137117-.349257-.05377-.432605.07281-.07281 1.022299-.131803 2.109977-.131096 1.770355.0012 2.019879.03139 2.381091.288599.346016.246385.609444.286609 1.849218.282362.989158-.0034 1.55605-.06802 1.795078-.204661.192146-.10984.580271-.201938.862501-.204663.432317-.0042.591898.08706 1.013132.579172.274992.321268.499987.635688.499987.698712 0 .06302-1.100471.114589-2.445491.114589h-2.445486v.908325c0 .512389-.06092.908325-.139743.908325-.221868 0-.162564.590649.110407 1.099635.248325.463024.247571.469248-.10306.851935-.303865.331643-.4119.368673-.773262.265035-.699811-.200703-1.131162-.137618-1.519429.222214-.313045.290122-.369761.45996-.369761 1.107278 0 .420527.07342 1.082674.163159 1.471437.154169.667898.140483.751251-.248427 1.512892-.300889.58926-.500397.818752-.741797.853282-.263265.03765-.311549-.0014-.238153-.192672zm-18.498712-6.352582c0-.366729-.507779-.635676-.777515-.411814-.469006.38924-.0063 1.100961.529357.814275.136487-.07305.248158-.254153.248158-.402461zm15.721016 0c0-.417041-.48281-.553949-.762986-.216357-.146254.176223-.146254.256491 0 .432714.280176.337593.762986.200683.762986-.216357zm-14.765529-1.520174c.248375-.157434.15479-.718035-.151969-.910331-.44833-.281043-.959343.285702-.749851.83163.08469.220704.606015.266199.90182.0787zm-.611877-.305774c-.128611-.208098.0205-.321238.288061-.218567.123473.04738.185358.149476.137523.226877-.113272.183278-.309545.179445-.425584-.0083zm15.028049.149039c.106273-.198572.106273-.360397 0-.558969-.263974-.493242-1.117938-.279751-1.117938.279485 0 .559235.853964.772726 1.117938.279484zm-.698711-.197968c0-.121692.09957-.221259.221258-.221259.121693 0 .196368.07468.165944.165944-.08637.259114-.387202.30209-.387202.05532zm6.711068.263701c.273782-.329887-.03905-.904187-.492533-.904187-.45348 0-.766315.5743-.492533.904187.09757.117564.319209.213752.492533.213752s.394963-.09619.492533-.213752zm-.632276-.205475c-.05578-.09025-.03854-.226978.03833-.303837.09316-.09316.173549-.08504.241159.02436.05578.09025.03854.226979-.03833.303837-.09316.09316-.173548.08504-.241159-.02436zm-2.965447 8.10221c-.300045-.120728-.303523-.144201-.104807-.707423.721394-2.044646-.539334-4.184564-2.493702-4.23273-.620488-.01529-.821877.05228-1.403359.470866-.794098.57164-.325451.561581-6.705708.143915-3.196491-.20925-4.08096-.309261-4.273144-.483185-.133291-.120626-.378884-.219321-.545763-.219321-.404831 0-.388984-.356719.02798-.629926.480729-.314986 11.962999-.228557 13.401558.100876 1.899396.434964 2.758279 1.435894 2.868687 3.343122.05907 1.020272-.156385 2.369862-.374759 2.347537-.04766-.0049-.226299-.06505-.396988-.133731zm53.236305-6.180753.03638-6.183599.349353-.04718c.412233-.05568.935306-.506068 1.066344-.9181789.09178-.2886413.09433-.2888028.202189-.012837.151006.3863099.154334 1.1044619.0059 1.2646689-.352153.379996-.835187 4.325259-.931603 7.608971-.02142.730154-.08532 2.034999-.141951 2.899654-.09188 1.402781-.130972 1.572102-.362974 1.572102-.250142 0-.258624-.234563-.223618-6.1836zm-18.949234 5.834245c.04428-.115288.175738-.209614.292213-.209614.172396 0 .179427.03897.03782.209614-.09568.115287-.227177.209613-.292212.209613-.06504 0-.08205-.09433-.03783-.209613zm17.670988-.490259c-.261906-.06176-.536043-.219237-.60919-.349948-.07315-.130711-.299052-.4134-.502005-.628195-.563871-.596768-9.985783-7.795143-10.41822-7.959553-.208884-.07942-.815886-.144398-1.34889-.144398s-.969099-.05442-.969099-.12093.262651-.443815.58368-.838454l.58368-.717524h3.428617 3.428623l.598619-.587496c.466738-.458065.635687-.550426.766891-.419228.119572.119573.948775.16827 2.865292.16827h2.697028v5.869179 5.869179l-.31442-.0143c-.17293-.0079-.528701-.06484-.790606-.126598zm-.615826-3.796242c.309498-.290761.323429-.391909.323429-2.348912 0-1.425781-.05292-2.111562-.174677-2.264652-.09607-.120771-.580286-.510095-1.076031-.865163l-.901349-.645579h-2.697015c-2.510695 0-2.716323.01931-2.976496.279485-.153721.153716-.279487.362785-.279487.464596 0 .192353 6.047674 5.155694 6.691189 5.491475.504207.263093.714844.241605 1.090437-.11125zm-17.034812 3.552853c-.302664-.347086-2.295919-3.174872-2.478863-3.516703-.123537-.23083-.09729-.340042.138361-.575692l.290822-.290821 1.217968 1.650107c1.806003 2.446768 1.872976 2.550665 1.787657 2.773004-.108152.281842-.696807.257276-.955945-.0399zm-8.450738-3.993178c.0066-.700958-.07904-1.065297-.423347-1.80105l-.431612-.922334.63348-.05038c.546847-.04349.664077-.0037.857178.291019.307447.46922.26164 1.767665-.09044 2.563589-.416296.94111-.554684.920593-.545262-.08084zm7.921957-4.845527c0-.153717-.06288-.279485-.139745-.279485-.07686 0-.139741-.224331-.139741-.498515 0-.451963.02937-.489644.314419-.40352.496681.15006.607707.31674.415732.624142-.09415.150756-.171184.400722-.171184.555482s-.06287.281381-.139737.281381c-.07686 0-.139744-.125768-.139744-.279485zm1.874336.151388c-.03176-.03202-.05766-1.682731-.05766-3.6682375v-3.6100106h1.315104c.998595 0 1.528297.074577 2.200946.3098647.860413.3009725 1.100401.3120016 8.362052.3842919l7.476215.074426.04158.7146403c.03091.5311407-.05127.924622-.320081 1.5324168-.617499 1.3962744-.38356 1.3163734-3.854161 1.3163734h-3.04128l-.288152-.4662536c-.396865-.642137-1.729122-1.8789181-2.129981-1.9773331-.181299-.0445142-1.681643-.0631502-3.334099-.041417l-3.004456.039513-.06987.6987118c-.03842.3842912-.177523.8569506-.309102 1.0503545-.400193.5882514-.668854 1.5279964-.673539 2.3559664-.0059 1.088568-.15718 1.238514-1.306102 1.296767-.522329.02648-.975656.02195-1.007386-.01007zm-65.6517748-.372431c-.1097392-.285975-.1070222-3.8042769.0032553-4.2157768l.084264-.3144207h4.3157147 4.3157148v2.3756205 2.37562h-4.3170644c-3.8076852 0-4.3270707-.02608-4.4018844-.221043zm1.8016998-2.154577v-1.8865215h-.3493559-.3493559l-.039455 1.7390285c-.0217.956465-.00626 1.825531.034311 1.931259.040643.105911.2152316.172141.3888107.147493.3091315-.04389.3150451-.08015.3150451-1.931259zm9.24293 1.888076c-.05375-.140074-.270696-.211168-.644389-.211168h-.563355v-1.5856-1.5856009l.495825-.510535c.272704-.2807941.615442-.5105343.761639-.5105343s.318934-.09492.383859-.2109348c.103212-.1844293.987997-.2063786 7.041295-.1746777l6.923248.036257-1.499736 2.4454917-1.499737 2.445491-5.658808.03649c-4.942194.03187-5.669071.0098-5.739841-.174679zm2.586397-.785159c.540044-.384545.512846-1.011488-.05885-1.356609-.35036-.211505-.423329-.213455-.768583-.02055-.288961.161455-.391865.337075-.424329.724175-.0367.437586.01351.541589.349355.723662.494201.267924.418556.273849.902409-.07069zm-.907764-.240531c-.32437-.358424-.287963-.679055.10645-.937485.283175-.185544.384743-.19192.628841-.03948.377446.23572.389974.890292.02082 1.087858-.374143.200235-.489908.183256-.75611-.110894zm3.135908.246037c.254404-.181151.405863-.41379.405863-.623397 0-.349348-.483785-.904253-.788357-.904253-.292456 0-.887468.313687-.904019.476593-.04933.48553.07372.880009.340754 1.092401.389106.309488.457245.30651.945759-.04134zm-.897958-.193205c-.320968-.243258-.259002-.750233.122493-1.002162.243283-.160657.331928-.15665.593905.02685.382286.267763.40305.837818.03764 1.033379-.346434.185406-.44256.178004-.754039-.05806zm3.000518.238674c.34878-.206029.405898-.318331.370918-.729257-.03076-.36124-.13984-.540572-.425641-.699729-.903581-.5031848-1.678688.734619-.862194 1.376874.452265.355752.407229.353192.916917.05211zm-.753436-.186888c-.337457-.196551-.315064-.855738.03653-1.07531.23218-.144998.341575-.135896.628841.05233.431001.282403.446071.669984.03718.956379-.361181.252982-.379567.254725-.702554.0666zm2.982889.141419c.574779-.409278.556834-.985389-.04251-1.364867-.423782-.268321-.469767-.271254-.838454-.05346-.515482.304503-.55822 1.136727-.07566 1.473344.413923.288737.47914.284987.956626-.05501zm-.908251-.172991c-.317599-.232235-.247602-.771179.132786-1.022376.243283-.160657.331928-.15665.593905.02685.382286.267763.403051.837818.03764 1.033379-.351311.188015-.463009.182484-.764332-.03785zm3.151862.167485c.85737-.610502.136961-1.79517-.844454-1.388655-.376935.156133-.434324.249268-.434324.704874 0 .386267.08307.582921.31442.7443.414742.289308.478709.285294.964358-.06052zm-.905691-.187699c-.320969-.243258-.259003-.750233.122492-1.002162.243284-.160657.331929-.15665.593906.02685.382286.267763.40305.837818.03764 1.033379-.346434.185406-.442561.178004-.754039-.05806zm-7.07378-2.1066165c.592742-.3065194.566206-.8358598-.0568-1.1329479-.434561-.2072281-.496264-.2058791-.838454.018333-.49681.3255232-.489962.8342441.01492 1.1081459.476913.2587301.393695.2581186.88033.00646zm-.600845-.1588311c.09607-.038768.253283-.038768.349356 0 .09607.038768.01747.070484-.174679.070484-.192145 0-.27075-.031717-.174677-.070484zm2.753337.2098601c.274083-.1248811.35593-.2655855.35593-.6118871 0-.3621481-.07716-.4816762-.396292-.6138633-.896112-.3711815-1.601297.613433-.826453 1.1539352.387115.2700389.424892.2731684.866815.071815zm-.517459-.2098601c.09607-.038768.253283-.038768.349356 0 .09607.038768.01747.070484-.174679.070484-.192145 0-.27075-.031717-.174677-.070484zm2.764827.146348c.454258-.297641.446237-.7934108-.01776-1.0974301-.303388-.1987872-.428181-.2099892-.768583-.068989-.718676.2976845-.474726 1.3130945.332177 1.3826474.06035.00521.264721-.092101.454163-.2162278zm-.668692-.146348c.09607-.038768.253283-.038768.349356 0 .09607.038768.01746.070484-.174678.070484-.192145 0-.270751-.031717-.174678-.070484zm2.836722.1588311c.566361-.2928765.563081-.8195816-.0069-1.1143501-.378815-.1958936-.459639-.1958936-.838454 0-.555453.2872357-.572142.8164416-.03494 1.1078803.476913.2587301.393694.2581185.880329.00646zm-.600844-.1588311c.09607-.038768.253283-.038768.349356 0 .09607.038768.01747.070484-.174678.070484-.192146 0-.270751-.031717-.174678-.070484zm2.753337.2098601c.274083-.1248811.35593-.2655855.35593-.6118871 0-.3677349-.07627-.4813065-.418403-.6230219-.849123-.351719-1.541223.6490714-.804342 1.1630938.387115.2700389.424892.2731684.866815.071815zm-.517459-.2098601c.09607-.038768.253283-.038768.349355 0 .09607.038768.01746.070484-.174678.070484-.192146 0-.27075-.031717-.174677-.070484zm45.596479 2.3284256c-.0026-.623917.505637-1.9637299.818561-2.1571298.08476-.052383.154103-.4059513.154103-.7857067 0-.6433337.02386-.6904641.349359-.6904641.217372 0 .349353.079187.349353.2096136 0 .1781617.35902.2096135 2.39273.2096135 2.111028 0 2.372249-.024679 2.218765-.2096135-.147776-.1780615-.113536-.2095352.227441-.209091.220772.0002926.590059.1164487.82063.2581377.543489.3339753 1.60704 1.4034158 1.60704 1.6159408 0 .090647-.244944.4039905-.544313.6963175l-.544306.531503-3.403417-.002-3.40341-.002-.519865.581788-.519864.581788zm-59.302876.326066c-.05124-.05124-.09316-.680079-.09316-1.397424v-1.3042612h.419227.419227v1.3974232c0 1.370807-.0062 1.397424-.326065 1.397424-.179335 0-.367988-.04192-.419227-.09316zm54.639265-.558969c-.152501-.152503-.108695-2.5619433.04658-2.5619433.08336 0 .139747.5356791.139747 1.3275523 0 1.327908-.01212 1.408542-.186325 1.234391zm.465804-1.304262v-1.2737513l.593908.042972.593907.042972v1.1878103 1.18781l-.593907.04297-.593908.04297zm-15.902632-1.2503205c-.476548-.6876759-.866449-1.2841912-.866449-1.3255894 0-.041397 1.996568-.091874 4.436818-.1121681l4.436825-.036897.04167-1.0437131c.04621-1.1575024.220163-1.4852047 1.393112-2.6245242.491348-.4772587.71103-.593905 1.118506-.593905.394382 0 .469803.037267.339374.1676909-.345971.3459749-.196956.5676158.316822.4712303.408152-.07657.59783-.012945 1.203492.4036748.395439.2720136.864567.4945702 1.042509.4945702.177943 0 .438146.1435196.578225.3189321.418799.5244318 1.220002.9387491 1.815339.9387491.302209 0 .624925.075461.71715.1676909.206459.2064567.223454 1.8426249.023 2.2171164-.1132.211516-.295533.2702972-.838449.2702972h-.693773v.768583.7685834h-7.098855-7.098865zm9.614232-1.1386745c0-.1610726.106736-.473558.237202-.6944124.302435-.5119825.137655-.6956191-.229063-.2552704-.2878.3455911-.394557 1.2425422-.147885 1.2425422.07686 0 .139746-.1317871.139746-.2928594zm3.011981-.557771c.180478-.2920118-.155042-.380289-1.160399-.305312-.72621.054159-1.013128.129602-1.013128.2663934 0 .2392809 2.027264.2755802 2.173527.03892zm-3.673052-.1625022c.09911-.284147-.04912-.5240336-.323831-.5240336-.308087 0-.466054.2179062-.359424.4957902.09532.2483937.599193.2692222.683255.028246zm3.847197-.9712093c.391974-.3919768.096664-1.0899905-.461152-1.0899905-.374572 0-.628838.2542668-.628838.6288406s.254266.6288407.628838.6288407c.1614 0 .368919-.075461.461152-.1676908zm-.605235-.3982962c-.132785-.2148518.04912-.3534738.228461-.1741164.100356.1003599.10277.1785245.0073.237512-.07825.048358-.184349.019827-.235781-.063395zm-3.355443.016674c.103345-.167216-.159536-.3328982-.34567-.2178607-.156282.096588-.05368.3479471.142022.3479471.06779 0 .159425-.058539.203648-.1300864zm1.393408-.6484779c.294401-.2944028.276571-.5618837-.059888-.8983438-.336433-.3364312-.407676-.3418976-.807361-.0619476-.337886.2366628-.4097.7453849-.142889 1.0121956.235153.2351512.749512.2087215 1.010138-.051902zm-46.652175 2.2109236c-.042301-.1345019-.090066-.9097961-.106143-1.7228759-.035783-1.8096999.138625-2.3645881.743216-2.3645881h.405346l-.038.9432607-.038.9432612.436473.042469c.360944.035122.542308.1977722 1.048068.9399354.490009.7190472.68502.8981257.980935.9007908.203138.00185.405536-.091.449777-.2062877.04702-.1225353.256415-.2096136.50405-.2096136.283382 0 .423612.069389.423612.2096136 0 .1397422.139742.2096135.419227.2096135s.419227-.069871.419227-.2096135c0-.2823053.780658-.2823053.888989 0 .104402.2720679.772725.2720679.877126 0 .108332-.2823053.88899-.2823053.88899 0 0 .1380193.13808.2096135.404276.2096135.230446 0 .438862-.09013.484713-.2096135.06701-.1746266.466028-.2096136 2.390571-.2096136h2.310134v.4890984.4890979h-6.907838c-6.456424 0-6.912856-.015982-6.984742-.2445485zm.686919-.3163342c0-.2995387-.406045-.2562739-.46494.049542-.03597.1867517.02095.2436651.2077.2077001.141482-.027248.25724-.1430046.25724-.2572399zm.74198.03685c-.05673-.294555-.304734-.2759816-.367935.027554-.02636.1266047.05067.2169951.184924.2169951.143929 0 .212468-.091587.183011-.2445491zm33.870335-.069871c.0385-.399345.09861-.459448.497953-.497952.337392-.032529.454162.01238.454162.1746779 0 .2901876.778058.2979367.888989.00885.04702-.1225347.256415-.2096135.50405-.2096135.283382 0 .423612.069389.423612.2096135 0 .1397422.139742.2096135.419227.2096135s.419227-.069871.419227-.2096135c0-.1402244.14023-.2096135.42361-.2096135.247639 0 .457033.087079.50405.2096135.04584.1194841.254267.2096135.484713.2096135.266198 0 .404275-.071594.404275-.2096135 0-.284128.818632-.284128.927666 0 .04584.1194841.254267.2096135.484714.2096135.266192 0 .404274-.071594.404274-.2096135 0-.284128.818633-.284128.927661 0 .04426.1152873.230922.2096135.414844.2096135.241242 0 .334404.077861.334404.279485 0 .2736735-.09316.2794843-4.48061.2794843h-4.48061zm-20.288724-.4541629c.09568-.1152873.262564-.2096135.370853-.2096135s.233085-.094326.277324-.2096136c.04487-.1169172.252606-.2096136.469763-.2096136.217155 0 .424896.092696.469762.2096136.04424.1152873.241593.2096136.438563.2096136.196969 0 .394323-.094326.438563-.2096136.104884-.2733197.83464-.2733197.939524 0 .04424.1152873.241594.2096136.438563.2096136.19697 0 .394324-.094326.438563-.2096136.104884-.2733197.834642-.2733197.939525 0 .104401.272068.772724.272068.877126 0 .04487-.1169172.252607-.2096136.469763-.2096136.217155 0 .424896.092696.469761.2096136.06214.1619217.332389.2096136 1.187811.2096136.85542 0 1.125674-.047693 1.18781-.2096136.04702-.1225347.256414-.2096136.504049-.2096136.283382 0 .423612.069389.423612.2096136 0 .2823053.780658.2823053.88899 0 .105762-.2756124.872433-.2756124.978196 0 .104401.272068.772725.272068.877126 0 .104884-.2733197.834641-.2733197.939524 0 .104361.2719602.734094.2719602.838455 0 .105762-.2756124.872434-.2756124.978196 0 .0647.1685977.37873.2096136 1.604877.2096136 1.18458 0 1.563225.046732 1.698405.2096135.154351.1859826-.924805.2096135-9.572352.2096135s-9.726703-.02363-9.572352-.2096135z" fill="#273839" stroke-width=".139742"/></svg>