<svg height="128" viewBox="0 0 55.476243 33.866667" width="209.674" xmlns="http://www.w3.org/2000/svg"><path d="m41.688832 30.411355c-.605251-.414342-.728569-.611799-.724676-1.160353.0027-.380318.185472-.540686 1.072266-.940837.985335-.444615 1.136781-.465163 1.934855-.262523.63962.162404.96033.369069 1.227457.790965.414049.65395.942702.818195 2.438682.757673 1.449991-.05867 1.604082-.220639 1.741035-1.830112.106078-1.24666.184997-1.451261.965348-2.502743.467408-.629801.89184-1.248729.943201-1.375396.07061-.174176.140777-.163264.287905.04478.335704.474683.227161.726974-.762622 1.772578l-.962776 1.017081-.09169 1.951965-.09169 1.951966-3.759417.04941c-3.299425.04336-3.815507.011-4.217875-.26445zm8.252371-1.705352v-1.645318l1.054468-1.171065 1.054475-1.171062.148836.661594c.08186.363877.123119 1.473613.09169 2.466082-.05191 1.639449-.09675 1.836523-.490077 2.154786-.260221.210551-.717473.350298-1.146167.350298h-.713227zm1.063637.324936c.121038-.121035.220066-.70129.220066-1.289457 0-.823193-.06944-1.09604-.301603-1.185128-.465322-.178563-.798717.450522-.798717 1.507125 0 .518656.05501.998025.12226 1.065265.187831.187834.514506.145682.757994-.09781zm-5.547936-.500983c-.284355-.410323-.608938-.752174-.721297-.75967-.562097-.0375-1.118913-.19903-1.351531-.392084-.454338-.37707-1.511861-2.680701-1.511861-3.293335v-.590639l.550847.868592c.302964.477726.762393 1.286062 1.020951 1.796307.258562.510241.506905.890916.551878.845941.156171-.156168-.517635-1.519942-1.318403-2.668428-.579957-.831793-.805273-1.335454-.805273-1.80007 0-.354817-.08825-.810018-.19611-1.011559-.145766-.272364-.133994-.441485.04584-.658755.173148-.209184.241958-.975108.241958-2.693222 0-1.822918.05519-2.389869.229231-2.355059.126079.02521.229539-.05731.229916-.183386.00038-.198217 1.66944-1.656668 2.341074-2.045929.12805-.07421.525156-.03845.882457.07947.783479.258571.993663.723338.993663 2.197181 0 1.048851.02656 1.106648.984422 2.142848 1.040146 1.1252 3.416845 4.804787 3.416845 5.289926 0 .400931-.397164 1.112171-1.268971 2.272475-.689706.917946-.748277 1.085758-.748277 2.143962 0 .631437-.06189 1.184152-.13754 1.228254-.07565.0441-.761978.137124-1.525178.206708l-1.387638.126518zm2.533368-.470963c.160939-.419402-.06452-.825238-.458462-.825238-.194101 0-.400412.123786-.458466.27508-.160939.419402.06452.825237.458466.825237.194098 0 .400405-.123785.458462-.275079zm-1.716791.02246c0-.03808-.144418-.182497-.320926-.320926-.290861-.228108-.297349-.221622-.06924.06924.239569.305475.390163.402621.390163.251686zm-.803385-3.070434c-.247647-.542581-.457028-.838809-.465292-.658281-.01701.371325.697993 1.86236.829833 1.730522.04715-.04715-.116891-.529659-.364541-1.072241zm-1.147545-.252969c-.05805-.151293-.189357-.275079-.291778-.275079-.107337 0-.08951.116525.04207.275079.125562.151294.256866.275079.291779.275079.03493 0 .01598-.123785-.04207-.275079zm1.32048-.850221c-.287403-.718287-2.066862-3.459351-2.24576-3.459351-.04379 0-.04201.06189.004.137539 1.517976 2.498396 1.934947 3.221635 2.132876 3.69947.131223.316808.279074.535532.328555.486051.04948-.04948-.04935-.438149-.219624-.863709zm2.895999.492206c.266883-.247341.485077-.639327.484875-.871084-.000205-.231756-.764744-1.700493-1.698981-3.263858-1.643016-2.749444-1.719857-2.844277-2.347579-2.897251-.845441-.07135-1.63804.520214-1.63804 1.222559 0 .484137 3.100815 5.82579 3.55206 6.118995.417401.271213 1.174619.129041 1.647665-.309361zm1.402173.386438c0-.0348-.177056-.220478-.393458-.412618-.391349-.347477-.392297-.347137-.176934.06327.178761.340656.570392.580519.570392.349348zm-5.868353-2.045673c-.569775-.828141-1.010359-1.186291-.507586-.412619.147478.226941.383128.598297.523669.825237.140541.226941.322167.412619.403612.412619.08145 0-.10742-.371357-.419695-.825237zm5.318195-.733545c-.106508-.280133-.235692-.467289-.287076-.415902-.05139.05139.0056.310749.126613.576366.28585.627374.412024.501199.160463-.160464zm-1.475423-2.559068c-.44155-.651127-.83008-1.156604-.863402-1.123281-.03333.03333.283936.61007.70502 1.28166.421088.67159.809618 1.177066.863403 1.12328.05378-.05378-.263474-.630532-.705021-1.281659zm-3.77949-2.950422c-.05972-.155643-.147923-.243657-.195993-.195586-.04808.04807-.03303.175415.03348.282988.180831.292585.28652.235744.162518-.0874zm.93034-.195097c.36693-.140804.375259-.690014.01499-.989003-.525754-.436339-1.094498.390926-.605172.880254.25717.257169.220842.250475.590173.108749zm-12.905217 5.333121c-.55007-.350435-1.119894-.637156-1.266279-.637156-.218998 0-.212379-.05942.03735-.335365.410425-.453515.435637-4.128207.03491-5.087297l-.268596-.642843 2.439726.02442c2.38556.02387 2.464695.01181 3.564316-.543275 1.051351-.530719 1.254219-.567691 3.115012-.567691h1.990421l1.062743-.825237c.584508-.453881 1.166009-.825238 1.292226-.825238.327204 0 3.024357 1.788267 3.111772 2.063166.04008.126038.10628.908757.14712 1.739377.06786 1.380432.05071 1.476614-.199622 1.119218-.155863-.222525-.311319-.974602-.360789-1.745413-.07517-1.17126-.148947-1.403203-.545619-1.715223-.880163-.692335-1.618045-.497995-3.3123.872381l-1.524657 1.233191.05907 2.358535c.05692 2.272512.04374 2.370974-.361444 2.699557-.231285.187562-.808952.398686-1.283703.469165-.474748.07048-1.150539.322573-1.501754.560209-.587636.397601-.821692.431693-2.934176.427372l-2.295602-.0047zm5.882441-1.260119c1.198917-.807398 1.44998-1.190588 1.575239-2.40425.114514-1.109532-.10218-1.559217-.749195-1.554734-.362507.0025-.357666.01906.0683.233414.528561.265985.72501 1.257785.340827 1.720699-.360537.43442-2.304445 1.710904-2.605472 1.710904-.227455 0-.220003-.130463.04976-.871084.174506-.479096.310993-1.201178.303307-1.604628-.0124-.650499.04831-.757915.536182-.948824.470646-.184168.230263-.217298-1.663248-.229233-2.142343-.0135-2.226246.000837-2.613251.445908-.33622.386687-.399844.683907-.399844 1.867888 0 1.193259.06082 1.472767.398738 1.832465.361747.385062.558073.424438 2.116174.424438 1.649066 0 1.754262-.0248 2.642483-.622963zm.710958-2.615729c0-.354441-.09565-.429029-.550158-.429029-.481837 0-.550158.06452-.550158.519594 0 .678611.126708.782069.660147.539019.282052-.128512.440169-.35467.440169-.629584zm-5.960567-.79416c.164052-.516881-.0296-.735185-.652153-.735185-.442761 0-.539335.07662-.539335.427901 0 .535336.134559.672415.660058.672415.253859 0 .460633-.142068.53143-.365131zm8.491296-1.138637c.121034-.121034.220062-.434624.220062-.696866 0-.966832-1.04359-1.270485-1.575646-.458466-.278272.424699-.278272.492232 0 .916931.321894.491269.985929.608051 1.355584.238401zm-1.02161-.361419c-.32466-.324659-.277695-.661337.122096-.8753.256333-.137183.404666-.117128.565305.07643.479662.577959-.162278 1.323994-.687401.79887zm-30.6011802 5.257826c-.058056-.151293-.211685-.275079-.3413961-.275079-.2244995 0-.458465-.383434-.458465-.751354 0-.103164 2.0923203-.151863 5.2648983-.122541l5.264899.04866.122462.599104c.144854.708659-.09226.929969-.551289.514551-.294031-.266095-.353547-.268-.561057-.01797-.311638.375501-1.216722.362002-1.363438-.02034-.106602-.277798-.139716-.277798-.446679 0-.441442.399499-1.23832.387575-1.395691-.02088-.117758-.305643-.132225-.305643-.303812 0-.211411.376582-1.368716.447367-1.499131.09169-.06724-.183386-.132648-.183386-.327038 0-.133642.126078-.508438.229233-.832878.229233-.324441 0-.627716-.103155-.673944-.229233-.06724-.183386-.132649-.183386-.327038 0-.344294.324805-1.4404509.292804-1.5704032-.04585zm10.2874522.07949c-.200303-.324098.02937-.399901 1.246331-.411349 1.19042-.0112 1.690974.133965 1.504168.436221-.146767.237477-2.60208.215274-2.750499-.02488zm3.117563 0c-.208184-.336849.05396-.410679 1.37176-.386343.703055.01298 1.328146-.05708 1.389094-.155697.06877-.111275-.467311-.179895-1.412941-.180861l-1.523758-.0015-.825237-1.271183c-.453881-.699172-.894856-1.276137-.979946-1.282166-.08509-.006-.197869.154085-.250621.355809-.09271.354535-.2497.366738-4.705021.365745l-4.609109-.001-1.05447-1.365832c-.5799581-.751208-1.0544691-1.39991-1.0544691-1.441562 0-.148882 7.2497141-.07747 7.5405611.07428.163247.08517.355765.09587.427817.02377.07205-.0721 1.410339-.142272 2.973972-.15594 1.813332-.01585 2.916988-.09887 3.047348-.229233.134396-.134395 1.283781-.20438 3.356643-.20438 4.142965 0 3.99586-.103685 4.078353 2.874567.05534 1.997811.02822 2.214917-.334236 2.6757l-.394458.501472h-3.460201c-2.252884 0-3.502377-.06824-3.581081-.195586zm6.792824-.537958c-.06234-.100862-.624242-.182122-1.248679-.180577-.800701.002-1.054261.05521-.860261.180577.371082.239812 2.257152.239812 2.10894 0zm-.217178-1.680429c.956407-.509384 1.14163-1.537975.408898-2.270707-.566103-.566103-1.220004-.573367-1.862532-.02069-.356737.306851-.499256.603062-.499256 1.037646 0 .434585.142519.730795.499256 1.037647.559555.48131.869246.527349 1.453634.216101zm-1.301722-.56605c-.446577-.543321-.249838-1.513274.345251-1.702147.519916-.165015 1.265342.373364 1.265342.913885 0 .830345-1.123891 1.380403-1.610593.788262zm1.05313-.403818c.327856-.395042.05907-1.051255-.402336-.982267-.545271.08152-.822956.593112-.520048.958095.3004.361958.634777.370721.922384.02417zm-15.397122.157037c0-.203959-.628508-1.174457-.760596-1.174457-.13969 0-.889878.990107-.889878 1.174472 0 .06008.371357.10923.825237.10923s.825237-.04916.825237-.109245zm-8.3168707.9685c-1.6433096-1.774597-1.7693605-1.964717-1.7693605-2.668689v-.757971h2.5252337 2.5252337l1.2362568 1.650475 1.236257 1.650474h5.016669 5.016669l.485436.733544.485438.733544h-1.264916c-1.110687 0-1.27661-.04472-1.360829-.366771-.09311-.356043-.250141-.366773-5.368006-.366773-5.1791765 0-5.2665011-.0062-4.9548452-.350555.4839361-.534742.3160462-1.343603-.3254433-1.567928-.4500119-.157366-.5723025-.122805-.8710841.246174-.4489279.554402-.4386401.680987.099047 1.218675.2456431.245643.3672774.495663.2702978.5556-.09698.05994-.1535447.329716-.1256989.59951.044131.427598-.022353.497646-.5181831.545971-.5123082.04993-.7445713-.134365-2.3381719-1.85528zm2.703157-.204542c-.1825916-.475826.073333-.8691.5239314-.805115.3030882.04304.413439.181077.413439.517174 0 .336096-.1103508.474135-.413439.517173-.2479888.03522-.4576553-.05652-.5239314-.229232zm-4.7484615-4.001508c-.4998444-1.413756-.6145538-3.80526-.1825208-3.80526.1512933 0 .275079-.08252.275079-.183387 0-.100862-.1237857-.183385-.275079-.183385-.3817324 0-.3669823-1.4892618.024917-2.5154273l.2999939-.7855215h2.6538029c2.4544627 0 2.6440844.024107 2.5244199.3209255-.07116.1765089-.1718591.6190584-.2237747.9834426-.086964.6103816-.04946.6781804.4765343.8615447.5536681.1930096.570927.2323827.570927 1.30243 0 1.179462-.2273865 1.48308-1.1107137 1.48308-.2980557 0-.3533937.05897-.2151211.229232.1023889.126078.2222418.60059.2663405 1.05447.044096.45388.1443059.969654.2226846 1.146163.1321119.297518-.053294.320925-2.5419668.320925-1.982096 0-2.7056785-.05997-2.7655197-.229232zm3.105014-.821773c-.8987057-.063974-.9439196-.094172-1.3295486-.887913-.3117412-.641656-.3992051-1.154452-.3992051-2.340509 0-1.9641603.1612949-2.2011753 1.4380991-2.1132093.7728691.053245.945362.013271.9030687-.2092605-.0367086-.1931408-.3337203-.2914228-.9971235-.3299471-.8860064-.0514499-.9744046-.0161133-1.4195236.5674677-.4148403.5438833-.4746788.798806-.4746788 2.0222062 0 1.150371.088521 1.580359.4966678 2.412554l.4966672 1.012686 1.1079603-.03392 1.1079602-.03392zm1.1137294-1.333013c.062339-.100862.025941-.183386-.08087-.183386-.1068146 0-.1942092.08252-.1942092.183386 0 .100862.036397.183386.08087.183386.044477 0 .1318722-.08252.1942092-.183386zm-.8252371-.550158c0-.100862-.082523-.183386-.183386-.183386-.1008624 0-.1833857-.297662-.1833857-.661472 0-.512631.061895-.637719.2750789-.555913.3091131.118618.3484973-.03319.1073929-.413965-.3402531-.5373587-.749244-.067101-.749244.861486 0 .490667.055012.947137.1222572 1.014379.1875078.187507.6112867.145129.6112867-.06113zm2.1136487 2.393125c-.3409235-.659273-.3728544-1.835264-.0505558-1.861941.1260779-.01044.8481606-.0047 1.604628.01269.756467.01742 1.581704-.05134 1.83386-.152788.363079-.146078.134152-.186784-1.100316-.195648l-1.5587815-.011195.0591018-1.444958.0591017-1.4449587-.5563699-.1939519-.5563702-.1939516.2852738-.8372321.2852735-.8372325 6.4471188.00917 6.447119.00917-1.407525.7196941c-.774139.3958323-1.45983.8043252-1.523758.9077634-.06393.1034371-.915968.2051951-1.893423.226128l-1.777191.038058 1.696321.060516 1.696321.060516v1.4602063 1.460207h-2.689662c-1.479314 0-2.650337.03933-2.602271.08739.118776.118776 1.932594.243578 3.825382.263209l1.55932.01617 1.374857 1.019776c.756171.560877 1.453254 1.097281 1.549074 1.192009.108662.107424-2.25301.172233-6.276262.172233h-6.4504788zm5.7220142-5.2777506c-.380484-.039701-.95815-.039029-1.283703.00145-.325552.040505-.01425.072987.691789.072173.706035-.0008371.972397-.033962.591914-.073658zm20.2224 4.4434066v-1.375395h.550157c.302587 0 .550158-.08459.550158-.187971 0-.103384-.247571-.237485-.550158-.298002-.509134-.101827-.550157-.168948-.550157-.900165 0-.7256383.04116-.7948692.504311-.8481602.277371-.031918.504312-.140551.504312-.2414134 0-.1008623-.226941-.2094979-.504312-.2414133-.486976-.056031-.504311-.095431-.504311-1.1461626 0-.8294985.06336-1.0881353.266549-1.0881353.146603 0 1.086183.495142 2.087956 1.100316 1.001774.6051739 1.876983 1.1003163 1.944907 1.1003163.326551 0-.218049-.4005373-1.772781-1.303826l-1.701395-.9884996 3.02587-.0523577c1.664227-.028799 3.190915-.00944 3.392641.043014.224007.058249.780512.8034486 1.429693 1.9144614l1.062922 1.8190884 2.528745-.100106c1.696321-.06716 2.644331-.03301 2.879878.103722.29973.173988.241879.204644-.395184.209404-.563224.0042-.84412.118053-1.14495.464041-.219248.252156-.513362.458466-.653584.458466-.140225 0-.540196.315732-.88883.701627l-.633882.701628-1.08378-.7868c-1.253127-.909742-1.456722-.898669-2.59262.141012l-.775291.709621h-1.92965-1.929652v-.605174c0-.710362.276178-1.045301.861914-1.045301.231983 0 .421788-.06823.421788-.151624 0-.08339-.249667-.114981-.554818-.0702-.677655.09946-1.095656.653533-1.095656 1.452328 0 .557269-.0886.643359-1.279125 1.242898-.703518.354286-1.322447.644156-1.375396.644156-.05295 0-.09627-.618928-.09627-1.375395zm6.39922-.526914c.281734-.339468.08357-.788295-.406013-.919599-.526808-.141287-2.034918-.141887-2.402181-.000951-.288457.110691-.40128.816673-.16782 1.050131.24235.242352 2.758255.132808 2.976014-.129578zm-2.234478-.298323c-.08382-.320547-.0056-.366772.620463-.366772.594118 0 .716373.06259.716373.366772 0 .294502-.122255.366772-.620461.366772-.466233 0-.644302-.09117-.716375-.366772zm6.838418-1.202832c0-.302601-.28983-.353725-.458466-.08087-.149551.24198.06973.585381.287753.450633.09389-.05803.170713-.224422.170713-.369763zm-3.239153-.631028c.05208 0 .125478.144416.1631.320925.0473.221895.100173.165373.17136-.18317.05663-.277253.0046-.638682-.115734-.803176-.190529-.2605658-.269908-.2008241-.61638.463896-.485263.930998-.501 1.165234-.04126.614143.189319-.22694.386833-.412618.438917-.412618zm-2.079041.183386c0-.203762-.122256-.366773-.275079-.366773-.151294 0-.276342-.144416-.277887-.320925-.0023-.2742623-.02865-.2809287-.180579-.04585-.259006.400786-.22244.737021.06803.625557.138278-.05306.300735.03205.361018.189142.152424.397211.304498.35668.304498-.08115zm.925531-.169469c.212288.343491.361246.14684.409426-.540515.02469-.352185.123819-.5450812.254495-.4952003.237434.090633.427795-.282208.427795-.8378839 0-.2044814-.08322-.3111632-.190848-.244647-.104963.064875-.13695.2966825-.07108.5151343.09376.3109676.07063.3505359-.106584.1822838-.124489-.1181966-.340072-.1712598-.479077-.1179193-.165436.063482-.252729-.03648-.252729-.28941 0-.4656123-.137076-.4851495-.581567-.08289-.38474.348185-.44411.7954825-.106131.7996225.165996.00202.159516.046965-.02351.1628828-.138997.088041-.19519.2531711-.124866.3669561.07032.113784.211394.155252.313496.09215.103338-.06387.16966.03643.149597.226241-.05449.515564.03683.754343.137733.360201.06994-.273115.122153-.293889.243834-.09701zm-.31011-.7902267c-.189825-.3071411.124938-.3957848.406302-.1144227.250337.2503364.249043.2794454-.01244.2794454-.160532 0-.337775-.07426-.393869-.1650227zm-.798809-.4923942c0-.1934752.05009-.4823085.111317-.6418514.06122-.1595426.02899-.2900774-.07163-.2900774-.100617 0-.21666.2888325-.257873.6418506-.04121.3530182-.009.6418514.07163.6418514.08061 0 .14656-.1582976.14656-.3517732zm-18.797065 4.2834179c-1.977017-1.485247-2.10894-1.690414-2.10894-3.279848v-1.3853405h1.841574 1.841575l-.05356 1.4212415-.05356 1.421242-1.421241.05356c-1.876608.07072-1.838769.404905.04585.404905h1.467089v1.100316c0 .760603-.07077 1.098808-.229233 1.095431-.126078-.0027-.724374-.376866-1.329548-.831507zm2.108939-.263923v-.916931h.727789c.554151 0 .703891.06228.627628.261015-.19398.505505 1.025739.823747 2.076997.541918.223601-.05995.456101-.265127.51667-.455961.101537-.319916.323151-.346972 2.842103-.346972 2.544295 0 2.745467.0252 2.928272.366772.114785.214479.383978.366772.648303.366772.379979 0 .452013.08767.452013.550158v.550158h-5.409888-5.409887zm23.134317.125041c-.21316-.256842.107142-.902563.676054-1.362898.322308-.260795 2.597216-.318138 2.597216-.06546 0 .211868-.462107.386392-1.023093.386392-.248632 0-.754593.281562-1.153389.641852-.802857.72533-.821302.73206-1.096788.40012zm-23.134317-2.600753v-1.3753953l3.438488-.036907c1.891169-.020302 2.807688-.064875 2.036709-.099057-1.209185-.053612-1.414691-.1115318-1.495766-.42156-.08153-.3117533-.256591-.3594083-1.320334-.3594083-1.072119 0-1.238408.046127-1.322259.3667725-.07143.2731453-.250143.3667718-.700087.3667718h-.604175l-.06214-1.1006505-.06214-1.10065 5.455734.0003298 5.455735.0003383v.6189287c0 .5347606-.07157.6332427-.526323.7241925-.316314.06326-.564494.2512414-.621993.4711162-.07745.2961872-.282781.3788075-1.078302.4338933-.699913.048462-.520954.077803.621996.101965l1.604627.03392v1.375395 1.375395h-5.409888-5.409887zm26.524657.91693c-.06689-.174313-.348386-.275079-.768446-.275079-.910754 0-.736932-.43982.204709-.517973.394344-.03273.773663-.151209.842929-.263287.169956-.274996.704054.167763.704054.583651 0 .63225-.778415 1.006467-.983246.472688zm-6.049038-2.4886918c-.287148-.5112458-.493455-.9578703-.458466-.9924996.220575-.2183084 2.964047-1.1809849 3.109474-1.0911069.20934.1293778.101995.5242662-.532523 1.9590474-.422229.9547519-.519765 1.0544519-1.031365 1.0542829-.488071-.000161-.636157-.126806-1.08712-.9297238zm1.519691-.389241c.361193-.645617.180431-.795124-.522101-.4318291-.353332.1827141-.567204.4346412-.567204.6681281 0 .5465615.741292.3857557 1.089305-.236299zm-26.029803-.2520489c0-.057258.763344-.4616039 1.696321-.8985394l1.69632-.7944274.05806.6427455c.100294 1.1101499.03161 1.154333-1.794478 1.154333-.910925 0-1.656228-.046847-1.656228-.1041117zm-16.13797-2.2730372c0-.097083.3551149-.6128569.7891441-1.1461619.7489275-.920231.8377125-.9724716 1.7421667-1.0250768l.9530238-.0554282v1.2015924 1.2015933h-1.7421677c-.9939858 0-1.7421669-.075806-1.7421669-.1765165zm2.7314992-.6254763c.4553672-.5486839-.2966478-1.2398884-.8006393-.7358971-.3379839.3379839-.3490598.4789318-.0603216.7676686.2900586.290058.6034663.2784926.8609625-.0317738zm1.1196071-.3441436.0916932-1.1461885 3.5301805-.0498071c3.341619-.047146 3.530181-.031523 3.530181.2925025 0 .1882702.150915.4788854.335366.6458112.302773.2740061 1.238439.3035015 9.627766.3035015h9.292401v.5423231.5423226l-9.811152.010821c-9.718855.010714-9.811153.00734-9.811153-.3589365 0-.4781327-.372183-.4803665-.497022-.00297-.09121.3487671-.250152.3667737-3.237934.3667984l-3.1420195.0000286zm26.9951107.1375135.054326-.7335439h3.759414 3.759414l.05649.6805555.05649.680556-3.870231.052989-3.870232.052989zm8.029531-.091693-.0896-.8252372h-4.148781c-3.243732 0-4.129569-.050008-4.060719-.2292324.06313-.1643217.664234-.2292325 2.122804-.2292325 2.027875 0 2.036725-.00194 2.622436-.5696165.561044-.5437849.655686-.5694343 2.08696-.5655889.824593.00222 1.537216.041982 1.583604.088372.04639.04639.05927.7754155.02861 1.6200584-.04254 1.1724077-.07692 1.340486-.145324.7104772zm-.548069-1.5587813c0-.1512933-.123785-.275079-.275079-.275079-.286371 0-.363833.2168901-.152819.4279006.211006.2110105.427898.133549.427898-.1528216zm-26.921069.9719462c-.317992-.3179924-.270234-.6968672.08784-.6968672.169348 0 .59543.1031546.94685.2292325.511156.1833858.654356.1833858.715999 0 .09195-.2735258.710896-.3060778.871729-.045849.06234.1008624.314778.1833858.560981.1833858s.447642-.082523.447642-.1833858c0-.3323593.683774-.1909477.940409.1944874l.2516.3778732.404951-.3778732c.477618-.4456811.889513-.4865207 1.036762-.1027942.137657.3587295.565539.3505687.933919-.017813.312651-.3126513.868704-.2239842.789479.125888-.08194.3618394.607616.3390318.924075-.030566.375362-.4383902.696834-.4492597.936518-.031668.175428.3056432.2115.3056432.757518 0 .723872-.4051999.910368-.4038587.910368.00658 0 .4385601.748246.4411086 1.064868.0036.291345-.4025542.692022-.4294269.83531-.056024.05805.1512933.305627.2750791.550158.2750791.244529 0 .492101-.1237858.550158-.2750791.132662-.3457121.667227-.3628479.667227-.021389 0 .4218394.721128.4947569.968923.097974.281775-.4511934.617105-.4479704.861282.00828.210109.3925921.671152.3339389 1.049315-.1334914.289053-.3572884.7882-.1559385.7882.3179508 0 .3695573-.07428.3725273-9.31601.3725273-7.001271 0-9.370689-.05468-9.536074-.2200633z" fill="#273839" stroke-width=".183386"/></svg>