<svg height="511.99997" viewBox="0 0 135.46666 135.46666" width="511.99997" xmlns="http://www.w3.org/2000/svg"><g fill="#273839" transform="matrix(1.3290483 0 0 1.329047 -34.249966 -166.296617)"><g><path d="m42.664057 178.09909-2.220608-7.08706 5.38616-3.96875-1.370163-4.77194-14.882813 13.4654c-.976089.82442-1.379709 1.5428-1.417411 2.64583l.04725 7.74851.661458.8977z"/><path d="m43.986974 177.1069 4.630208-2.92931c-.000332.92699.174009 1.82902.614212 2.69308.0089-4.55565 11.574393-4.77996 11.197545.23623 1.043651-1.12843.811074-7.86663 1.606399-11.76451l7.843007-5.10268c.291986 2.3878.456869 4.72477 1.039434 7.2288.318739-4.66617 11.616593-4.97629 11.433778.33073.865522-2.30748.862871-4.94053 1.27567-7.41779l7.79576 5.10268c.465618 3.76082.281319 7.88271 1.464656 11.2448.208843-4.32193 11.388857-4.73092 11.197547.33073.52603-.82776.66953-1.88504.75595-2.97657l4.8192 3.30729 1.55915-5.81138-5.48066-4.15774 1.93713-6.37835-30.852303-27.82849-31.230284 27.97024 2.031622 6.37834-5.433407 4.11049z"/><path d="m110.8041 178.16449 2.22061-7.08706-5.38616-3.96875 1.37016-4.77194 14.88282 13.4654c.97608.82442 1.3797 1.5428 1.41741 2.64583l-.0472 7.74851-.66146.8977z"/><ellipse cx="54.877411" cy="177.15416" rx="5.008185" ry="2.929315"/><ellipse cx="76.776405" cy="167.752" rx="5.008185" ry="2.929315"/><ellipse cx="98.51004" cy="177.15416" rx="5.008185" ry="2.929315"/></g><g fill-opacity=".51"><path d="m176.65039 286c-18.37793 3.47977-33.31078 44.50528-19.19336 70.71094l-.63086-17.04688 6.94531 20.70703c1.58885 7.11803 1.88524 14.03724-5.17773 19.82422 4.51093 4.11939 7.33612-.19275 9.84961-6.06054 1.72324 15.06459-5.92915 28.59098 8.33398 44.95312-1.18084-24.9665 4.16516-27.20873 12.5-41.66992 7.50747-12.67257 1.60807-27.58102 4.54493-30.42969 3.94118 3.8307 5.13773 11.54868 5.05078 21.08594 2.79403-4.07626 6.91984-76.20231-22.22266-82.07422zm-1.26172 2.9043c10.13254.81959 8.49022 23.51334 7.51172 29.16797l-2.83984-9.72266c-3.05104 11.45476-2.66781 24.32321 0 38.13281-7.92131-13.0899-9.76541-26.17963-10.35547-39.26953l-1.26172.63086c-1.90844-9.0164 1.19345-18.34096 6.94531-18.93945z" transform="matrix(.26458333 0 0 .26458333 7.843002 108.079)"/><path d="m76.878056 174.30883c-4.862494.92069-8.813477 11.77536-5.078243 18.70894l-.166915-4.51032 1.837613 5.47873c.420383 1.88331.498803 3.71402-1.369941 5.24516 1.193517 1.08992 1.941015-.051 2.606042-1.60352.455941 3.98584-1.568754 7.5647 2.205033 11.89385-.312431-6.60572 1.102031-7.19898 3.307291-11.02517 1.986352-3.35295.425469-7.29748 1.202513-8.05119 1.04277 1.01354 1.359358 3.05559 1.336352 5.57899.739254-1.07851 1.830874-20.16186-5.879745-21.71547zm-.33383.76843c2.680901.21685 2.24637 6.22124 1.987476 7.71736l-.751375-2.57245c-.807254 3.03073-.705858 6.43551 0 10.0893-2.095846-3.46337-2.583765-6.92669-2.739885-10.39006l-.33383.16691c-.504941-2.38559.315767-4.85271 1.837614-5.01106z"/><path d="m98.967533 183.59646c-4.862494.92069-8.813477 11.77536-5.078243 18.70894l-.166915-4.51032 1.837613 5.47873c.420383 1.88331.498803 3.71402-1.369941 5.24516 1.193517 1.08992 1.941015-.051 2.606042-1.60352.455941 3.98584-1.568754 7.5647 2.205033 11.89385-.312431-6.60572 1.102028-7.19898 3.307288-11.02517 1.98636-3.35295.42547-7.29748 1.20252-8.05119 1.04277 1.01354 1.35935 3.05559 1.33635 5.57899.73925-1.07851 1.83087-20.16186-5.879747-21.71547zm-.33383.76843c2.680897.21685 2.246367 6.22124 1.987477 7.71736l-.751376-2.57245c-.807254 3.03073-.705858 6.43551 0 10.0893-2.095846-3.46337-2.583765-6.92669-2.739885-10.39006l-.33383.16691c-.504941-2.38559.315767-4.85271 1.837614-5.01106z"/></g></g></svg>