<svg height="512" viewBox="0 0 135.46667 135.46667" width="512" xmlns="http://www.w3.org/2000/svg"><g fill="#273839" transform="matrix(1.5675944 0 0 1.6032042 -81.554409 -174.03655)"><path d="m423.03497 478.74898h-128.57013l-8.03712 9.64536v161.4274l8.39455 8.74961h128.2127l8.39433-8.74961v-161.4274zm-64.99981 3.0186c2.76142 0 5 2.23858 5 5s-2.23858 5-5 5-5-2.23858-5-5 2.23858-5 5-5zm36.68164 2.71289c12.97869 0 23.5 10.52131 23.5 23.5s-10.52131 23.5-23.5 23.5-23.5-10.52131-23.5-23.5 10.52131-23.5 23.5-23.5zm-72.35157.25195c12.97869 0 23.5 10.52131 23.5 23.5s-10.52131 23.5-23.5 23.5-23.5-10.52131-23.5-23.5 10.52131-23.5 23.5-23.5zm35.50782 44.01758h.0117c4.97056 0 9 4.02944 9 9s-4.02944 9-9 9-9-4.02944-9-9c0-4.96599 4.02229-8.99353 8.98828-9zm65.47461 4.77734c2.76142 0 5 2.23858 5 5s-2.23858 5-5 5-5-2.23858-5-5 2.23858-5 5-5zm-128.13086.01c2.76142 0 5 2.23858 5 5s-2.23858 5-5 5-5-2.23858-5-5 2.23858-5 5-5zm99.52539 11.17383h.002c.0749-.00036.14974-.00036.22461 0 12.97869 0 23.5 10.52131 23.5 23.5s-10.52131 23.5-23.5 23.5-23.5-10.52131-23.5-23.5c-.0006-12.89073 10.38331-23.37572 23.27344-23.5zm-72.50391.63086c12.97869 0 23.5 10.52131 23.5 23.5s-10.52131 23.5-23.5 23.5-23.5-10.52131-23.5-23.5 10.52131-23.5 23.5-23.5zm35.66211 45.37304h.01c4.97056 0 9 4.02944 9 9s-4.02944 9-9 9-9-4.02944-9-9c0-4.96675 4.02348-8.99461 8.99023-9zm65.56055 2.97071c2.76142 0 5 2.23858 5 5s-2.23858 5-5 5-5-2.23858-5-5 2.23858-5 5-5zm-128.38672.11328c2.76142 0 5 2.23858 5 5s-2.23858 5-5 5-5-2.23858-5-5 2.23858-5 5-5zm99.16406 11.90039c.0755-.00036.15104-.00036.22656 0 12.97869 0 23.5 10.52131 23.5 23.5s-10.52131 23.5-23.5 23.5-23.5-10.52131-23.5-23.5c-.0006-12.89073 10.38331-23.37572 23.27344-23.5zm-72.33789.14062c.0755-.00036.15104-.00036.22656 0 12.97869 0 23.5 10.52131 23.5 23.5s-10.52131 23.5-23.5 23.5-23.5-10.52131-23.5-23.5c-.0006-12.89073 10.38331-23.37572 23.27344-23.5zm35.98828 40.0586c.0228-.00015.0456-.00015.0684 0 2.76295-.00026 5.00313 2.14723 5.00391 4.79687.00035 2.65041-2.24016 4.79909-5.00391 4.79883-2.76375.00026-5.00426-2.14842-5.00391-4.79883.00052-2.62425 2.19933-4.76128 4.93555-4.79687z" transform="scale(.26458333)"/><path d="m110.14845 113.32228-2.83974 3.24064c-34.091898-10.528-56.397125 22.71211-44.989888 48.65992l2.929316-1.98437-.377976 9.87462-9.638392-3.30729 3.354538-2.12611c-3.956095-8.27575-4.413739-17.47756-2.315104-27.35603l-2.220611-1.98438c4.349183-14.24075 15.721162-22.89764 24.757441-27.02529l2.031622 1.84263c8.453623-3.1749 17.921734-3.8597 29.308794.16566z"/><path d="m79.373921 187.96716 2.923262-3.42439c33.492497 11.32784 59.508207-21.04216 45.712917-49.88883l-3.26341 2.45209.37798-9.87462 9.63839 3.30729-3.35454 2.12611c3.9561 8.27575 5.6212 18.18765 2.78758 28.86793l2.22061 1.98438c-4.34918 14.24075-15.72116 22.89764-24.75744 27.02529l-2.03162-1.84263c-8.45363 3.1749-20.756551 3.38723-30.253729-.73262z"/><path d="m285.36914 469.4707-8.46289 9.59571v179.30078l8.20898 9.97461h147.11133l8.95703-9.97461v-179.30078l-8.45898-9.59571zm6.05274 4.65625h134.98828l9.34375 10.9336v167.62695l-9.34375 9.8457-135.35938-.125-9.01953-9.7207v-167.62695z" transform="scale(.26458333)"/><g stroke-linecap="round" stroke-linejoin="round"><path d="m394.45508 610.58789a19.0665 19.0665 0 0 0 -19.06641 19.06641 19.0665 19.0665 0 0 0 19.06641 19.0664 19.0665 19.0665 0 0 0 19.0664-19.0664 19.0665 19.0665 0 0 0 -19.0664-19.06641zm.34375 11.00977a7.9999996 7.9999996 0 0 1 8 8 7.9999996 7.9999996 0 0 1 -8 8 7.9999996 7.9999996 0 0 1 -8-8 7.9999996 7.9999996 0 0 1 8-8zm.0156 3.94922a3.9999999 3.9999999 0 0 0 -3.93945 4 3.9999999 3.9999999 0 0 0 4 4 3.9999999 3.9999999 0 0 0 4-4 3.9999999 3.9999999 0 0 0 -4-4 3.9999999 3.9999999 0 0 0 -.0605 0z" stroke-width=".282867" transform="scale(.26458333)"/><path d="m85.292389 161.5979a5.0446781 5.0446781 0 0 0 -5.044654 5.04465 5.0446781 5.0446781 0 0 0 5.044654 5.04465 5.0446781 5.0446781 0 0 0 5.044652-5.04465 5.0446781 5.0446781 0 0 0 -5.044652-5.04465zm.09095 2.913a2.1166666 2.1166666 0 0 1 2.116667 2.11667 2.1166666 2.1166666 0 0 1 -2.116666 2.11666 2.1166666 2.1166666 0 0 1 -2.116667-2.11666 2.1166666 2.1166666 0 0 1 2.116666-2.11667zm.0041 1.0449a1.0583333 1.0583333 0 0 0 -1.042315 1.05833 1.0583333 1.0583333 0 0 0 1.058334 1.05833 1.0583333 1.0583333 0 0 0 1.058333-1.05833 1.0583333 1.0583333 0 0 0 -1.058333-1.05833 1.0583333 1.0583333 0 0 0 -.01601 0z" stroke-width=".074842"/><path d="m85.258981 145.39468a5.0446781 5.0446781 0 0 0 -5.044655 5.04465 5.0446781 5.0446781 0 0 0 5.044655 5.04465 5.0446781 5.0446781 0 0 0 5.044651-5.04465 5.0446781 5.0446781 0 0 0 -5.044651-5.04465zm.09095 2.913a2.1166666 2.1166666 0 0 1 2.116667 2.11667 2.1166666 2.1166666 0 0 1 -2.116667 2.11666 2.1166666 2.1166666 0 0 1 -2.116666-2.11666 2.1166666 2.1166666 0 0 1 2.116666-2.11667zm.0041 1.0449a1.0583333 1.0583333 0 0 0 -1.042315 1.05833 1.0583333 1.0583333 0 0 0 1.058333 1.05833 1.0583333 1.0583333 0 0 0 1.058334-1.05833 1.0583333 1.0583333 0 0 0 -1.058334-1.05833 1.0583333 1.0583333 0 0 0 -.01601 0z" stroke-width=".074842"/><path d="m104.40216 145.42809a5.0446781 5.0446781 0 0 0 -5.044654 5.04465 5.0446781 5.0446781 0 0 0 5.044654 5.04465 5.0446781 5.0446781 0 0 0 5.04465-5.04465 5.0446781 5.0446781 0 0 0 -5.04465-5.04465zm.091 2.913a2.1166666 2.1166666 0 0 1 2.11666 2.11667 2.1166666 2.1166666 0 0 1 -2.11666 2.11666 2.1166666 2.1166666 0 0 1 -2.11667-2.11666 2.1166666 2.1166666 0 0 1 2.11667-2.11667zm.004 1.0449a1.0583333 1.0583333 0 0 0 -1.04232 1.05833 1.0583333 1.0583333 0 0 0 1.05834 1.05833 1.0583333 1.0583333 0 0 0 1.05833-1.05833 1.0583333 1.0583333 0 0 0 -1.05833-1.05833 1.0583333 1.0583333 0 0 0 -.016 0z" stroke-width=".074842"/><path d="m104.40216 129.35851a5.0446781 5.0446781 0 0 0 -5.044654 5.04465 5.0446781 5.0446781 0 0 0 5.044654 5.04465 5.0446781 5.0446781 0 0 0 5.04465-5.04465 5.0446781 5.0446781 0 0 0 -5.04465-5.04465zm.091 2.913a2.1166666 2.1166666 0 0 1 2.11666 2.11666 2.1166666 2.1166666 0 0 1 -2.11666 2.11667 2.1166666 2.1166666 0 0 1 -2.11667-2.11667 2.1166666 2.1166666 0 0 1 2.11667-2.11666zm.004 1.0449a1.0583333 1.0583333 0 0 0 -1.04232 1.05833 1.0583333 1.0583333 0 0 0 1.05834 1.05833 1.0583333 1.0583333 0 0 0 1.05833-1.05833 1.0583333 1.0583333 0 0 0 -1.05833-1.05833 1.0583333 1.0583333 0 0 0 -.016 0z" stroke-width=".074842"/><path d="m85.225572 129.42533a5.0446781 5.0446781 0 0 0 -5.044654 5.04466 5.0446781 5.0446781 0 0 0 5.044654 5.04465 5.0446781 5.0446781 0 0 0 5.044652-5.04465 5.0446781 5.0446781 0 0 0 -5.044652-5.04466zm.09095 2.913a2.1166666 2.1166666 0 0 1 2.116668 2.11667 2.1166666 2.1166666 0 0 1 -2.116667 2.11667 2.1166666 2.1166666 0 0 1 -2.116667-2.11667 2.1166666 2.1166666 0 0 1 2.116666-2.11667zm.0041 1.0449a1.0583333 1.0583333 0 0 0 -1.042314 1.05833 1.0583333 1.0583333 0 0 0 1.058333 1.05834 1.0583333 1.0583333 0 0 0 1.058333-1.05834 1.0583333 1.0583333 0 0 0 -1.058333-1.05833 1.0583333 1.0583333 0 0 0 -.01601 0z" stroke-width=".074842"/></g></g></svg>