<svg height="512" viewBox="0 0 135.46667 135.46667" width="512" xmlns="http://www.w3.org/2000/svg"><g fill="#273839" transform="matrix(1.3656406 0 0 1.3656406 -109.413702 -167.23076)"><path d="m123.97088 180.31612c-1.28283 5.1071-2.20604 10.33407-5.0113 14.93369l-12.46145-17.97388 8.48581 22.75132-1.40316.0334-31.136904-32.40643 23.452904 33.60914-1.5368.3675-14.532783-6.01357 9.187389 7.55037c-12.007294 5.58586 9.210574 10.41996 30.034414 10.32328 27.80493-.47958 41.4112-5.59511 31.33735-10.25647l9.12057-7.55036-14.29892 5.94675-1.83747-.50114 23.61994-33.40869-31.00327 32.37302-1.67043-.13363 8.4524-22.2836-12.32781 17.84024c-3.06578-5.34443-3.87943-10.25989-5.17834-15.26777-1.4507.2727-2.9049.54307-4.87767.46772 1.79168 6.75127 3.58992 17.18461 9.42125 22.51746 20.84347 2.93021 10.58245 7.35382-4.2095 8.15172-4.9324-5.24303-5.33592-11.12604-6.38106-17.27229-1.08097 6.09505-1.39609 12.4512-6.21401 17.27229-21.17038-1.2929-21.22032-6.56928-3.24065-8.21853 5.4428-4.79125 7.00588-14.09137 9.32103-22.51746-2.14614.16507-3.66779-.0602-5.11153-.33408z"/><path d="m125.11011 173.9886c2.86799.56115 5.95497.35582 9.07143.0473-1.38118-7.90757-2.22377-15.66826-2.22061-23.19829l8.26823 10.20535-10.58333-30.42708-10.72508 30.61607 8.36273-10.53608c-.0633 7.43367-1.12823 15.36815-2.17337 23.29273z"/><path d="m122.41074 167.75487-.0116.805c-12.54926 1.1555-18.51168 6.17986 7.09536 7.28247 14.19082.30059 29.94824-4.4894 7.54528-7.28247l.0607-.805c6.80342.12718 16.16022 2.29711 16.2763 5.178.0896 2.22403-6.82316 5.38381-23.84884 5.18921-12.89886-.0722-23.43347-2.36977-23.45116-5.18921.54714-4.42842 15.03936-5.11897 16.334-5.178z" fill-opacity=".506024"/></g></svg>