<svg height="512" viewBox="0 0 512 512" width="512" xmlns="http://www.w3.org/2000/svg"><g transform="matrix(13.707881 0 0 13.707881 2.404483 1.033417)"><path d="m34.4 15.8v-3.8c0-1.3-.9-2.4-2-2.4h-.5c-.3 0-.5.3-.5.6v2.2h-1v-3c0-.7-.5-1.3-1.1-1.3h-.2v3.8h-2.1v-3.7c-.6 0-1.1.6-1.1 1.3v3h-1.3v-2.2c0-.4-.2-.6-.6-.6h-11.2c-.3 0-.6.3-.6.6v2.2h-1.3v-3c0-.7-.5-1.3-1.1-1.3h-.1v3.8h-2.2v-3.8h-.1c-.6 0-1.1.6-1.1 1.3v3h-1v-2.2c0-.3-.2-.6-.5-.6h-.2c-1.1 0-2 1.1-2 2.4v3.9h4.2v9.9h-4.2v3.9c0 1.3.9 2.4 2 2.4h.3c.3 0 .5-.3.5-.6v-2h1v2.8c0 .7.5 1.3 1.1 1.3h.1v-3.6h2.1v3.6h.1c.6 0 1.1-.6 1.1-1.3v-2.8h1.3v2c0 .4.2.6.6.6h11.2c.3 0 .6-.3.6-.6v-2h1.3v2.8c0 .7.5 1.3 1.1 1.3v-3.6h2.1v3.6h.2c.6 0 1.1-.6 1.1-1.3v-2.8h1v2c0 .3.2.6.5.6h.5c1.1 0 2-1.1 2-2.4v-3.9h-4.2v-9.9h4.2z" fill="#ce3535"/><path d="m18.5 13.7h-1.4c-.2 0-.4.2-.4.4v5.1h-5.1c-.2 0-.4.2-.4.4v1.4c0 4.1 3.3 7.4 7.4 7.4h1.4c.2 0 .4-.2.4-.4v-5h5.1c.2 0 .4-.2.4-.4v-1.4c0-4.1-3.3-7.5-7.4-7.5zm-1.8 10.4v3.3c-2.1-.6-3.8-2.3-4.4-4.4h3.2l4.9-4.9v-3.2c2.1.6 3.8 2.3 4.4 4.4h-3.3z" fill="#fff"/><path d="m.7 16.7v1.2c0 .1.1.2.3.2h1.1c.3 0 .5.2.5.5v.6h-1.5v3.1h1.4v.7c0 .2-.2.5-.5.5h-1c-.1 0-.3.1-.3.2v1.2h5.1v-8.2z" fill="#ce3535"/><path d="m34.9 18.2h1.1c.1 0 .3-.1.3-.2v-1.2h-5.1v8.2h5.1v-1.2c0-.1-.1-.2-.3-.2h-1.1c-.3 0-.5-.2-.5-.5v-.6h1.4v-3.1h-1.4v-.6c0-.4.3-.6.5-.6z" fill="#ce3535"/><path d="m28.6 6.9h-1.2c0-2.1-1.8-2.1-2-2.1h-14c-.2 0-2 .1-2 2.1h-1.2c0-1 .3-1.8.9-2.4 1-.9 2.3-.9 2.4-1h14c.1 0 1.4 0 2.3.9.5.7.8 1.5.8 2.5z" fill="#273839"/></g></svg>