<svg height="512" viewBox="0 0 512 512" width="512" xmlns="http://www.w3.org/2000/svg"><g transform="matrix(2.6045102 0 0 2.6045102 -55.084166 -211.12556)"><path d="m77.221002 136.655 7.216832 6.66533v45.54347l-7.216832 7.57007-.571731 11.84775 3.270369 4.39456 80.12404-.91979 1.60732-4.60755v-10.20397l-10.60084-8.48986-.51099-43.63899 11.11183-8.16102-.00009-19.377h-7.98853l-5.12592-4.842h-12.53255l-5.61565 4.842h-23.57926l-5.42033-4.842h-13.582184l-5.022485 4.996h-5.56267z" stroke="#000"/><g transform="matrix(5.1474603 0 0 5.1474603 23.697802 84.12454)"><g fill="#273839"><path d="m26.430597 12.2v7.8l1.269315 1.1v-10.2z" stroke-width=".890711"/><path d="m10.707037 19.9c0-2.6 0-5.2 0-7.8l-1.307037-1.1v10.2l1.307037-1.3c0 .1 0 .1 0 0z" stroke-width=".933465"/><path d="m23.8 3.8h-10.6c-2.1 0-3.8 1.7-3.8 3.8v1.7000154l.997982.9051066.000064-3.7344631h1.080663l.975721-.9705757h2.638619l1.05301.9406581h4.580757l1.090954-.9406581h2.434706l.995815.9406581h1.551937l.000017 3.7643807.899755-.9051066-.000088-1.7000154c-.000108-2.1-1.799912-3.8-3.899912-3.8z"/><path d="m26.800245 23.9c0 .3-.28622.6-.784763.6h-14.713296c-.735212 0-.904204-.211503-.904204-.6v-2.081603l-1.097982.981603v1.4c0 1.47796.6426233 2.2 2.2 2.2h14.564389c1.348907 0 1.635523-.762199 1.635523-2.2v-1.4l-.899667-.882332z"/><path d="m22 .8c-.3-.3-.7-.5-1.1-.5h-2.4-2.4c-.4 0-.8.2-1.1.5-.5.7-1.6 1.7-2.9 1.7v.5h6.3 6.3v-.5c-1.1 0-2.2-1-2.7-1.7zm-6.3 1.4.8-.7h4l.8.7z"/><path d="m11.2 27.3v3.9c0 .2.2.4.4.4h13.8c.2 0 .4-.2.4-.4v-3.9zm1.5 3.5c-.3 0-.5-.2-.5-.5s.2-.5.5-.5.5.2.5.5c0 .2-.2.5-.5.5zm0-1.8c-.3 0-.5-.2-.5-.5s.2-.5.5-.5.5.2.5.5-.2.5-.5.5zm1.4.9c-.3 0-.5-.2-.5-.5s.2-.5.5-.5.5.2.5.5-.2.5-.5.5zm1.5.9c-.3 0-.5-.2-.5-.5s.2-.5.5-.5.5.2.5.5c0 .2-.2.5-.5.5zm0-1.8c-.3 0-.5-.2-.5-.5s.2-.5.5-.5.5.2.5.5-.2.5-.5.5zm1.4.9c-.3 0-.5-.2-.5-.5s.2-.5.5-.5.5.2.5.5-.2.5-.5.5zm1.5.9c-.3 0-.5-.2-.5-.5s.2-.5.5-.5.5.2.5.5c0 .2-.2.5-.5.5zm0-1.8c-.3 0-.5-.2-.5-.5s.2-.5.5-.5.5.2.5.5-.2.5-.5.5zm1.5.9c-.3 0-.5-.2-.5-.5s.2-.5.5-.5.5.2.5.5c-.1.3-.3.5-.5.5zm1.4.9c-.3 0-.5-.2-.5-.5s.2-.5.5-.5.5.2.5.5c0 .2-.3.5-.5.5zm0-1.8c-.3 0-.5-.2-.5-.5s.2-.5.5-.5.5.2.5.5-.3.5-.5.5zm1.5.9c-.3 0-.5-.2-.5-.5s.2-.5.5-.5.5.2.5.5-.3.5-.5.5zm1.4.9c-.3 0-.5-.2-.5-.5s.2-.5.5-.5.5.2.5.5c-.1.2-.3.5-.5.5zm0-1.8c-.3 0-.5-.2-.5-.5s.2-.5.5-.5.5.2.5.5-.3.5-.5.5z"/><path d="m25.8 35-1.1 1.7h1.1c1 0 1.7-.7 1.8-1.7z"/><path d="m15.6 36.699944 5.9.000056-1.1-1.7h-3.7z"/><path d="m11.2 35h-1.8c.1.9.8 1.7 1.8 1.7l1.1-.000056z"/></g><path d="m27.7 33.7-1.5-1.5h-.3c-.3.5-.7.8-1.3.8h-12c-.6 0-1.1-.3-1.3-.8h-.3l-1.5 1.5v.5h2l1.1 1.8c.3.4.7.7 1.2.7h.3.3c.5 0 1-.3 1.2-.7l1.1-1.8h4l1.1 1.8c.3.4.7.7 1.2.7h.6c.5 0 1-.3 1.2-.7l1.1-1.8h2v-.5z" fill="#fe7e00"/><path d="m18.5 20.3-2.7-2.1v-4.2h5.3v4.2zm-2.3-2.2 2.3 1.8 2.3-1.8v-3.7h-4.6z" fill="#fe7e00"/><path d="m17.9 18.9.3-1.5-.7.2.2-2.8h-1.1v3.1z" fill="#fff"/><path d="m19.9 16.2-1.8 2.8.4.4 1.9-1.5v-3.1h-.9l-.6 1.7z" fill="#fff"/><path d="m19.6 21.4-1.1-.8-1.1.8 1.1 1.8z" fill="#fff"/><path d="m14.9 21.4 1.8-1.4-1.2 1.4h.8l1.6-1.1-2.1-1.6-1.7 2.7z" fill="#fff"/><path d="m22 21.5-1.8-1.5 1.3 1.5h-.9l-1.5-1.1 2.1-1.6 1.6 2.7z" fill="#fff"/><path d="m12.5 15.1 2.9 3v-5.3l-4-3.3.2.9 2.5 2.5-2.3-1.4.1.5 2.2 2.2-2-1.2.1.5 1.9 1.8-1.7-.9z" fill="#fff"/><path d="m24.012126 15.1-2.412126 3v-5.3l3.412126-3.3-.1.9-2.012126 2.5 1.812126-1.4-.1.5-1.712126 2.2 1.512126-1.2-.1.5-1.412126 1.8 1.212126-.9z" fill="#fff"/><path d="m19.9 11.1 1.3-.2-.3-.5-1-.1-.3-.4-3.1-.5.9 1.1-.4 1.4-1.1.4v1.4h5.3v-1.4l-1-.4zm-1.2-.7-.2-.4.7.1z" fill="#fff"/></g></g></svg>