<svg height="512" viewBox="0 0 512 512" width="512" xmlns="http://www.w3.org/2000/svg"><g transform="matrix(18.769231 0 0 18.769231 -91.230771 -91.230771)"><g fill="#273839"><path d="m26.1 17.3v7.7.1l1.5 1.1v-10.1l-1.5 1.2c0-.1 0 0 0 0z"/><path d="m25.3 26.2c-.4-.3-.6-.7-.6-1.2v-7.7c0-.5.2-.9.6-1.2l2.3-1.7v-1.7c0-2.1-1.7-3.8-3.8-3.8h-10.6c-2.1 0-3.8 1.7-3.8 3.8v1.7l2.3 1.7c.4.3.6.7.6 1.2v7.7c0 .5-.2.9-.6 1.2l-2.3 1.7v1.4c0 1.2 1 2.2 2.2 2.2h13.8c1.2 0 2.2-1 2.2-2.2v-1.4z"/><path d="m10.9 25.1v-7.7-.1l-1.5-1.1v10.2z"/></g><path d="m25.3 26.2c-.4-.3-.6-.7-.6-1.2v-7.7c0-.5.2-.9.6-1.2l.7-.5v-3.8c0-.7-.5-1.2-1.2-1.2h-12.6c-.7 0-1.2.5-1.2 1.2v3.8l.7.5c.4.3.6.7.6 1.2v7.7c0 .5-.2.9-.6 1.2l-.7.5v2.3c0 .3.3.6.6.6h13.8c.3 0 .6-.3.6-.6v-2.3z" fill="#274ba6"/><path d="m18.5 27.6-5.3-4.1v-8.4h10.5v8.4zm-4.5-4.4 4.5 3.5 4.5-3.5v-7.3h-9.1v7.3z" fill="#fff"/><path d="m17.3 24.8.5-3.1-1.3.5.5-5.6h-2.3v6.2z" fill="#fff"/><path d="m22.3 22.8v-6.2h-1.9l-1 3.5 1.8-.6-3.6 5.5.9.7z" fill="#fff"/><path d="m22 6c-.3-.3-.7-.5-1.1-.5h-2.4-2.4c-.4 0-.8.2-1.1.5-.5.7-1.6 1.7-2.9 1.7v.5h6.3 6.3v-.5c-1.1 0-2.2-1.1-2.7-1.7zm-6.3 1.3.8-.7h4l.8.7z" fill="#273839"/></g></svg>