<svg height="512" viewBox="0 0 512 512" width="512" xmlns="http://www.w3.org/2000/svg"><g transform="matrix(13.574409 0 0 13.574407 5.552156 5.552189)"><g fill="#fff" stroke="#241c1c" stroke-miterlimit="10" stroke-width=".25"><path d="m30.5 23.7v-10.4h4.3v-2.6c0-1.1-.9-2.1-2.1-2.1h-.5c-.3 0-.5.2-.5.5v2h-1v-2.6c0-.6-.5-1.1-1.1-1.1h-2.4c-.6 0-1.1.5-1.1 1.1v2.6h-1v-1.9c0-.3-.3-.6-.6-.6h-12.2c-.3 0-.6.3-.6.6v1.9h-1v-2.6c-0-.6-.5-1.1-1.1-1.1h-2.4c-.7 0-1.2.5-1.2 1.1v2.6h-1v-2c0-.3-.2-.5-.5-.5h-.3c-1.1 0-2.1.9-2.1 2.1v2.6h4.3v10.3h-4.2v2.6c0 1.1.9 2.1 2.1 2.1h.3c.3 0 .5-.2.5-.5v-1.8h1v2.4c0 .6.5 1.1 1.1 1.1h2.4c.6 0 1.1-.5 1.1-1.1v-2.4h1v1.7c0 .3.3.6.6.6h12.2c.3 0 .6-.3.6-.6v-1.7h1v2.4c0 .6.5 1.1 1.1 1.1h2.4c.6 0 1.1-.5 1.1-1.1v-2.4h1v1.8c0 .3.2.5.5.5h.5c1.1 0 2.1-.9 2.1-2.1v-2.6h-4.3z"/><path d="m36.3 14v1.3c0 .1-.1.3-.3.3h-1.1c-.3 0-.5.2-.5.5v4.8c0 .3.2.5.5.5h1.1c.1 0 .3.1.3.3v1.3h-5.1v-9z"/><path d="m.7 14v1.3c0 .1.1.3.3.3h1.1c.3 0 .5.2.5.5v4.8c0 .3-.2.5-.5.5h-1.2c-.1 0-.3.1-.3.3v1.3h5.1v-9z"/></g><path d="m18.5 12.7h-1.1c-.2 0-.3.2-.3.3v4h-4c-.2 0-.3.2-.3.3v1.1c0 3.2 2.6 5.8 5.8 5.8h1.1c.2 0 .3-.2.3-.3v-4h4c.2 0 .3-.2.3-.3v-1.1c0-3.2-2.6-5.8-5.8-5.8zm-1.4 8.1v2.6c-1.7-.5-3-1.8-3.5-3.5h2.5l3.8-3.8v-2.5c1.7.5 3 1.8 3.5 3.5h-2.6z" fill="#ce3535"/></g></svg>