<svg height="512" viewBox="0 0 135.46666 135.46667" width="512" xmlns="http://www.w3.org/2000/svg"><g fill="#273839" stroke-width=".352778" transform="matrix(1.2356559 0 0 1.2356559 -25.379918 -65.95897)"><path d="m-4.1676923 139.00263c-13.9984557-3.27094-25.5376047-10.91077-33.9163257-22.45529-1.427896-1.96741-2.801953-3.85762-3.05346-4.20049-.483615-.65927.06471-1.53321 4.868312-7.7594 5.115551-6.630516 11.946965-12.074796 19.885388-15.847606 2.628713-1.24932 10.1111877-4.0241 10.2982897-3.81899.40301.4418 1.166813 2.91031.955753 3.08887-.149973.12687-1.304555.52893-2.565735.89346-2.4609457.7113-7.5092127 2.80404-9.5249997 3.94855-4.181203 2.37397-6.464991 3.89538-8.341657 5.55703-2.488281 2.203186-6.197021 6.140436-7.799926 8.280506-1.09606 1.46337-2.46498 3.17339-3.042043 3.80003-1.040055 1.12942-1.043101 1.1448-.349167 1.76389.385022.34349 1.478765 1.73578 2.43054 3.09398 2.761055 3.94006 8.990228 9.94212 13.045309 12.56969 5.822874 3.77305 12.8708617 6.70299 18.8736097 7.84601l2.29305597.43664.106631 1.83285c.123475 2.12243.445805 2.04732-4.16357497.97027zm25.4697543-.98663.10663-1.84923 1.5875-.24796c2.9967-.46808 6.36703-1.50455 10.78485-3.31665 2.58115-1.05873 7.44184-3.61559 8.40788-4.42279.21254-.17759 1.57707-1.1925 3.03227-2.25535 3.301401-2.41127 6.919511-5.97161 8.895371-8.75331.83137-1.17044 2.10689-2.79168 2.83449-3.60276.72761-.81108 1.32292-1.6773 1.32292-1.92495 0-.24764-.59531-1.11387-1.32292-1.92495-.7276-.81108-1.99409-2.41633-2.81442-3.56723-5.21713-7.319436-15.395351-14.365516-24.790441-17.161666-1.26118-.37536-3.19311-.94835-4.29319-1.27333-1.98284-.58576-1.99591-.5985-1.51181-1.47282.26859-.48507.49396-1.14977.50084-1.47712.0168-.80054 1.50902-.5642 6.53889 1.03563 3.5123 1.11714 11.73651 4.7317 12.17083 5.34912.097.13791 1.14928.83613 2.33837 1.55161 2.487021 1.49643 7.271051 5.5364 9.809231 8.283586 2.31687 2.50765 5.13851 6.04038 5.13851 6.43348 0 .17362.71438 1.19274 1.5875 2.2647.87313 1.07196 1.5875 2.03289 1.5875 2.13538 0 .1025-.67469 1.04833-1.49931 2.10185-.82461 1.05353-2.1343 2.82467-2.91041 3.93587-1.83517 2.62751-7.09818 7.99915-10.23056 10.44172-4.746611 3.70132-10.585621 6.86042-16.404161 8.8752-2.42569.83994-9.71658 2.69119-10.59887 2.69119-.22962 0-.33293-.71424-.26749-1.84922zm-.0697-12.58211c0-3.48933.0885-4.01863.94978-5.67867 1.11218-2.14367 1.24471-4.5282.34697-6.24262-.85833-1.63915-.79832-6.08621.11453-8.48797.38796-1.02072.70538-2.24356.70538-2.71742 0-.91711-.67644-2.697516-1.15595-3.042506-.4415-.31765-.14521-5.35858.32407-5.51364.22156-.0732 1.38736.7784 2.59067 1.89244 3.62878 3.35962 5.59323 7.042396 6.70482 12.569666 1.0893 5.41642-1.35449 12.80913-5.77977 17.48444-1.33354 1.40888-4.12509 3.58428-4.59948 3.58428-.11057 0-.20102-1.7316-.20102-3.848zm-24.1363763 1.32704c-3.772199-3.45654-5.740814-6.9481-6.763681-11.99615-1.3038337-6.43469.994105-13.71379 5.82368-18.447466l1.779073-1.74375.888926.8351.88892897.83511v7.808576c0 6.31965-.09876 7.93915-.517948 8.49336-.28486797.37664-.52299297.95938-.52916697 1.29498-.0063.34289-.59074.90737-1.334135 1.28859-2.425785 1.24394-3.616491 3.09507-3.615425 5.62072.0011 2.78486 2.482963 5.33732 5.202925 5.35109 1.10146397.006 1.14652797.0613 1.14652797 1.41691 0 .77611-.135791 1.41111-.301759 1.41111-.165964 0-1.36654097-.97568-2.66794597-2.16818zm-12.3896187-3.75563c-3.238983-1.82094-7.726027-5.18177-10.295201-7.71119-1.606261-1.58141-2.919881-3.01016-2.919156-3.175.0069-1.56394 6.655016-8.30735 11.004481-11.16218 1.687565-1.107656 3.143835-2.013926 3.236156-2.013926.09232 0-.0565.44973-.330707.99939-2.011844 4.032836-2.754224 12.550866-1.534772 17.609906.385882 1.60088 1.007769 3.62494 1.381971 4.49791.374202.87298.646321 1.58058.60471 1.57245-.04161-.008-.557979-.28595-1.147482-.61736zm51.342655.44881c0-.11448.30101-.87413.6689-1.6881.98414-2.17741 1.87199-7.02582 1.88164-10.27538.01-3.26308-.80551-7.98143-1.8536-10.72866-.39557-1.036856-.59515-1.826746-.4435-1.755316 4.2218 1.988536 12.986931 9.958906 13.955061 12.689716.24924.70304-3.19169 4.38238-6.094611 6.51689-4.90195 3.60439-8.11389 5.67902-8.11389 5.24085z" fill-opacity=".501961" transform="translate(64.388672 -2.320313)"/><path d="m74.813918 157.68196c-2.11971-1.29254-3.93968-4.40199-5.1362-8.77531-.68185-2.49217-.75648-3.85829-.89573-16.39692l-.15192-13.67824-2.17607.045c-3.66538.0759-3.76358.0539-3.76358-.84047 0-.75027.70077-1.26368 3.61597-2.64919.14552-.0692.26459.37676.26459.99094v1.11668l2.55763-.21384c6.07363-.50781 8.89634-.58302 9.58665-.25545.40266.19108 1.00992.4362 1.34947.54472.57526.18385.61786 1.2385.62475 15.46602l.007 15.26871-1.85606 5.02708c-1.26699 3.4316-2.02509 5.02666-2.38864 5.02576-.29292-.0007-1.03013-.30471-1.63825-.67552zm.99904-8.2308c.0995-1.72744.17192-1.85959 1.07677-1.96371l.97013-.11162v-13.20574-13.20573h-1.05833-1.05833v11.81805 11.81806h-.87719-.87719l-.093-11.72986-.093-11.72986-1.15085-.11087-1.15084-.11087.0925 13.16365.0925 13.16364.97014.11163c.90705.10437.97014.22099.97014 1.79329 0 1.90629.1456 2.15203 1.27508 2.15203.72204 0 .81567-.19028.91135-1.85209zm-8.53638-35.49478c0-.82936.27641-1.71493.70556-2.26051.66572-.84633.70555-1.43114.70555-10.36014v-9.463173l-2.48144-2.29924-2.48144-2.29924 2.82654-5.64444c1.55459-3.10445 2.82999-5.812223 2.83422-6.017273.004-.20505-1.06388-.8937-2.37357-1.53034s-2.8817-1.58012-3.49337-2.09662l-1.11212-.93911 1.81768-2.53934c1.62053-2.26394 6.75598-9.57545 7.33309-10.44038.12647-.18954 1.93529.45023 4.16035 1.4715 2.16513.99376 4.02085 1.80684 4.12382 1.80684s1.24399.89652 2.5356 1.99227c1.29161 1.09576 2.87838 2.21373 3.52615 2.48438.64778.27066 1.10762.68382 1.02187.91814-.0858.23432.16169.77539.54987 1.20237l.70578.77632-.73072 1.23848c-.52484.88953-.67441 1.58547-.53087 2.47002.17246 1.06275.00036 1.48193-1.25468 3.05836-1.30171 1.63488-1.45454 2.02828-1.45454 3.744213 0 2.35405-.45239 3.28211-1.59991 3.28211-.77343 0-.86953.14992-.86953 1.35644 0 .90841.23304 1.56733.70556 1.99495.3906.35349.70555 1.08654.70555 1.64218 0 .55201-.3175 1.32115-.70555 1.70921-.62264.62263-.70556 1.17593-.70556 4.70782 0 3.55425.079 4.07375.70556 4.64079.90198.81629.90198 2.300963 0 3.447653-.61004.77554-.70556 1.43114-.70556 4.84263 0 3.41148.0955 4.06709.70556 4.84262.42915.54558.70555 1.43115.70555 2.26051v1.36353h-2.09584c-1.15272 0-2.19397-.15875-2.31388-.35277-.12028-.19463-1.70182-.35278-3.52778-.35278s-3.40749.15815-3.52778.35278c-.11991.19402-1.16116.35277-2.31387.35277h-2.09585zm11.08365-2.37838c.47163-.18098.55802-.96967.55802-5.09445 0-2.68418-.12651-4.95851-.28113-5.05407-.15462-.0956-1.74739 1.08569-3.53949 2.62501s-3.49122 2.79876-3.77582 2.79876c-.68208 0-.75412 4.43181-.0765 4.70525.637.25703 6.45435.27298 7.1149.0195zm.55802-17.259432c0-3.33942-.0974-4.1054-.54386-4.27672-.82691-.31731-5.25651 1.41918-5.39123 2.11347-.12684.65368 4.77715 6.2076 5.49412 6.22225.3278.007.44097-1.03497.44097-4.059zm-4.58611-5.21572 2.29305-.77044-1.85208-.10663c-1.01865-.0586-2.66133-.0586-3.65041 0l-1.79832.10663.78246.99159c.51635.65434.97799.91637 1.35735.77044.31619-.12163 1.60677-.56785 2.86795-.99159zm4.51611-5.4971c.0585-1.24148-.0314-2.395031-.19985-2.56345-.17311-.17312-1.98281.692229-4.16333 1.99079-2.1214 1.26336-3.97616 2.29785-4.12168 2.29887-.14552.001-.26459.16548-.26459.36548 0 .23526 1.52561.32867 4.32153.26458l4.32153-.0991zm-6.1848-2.72353c3.12692-1.93572 6.2548-4.151133 6.2548-4.430133 0-.33497-2.61861-.38272-3.78878-.0691-.43459.11647-1.58552 1.28466-2.55763 2.595973-2.36488 3.19004-2.35395 3.41718.0916 1.90325zm-8.99612 1.78388-.96342-.52279 1.29317-2.61345 1.29317-2.613443.99317.51358c.54624.28248.99316.665263.99316.850633 0 .47581-2.22801 4.9395-2.45696 4.92238-.10388-.008-.62241-.24938-1.15229-.53691z"/></g></svg>