<svg height="512" viewBox="0 0 135.46666 135.46667" width="512" xmlns="http://www.w3.org/2000/svg"><g fill="#273839" transform="matrix(1.5910825 0 0 1.5910825 -13.495654 -32.870719)"><g transform="matrix(.62856048 0 0 .62856048 8.474445 20.579645)"><path d="m70.492907 126.713c-3.941604-.73166-9.436277-2.4535-12.812639-4.01506-2.095157-.969-2.31571-1.25382-3.024025-3.90524-.211927-.79331-.902564-2.12668-1.534749-2.96305-.632181-.83637-1.30665-1.73399-1.498819-1.9947-.256543-.34806-.0097-.81371.928748-1.75218l1.278142-1.27815 1.821727 1.44c2.878324 2.27518 5.542929 2.71624 9.022168 1.49338 1.05822-.37193 2.388447-1.00693 2.956062-1.41111 1.352949-.96338 2.032738-.92852 2.295324.11771.344643 1.37316 2.799705 1.76844 11.151394 1.79541 3.977569.0128 7.470069.15782 7.761111.32216s2.716685 1.65783 5.390321 3.31889c6.711198 4.16948 6.813138 5.00129.867396 7.07821-7.412228 2.58918-16.580527 3.24273-24.602161 1.75373zm6.994264-1.71729c.604072-.50345.759569-.89604.589195-1.48757-.508335-1.76492-2.110147-5.75513-2.389678-5.95284-.569842-.40305-7.757735-1.42349-8.007526-1.13681-1.644982 1.88793-3.889033 4.80363-3.889033 5.05303 0 .17482.175271.70254.389488 1.1727.597175 1.31065 6.392132 2.85512 11.252179 2.99891.748774.0221 1.557704-.23265 2.055375-.64742zm5.480533-.17452c.327148-.85254-.140229-1.5875-1.00952-1.5875-.94132 0-1.424583.93366-.844835 1.63222.533731.6431 1.600281.61738 1.854355-.0447zm5.685613-.8989c1.35399-.19567 3.060552-.53515 3.792362-.75441 1.231212-.36888 1.330561-.49734 1.330561-1.7204 0-1.19905-.151666-1.41062-1.63376-2.27919-1.470113-.86154-1.765737-.91791-2.951346-.56269-1.896787.56829-2.398307.49897-3.361976-.4647-.818546-.81854-1.009015-.84976-4.001664-.65588l-3.142209.20358.815245 1.75962c.740812 1.59897.931224 1.76667 2.085551 1.83675 1.327722.0806 2.842211 1.19208 3.212035 2.3573.236615.7455.501174.76472 3.855201.28002zm8.765117-1.88903c.317701-.82791-.594787-1.74081-1.464215-1.46486-.72971.2316-1.034859 1.22138-.531682 1.72455.424865.42487 1.801964.24569 1.995897-.25969zm-37.730909-2.05419c.252811-.40079.22171-.73044-.106186-1.12553-.624819-.75286-1.333056-.70406-1.775319.12232-.27643.51651-.226921.81863.204921 1.25047.648067.64806 1.159394.57266 1.676584-.24726zm28.743564-2.70208c.799077-.5064.32483-1.61636-.743282-1.73965-.816649-.0943-.967123.0201-.967123.73496 0 1.28366.659197 1.67087 1.710405 1.00469zm-19.764739-2.61511c.189724-.99515-.585152-1.71447-1.385488-1.28614-.664306.35553-.896804 1.39818-.418444 1.87654.455598.4556 1.680975.0546 1.803932-.5904zm-13.550458-.70298c.469914-.74497-.518319-1.86438-1.360576-1.54117-.908011.34844-1.095015 1.33516-.355523 1.8759.771557.56417 1.202048.4802 1.716099-.33473zm45.363128 7.35473c0-.27992-2.063752-1.80918-4.586114-3.39835-2.522361-1.58917-4.584043-2.98733-4.581517-3.10702.0025-.11969 1.470963-.58023 3.263194-1.02341 3.593013-.88848 8.923837-3.32495 10.843317-4.95596l1.23472-1.04916-1.71049-1.46762h10.70633c0 .71946-1.73598 3.77033-3.21693 5.65357-2.7394 3.48356-7.04247 7.28519-10.34693 9.14119-1.51816.8527-1.60558.86395-1.60558.20676zm-93.0303382-17.31325c-.1301202-.19846.1063297-.94115.8129832-2.21824 2.355707-4.257311 6.616076-8.797621 11.017608-11.741545 2.664374-1.782043 3.588634-2.10015 3.588634-1.235119l9.007929 6.225565c.08208.132809-.998313.515938-2.400873.851397-4.596225 1.09931-10.753995 3.982178-12.406731 5.808432-.801362.87036-.727576 1.6677 1.213564 2.30951zm60.5915132-5.972491c-1.410893-1.501824-3.629583-2.310864-6.337254-2.310864-2.110927 0-2.773539.169863-4.816493 1.234723-2.724333 1.420018-3.321258 1.508784-3.576726.531876-2.308917-2.711206-14.127797-1.903487-18.976537-1.942985l-10.20482-7.014566c-.65442-.871892-.656186-.931849-.04728-1.604682 1.417802-1.566653 9.123385-3.782381 15.133038-4.35148 8.456532-.800812 18.801949 1.039074 26.032567 4.629775 2.465807 1.224513 2.606812 1.360688 2.976834 2.874906.485672 1.987493.988017 2.95793 2.49942 4.828423l1.195101 1.479042-1.10189 1.254986c-1.303895 1.485053-1.696128 1.540277-2.775959.390849zm1.923545-1.605308c0-.646546-.21228-.912088-.795327-.994882-.477054-.06774-.880389.108726-1.007882.440972-.351251.915341.141068 1.67188 1.007882 1.548793.583047-.08279.795327-.348337.795327-.994883zm-13.608025-.304045c.462703-.864567-.33026-2.022114-1.165627-1.701554-.81328.312085-1.090126 1.205126-.568452 1.833703.592642.714091 1.31046.659389 1.734079-.132149zm-20.085981-1.984518c.620511-.74767.176207-1.591993-.837746-1.591993-.983945 0-1.326833.596167-.862332 1.499306.388593.755549 1.116993.795262 1.700078.09269zm22.82299-6.53965c-2.526548-3.106662-11.841248-3.70295-14.321466-1.931509l2.499431 6.706649 7.542995 1.529854c1.547699-1.246591 4.833022-4.794744 4.27904-6.304994zm-14.777427 4.425353c.05738-.05387-.252064-.831508-.68766-1.728094-.70946-1.460285-.916156-1.630157-1.983552-1.630157-1.166923 0-2.511957-1.006532-3.430345-2.567037-.328901-.558862-.579606-.56232-3.704166-.0511-4.319647.706749-5.071708 1.069739-5.188026 2.504059-.08101.998987.09725 1.235505 1.652396 2.192397 1.673835 1.029921 1.792459 1.052026 2.980865.555479 1.692158-.707029 2.123658-.65748 3.26912.375396.945416.852492 1.124305.882532 3.988422.669761 1.649237-.12252 3.045563-.266834 3.102946-.3207zm21.062332-1.594362c0-1.052814-1.218847-1.398438-1.926149-.546191-.369214.444873-.369214.647508 0 1.092381.707302.852247 1.926149.506623 1.926149-.54619zm-37.426101-1.632214c.247081-.643882-.351112-1.542786-1.026676-1.542786-.243527 0-.640402.238125-.881945.529166-.350374.422175-.350374.636159 0 1.058334.580427.699371 1.632547.674722 1.908621-.04471zm13.761138-2.109696c.686536-.263449.728283-1.322058.07357-1.865425-.266449-.221134-.742699-.302962-1.058333-.181842-.67397.258627-.772998 1.769479-.132909 2.027761.242535.09786.467676.190469.500314.205787.03264.01532.310451-.06851.617362-.186281z" stroke-width=".352778" transform="matrix(1.1928323 0 0 1.1928311 -5.657555 -57.52032)"/><circle cx="67.899071" cy="67.642715" r="6.672548"/><path d="m256.26172 217.61914a38.060354 38.060354 0 0 0 -38.06055 38.06055 38.060354 38.060354 0 0 0 38.06055 38.06054 38.060354 38.060354 0 0 0 38.06055-38.06054 38.060354 38.060354 0 0 0 -38.06055-38.06055zm.13476 8.14063a30.056696 30.056696 0 0 1 30.05664 30.05664 30.056696 30.056696 0 0 1 -30.05664 30.05664 30.056696 30.056696 0 0 1 -30.05664-30.05664 30.056696 30.056696 0 0 1 30.05664-30.05664z" transform="scale(.26458333)"/></g><g fill-opacity=".5"><path d="m37.342529 42.653868 3.534849.163147c10.56638-6.457306 35.300158-.98601 35.36664 22.804321 2.356266-26.714597-27.275564-33.070106-38.901489-22.967468z"/><path d="m23.559551 45.786026 4.076135-1.051078c17.309049-20.278866 51.281837-9.72489 55.460503 15.411902-5.890989-37.510608-50.240618-35.327921-59.536638-14.360824z"/><path d="m74.608443 81.906727c-17.309049 20.278863-50.70176 9.289834-54.880426-15.846962 5.890991 37.510605 49.660541 35.762985 58.956562 14.795884z"/><path d="m65.198288 83.751768-3.53485-.16315c-10.566378 6.45731-35.300157.98602-35.366639-22.804313-2.356265 26.714593 27.275565 33.070103 38.901489 22.967463z"/></g></g></svg>