<svg height="512" viewBox="0 0 135.46666 135.46667" width="512" xmlns="http://www.w3.org/2000/svg"><g fill="#273839" stroke-width=".352778" transform="matrix(1.083722 0 0 1.0837227 1.593334 3.787731)"><path d="m64.492148 105.8764 5.320397 3.2785c-2.047855-18.317342-3.293475-36.707614-1.448304-55.378866l4.182498 2.182308c-2.135744 20.86711.890807 41.734221 4.199356 62.601328-7.945803-2.30608-11.236884-7.00165-12.253947-12.68327zm-.353688-2.1243c-1.577906-17.045898-2.549455-34.414211-1.308035-52.325979.388119.322111.860459.436058 1.022645.01341.235539-.613806-.401331-2.007574-.917346-2.007574-.187201 0-.340367-.3175-.340367-.705556 0-.806076.133082-.847957 1.081525-.340367 1.295981.693361.504274-1.456092-.02319-1.952688-1.016558-.919971-.922528-1.655399.176388-1.379587 1.116154.280134.865616-.09819.08819-1.740955-.269399-.573338-.631528-1.093056-.860517-1.818347-.533508-2.305155-.190393-2.695476 1.100296-3.611506 2.380689-1.678524 1.967413-3.704329.525093-5.224733-1.752754-1.975678-.7554-2.410733.645879-3.727168.951434 1.341653 3.463371 3.302874 3.109221 4.840012-.210767 2.026153.03678 3.665418.238554 5.713084l4.577923 1.945643-1.424841 12.373356-4.549119-2.118677c-2.057315 18.128955-1.694239 36.257911.528877 54.386862zm8.239259-64.29036c-2.656123-1.197694-2.591018-1.077189-2.853852-5.282425-.124569-1.993057-.367108-3.005043-.899347-3.752507-.96188-1.350835-1.042973-3.737584-.18137-5.337972 1.406215-2.61197.577476-15.4613924-1.078516-16.7222004-1.796406-2.3814344-.728452-4.8898052-.067476-6.324723 1.008934-2.1837035 1.405372-2.7230062 1.902344-2.5878901.345288.093877 1.060542.2668816 1.589444.3844535.804841.1789104 1.247408.8026383 2.714149 3.8251496 2.058744 4.242459 2.2739 5.018211 3.010764 10.8554444.950274 7.52779.633116 26.538672-.440736 26.418365zm-1.586223-38.0123814c-2.31999-.3197766-1.97934-.45617174-3.210129 3.66986.110673.08717 4.522145 1.099372 5.356514 1.229035.427215-1.0096323-1.640144-4.7297484-2.146385-4.898895z"/><path d="m50.779236 99.380382-8.076768 1.380348 4.807666-3.077957-5.582867-4.226406-18.053244 7.227633 19.908513-13.888097c3.454481 3.394366 8.993206 7.665208 15.28695 9.246993l1.020496 6.232904c-3.267282-.63774-6.358776-1.62705-9.310746-2.895418zm28.277174 1.934448-1.015898-5.652063c16.810199-3.259582 24.581808-24.288718 23.060808-28.847222-7.432533 5.935214-9.312527 21.627852-23.754401 23.766118-1.036414-9.267666-1.542063-18.535332-1.507949-27.802998l36.3951-25.669868-8.93086 11.556332c1.4439 2.175374 2.1382 4.650593 2.70045 7.17863l9.16271-6.837394-8.55489 10.586124-.0628 5.202075c-.57558 22.388667-12.941303 31.80021-27.49227 36.520266zm21.39048-41.799709c-.11863-1.503066-.872045-5.336851-1.733591-6.275422l-3.28105 3.898773 1.068482 5.328161zm-93.5062014 40.793859 23.2154474-25.751511-.795903-4.481442-10.072322 7.681702 9.877778-13.846811c1.648827-19.271534 13.783685-33.007328 33.124233-37.636804.09208.09208-.396949.759824-1.086735 1.483866-1.698753 1.783117-2.021943 2.482089-1.687259 3.649072.277061.966051.240531.994425-2.422663 1.88178-8.486223 4.191853-21.406521 9.543922-21.53787 36.685537l4.112277-4.21106c.09531-12.688936 6.645391-24.595202 18.738417-28.2407.786374-.220415.82277-.169516.55288.773208-.158898.555039-.254867 1.48541-.213268 2.067493.232036 3.246568.189265 6.802772-.09012 7.493515-.198607.491017-.185145 1.092595.03551 1.587108.209981.470592.236277 1.229477.06427 1.855096l-.878713 12.282308-51.0068283 36.867903c-.00616-.0243.016405-.14026.070866-.14026zm40.5886054-17.083171 10.268818-7.383229.788031 14.777046c-4.477987-1.969374-8.002376-4.534747-11.056849-7.393817zm29.132957-36.463262c.185727-1.355002.352718-1.638667.970139-1.647955 1.543417-.02321 2.859579-1.78078 3.227809-4.31031.13417-.921632.34497-1.668642.46846-1.660024.42225.02946 5.10901 3.348838 5.21773 3.695418l-10.039423 7.419548c-.172806-1.109252.01033-2.418707.155285-3.496677zm4.714548-12.274788.16957-6.295282c3.717774 1.309055 7.057575 3.090575 10.06172 5.291666l15.546131-7.338502-17.083501 13.153748c-2.663094-2.073634-5.49718-3.805287-8.69392-4.81163zm-.05133-15.1875 10.26829-4.055996-10.1285 7.99627z" fill-opacity=".5"/></g></svg>