<svg height="512" viewBox="0 0 135.46667 135.46667" width="512" xmlns="http://www.w3.org/2000/svg" xmlns:xlink="http://www.w3.org/1999/xlink"><linearGradient id="a" gradientUnits="userSpaceOnUse" x1="108.9527" x2="110.04982" y1="181.63348" y2="148.49011"><stop offset="0" stop-color="#273839" stop-opacity=".5"/><stop offset="1" stop-color="#273839" stop-opacity="0"/></linearGradient><g transform="matrix(1.0366384 0 0 1.0366376 -46.18386 -70.152272)"><path d="m93.451071 178.82715-45.836724-65.74841h124.553243l-44.63965 66.41658-9.88897 1.73725-8.68627.40091-7.61718-.40091z" fill="url(#a)"/><path d="m104.4902 190.59723c-5.207917-.6584-7.649079-1.83762-12.184274-5.88568-1.285035-1.14701-1.515198-1.53771-1.326035-2.2509.485891-1.83194.71162-1.90774 2.753349-.92457 3.579852 1.72384 6.98945 2.17253 16.53178 2.17553 10.67039.004 15.77656-.77978 17.91074-2.74697.7099-.65435.86087-.67851 1.32705-.21232.28932.28931.67091 1.03121.84799 1.64865.3137 1.0938.25447 1.17693-2.30618 3.23687-3.60859 2.90296-5.30042 3.82886-8.12634 4.44733-2.90585.63598-12.04786.9394-15.42808.51206zm-.0785-8.11654c-6.646054-.47421-11.609179-1.82422-11.609179-3.15779 0-.59731 1.477246-1.6488 2.700563-1.92224.794858-.17766.90999-.10733.760437.46456-.470164 1.79791 5.185209 2.96361 14.354279 2.95872 8.92967-.005 14.83202-1.21481 14.28789-2.9292-.19144-.60321-.10082-.63576.93939-.33743.6332.18159 1.46453.64343 1.84739 1.02629.67637.67636.67773.71641.0481 1.41213-.3564.39382-1.21951.87996-1.91803 1.08032-4.24123 1.21655-14.55963 1.89348-21.41085 1.40464zm1.26721-2.32608c-4.82346-.56943-8.113889-1.62746-8.113889-2.609 0-.87371.568688-1.25301 2.998609-2.00002 1.79047-.55043 3.3399-.65071 10.05417-.65071 6.71426 0 8.2637.10028 10.05417.65071 2.42992.74701 2.99861 1.12631 2.99861 2.00002 0 .74582-1.77705 1.52514-4.78091 2.09665-2.19828.41824-11.08763.763-13.21076.51235zm9.45896-1.01661c6.36831-.4819 6.55056-2.47333.3051-3.33376-6.2853-.86593-14.70295.14372-14.70295 1.76354 0 .99762 6.80075 2.20095 10.58333 1.87262.6791-.059 2.39563-.19503 3.81452-.3024zm-7.99612-.88103c-3.52969-.5519-3.07199-1.49004.95087-1.94895 2.77626-.31671 7.18629.0692 8.05131.70445.6108.4486.59436.49582-.29032.83364-1.34658.51421-6.49735.75712-8.71186.41086zm6.2399-.67271c.65076-.41251-.66142-.7381-2.99958-.74428-2.03556-.005-3.03327.26324-2.74004.7377.2474.4003 5.10971.40587 5.73962.007zm-17.756907-10.97965c-.287694-.4655.13413-1.1261.553544-.86688.428487.26482.425704 1.21965-.0036 1.21965-.182577 0-.430072-.15875-.549988-.35277zm-2.763425-1.99908c-.129353-.12935-.235186-1.01766-.235186-1.97401 0-1.14512-.229715-2.06144-.672776-2.68365-.558115-.78381-.620857-1.21394-.368141-2.52391.167548-.86849.317662-2.37283.333587-3.34297.02607-1.58749.142247-1.83568 1.161891-2.48186l1.132939-.71799-.01849-3.5716c-.01076-2.07753-.182823-3.76961-.411331-4.04495-.374411-.45113-.747011-4.44817-.428096-4.59238.0838-.0379.581113.21205 1.10515.5554 1.082047.70899 2.164652.63819 2.316734-.15151.112586-.58462-3.325788-3.40088-3.697869-3.0288-.289899.2899-2.217491-1.53512-2.217491-2.0995 0-1.14563-3.143536-.58271-4.260303.76291-.894169 1.07741-2.795253.0467-2.795253-1.51548 0-.50907-.292326-.78034-.991609-.9202-1.100222-.22004-1.830613-1.43342-1.830613-3.04115 0-.55077-.234185-1.45279-.520412-2.0045-.509195-.98147-.416619-3.48263.152302-4.11475.135979-.15109.671427.059 1.189885.46678.876582.68952 2.231894.84132 2.133631.23897-.02374-.14567-.155702-1.25474-.2932-2.46462l-.249996-2.19977-.836405.97014c-.855059.99178-1.575805 1.26471-1.575805.59674 0-1.18812.834767-5.51582 1.135062-5.88452.52928-.64985 1.01412-.16808.777925.773-.275036 1.09584.388849 1.44255 1.441503.75283.469713-.30777 1.078293-.55958 1.352402-.55958.274112 0 .709697-.25461.967965-.56581.393616-.47427.378665-.72422-.0924-1.545-.309089-.53856-.486011-1.37658-.393167-1.86228.249788-1.30668-.518393-1.53181-1.621293-.47517-1.229762 1.17819-1.587926 1.16439-1.28876-.0496.316-1.28238 2.607659-5.37986 3.00887-5.37986.593862 0 .717687.65353.298252 1.57409-.345514.75833-.322301 1.01894.131149 1.47239.499445.49944.632615.49748 1.423966-.021.480148-.3146 1.114538-.47932 1.409757-.36603.357201.13707.792215-.20736 1.300381-1.02958.648286-1.04896.695939-1.34392.315528-1.95306-.353586-.56618-.356948-.80864-.01595-1.14964.658231-.65824.520125-.99659-.406781-.99659-.470094 0-1.062912.33736-1.348419.76736-.333188.50181-.713581.68904-1.09922.54106-.504225-.19349-.528133-.36865-.164924-1.20833.754088-1.7433 3.11076-5.038977 3.603269-5.038977.703947 0 .944019.942883.492432 1.934007-.570459 1.25203.133357 2.05934 1.322846 1.51738.601539-.27408 1.094444-.28061 1.662007-.022.639851.29154.976517.23024 1.626581-.29615.450853-.36508 1.045855-.66378 1.322229-.66378.696189 0 2.238679 1.05335 2.254949 1.53988.026.77694 2.93621 2.4776 4.21995 2.46603 1.21862-.011 4.65238-.59974 7.05555-1.20975.98242-.24937.80221-.2774-.88194-.13716-1.16417.0969-2.91042.2742-3.88056.39391-.97014.11972-1.64895.0945-1.50848-.0561.14047-.15059-.41515-.70034-1.23472-1.22167-.81957-.52132-2.08356-1.67435-2.80887-2.56229-1.28714-1.575738-1.30376-1.632913-.69357-2.386469.34385-.424628 1.05623-.797081 1.58307-.827672.86679-.05033.95793-.185045.95816-1.416279.00019-1.064482.11543-1.31646.52941-1.1576.67123.257573.66619.199781-.14098-1.617442-.36859-.829809-.84246-1.947562-1.05306-2.483895-.35422-.902121-.48898-.95819-1.79929-.748662-.779018.124569-1.416392.135004-1.416392.02319 0-.111815.396875-.631536.881942-1.154935 1.09879-1.185607 1.10332-1.48746.0285-1.896114-1.333506-.506998-1.60676-1.32329-1.019713-3.04618.282427-.828877.740057-1.695072 1.016953-1.924877.27691-.229801.50346-.939898.50346-1.57799 0-1.541223 1.55042-2.85863 3.75297-3.188921.89812-.134682 1.92924-.541171 2.29137-.903309 1.09396-1.093953 2.37982-.835096 3.73889.752677.66432.776112 1.40594 1.411112 1.64804 1.411112.6951 0 2.05893 1.644521 2.5622 3.089533.59716 1.714581.58581 1.87149-.11591 1.602216-.53557-.205516-.56256.139063-.3118 3.979822.15099 2.31265.26178 4.650271.2462 5.194714-.0234.816959.0886.952775.64116.777411.47741-.151525.99592.146254 1.80736 1.037961l1.13788 1.250446 1.48007-3.263313c2.40536-5.303429 5.01742-9.604652 6.90491-11.370186.95806-.896154 1.89875-1.532454 2.09041-1.414001.65463.404586.34858.849485-1.21456 1.765543-.92261.540683-1.98864 1.594728-2.60178 2.57251-3.55117 5.663128-5.86688 11.166712-5.53217 13.147895.25071 1.483915-.36747 2.938221-2.70385 6.361025-1.38843 2.03405-1.3985 2.04049-4.1087 2.62879-1.49427.32436-3.88049.90221-5.30271 1.28411-2.49875.67097-2.60967.67281-3.29272.0547-.69746-.6312-.70087-.62655-.25591.35002.51071 1.12088.45499 1.12236 5.9581-.15779 4.55778-1.06024 6.14471-1.70379 6.76287-2.74255.30281-.50886 1.12058-1.85679 1.81724-2.99539.69667-1.1386 1.31333-2.203174 1.37036-2.365726.119-.339191 5.19862.923057 5.68931 1.413746.18924.18925.65906.19772 1.12568.0203.44048-.16747.88602-.21935.99007-.1153.10406.10406.37152.0765.59437-.0612.27336-.168943.0867-.582878-.57393-1.27237-.73393-.766055-.87821-1.122848-.57621-1.424855.47938-.479377 1.43684.07569 4.24814 2.462748 1.25921 1.069187 1.72908 1.673047 1.44056 1.851367-.2355.14554-.80895.11986-1.27434-.0571-.46539-.17695-.89862-.32171-.96272-.32171s-.4171.60744-.78442 1.34986c-.63043 1.27422-.63532 1.42363-.0871 2.66613.8846 2.00498 1.12778 2.13452 2.6731 1.42394.74775-.34382 1.41733-.66823 1.48796-.7209.0706-.0527-.20719-.52241-.61736-1.04387-.94845-1.20576-.94037-1.5585.0357-1.5585.92719 0 4.86294 4.06344 4.86294 5.02071 0 .71865-1.0523.84144-1.69585.19788-.33262-.33262-.55685-.29486-1.02415.17245-.56255.56254-.54419.69867.30712 2.27794.57318 1.0633 1.18052 1.72081 1.65513 1.79184.66743.0999.72517-.0105.5261-1.00588-.19301-.96506-.13211-1.10112.44499-.99415 1.59428.29552 3.24647 6.2802 1.81513 6.57494-.35753.0736-.61736-.0835-.61736-.37324 0-.69716-1.28327-1.78869-1.75797-1.49531-.44176.27302-.27887 1.83308.30538 2.92475.21349.39893.28798 1.22627.16552 1.83856-.21739 1.08697-.19476 1.11054.95932.99901.92545-.0894 1.22671-.30562 1.38813-.99616.50898-2.17747 2.58211-.13356 2.87573 2.8352.11272 1.13971.0557 1.21728-.8493 1.15533-1.20857-.0827-1.2468.32829-.0882.94835.59182.31674.88151.77154.88063 1.38253-.001.97497-1.19329 3.20359-1.71329 3.20359-.17263 0-.41403.5008-.53645 1.1129s-.40333 1.3307-.62425 1.59689c-.33042.39814-.4724.34153-.80048-.31916-.4828-.97225-1.68602-1.21598-2.30731-.46738-.24931.3004-.98786.54619-1.64122.54619-1.04857 0-1.33905.22762-2.4762 1.94028-1.2666 1.90764-2.28694 2.43442-3.14629 1.62436-.19213-.18111-.67386-.18596-1.12889-.0114-.92453.35473-1.05983 1.55443-.22781 2.02005.51498.2882.509.42479-.0664 1.51684-.36958.70145-.63614 1.96976-.64154 3.05242-.007 1.46243-.14165 1.89433-.63837 2.05198-.34603.10983-.72005.5619-.83117 1.00461-.21294.84845-2.1275 1.97027-3.36255 1.97027-1.12472 0-1.98036.6073-2.22414 1.57861-.18722.74595-.40601.87719-1.33879.80306-.93078-.074-1.15085.0571-1.332.79333-.30601 1.24371-1.27696 1.16794-1.13008-.0882.14862-1.27096-.69153-1.29133-1.67534-.0406-.97628 1.24114-.92488 1.66697.32852 2.72164.58282.49041.91684.97993.74227 1.08782-.47391.29289-2.05444-.6301-1.8955-1.10693.21916-.65749-1.27928-1.92317-2.133-1.80166-.53629.0763-.80502.39448-.88 1.04183-.0881.761-.24992.89801-.88194.74692-.4257-.10178-1.03151-.50624-1.34623-.89883-.67738-.84495-1.72083-.59885-1.72083.40588 0 .70298.88031 1.25881 1.44294.91108.17652-.1091.32095.12851.32095.52802 0 .53493-.22696.72638-.86113.72638-1.24715 0-1.49125.6972-.51253 1.46393.82768.64839.83086.672.1597 1.18631-.37663.28862-.9525.52476-1.27972.52476-.32721 0-.79256.23812-1.0341.52916-.6801.81947-1.05833.63036-1.05833-.52916 0-.83209-.15475-1.05834-.72391-1.05834-.48717 0-.84456.34611-1.09284 1.05834-.20292.58208-.51216 1.05833-.68721 1.05833-.57509 0-.33282.75706.44342 1.38563.95827.77595.64202 1.31908-.87092 1.49571-1.06049.1238-1.15923.0593-1.02047-.66658.15308-.80084.0514-.86418-1.516131-.94408-.461733-.0235-.670528-.24584-.604199-.64329.06697-.40132-.205938-.68447-.804527-.8347-.709662-.17812-.857321-.38037-.681698-.93371.158906-.50066.085-.66059-.253806-.54921-.262897.0864-.532003.62063-.598018 1.18712-.128972 1.10674-.669593 1.65251-1.37928 1.39242-.61093-.2239-.551004.16827.142872.935.543895.60099.541531.69189-.03457 1.32846-.340123.37583-.509809.85903-.377084 1.07379.479856.77642-1.046117 1.83749-1.700904 1.1827zm.295466-6.53564c-.06378-.8657-.688831-1.23778-1.062817-.63266-.179921.29112.508441 1.17167 1.09057 1.39505.01609.006.0036-.33691-.02776-.76239zm8.288796-1.71666c0-.18258-.15875-.33196-.35278-.33196s-.35278.2475-.35278.54999.15875.45187.35278.33196c.19403-.11992.35278-.36741.35278-.54999zm4.23333 0c0-.18258-.23813-.33196-.52917-.33196-.54554 0-.70086.41627-.30357.81356.28185.28185.83274-.0368.83274-.4816zm18.51983-9.8538c.12261-.38632.12394-.86257.003-1.05833-.57241-.92619-2.13473.14304-1.73418 1.18685.30806.80278 1.46286.71706 1.73123-.12852zm1.30905-16.47892c1.13303-1.10638 1.33779-1.53539 1.33779-2.80297 0-1.28319.13775-1.56268.96582-1.95957.53121-.2546 1.01595-.72315 1.0772-1.04123.13862-.7198-2.37421-4.71633-2.70578-4.30341-.13294.16554-.85272 1.58809-1.59952 3.1612-1.32511 2.79133-1.35172 2.92513-1.10517 5.55625.13896 1.48283.35147 2.69605.47226 2.69605.12078 0 .82161-.58785 1.5574-1.30632zm-28.016736-1.5202c.806616-1.02187.807043-1.02883.253354-4.12563-.945165-5.28636-1.627057-8.2173-1.911787-8.2173-.66015 0-1.423921 2.52362-1.60152 5.29167-.105819 1.64924-.290526 3.81362-.410464 4.80974-.186273 1.54707-.109227 1.91998.528433 2.55764 1.022467 1.02247 2.177059.9063 3.141984-.31612zm18.222116-28.30612c1.12996-1.075624 2.22633-3.863743 1.29235-3.286511-.21477.132738-.3905.61948-.3905 1.081648 0 .462167-.15875.938417-.35278 1.058333-.20087.124146-.35277-.179666-.35277-.705556 0-1.188929-.5225-.859886-1.41616.891826-1.2334 2.41766-.72861 2.81502 1.21986.96026zm-19.190777 63.55885c.309439-.57819.274472-.86622-.163978-1.3507-.85647-.94639-.707415-2.09661.30461-2.35061 1.212754-.30439 1.700029.1184 1.52341 1.3218-.112215.76455.02723 1.13127.533132 1.40201.484594.25935.575137.4766.30939.74235-.265748.26575-.513383.26144-.846159-.0147-.357618-.2968-.573461-.22552-.899886.29717-.59405.95123-1.272336.90906-.760519-.0473zm4.138567-62.06121c-1.142764-.71765-1.602123-1.21449-1.461558-1.5808.325462-.84814.912408-.58021 2.380208 1.08652 1.60034 1.81723 1.37825 1.93672-.91865.49428z" fill="#273839" stroke-width=".352778"/></g></svg>