<svg height="512" viewBox="0 0 135.46667 135.46667" width="512" xmlns="http://www.w3.org/2000/svg"><g fill="#273839" stroke-width=".352778" transform="matrix(1.0192723 0 0 1.0192713 -45.478125 -68.230563)"><path d="m90.013303 189.57013c-.828756-.21865-1.477525-1.54715-2.948598-6.03793-1.027768-3.13751-1.160381-3.87901-.810616-4.53255.529177-.98878.198931-1.8873-.69366-1.8873-.787336 0-2.037369-2.76392-1.675973-3.70571.245248-.6391 2.866478-1.91945 3.95326-1.93099.401521-.004 1.592146-.65318 2.645833-1.44204 1.053691-.78885 2.347856-1.52217 2.875929-1.62959 1.075584-.21879 2.177299-1.80627 2.556387-3.68353.132179-.65455.315581-1.45856.407564-1.7867.158408-.56512 1.683149-1.5061 6.757241-4.17019 1.93685-1.01692 2.3176-1.10768 3.03533-.72356.71807.3843 1.06613.30069 2.78375-.66867 2.33667-1.31874 2.41684-1.40908 3.45671-3.89513.44637-1.06716 1.17894-2.38903 1.62793-2.93749s.81635-1.28476.81635-1.63623c0-1.09563 1.74147-6.7116 3.38344-10.91103.86438-2.21071 1.49902-4.09205 1.4103-4.18077-.0887-.0887-.70264.25161-1.36429.75628-.66165.50466-1.31621.91757-1.45459.91757-.58858 0-5.3085-4.31037-5.77528-5.27416-.50008-1.03255-.47269-1.10221 1.31882-3.35363 1.00623-1.26455 2.222-2.60791 2.70171-2.98524.815-.64109.98573-.65236 2.60369-.17188.95232.28281 2.57187.90392 3.59899 1.38025 1.3364.61976 1.90537.74258 2.00069.43188.0733-.23879.51432-1.28214.98013-2.31855.46581-1.03642 1.01507-2.62392 1.22057-3.52778.2055-.90387.67081-2.5562 1.03403-3.67186.61615-1.8926.61999-2.03045.0573-2.05787-.95363-.0465-1.92751-.19039-3.10256-.45842-1.27675-.29123-3.06665.78497-7.14859 4.29819-1.37191 1.18077-2.81131 2.31646-3.19868 2.52377-.38736.20731-.85609.9267-1.04163 1.59864-.50374 1.8244-2.82145 4.50904-3.69545 4.28048-.39798-.10407-1.13924.12836-1.71356.53731-.81214.57829-1.1143.63597-1.52891.29188-.2842-.23586-.51673-.72329-.51673-1.08316 0-.35986-.40435-1.72857-.89856-3.04156-.49421-1.313-.81716-2.70569-.71766-3.09486.0995-.38918 1.13886-1.64446 2.30968-2.78952 1.94667-1.90383 2.12876-2.21095 2.12876-3.59036 0-1.89937 1.02178-2.8025 3.56665-3.15251l1.78946-.24611-.22476-1.19804c-.2767-1.47499.54852-3.37671 1.74257-4.01575.55852-.29891 1.43455-.37388 2.58522-.22123 1.57718.20922 1.79256.15134 2.29598-.61697.69869-1.06634 3.46102-2.43492 4.28017-2.12058.68899.26439 4.73199-.37072 7.48503-1.17581 1.65063-.48271 1.93311-.47935 2.96461.0352 1.42749.71212 1.34271.72466 1.71464-.25358.45027-1.18428 6.17338-3.732063 7.01843-3.124419 1.6915 1.21629 1.96905 1.016419 2.01818-1.453324.0533-2.678144.37107-3.375159 2.5764-5.650969 2.65638-2.741265 3.19702-2.978371 6.64266-2.913243 3.16069.05974 3.91387.43984 4.95032 2.498201.29333.582542.89145 1.456041 1.32916 1.941111 1.71338 1.898773 1.08539 5.407449-1.26773 7.083019-.83509.594621-1.01976.983057-1.01976 2.144894 0 1.05404-.24281 1.67602-.94448 2.41945-.51947.55038-.99474 1.36955-1.05616 1.8204-.23156 1.69955-.49571 2.24955-1.38981 2.89378-.91964.66262-.92046.66246-1.71216-.33042l-.79208-.99336-.58981.90016c-.45014.68702-.50799 1.11534-.2443 1.8089.25106.66034.20879 1.18278-.15465 1.9113-.27508.55141-.72314 1.87047-.99569 2.93124-.48378 1.88292-.47472 1.95351.38222 2.97557.48276.57579 1.13675 1.06458 1.45331 1.08619.31655.0216.97731.0664 1.46835.0996.6406.0433 1.00564.3593 1.29227 1.11868.4873 1.291 1.50394 1.38752 3.27065.31051 1.0403-.63418 1.55265-.71134 3.43958-.51802 1.67349.17145 2.22718.11661 2.25789-.22364.0224-.24794.0776-.60955.12266-.80357.0451-.19403.10614-.62694.1357-.96201.0296-.33508.46618-.87948.97028-1.20978.75946-.49762 1.03795-.52472 1.62491-.15817.60137.37557.82576.33208 1.48572-.28791.5251-.49331 1.46553-.80223 2.89802-.95195l2.12065-.22165.76874 2.10834c1.08736 2.98218 1.01446 4.48512-.28959 5.97036-1.12515 1.28147-1.27253 1.71236-.70556 2.06277.19403.11991.35278.59267.35278 1.05058 0 .68847-.25947.89414-1.4993 1.1884-3.16762.75182-7.2298 1.85776-9.26042 2.52118-3.78474 1.23651-6.9609 1.85201-7.23855 1.40275-.18697-.30251-.92181-.29137-2.9191.0442-2.9139.48962-4.75922.15376-6.44624-1.17325-.80562-.6337-.83046-.63057-1.25755.15843-.23963.44269-.69654 1.76962-1.01536 2.94873l-.57968 2.14384.9088 1.05939c.49983.58267 1.62317 1.54818 2.49629 2.14558.87313.5974 3.08587 2.37064 4.91722 3.94052 1.83135 1.56989 3.45853 2.85434 3.61597 2.85434s.60644-.32019.99778-.71153c.66452-.66452.78116-.67552 1.76539-.16655 2.91261 1.50617 3.96151 6.34244 2.01387 9.28553-.53516.80868-1.19585 1.47033-1.46821 1.47033-.30448 0-.84438 1.05296-1.40188 2.73402-.84771 2.5562-.87468 2.83958-.41456 4.35675.4421 1.45778.42842 1.76258-.13457 2.99861-.34467.75674-1.08397 1.96576-1.64287 2.68671-.55891.72094-1.30142 1.71313-1.65002 2.20486-.34861.49172-.85385.89405-1.12276.89405-.65538 0-.80227.70365-.86792 4.15745-.051 2.68317.0377 3.09233 1.08199 4.99193 1.01658 1.84914 1.28154 2.09222 2.49152 2.2857 1.63038.26071 2.75516 1.29064 2.75516 2.52283 0 .49783.17425 1.23072.38722 1.62866.30446.56889.26407.84667-.18899 1.29972-.4576.4576-1.28162.57156-4.00319.55363-3.76808-.0248-5.71221-.64354-7.61117-2.42223-.92104-.86271-1.06204-.89743-1.61439-.39756-.54806.49599-.84469.48485-3.141-.11803-1.39469-.36617-2.77165-.86149-3.05991-1.10073-.79093-.65642-.63567-2.38495.50948-5.672 1.57762-4.52841 2.12029-5.69666 3.18074-6.84743 1.35338-1.46865 1.53748-2.18568.76064-2.96251-.3594-.35941-.852-.71964-1.09465-.80053-.61763-.20587.23937-11.04932.91777-11.61234.25624-.21266 1.09767-.4714 1.86984-.57497 1.50055-.20126 1.91956-.73147 1.59621-2.0198-.16003-.6376-.90992-1.0725-3.61704-2.09771-2.86559-1.08522-4.10409-1.39353-6.45807-1.60765-.12291-.0112-.29751-.40769-.38801-.88114-.12183-.63726.23081-1.34279 1.35786-2.71675.83733-1.02076 1.45966-1.9187 1.38294-1.99541-.24797-.24797-3.25758 1.99171-4.1172 3.06392-.4589.57239-1.23123 1.72523-1.7163 2.56187s-2.73293 3.38375-4.99524 5.66024c-4.01404 4.03922-4.10919 4.17131-3.94359 5.47482.41112 3.23598-3.83757 6.73683-7.72287 6.3635-2.17458-.20895-3.79941.267-3.79941 1.11294 0 1.10348-.86089 1.78951-2.91285 2.3212-1.117.28943-2.97779 1.00422-4.13509 1.58842-1.15729.5842-2.48618 1.06218-2.95309 1.06218-.89934 0-3.438431 2.63875-6.034646 6.2715-1.313526 1.83795-1.327337 1.89186-1.078953 4.2112.13838 1.29219.479386 2.69707.757795 3.12197.389053.59378.41717.96627.121496 1.60964-.34019.74024-.637469.84277-2.56982.88623-1.201819.027-2.465095-.0247-2.807279-.11498zm41.785017-90.734747c-.51113-.315894.58863-3.249239 5.53709-14.768869 1.18788-2.765277 2.15977-5.41497 2.15977-5.888208 0-1.113502.50304-1.406969 1.20628-.703728.30669.306684.55761.623872.55761.704862 0 .482552-1.58947 5.881815-2.12273 7.210682-4.9569 12.352469-6.00346 14.270065-7.33802 13.445261z"/><path d="m80.055135 188.63173c-1.148227-1.75242-3.010654-8.08854-2.916415-9.92188.08268-1.60842.02297-1.76709-.640101-1.70092-.588442.0587-.840506-.26859-1.290459-1.67562-.552254-1.72695-.548882-1.75669.272397-2.40271.457365-.35976 1.792134-.92364 2.966154-1.25305 1.174019-.32941 2.134581-.73248 2.134581-.89571s.227083-.38393.504631-.49043c.314801-.1208.182089.28165-.352778 1.06982-1.089101 1.60488-1.078627 2.66872.0556 5.64687.502155 1.31852 1.210151 3.3498 1.573322 4.51397s1.063569 3.30172 1.556435 4.75011c.492865 1.4484.896122 2.75808.896122 2.91042 0 .15233-.948842.27697-2.108535.27697-1.823071 0-2.181969-.11208-2.650954-.82784zm51.676925-3.55489c-3.06684-.84718-3.2738-1.06964-3.09236-3.32398.2074-2.57693 2.78014-9.03944 4.17138-10.47814 1.31814-1.36311 1.30947-2.01397-.0409-3.07081l-1.08059-.84569.43948-5.17236c.24171-2.84479.55816-5.36441.70323-5.59913s1.02888-.51467 1.96403-.62211c1.54315-.17728 1.71073-.28644 1.81343-1.18132.0955-.83243.23289-.94922.88194-.74992 1.02264.31401.99287.24639.62258 1.41412-.6043 1.90569-1.20524 11.84536-.80379 13.29503.32229 1.16384.24458 1.60821-.61693 3.52778-1.46027 3.25368-3.19557 8.6328-3.19557 9.90571 0 .61303.14767 1.62948.32815 2.25879.37265 1.29934.33133 1.31201-2.09405.64203zm-50.210489-16.36351c-1.144913-.073-1.651137-.24695-1.540014-.52917.09105-.23123 4.408119-9.94542 9.593497-21.58709 5.185379-11.64167 9.588822-21.56354 9.785428-22.04861.356814-.88032.358673-.87935 1.010448.52916.35913.77611.65713 1.82627.66222 2.33368.005.50741.32378 1.32242.7082 1.81113.86714 1.10239 3.28317 2.1053 4.39778 1.82555.66203-.16616.8845-.0395 1.07906.61433.1348.45301 1.65189 2.17302 3.3713 3.82226l3.1262 2.99861-1.24773 4.23333c-.68626 2.32834-1.99925 5.74146-2.91776 7.58473l-1.67002 3.35138-2.09597.20492c-2.03692.19915-3.98826 1.06202-10.209862 4.51477-1.879717 1.04317-2.722683 2.272-3.369381 4.91168-.211233.86222-.630361 1.60902-.970636 1.72948-.329378.11661-1.364393.7514-2.30003 1.41065-2.111845 1.48801-5.16937 2.43224-7.41273 2.28921zm-32.908109-2.7763c.653538-1.51767 3.01607-6.88691 5.250072-11.93163s5.570157-12.58535 7.413678-16.75694c1.843521-4.1716 5.492995-12.4266 8.109942-18.34445 2.616948-5.91785 5.690261-12.88282 6.829584-15.47772 1.912046-4.354845 2.623735-5.430689 3.206786-4.847638.122603.122603-.784122 2.483778-2.014945 5.247048-1.230823 2.76328-3.620899 8.11977-5.311279 11.90331-1.690381 3.78354-4.52026 10.13354-6.288619 14.11111-15.438155 34.72504-17.233706 38.6349-17.791904 38.7424-.487434.0939-.382402-.3718.596685-2.64549zm4.301578 1.91864c.137906-.4345 1.426342-3.41107 2.86319-6.61458 1.436848-3.20352 3.323953-7.41208 4.193566-9.35235.869614-1.94028 6.5569-14.71966 12.638412-28.39862 10.550112-23.730035 11.102011-24.876166 12.032166-24.98714.698931-.08339.922292.01647.789111.352777-.183247.462745-4.374215 9.878063-8.374324 18.813533-1.129176 2.52236-3.637953 8.15799-5.57506 12.52361-17.99018 40.54417-17.012245 38.45278-17.980495 38.45278-.706601 0-.798165-.12332-.586566-.79001zm5.551757.37159c.111815-.25494 4.105139-9.19477 8.874053-19.8663s11.721246-26.26872 15.449628-34.66042l6.778876-15.257639h1.326804c.729738 0 1.326801.144519 1.326801.321153 0 .176635-.802577 2.121326-1.783504 4.321526-.980927 2.20021-2.740628 6.1435-3.91045 8.76288-1.169821 2.61937-7.31409 16.43062-13.653931 30.69166l-11.526983 25.92917-1.542297.11075c-1.1701.084-1.493235-.001-1.338997-.35278zm6.94505.19507c0-.17291 7.058199-16.17333 11.650739-26.41137 5.842086-13.02363 8.68574-19.40215 9.357824-20.99028.451612-1.06715 2.881178-6.54403 5.399034-12.17083l4.577927-10.230561 1.477331-.110274c.820286-.06123 1.421755.03704 1.352377.220957-.06872.182177-7.092315 15.987738-15.607979 35.123468l-15.483025 34.79224h-1.362114c-.749163 0-1.362114-.10051-1.362114-.22335zm7.187386-.92318c.271742-.63059 5.374603-12.10028 11.339692-25.48819 12.147504-27.26361 17.541795-39.41348 18.599335-41.89236l.71488-1.675699h1.86686 1.86685l-1.34698 3.086809c-.74083 1.69774-7.255626 16.34243-14.477316 32.54375-7.221689 16.20132-13.608243 30.60788-14.192346 32.01458l-1.062005 2.55764h-1.901523-1.901524zm47.243317-47.11295c-.29425-.18701-.0484-.57238.79375-1.24436.67099-.53541 1.21999-.91101 1.21999-.83468 0 .0763-.17428.63873-.38729 1.24977-.38773 1.11226-.82799 1.33673-1.62645.82927zm-11.00466-17.05514c.98825-2.20342 1.87803-4.204652 1.9773-4.447187.13143-.321125 1.43541-.440972 4.79791-.440972h4.61744l-1.66882 1.058333c-.91785.582086-2.09987 1.059216-2.62671 1.060306-3.01207.006-6.44385 2.51212-6.92062 5.05355-.13356.71196-.38142 1.29448-.55079 1.29448-.16936 0-.55872.0962-.86523.21385-.38627.14822-.006-1.01568 1.23952-3.79236zm16.2483-10.133472c-.38118-.245572-.25676-.816694.63399-2.909974.60954-1.43244 1.41101-3.318811 1.78105-4.191936 1.51798-3.581762 2.5469-6.247653 2.89334-7.496528.40451-1.458177.82306-1.68878 1.15677-.637337.20231.637421-1.09073 5.543415-2.0973 7.957476-.2427.582083-1.00452 2.487084-1.69292 4.233334-1.22415 3.105272-1.71464 3.663613-2.67493 3.044965z" fill-opacity=".501961"/></g></svg>