<svg height="512" viewBox="0 0 135.46667 135.46667" width="512" xmlns="http://www.w3.org/2000/svg"><g fill="#273839" transform="matrix(1.1571151 0 0 1.1571159 -64.830462 -79.657426)"><path d="m120.15094 173.99793c0-.29105.15875-.52917.35278-.52917.19402 0 .35277.23812.35277.52917 0 .29104-.15875.52916-.35277.52916-.19403 0-.35278-.23812-.35278-.52916zm.35278-2.44377c0-.13041.2463-.7134.54734-1.29555.30104-.58214.45488-1.34977.34187-1.70583-.22211-.69983.44768-2.49235.9313-2.49235.46902 0 .34396 3.6887-.14482 4.27141-.61602.7344-1.67569 1.50737-1.67569 1.22232zm30.61317-2.61625c-2.08047-.51546-3.93247-1.09596-4.11557-1.28998-.39933-.42317-2.59326-7.87488-2.43976-8.28666.0591-.15849 1.43929-1.67227 3.06711-3.36393l2.95968-3.07576 4.36221 1.0007 4.36221 1.00069.8521 2.8347c.46866 1.55909 1.05123 3.51807 1.2946 4.35331l.4425 1.51861-3.14108 3.1557c-1.72759 1.73563-3.30313 3.14087-3.50121 3.12276-.19807-.0181-2.06233-.45467-4.14279-.97014zm-25.32151-3.22354c0-.45216.31291-.77737.88645-.92132.48755-.12237 1.03835-.48258 1.224-.80047.26819-.45923.33975-.35691.34827.49799.0128 1.28019-.53769 1.92263-1.64733 1.92263-.5736 0-.81139-.2048-.81139-.69883zm5.65394-3.80427c.007-.91966.31245-1.68308 1.01239-2.52716l1.0029-1.20944.1473 1.26173c.12207 1.04559-.0513 1.4785-1.01239 2.52717l-1.15969 1.26544zm5.28217-6.45527c0-1.44141.17796-2.06197.77291-2.69527.85222-.90714.83145-.55349.66287-11.28641-.0494-3.14252.0136-5.88096.14-6.08542.7386-1.19508.89367.32691.89367 8.77122 0 8.13567-.0724 9.31194-.65736 10.67653-.36154.84345-.91717 1.74918-1.23472 2.01272-.5223.43347-.57737.30059-.57737-1.39337zm20.43367-4.79845c-1.95788-.51477-1.9702-.5265-2.46258-2.34624-.27216-1.00588-.49793-1.91596-.50171-2.0224-.004-.10643.62813-.93346 1.40424-1.83784l1.41111-1.64432 2.15862.54669 2.15863.54669.63541 2.09861.6354 2.09859-1.54457 1.5738c-.84951.86559-1.63057 1.55804-1.73569 1.53879-.10513-.0193-1.07661-.26783-2.15886-.55237zm-37.01422-2.53406c0-1.1069.14739-1.42092.73958-1.57579 1.59684-.41758 2.35434.77663 1.1125 1.75388-1.66477 1.31006-1.85208 1.29205-1.85208-.17809zm6.63488-7.13493-.94985-.70902-.0236-6.51175-.0236-6.51175h1.06162 1.06162v7.23194c0 3.97757-.0397 7.22692-.0882 7.22077-.0485-.006-.51562-.33023-1.03803-.72019zm4.31245-6.77389-.0112-7.32887.91155-.34657c.50135-.19062 1.06063-.25443 1.24284-.14182.18913.11689.31718 2.9965.29841 6.71082-.0181 3.58947-.17043 6.42105-.33974 6.31641-.30924-.19112-.65596.11811-1.5847 1.41334-.44591.62187-.50725-.1638-.51714-6.62331zm-9.09109 4.24206c.0666-.62926-.117-.81688-.8861-.90537l-.97014-.11163v-10.86858c0-5.97772-.0992-11.36468-.22049-11.97101-.18844-.94221-.11743-1.10243.4886-1.10243 1.34343 0 1.84856 1.43688 1.84856 5.25843 0 1.93565-.14076 3.60636-.31279 3.71268-.61614.3808-.82244 2.71078-.27842 3.1446.63983.51022 1.23196 13.63706.61515 13.63706-.20262 0-.33059-.35718-.28437-.79375zm14.43512-12.96458c.0232-3.78354.10994-6.4252.19283-5.87036.13528.9056.25618.9877 1.18186.80257l1.03117-.20624v3.08132c0 2.61682-.0985 3.14281-.65313 3.48921-.45691.28534-.71367.99452-.85465 2.36048-.11084 1.07392-.36773 2.23825-.57087 2.58739-.26539.45614-.35748-1.30126-.32721-6.24437zm5.60474 5.35449c-.0131-.45052.38635-1.51912.88773-2.37467.8112-1.38421.96522-2.66409.51283-4.26159-.007-.0259-.33083-.13008-.71888-.23156-.40887-.10692-.70556-.48119-.70556-.89006 0-.90845 1.2052-.65569 1.95107.40919.73916 1.0553.64243 2.53582-.30093 4.60599-.45062.98887-.9955 2.19481-1.21085 2.67988l-.39154.88194-.0239-.81912zm-9.90166-7.29477c-.36691-.4421-.31597-.52916.30959-.52916.43037 0 .74875.225.74875.52916 0 .29104-.13932.52917-.30959.52917s-.5072-.23813-.74875-.52917zm-6.35-4.09469c0-.85454.12297-1.04888.55802-.88194.30691.11778.78316.21413 1.05834.21413.29848 0 .50031.35579.50031.88195 0 .74475-.16463.88194-1.05833.88194-.94884 0-1.05834-.1134-1.05834-1.09608zm5.29167.21414c0-.35278.35278-.52917 1.05833-.52917.70556 0 1.05834.17639 1.05834.52917s-.35278.52916-1.05834.52916c-.70555 0-1.05833-.17638-1.05833-.52916zm13.10848-.88195c0-.48507.0801-.6835.17794-.44097.0979.24254.0979.63941 0 .88194-.0979.24254-.17794.0441-.17794-.44097zm3.67115-2.22007c.13247-.34792.32973-.54371.43835-.4351.10862.10862.00023.39328-.24087.63258-.34841.34582-.38893.3053-.19748-.19748zm-16.77963-7.48132c0-3.97757.085-7.23194.1888-7.23194.10384 0 .58009.25638 1.05833.56974l.86954.56974v6.6622 6.66221h-1.05834-1.05833zm-4.90236 6.20366c-.38405-.24318-.53089-1.83599-.66624-7.22654l-.17361-6.91462h1.10721 1.10722v4.53289c0 2.49309.10267 5.74746.22816 7.23194.211 2.49623.17787 2.69866-.44097 2.69366-.36803-.003-.89082-.14577-1.16177-.31733zm10.19403-4.80496c0-4.97339.0207-5.11661.68746-4.75977 1.46606.78461 1.78198 1.75962 1.78198 5.49961 0 3.48222-.0219 3.579-.89854 3.97845-.4942.22517-1.04983.4094-1.23472.4094-.19764 0-.33618-2.1132-.33618-5.12769zm11.64166 3.35902c0-.39069.18722-1.01012.41603-1.37651.33284-.53296.29808-.84617-.17385-1.56643-.47726-.72838-.51498-1.08858-.19759-1.88668.27836-.69994.44602-.83275.57728-.45726.10175.29104.34042.92604.53038 1.41111.53227 1.35918.52017 2.91698-.0295 3.79236-.6184.98491-1.12279 1.02237-1.12279.0834zm-26.02649-1.12947c-.0435-.3328-.55531-1.1475-1.1374-1.81046l-1.05833-1.20537v-4.62774-4.62773h1.0694c.58818 0 1.1478.20426 1.2436.45392s.1264 3.14685.068 6.4382c-.0584 3.29134-.14177 5.71198-.18526 5.37918zm25.67372-8.74352c0-1.49152.32924-1.76044 1.067-.8715.34244.41261.35438.74473.0508 1.41111-.59445 1.30467-1.11776 1.05204-1.11776-.53961zm-.35278-6.702782c0-.776111.14805-1.411111.329-1.411111.47635 0 .81423 1.293414.55294 2.116666-.37729 1.188745-.88194.785022-.88194-.705555zm-3.14715-2.675232c.0169-.410966.10052-.494559.21313-.213136.10191.254661.0894.558932-.0278.676157-.11722.117225-.2006-.09113-.18529-.463021zm-.25889-4.21915c-.1149-.29941-.13008-.623206-.0337-.719547.0963-.09634.25984.148629.36333.544381.21984.840644-.0244.970453-.3296.175166zm4.19849-.606715c-1.4071-.338327-1.5335-.471568-2.02847-2.13833-.62598-2.107892-.62564-2.104302-.17509-1.825851.19402.119916.35277-.03883.35277-.352778 0-.353245-.1609-.471362-.42215-.309899-.57883.357733.87447-1.646718 1.80106-2.484116.70356-.635833.88231-.646643 2.91645-.176389l2.16695.500959.61146 2.168651.61146 2.168651-1.47472 1.447322c-1.54003 1.511431-1.898 1.593684-4.35972 1.00178zm-6.15357-1.516152c-.15542-1.331216.13021-1.753631.96829-1.432029.61964.237777.67618 1.677595.0889 2.264833-.67901.679013-.90117.504019-1.05723-.832804zm-4.69305-7.499565-1.05833-.585863 1.00239-.118262c1.15068-.135757 1.40124.01884 1.23365.761185-.1041.461159-.25476.45386-1.17771-.05706zm-17.92757-2.057515c-.38783-.387826-.25697-1.306197.28888-2.027324.39765-.525359.61371-.581076 1.0024-.258497.27251.226166.77538.3038 1.11749.172521 1.045-.401002.41826.691223-.73726 1.28485-.56653.291042-1.12027.650615-1.23054.799052-.11026.148437-.3087.161666-.44097.0294zm6.91994-1.468161c-1.25083-.177942-1.52971-2.182511-.30363-2.182511.67046 0 1.33037.913896 1.19598 1.656277-.0779.430476-.36703.600964-.89235.526234zm4.48205-.530249c-.00071-.490666.22577-.614641.96632-.529166 1.4137.163172 1.51187 1.258524.10828 1.208347-.78802-.02817-1.07401-.208922-1.0746-.679181z" fill-opacity=".501961" stroke-width=".352778"/><path d="m116.35858 181.34086c-.43656-1.00611-.79375-2.26791-.79375-2.80402 0-.5361-.41269-2.32772-.91709-3.98138-.70912-2.32483-1.22604-3.32498-2.2795-4.41034-.74933-.77202-1.54492-1.84427-1.76797-2.38278-.3035-.73271-.72861-1.03648-1.68925-1.20707-2.49173-.44251-5.90906-2.54215-7.44192-4.57241-.78477-1.03943-1.989931-2.33314-2.678126-2.8749-1.486708-1.17038-2.687242-2.98407-2.839212-4.28931-.06029-.51779-.443851-1.69703-.852357-2.62053-.488615-1.1046-.723124-2.30949-.685409-3.52159.03154-1.01337.05804-4.14437.05891-6.95777.0014-4.97292-.01965-5.11849-.76115-5.2305-.87982-.13291-1.263484-.98611-1.984286-4.41269-.280875-1.33522-.8408-2.89129-1.244283-3.45793-1.023803-1.4378-1.461301-3.21096-1.055557-4.27815.436235-1.14738 2.617788-2.49876 3.554078-2.2016.639039.20283.7109.069.7109-1.32414 0-1.21333-.198745-1.73545-.915462-2.40503-2.065701-1.92981-2.841237-5.10529-2.23212-9.13958.30959-2.05048.298728-3.05614-.04866-4.5042-.421513-1.75707-.384232-2.0618.648159-5.297608.602466-1.888313 1.290066-4.208552 1.527993-5.156086.28133-1.120369.812871-2.063443 1.520095-2.696982.59812-.535806 1.945735-1.744926 2.994692-2.686933 1.311956-1.178186 2.223392-2.405268 2.920295-3.931633.79613-1.743714 1.35312-2.434533 2.60088-3.225841.87328-.553821 2.17475-1.117062 2.89215-1.251647.95139-.178482 1.99903-.904569 3.87145-2.683187 3.1264-2.969772 4.01691-3.137817 5.91165-1.115571.82759.883291 1.21018 1.606959 1.15127 2.177655-.13721 1.329251-.88055 1.27207-2.20078-.169293l-1.20964-1.32062-1.22473.93414c-.67359.513777-1.54195 1.379649-1.92967 1.92416-.74069 1.040199-2.40328 2.016821-3.99136 2.344565-1.39783.28848-3.10936 1.889402-3.83851 3.590435-.62887 1.467091-2.552681 3.62136-5.513799 6.174304-1.177216 1.014944-1.587542 1.69229-2.028013 3.347755-.588356 2.211271-1.246593 4.199563-1.991177 6.014607-.377345.91984-.375264 1.36843.01178 2.54123.333837 1.01154.385487 2.01672.178255 3.46909-.7112 4.98445-.239356 7.44795 1.855756 9.6889.694143.74246.919441 1.43293 1.066877 3.26966.228759 2.84985-.333925 3.72661-2.391657 3.72661-2.094328 0-2.362196.69631-1.114876 2.89807.580919 1.02544 1.247955 2.81693 1.482298 3.98109.519105 2.57882.70212 2.93424 1.78925 3.4748.814215.40486.867347.64269 1.156603 5.17756.205903 3.22805.178333 5.37906-.08592 6.70372-.407282 2.04162-.227207 3.2156.797062 5.19632.315246.60962.573176 1.5944.573176 2.1884 0 .879.630213 1.75211 3.385945 4.69101 3.45043 3.67977 5.34097 4.99 8.60388 5.9629 1.157.34497 1.77397.79116 2.29306 1.65831.39059.65249 1.61067 2.18306 2.71128 3.40128 2.3456 2.59621 2.50254 3.22315 2.33994 9.34709l-.1077 4.05695zm-4.28771-32.93502-1.90645-1.39541 2.43562.005c3.5641.007 4.02312.19232 4.02312 1.62383 0 1.14685-.0518 1.19296-1.32292 1.17788-.96889-.0115-1.8331-.38912-3.22937-1.41111zm3.80191-6.29027c-.50972-.40291-1.01457-1.06832-1.12188-1.47869-.17233-.65897-.0847-.71886.75038-.51272 1.29027.31853 1.54929.64157 1.41404 1.76354l-.11577.96044zm-12.21603-.13223c-.19404-.24253-.46229-.79816-.59613-1.23472s-.47865-.79375-.76625-.79375-1.0067-.25018-1.59799-.55595c-1.746455-.90312-3.768299-6.2109-4.394091-11.53542-.193615-1.64737-.109372-2.16279.51991-3.18099.562014-.90936.750961-1.78514.750961-3.48075v-2.26567l4.32511.0143c4.19119.0138 4.39831-.0217 6.68933-1.14776 1.30032-.63911 3.49591-2.10754 4.87909-3.26319 1.38319-1.15565 2.73861-2.10119 3.01206-2.10119.41852 0 .49719 2.0094.49719 12.7v12.7h-1.65296c-1.10282 0-1.89534.21525-2.38125.64675-.40056.3557-1.4723.92062-2.38163 1.25536-.90934.33474-2.33809 1.07269-3.175 1.63989-1.60751 1.08946-3.14082 1.33751-3.72835.60314zm6.95516-15.77067c.43908-.27773.41304-.44011-.17639-1.09981-.68753-.7695-.68744-.77279.014-.56746.38806.11359 1.16613.31667 1.72904.45129l1.02348.24478-.24588-1.5377c-.13524-.84573-.31696-1.60876-.40382-1.69562-.49425-.49425-7.21041-1.43628-10.3049-1.4454-3.791638-.0112-4.190432.18096-3.032128 1.46087.424737.46933 1.089828.64514 2.440588.64514 2.84432 0 3.20407.28916 1.48846 1.19639-.80626.42636-1.51963.93631-1.58526 1.13322-.0656.1969.39973.61627 1.03415.93191 1.28999.64182 7.12549.84733 8.01864.28239zm-11.804027-10.10747c-.388056-.0983-1.13526-.34506-1.660451-.54827-1.995752-.77221-2.925597-6.08558-1.551662-8.86656.559019-1.13151 1.157616-1.57964 3.87688-2.90239 4.46208-2.17052 10.89854-3.697 15.58854-3.697h1.56197v4.69163 4.69163l-1.24609.4506c-.68536.24782-2.1015 1.32671-3.14697 2.39753-2.43697 2.49603-5.33394 3.63779-9.71805 3.83009-1.64924.0723-3.316112.0511-3.704167-.0473zm20.693197-38.239221c0-.485069.0801-.683506.17794-.440972.0979.242535.0979.63941 0 .881945-.0979.242534-.17794.0441-.17794-.440973z" stroke-width=".352778"/><g fill-opacity=".501961"><path d="m92.181542 98.846738-6.1472 1.870882-10.958049-10.89123 4.209494-14.098467 14.633007-4.142678 9.822156 10.022608-6.347653 9.020347-3.541321 3.073598z"/><path d="m75.744466 99.114006-7.550365 1.870884-1.670435 6.94901 5.078121 5.34539 7.283095-2.07134 1.80407-6.88219z"/></g></g></svg>