<?xml version="1.0" encoding="UTF-8" standalone="no"?>
<svg
   xmlns:osb="http://www.openswatchbook.org/uri/2009/osb"
   xmlns:dc="http://purl.org/dc/elements/1.1/"
   xmlns:cc="http://creativecommons.org/ns#"
   xmlns:rdf="http://www.w3.org/1999/02/22-rdf-syntax-ns#"
   xmlns:svg="http://www.w3.org/2000/svg"
   xmlns="http://www.w3.org/2000/svg"
   xmlns:sodipodi="http://sodipodi.sourceforge.net/DTD/sodipodi-0.dtd"
   xmlns:inkscape="http://www.inkscape.org/namespaces/inkscape"
   width="512"
   height="512"
   viewBox="0 0 135.46667 135.46667"
   version="1.1"
   id="svg8"
   inkscape:version="1.0.1 (3bc2e813f5, 2020-09-07)"
   sodipodi:docname="Smoke Launcher.svg">
  <defs
     id="defs2">
    <linearGradient
       id="linearGradient1099-6-5"
       osb:paint="gradient">
      <stop
         style="stop-color:#273839;stop-opacity:0.5"
         offset="0"
         id="stop1151" />
      <stop
         style="stop-color:#273839;stop-opacity:1"
         offset="1"
         id="stop1153" />
    </linearGradient>
  </defs>
  <sodipodi:namedview
     id="base"
     pagecolor="#ffffff"
     bordercolor="#666666"
     borderopacity="1.0"
     inkscape:pageopacity="0.0"
     inkscape:pageshadow="2"
     inkscape:zoom="0.7"
     inkscape:cx="109.02199"
     inkscape:cy="276.54069"
     inkscape:document-units="px"
     inkscape:current-layer="g1320"
     inkscape:document-rotation="0"
     showgrid="false"
     inkscape:pagecheckerboard="true"
     inkscape:object-nodes="true"
     fit-margin-top="0"
     fit-margin-left="0"
     fit-margin-right="0"
     fit-margin-bottom="0"
     inkscape:window-width="1600"
     inkscape:window-height="837"
     inkscape:window-x="-8"
     inkscape:window-y="-8"
     inkscape:window-maximized="1"
     units="px" />
  <metadata
     id="metadata5">
    <rdf:RDF>
      <cc:Work
         rdf:about="">
        <dc:format>image/svg+xml</dc:format>
        <dc:type
           rdf:resource="http://purl.org/dc/dcmitype/StillImage" />
        <dc:title></dc:title>
      </cc:Work>
    </rdf:RDF>
  </metadata>
  <g
     inkscape:label="Layer 1"
     inkscape:groupmode="layer"
     id="layer1"
     transform="translate(-59.62574,-110.15787)">
    <path
       style="fill:#000000;stroke-width:0.264583"
       id="path853"
       d="" />
    <path
       style="fill:#000000;stroke-width:0.264583"
       id="path849"
       d="" />
    <g
       id="g1061"
       transform="translate(9.0714285,1.8898814)">
      <g
         id="g1320"
         transform="translate(7.2162774,44.901282)">
        <g
           id="g2214"
           transform="matrix(1.0914221,0,0,1.0914223,-5.2947047,-9.9973411)">
          <path
             style="fill:#273839;fill-opacity:1;stroke-width:0.352778"
             d="m 88.260046,118.63515 c -0.118001,-0.30751 -0.114914,-1.7378 0.0069,-3.17842 0.239293,-2.83081 1.418064,-5.69074 2.923738,-7.09354 0.796565,-0.74216 0.833857,-0.98851 0.833857,-5.50832 v -4.731421 l 1.60964,-0.614729 1.609641,-0.614726 1.300776,1.529023 c 2.490745,2.927803 2.127187,2.772773 6.680632,2.848583 2.27983,0.0379 6.12604,0.0603 8.54715,0.0497 l 4.402,-0.0193 1.06605,-1.343098 c 2.6558,-3.345988 2.40272,-3.176418 4.01825,-2.692393 l 1.45753,0.436683 v 5.081118 c 0,4.642 0.0596,5.12285 0.6896,5.56412 0.37928,0.26566 1.17303,1.40203 1.76389,2.52528 0.96371,1.83204 1.07429,2.36537 1.07429,5.18143 v 3.13918 H 107.3593 c -16.910462,0 -18.90711,-0.0584 -19.099233,-0.55911 z"
             id="path2202" />
          <g
             id="g2208">
            <path
               style="fill:#273839;fill-opacity:0.501961;stroke-width:0.352778"
               d="m 47.688865,132.51162 c 0.121418,-1.79476 0.551853,-4.45382 0.956522,-5.90903 2.240771,-8.0579 8.941499,-14.49439 17.11724,-16.44224 1.347166,-0.32096 2.680555,-0.69472 2.963086,-0.8306 0.298145,-0.14338 0.701288,-1.26346 0.960763,-2.66935 1.265062,-6.854399 4.466932,-12.903934 9.734066,-18.391318 13.56534,-14.132585 35.612808,-15.197074 50.777348,-2.451617 2.92751,2.46051 6.48523,6.844614 8.19533,10.098953 l 1.22686,2.334715 2.10768,-0.152456 c 4.88892,-0.353635 10.43339,1.816192 14.19028,5.553363 5.6104,5.58095 7.18322,13.85481 4.00439,21.06517 l -0.80185,1.81879 1.0601,1.00344 c 1.32172,1.25107 3.83161,4.74923 4.83304,6.73607 l 0.7557,1.49931 h -17.82245 -17.82245 v -5.07119 c 0,-5.81397 -0.15905,-6.93505 -1.13205,-7.97945 -0.68246,-0.73253 -0.68375,-0.77117 -0.049,-1.47258 0.56255,-0.62162 0.65088,-1.33148 0.64465,-5.18118 -0.007,-4.24947 -0.0589,-4.56956 -1.09827,-6.75394 -0.60008,-1.26118 -1.43028,-2.59547 -1.84487,-2.96509 -0.69459,-0.61924 -0.75381,-1.02188 -0.75381,-5.12498 0,-5.235993 -0.19455,-5.67786 -3.05735,-6.943927 -3.37793,-1.493877 -4.74482,-1.032315 -7.1732,2.422192 l -1.17795,1.675695 h -6.77651 -6.77651 l -1.69669,-1.985994 c -0.933178,-1.092299 -2.242301,-2.21397 -2.909164,-2.492603 -1.10785,-0.462888 -1.406095,-0.438253 -3.456157,0.285481 -1.234024,0.435647 -2.675509,1.242818 -3.2033,1.793716 -0.921212,0.961534 -0.965602,1.181195 -1.108971,5.48768 -0.132292,3.97378 -0.240277,4.60749 -0.945646,5.54958 -2.054115,2.74346 -2.431097,4.0014 -2.577056,8.59926 -0.128139,4.03656 -0.08168,4.4375 0.62496,5.39328 l 0.76339,1.03254 -0.726038,1.17476 c -0.654311,1.05869 -0.726034,1.73696 -0.726034,6.86574 v 5.69101 H 66.218534 47.468105 Z"
               id="path2200" />
            <path
               id="path2192"
               style="fill:#273839;fill-opacity:1;stroke-width:1.33333"
               d="m 242.56641,229.66797 c -61.41404,0 -69.26599,0.23473 -71.15821,2.12695 -1.80816,1.8082 -2.07201,5.45494 -1.76172,24.33399 l 0.36524,22.20703 15.125,0.37695 c 12.45672,0.31143 14.99636,0.71485 14.39453,2.2832 -0.40191,1.04735 -6.29318,13.89268 -13.0918,28.54493 -8.15469,17.5748 -13.16508,26.85142 -14.72656,27.25976 -2.2171,0.57978 -2.36719,3.98379 -2.36719,53.8086 0,39.59338 0.40864,53.602 1.59961,54.79296 1.20401,1.20405 19.01183,1.59961 71.95313,1.59961 68.46119,0 70.3898,-0.0695 71.74804,-2.60742 0.92183,-1.72244 1.27743,-20.39846 1.04688,-55 l -0.34766,-52.39258 -15.51758,-0.66601 -15.51757,-0.66797 12.90625,-27.86719 c 9.64803,-20.83188 13.65074,-28.14288 15.85156,-28.95703 2.87078,-1.06193 2.94336,-1.62775 2.94336,-22.69336 0,-18.23221 -0.34486,-21.98528 -2.20703,-24.04297 -2.08366,-2.30226 -6.05504,-2.43945 -71.23828,-2.43945 z m 2.64648,49.25586 -3.8125,8.37109 c -2.09749,4.60498 -7.99465,17.37304 -13.10351,28.37305 l -9.28711,20 -16.77735,0.37305 -16.77539,0.37304 3.14649,-7.03906 c 1.73033,-3.87171 7.66393,-16.63973 13.18554,-28.37305 l 10.03906,-21.33398 16.69336,-0.37305 z m 31.79883,0.0898 c 8.98333,-0.007 16.32371,0.43829 16.30859,0.98828 -0.0136,0.55 -4.85196,11.19932 -10.75195,23.66602 -5.89996,12.46666 -11.65439,24.91798 -12.78711,27.66797 l -2.05859,4.99804 h -16.52149 c -9.08704,0 -16.52344,-0.32903 -16.52344,-0.73242 0,-0.40339 3.47516,-8.0531 7.72071,-17 4.2455,-8.94663 10.09554,-21.51198 13,-27.92187 l 5.27929,-11.6543 z"
               transform="matrix(0.26458334,0,0,0.26458334,43.338034,63.366707)" />
          </g>
        </g>
      </g>
    </g>
  </g>
</svg>
