<?xml version="1.0" encoding="UTF-8" standalone="no"?>
<svg
   xmlns:osb="http://www.openswatchbook.org/uri/2009/osb"
   xmlns:dc="http://purl.org/dc/elements/1.1/"
   xmlns:cc="http://creativecommons.org/ns#"
   xmlns:rdf="http://www.w3.org/1999/02/22-rdf-syntax-ns#"
   xmlns:svg="http://www.w3.org/2000/svg"
   xmlns="http://www.w3.org/2000/svg"
   xmlns:sodipodi="http://sodipodi.sourceforge.net/DTD/sodipodi-0.dtd"
   xmlns:inkscape="http://www.inkscape.org/namespaces/inkscape"
   width="512"
   height="512"
   viewBox="0 0 135.46667 135.46667"
   version="1.1"
   id="svg8"
   inkscape:version="1.0.1 (3bc2e813f5, 2020-09-07)"
   sodipodi:docname="Rolling Thunder.svg">
  <defs
     id="defs2">
    <linearGradient
       id="linearGradient1099-6-5"
       osb:paint="gradient">
      <stop
         style="stop-color:#273839;stop-opacity:0.5"
         offset="0"
         id="stop1151" />
      <stop
         style="stop-color:#273839;stop-opacity:1"
         offset="1"
         id="stop1153" />
    </linearGradient>
  </defs>
  <sodipodi:namedview
     id="base"
     pagecolor="#ffffff"
     bordercolor="#666666"
     borderopacity="1.0"
     inkscape:pageopacity="0.0"
     inkscape:pageshadow="2"
     inkscape:zoom="0.49497475"
     inkscape:cx="255.44885"
     inkscape:cy="98.31473"
     inkscape:document-units="px"
     inkscape:current-layer="g1320"
     inkscape:document-rotation="0"
     showgrid="false"
     inkscape:pagecheckerboard="true"
     inkscape:object-nodes="true"
     fit-margin-top="0"
     fit-margin-left="0"
     fit-margin-right="0"
     fit-margin-bottom="0"
     inkscape:window-width="1600"
     inkscape:window-height="837"
     inkscape:window-x="-8"
     inkscape:window-y="-8"
     inkscape:window-maximized="1"
     units="px" />
  <metadata
     id="metadata5">
    <rdf:RDF>
      <cc:Work
         rdf:about="">
        <dc:format>image/svg+xml</dc:format>
        <dc:type
           rdf:resource="http://purl.org/dc/dcmitype/StillImage" />
        <dc:title></dc:title>
      </cc:Work>
    </rdf:RDF>
  </metadata>
  <g
     inkscape:label="Layer 1"
     inkscape:groupmode="layer"
     id="layer1"
     transform="translate(-59.62574,-110.15787)">
    <path
       style="fill:#000000;stroke-width:0.264583"
       id="path853"
       d="" />
    <path
       style="fill:#000000;stroke-width:0.264583"
       id="path849"
       d="" />
    <g
       id="g1061"
       transform="translate(9.0714285,1.8898814)">
      <g
         id="g1320"
         transform="translate(7.2162774,44.901282)">
        <g
           id="g2047"
           transform="matrix(1.0867718,0,0,1.0867718,-12.269403,-10.795669)">
          <path
             style="fill:#273839;fill-opacity:0.501961;stroke-width:0.352778"
             d="M 94.057339,170.49108 74.397473,151.00679 73.69371,145.71512 c -1.204727,-9.05847 -1.313417,-10.05417 -1.097518,-10.05417 0.1154,0 2.055201,1.86531 4.31067,4.14514 l 4.100853,4.14514 0.236031,3.11722 c 0.304026,4.0152 1.221865,6.90213 3.098978,9.7474 1.7047,2.58394 2.858414,3.41056 4.266756,3.05709 0.819693,-0.20573 2.317076,-1.84579 3.424576,-3.75088 0.465395,-0.80056 15.156754,13.91369 15.156754,15.18037 0,2.97071 4.08017,11.44697 5.92563,12.31008 2.15827,1.00942 3.41012,0.24431 5.61637,-3.43262 2.19058,-3.65081 2.74073,-5.12075 3.31116,-8.84703 l 0.42964,-2.8066 7.48974,-7.48366 c 7.42535,-7.41932 7.4968,-7.4787 8.3121,-6.90765 0.85205,0.5968 2.28273,0.74546 3.32502,0.3455 1.19074,-0.45693 3.25246,-4.23795 3.7115,-6.80656 l 0.43548,-2.43678 4.61845,-4.69519 c 2.75204,-2.79776 4.65361,-4.48324 4.70545,-4.17072 0.0479,0.28846 -0.36229,3.773 -0.91145,7.74342 l -0.99845,7.21893 -19.54573,19.31554 c -10.75016,10.62354 -19.62511,19.31796 -19.72213,19.32091 -0.097,0.003 -9.02333,-8.76255 -19.836251,-19.47892 z m 6.505701,-13.77452 -6.072225,-6.10827 v -6.57283 -6.57283 l 1.273693,-2.17322 1.27369,-2.17323 1.871331,1.84809 1.871331,1.84808 0.12092,3.74582 c 0.11113,3.44247 0.22637,3.97439 1.423,6.56805 0.71614,1.55222 2.02459,4.08838 2.90766,5.6359 l 1.6056,2.81368 v 3.62452 c 0,1.99348 -0.0456,3.62451 -0.10138,3.62451 -0.0558,0 -2.83389,-2.74872 -6.17362,-6.10827 z m 21.8041,1.87494 c 10e-4,-2.59166 0.12677,-3.21406 0.92381,-4.58611 0.50721,-0.87313 1.81499,-3.33375 2.90617,-5.46806 l 1.98397,-3.88055 0.11465,-4.62682 0.11464,-4.62681 1.49776,-1.46994 1.49776,-1.46994 1.47441,2.97546 c 1.45442,2.93514 1.47451,3.02732 1.48281,6.80231 0.005,2.10477 0.15543,4.46101 0.3351,5.2361 l 0.32668,1.40925 -6.32969,6.35186 -6.3297,6.35186 0.002,-2.99861 z m 24.33479,-22.0723 c 0,-0.0951 0.51593,-1.16048 1.14652,-2.36763 l 1.14653,-2.1948 -0.0204,-5.29166 c -0.0221,-5.73934 -0.46786,-7.65303 -1.88772,-8.10367 -0.40577,-0.12879 -0.73776,-0.34413 -0.73776,-0.47854 0,-0.13442 2.94004,-3.17965 6.53342,-6.7672 5.5348,-5.52583 6.5053,-6.36105 6.3495,-5.46448 -0.10115,0.58208 -0.50125,3.51896 -0.88911,6.52639 -1.36329,10.57092 -1.84928,13.93853 -2.06981,14.34261 -0.28508,0.52235 -9.57122,10.02946 -9.57122,9.79898 z m -71.247308,-5.60692 -4.385328,-4.39588 -0.609442,-4.86454 c -0.335193,-2.67549 -0.94957,-7.46021 -1.365283,-10.6327 -0.415712,-3.17249 -0.699223,-5.82479 -0.630023,-5.89399 0.0692,-0.0692 1.865606,1.60558 3.992015,3.72172 l 3.866198,3.84754 0.176389,7.87419 0.176388,7.87419 1.660494,3.43268 c 0.913271,1.88797 1.625264,3.43267 1.582206,3.43267 -0.04306,0 -2.051684,-1.97814 -4.463614,-4.39588 z"
             id="path2043"
             sodipodi:nodetypes="scssscsssssssscsssscscscscsscccccccssscssscsscccccscsccccccscsssssssccscsssscccsss" />
          <path
             style="fill:#273839;fill-opacity:1;stroke-width:0.352778"
             d="m 70.507727,185.53697 c 0.0032,-0.17091 2.265378,-1.17053 5.027083,-2.22137 2.761705,-1.05085 5.695031,-2.19575 6.518502,-2.54421 l 1.497218,-0.63358 -2.757547,-3.98218 C 70.16968,160.8145 67.639997,157.10331 67.741274,157.00804 c 0.06315,-0.0594 2.188114,1.741 4.722143,4.00092 2.534029,2.25992 9.551529,8.51778 15.594442,13.90636 6.042917,5.38858 11.08305,9.95265 11.200303,10.14236 0.137417,0.22235 -4.464378,0.34632 -12.94861,0.34882 -7.238987,0.002 -13.757106,0.10228 -14.48471,0.22255 -0.727604,0.12027 -1.320306,0.0788 -1.317115,-0.0921 z m 70.461563,-0.046 c -7.51858,-0.0531 -13.66043,-0.2138 -13.64856,-0.35705 0.0118,-0.14324 2.59155,-2.51886 5.73264,-5.27915 3.14108,-2.76029 10.23543,-9.0539 15.76522,-13.9858 5.5298,-4.9319 10.10524,-8.91949 10.16765,-8.86132 0.0624,0.0582 -2.01152,3.17677 -4.60874,6.93024 -2.59722,3.75347 -6.178,8.93462 -7.95729,11.51368 l -3.23507,4.6892 1.49381,0.63828 c 0.8216,0.35105 3.75334,1.49529 6.51498,2.54274 4.71623,1.78881 6.07918,2.54426 4.23925,2.34971 -0.43657,-0.0462 -6.94532,-0.1274 -14.46389,-0.18053 z m -27.52947,-6.12571 c -3.17532,-4.97807 -3.4546,-6.30404 -3.46358,-16.44455 l -0.007,-7.84412 -1.23849,-2.03489 c -0.68117,-1.11919 -2.06039,-3.70176 -3.06493,-5.73905 l -1.82644,-3.70417 -0.1049,-9.08403 -0.1049,-9.08402 h 2.2784 c 2.44075,0 2.5046,0.0417 4.56245,2.97658 0.45925,0.65498 0.94994,0.90397 1.78153,0.90397 1.49231,0 1.99436,-0.54535 1.99436,-2.1664 0,-0.72585 0.15875,-1.41785 0.35278,-1.53777 0.21458,-0.13261 0.35278,0.3844 0.35278,1.31974 0,1.83723 0.45827,2.38443 1.99692,2.38443 1.23048,0 1.33549,-0.0848 2.9504,-2.38125 l 1.05432,-1.4993 h 2.29085 2.29084 v 8.80487 8.80487 l -1.70282,3.63054 c -0.93655,1.9968 -2.37598,4.73593 -3.19874,6.08694 l -1.49593,2.45639 0.2423,6.36305 c 0.35832,9.40968 -0.19455,12.21722 -3.46815,17.61178 l -1.26009,2.0765 z m -2.1688,-31.40204 c 0.60838,-1.17648 0.66842,-4.98794 0.0955,-6.06362 -0.4893,-0.91868 -1.41589,-1.65559 -1.79057,-1.42402 -0.32779,0.20259 -0.36202,8.73259 -0.0363,9.05827 0.32354,0.32354 1.13039,-0.40837 1.73141,-1.57063 z m 8.6198,-2.95363 c 0,-2.40244 -0.13471,-4.45133 -0.29936,-4.55309 -0.16464,-0.10175 -0.64089,0.13319 -1.05833,0.52209 -0.66605,0.62052 -0.75898,1.08833 -0.75898,3.82078 0,2.61946 0.11647,3.26175 0.7338,4.04657 0.4036,0.51308 0.87985,0.84262 1.05833,0.73231 0.1785,-0.11032 0.32454,-2.16621 0.32454,-4.56866 z m -8.17755,-10.35068 c 0.10453,-0.7064 0.31445,-0.76182 2.88588,-0.76182 2.60727,0 2.77989,0.0475 2.88588,0.79375 0.074,0.52099 0.35518,0.79375 0.81829,0.79375 0.59371,0 0.72284,-0.27153 0.8146,-1.71307 0.17033,-2.67568 -0.36809,-3.04943 -4.39303,-3.04943 -4.0609,0 -4.71185,0.39261 -4.71185,2.84183 0,0.89468 0.0902,1.71689 0.20044,1.82713 0.44523,0.44523 1.39411,-0.018 1.49979,-0.73214 z m -24.615217,21.13227 c -0.409166,-0.57461 -1.173064,-1.96555 -1.697556,-3.09095 -0.913349,-1.95979 -0.961345,-2.35157 -1.136647,-9.27814 l -0.183032,-7.23194 -1.33398,-2.19751 c -0.73369,-1.20863 -1.804566,-3.30337 -2.379725,-4.65497 -1.036573,-2.43591 -1.045743,-2.5164 -1.045743,-9.17958 v -6.72211 h 1.767242 c 1.664991,0 1.823178,0.0816 2.734026,1.40964 0.883133,1.28768 1.088887,1.40215 2.377899,1.32292 1.351195,-0.083 1.408902,-0.13541 1.359094,-1.23325 -0.02861,-0.63059 0.08039,-1.14653 0.242231,-1.14653 0.161837,0 0.343994,0.51594 0.404795,1.14653 0.09962,1.03324 0.234072,1.15691 1.360787,1.25168 1.093022,0.0919 1.394563,-0.0744 2.397877,-1.32292 1.050061,-1.30666 1.289801,-1.42807 2.819862,-1.42807 h 1.67223 l -0.01316,7.04199 -0.01316,7.04199 -2.383049,4.68787 -2.383053,4.68787 0.0018,5.71528 c 0.0011,3.1434 -0.172794,6.55653 -0.386182,7.58472 -0.365097,1.75919 -2.426318,6.01461 -3.121414,6.4442 -0.174466,0.10782 -0.651979,-0.2741 -1.061145,-0.84872 z M 84.985725,131.6922 c 0.472204,-0.56603 0.66554,-1.36741 0.673908,-2.79337 0.01383,-2.35464 -0.190556,-3.0103 -1.088101,-3.49065 -0.630685,-0.33753 -0.664051,-0.16864 -0.664051,3.36119 0,2.04412 0.09362,3.71658 0.208037,3.71658 0.11442,0 0.506014,-0.35719 0.870207,-0.79375 z m 7.035645,-2.95344 v -3.7472 l -0.79375,0.52536 c -1.511787,1.0006 -1.127164,6.96903 0.449104,6.96903 0.202713,0 0.344646,-1.5432 0.344646,-3.74719 z m -6.35,-7.89448 c 0.306885,-0.57341 0.738653,-0.70555 2.305466,-0.70555 1.412667,0 1.927867,0.13133 1.927867,0.49142 0,0.51869 1.020735,1.07488 1.356477,0.73914 0.321571,-0.32157 0.05447,-2.74597 -0.357181,-3.24197 -0.245865,-0.29626 -1.258443,-0.45804 -2.866795,-0.45804 -2.89523,0 -3.776945,0.53435 -3.776945,2.28894 0,1.69599 0.731749,2.15546 1.411111,0.88606 z m 53.5317,29.78586 c -1.33856,-1.53204 -1.61838,-2.90993 -1.64653,-8.10766 -0.0147,-2.72609 -0.17366,-5.10734 -0.35312,-5.29167 -0.17946,-0.18432 -0.97321,-1.63656 -1.76389,-3.22719 l -1.4376,-2.89206 v -5.13364 -5.13364 h 1.2107 c 0.9475,0 1.37759,0.23438 1.97837,1.07809 0.96794,1.35936 2.46954,1.34894 2.84723,-0.0198 l 0.24337,-0.88195 0.0352,0.97014 c 0.0303,0.83494 0.18266,0.97014 1.0935,0.97014 0.58208,0 1.05833,-0.12882 1.05833,-0.28626 0,-0.15744 0.32368,-0.63369 0.7193,-1.05833 0.8383,-0.89981 2.28538,-1.01921 2.59435,-0.21406 0.11777,0.30691 0.21413,2.65849 0.21413,5.22573 v 4.66772 l -1.54745,3.03264 -1.54744,3.03265 -0.1313,5.05899 c -0.12176,4.69159 -0.20341,5.20628 -1.12433,7.08745 -0.54617,1.11566 -1.14117,2.02847 -1.3222,2.02847 -0.18105,0 -0.68531,-0.40762 -1.12059,-0.90581 z m -0.61503,-18.86363 c 0,-1.1311 -0.67956,-2.45556 -1.25992,-2.45556 -0.0832,0 -0.14591,1.23031 -0.13946,2.73403 l 0.0118,2.73403 0.69382,-0.83283 c 0.42331,-0.50814 0.69381,-1.35792 0.69381,-2.17967 z m 4.23333,0.14708 c 0,-2.35025 -0.0667,-2.6337 -0.52917,-2.24986 -0.93177,0.7733 -0.57472,4.93889 0.42334,4.93889 0.0582,0 0.10583,-1.21006 0.10583,-2.68903 z m -4.23333,-5.77764 c 0,-0.19403 0.635,-0.35278 1.41111,-0.35278 0.77611,0 1.41111,0.15875 1.41111,0.35278 0,0.19403 0.24818,0.35278 0.55152,0.35278 0.40972,0 0.52309,-0.29479 0.44097,-1.14653 l -0.11055,-1.14653 h -2.29305 -2.29306 l -0.11054,1.14653 c -0.0821,0.85174 0.0312,1.14653 0.44097,1.14653 0.30334,0 0.55152,-0.15875 0.55152,-0.35278 z m -24.90742,-4.02506 c -0.1154,-0.30072 -0.075,-11.85891 0.0898,-25.684864 0.28034,-23.523705 0.33923,-25.145702 0.91694,-25.256617 0.58035,-0.111419 0.62244,0.930124 0.70196,17.369841 0.0465,9.618602 0.0862,21.17931 0.0882,25.69045 l 0.004,8.20208 -0.79532,0.11294 c -0.47347,0.0672 -0.88024,-0.10833 -1.00515,-0.43383 z m 25.61297,-24.913789 c 0,-17.490434 0.0627,-19.790683 0.54439,-19.975526 0.29941,-0.114895 0.5985,-0.1496 0.66466,-0.07712 0.0662,0.07248 0.18821,9.061464 0.27122,19.975526 l 0.15093,19.843749 h -0.8156 -0.8156 z M 87.082481,95.444284 c 0,-14.68462 0.02148,-15.169445 0.672359,-15.169445 0.648332,0 0.677009,0.520145 0.802379,14.552084 0.07151,8.003647 0.06793,14.829897 -0.0079,15.169447 -0.07588,0.33955 -0.436954,0.61736 -0.802379,0.61736 -0.640405,0 -0.664422,-0.54832 -0.664422,-15.169446 z"
             id="path2041" />
        </g>
      </g>
    </g>
  </g>
</svg>
