<svg height="512" viewBox="0 0 135.46667 135.46667" width="512" xmlns="http://www.w3.org/2000/svg"><path d="m144.49722 188.9037c-.78153-.33914-2.93418-2.06329-4.78368-3.83144-2.78821-2.66558-3.83929-3.38143-6.1521-4.18992-3.85638-1.34809-3.92026-1.46032-3.31083-5.81768.47245-3.37799.60263-3.69248 2.0544-4.96319.85247-.74617 2.01794-1.46021 2.5899-1.58677.57196-.12654 2.06946-.604 3.32777-1.06099s3.13018-1.12716 4.15972-1.48926c1.02952-.3621 2.61069-1.19282 3.5137-1.84604.90302-.65322 2.14989-1.18768 2.77083-1.18768 1.41744 0 2.94323 1.73808 3.91112 4.45527.39032 1.09576 1.51534 3.67697 2.50006 5.73603.9969 2.08457 2.01183 4.98851 2.29007 6.55242.59985 3.37162.19964 4.24404-2.82746 6.16377-1.52701.96841-7.9744 3.772-8.50516 3.69839-.0646-.009-.75684-.29376-1.53834-.63291zm-85.251199-2.51599c-2.585833-2.58092-3.57104-3.18941-8.658869-5.34795-.955583-.40541-2.265893-1.28872-2.911801-1.96289-1.116916-1.16581-1.173723-1.41272-1.160985-5.04622.01584-4.5187.741284-7.77512 1.994334-8.95229 1.443092-1.35572 5.405736-1.76853 13.26635-1.38204 8.544933.42013 9.3012.74019 8.840544 3.7413-.163836 1.06738-.337609 5.02926-.386165 8.8042-.106994 8.31869-.29037 8.81016-4.047179 10.84709-4.291447 2.32682-3.858615 2.37057-6.936229-.7012zm14.489159.74335c-.92604-.74986-.928576-.7804-.2376-2.86074.384139-1.15653.652814-2.78015.597059-3.60804-.05576-.82789.07722-1.67058.295509-1.87266.218286-.20208 2.226351-1.04518 4.462367-1.87358 3.907283-1.44755 7.373731-1.96063 7.373731-1.0914 0 .22813.670296 1.15672 1.489548 2.06353.819247.90681 1.426378 1.97675 1.349174 2.37764-.211571 1.0986-3.837583 3.69612-8.05755 5.77207-4.081378 2.00779-5.819987 2.26914-7.272238 1.09318zm87.82499-6.61099c-.58302-.4721-1.34996-1.99386-1.93525-3.83987l-.96951-3.05787 2.94594-2.89955c1.62026-1.59475 3.74724-3.254 4.72661-3.68723.97938-.43322 2.73125-1.75843 3.89306-2.94488 2.37171-2.42205 2.78095-2.35542 3.2786.53378.5659 3.28543-.11847 6.62961-2.13486 10.43217-1.72296 3.24921-1.99646 3.54824-4.24365 4.63993-3.30911 1.60757-4.39422 1.76826-5.56094.82352zm-73.316949-3.38132c-1.700097-1.51904-1.393617-2.39007.969853-2.75642 2.806402-.435 4.595328-1.0707 6.032798-2.14372 1.50721-1.1251 1.79967-1.20182 1.78578-.46848-.0182.96278-5.622131 6.55155-6.569282 6.55155-.492377 0-1.490992-.53232-2.219149-1.18293zm-14.392126-2.60889c-.566531-.58213-.711785-5.92381-.25225-9.27648.252832-1.84461.385798-2.01275 2.391837-3.02451 1.942711-.97981 12.405733-6.88758 14.361377-8.1089 1.508183-.94188 1.49505.0953-.03686 2.91084-.831964 1.52907-2.104063 4.83691-2.826888 7.35075s-1.773228 5.17239-2.334237 5.90791c-2.045935 2.68236-9.937899 5.64308-11.302983 4.24039zm82.919795-5.29891c-.12078-.19541-.7175-1.73971-1.32605-3.43175-.60855-1.69206-1.36311-3.44569-1.67682-3.89696-.31371-.45128-.57037-1.15494-.57037-1.5637 0-.97967 3.95069-7.0477 6.30165-9.67897 1.02205-1.14391 2.49038-2.97304 3.26292-4.06473.77256-1.09167 1.60399-1.91877 1.84763-1.838.24365.0808.75152 1.25475 1.12863 2.60883.3771 1.35408 1.00812 3.21071 1.40226 4.12585.63898 1.48362.6608 2.04696.20136 5.19964-.28339 1.94467-.78221 4.19092-1.1085 4.99166-.76587 1.87953-7.10412 7.88648-8.33172 7.89622-.50126.005-1.01021-.15266-1.13099-.34809zm-30.16709-2.51669c-1.29445-1.8179-1.03311-6.89331.67227-13.05619.81203-2.93448 1.64275-3.52393 3.55936-2.52556.74561.38839 1.91669.82281 2.6024.96538 1.55766.32385 1.75753 1.12578 1.82384 7.31789.0504 4.70009-.2095 5.59481-1.62466 5.59481-.37153 0-1.59701.65515-2.72327 1.4559-2.49001 1.77032-3.19684 1.81096-4.30994.24777zm47.8084-1.93231c0-1.19185-1.07738-3.5151-1.63007-3.5151-.75015 0-.76191-1.19562-.0371-3.77817l.7491-2.66939.92337 2.04113c1.12427 2.48526 1.43685 4.57335 1.0604 7.08371-.30269 2.01838-1.06566 2.61825-1.06566.83782zm-35.23545-2.06208c-1.30428-.91354-1.62943-4.29372-.80742-8.39362.60196-3.00239.8005-3.38702 2.59916-5.03536 1.07109-.98156 2.95037-2.45037 4.17621-3.26403 1.22583-.81367 3.33938-2.72184 4.69678-4.24039 1.35739-1.51854 2.60321-2.62577 2.7685-2.46048.16528.16528-.00083 2.1278-.36958 4.36115-.59778 3.62239-1.65803 10.41222-2.21038 14.15525-.17937 1.21547-.51737 1.51101-3.19615 2.79472-2.33786 1.12033-6.26707 2.7096-6.69906 2.7096-.0348 0-.46586-.28209-.95806-.62684zm-89.886849-2.5716c-.934663-.78093-1.166415-2.17318-1.000485-6.01043.07121-1.64668.342449-2.20095 1.851307-3.78305.972333-1.01954 2.257718-2.40115 2.85641-3.07025s2.155575-1.75642 3.459741-2.41627c2.482286-1.25592 6.474971-1.9574 6.474971-1.13758 0 .25105-.539538 1.53837-1.198974 2.86072-.756558 1.51711-1.275988 3.32523-1.407686 4.90011-.115767 1.38431-.580349 3.14421-1.04319 3.95173-.458963.80075-1.055877 2.15524-1.326476 3.00999-.270599.85477-.618731 1.63138-.773628 1.72583-.154898.0944-1.791107.29564-3.636021.4471-2.885713.23691-3.480358.17014-4.255969-.4779zm11.95844.10058c-.638191-.63818-.463658-1.78759.589704-3.88354.542332-1.07912 1.124713-2.43001 1.294184-3.00197.993404-3.35274 2.597096-4.89603 7.911059-7.61311 1.759596-.89969 2.747066-1.08398 6.412865-1.19685 3.056176-.0941 4.381099.0106 4.496194.35604.08976.2692-.483833 1.48593-1.274633 2.70382-.790794 1.21789-1.971736 3.19145-2.624317 4.38568-.65258 1.19424-2.271142 3.66079-3.596806 5.48124l-2.410298 3.3099-5.200801-.0724c-2.86044-.0399-5.379158-.25078-5.597151-.46878zm29.26687-.0771c-.150844-.39309.292657-1.68553 1.052985-3.06856.722477-1.31419 1.313596-2.79093 1.313596-3.28166 0-.63645.73397-1.36663 2.56032-2.54705 2.96452-1.91606 3.87507-2.10604 3.44542-.71888-.56584 1.82688-2.38106 5.12195-3.83834 6.96753-2.52632 3.19945-3.993671 4.05665-4.533981 2.64862zm41.051919-9.57969c-1.32675-.91372-1.64962-1.39176-1.65752-2.45411-.008-1.1112 3.35697-7.34834 4.09302-7.58605.42929-.13865.47885.0527.20798.80313-.32232.89286-.35151 5.30472-.056 8.47262.14237 1.52651-.99353 1.86209-2.58742.76441zm36.50404-.43871c-.37112-.41009-1.16854-2.11445-1.77203-3.78746-1.0722-2.97238-1.08012-3.06736-.34681-4.15775.41274-.61373 1.0944-1.86463 1.51479-2.77977.71323-1.55255.80252-1.61206 1.33477-.88942 1.13645 1.54303 1.37876 9.79634.34199 11.64893-.37324.66695-.43982.66481-1.07271-.0345zm-92.633435-6.74126c-.461699-.2973-.487237-.51707-.11256-.96854 1.175217-1.41603 8.191145-4.0551 10.780476-4.0551 1.253884 0 1.211279.85614-.09129 1.83433-.574099.43112-1.41251 1.38043-1.863137 2.10955-.813743 1.31666-.844142 1.32615-4.467804 1.395-2.006666.0382-3.917227-.10376-4.245695-.31524zm-11.914441-.50056c-.188092-.30435-1.144372-.39107-2.728365-.24744-1.341323.12163-2.43877.0772-2.43877-.0986 0-.3757 4.253004-2.29256 5.971397-2.69134 1.425259-.33077 4.843861.12188 4.843861.64136 0 .20281-.233985.37395-.519964.38032-.285981.006-1.255262.56793-2.153959 1.2479-1.74577 1.32092-2.510355 1.5183-2.9742.76778zm82.655356-.92404c-.72084-.86857 1.59403-5.08569 4.58102-8.34547 2.37331-2.59005 3.56193-3.23926 3.41633-1.86596-.0338.31943-.29675 1.76635-.58418 3.21532-.39902 2.01162-.7287 2.71318-1.39431 2.96717-.47946.18295-1.67842 1.29045-2.66438 2.46113-1.85288 2.20001-2.55675 2.52899-3.35448 1.56781zm-35.40028-20.4084c-1.8252-1.67498-3.64307-2.92762-4.88939-3.36912-7.643388-2.70762-8.015538-3.14595-8.015538-9.44135 0-4.47714.63107-7.25347 1.82413-8.02512 1.836908-1.188079 6.174438-1.745383 13.247768-1.702144 6.955.04257 6.96131.04339 8.06591 1.148024 1.04676 1.04677 1.08043 1.20496.63375 2.97886-.33593 1.33409-.35996 3.53572-.0835 7.64803.3591 5.34043.18841 7.99104-.59637 9.26081-.47377.76659-5.88282 4.16833-6.62799 4.16833-.35936 0-1.96084-1.19983-3.55883-2.66632zm15.38113.4554c-.74557-.3834-1.0091-.82319-.93102-1.55375.0599-.56045.22596-2.39253.36902-4.07128l.26012-3.0523 3.13575-1.429c5.62424-2.56305 8.81333-3.17103 8.81333-1.68021 0 .3232.65517 1.08735 1.4559 1.69811.80075.61075 1.45591 1.43732 1.45591 1.83682 0 1.4562-4.57489 5.02773-9.8655 7.70183-2.43602 1.23128-3.19531 1.32022-4.69351.54978zm14.55901-10.14735c-1.16313-.42768-2.07986-1.49391-2.07986-2.41905 0-.79811.34703-.98962 2.59451-1.43179 2.94448-.57928 4.33788-1.20675 5.47839-2.46701.43529-.48099.94962-.87451 1.14294-.87451.85791 0 .15184 1.26669-2.37656 4.26369-2.57885 3.05679-3.26414 3.47848-4.75942 2.92867zm-15.46877-2.89034c-.75281-.8335-.96303-2.76874-.83617-7.69783l.0821-3.187819 3.43177-2.066876c1.88747-1.136788 5.58441-3.49149 8.21543-5.232666 4.34402-2.874829 5.82361-3.618483 5.82361-2.926969 0 .134585-.57732 1.491695-1.28291 3.015793-.70561 1.524097-1.53301 3.800623-1.8387 5.058933-.30569 1.258322-.84791 3.492976-1.20491 4.965904-.78817 3.25187-2.47186 5.16401-6.22366 7.06818-3.3664 1.70857-5.25238 2.01545-6.1665 1.00335zm-25.636338-13.164459c-.77876-.828952-.90801-1.445142-.90801-4.328814 0-3.333653.0151-3.380959 1.767868-5.559321 3.54325-4.403419 6.6373-6.627921 10.08732-7.252354 2.19556-.39739 2.4415.19247 1.20573 2.891749-.74528 1.627909-1.13239 3.236515-1.19377 4.960665-.05 1.403354-.37531 3.113118-.723 3.799467-.34768.686361-.95342 2.230881-1.34606 3.432275-.78879 2.413445-.75321 2.394567-5.25032 2.785438-2.48345.215851-2.81427.149584-3.639758-.729105zm11.966998-.521175c-.36762-.442952-.32887-.998512.16441-2.357508.35495-.97789 1.11567-3.088287 1.69049-4.689783 1.17848-3.283315 2.64394-4.853893 6.82953-7.319434 2.35204-1.385467 2.86776-1.515926 6.98992-1.768142 2.44778-.149774 4.53577-.187046 4.63997-.08289.10423.104235-.34805 1.087053-1.005 2.184116-.65695 1.097064-1.80129 3.280072-2.54299 4.851135-1.02393 2.168929-4.52586 7.856823-5.76063 9.356524-.0678.08242-2.46368.207351-5.32405.277639-4.05794.09975-5.30638.00046-5.68165-.451701zm29.83139-.87705c-.5294-.529406-.27173-1.841214.76262-3.882396.57196-1.128712 1.03992-2.494948 1.03992-3.036086 0-.71249.64552-1.462135 2.34015-2.717639 2.79743-2.072535 3.61508-2.221942 3.22803-.589837-.49284 2.078267-1.37882 3.899258-3.31172 6.806761-2.05639 3.09325-3.32028 4.157923-4.059 3.419197zm-33.35009-16.356603c1.04277-1.687242 7.1693-3.640131 9.46305-3.016442l1.14057.310136-2.14458 1.593678c-2.07044 1.538578-2.20356 1.577159-3.85089 1.11593-1.22691-.343505-2.03351-.353339-2.87081-.03502-1.45505.553214-2.06655.564368-1.73734.03172zm17.01124-.195582c-.64339-.470462-.48451-.682376 1.53639-2.049295 1.23969-.838516 3.44363-1.894275 4.89763-2.34613 2.59161-.805381 5.05183-1.078091 5.05183-.559992 0 .143865-.60836.969894-1.35191 1.835624-.74354.86573-1.63268 1.946888-1.97585 2.402562-.50657.672612-1.26524.867393-4.03222 1.035231-2.37569.144101-3.62567.04775-4.12587-.318z" fill="#273839" stroke-width=".415972" transform="translate(-43.338034 -63.366707)"/></svg>