<svg height="512" viewBox="0 0 135.46667 135.46667" width="512" xmlns="http://www.w3.org/2000/svg"><g fill="#273839" transform="matrix(1.1664504 0 0 1.1664497 -14.93423 -14.680694)"><g stroke-linecap="round" stroke-linejoin="round"><path d="m248.03906 206.57617a54.015231 54.015231 0 0 0 -53.83789 54.01563 54.015231 54.015231 0 0 0 54.01563 54.01562 54.015231 54.015231 0 0 0 54.01562-54.01562 54.015231 54.015231 0 0 0 -54.01562-54.01563 54.015231 54.015231 0 0 0 -.17774 0zm.45899 18.1836a35.860417 35.734146 0 0 1 35.85937 35.73242 35.860417 35.734146 0 0 1 -35.85937 35.73437 35.860417 35.734146 0 0 1 -35.86133-35.73437 35.860417 35.734146 0 0 1 35.86133-35.73242z" stroke-width="6.96155" transform="matrix(.26458333 0 0 .26458333 4.989284 1.965469)"/><path d="m69.747284 85.086288h1.603617v23.98744h-1.603617z" stroke-width="1.85208"/><path d="m69.747665 32.233738h1.603617v24.521978h-1.603617z" stroke-width="1.8726"/><path d="m84.836754 69.859444h24.379465v1.511905h-24.379465z" stroke-width="2.06636"/><path d="m32.014584 69.859467h24.379465v1.511905h-24.379465z" stroke-width="2.06636"/></g><path d="m93.655949 68.114677 2.605876-1.469982c1.911084 9.454237-1.386864 17.736442-9.554885 24.922881-7.652626 6.447329-25.116491 4.669703-32.606881-.601355l2.873147-1.737252c6.394195 5.003995 18.774082 7.115567 27.461943.06682 6.983432-5.737043 10.423456-12.673393 9.2208-21.181112z" fill-opacity=".5"/><path d="m98.231285 60.150179 2.315105-2.456846c3.06783 2.35221 3.75855 13.931293 3.6144 14.103236-.009 4.210886-1.07741 8.090998-2.5041 11.859003l-7.701262 5.24442c2.863651-4.363987 6.372052-10.845509 6.236612-17.245163.32419-4.947907-.710885-8.218246-1.960755-11.50465z" fill-opacity=".5"/><path d="m253.56836 141.01562c-71.62786-.45189-143.7288 40.42791-213.748048 119.26172 143.513938 158.73249 278.612388 158.79501 418.363278 1.60547-66.21024-81.16464-135.1913-120.42919-204.61523-120.86719zm-.89063 11.72266c63.59748.34383 126.95918 35.72598 189.76954 109.14453-127.27323 140.8156-256.83542 144.39655-387.023442-1.60547 65.770292-70.94944 131.637462-107.89381 197.253902-107.53906z" transform="matrix(.26458333 0 0 .26458333 4.989284 1.965469)"/><path d="m47.652181 53.515078-8.018086 5.545843c-1.261098 3.547302-2.011249 7.36711-1.937703 11.626223-.06474 4.870692.655792 9.412074 3.340867 13.129617l2.672697-2.605878c-1.040347-3.378475-2.032305-6.775561-1.937705-10.590554.38592-9.840938 3.149467-13.429595 5.87993-17.105251z" fill-opacity=".5"/><path d="m47.984075 73.072239-3.071056 1.700892c-.472626-7.133131.167367-14.286866 6.425594-21.544642 8.272998-8.415849 21.431747-7.704806 27.025298-6.283854 3.883156.463271 6.392438 2.042813 8.882441 3.63802l-3.023809 1.795386c-2.509039-1.649463-4.484955-2.53732-6.37835-3.307291-10.561617-3.857661-20.94409 2.360316-24.095983 6.18936-5.761207 6.372074-6.64594 12.192094-5.764135 17.812129z" fill-opacity=".5"/></g></svg>