<svg height="511.99997" viewBox="0 0 135.46666 135.46666" width="511.99997" xmlns="http://www.w3.org/2000/svg"><g fill="#273839" transform="matrix(1.2701077 0 0 1.2701083 -30.328881 -154.74008)"><path d="m69.381809 167.61329-.334087-7.14946c-5.672281 4.40364-6.539984 11.07397-6.882188 12.59507 3.143598-.79312 4.822154-3.61475 7.216275-5.44561z"/><path d="m69.689355 169.40563c-.154811-.20885-.318116-.32144-.519718 0-1.637897 3.63014-6.244479 6.26811-6.520087 6.85082-1.632587 1.60739-2.106253 7.17231-3.094681 10.53609.832324 4.46832 2.912844 7.93808 4.370351 11.90625.301368.56245.754988.7259 1.511903.0945l8.268229-7.29966c.937551-2.23333-.763597-4.49615-.68508-9.61477l-2.504094-7.89025c-.101219-1.54351-.06524-3.0995-.826823-4.58298z"/><path d="m54.7321 175.96546-1.45328 6.01356c-2.10263.47693-4.016219 1.54089-5.278572 4.62711.509807-2.09038.747099-4.16562 2.00452-6.29754 1.306049-1.56759 3.033549-2.94787 4.727332-4.34313z"/><path d="m51.215769 184.87904c.804861-.97261 1.290461-.75524 1.606399.0945.521538 3.00851 1.20606 5.84842 3.62621 7.55952 1.82085 1.59414 3.271825 6.7821 4.430921 10.39322-1.858879 1.77957-3.85564 4.30987-5.579252 5.32869-1.285003.89651-2.401038.70678-3.374277-.40091l-4.76074-5.24516c.173805-3.59524-.160264-7.26303.601358-10.7743.584494-2.43548 1.577145-4.78651 3.449381-6.95556z"/><path d="m48.380949 131.65526 3.96875-2.45684-.330729 41.76637c-2.890063-7.0932-1.729483-14.89085-1.984375-22.44234z"/><path d="m63.783477 125.11155 3.496281-.77957-.519718 30.28534c-2.820861-9.62012-2.062298-19.66135-2.976563-29.50577z"/><path d="m86.019338 124.81675 4.643808 1.16931-3.942226 27.79603c-1.289399-9.72548-.610973-19.31978-.701582-28.96534z"/><path d="m103.9431 132.35041 3.30746 2.58918c-.073 13.98675.65182 28.70041-4.86626 37.72609 1.89843-12.92415.62467-25.03032 1.5588-40.31527z"/><path d="m89.557002 175.099h1.747867c-.557245-4.43912.128844-7.34627-2.69308-14.57579-.04559-.37437-.792048-.59094-.944941 0l-1.346541 6.40197c2.378664 2.05716 2.337607 5.35688 3.236695 8.17382z"/><path d="m79.203965 189.99711c-.204726.77854-.899186.64393-.200451 2.37202 1.50686 2.90238 4.616098 5.34694 7.283093 7.91786.735484.72115 1.565458.75906 2.505652 0 2.747702-2.45467 3.288735-5.64489 4.677216-8.55263.599154-1.31397.662039-3.00532-.434313-5.51243l-4.977895-8.78649-2.305198-6.94901c-.180098-.53042-.450025-1.25031-.835218-.0334z"/><path d="m99.483039 190.21426c4.289041-3.5191 4.962331-6.91899 5.261871-10.30657.6246 1.63654 1.26324 3.22012.36749 10.59055-2.40544.8544-4.71124 1.53004-5.629361-.28398z"/><path d="m98.17931 192.41494-5.953125 10.53608.09449 2.4096c2.01808 1.28114 3.359983 3.41485 4.356032 5.98464 1.578465 1.55183 3.538823-.37 4.460063-1.40316 1.95872-2.73438 2.0142-5.82122 2.90656-8.75308.58015-1.98728 1.32412-3.89265 1.40316-6.13049.0624-.43566.0949-2.00236-1.11919-1.80407-2.34959.32069-4.331103-.0948-6.14799-.83952z"/><path d="m59.091933 210.92765c-.984451 1.59911-1.503774 3.15496-.584652 4.57699l6.965711 9.02035c.98944 1.2637 2.535218 1.6929 4.593696 1.35305l9.655112-3.04019c1.334956-.41083 2.734527-.73982 4.727329-.31738 2.362372.69736 4.236364.85052 5.044712-.18375 1.519089-1.92653 1.425367-4.3418 2.021226-6.5481.3715-.87537.544223-1.89982-.08352-3.52462-1.307654-2.56944-5.04628-4.81545-6.046973-6.09709l-2.037931-2.92326c-.705753-.84095-1.667324-.49742-1.921-.86862l-2.422128-4.47677c-1.407847-1.89996-4.507023-1.61481-5.896634-.23386l-5.829818 5.84652c-3.297394 2.79679-6.116738 4.11414-8.18513 7.41673z"/></g></svg>