<?xml version="1.0" encoding="UTF-8" standalone="no"?>
<svg
   xmlns:osb="http://www.openswatchbook.org/uri/2009/osb"
   xmlns:dc="http://purl.org/dc/elements/1.1/"
   xmlns:cc="http://creativecommons.org/ns#"
   xmlns:rdf="http://www.w3.org/1999/02/22-rdf-syntax-ns#"
   xmlns:svg="http://www.w3.org/2000/svg"
   xmlns="http://www.w3.org/2000/svg"
   xmlns:sodipodi="http://sodipodi.sourceforge.net/DTD/sodipodi-0.dtd"
   xmlns:inkscape="http://www.inkscape.org/namespaces/inkscape"
   width="512"
   height="512"
   viewBox="0 0 135.46667 135.46667"
   version="1.1"
   id="svg8"
   inkscape:version="1.0.1 (3bc2e813f5, 2020-09-07)"
   sodipodi:docname="Enhanced Minigun - Sheila.svg">
  <defs
     id="defs2">
    <linearGradient
       id="linearGradient1099-6-5"
       osb:paint="gradient">
      <stop
         style="stop-color:#273839;stop-opacity:0.5"
         offset="0"
         id="stop1151" />
      <stop
         style="stop-color:#273839;stop-opacity:1"
         offset="1"
         id="stop1153" />
    </linearGradient>
  </defs>
  <sodipodi:namedview
     id="base"
     pagecolor="#ffffff"
     bordercolor="#666666"
     borderopacity="1.0"
     inkscape:pageopacity="0.0"
     inkscape:pageshadow="2"
     inkscape:zoom="0.98994949"
     inkscape:cx="146.12365"
     inkscape:cy="240.95232"
     inkscape:document-units="px"
     inkscape:current-layer="g1320"
     inkscape:document-rotation="0"
     showgrid="false"
     inkscape:pagecheckerboard="true"
     inkscape:object-nodes="true"
     fit-margin-top="0"
     fit-margin-left="0"
     fit-margin-right="0"
     fit-margin-bottom="0"
     inkscape:window-width="1600"
     inkscape:window-height="837"
     inkscape:window-x="-8"
     inkscape:window-y="-8"
     inkscape:window-maximized="1"
     units="px" />
  <metadata
     id="metadata5">
    <rdf:RDF>
      <cc:Work
         rdf:about="">
        <dc:format>image/svg+xml</dc:format>
        <dc:type
           rdf:resource="http://purl.org/dc/dcmitype/StillImage" />
        <dc:title></dc:title>
      </cc:Work>
    </rdf:RDF>
  </metadata>
  <g
     inkscape:label="Layer 1"
     inkscape:groupmode="layer"
     id="layer1"
     transform="translate(-59.62574,-110.15787)">
    <path
       style="fill:#000000;stroke-width:0.264583"
       id="path853"
       d="" />
    <path
       style="fill:#000000;stroke-width:0.264583"
       id="path849"
       d="" />
    <g
       id="g1061"
       transform="translate(9.0714285,1.8898814)">
      <g
         id="g1320"
         transform="translate(7.2162774,44.901282)">
        <g
           id="g1435"
           transform="matrix(1.4422948,0,0,1.4422948,-44.582034,-61.604773)">
          <path
             style="fill:#273839;fill-opacity:0.5;stroke-width:0.264583"
             d="m 101.2682,178.10671 c -0.0897,-0.14508 -0.14092,-1.45389 -0.11389,-2.90847 0.0314,-1.69114 -0.0619,-2.77842 -0.25871,-3.0156 -0.20354,-0.24525 -0.28229,-1.34398 -0.23245,-3.2431 l 0.0754,-2.87217 h 6.61459 6.61458 v 3.0427 3.04271 l 2.77813,-0.0781 c 1.94495,-0.0547 3.03295,-0.20996 3.6278,-0.51768 0.64436,-0.33333 1.02685,-0.37725 1.58279,-0.18174 1.37674,0.48418 1.51504,2.64988 0.20726,3.24574 -0.99433,0.45305 -1.39623,0.38687 -2.13462,-0.35151 -0.62119,-0.6212 -0.82982,-0.66146 -3.42755,-0.66146 h -2.7661 v 2.38125 2.38125 h -6.20209 c -3.83673,0 -6.26427,-0.1006 -6.36512,-0.26378 z m -5.953624,-10.28823 c 0,-2.5878 0.01799,-2.66145 1.761855,-7.2099 1.684899,-4.39466 1.768684,-4.72251 1.918229,-7.5058 l 0.156374,-2.91041 1.785936,-0.0782 c 1.56894,-0.0687 1.78594,-0.14106 1.78594,-0.59531 0,-0.46278 -0.19053,-0.51708 -1.81438,-0.51708 h -1.814376 l -0.139075,-8.13594 c -0.09941,-5.81582 -0.05428,-8.241 0.158276,-8.50437 0.241099,-0.29874 0.992485,-0.33525 3.971845,-0.19303 2.02097,0.0965 3.77825,0.23953 3.90506,0.31791 0.12681,0.0784 0.23057,0.98005 0.23057,2.00373 0,1.63873 -0.0633,1.87778 -0.52917,1.99962 -0.51164,0.13379 -0.52917,0.3609 -0.52917,6.8544 0,5.7934 0.0545,6.71601 0.39688,6.71601 0.32758,0 0.39687,0.48507 0.39687,2.77813 0,2.29305 -0.0693,2.77812 -0.39687,2.77812 -0.32758,0 -0.39688,0.48507 -0.39688,2.77813 v 2.77812 h 1.32292 1.32292 v -2.65413 c 0,-2.11516 -0.0806,-2.68507 -0.39688,-2.80644 -0.31755,-0.12185 -0.39687,-0.7019 -0.39687,-2.90211 0,-2.26789 0.0696,-2.74982 0.39687,-2.74982 0.34236,0 0.39688,-0.92289 0.39688,-6.71856 0,-5.72799 -0.0585,-6.74103 -0.39688,-6.87087 -0.30027,-0.11522 -0.39687,-0.60134 -0.39687,-1.99707 0,-1.01462 0.10585,-1.91019 0.23523,-1.99015 0.12938,-0.08 1.7721,-0.22316 3.65049,-0.31823 4.46079,-0.22577 4.58094,-0.16601 4.58094,2.27816 0,1.00494 -0.11906,1.90074 -0.26458,1.99068 -0.16421,0.10149 -0.26458,2.51629 -0.26458,6.36562 v 6.20209 h -1.98438 c -1.79317,0 -1.98437,0.0499 -1.98437,0.51758 0,0.45897 0.2172,0.52637 1.91823,0.59531 l 1.91822,0.0777 0.13571,2.91041 c 0.13102,2.80978 0.19735,3.07191 1.91823,7.58072 1.75387,4.59523 1.78252,4.71128 1.78252,7.21983 v 2.54952 l -2.44739,-0.0761 -2.4474,-0.0761 -0.13229,-3.175 c -0.12664,-3.03932 -0.18317,-3.29373 -1.32292,-5.95313 l -1.19062,-2.77812 -0.079,1.51041 c -0.0768,1.46823 -0.0491,1.53743 0.99219,2.47818 0.7805,0.70514 1.07121,1.17483 1.07121,1.73074 v 0.76296 h -6.74687 c -6.24766,0 -6.74718,-0.0343 -6.75093,-0.46302 -0.003,-0.3957 -0.0413,-0.40532 -0.26053,-0.0662 -0.14107,0.21828 -0.25831,1.6768 -0.26053,3.24115 l -0.004,2.84427 h -2.381254 -2.38125 z m 7.340094,-7.36132 c 0.0613,-1.46867 0.0478,-1.50426 -0.32066,-0.8413 -0.21158,0.38074 -0.63118,1.31758 -0.93244,2.08189 l -0.54775,1.38964 0.8684,-0.54835 c 0.80176,-0.50627 0.87331,-0.66602 0.93245,-2.08188 z m -7.340094,-29.45935 c -0.800365,-0.27652 -2.509512,-1.01197 -3.798107,-1.63432 l -2.342899,-1.13154 1.152274,-0.17883 c 0.633751,-0.0984 1.836883,-0.18765 2.673628,-0.19844 0.836745,-0.0108 1.517179,-0.1089 1.512078,-0.21804 -0.0051,-0.10915 -0.831887,-1.44533 -1.837304,-2.9693 -1.005414,-1.52397 -1.794539,-2.80434 -1.753613,-2.84527 0.04093,-0.0409 1.224452,0.18446 2.630053,0.50085 1.405605,0.31639 2.602566,0.5252 2.659915,0.46402 0.05735,-0.0612 -0.165357,-1.30187 -0.494906,-2.75708 -0.329549,-1.4552 -0.560107,-2.68995 -0.51235,-2.74387 0.04775,-0.0539 0.568569,0.2835 1.157364,0.74984 l 1.070534,0.84788 v 6.32776 c 0,4.89614 -0.07483,6.3234 -0.330729,6.30844 -0.181901,-0.0106 -0.985573,-0.24558 -1.785938,-0.5221 z m 21.714374,-5.47784 0.0186,-6.01927 1.70125,-1.12167 c 0.93568,-0.61692 1.70124,-1.01698 1.70124,-0.88902 0,0.12795 -0.23927,1.39554 -0.53172,2.81685 -0.29245,1.42132 -0.49012,2.62582 -0.43927,2.67666 0.0508,0.0508 1.18664,-0.16273 2.52398,-0.47462 1.33735,-0.3119 2.49418,-0.50444 2.57073,-0.42789 0.0766,0.0766 -0.64802,1.3562 -1.61018,2.84365 -0.96215,1.48744 -1.68179,2.77202 -1.59919,2.85461 0.0826,0.0826 1.30963,0.2247 2.72676,0.3158 l 2.5766,0.16561 -2.77812,1.34375 c -2.82082,1.36439 -4.61047,1.93481 -6.07029,1.93481 h -0.80888 l 0.0186,-6.01927 z m -17.627424,5.15191 c -0.07138,-0.18601 -0.09741,-2.71609 -0.05784,-5.6224 l 0.07193,-5.2842 0.992194,-0.0821 0.99218,-0.0821 v 5.70451 5.70451 h -0.93434 c -0.514404,0 -0.99268,-0.152 -1.064126,-0.33819 z m 8.801974,0.17434 c -0.10391,-0.10391 -0.18892,-6.89611 -0.18892,-15.09379 v -14.90486 h 1.06052 1.06051 l -0.0683,15.01511 -0.0683,15.0151 -0.80326,0.0787 c -0.44179,0.0433 -0.88828,-0.006 -0.99219,-0.11025 z m 4.7625,0 c -0.1039,-0.10391 -0.18892,-4.81252 -0.18892,-10.46358 v -10.27465 h 1.0614 1.0614 l -0.0692,10.3849 -0.0692,10.38489 -0.80326,0.0787 c -0.44179,0.0433 -0.88828,-0.006 -0.99219,-0.11025 z m -9.44934,-15.57886 V 99.789239 h 1.05833 1.05834 v 15.478121 15.47813 h -1.05834 -1.05833 z m 13.49375,1.60974 c 0,-1.6644 0.0207,-1.71394 1.05833,-2.53578 0.58209,-0.46102 1.05834,-0.7695 1.05834,-0.68551 0,0.26676 -1.90302,4.91885 -2.01215,4.91885 -0.0575,0 -0.10452,-0.76391 -0.10452,-1.69756 z m -20.060526,-1.70164 c -0.378384,-1.24684 -0.308258,-1.59906 0.197125,-0.99011 0.176186,0.21229 0.28245,0.78072 0.23614,1.26317 l -0.0842,0.87718 z m 2.068859,-1.15443 c 0,-1.62009 0.151003,-2.5618 0.593966,-3.70417 0.326681,-0.84248 0.661851,-1.53179 0.744821,-1.53179 0.083,0 0.4122,0.74414 0.73163,1.65365 0.40736,1.15989 0.57997,2.2659 0.57809,3.70417 l -0.003,2.05052 h -1.32292 -1.322917 z m 13.229167,-9.44554 c 0,-1.96594 0.66378,-4.678077 1.32178,-5.400669 0.10895,-0.119648 0.51703,0.656907 0.90683,1.725679 0.56745,1.55586 0.69286,2.31124 0.62912,3.78942 l -0.0796,1.84619 -1.38906,0.08 -1.38906,0.08 z m -4.32153,-7.34389 c -0.41675,-0.416755 -0.16377,-4.071491 0.38545,-5.568373 0.30902,-0.842204 0.64815,-1.626336 0.75364,-1.742516 0.10548,-0.11618 0.47068,0.538664 0.81155,1.455209 0.72539,1.950464 1.00882,5.044763 0.51643,5.638059 -0.32695,0.393951 -2.13155,0.553136 -2.46707,0.217621 z m -4.6743,-2.96124 c 0,-1.929023 0.66257,-4.629124 1.32705,-5.407982 0.0991,-0.11618 0.46305,0.538664 0.80873,1.455208 0.4666,1.237136 0.6303,2.21174 0.63543,3.783111 l 0.007,2.116667 -1.38906,0.07997 -1.38907,0.07997 v -2.10695 z"
             id="path1428" />
          <path
             style="fill:#273839;fill-opacity:1;stroke-width:0.264583"
             d="m 101.39999,175.36018 c 0,-2.35306 -0.0867,-3.08223 -0.39687,-3.33969 -0.30613,-0.25406 -0.39688,-0.95724 -0.39688,-3.0751 v -2.74573 h 6.6472 6.64719 l -0.11138,3.10885 -0.11138,3.10886 3.03849,-0.083 c 2.19382,-0.0599 3.11671,-0.18461 3.31991,-0.44854 0.52027,-0.67576 1.57235,-0.73218 2.3434,-0.12567 0.80668,0.63453 0.9135,1.44834 0.30428,2.31812 -0.53679,0.76638 -1.96169,0.79827 -2.63083,0.0589 -0.42528,-0.46993 -0.81491,-0.52917 -3.48059,-0.52917 h -3.0017 v 2.38125 2.38125 h -6.08542 -6.08542 z m -5.909024,-5.10358 c -0.09701,-0.097 -0.17639,-1.20566 -0.17639,-2.46365 0,-2.19694 0.07837,-2.49745 1.984375,-7.60913 1.932684,-5.18322 1.984375,-5.3844 1.984375,-7.7228 v -2.40095 h 2.381254 2.38125 v 2.63921 c 0,2.63864 -2.7e-4,2.63999 -1.5875,6.33515 -0.87313,2.03277 -1.5875,3.81924 -1.5875,3.96993 0,0.15069 0.54498,-0.11052 1.21107,-0.58047 1.18718,-0.83759 1.27685,-0.85619 4.54734,-0.94322 4.14368,-0.11026 5.39884,0.0703 6.41116,0.92207 0.59751,0.50277 0.79501,0.89317 0.79501,1.57148 v 0.90252 h -6.50706 c -6.37251,0 -6.51005,-0.0114 -6.65129,-0.55153 -0.31639,-1.20988 -0.59199,0.23823 -0.59593,3.13122 l -0.004,2.97656 h -2.204864 c -1.212675,0 -2.284238,-0.0794 -2.38125,-0.17639 z m 19.588994,0.01 c -0.10242,-0.10241 -0.18622,-1.40268 -0.18622,-2.88947 0,-2.91284 -0.21538,-3.60604 -3.0216,-9.72476 -0.89492,-1.9513 -0.94715,-2.21815 -0.94715,-4.83895 v -2.77377 l 2.31511,0.0764 2.3151,0.0765 0.15526,2.77812 c 0.14743,2.63827 0.25116,3.0293 2.0604,7.76737 1.89415,4.96042 1.90472,5.00246 1.82912,7.27604 l -0.076,2.2868 -2.12888,0.076 c -1.17089,0.0418 -2.21269,-0.008 -2.31511,-0.11024 z m -10.71282,-17.34719 0.0756,-2.72686 h 1.19063 1.19062 v 2.64583 2.64583 l -1.26619,0.081 -1.26619,0.081 z m 3.76046,2.34543 c -0.0742,-0.19342 -0.10025,-1.41381 -0.0578,-2.71198 l 0.0771,-2.36031 1.12448,-0.0814 1.12448,-0.0814 v 2.79333 2.79334 h -1.06664 c -0.64311,0 -1.12022,-0.13963 -1.20159,-0.35166 z m -8.844274,-12.46501 c 0,-3.84933 -0.10037,-6.26413 -0.264583,-6.36562 -0.145521,-0.0899 -0.264584,-0.97535 -0.264584,-1.96759 0,-2.4644 0.08692,-2.51766 3.779451,-2.31572 1.63209,0.0893 3.35438,0.2412 3.82732,0.33764 l 0.8599,0.17536 v 1.78594 1.78593 l -0.82683,0.16537 c -0.45475,0.0909 -1.16912,0.16536 -1.5875,0.16536 h -0.76067 v 6.21771 6.21771 h -2.38125 -2.381254 z m 11.641664,-0.0156 v -6.21771 h -0.94343 c -1.67675,-1e-5 -1.96698,-0.32866 -1.96698,-2.22742 0,-1.99725 -0.15239,-1.91485 4.01872,-2.17304 2.03331,-0.12586 3.05572,-0.0808 3.63802,0.16042 0.79074,0.32754 0.80992,0.37791 0.80992,2.12716 0,1.34852 -0.0982,1.82934 -0.39687,1.94397 -0.33722,0.1294 -0.39688,1.08815 -0.39688,6.37831 v 6.22601 h -2.38125 -2.38125 v -6.21771 z m -11.316303,-17.52865 0.07151,-5.49011 0.859903,-0.0829 0.85989,-0.0829 v 5.57302 5.57301 h -0.93141 -0.931411 z m 4.172553,-9.97126 V 99.789239 h 0.92818 0.92817 l -0.0683,15.411981 -0.0683,15.41198 -0.85989,0.0829 -0.8599,0.0829 z m 4.49792,0.49564 v -14.96572 l 0.8599,0.0829 0.85989,0.0829 0.0684,14.88282 0.0683,14.88281 h -0.92824 -0.92825 z m 4.49792,4.77096 c 0,-11.08499 -0.0525,-10.7125 1.4558,-10.33394 l 0.66086,0.16586 v 10.18142 10.18142 h -1.05833 -1.05833 z M 99.018743,114.2606 c 0,-1.82364 0.833292,-5.21075 1.281937,-5.21075 0.45703,0 1.3639,3.50747 1.3639,5.2751 v 1.86865 h -1.32292 -1.322917 z m 13.229167,-9.68513 c 0,-1.66205 0.71609,-4.41683 1.33565,-5.13817 0.39108,-0.455337 1.31018,3.07583 1.31018,5.03371 v 1.933 h -1.32291 -1.32292 z m -4.32153,-7.608263 c -0.59335,-0.593354 0.29617,-5.856493 1.14763,-6.790324 0.40375,-0.442801 1.32182,3.053379 1.32182,5.033712 v 1.933001 h -1.14653 c -0.63059,0 -1.22591,-0.07937 -1.32292,-0.176389 z m -4.48547,-0.7813 c -0.41468,-0.414685 -0.17786,-3.649181 0.38315,-5.232855 0.31458,-0.888066 0.65854,-1.714545 0.76435,-1.836621 0.1058,-0.122076 0.4492,0.54981 0.7631,1.493078 0.42514,1.277555 0.55075,2.211559 0.49242,3.66154 l -0.0783,1.946505 -1.06793,0.0786 c -0.58737,0.04323 -1.15291,-0.0064 -1.25678,-0.110243 z"
             id="path1426" />
        </g>
      </g>
    </g>
  </g>
</svg>
