<svg height="512" viewBox="0 0 135.46667 135.46667" width="512" xmlns="http://www.w3.org/2000/svg"><g fill="#273839" stroke-width=".352778" transform="matrix(1.2035149 0 0 1.2035152 -62.899746 -100.524293)"><path d="m88.383854 184.86005c-2.217699-1.20437-1.910144-4.96543.48798-5.96742 1.556127-.65019 2.92319-.33066 3.985221.93149 2.557639 3.03958-.926514 6.96204-4.473201 5.03593zm31.278306-.25472c-.6145-.52857-.98844-1.27896-1.11775-2.24301-.16721-1.24668-.0521-1.60785.82523-2.58978 2.55908-2.86411 7.22401-.0175 5.76069 3.51532-.85345 2.06041-3.78368 2.76641-5.46817 1.31747zm-15.94138-9.93488c-.8219-.70696-.98981-1.13106-.98981-2.49998 0-1.36893.16791-1.79303.98981-2.49999 2.00498-1.72461 5.26459-.71969 5.73107 1.76686.25284 1.34775-.51433 3.1477-1.58607 3.72128-1.20669.6458-3.08368.42475-4.145-.48817zm-12.172869-1.33582c.64171-.64171.507527-1.86056-.283655-2.57657-1.369028-1.23896-3.371391.60637-2.475145 2.28103.432608.80832 2.070548.98379 2.7588.29554zm32.533249-.29554c.48583-.90779.15351-1.99255-.76024-2.48157-1.51562-.81113-3.21937 1.55631-1.99856 2.77711.68825.68825 2.32619.51278 2.7588-.29554zm-35.584693-7.58094c-2.000412-1.68323-1.731179-4.22463.590804-5.57683 3.415877-1.98923 6.804795 2.73602 3.904997 5.44483-1.410805 1.31789-3.029952 1.36543-4.495801.132zm32.186693-.14647c-1.05882-.44679-2.25358-2.08184-2.25358-3.08409 0-1.26775.8837-2.74069 1.93042-3.21761 1.58966-.7243 2.6413-.50641 3.97033.82263 1.10036 1.10035 1.21981 1.39364 1.034 2.53867-.36802 2.26785-2.74166 3.75881-4.68117 2.9404zm-12.68573-5.16086c.71395-.71393.70376-1.51805-.0295-2.32827-1.09369-1.20854-2.94392-.42306-2.94392 1.24978 0 1.55113 1.83515 2.21676 2.97341 1.07849zm26.58937-.22174c.71109-.7111.48644-1.9885-.45861-2.60772-.81699-.53531-.9469-.53531-1.76389 0-.95055.62282-1.09326 1.27148-.51676 2.34869.4139.77336 2.06846.92982 2.73926.25903zm-58.374585 15.43129c-3.236544-1.40788-2.08173-6.54129 1.471529-6.54129 3.70163 0 4.64924 5.45961 1.158802 6.67638-1.322334.46097-1.251719.46459-2.630331-.13509zm58.201125.17145c-1.10754-.46524-2.01376-2.01861-2.01376-3.45181 0-.94381.26654-1.47182 1.13445-2.2473.62395-.5575 1.52136-1.01363 1.99424-1.01363 2.05462 0 3.7152 1.64533 3.7152 3.68108 0 1.99159-2.92926 3.83016-4.83013 3.03166zm-69.695859-15.44399c-1.769199-1.97868.332219-5.14866 2.615506-3.94548.454166.23932.942388.6098 1.084938.82329.491069.73544.273088 2.56906-.375154 3.1557-.844544.76431-2.628006.74633-3.32529-.0335zm.320939-13.43334c-.920124-1.01672-.745339-2.70439.371027-3.58253 2.267634-1.78372 5.05652 1.00517 3.272799 3.2728-.906041 1.15185-2.7406 1.30779-3.643826.30973zm12.817984-4.11287c.628579-.75739.163189-1.66377-.784841-1.52854-.904142.12898-1.283129 1.28844-.569058 1.74096.661357.41912.854982.38874 1.353899-.21242zm74.497356 8.16717-9.64388-9.64889.43979-1.46785.43978-1.46786-2.42387-2.55603c-8.2932-8.74541-8.81327-9.20748-10.59767-9.41596l-1.67441-.19562 4.98114-5.02709c2.73962-2.76489 5.10897-5.02708 5.26521-5.02708s5.4052 5.12294 11.66434 11.3843l11.38027 11.38431-.0934 10.84333-.0934 10.84332zm-96.558275 2.42771c-.47625-.47625-.865909-1.19784-.865909-1.60353 0-.99222 1.533359-2.46945 2.563278-2.46945 2.074009 0 3.13525 2.79258 1.603536 4.21959-1.032058.96151-2.246736.90756-3.300905-.14661zm19.045936-1.38163c-.274116-1.09217.35238-2.28118 1.4148-2.68511.854036-.3247 2.309467-.11519 2.309467.33246 0 .14103-.789296.92196-1.753992 1.7354l-1.753992 1.47899zm76.043709-30.24825c-5.91784-5.98179-11.05858-10.97723-11.42387-11.10096-.52466-.17773-2.37756 1.48727-8.8222 7.92753l-8.15805 8.15251h-2.90766-2.90766v-8.20415-8.20415l11.28891-11.284729 11.2889-11.284771 11.46526 11.461191 11.46526 11.461189v11.02634c0 6.06449-.11906 11.00377-.26458 10.97619-.14552-.0276-5.10646-4.94436-11.02431-10.92615z" fill-opacity=".501961"/><path d="m82.774743 188.60464-5.796555-3.49777-.176389-2.99338c-.127933-2.17107-.345985-3.18029-.79375-3.67376-.590159-.6504-.852662-1.85954-.403703-1.85954.117511 0 .685317.39687 1.261789.88194.824828.69405 1.440149.88195 2.888167.88195h1.84004l.958511-3.08681c.527184-1.69774.956988-3.3453.955118-3.66123-.0032-.52447-2.902543-6.11241-3.505257-6.75549-.141428-.1509-.959176.33095-1.817221 1.07079-1.788159 1.5418-3.31118 2.55496-3.840727 2.55496-.960657 0-.209106-1.60048 1.486894-3.16644l1.852084-1.71008-.970139-1.02063c-.89256-.93901-.969707-1.24477-.964737-3.82354.003-1.54161.122034-2.96701.264583-3.16757.14255-.20055 2.427746-2.22461 5.078214-4.49791l4.819033-4.13328h19.990502 19.99051l5.1745 4.05649 5.1745 4.05649.39303 2.17329c.35917 1.986.31496 2.41148-.513 4.93703l-.90604 2.76373-1.63441.21681-1.63441.21682-1.72573 3.50742-1.72573 3.50743 1.13894 2.18711c2.36681 4.54498 2.30126 4.48016 4.53079 4.48016 1.89434 0 1.97574.0369 1.75258.79375-.12871.43657-.32684 1.69355-.44029 2.79331l-.20628 1.99955-5.19114 3.73309-5.19114 3.73308h-18.15829-18.158291zm8.441288.16031c1.815952-.27642 3.345311-.55138 3.398573-.61103.05327-.0597.756437-1.42683 1.562608-3.03817l1.46576-2.92972-1.807894-3.34371-1.807894-3.34372-3.749587.0998-3.749587.0998-1.680514 3.175c-.924285 1.74625-1.683932 3.41525-1.688105 3.70888-.01118.78581 3.976885 6.70537 4.508278 6.69174.135647-.004 1.732411-.23249 3.548362-.50891zm32.857989-.0167 1.94028-.20999 1.64792-3.08612 1.64792-3.08612-1.67504-3.07878c-.92127-1.69333-1.83222-3.23596-2.02434-3.42808-.21684-.21684-1.72073-.25942-3.96582-.11229l-3.61652.237-1.7289 3.44524-1.7289 3.44523 2.18653 3.22494 2.18654 3.22494 1.59503-.18299c.87726-.10065 2.46815-.27749 3.5353-.39298zm-9.462-2.7579c-.0624-.22787-.22112-.51796-.35278-.64464s-3.93597-.28543-8.45402-.35278c-7.009518-.10449-8.263756-.0448-8.54946.40671-.805498 1.27304-.738149 1.28116 9.35576 1.12808 5.9921-.0909 8.08424-.23139 8.0005-.53737zm-3.55176-10.59033 1.77443-3.64962-1.70047-3.44447-1.70048-3.44446-2.29305.21241c-1.26118.11683-2.87746.21354-3.59174.21492-1.21013.002-1.43261.18591-3.26319 2.69255-1.080483 1.47952-1.964516 2.90636-1.964516 3.17076 0 .26439.829942 2.1495 1.844316 4.18913l1.84431 3.7084h3.63798 3.63799zm-19.441794-1.99482c.388056-.38806.705556-.94368.705556-1.23472 0-.71103-1.267531-1.94028-2.000695-1.94028-.875545 0-1.879861 1.05511-1.879861 1.97495 0 .80565 1.165275 1.9056 2.018775 1.9056.247868 0 .76817-.3175 1.156225-.70555zm32.163194.12171c.8023-.72607.82725-1.80521.0613-2.65157-1.12969-1.24829-3.03213-.43568-3.03213 1.29514 0 1.69643 1.72489 2.48399 2.97083 1.35643zm-29.19834-4.90726c.503262-.12631 1.242924-1.15541 2.264749-3.15095l1.51741-2.96337-1.816453-3.36951-1.816453-3.36951-1.468861.002c-.807871.001-2.52876.10262-3.824199.22498l-2.355342.22247-1.636504 3.34097c-.900081 1.83753-1.551912 3.56141-1.448517 3.83086.103396.26944 1.006539 1.70292 2.006985 3.18552l1.818993 2.69563 3.005423-.23102c1.652983-.12705 3.34173-.31542 3.752769-.41858zm28.37391-.0846 2.94015-.60451 1.55298-2.96075 1.55298-2.96075-1.11186-1.97485c-.61153-1.08618-1.44281-2.56895-1.8473-3.29507l-.73544-1.3202-3.70416-.0007-3.70417-.00071-1.8283 3.56397-1.8283 3.56396 2.18108 3.30477c1.55758 2.36005 2.38277 3.30253 2.88663 3.29697.38806-.004 2.02863-.27981 3.64571-.61229zm-15.18948-8.02628c1.47728-1.03474.66842-3.33139-1.1733-3.33139-1.16401 0-2.11476 1.45235-1.59117 2.43068.34269.64034 1.30337 1.41084 1.79433 1.43915.10235.006.53891-.2364.97014-.53844zm-27.085395-.50917c.849108-.84911.882181-1.35473.156386-2.39095-.650296-.92843-1.787886-1.01321-2.686247-.2002-.877134.79379-.812031 2.08147.138912 2.74754 1.036219.72579 1.541841.69272 2.390949-.15639zm53.775285.23707c1.34497-.98346.45268-3.41207-1.25362-3.41207-1.63354 0-2.30216 2.37563-.93761 3.33139.95811.67108 1.3634.68601 2.19123.0807zm-3.81948-6.79231c-.11778-.30691-.21414-.70378-.21414-.88194 0-.19361-9.86379-.32393-24.51805-.32393h-24.51806v.88195.88194h24.73219c22.40758 0 24.71206-.0524 24.51806-.55802zm-69.534972 9.41709-3.880556-2.39793-.108264-2.07844c-.06675-1.28138-.325215-2.31817-.673994-2.70357-.64502-.71273-.358347-1.27463.350263-.68654.256851.21317 1.122708.49243 1.924128.62058 1.624996.25985 1.342771.68262 2.489876-3.72984.264755-1.01841.168501-1.54374-.549423-2.99861-1.384366-2.80541-1.334764-2.78763-3.408835-1.2217-1.018464.76895-1.95639 1.39809-2.08428 1.39809-.603586 0-.113311-1.03547 1.002196-2.11667 1.336476-1.29536 1.534753-1.92604.705555-2.24424-.394966-.15156-.529166-.78225-.529166-2.48685v-2.2838l2.005615-1.69603c1.103088-.93281 2.668654-2.29133 3.479035-3.01894l1.473419-1.32291h11.69041c6.429724 0 11.686113.11906 11.680864.26458-.0053.14552-.563012.8599-1.239471 1.5875l-1.229924 1.32292h-11.566362c-11.72887 0-12.413031.0717-12.413031 1.30064 0 .35948 2.515162.47331 12.082639.54681l12.08264.0928.115171 1.00689c.07769.67915-.148795 1.28785-.695815 1.87013-.588141.62605-.813661 1.29053-.820727 2.41822-.0085 1.35731-.163626 1.6685-1.220333 2.4481-1.126807.83131-1.254594.8533-1.846379.31774-.503244-.45543-1.096626-.5338-2.846352-.37594-1.951297.17606-2.328107.33703-3.212743 1.37244-2.072553 2.42578-2.115504 2.55438-1.354238 4.05473.586052 1.15503.659325 1.84911.503851 4.7728-.164928 3.10151-.249122 3.43118-.900939 3.52778-1.065866.15796-1.185354.9885-.142214.9885 1.279294 0 1.620218 1.91547.54469 3.06032-.70491.75034-1.058429.81888-4.148661.8043l-3.37809-.0159zm6.459175.0821 1.873065-.22494 1.073913-2.12741 1.073912-2.12741-1.183088-2.22771-1.183088-2.22772-2.729593-.003-2.729593-.003-1.210184 2.4031-1.210185 2.40311 1.470333 2.17036c1.577547 2.32861 1.610359 2.34217 4.754508 1.96457zm-.299629-10.51169c.664261-.80039.302065-1.78084-.657874-1.78084-1.112807 0-1.743182.9792-1.116492 1.73432.577869.69629 1.221109.71315 1.774366.0465zm1.299064-3.21964c.766282-.15326 1.343029-.7219 2.315799-2.28325l1.295383-2.07917-1.435381-2.47925c-1.572174-2.71553-1.587691-2.72249-5.018788-2.25221-1.53637.21059-1.715663.34486-2.472995 1.85209-1.439059 2.86397-1.435566 2.99373.143184 5.31854 1.345107 1.98075 1.537927 2.12733 2.798513 2.12733.744628 0 1.813056-.0918 2.374285-.20408zm-8.055461-7.26217c.0802-.69346-.08082-1.00001-.614204-1.1693-.957772-.30398-1.434779.0327-1.434779 1.01285 0 1.01918.315144 1.32894 1.220205 1.19938.483845-.0693.755735-.4114.828778-1.04293zm17.637462.0148c.114269-.98535-.575594-1.50456-1.518389-1.14278-.541115.20765-.729474 1.57357-.2791 2.02394.574934.57494 1.692143.0273 1.797489-.88116zm7.830223 2.33918c0-.2894.3175-.72446.705555-.9668.604524-.37753.705556-.82269.705556-3.10879 0-2.54787.05169-2.71809 1.146528-3.77566l1.146527-1.10749 6.157941-.067c5.981231-.0651 6.172661-.0449 6.670921.70557.48319.72772.40351.88345-1.3721 2.68139-1.788904 1.81141-1.892942 2.01738-2.03902 4.03689l-.153931 2.1281h-6.483989c-5.511987 0-6.483988-.0789-6.483988-.52618zm14.463888-.88493v-1.41111h12.17083 12.17084v.86112c0 .47362.15875.95924.35278 1.07915 1.1247.69511-.21138.88195-6.30681.88195-5.48925 0-6.73676-.093-7.09875-.52917-.33813-.40742-1.27152-.52917-4.05694-.52917-2.78543 0-3.71882.12175-4.05695.52917-.2522.30389-1.02153.52917-1.80708.52917-1.36072 0-1.36792-.007-1.36792-1.41111zm28.17041-.97014c-.68933-.72761-2.10372-2.59292-3.14309-4.14514s-1.93011-2.88214-1.97943-2.95538c-.0493-.0732-2.03651-.34662-4.41599-.60752l-4.32633-.47437-.91028.87211c-.86129.82516-1.1305.8721-5.00161.8721h-4.09132l-.38108-1.09314c-.46471-1.33309-.20302-1.8872 1.70568-3.61159 1.20345-1.08725 1.68431-1.29249 3.02819-1.29249 1.09461 0 1.66148-.16659 1.80061-.52917.25923-.67555 1.5552-.6815 2.4414-.0112.50943.38531 1.74434.52082 4.82253.52916l4.13775.0112 4.79739 6.37672c2.83687 3.7708 4.71858 6.58205 4.60457 6.87916-.35588.92741-1.79525.5451-3.08899-.82046zm.20537-6.10723c-2.5098-3.31048-4.61461-6.24735-4.67734-6.52639-.086-.38234.26174-.50357 1.41111-.49199 3.35701.0338 4.26145.44272 8.53453 3.85848 2.25673 1.80397 4.10314 3.39715 4.10314 3.5404 0 .45561-.84553.96317-2.02442 1.21521-1.46883.31405-1.53858.46122-1.07817 2.27507.40472 1.59449.11622 2.13042-1.15357 2.14285-.30435.003-2.59926-2.69497-5.11528-6.01363zm-26.71123 4.03822c-.14882-.14883.48137-1.03403 1.40042-1.96711l1.67101-1.69652h4.14145 4.14145l1.10929 1.61229c.61011.88676 1.00171 1.7202.87022 1.85209-.3376.33862-13.00516.52792-13.33384.19925zm10.26372-1.64028c.1404-.72904-.878-1.22029-1.41549-.6828-.5375.5375-.0463 1.5559.6828 1.4155.33791-.0651.66762-.39479.73269-.7327zm4.49214.54724-.90874-1.33587 3.57927-.10105c2.99341-.0845 3.68974-.001 4.25414.50971.37118.33591.62819.937.57115 1.33577-.0948.66268-.38243.73371-3.3454.82616l-3.24168.10115zm-53.462077-7.10297c0-.17607.238125-.51774.529167-.75929.346302-.2874.529167-1.07349.529167-2.27476 0-1.46258.165914-1.99145.816487-2.60263.744549-.69947 1.189023-.76705 5.044722-.76705 5.23383 0 5.655187.26021 3.687918 2.27754-1.068823 1.09601-1.416768 1.75364-1.501429 2.83774l-.110198 1.41111-4.497917.0987c-2.530073.0555-4.497917-.0413-4.497917-.22139zm10.230556-.75929v-1.05833h8.249134c7.538173 0 8.267901.0532 8.466892.61736.119768.33955.310265.8158.423323 1.05833.259323.55632-8.858525.64371-9.201849.0882-.119916-.19403-1.469291-.35278-2.998611-.35278s-2.878695.15875-2.998611.35278-.605535.35278-1.079153.35278c-.72162 0-.861125-.17146-.861125-1.05834zm19.354014-.61736c-.487479-.53358-1.415528-1.81709-2.062336-2.85226-1.326469-2.12294-1.757489-2.35682-4.97901-2.70182-1.876044-.20091-2.3778-.14325-2.759869.31711-.363012.4374-1.161408.56267-3.58636.56267-2.845784 0-3.155554-.0676-3.531665-.77034-.364171-.68046-.263323-.90684.864351-1.94028.923254-.8461 1.609384-1.16994 2.478786-1.16994.743151 0 1.279691-.20205 1.40522-.52917.258586-.67387 1.071545-.6805 1.625304-.0133.300658.36227 1.328356.54611 3.451091.61736l3.022931.10146 3.333055 4.36531c2.543955 3.33182 3.219616 4.43719 2.853909 4.6689-.778503.49328-1.179117.36909-2.115407-.65574zm.15216-4.40972-3.229903-4.32153 1.564545-.27298c1.184151-.2066 1.842992-.12969 2.709781.31631 1.377626.70885 5.554959 4.31311 5.554959 4.7929 0 .18718-.484247.52312-1.076106.74652-.853952.32233-1.056912.58915-.983135 1.29248.107378 1.02369-.263479 1.76783-.881042 1.76783-.236057 0-1.882651-1.94469-3.659099-4.32153zm-18.447841 2.66514c0-.13491.426576-.69053.947946-1.23473.894934-.93411 1.116881-.9892 3.96875-.98507l3.020805.004.796992 1.23036.796995 1.23035h-4.765745c-2.621158 0-4.765743-.11038-4.765743-.24528zm6.898164-.49102c.363545-.58823-.454099-1.26277-.940759-.77611-.407078.40708-.152301 1.15963.392596 1.15963.171125 0 .417798-.17259.548163-.38352zm3.19072-.0267c-.293952-.41967-.452335-.89592-.351963-1.05833.100373-.16241 1.180398-.29529 2.400057-.29529 1.700311 0 2.35374.15048 2.801401.64514 1.078566 1.1918.723925 1.47153-1.865598 1.47153-2.11104 0-2.523275-.10542-2.983897-.76305z"/></g></svg>