<svg height="512" viewBox="0 0 135.46667 135.46667" width="512" xmlns="http://www.w3.org/2000/svg"><path d="m126.38713 183.50622c.83071-1.36823 11.00395-14.98364 11.11362-14.87398.0709.0709-1.36385 3.0523-3.1884 6.62523l-3.31738 6.49625-2.25688 1.11291c-2.53458 1.24986-2.75846 1.31077-2.35096.63959zm35.95203-8.17688c-1.15875-.6117-1.66019-1.33385-3.54472-5.10504-1.20728-2.4159-2.1145-4.31168-2.01607-4.21286.0984.0988 1.67501 2.2011 3.50353 4.67172 1.82851 2.47061 3.48418 4.69417 3.67927 4.94122.50055.6339-.0531.5332-1.62201-.29504zm-19.24612-5.66076c-.21068-1.19606-.72558-3.32474-1.1442-4.73042-.69375-2.32947-.83092-2.53465-1.54921-2.31724-1.34701.40766-6.32854 2.50509-11.29942 4.75747-2.61886 1.18664-4.76156 2.10036-4.76156 2.03049 0-.0699 1.71372-1.29355 3.80828-2.7193 3.98754-2.71428 9.4897-7.607 9.05529-8.0523-.36841-.37764-5.34575-.83044-12.23945-1.11346-3.31325-.13602-5.97617-.29523-5.9176-.3538.0586-.0586 1.87999-.36478 4.0476-.68048 7.54871-1.0994 12.92243-2.92547 14.94516-5.07857.74857-.79681.77171-.9697.36655-2.73796-.60781-2.6527-2.98312-7.6803-6.23985-13.20735-.54067-.91756-.0111-.51689 1.95774 1.48136 1.48438 1.50651 3.55685 3.41731 4.6055 4.24622 1.702 1.34536 1.94393 1.44048 2.25408.88629.20785-.37142.2712-3.15947.15769-6.9399l-.18973-6.31905.87304 3.02404c1.96035 6.79021 5.24332 12.60511 7.11659 12.60511 2.1423 0 9.12005-4.31814 14.5249-8.98865 1.59816-1.38102 2.97208-2.51095 3.05316-2.51095.0811 0-.88471 1.81928-2.14621 4.04283-2.58413 4.55484-4.32873 8.42242-3.9638 8.78734.31091.31091 4.84812-.44594 9.03103-1.5065 1.77884-.45101 3.27607-.78323 3.32716-.73825.0511.045-1.48519 1.13506-3.41394 2.42242-4.66106 3.11106-7.42029 5.33017-7.0461 5.66685.43283.38942 3.93722.99645 8.75001 1.51569l4.13267.44585-5.41606.59832c-7.53306.83219-10.60348 1.41923-10.8553 2.07547-.28964.7548 2.41307 3.07239 7.625 6.53849 2.35987 1.5694 4.18821 2.85344 4.06297 2.85344s-1.6125-.55827-3.30504-1.24061c-4.876-1.96573-10.832-3.78868-12.68757-3.88326l-1.70447-.0869.0225 5.46525.0225 5.46526-1.15552-1.69197c-.63555-.93057-2.03681-2.55231-3.11394-3.60388l-1.9584-1.91193-.65833 1.37288c-.36207.7551-1.09307 2.48291-1.62445 3.83959l-.96614 2.46668-.38305-2.17464zm-29.83712-3.00444c-.8578-.19163-1.48635-.42172-1.39677-.5113.18276-.18276 14.62676-4.46439 14.96103-4.43489.65869.0582-10.36017 5.33055-11.10623 5.31424-.49412-.0108-1.60024-.17642-2.45803-.36805zm-17.063626-18.43022c-14.986371-1.05607-27.343942-2.01611-27.461269-2.13344-.117326-.11733 1.066909-.20966 2.631632-.2052 8.365227.0239 50.047953-.83882 50.780943-1.05101.76015-.22007-1.97493-2.60979-23.652128-20.66555-14.290041-11.90273-24.651134-20.78352-24.8461-21.29632-.183933-.48378-.440255-1.54144-.569605-2.35035l-.235183-1.47075 3.738092.214755c4.278543.245794 39.068784 6.152315 39.647654 6.731185.56394.56394-.47082 1.08938-1.77014.89886-.59295-.0869-2.5335-.24705-4.31235-.35582-1.77884-.10876-8.79093-.60841-15.582428-1.11035-6.791499-.50195-12.506406-.85987-12.699793-.79541-.280266.0934 43.004351 34.388 46.838061 37.10998.96826.68749 3.54494 5.33341 3.54494 6.39177 0 .74085-3.36616 1.75227-6.28884 1.88958-1.38354.065-14.77711-.74587-29.763486-1.80193zm76.640566-.005c1.47154-.48588 2.7258-.83314 2.78726-.77168.0614.0614-.17905.37491-.53446.69657-.37461.33901-1.54609.66334-2.78726.77166l-2.14105.18687zm-45.25995-10.48778c-2.59578-2.30288-3.11942-2.95875-3.48628-4.36669-.23745-.91124-.38089-1.70761-.31878-1.76973.0924-.0925 3.96764 4.50814 6.79588 8.06801 1.21111 1.52439.0849.79699-2.99082-1.93159zm22.30645 1.31854c-.067-1.17383 1.93575-14.01512 2.18579-14.01512.14687 0 .5396.86466.87273 1.92148l.60569 1.92147-1.81673 5.3556c-.9992 2.94558-1.83056 5.11304-1.84748 4.81657zm-25.87273-23.44838c.0151-.64235.25968-1.73392.54365-2.42569l.51632-1.25777-.1843 1.21285c-.10135.66707-.18428 1.75863-.18428 2.42569s-.16172 1.21284-.35937 1.21284-.34706-.52557-.33202-1.16792zm4.14022-.6292c-.84498-2.34981-2.55076-4.67168-3.43205-4.67168-.3836 0-1.75317.79907-3.04351 1.77572l-2.34606 1.77572 1.13287-2.00733 1.13288-2.00733-1.41122.25614c-.77617.14088-1.8155.34638-2.30963.45668-.6326.1412-.29391-.23913 1.14472-1.28546 1.12371-.8173 2.14453-1.80552 2.26848-2.19607.29359-.925-1.03112-2.66218-3.58268-4.69821-1.07671-.85916-1.91316-1.6066-1.85879-1.66097.0544-.0544 1.20966.2188 2.56732.60705 1.35764.38825 2.53607.63829 2.61871.55565.0826-.0826-.27062-1.06958-.78502-2.193194-.51441-1.123607-.93529-2.119228-.93529-2.212485 0-.09326.849.595234 1.88665 1.52998l1.88666 1.699539.20911-2.11544c.11501-1.163489.23629-1.919361.26952-1.679714.1494 1.077634 1.58443 4.415664 1.8983 4.415664.19184 0 .81799-.99209 1.39143-2.204645l1.04264-2.204638-.21636 3.339373-.21634 3.33936 1.60039-.21936c.88023-.12065 1.91418-.33975 2.29766-.48692.53011-.20342.41853.0706-.46544 1.143-.63949.77582-1.16271 1.52122-1.16271 1.65647 0 .13524.68131.36099 1.51403.50168l1.51402.2558-1.70661.86732c-1.10107.55958-1.61782 1.02195-1.45638 1.30309.13762.23966 1.0502 1.5487 2.02796 2.90898l1.77774 2.4732-2.27938-1.84432c-1.25367-1.01439-2.40301-1.84433-2.55411-1.84433-.3859 0-.34158 1.66248.10936 4.10183.21124 1.14272.32272 2.13903.24774 2.21401-.075.075-.42447-.66489-.77661-1.64416zm-71.368314-6.20649c0-.74521.595104-2.19206 1.625911-3.95298.89425-1.52765 1.700456-2.77754 1.791568-2.77754.09111 0-.172794.84899-.586455 1.88664-.413661 1.03767-1.090399 2.81651-1.503862 3.95299-.84348 2.31847-1.327162 2.64315-1.327162.89089zm7.444455-1.20267c-.141465-.14146-.257209-.94093-.257209-1.77659 0-1.89793-1.247215-6.020917-2.013795-6.657124-.800982-.66475-4.279545.28052-8.64873 2.350224-1.843933.87347-3.352605 1.4684-3.352605 1.32206s.578944-.82337 1.286541-1.5045c1.277875-1.23007 3.744531-4.377638 3.744531-4.778184 0-.11507-1.721984-.255117-3.826634-.311216l-3.826633-.101998 3.557112-1.437449c1.956412-.790596 3.535045-1.599161 3.508075-1.796811-.02697-.197648-1.401532-.877954-3.054581-1.511792l-3.005542-1.15252 4.625374.221847 4.625373.221848-.431958-.807121c-.237577-.443915-1.570925-2.099656-2.962996-3.679422l-2.531039-2.872304 2.438159 1.669229c3.03461 2.077573 6.565623 3.881034 7.155516 3.65467.420616-.161405 1.163213-3.111685 1.364429-5.420779.08279-.949975.213577-.811104 1.353847 1.437448.694216 1.368958 1.421924 2.48042 1.61713 2.469914.195206-.0105.961342-.887116 1.702527-1.948027l1.347609-1.928929v2.936274 2.936274l.988246-.01196c.543536-.0066 2.923926-.40226 5.289756-.879298 4.422437-.891728 5.591065-.955248 3.179337-.172813-1.893691.61437-6.831955 3.111131-7.14035 3.610125-.373311.604029.293053.895543 4.861657 2.126822 2.277697.613861 4.464693 1.269855 4.859992 1.457768.641454.304924.629419.318777-.111929.128855-.456859-.117041-2.639985-.226176-4.851391-.242521-3.367402-.02489-4.300418.0947-5.741933.736035l-1.721194.765755.242087 1.900565c.229052 1.798225 1.223618 6.085125 1.774894 7.650365.139224.3953-.372526-.18587-1.137221-1.29148-2.472743-3.57512-2.616694-3.73508-3.008588-3.34319-.201919.20192-.653669 1.69911-1.00389 3.3271-.35022 1.62798-.752509 2.84422-.893974 2.70276zm67.164259-7.669165c.82469-.849974 1.73436-1.468272 2.05712-1.398219.38159.08282-.12186.601715-1.47848 1.523804l-2.05712 1.39821zm-14.95457-1.452401c-1.21001-.804372-1.4305-1.075396-.87579-1.076547.40773-.000845 1.20612.483601 1.7742 1.076547 1.2943 1.350964 1.13383 1.350964-.89841 0zm-69.878002-5.356603c.191689-.182783.971734-.200905 1.778843-.04133l1.43745.284209-1.778844.04133c-1.073108.02493-1.643399-.08783-1.437449-.284209zm12.739394-9.105822c0-.114251-.559689-1.515358-1.243754-3.113572-1.193999-2.7896-1.20997-2.883708-.399231-2.352492.59774.391655 1.018142 1.244534 1.438669 2.918659.32678 1.300918.506434 2.453018.399231 2.560221s-.194915.101439-.194915-.01281z" fill="#273839" stroke-width=".359363" transform="translate(-43.338034 -63.366707)"/></svg>