<?xml version="1.0" encoding="UTF-8" standalone="no"?>
<svg
   xmlns:osb="http://www.openswatchbook.org/uri/2009/osb"
   xmlns:dc="http://purl.org/dc/elements/1.1/"
   xmlns:cc="http://creativecommons.org/ns#"
   xmlns:rdf="http://www.w3.org/1999/02/22-rdf-syntax-ns#"
   xmlns:svg="http://www.w3.org/2000/svg"
   xmlns="http://www.w3.org/2000/svg"
   xmlns:sodipodi="http://sodipodi.sourceforge.net/DTD/sodipodi-0.dtd"
   xmlns:inkscape="http://www.inkscape.org/namespaces/inkscape"
   width="512"
   height="512"
   viewBox="0 0 135.46667 135.46667"
   version="1.1"
   id="svg8"
   inkscape:version="1.0.1 (3bc2e813f5, 2020-09-07)"
   sodipodi:docname="Knuckle Cluster.svg">
  <defs
     id="defs2">
    <linearGradient
       id="linearGradient1099-6-5"
       osb:paint="gradient">
      <stop
         style="stop-color:#273839;stop-opacity:0.5"
         offset="0"
         id="stop1151" />
      <stop
         style="stop-color:#273839;stop-opacity:1"
         offset="1"
         id="stop1153" />
    </linearGradient>
  </defs>
  <sodipodi:namedview
     id="base"
     pagecolor="#ffffff"
     bordercolor="#666666"
     borderopacity="1.0"
     inkscape:pageopacity="0.0"
     inkscape:pageshadow="2"
     inkscape:zoom="0.98994949"
     inkscape:cx="166.47703"
     inkscape:cy="177.69942"
     inkscape:document-units="px"
     inkscape:current-layer="g1320"
     inkscape:document-rotation="0"
     showgrid="false"
     inkscape:pagecheckerboard="true"
     inkscape:object-nodes="true"
     fit-margin-top="0"
     fit-margin-left="0"
     fit-margin-right="0"
     fit-margin-bottom="0"
     inkscape:window-width="1600"
     inkscape:window-height="837"
     inkscape:window-x="-8"
     inkscape:window-y="-8"
     inkscape:window-maximized="1"
     units="px" />
  <metadata
     id="metadata5">
    <rdf:RDF>
      <cc:Work
         rdf:about="">
        <dc:format>image/svg+xml</dc:format>
        <dc:type
           rdf:resource="http://purl.org/dc/dcmitype/StillImage" />
        <dc:title></dc:title>
      </cc:Work>
    </rdf:RDF>
  </metadata>
  <g
     inkscape:label="Layer 1"
     inkscape:groupmode="layer"
     id="layer1"
     transform="translate(-59.62574,-110.15787)">
    <path
       style="fill:#000000;stroke-width:0.264583"
       id="path853"
       d="" />
    <path
       style="fill:#000000;stroke-width:0.264583"
       id="path849"
       d="" />
    <g
       id="g1061"
       transform="translate(9.0714285,1.8898814)">
      <g
         id="g1320"
         transform="translate(7.2162774,44.901282)">
        <path
           style="fill:#273839;fill-opacity:1;stroke-width:0.359363"
           d="m 126.38713,183.50622 c 0.83071,-1.36823 11.00395,-14.98364 11.11362,-14.87398 0.0709,0.0709 -1.36385,3.0523 -3.1884,6.62523 l -3.31738,6.49625 -2.25688,1.11291 c -2.53458,1.24986 -2.75846,1.31077 -2.35096,0.63959 z m 35.95203,-8.17688 c -1.15875,-0.6117 -1.66019,-1.33385 -3.54472,-5.10504 -1.20728,-2.4159 -2.1145,-4.31168 -2.01607,-4.21286 0.0984,0.0988 1.67501,2.2011 3.50353,4.67172 1.82851,2.47061 3.48418,4.69417 3.67927,4.94122 0.50055,0.6339 -0.0531,0.5332 -1.62201,-0.29504 z m -19.24612,-5.66076 c -0.21068,-1.19606 -0.72558,-3.32474 -1.1442,-4.73042 -0.69375,-2.32947 -0.83092,-2.53465 -1.54921,-2.31724 -1.34701,0.40766 -6.32854,2.50509 -11.29942,4.75747 -2.61886,1.18664 -4.76156,2.10036 -4.76156,2.03049 0,-0.0699 1.71372,-1.29355 3.80828,-2.7193 3.98754,-2.71428 9.4897,-7.607 9.05529,-8.0523 -0.36841,-0.37764 -5.34575,-0.83044 -12.23945,-1.11346 -3.31325,-0.13602 -5.97617,-0.29523 -5.9176,-0.3538 0.0586,-0.0586 1.87999,-0.36478 4.0476,-0.68048 7.54871,-1.0994 12.92243,-2.92547 14.94516,-5.07857 0.74857,-0.79681 0.77171,-0.9697 0.36655,-2.73796 -0.60781,-2.6527 -2.98312,-7.6803 -6.23985,-13.20735 -0.54067,-0.91756 -0.0111,-0.51689 1.95774,1.48136 1.48438,1.50651 3.55685,3.41731 4.6055,4.24622 1.702,1.34536 1.94393,1.44048 2.25408,0.88629 0.20785,-0.37142 0.2712,-3.15947 0.15769,-6.9399 l -0.18973,-6.31905 0.87304,3.02404 c 1.96035,6.79021 5.24332,12.60511 7.11659,12.60511 2.1423,0 9.12005,-4.31814 14.5249,-8.98865 1.59816,-1.38102 2.97208,-2.51095 3.05316,-2.51095 0.0811,0 -0.88471,1.81928 -2.14621,4.04283 -2.58413,4.55484 -4.32873,8.42242 -3.9638,8.78734 0.31091,0.31091 4.84812,-0.44594 9.03103,-1.5065 1.77884,-0.45101 3.27607,-0.78323 3.32716,-0.73825 0.0511,0.045 -1.48519,1.13506 -3.41394,2.42242 -4.66106,3.11106 -7.42029,5.33017 -7.0461,5.66685 0.43283,0.38942 3.93722,0.99645 8.75001,1.51569 l 4.13267,0.44585 -5.41606,0.59832 c -7.53306,0.83219 -10.60348,1.41923 -10.8553,2.07547 -0.28964,0.7548 2.41307,3.07239 7.625,6.53849 2.35987,1.5694 4.18821,2.85344 4.06297,2.85344 -0.12524,0 -1.6125,-0.55827 -3.30504,-1.24061 -4.876,-1.96573 -10.832,-3.78868 -12.68757,-3.88326 l -1.70447,-0.0869 0.0225,5.46525 0.0225,5.46526 -1.15552,-1.69197 c -0.63555,-0.93057 -2.03681,-2.55231 -3.11394,-3.60388 l -1.9584,-1.91193 -0.65833,1.37288 c -0.36207,0.7551 -1.09307,2.48291 -1.62445,3.83959 l -0.96614,2.46668 -0.38305,-2.17464 z m -29.83712,-3.00444 c -0.8578,-0.19163 -1.48635,-0.42172 -1.39677,-0.5113 0.18276,-0.18276 14.62676,-4.46439 14.96103,-4.43489 0.65869,0.0582 -10.36017,5.33055 -11.10623,5.31424 -0.49412,-0.0108 -1.60024,-0.17642 -2.45803,-0.36805 z M 96.192294,148.23392 c -14.986371,-1.05607 -27.343942,-2.01611 -27.461269,-2.13344 -0.117326,-0.11733 1.066909,-0.20966 2.631632,-0.2052 8.365227,0.0239 50.047953,-0.83882 50.780943,-1.05101 0.76015,-0.22007 -1.97493,-2.60979 -23.652128,-20.66555 -14.290041,-11.90273 -24.651134,-20.78352 -24.8461,-21.29632 -0.183933,-0.48378 -0.440255,-1.54144 -0.569605,-2.35035 l -0.235183,-1.47075 3.738092,0.214755 c 4.278543,0.245794 39.068784,6.152315 39.647654,6.731185 0.56394,0.56394 -0.47082,1.08938 -1.77014,0.89886 -0.59295,-0.0869 -2.5335,-0.24705 -4.31235,-0.35582 -1.77884,-0.10876 -8.79093,-0.60841 -15.582428,-1.11035 -6.791499,-0.50195 -12.506406,-0.85987 -12.699793,-0.79541 -0.280266,0.0934 43.004351,34.388 46.838061,37.10998 0.96826,0.68749 3.54494,5.33341 3.54494,6.39177 0,0.74085 -3.36616,1.75227 -6.28884,1.88958 -1.38354,0.065 -14.77711,-0.74587 -29.763486,-1.80193 z m 76.640566,-0.005 c 1.47154,-0.48588 2.7258,-0.83314 2.78726,-0.77168 0.0614,0.0614 -0.17905,0.37491 -0.53446,0.69657 -0.37461,0.33901 -1.54609,0.66334 -2.78726,0.77166 l -2.14105,0.18687 z m -45.25995,-10.48778 c -2.59578,-2.30288 -3.11942,-2.95875 -3.48628,-4.36669 -0.23745,-0.91124 -0.38089,-1.70761 -0.31878,-1.76973 0.0924,-0.0925 3.96764,4.50814 6.79588,8.06801 1.21111,1.52439 0.0849,0.79699 -2.99082,-1.93159 z m 22.30645,1.31854 c -0.067,-1.17383 1.93575,-14.01512 2.18579,-14.01512 0.14687,0 0.5396,0.86466 0.87273,1.92148 l 0.60569,1.92147 -1.81673,5.3556 c -0.9992,2.94558 -1.83056,5.11304 -1.84748,4.81657 z M 124.00663,115.6113 c 0.0151,-0.64235 0.25968,-1.73392 0.54365,-2.42569 l 0.51632,-1.25777 -0.1843,1.21285 c -0.10135,0.66707 -0.18428,1.75863 -0.18428,2.42569 0,0.66706 -0.16172,1.21284 -0.35937,1.21284 -0.19765,0 -0.34706,-0.52557 -0.33202,-1.16792 z m 4.14022,-0.6292 c -0.84498,-2.34981 -2.55076,-4.67168 -3.43205,-4.67168 -0.3836,0 -1.75317,0.79907 -3.04351,1.77572 l -2.34606,1.77572 1.13287,-2.00733 1.13288,-2.00733 -1.41122,0.25614 c -0.77617,0.14088 -1.8155,0.34638 -2.30963,0.45668 -0.6326,0.1412 -0.29391,-0.23913 1.14472,-1.28546 1.12371,-0.8173 2.14453,-1.80552 2.26848,-2.19607 0.29359,-0.925 -1.03112,-2.66218 -3.58268,-4.69821 -1.07671,-0.85916 -1.91316,-1.6066 -1.85879,-1.66097 0.0544,-0.0544 1.20966,0.2188 2.56732,0.60705 1.35764,0.38825 2.53607,0.63829 2.61871,0.55565 0.0826,-0.0826 -0.27062,-1.06958 -0.78502,-2.193194 -0.51441,-1.123607 -0.93529,-2.119228 -0.93529,-2.212485 0,-0.09326 0.849,0.595234 1.88665,1.52998 l 1.88666,1.699539 0.20911,-2.11544 c 0.11501,-1.163489 0.23629,-1.919361 0.26952,-1.679714 0.1494,1.077634 1.58443,4.415664 1.8983,4.415664 0.19184,0 0.81799,-0.99209 1.39143,-2.204645 l 1.04264,-2.204638 -0.21636,3.339373 -0.21634,3.33936 1.60039,-0.21936 c 0.88023,-0.12065 1.91418,-0.33975 2.29766,-0.48692 0.53011,-0.20342 0.41853,0.0706 -0.46544,1.143 -0.63949,0.77582 -1.16271,1.52122 -1.16271,1.65647 0,0.13524 0.68131,0.36099 1.51403,0.50168 l 1.51402,0.2558 -1.70661,0.86732 c -1.10107,0.55958 -1.61782,1.02195 -1.45638,1.30309 0.13762,0.23966 1.0502,1.5487 2.02796,2.90898 l 1.77774,2.4732 -2.27938,-1.84432 c -1.25367,-1.01439 -2.40301,-1.84433 -2.55411,-1.84433 -0.3859,0 -0.34158,1.66248 0.10936,4.10183 0.21124,1.14272 0.32272,2.13903 0.24774,2.21401 -0.075,0.075 -0.42447,-0.66489 -0.77661,-1.64416 z m -71.368314,-6.20649 c 0,-0.74521 0.595104,-2.19206 1.625911,-3.95298 0.89425,-1.52765 1.700456,-2.77754 1.791568,-2.77754 0.09111,0 -0.172794,0.84899 -0.586455,1.88664 -0.413661,1.03767 -1.090399,2.81651 -1.503862,3.95299 -0.84348,2.31847 -1.327162,2.64315 -1.327162,0.89089 z m 7.444455,-1.20267 c -0.141465,-0.14146 -0.257209,-0.94093 -0.257209,-1.77659 0,-1.89793 -1.247215,-6.020917 -2.013795,-6.657124 -0.800982,-0.66475 -4.279545,0.28052 -8.64873,2.350224 -1.843933,0.87347 -3.352605,1.4684 -3.352605,1.32206 0,-0.14634 0.578944,-0.82337 1.286541,-1.5045 1.277875,-1.23007 3.744531,-4.377638 3.744531,-4.778184 0,-0.11507 -1.721984,-0.255117 -3.826634,-0.311216 l -3.826633,-0.101998 3.557112,-1.437449 c 1.956412,-0.790596 3.535045,-1.599161 3.508075,-1.796811 -0.02697,-0.197648 -1.401532,-0.877954 -3.054581,-1.511792 l -3.005542,-1.15252 4.625374,0.221847 4.625373,0.221848 -0.431958,-0.807121 c -0.237577,-0.443915 -1.570925,-2.099656 -2.962996,-3.679422 l -2.531039,-2.872304 2.438159,1.669229 c 3.03461,2.077573 6.565623,3.881034 7.155516,3.65467 0.420616,-0.161405 1.163213,-3.111685 1.364429,-5.420779 0.08279,-0.949975 0.213577,-0.811104 1.353847,1.437448 0.694216,1.368958 1.421924,2.48042 1.61713,2.469914 0.195206,-0.0105 0.961342,-0.887116 1.702527,-1.948027 l 1.347609,-1.928929 v 2.936274 2.936274 l 0.988246,-0.01196 c 0.543536,-0.0066 2.923926,-0.40226 5.289756,-0.879298 4.422437,-0.891728 5.591065,-0.955248 3.179337,-0.172813 -1.893691,0.61437 -6.831955,3.111131 -7.14035,3.610125 -0.373311,0.604029 0.293053,0.895543 4.861657,2.126822 2.277697,0.613861 4.464693,1.269855 4.859992,1.457768 0.641454,0.304924 0.629419,0.318777 -0.111929,0.128855 -0.456859,-0.117041 -2.639985,-0.226176 -4.851391,-0.242521 -3.367402,-0.02489 -4.300418,0.0947 -5.741933,0.736035 l -1.721194,0.765755 0.242087,1.900565 c 0.229052,1.798225 1.223618,6.085125 1.774894,7.650365 0.139224,0.3953 -0.372526,-0.18587 -1.137221,-1.29148 -2.472743,-3.57512 -2.616694,-3.73508 -3.008588,-3.34319 -0.201919,0.20192 -0.653669,1.69911 -1.00389,3.3271 -0.35022,1.62798 -0.752509,2.84422 -0.893974,2.70276 z m 67.164259,-7.669165 c 0.82469,-0.849974 1.73436,-1.468272 2.05712,-1.398219 0.38159,0.08282 -0.12186,0.601715 -1.47848,1.523804 l -2.05712,1.39821 z m -14.95457,-1.452401 c -1.21001,-0.804372 -1.4305,-1.075396 -0.87579,-1.076547 0.40773,-8.45e-4 1.20612,0.483601 1.7742,1.076547 1.2943,1.350964 1.13383,1.350964 -0.89841,0 z M 46.554678,93.094771 c 0.191689,-0.182783 0.971734,-0.200905 1.778843,-0.04133 l 1.43745,0.284209 -1.778844,0.04133 c -1.073108,0.02493 -1.643399,-0.08783 -1.437449,-0.284209 z m 12.739394,-9.105822 c 0,-0.114251 -0.559689,-1.515358 -1.243754,-3.113572 -1.193999,-2.7896 -1.20997,-2.883708 -0.399231,-2.352492 0.59774,0.391655 1.018142,1.244534 1.438669,2.918659 0.32678,1.300918 0.506434,2.453018 0.399231,2.560221 -0.107203,0.107203 -0.194915,0.101439 -0.194915,-0.01281 z"
           id="path1677" />
      </g>
    </g>
  </g>
</svg>
