<svg height="512" viewBox="0 0 135.46667 135.46667" width="512" xmlns="http://www.w3.org/2000/svg"><path d="m99.720422 186.9259c-18.356202-1.04212-33.666903-4.27741-42.942624-9.07415-5.562357-2.87646-7.39122-5.23301-8.533096-10.99516-.780485-3.93852-2.018638-14.19534-1.67171-13.84841.10525.10524.920255 2.0784 1.811113 4.38478.890857 2.30636 1.802892 4.1934 2.026744 4.1934.238536 0 .299834-.36358.14809-.87837-.68154-2.31214-.708002-22.01113-.02862-21.30514.06703.0696.491166 2.30756.942542 4.97313 1.731394 10.22462 3.769717 14.20037 6.090521 11.87958 1.544434-1.54444 1.769458-4.53959.596389-7.93819-.406818-1.17863-.673506-2.20912-.59264-2.28999.08087-.0809 1.091564.7975 2.245995 1.95193 1.867956 1.86795 2.771153 3.47999 3.632032 6.48248.236244.82395 1.672916.5415 2.327552-.45761.527038-.80437.558477-1.38492.210487-3.88688-.225003-1.6177-.272444-3.31068-.105427-3.76217.239381-.64711.868245.59524 2.970375 5.86812 1.481782 3.71684 2.514939 6.82851 2.325152 7.00295-.187854.17265-1.04425.53478-1.903103.80474-4.177346 1.31307-7.986232 3.91163-9.188875 6.26901-.833521 1.63385-.997401 3.88427-.368438 5.0595.508187.94956 3.511123 2.7193 4.61417 2.7193.782646 0 .844074-.19372.844074-2.66186 0-2.68503.919465-6.70744 1.533227-6.70744.182499 0 .439867.57596.571926 1.2799.732603 3.9051 9.63574 13.44557 11.779639 12.62288 1.444816-.55443-.523889-5.20447-3.944029-9.31572-1.20568-1.44932-2.105567-2.63512-1.99975-2.63512.105814 0 .953575.32747 1.883907.72771 2.629377 1.1312 5.608617 3.71507 8.446247 7.3254l2.596502 3.30353.656394-2.65282c.361014-1.45905 1.08279-3.78744 1.603945-5.17422l.947559-2.52138.25852 1.88607c.49967 3.64549 5.14742 11.15964 6.90263 11.15964.65023 0 .77644-.26721.78363-1.65913.004-.91253.35607-2.42495.78078-3.36093s.77221-1.76134.77221-1.83414-1.06319-.43068-2.36264-.79529c-2.96671-.83241-5.44512-2.56036-5.44512-3.79632 0-2.12797 3.8757-4.17593 9.687928-5.11921 5.93346-.96295 7.87951-1.07864 7.87951-.46842 0 .39124-1.05253.67251-3.80627 1.01712-5.035848.63021-8.453218 1.76807-9.676598 3.22199-.72558.86231-.86794 1.30881-.58553 1.8365.46184.86295 1.73681 1.70251 3.52794 2.32312 1.32877.4604 1.40101.43265 2.626258-1.00894l1.25992-1.48237-.4148 1.51795c-.516 1.88828-.27603 2.06888 3.15272 2.37292 1.40251.12436 3.20191.29228 3.99869.37315.80886.0821 1.5945-.0511 1.77881-.30175.18157-.24684 1.00515-2.18723 1.83016-4.31196l1.50003-3.8632.703 1.32567c.38665.72912 1.17455 2.59931 1.75089 4.15597.57634 1.55667 1.16777 2.83031 1.3143 2.83031.43008 0 4.83846-.80658 5.56272-1.01778.49282-.14372.69364-.71546.78076-2.22297l.11732-2.02947.88869 1.66382.8887 1.66383 1.14926-.5943c1.83538-.94912 2.12301-1.88604.99172-3.2305-1.2211-1.4512-4.80065-2.65231-9.651-3.23839-3.92941-.47479-4.03154-.50541-3.6649-1.09865.45712-.73963 9.89228.64217 13.17796 1.92994 2.47169.96874 4.22251 2.51874 4.22251 3.73819 0 .99919-1.72375 2.46215-4.01523 3.40775l-1.47771.6098.93917 1.86851c.51653 1.02768 1.06993 2.3077 1.22978 2.84449.37641 1.26402 1.72845 2.73309 2.51366 2.73123 1.5082-.003 3.15818-1.59099 4.55035-4.37781 1.52482-3.05233 3.11349-5.3804 3.67161-5.3804.1897 0-.007 1.04192-.437 2.31538-.43005 1.27347-.72597 2.89846-.65758 3.61109l.12434 1.2957 2.41504-.002c1.83952-.002 2.67604-.19766 3.51027-.82051 1.38609-1.03487 1.97345-2.9227 1.34111-4.31052-.25513-.55995-.40906-1.07289-.34207-1.13989.067-.0669 1.2031.41413 2.52468 1.06916 3.18143 1.57687 6.89627 1.94374 8.28449.81816.76444-.61981.97626-1.21136 1.09944-3.07051.0901-1.35887-.0824-3.06287-.42066-4.15712-.3153-1.01989-.44026-1.85434-.27771-1.85434.31005 0 3.5365 3.47317 4.93135 5.30842 1.11776 1.4707 2.11405 1.06069 2.11405-.87002 0-2.10917-1.58123-4.50681-4.05519-6.14893-2.01569-1.338-7.45249-3.75495-8.44642-3.75495-.25559 0-.37788-.21959-.27177-.48798 3.60459-9.11646 4.0027-9.95943 5.39281-11.41883 1.6169-1.6975 2.85752-4.18028 3.31623-6.63658.29043-1.55524.29283-1.55703.59491-.44219.16682.61564.77171 4.39264 1.3442 8.39333 1.0517 7.3495 1.44415 8.86606 2.17713 8.41305 1.42593-.88128 4.28889-11.95859 5.23834-20.26806.23502-2.05688.31397-2.22339.64776-1.36635 1.11955 2.87448 2.35901 12.66703 2.87826 22.74004.14111 2.73759.38796 4.97744.54855 4.97744.43631 0 1.52101-4.16423 2.1556-8.27549l.56051-3.63132-.1995 5.07504c-.39281 9.99276-1.8129 15.626-4.62799 18.35841-8.77302 8.51534-40.51691 13.98659-71.081788 12.25135zm5.556448-7.85938c1.62489-.81151 4.00805-3.05466 4.00805-3.77257 0-.17555-1.66263-.43606-3.69474-.5789-2.03209-.14284-3.96451-.36325-4.29425-.48978-.49831-.19122-.59953.16777-.59953 2.12615 0 3.64965 1.23885 4.38398 4.58047 2.7151zm17.49663-.89087c.24403-.85765.55795-2.14746.69758-2.86623l.25389-1.30684-2.43778.26137c-3.76187.40334-3.81965.43453-3.34199 1.80476.56278 1.61439 2.84795 3.96227 3.69725 3.79871.41805-.0806.86121-.74334 1.13105-1.69177zm-15.83526-22.90369c-2.43643-6.0818-4.67091-11.64471-4.96551-12.36201-.80662-1.96398-.096-1.25459 3.25106 3.24529 1.67268 2.24881 3.09953 4.03045 3.17077 3.95922.16207-.16207 2.8423-69.616772 2.8423-73.654521 0-.918306.0769-1.592757.17087-1.498781.0939.09397.53405 9.917093.97796 21.829146 1.53521 41.196836 2.01885 53.259156 2.14033 53.380616.0671.0671 1.57343-1.82292 3.34742-4.20004 1.774-2.37712 3.27781-4.26969 3.3418-4.2057.12278.12278-8.91428 22.89772-9.50369 23.95092-.24917.44526-1.55923-2.42121-4.77331-10.44414zm-34.322479-1.87858c-1.986167-4.97405-3.539402-9.11554-3.451631-9.2033.08776-.0878 1.189546 1.24061 2.448393 2.95196 1.258846 1.71135 2.333917 3.06643 2.389046 3.01131.05513-.0551.55735-12.65715 1.116049-28.00451.558698-15.34734 1.06804-28.079932 1.13187-28.294648.145261-.488623.432627 6.343708 1.428507 33.963688.43354 12.02392.82965 22.00066.88024 22.17055.05059.16987 1.203299-1.19159 2.561567-3.0255s2.539092-3.33438 2.624056-3.33438c.08497 0-.178071.83445-.584519 1.85435-4.678135 11.73864-6.397141 15.99141-6.641643 16.43124-.179575.32304-1.671323-2.93453-3.901935-8.52076zm69.567999-.47401c-1.98132-4.97636-3.55035-9.09999-3.48673-9.1636.0636-.0636 1.14754 1.28713 2.40872 3.00165 1.26118 1.71454 2.40958 3.11733 2.55198 3.11733.14241 0 .38324-3.73308.53519-8.29573.70446-21.15331 1.77007-46.470232 1.96412-46.664298.11809-.118074.2169 1.000398.21959 2.485489.009 4.664349 1.90879 52.176019 2.09431 52.361539.0972.0972 1.18253-1.1598 2.41194-2.79322s2.29568-2.90948 2.36948-2.83568c.20519.20519-6.92971 17.84456-7.21573 17.83918-.13776-.002-1.87155-4.07627-3.85287-9.05266zm-60.466068 4.12499c.147621-.40052.909255-2.36006 1.692521-4.35453 1.414601-3.60205 1.431859-3.6246 2.580899-3.37224 1.146615.25184 1.153884.24255.827278-1.05833-.851455-3.39142.223552-7.40188 3.644342-13.59572 1.79332-3.24708 1.84274-3.29728 1.93458-1.96583.37328 5.41183 3.41076 11.72813 6.58271 13.68851.98422.60827 1.550338 1.52108 2.654838 4.28065.77212 1.92914 1.40385 3.68199 1.40385 3.89521 0 .21323-1.01012.38914-2.24472.3909-3.942798.006-15.194183 1.57658-18.602462 2.59732-.596043.17851-.689369.0789-.473836-.50594zm53.527998-.55118c-4.1187-.82932-10.26679-1.5434-13.28849-1.5434-1.1725 0-2.13182-.14177-2.13182-.31503s.59144-1.78112 1.31431-3.57302l1.31432-3.25798 2.0573-.0381c2.66493-.0493 3.23312-.78605 4.47546-5.80317 1.06401-4.29692 1.79715-5.75911 3.34656-6.67437 1.7037-1.0064 1.84106-.81498 1.29279 1.80143-.76428 3.64722-.65649 7.19293.28154 9.26086.92524 2.03972 1.42358 2.43931 2.39425 1.91982.56486-.30231.78013-.19821 1.0654.51522.19663.49175 1.05207 2.6069 1.90098 4.70036l1.54348 3.80627-1.02629-.0457c-.56447-.0251-2.60737-.36409-4.53979-.7532zm-29.8572-13.74278c-.42592-.87419-.43528-1.56391-.0505-3.71727.67967-3.80318 1.20738-4.36718 1.17926-1.26039-.0126 1.39563-.15411 3.32805-.3144 4.29426l-.29144 1.75674zm11.19989-2.11803c-.12632-1.67013-.17017-3.09608-.0975-3.16878.0727-.0727.34433 1.12546.60361 2.6626.30047 1.78139.33581 2.93044.0975 3.1688-.23835.23836-.45724-.72715-.60361-2.66262z" fill="#273839" stroke-width=".390388" transform="translate(-43.338034 -63.366707)"/></svg>