<?xml version="1.0" encoding="UTF-8" standalone="no"?>
<!-- Created with Inkscape (http://www.inkscape.org/) -->

<svg
   width="512"
   height="512"
   viewBox="0 0 135.46666 135.46667"
   version="1.1"
   id="svg5"
   inkscape:version="1.1 (c68e22c387, 2021-05-23)"
   sodipodi:docname="Marked for Death.svg"
   xmlns:inkscape="http://www.inkscape.org/namespaces/inkscape"
   xmlns:sodipodi="http://sodipodi.sourceforge.net/DTD/sodipodi-0.dtd"
   xmlns="http://www.w3.org/2000/svg"
   xmlns:svg="http://www.w3.org/2000/svg">
  <sodipodi:namedview
     id="namedview7"
     pagecolor="#ffffff"
     bordercolor="#666666"
     borderopacity="1.0"
     inkscape:pageshadow="2"
     inkscape:pageopacity="0.0"
     inkscape:pagecheckerboard="0"
     inkscape:document-units="px"
     showgrid="false"
     units="px"
     inkscape:zoom="0.32252323"
     inkscape:cx="-165.87953"
     inkscape:cy="240.29277"
     inkscape:window-width="1366"
     inkscape:window-height="697"
     inkscape:window-x="-8"
     inkscape:window-y="-8"
     inkscape:window-maximized="1"
     inkscape:current-layer="layer1" />
  <defs
     id="defs2" />
  <g
     inkscape:label="Layer 1"
     inkscape:groupmode="layer"
     id="layer1">
    <g
       id="g3283"
       transform="matrix(1.2356559,0,0,1.2356559,-25.379918,-65.95897)">
      <g
         id="g1619"
         transform="translate(64.388672,-2.3203125)">
        <path
           style="fill:#273839;fill-opacity:0.501961;stroke-width:0.352778"
           d="m -4.1676923,139.00263 c -13.9984557,-3.27094 -25.5376047,-10.91077 -33.9163257,-22.45529 -1.427896,-1.96741 -2.801953,-3.85762 -3.05346,-4.20049 -0.483615,-0.65927 0.06471,-1.53321 4.868312,-7.7594 5.115551,-6.630516 11.946965,-12.074796 19.885388,-15.847606 2.628713,-1.24932 10.1111877,-4.0241 10.2982897,-3.81899 0.40301,0.4418 1.166813,2.91031 0.955753,3.08887 -0.149973,0.12687 -1.304555,0.52893 -2.565735,0.89346 -2.4609457,0.7113 -7.5092127,2.80404 -9.5249997,3.94855 -4.181203,2.37397 -6.464991,3.89538 -8.341657,5.55703 -2.488281,2.203186 -6.197021,6.140436 -7.799926,8.280506 -1.09606,1.46337 -2.46498,3.17339 -3.042043,3.80003 -1.040055,1.12942 -1.043101,1.1448 -0.349167,1.76389 0.385022,0.34349 1.478765,1.73578 2.43054,3.09398 2.761055,3.94006 8.990228,9.94212 13.045309,12.56969 5.822874,3.77305 12.8708617,6.70299 18.8736097,7.84601 l 2.29305597,0.43664 0.106631,1.83285 c 0.123475,2.12243 0.445805,2.04732 -4.16357497,0.97027 z m 25.4697543,-0.98663 0.10663,-1.84923 1.5875,-0.24796 c 2.9967,-0.46808 6.36703,-1.50455 10.78485,-3.31665 2.58115,-1.05873 7.44184,-3.61559 8.40788,-4.42279 0.21254,-0.17759 1.57707,-1.1925 3.03227,-2.25535 3.301401,-2.41127 6.919511,-5.97161 8.895371,-8.75331 0.83137,-1.17044 2.10689,-2.79168 2.83449,-3.60276 0.72761,-0.81108 1.32292,-1.6773 1.32292,-1.92495 0,-0.24764 -0.59531,-1.11387 -1.32292,-1.92495 -0.7276,-0.81108 -1.99409,-2.41633 -2.81442,-3.56723 -5.21713,-7.319436 -15.395351,-14.365516 -24.790441,-17.161666 -1.26118,-0.37536 -3.19311,-0.94835 -4.29319,-1.27333 -1.98284,-0.58576 -1.99591,-0.5985 -1.51181,-1.47282 0.26859,-0.48507 0.49396,-1.14977 0.50084,-1.47712 0.0168,-0.80054 1.50902,-0.5642 6.53889,1.03563 3.5123,1.11714 11.73651,4.7317 12.17083,5.34912 0.097,0.13791 1.14928,0.83613 2.33837,1.55161 2.487021,1.49643 7.271051,5.5364 9.809231,8.283586 2.31687,2.50765 5.13851,6.04038 5.13851,6.43348 0,0.17362 0.71438,1.19274 1.5875,2.2647 0.87313,1.07196 1.5875,2.03289 1.5875,2.13538 0,0.1025 -0.67469,1.04833 -1.49931,2.10185 -0.82461,1.05353 -2.1343,2.82467 -2.91041,3.93587 -1.83517,2.62751 -7.09818,7.99915 -10.23056,10.44172 -4.746611,3.70132 -10.585621,6.86042 -16.404161,8.8752 -2.42569,0.83994 -9.71658,2.69119 -10.59887,2.69119 -0.22962,0 -0.33293,-0.71424 -0.26749,-1.84922 z m -0.0697,-12.58211 c 0,-3.48933 0.0885,-4.01863 0.94978,-5.67867 1.11218,-2.14367 1.24471,-4.5282 0.34697,-6.24262 -0.85833,-1.63915 -0.79832,-6.08621 0.11453,-8.48797 0.38796,-1.02072 0.70538,-2.24356 0.70538,-2.71742 0,-0.91711 -0.67644,-2.697516 -1.15595,-3.042506 -0.4415,-0.31765 -0.14521,-5.35858 0.32407,-5.51364 0.22156,-0.0732 1.38736,0.7784 2.59067,1.89244 3.62878,3.35962 5.59323,7.042396 6.70482,12.569666 1.0893,5.41642 -1.35449,12.80913 -5.77977,17.48444 -1.33354,1.40888 -4.12509,3.58428 -4.59948,3.58428 -0.11057,0 -0.20102,-1.7316 -0.20102,-3.848 z m -24.1363763,1.32704 c -3.772199,-3.45654 -5.740814,-6.9481 -6.763681,-11.99615 -1.3038337,-6.43469 0.994105,-13.71379 5.82368,-18.447466 l 1.779073,-1.74375 0.888926,0.8351 0.88892897,0.83511 v 7.808576 c 0,6.31965 -0.09876,7.93915 -0.517948,8.49336 -0.28486797,0.37664 -0.52299297,0.95938 -0.52916697,1.29498 -0.0063,0.34289 -0.59074,0.90737 -1.334135,1.28859 -2.425785,1.24394 -3.616491,3.09507 -3.615425,5.62072 0.0011,2.78486 2.482963,5.33732 5.202925,5.35109 1.10146397,0.006 1.14652797,0.0613 1.14652797,1.41691 0,0.77611 -0.135791,1.41111 -0.301759,1.41111 -0.165964,0 -1.36654097,-0.97568 -2.66794597,-2.16818 z M -15.293633,123.0053 c -3.238983,-1.82094 -7.726027,-5.18177 -10.295201,-7.71119 -1.606261,-1.58141 -2.919881,-3.01016 -2.919156,-3.175 0.0069,-1.56394 6.655016,-8.30735 11.004481,-11.16218 1.687565,-1.107656 3.143835,-2.013926 3.236156,-2.013926 0.09232,0 -0.0565,0.44973 -0.330707,0.99939 -2.011844,4.032836 -2.754224,12.550866 -1.534772,17.609906 0.385882,1.60088 1.007769,3.62494 1.381971,4.49791 0.374202,0.87298 0.646321,1.58058 0.60471,1.57245 -0.04161,-0.008 -0.557979,-0.28595 -1.147482,-0.61736 z m 51.342655,0.44881 c 0,-0.11448 0.30101,-0.87413 0.6689,-1.6881 0.98414,-2.17741 1.87199,-7.02582 1.88164,-10.27538 0.01,-3.26308 -0.80551,-7.98143 -1.8536,-10.72866 -0.39557,-1.036856 -0.59515,-1.826746 -0.4435,-1.755316 4.2218,1.988536 12.986931,9.958906 13.955061,12.689716 0.24924,0.70304 -3.19169,4.38238 -6.094611,6.51689 -4.90195,3.60439 -8.11389,5.67902 -8.11389,5.24085 z"
           id="path872"
           sodipodi:nodetypes="sssssssssssssssscssscsssssssssssscsssssssssssssssssssscssssssscccssssccssscsssssssccsscsssss" />
      </g>
      <path
         style="fill:#273839;fill-opacity:1;stroke-width:0.352778"
         d="m 74.813918,157.68196 c -2.11971,-1.29254 -3.93968,-4.40199 -5.1362,-8.77531 -0.68185,-2.49217 -0.75648,-3.85829 -0.89573,-16.39692 l -0.15192,-13.67824 -2.17607,0.045 c -3.66538,0.0759 -3.76358,0.0539 -3.76358,-0.84047 0,-0.75027 0.70077,-1.26368 3.61597,-2.64919 0.14552,-0.0692 0.26459,0.37676 0.26459,0.99094 v 1.11668 l 2.55763,-0.21384 c 6.07363,-0.50781 8.89634,-0.58302 9.58665,-0.25545 0.40266,0.19108 1.00992,0.4362 1.34947,0.54472 0.57526,0.18385 0.61786,1.2385 0.62475,15.46602 l 0.007,15.26871 -1.85606,5.02708 c -1.26699,3.4316 -2.02509,5.02666 -2.38864,5.02576 -0.29292,-7e-4 -1.03013,-0.30471 -1.63825,-0.67552 z m 0.99904,-8.2308 c 0.0995,-1.72744 0.17192,-1.85959 1.07677,-1.96371 l 0.97013,-0.11162 v -13.20574 -13.20573 h -1.05833 -1.05833 v 11.81805 11.81806 h -0.87719 -0.87719 l -0.093,-11.72986 -0.093,-11.72986 -1.15085,-0.11087 -1.15084,-0.11087 0.0925,13.16365 0.0925,13.16364 0.97014,0.11163 c 0.90705,0.10437 0.97014,0.22099 0.97014,1.79329 0,1.90629 0.1456,2.15203 1.27508,2.15203 0.72204,0 0.81567,-0.19028 0.91135,-1.85209 z m -8.53638,-35.49478 c 0,-0.82936 0.27641,-1.71493 0.70556,-2.26051 0.66572,-0.84633 0.70555,-1.43114 0.70555,-10.36014 v -9.463173 l -2.48144,-2.29924 -2.48144,-2.29924 2.82654,-5.64444 c 1.55459,-3.10445 2.82999,-5.812223 2.83422,-6.017273 0.004,-0.20505 -1.06388,-0.8937 -2.37357,-1.53034 -1.30969,-0.63664 -2.8817,-1.58012 -3.49337,-2.09662 l -1.11212,-0.93911 1.81768,-2.53934 c 1.62053,-2.26394 6.75598,-9.57545 7.33309,-10.44038 0.12647,-0.18954 1.93529,0.45023 4.16035,1.4715 2.16513,0.99376 4.02085,1.80684 4.12382,1.80684 0.10297,0 1.24399,0.89652 2.5356,1.99227 1.29161,1.09576 2.87838,2.21373 3.52615,2.48438 0.64778,0.27066 1.10762,0.68382 1.02187,0.91814 -0.0858,0.23432 0.16169,0.77539 0.54987,1.20237 l 0.70578,0.77632 -0.73072,1.23848 c -0.52484,0.88953 -0.67441,1.58547 -0.53087,2.47002 0.17246,1.06275 3.6e-4,1.48193 -1.25468,3.05836 -1.30171,1.63488 -1.45454,2.02828 -1.45454,3.744213 0,2.35405 -0.45239,3.28211 -1.59991,3.28211 -0.77343,0 -0.86953,0.14992 -0.86953,1.35644 0,0.90841 0.23304,1.56733 0.70556,1.99495 0.3906,0.35349 0.70555,1.08654 0.70555,1.64218 0,0.55201 -0.3175,1.32115 -0.70555,1.70921 -0.62264,0.62263 -0.70556,1.17593 -0.70556,4.70782 0,3.55425 0.079,4.07375 0.70556,4.64079 0.90198,0.81629 0.90198,2.300963 0,3.447653 -0.61004,0.77554 -0.70556,1.43114 -0.70556,4.84263 0,3.41148 0.0955,4.06709 0.70556,4.84262 0.42915,0.54558 0.70555,1.43115 0.70555,2.26051 v 1.36353 h -2.09584 c -1.15272,0 -2.19397,-0.15875 -2.31388,-0.35277 -0.12028,-0.19463 -1.70182,-0.35278 -3.52778,-0.35278 -1.82596,0 -3.40749,0.15815 -3.52778,0.35278 -0.11991,0.19402 -1.16116,0.35277 -2.31387,0.35277 h -2.09585 z m 11.08365,-2.37838 c 0.47163,-0.18098 0.55802,-0.96967 0.55802,-5.09445 0,-2.68418 -0.12651,-4.95851 -0.28113,-5.05407 -0.15462,-0.0956 -1.74739,1.08569 -3.53949,2.62501 -1.7921,1.53932 -3.49122,2.79876 -3.77582,2.79876 -0.68208,0 -0.75412,4.43181 -0.0765,4.70525 0.637,0.25703 6.45435,0.27298 7.1149,0.0195 z m 0.55802,-17.259432 c 0,-3.33942 -0.0974,-4.1054 -0.54386,-4.27672 -0.82691,-0.31731 -5.25651,1.41918 -5.39123,2.11347 -0.12684,0.65368 4.77715,6.2076 5.49412,6.22225 0.3278,0.007 0.44097,-1.03497 0.44097,-4.059 z m -4.58611,-5.21572 2.29305,-0.77044 -1.85208,-0.10663 c -1.01865,-0.0586 -2.66133,-0.0586 -3.65041,0 l -1.79832,0.10663 0.78246,0.99159 c 0.51635,0.65434 0.97799,0.91637 1.35735,0.77044 0.31619,-0.12163 1.60677,-0.56785 2.86795,-0.99159 z m 4.51611,-5.4971 c 0.0585,-1.24148 -0.0314,-2.395031 -0.19985,-2.56345 -0.17311,-0.17312 -1.98281,0.692229 -4.16333,1.99079 -2.1214,1.26336 -3.97616,2.29785 -4.12168,2.29887 -0.14552,0.001 -0.26459,0.16548 -0.26459,0.36548 0,0.23526 1.52561,0.32867 4.32153,0.26458 l 4.32153,-0.0991 z m -6.1848,-2.72353 c 3.12692,-1.93572 6.2548,-4.151133 6.2548,-4.430133 0,-0.33497 -2.61861,-0.38272 -3.78878,-0.0691 -0.43459,0.11647 -1.58552,1.28466 -2.55763,2.595973 -2.36488,3.19004 -2.35395,3.41718 0.0916,1.90325 z m -8.99612,1.78388 -0.96342,-0.52279 1.29317,-2.61345 1.29317,-2.613443 0.99317,0.51358 c 0.54624,0.28248 0.99316,0.665263 0.99316,0.850633 0,0.47581 -2.22801,4.9395 -2.45696,4.92238 -0.10388,-0.008 -0.62241,-0.24938 -1.15229,-0.53691 z"
         id="path872-1"
         sodipodi:nodetypes="cssccscscsssccsscccscccccccccccccccsssccssscccscsccsssssscscsscsssssssssssscssssscssscsssssssscssccccsssccssscccsssssssccccscs" />
    </g>
  </g>
</svg>
