<svg height="512" viewBox="0 0 135.46667 135.46667" width="512" xmlns="http://www.w3.org/2000/svg"><g fill="#273839" stroke-width=".264583" transform="matrix(1.6512239 0 0 1.6512239 -115.90072 -174.107217)"><path d="m97.946145 141.70063c-.69927-.33724-.815798-1.54596-.198438-2.05832.222716-.18484.396875-.7616.396875-1.31431 0-.62929.180298-1.1481.49933-1.43682.274629-.24853.879975-1.46042 1.34521-2.69308.576098-1.52638 1.239608-2.69779 2.080358-3.67277l1.23448-1.43158 1.12154 1.09316c1.10638 1.07836 1.11485 1.1005.62627 1.63625-.27241.29871-.68717.92291-.92169 1.38711s-1.01478 1.62136-1.73391 2.57146c-1.18845 1.57016-1.32413 1.8962-1.49011 3.58056-.14614 1.48315-.28156 1.88452-.67829 2.01043-.272628.0865-.495688.26837-.495688.40408 0 .32763-1.040709.28324-1.785937-.0762z"/><path d="m102.65688 174.76574c-.14908-.1819-.80492-1.10463-1.45742-2.05052-2.825635-4.09613-2.930955-4.5004-1.311689-5.0348.496449-.16385.902649-.35452.902649-.42371 0-.0692-.28984-.55234-.64408-1.07365-.574794-.84589-.604147-1.00803-.27287-1.50732.52175-.78637 2.10445-1.99501 3.03914-2.32084.43352-.15113.78822-.44875.78822-.66138 0-.21264-.11083-.31811-.2463-.23439-1.15034.71095.45446-3.6388 2.42535-6.57383 3.33601-4.96793 3.40426-5.09759 3.66716-6.96627.13884-.98694.50164-2.72087.8062-3.85317.50632-1.8824.52314-2.19669.19644-3.6693-.25838-1.1647-.50507-1.66904-.8911-1.82179-.36786-.14556-.61604-.0858-.79837.19224-1.04425 1.59235-1.18598 1.68504-1.96255 1.28346-1.1281-.58337-2.47462-2.23481-2.24396-2.75211.10648-.2388.17906-.75526.16129-1.14769-.0235-.51931.12652-.76387.55125-.89858.32095-.1018 1.45486-.82936 2.5198-1.61682 2.4276-1.79506 2.54053-1.83481 3.09194-1.08834l.45288.61308-.16996-.79375c-.25455-1.18881-.71537-2.24895-.97758-2.24895-.12787 0-.23249.11404-.23249.25343 0 .13938-.52942.56369-1.1765.9429-1.46331.85756-1.64229.7757-3.90303-1.78508-3.5147-3.98117-4.30551-5.1897-4.59967-7.02926-.390945-2.44485 1.04122-4.08749 3.81481-4.37542 1.34036-.13915 3.07737-.66939 3.70742-1.13173.20339-.14925-1.44028-1.95608-1.77945-1.95609-.53691-.00001-.18035-1.84333.67183-3.47308.38109-.72883.77008-1.70407.86441-2.16718.15528-.76231.28329-.85661 1.352-.99596.64926-.0846 1.49012-.30403 1.86858-.48749.60082-.29126.85254-.25019 1.98437.32376.71295.36153 1.48956.87856 1.72579 1.14895.47438.54297.90795 3.61409.58348 4.13303-.11257.18004-.21534.93499-.22838 1.67766l-.0237 1.35033 1.583-.64323c1.38815-.56406 1.66381-.6 2.23962-.29199 1.46031.78113 6.20857.17011 6.52923-.8402.18103-.57037-1.2536-2.9096-1.78443-2.9096-.49556 0-1.7877-1.38207-1.7877-1.91213 0-.26961.24055-.96171.53454-1.538.38181-.7484.70311-1.04751 1.12448-1.0468.94175.002 2.27711.96265 2.46869 1.77674.0952.4047.85474 1.68831 1.68779 2.85248 1.96626 2.74779 2.122 3.06693 2.122 4.34823 0 .77691-.10958 1.07573-.39448 1.07573-.21697 0-2.0922.67172-4.16719 1.49271-2.07499.821-4.30849 1.63722-4.96333 1.81382-1.42997.38565-1.67709 1.11152-.78787 2.31425.89028 1.20417.97611 2.6371.25074 4.18581l-.61144 1.30544.69411 3.37367c.44973 2.18587.63996 3.76733.5403 4.49178-.13801 1.00329-.0892 1.14225.47549 1.35319 1.05738.395 5.51317 1.13855 5.79162.96646.1439-.0889.26163-.43775.26163-.77514 0-.84468.57946-1.2986 1.11341-.8722.59328.47378 1.26784 2.72851 1.26784 4.23779 0 1.74561-.65449 4.17188-1.60676 5.95639-.73559 1.37845-.76998 1.57935-.60634 3.5416.13265 1.59054.0793 2.2813-.22653 2.93432-.82105 1.753-1.33179 3.53795-1.36381 4.76627-.0728 2.79227-2.01575 2.26674-4.34426-1.17502-2.19425-3.24331-2.10754-3.01821-1.43742-3.73152.52894-.56303.54908-.67754.20022-1.13874-.58281-.7705-.49944-1.09757.62441-2.44966.56599-.68096 1.11267-1.51502 1.21482-1.85349.10216-.33846.59572-1.51501 1.0968-2.61456s.87499-2.03525.83092-2.07932c-.0441-.0441-1.20311-.10482-2.57564-.13499l-2.49551-.0548-.50401 1.16205c-.67654 1.55987-2.03401 4.84983-2.03515 4.93237-.00053.0364.17769.0662.39597.0662s.39688.0759.39688.16879c0 .0928-.68234 1.11647-1.51631 2.27475-.99948 1.38815-1.86095 2.28178-2.52742 2.62179-.78519.40058-.97532.62859-.85094 1.02048.0881.27756-.0263.78921-.25417 1.13701-.22788.3478-.77714 1.62648-1.22058 2.84152-.77975 2.13657-.80025 2.30649-.62379 5.17185.17664 2.86854.16453 2.96837-.38093 3.1415-.46785.14849-.56435.38885-.56917 1.41774-.007 1.50223-.68555 3.08022-1.80636 4.20103-.45852.45852-.83367 1.02142-.83367 1.2509 0 .33324-.31743.41722-1.57707.41722-.94069 0-1.68644-.13345-1.84813-.33073z"/><path d="m104.09771 178.64738c-7.339-.52714-9.686399-.75513-12.303128-1.1949-6.901622-1.15989-9.367599-2.47464-8.346197-4.44981.483851-.93567 1.621288-1.47862 4.771766-2.27781 2.398165-.60834 7.946491-1.39869 8.179964-1.16521.06267.0627.187497.41136.277384.77487.160936.65082.119841.6694-2.690471 1.21689-3.115302.60691-5.632029 1.55261-5.632029 2.11634 0 .99708 3.309686 2.06234 8.652563 2.78492 5.160788.69795 18.395168.98374 23.987548.51799 4.3932-.36588 8.85875-1.15024 10.92148-1.91833 2.74776-1.02317 2.89474-1.51422.69909-2.33572-3.78829-1.41738-7.60702-1.97295-16.15717-2.35062-2.80594-.12394-5.17653-.30018-5.268-.39164-.0915-.0915.0499-.40515.31406-.69709.42871-.47371.81323-.53079 3.57593-.53079 5.97662 0 14.91093.93573 19.17971 2.00877 4.21527 1.05959 5.71938 2.25653 4.73106 3.76489-.99348 1.51624-6.18808 2.87534-13.85919 3.62609-4.0494.3963-17.89988.7263-21.03437.50116z"/><path d="m99.996665 185.40027c-10.361612-.82053-14.883691-1.49129-18.860702-2.79763-4.666778-1.53291-4.913491-3.71495-.597177-5.28168 2.150679-.78066 2.477908-.78558 4.158635-.0626l1.335312.57443-1.02168.51539c-1.219751.6153-1.948389 1.22111-1.945913 1.6179.001.15934.410059.56771.909032.90748 6.163994 4.1973 40.252798 4.88888 51.918288 1.0533 2.75778-.90675 3.8528-1.75263 3.23523-2.49916-.20326-.2457-.93561-.70931-1.62744-1.03023l-1.25788-.5835 1.54962-.56502c.8523-.31077 1.77553-.56156 2.05163-.55731.70759.0109 3.95435 1.35984 4.5967 1.90984.71718.61406.68863 1.81557-.0598 2.51642-1.91251 1.79093-9.21738 3.32367-19.24844 4.03879-5.48284.39088-21.33524.54447-25.135415.24353z" fill-opacity=".501961"/></g></svg>