<?xml version="1.0" encoding="UTF-8" standalone="no"?>
<svg
   width="512"
   height="512"
   viewBox="0 0 135.46667 135.46667"
   version="1.1"
   id="svg8"
   inkscape:version="1.1.1 (3bf5ae0d25, 2021-09-20)"
   sodipodi:docname="Gravity_Lift.svg"
   xmlns:inkscape="http://www.inkscape.org/namespaces/inkscape"
   xmlns:sodipodi="http://sodipodi.sourceforge.net/DTD/sodipodi-0.dtd"
   xmlns="http://www.w3.org/2000/svg"
   xmlns:svg="http://www.w3.org/2000/svg"
   xmlns:rdf="http://www.w3.org/1999/02/22-rdf-syntax-ns#"
   xmlns:cc="http://creativecommons.org/ns#"
   xmlns:dc="http://purl.org/dc/elements/1.1/">
  <defs
     id="defs2">
    <linearGradient
       id="linearGradient1099-6-5"
       inkscape:swatch="gradient">
      <stop
         style="stop-color:#273839;stop-opacity:0.5"
         offset="0"
         id="stop1151" />
      <stop
         style="stop-color:#273839;stop-opacity:1"
         offset="1"
         id="stop1153" />
    </linearGradient>
  </defs>
  <sodipodi:namedview
     id="base"
     pagecolor="#ffffff"
     bordercolor="#666666"
     borderopacity="1.0"
     inkscape:pageopacity="0.0"
     inkscape:pageshadow="2"
     inkscape:zoom="0.98994949"
     inkscape:cx="274.25642"
     inkscape:cy="389.41381"
     inkscape:document-units="px"
     inkscape:current-layer="g1320"
     inkscape:document-rotation="0"
     showgrid="false"
     inkscape:pagecheckerboard="true"
     inkscape:object-nodes="true"
     fit-margin-top="0"
     fit-margin-left="0"
     fit-margin-right="0"
     fit-margin-bottom="0"
     inkscape:window-width="1366"
     inkscape:window-height="697"
     inkscape:window-x="-8"
     inkscape:window-y="-8"
     inkscape:window-maximized="1"
     units="px" />
  <metadata
     id="metadata5">
    <rdf:RDF>
      <cc:Work
         rdf:about="">
        <dc:format>image/svg+xml</dc:format>
        <dc:type
           rdf:resource="http://purl.org/dc/dcmitype/StillImage" />
      </cc:Work>
    </rdf:RDF>
  </metadata>
  <g
     inkscape:label="Layer 1"
     inkscape:groupmode="layer"
     id="layer1"
     transform="translate(-59.62574,-110.15787)">
    <path
       style="fill:#000000;stroke-width:0.264583"
       id="path853"
       d="" />
    <path
       style="fill:#000000;stroke-width:0.264583"
       id="path849"
       d="" />
    <g
       id="g1061"
       transform="translate(9.0714285,1.8898814)">
      <g
         id="g1320"
         transform="translate(7.2162774,44.901282)">
        <g
           id="g1523"
           transform="matrix(1.6512894,0,0,1.6512894,-76.100944,-77.5633)">
          <path
             style="fill:#273839;fill-opacity:0.501961;stroke-width:0.264583"
             d="m 89.547116,151.16806 -8.24917,-3.06616 9.121158,-1.6361 -9.076815,-14.60976 11.25054,10.14415 4.647627,9.16787 c -22.103387,8.57244 -0.131203,12.51385 16.165264,12.57584 15.26811,-0.0893 35.74084,-4.31705 16.09654,-12.57584 l 4.64763,-9.16787 11.25054,-10.14415 -9.18699,14.7099 9.18699,1.53596 -8.25141,3.06616 c 11.98603,8.30888 0.2583,14.28891 -23.74452,14.29152 -24.39677,5.8e-4 -38.396371,-5.62827 -23.857384,-14.29152 z"
             id="path1519"
             sodipodi:nodetypes="ccccccccccccccc" />
          <path
             style="fill:#273839;fill-opacity:1;stroke-width:0.264583"
             d="m 99.477105,156.41009 c -0.248611,-2.16599 6.308175,-3.61465 11.122515,-3.71456 l -0.67665,-11.96837 h 6.95383 l -0.7467,11.96837 c 5.23002,0.004 11.22329,1.05261 11.20297,3.69317 -0.0263,3.72541 -8.25902,4.20519 -13.92796,4.14916 -5.63186,0.0149 -13.836551,-1.24538 -13.928005,-4.12777 z m 4.168485,-28.51141 c 4.61855,-1.15549 5.14906,-0.38108 0.98368,0.83977 -11.291343,4.32985 -2.40917,8.61636 8.77582,8.58856 11.40868,0.16007 21.66993,-4.37729 8.76209,-8.58856 -3.93857,-1.20244 -3.81882,-2.2413 0.59936,-0.83977 12.42226,4.21457 6.69966,11.74987 -9.36145,11.87952 -16.131974,-0.17141 -20.507472,-8.39108 -9.7595,-11.87952 z m 3.4089,-18.20147 -9.7444,9.82962 16.095,-32.258658 15.92435,32.258658 -9.47319,-9.82962 -2.41275,26.26744 -7.98135,1e-5 z"
             id="path1517"
             sodipodi:nodetypes="ccccccccccccccccccccccc" />
        </g>
      </g>
    </g>
  </g>
</svg>
