<svg height="512" viewBox="0 0 135.46667 135.46667" width="512" xmlns="http://www.w3.org/2000/svg"><g fill="#273839" stroke-width=".264583" transform="matrix(1.6512894 0 0 1.6512894 -119.438978 -140.930007)"><path d="m89.547116 151.16806-8.24917-3.06616 9.121158-1.6361-9.076815-14.60976 11.25054 10.14415 4.647627 9.16787c-22.103387 8.57244-.131203 12.51385 16.165264 12.57584 15.26811-.0893 35.74084-4.31705 16.09654-12.57584l4.64763-9.16787 11.25054-10.14415-9.18699 14.7099 9.18699 1.53596-8.25141 3.06616c11.98603 8.30888.2583 14.28891-23.74452 14.29152-24.39677.00058-38.396371-5.62827-23.857384-14.29152z" fill-opacity=".501961"/><path d="m99.477105 156.41009c-.248611-2.16599 6.308175-3.61465 11.122515-3.71456l-.67665-11.96837h6.95383l-.7467 11.96837c5.23002.004 11.22329 1.05261 11.20297 3.69317-.0263 3.72541-8.25902 4.20519-13.92796 4.14916-5.63186.0149-13.836551-1.24538-13.928005-4.12777zm4.168485-28.51141c4.61855-1.15549 5.14906-.38108.98368.83977-11.291343 4.32985-2.40917 8.61636 8.77582 8.58856 11.40868.16007 21.66993-4.37729 8.76209-8.58856-3.93857-1.20244-3.81882-2.2413.59936-.83977 12.42226 4.21457 6.69966 11.74987-9.36145 11.87952-16.131974-.17141-20.507472-8.39108-9.7595-11.87952zm3.4089-18.20147-9.7444 9.82962 16.095-32.258658 15.92435 32.258658-9.47319-9.82962-2.41275 26.26744-7.98135.00001z"/></g></svg>