<svg height="511.99997" viewBox="0 0 135.46666 135.46666" width="511.99997" xmlns="http://www.w3.org/2000/svg"><g fill="#273839" transform="matrix(1.3971102 0 0 1.3971099 -33.535537 -190.081234)"><path d="m43.634603 223.34297c-1.383957-.24123-2.663878-.52981-2.844271-.6413-.444774-.27489-.412541-1.09257.08067-2.04633l.408651-.79025.789569.56223c.434263.30922 1.211564.67874 1.727336.82115 1.130325.3121 1.258515.23904 5.075525-2.89285l2.72119-2.23275 1.24756.18707c3.17536.47613 2.983437 1.0846-1.36358 4.32309-1.945452 1.44934-3.783094 2.76677-4.083649 2.92762-.637215.34103-.511943.34828-3.758996-.21768zm53.221159-.027c-.488884-.30177-2.304587-1.61773-4.034896-2.92434-2.475717-1.8695-3.146018-2.51019-3.146018-3.00705 0-.54426.184335-.67092 1.33594-.91789.734766-.15758 1.499547-.28651 1.699511-.28651.199961 0 1.694198 1.079 3.320523 2.39778 3.817192 3.09535 3.929145 3.136 5.873908 2.133l1.53337-.79082.39442.76272c.52369 1.01271.49842 1.7748-.0686 2.06869-.25466.13199-1.47505.3824-2.71198.55646-1.236926.17406-2.487082.37051-2.778123.43656-.291042.066-.929162-.12682-1.418045-.4286zm-33.685415-3.63006-1.594384-1.52135-2.619309-.0909-2.619307-.0909v-1.00114c0-1.1956-.326744-1.51418-1.793531-1.74873-1.433637-.22924-1.785977-.54013-2.101953-1.85466l-.260141-1.08225 10.015313-.16912c5.508421-.093 14.546871-.0926 20.085444.00079l10.07013.17005-.172323 1.08132c-.205529 1.28968-.567058 1.61904-2.034824 1.85374-1.466786.23455-1.793531.55313-1.793531 1.74872v1.00115l-2.619306.0909-2.619309.0909-1.594384 1.52136-1.594385 1.52135h-7.579908-7.579908l-1.594384-1.52135zm-20.263885-.88938c-1.287688-.63739-3.063553-2.5294-3.470888-3.69788-.231185-.66318-.19189-.87481.243229-1.30992.665536-.66554.888152-.65441 2.849337.14249.895322.36381 1.866918.66146 2.159102.66146s1.79142-.62508 3.331635-1.38906c2.713831-1.34613 2.812068-1.37319 3.17818-.87547.207785.28247.37779.66253.37779.84457 0 .31008-7.001389 6.18271-7.37054 6.18225-.09355-.00011-.677577-.25141-1.297845-.55844zm1.524635-.90218c0-.64263-2.728896-3.30167-3.388412-3.30167-.962234 0-.679724.77489.834608 2.28922 1.39477 1.39477 2.553804 1.85427 2.553804 1.01245zm52.575461-1.18174c-1.81918-1.46325-3.452413-2.83495-3.629409-3.04822-.346106-.41703-.152881-1.71754.255186-1.71754.133781 0 1.470964.59507 2.971522 1.32238 1.500555.72731 2.906877 1.32379 3.125158 1.32551.218281.002 1.312255-.32081 2.431045-.71673 1.99154-.70475 2.04562-.7095 2.57969-.22616.30003.27152.54552.72166.54552 1.00031 0 .78886-1.48533 2.75558-2.71951 3.60091-2.00044 1.37016-1.90915 1.39546-5.559202-1.54046zm5.782422.14629c1.44437-1.44438 1.80926-2.26622 1.00616-2.26622-1.06649 0-3.53696 2.36619-3.53696 3.38766 0 .74779 1.18798.22137 2.5308-1.12144zm-61.401456-6.06033c-2.837818-1.18016-3.306427-1.42344-3.306427-1.71656 0-.10328.789379-1.07852 1.754177-2.1672.964797-1.08868 2.281526-2.7953 2.926065-3.79248 1.400854-2.16729 1.195379-2.1565 6.167675-.32392 7.395877 2.7258 7.799001 2.90795 7.893754 3.56675.0487.3386-.02777.73196-.169939.87412-.436772.43678-11.415226 4.7091-12.035709 4.68377-.320594-.0131-1.773912-.51911-3.229596-1.12448zm52.256074-1.09541c-2.983177-1.20746-5.572786-2.33238-5.754688-2.49982-.506565-.4663-.395864-1.02245.293418-1.47408.78758-.51604 10.612295-4.12097 11.678979-4.2853.726793-.11197.878143.0103 1.794173 1.4491.55023.86426 1.89718 2.61809 2.99322 3.89741 1.61146 1.88091 1.92633 2.38691 1.64542 2.64417-.5615.51422-5.84328 2.51685-6.565105 2.48922-.363802-.0139-3.10224-1.01324-6.085417-2.2207zm-40.481251 1.05085c0-.074 1.002787-.5978 2.228416-1.16404 2.515169-1.16201 3.23454-2.04134 2.975565-3.6372l-.143629-.88509h14.113397 14.113399l-.141203 1.05275c-.202184 1.50739.374706 2.20696 2.843599 3.44829 1.160751.58362 2.110457 1.11932 2.110457 1.19046 0 .0711-8.5725.12933-19.05.12933-10.477501 0-19.050001-.0605-19.050001-.1345zm1.852084-6.72762c-.654844-.26541-1.190625-.58618-1.190625-.71282s.578961-1.86737 1.286578-3.86828c1.231448-3.48214 1.3178-3.63803 2.015202-3.63803.673994 0 .790358-.16947 1.552064-2.26041l.823442-2.26042-.523539-.97681c-.638582-1.19146-.652571-1.69109-.08107-2.89544 1.287381-2.71295 5.373841-1.61591 5.377376 1.4436.0013 1.06257-1.132869 2.4077-2.377432 2.81981-.811673.26877-.948198.48042-1.637689 2.53885l-.752195 2.24563.575932.43442.575932.43443-1.144783 3.27307c-.629632 1.80019-1.259261 3.42189-1.399178 3.6038-.357576.46487-1.699138.38637-3.100014-.1814zm7.515124-14.88405c.319794-.91481-.161271-1.53716-1.188212-1.53716-1.151517 0-1.669759 1.17977-.86969 1.97984.649493.6495 1.759587.4107 2.057902-.44268zm24.124844 14.90302c-.363966-.5889-2.490899-6.91566-2.326111-6.91923.102952-.002.34425-.10364.536218-.22537.278294-.17645.180766-.70318-.481211-2.59888-.763299-2.18587-.909124-2.41238-1.808525-2.8092-2.55945-1.12922-2.448573-4.70646.170193-5.49106 2.757652-.82622 4.736566 2.32058 2.965654 4.71586l-.536908.72621.835128 2.31861.835128 2.3186.820129-.15077.820129-.15078 1.256771 3.56438c.691224 1.9604 1.256771 3.67104 1.256771 3.80141 0 .73889-3.938561 1.55521-4.343366.90022zm-1.899843-14.90302c.319794-.91481-.161272-1.53716-1.188212-1.53716-1.151517 0-1.669759 1.17977-.869691 1.97984.649494.6495 1.759588.4107 2.057903-.44268zm-16.510958 9.21947c0-5.13522.04389-5.68725.483854-6.08541.394184-.35674 1.077886-.43789 3.689165-.43789 4.281701 0 4.029064-.41845 4.029064 6.67346v5.49738h-4.101042-4.101041zm-18.492404 3.46563c-1.483134-.59212-2.602283-1.16295-2.486998-1.26851.232344-.21274 6.49271-1.03479 6.673063-.87623.223549.19652-.792684 2.95394-1.137415 3.08622-.193622.0743-1.565516-.34937-3.04865-.94148zm41.553233-.53007c-.288237-.76399-.445383-1.46301-.349218-1.55339.09617-.0904 1.425004-.006 2.952972.1885 1.527969.19405 2.986485.3573 3.241146.36276.254662.005.46295.0992.462865.20838-.000196.24951-4.737672 2.18846-5.339165 2.18521-.292407-.002-.623874-.47776-.9686-1.39146zm-30.814812-.92604c.228791-.69123.495446-1.34611.592566-1.4553.270997-.30466 5.941589-.9905 6.186199-.7482.118473.11736.178004.73556.132292 1.3738l-.08312 1.16043-2.910417.44583c-1.600729.24521-3.230613.45357-3.621961.46302l-.711544.0172.415981-1.25677zm19.660233.76352-2.778125-.43279-.07997-1.38907c-.04398-.76398.02312-1.38906.149114-1.38906.427781 0 6.23479.79177 6.300838.8591.03611.0368.302844.69202.592735 1.45601l.527071 1.38906-.966766-.0302c-.531723-.0166-2.216925-.22498-3.744894-.46302zm-11.1125-10.62775c0-.15019.172519-.68598.383373-1.19063l.383376-.91754h2.362353c2.580413 0 2.836146.12676 3.120107 1.54657l.166937.83468h-3.208073c-2.028881 0-3.208073-.10038-3.208073-.27308zm-5.187064-5.156c-.530802-.81011-.342138-2.47412.336801-2.97057.339-.24788 2.411204-.3316 8.208124-.3316 7.401862 0 7.778711.0241 8.283806.52917.638751.63875.695795 2.02561.117289 2.85154-.410276.58575-.443216.58804-8.460568.58804h-8.048689zm-3.279603-3.22378c-.810562-.29494-1.85062-1.52132-2.009804-2.36984-.116139-.61908-.0053-1.18089.378068-1.91641l.542375-1.04057-1.108967-3.19433c-1.097481-3.16125-1.117507-3.19434-1.934099-3.19661l-.825137-.002-2.151425-6.0676c-1.183286-3.33718-2.151428-6.19932-2.151428-6.3603 0-.1974.753779-.26781 2.315104-.21625l2.315104.0765 1.969545 5.53382c1.964989 5.52102 1.968247 5.53469 1.407692 5.90688l-.561853.37306.914868 2.55978c1.433439 4.01074 1.444168 4.03118 2.194714 4.18194 1.300456.26123 2.409409 1.56269 2.409409 2.82767 0 1.86974-2.075508 3.49724-3.704166 2.90461zm1.869995-2.22852c.218575-.40842.222682-.73478.01498-1.19063-.401905-.88208-1.780548-.88208-2.182453 0-.419653.92105.09831 1.75326 1.091232 1.75326.519713 0 .874355-.1854 1.076245-.56263zm19.944546 2.01486c-2.298858-1.16484-2.190927-4.28947.184365-5.33744.930476-.41053 1.025914-.57993 2.178748-3.86709.663104-1.89076 1.142844-3.53937 1.066089-3.66356-.07676-.12419-.311124-.22581-.520817-.22581s-.383188-.0893-.385543-.19843c-.0024-.10914.845699-2.60946 1.884567-5.55625l1.888849-5.35782h2.348768c1.291822 0 2.348767.0828 2.348767.184 0 .14445-3.580149 10.40172-4.137697 11.85466-.0715.18632-.489485.32204-.928863.30161-.790162-.0367-.81163-.001-1.969682 3.26794l-1.170816 3.30508.594141.79596c.901916 1.20829.821182 2.8153-.192292 3.82749-.97894.9777-2.111314 1.21552-3.188584.66966zm2.280455-2.01486c.218575-.40842.222681-.73478.01497-1.19063-.401904-.88208-1.780548-.88208-2.182452 0-.419653.92105.09831 1.75326 1.091231 1.75326.519713 0 .874356-.1854 1.076246-.56263zm-16.853573-.4112c-.257264-.41028-.860734-1.11921-1.341045-1.5754-.816404-.7754-.873295-.94345-.873295-2.57968 0-2.844-.08506-2.80859 6.746875-2.80859 6.84221 0 6.746875-.0401 6.746875 2.83848 0 1.71401-.03686 1.81498-.992187 2.7176-.545703.5156-1.124003 1.17305-1.285108 1.461-.268898.48061-.630848.53048-4.413641.60805l-4.120722.0845zm-.891423-8.09975-.661458-.33453-.07014-7.73136-.07014-7.73136h6.353998 6.353995l-.004 7.47448c-.0021 4.11096-.09153 7.60548-.198437 7.7656-.506614.75872-1.479905.8994-6.196264.8956-3.374049-.003-5.046959-.10551-5.507498-.33843zm-17.660938-14.74715c-.327422-.13161-.595312-.42172-.595312-.64469 0-.34726.607189-.4054 4.233333-.4054 3.94185 0 4.233333.0337 4.233333.48926 0 .43082-.30811.50966-2.579687.66009-3.319553.21982-4.555506.19664-5.291667-.0993zm38.481445-.16153c-.100652-.10065-.183007-.34176-.183007-.53579 0-.27934.885177-.35277 4.252733-.35277 3.907695 0 4.245523.0376 4.163851.46302-.0792.41257-.522592.47095-4.069725.53578-2.189465.04-4.063199-.01-4.163852-.11024zm-39.428137-1.8573c-.341631-.34163-.201703-6.88597.152942-7.15295.181901-.13694 1.533242-.6873 3.002979-1.22302l2.672252-.97404 18.229831.0124 18.229835.0124 2.778125 1.12684 2.778125 1.12684v3.55715 3.55715l-23.833151.0675c-13.108232.0371-23.913154-.0125-24.010938-.11024z"/><g fill-opacity=".5"><path d="m97.612154 169.65122-6.915599 13.12961 6.982415 12.72871 8.98694 1.20272-7.416731-13.96484 7.717411-14.2321z"/><path d="m109.03793 168.14782 7.21627-.93544-8.35217 15.56845 8.0515 14.93369-7.14947-.73499-7.51695-14.23211z"/><path d="m118.693 166.678-8.85326 16.00261 8.71966 15.70208.1336-7.01582-4.81081-8.48581 4.81081-9.05406z"/><g transform="matrix(-1 0 0 1 144.96905 -.097145)"><path d="m97.612154 169.65122-6.915599 13.12961 6.982415 12.72871 8.98694 1.20272-7.416731-13.96484 7.717411-14.2321z"/><path d="m109.03793 168.14782 7.21627-.93544-8.35217 15.56845 8.0515 14.93369-7.14947-.73499-7.51695-14.23211z"/><path d="m118.693 166.678-8.85326 16.00261 8.71966 15.70208.1336-7.01582-4.81081-8.48581 4.81081-9.05406z"/></g></g></g></svg>