<?xml version="1.0" encoding="UTF-8" standalone="no"?>
<svg
   xmlns:osb="http://www.openswatchbook.org/uri/2009/osb"
   xmlns:dc="http://purl.org/dc/elements/1.1/"
   xmlns:cc="http://creativecommons.org/ns#"
   xmlns:rdf="http://www.w3.org/1999/02/22-rdf-syntax-ns#"
   xmlns:svg="http://www.w3.org/2000/svg"
   xmlns="http://www.w3.org/2000/svg"
   xmlns:sodipodi="http://sodipodi.sourceforge.net/DTD/sodipodi-0.dtd"
   xmlns:inkscape="http://www.inkscape.org/namespaces/inkscape"
   width="512"
   height="512"
   viewBox="0 0 135.46667 135.46667"
   version="1.1"
   id="svg8"
   inkscape:version="1.0.1 (3bc2e813f5, 2020-09-07)"
   sodipodi:docname="Nox Vision.svg">
  <defs
     id="defs2">
    <linearGradient
       id="linearGradient1099-6-5"
       osb:paint="gradient">
      <stop
         style="stop-color:#273839;stop-opacity:0.5"
         offset="0"
         id="stop1151" />
      <stop
         style="stop-color:#273839;stop-opacity:1"
         offset="1"
         id="stop1153" />
    </linearGradient>
  </defs>
  <sodipodi:namedview
     id="base"
     pagecolor="#ffffff"
     bordercolor="#666666"
     borderopacity="1.0"
     inkscape:pageopacity="0.0"
     inkscape:pageshadow="2"
     inkscape:zoom="0.7"
     inkscape:cx="115.85814"
     inkscape:cy="237.77784"
     inkscape:document-units="px"
     inkscape:current-layer="g1320"
     inkscape:document-rotation="0"
     showgrid="false"
     inkscape:pagecheckerboard="true"
     inkscape:object-nodes="true"
     fit-margin-top="0"
     fit-margin-left="0"
     fit-margin-right="0"
     fit-margin-bottom="0"
     inkscape:window-width="1600"
     inkscape:window-height="837"
     inkscape:window-x="-8"
     inkscape:window-y="-8"
     inkscape:window-maximized="1"
     units="px" />
  <metadata
     id="metadata5">
    <rdf:RDF>
      <cc:Work
         rdf:about="">
        <dc:format>image/svg+xml</dc:format>
        <dc:type
           rdf:resource="http://purl.org/dc/dcmitype/StillImage" />
        <dc:title></dc:title>
      </cc:Work>
    </rdf:RDF>
  </metadata>
  <g
     inkscape:label="Layer 1"
     inkscape:groupmode="layer"
     id="layer1"
     transform="translate(-59.62574,-110.15787)">
    <path
       style="fill:#000000;stroke-width:0.264583"
       id="path853"
       d="" />
    <path
       style="fill:#000000;stroke-width:0.264583"
       id="path849"
       d="" />
    <g
       id="g1061"
       transform="translate(9.0714285,1.8898814)">
      <g
         id="g1320"
         transform="translate(7.2162774,44.901282)">
        <g
           id="g1965"
           transform="matrix(1.10262,0,0,1.1026205,-10.397914,-14.437788)">
          <path
             style="fill:#273839;fill-opacity:0.501961;stroke-width:0.352778"
             d="m 59.18784,183.41875 c -4.608148,-0.83458 -7.582941,-4.37072 -7.573528,-9.00263 0.0069,-3.37195 1.447002,-5.98064 4.310334,-7.80775 1.106562,-0.70611 1.322916,-1.04161 1.322916,-2.05149 0,-2.30279 1.426131,-4.55961 3.598454,-5.69448 2.332473,-1.21854 6.478752,-0.22531 8.004544,1.91746 l 0.726304,1.02 5.036044,-1.01073 c 2.769824,-0.5559 5.472606,-1.1033 6.006183,-1.21643 1.428326,-0.30285 1.243023,0.45478 -0.655116,2.6785 -3.617234,4.23771 -3.490023,3.94737 -3.490023,7.96534 0,3.12313 -0.100952,3.75033 -0.742432,4.61265 -1.043507,1.40276 -2.59877,2.22301 -4.68308,2.46987 -1.277218,0.15127 -1.845916,0.38987 -1.986737,0.83356 -0.492067,1.55036 -2.328375,3.48132 -4.115538,4.32767 -2.2038,1.04365 -3.810941,1.31115 -5.758325,0.95846 z m 98.17919,-0.15307 c -2.43019,-0.64635 -4.38976,-2.09547 -5.48411,-4.05555 -0.90138,-1.61445 -1.06013,-1.72835 -2.67529,-1.91964 -2.01614,-0.23879 -3.57734,-1.07219 -4.61069,-2.4613 -0.64148,-0.86232 -0.74243,-1.48952 -0.74243,-4.61265 0,-4.01797 0.12721,-3.72763 -3.49002,-7.96534 -1.89814,-2.22372 -2.08345,-2.98135 -0.65512,-2.6785 0.53358,0.11313 3.23636,0.66053 6.00618,1.21643 l 5.03605,1.01073 0.7263,-1.02 c 1.52579,-2.14277 5.67207,-3.136 8.00455,-1.91746 2.17232,1.13487 3.59845,3.39169 3.59845,5.69448 0,1.00988 0.21635,1.34538 1.32292,2.05149 2.86333,1.82711 4.30347,4.4358 4.31033,7.80775 0.0122,6.0152 -5.58657,10.38167 -11.34712,8.84956 z"
             id="path1961"
             sodipodi:nodetypes="scsssscssssssssssssssssscsssscs" />
          <path
             style="fill:#273839;fill-opacity:1;stroke-width:0.352778"
             d="m 127.80312,188.64286 c -1.0691,-1.7612 -3.13061,-3.3299 -5.08145,-3.86671 -0.79472,-0.21868 -4.30244,-0.41665 -7.79494,-0.43993 -6.0803,-0.0405 -6.41661,-0.0798 -7.91849,-0.92427 -2.86972,-1.61361 -4.21625,-5.97691 -3.21929,-10.4318 0.80807,-3.61082 3.0927,-5.2219 7.43361,-5.24202 2.1294,-0.01 2.98655,0.15866 4.39139,0.86341 2.57258,1.29057 3.17995,2.31796 3.18728,5.39136 0.003,1.39693 -0.0733,2.85733 -0.17033,3.24533 -0.16198,0.64781 0.0542,0.72469 2.64583,0.94087 5.28206,0.4406 8.89694,2.53539 11.14831,6.46036 0.55874,0.97411 1.01739,1.87072 1.01922,1.99248 0.005,0.35641 -3.91922,3.48371 -4.35875,3.4733 -0.22025,-0.005 -0.79732,-0.66329 -1.28239,-1.46238 z m -35.453106,-20.79798 -2.646895,-2.5143 -0.0021,-2.16001 c -0.0025,-2.45528 0.981918,-10.60013 1.416519,-11.72203 0.19606,-0.50612 0.718767,-0.81381 1.641454,-0.96626 2.015398,-0.33299 4.635059,-0.27753 4.870306,0.1031 0.113718,0.184 -0.182298,3.47806 -0.657815,7.32014 -0.475512,3.84208 -0.969606,8.21591 -1.097982,9.71962 -0.128375,1.50372 -0.378139,2.73403 -0.555028,2.73403 -0.176887,0 -1.512719,-1.13143 -2.968513,-2.51429 z m 34.246186,-0.73206 c -0.13323,-1.80402 -0.56046,-5.79068 -0.94941,-8.85924 -0.38894,-3.06856 -0.65819,-6.08481 -0.59834,-6.70278 0.10487,-1.08262 0.17313,-1.1273 1.87273,-1.22589 0.97013,-0.0563 2.39037,0.0284 3.15608,0.18825 l 1.3922,0.29056 0.79799,5.63259 c 1.22803,8.66794 1.31382,8.14872 -1.84741,11.18091 -1.47112,1.41106 -2.8788,2.61283 -3.12818,2.67061 -0.33171,0.0768 -0.51846,-0.77548 -0.69566,-3.17501 z m -25.86878,-0.006 c -0.57058,-0.27519 -0.793297,-0.69001 -0.792147,-1.47543 0.0018,-1.21748 1.304927,-12.67681 1.570297,-13.80861 0.20731,-0.88412 4.35417,-3.92268 6.28151,-4.60269 2.43861,-0.86039 5.66579,-0.64695 8.14755,0.53888 2.66264,1.27225 5.00983,3.23431 5.31268,4.44095 0.2328,0.92757 0.73636,5.31373 1.25455,10.92774 0.27162,2.94259 0.2411,3.22019 -0.41692,3.79236 -0.96215,0.83663 -3.50668,0.79812 -5.83908,-0.0884 -2.55948,-0.97281 -7.14113,-0.97273 -9.60941,1.7e-4 -1.93484,0.76265 -4.63713,0.8884 -5.90903,0.275 z m 1.00449,-19.8176 c -1.00836,-1.07335 -0.68105,-1.8035 1.58359,-3.53268 2.53501,-1.93564 4.4806,-2.42005 9.12735,-2.27254 3.94749,0.12531 4.00909,0.14042 5.91062,1.45006 3.53425,2.43413 4.15252,3.66774 2.38991,4.7685 -0.86408,0.53963 -1.64018,0.2047 -3.6128,-1.55915 l -1.32394,-1.18381 h -4.41658 -4.4166 l -1.49142,1.36509 c -2.00845,1.83833 -2.75005,2.02906 -3.75013,0.96453 z m -14.321847,-1.24998 c -1.667588,-0.28736 -3.980388,-1.43041 -4.858163,-2.40105 -0.362348,-0.40068 -1.002425,-2.45414 -1.523696,-4.88823 -0.757778,-3.53847 -0.929792,-5.45769 -1.095891,-12.22707 l -0.197024,-8.02977 1.365971,-1.28828 c 1.688448,-1.59241 6.358294,-3.86418 8.954637,-4.35622 5.207063,-0.98681 29.551423,-1.1766 39.863893,-0.31079 3.74168,0.31414 4.30783,0.46244 7.28548,1.90831 1.7757,0.86223 3.79976,2.10643 4.49792,2.76487 l 1.26937,1.19718 v 6.3176 c 0,6.8865 -0.35541,10.65253 -1.4484,15.34746 -0.77305,3.32068 -1.0086,3.63908 -3.73629,5.05042 -1.47008,0.76063 -2.49203,0.98787 -5.15808,1.14693 -4.97213,0.29664 -7.46167,-0.41921 -12.07769,-3.47285 l -3.66462,-2.42426 h -5.51731 -5.51731 l -2.28872,1.59993 c -5.635277,3.93934 -10.208462,5.09037 -16.154077,4.06582 z m 8.778752,-2.28446 c 0.912417,-0.2746 2.32671,-1.03734 3.142872,-1.69497 0.816163,-0.65764 2.277683,-1.66328 3.247823,-2.23476 l 1.76389,-1.03906 h 7.05555 7.05556 l 1.76389,1.04462 c 0.97014,0.57454 2.51797,1.63485 3.43963,2.35625 1.8737,1.46657 4.76305,2.26647 7.06941,1.95712 1.77565,-0.23816 3.2449,-1.63155 3.94285,-3.73926 0.91213,-2.75452 2.39842,-15.69446 2.18037,-18.98279 -0.32732,-4.93631 -0.66398,-5.1778 -8.01659,-5.75034 -9.77894,-0.76148 -26.59729,-0.66645 -37.639724,0.21268 -2.533319,0.20168 -3.057109,0.36183 -3.96875,1.21343 l -1.050255,0.98109 v 4.77182 c 0,4.77275 0.225929,7.2033 1.284503,13.81871 0.721861,4.51115 1.786332,6.64758 3.654386,7.33445 1.000954,0.36805 3.418459,0.24943 5.074585,-0.24899 z m 18.642295,-11.02574 c -0.46013,-0.18513 -1.49188,-1.93557 -1.49188,-2.53109 0,-0.2063 0.54008,-0.21145 1.42093,-0.0135 1.67592,0.37655 2.43516,0.0495 5.17958,-2.23102 1.0109,-0.84004 2.98247,-2.14549 4.38125,-2.90101 2.23724,-1.20838 3.01357,-1.42524 6.45227,-1.80235 2.14996,-0.23579 4.05311,-0.29619 4.22921,-0.13424 0.40316,0.37076 -0.39607,1.3827 -1.09206,1.3827 -0.56307,0 -5.75451,2.32958 -5.75451,2.58225 0,0.0873 1.03187,0.0759 2.29305,-0.0253 3.3115,-0.26581 3.16079,0.14972 -1.41739,3.90782 l -2.07369,1.70223 -2.10466,-0.24428 c -1.15757,-0.13435 -2.5892,-0.448 -3.1814,-0.697 -0.94595,-0.39774 -1.36185,-0.34988 -3.42442,0.39413 -2.42218,0.87373 -2.65791,0.91587 -3.41628,0.61075 z m -20.937944,-1.70776 c -4.755818,-4.13648 -4.790863,-4.22649 -1.544214,-3.96588 1.261181,0.10123 2.293056,0.12525 2.293056,0.0534 0,-0.27744 -4.149193,-2.20766 -5.565151,-2.58894 -1.343395,-0.36174 -1.952801,-1.12795 -1.225822,-1.54124 0.490771,-0.279 8.01629,0.71488 9.084028,1.19971 1.636364,0.74303 4.771267,2.76263 6.526387,4.2045 2.25941,1.85614 3.00122,2.17747 4.41467,1.91231 1.39767,-0.2622 1.60733,0.21012 0.68061,1.53321 -0.67901,0.96941 -1.86565,1.00542 -4.42269,0.1342 -1.6002,-0.54521 -2.07772,-0.5801 -2.96564,-0.21666 -0.58209,0.23825 -2.030317,0.54392 -3.218289,0.67927 l -2.159953,0.24609 z m -6.482941,11.53239 c -1.039399,-1.57063 -1.650643,-4.47303 -2.682797,-12.73882 -0.445273,-3.56587 -0.644451,-6.6022 -0.510734,-7.78581 l 0.219198,-1.94027 -0.80597,0.80374 c -0.766593,0.76447 -0.804792,1.04886 -0.78183,5.82083 0.02745,5.70149 0.38553,7.92594 2.094414,13.01029 1.209629,3.59895 1.579132,4.16219 2.737146,4.17224 0.546933,0.005 0.514276,-0.15794 -0.269427,-1.3422 z m 48.773305,0.90662 c 0.38233,-0.47773 1.89726,-4.79463 2.54781,-7.26013 1.37603,-5.21498 1.59374,-13.44373 0.39475,-14.92021 -0.52476,-0.64621 -0.56613,-0.44543 -0.60538,2.93816 -0.079,6.81406 -1.74229,15.82259 -3.58523,19.41857 -0.22959,0.44797 0.8731,0.29213 1.24805,-0.17639 z M 70.370549,131.44848 c 0.553517,-1.00069 1.678399,-11.83793 1.327297,-12.78733 -0.146778,-0.3969 -0.997512,-1.32034 -1.890521,-2.05209 -1.254351,-1.02785 -1.623651,-1.56445 -1.623651,-2.35923 0,-0.88819 0.253098,-1.15543 1.852083,-1.95558 2.010224,-1.00593 3.444822,-2.16116 3.430625,-2.76255 -0.0049,-0.20871 -0.798677,-1.32911 -1.763888,-2.48977 -1.853072,-2.22832 -2.153486,-3.35404 -1.13757,-4.26276 0.815489,-0.72944 4.688319,-3.202881 9.206822,-5.880081 3.828906,-2.268617 3.53386,-1.986371 12.808459,-12.252772 2.76545,-3.061181 3.770112,-3.913566 5.87985,-4.988646 3.564735,-1.816519 10.170765,-3.614659 13.291675,-3.617953 2.88345,-0.003 9.14254,1.653283 13.05278,3.454125 2.30726,1.062598 2.84751,1.558791 8.22582,7.555024 6.34851,7.077899 7.47334,8.027746 13.6464,11.523521 7.33489,4.153712 7.94805,4.958312 5.70941,7.492012 -0.64336,0.72816 -1.51102,1.81701 -1.92812,2.41966 -0.94364,1.36341 -0.75233,1.64787 2.44672,3.63805 1.29109,0.80322 2.44758,1.72134 2.56997,2.04027 0.14061,0.36643 -0.172,1.04438 -0.84927,1.84181 -0.58949,0.69405 -1.49896,1.79354 -2.02105,2.44328 l -0.94926,1.18136 0.41503,5.44485 c 0.22827,2.99467 0.58943,5.77072 0.80258,6.169 0.21315,0.39828 0.33499,0.77351 0.27077,0.83386 -0.0642,0.0603 -1.76565,0.007 -3.78094,-0.11841 l -3.66417,-0.22813 -0.04,-7.23157 -0.04,-7.23156 -3.72747,-2.64622 c -2.05011,-1.45541 -4.00783,-3.01083 -4.35048,-3.4565 -0.34265,-0.44566 -0.77098,-1.85515 -0.95183,-3.13221 -0.42065,-2.97031 -1.0708,-4.30847 -3.2537,-6.69692 -2.86206,-3.131541 -7.73535,-5.202865 -12.23458,-5.200125 -3.15104,0.0019 -4.66903,0.672523 -7.04081,3.11044 -0.87541,0.899825 -1.89867,1.616615 -2.3078,1.616615 -0.40913,0 -1.43239,-0.71679 -2.3078,-1.616615 -2.57967,-2.6516 -3.78707,-3.118711 -8.09914,-3.13333 -3.059974,-0.01037 -4.050631,0.12753 -5.696339,0.792956 -2.473865,1.000281 -4.684282,2.918303 -6.944597,6.025949 -2.359106,3.24348 -2.828498,4.23708 -3.102324,6.5669 l -0.23434,1.99386 -2.779994,2.11623 c -1.528996,1.16393 -3.410912,2.71641 -4.182035,3.44996 l -1.402043,1.33373 v 6.59208 c 0,4.96601 -0.108775,6.62561 -0.440972,6.72798 -0.242535,0.0747 -1.831541,0.22088 -3.531126,0.32477 l -3.090153,0.18888 z"
             id="path1959" />
        </g>
      </g>
    </g>
  </g>
</svg>
