<svg height="512" viewBox="0 0 135.46666 135.46667" width="512" xmlns="http://www.w3.org/2000/svg"><g fill="#273839" transform="matrix(1.1418211 0 0 1.1418218 -65.512695 -76.057806)"><path d="m440.60737 262.26758-19.52493 122.63867c-20.91507 5.26337-40.33168 14.27411-55.08439 34.94336l-112.7736-55.08628 102.63297 70.84409c-11.28085 27.30369-10.16541 51.88502-.27344 74.54102l-102.35953 76.18776 111.53922-58.23659c12.37989 16.01945 33.09913 28.01312 56.31877 33.70898l19.52493 127.84571 17.19707-126.06446c19.63658-2.0135 36.77553-13.67806 52.48072-33.43554l105.78472 56.1819-96.87652-70.15847c11.60961-26.22803 14.22069-52.25489 2.60352-77.96679l94.273-73.44761-104.03668 56.21519c-12.67615-17.28201-30.25046-30.28725-54.22876-35.72852zm-2.32026 152.58984c33.90508.00008 61.39055 27.48555 61.39062 61.39063-.00008 33.90507-27.48555 61.39054-61.39062 61.39062-33.90508-.00007-61.39055-27.48554-61.39063-61.39062.00007-33.90508 27.48555-61.39056 61.39063-61.39063z" transform="scale(.26458333)"/><path d="m140.01636 103.979-2.93665 1.37769c-2.34586-2.42771-5.5013-4.04583-8.37488-5.945803 3.86435 1.372553 7.89725 2.475443 11.31153 4.568113z"/><path d="m92.522458 103.76147 2.936653 1.37769c2.34586-2.42771 5.501299-4.04583 8.374879-5.945801-3.864349 1.372551-7.897249 2.475441-11.311532 4.568111z"/><path d="m92.084775 147.15106-4.409405 1.79452c5.763854 3.06492 11.358076 6.35602 18.30416 7.84464l-.20509-3.89668c-5.0052-1.20699-9.352739-3.46625-13.689665-5.74248z"/><path d="m139.40058 148.26913 4.40941 1.79452c-5.76386 3.28876-13.97296 6.6242-20.91904 7.79337l.71781-4.10177c1.97183.0421 9.95404-2.59189 15.79182-5.48612z"/><path d="m152.73972 112.33727-3.23014 2.15343c5.19672 4.301 10.35371 8.63606 14.61256 13.74094-3.86332 4.71323-8.39916 8.64187-13.0744 12.40786l3.07633 2.2047c5.67191-4.65511 10.47371-9.60025 14.9202-14.66383-4.68502-5.87919-10.40337-11.04494-16.30455-15.8431z"/><path d="m80.652291 112.00276 3.23014 2.15343c-5.19672 4.301-10.35371 8.63606-14.61256 13.74094 4.027198 4.30353 5.810437 6.05902 10.264647 10.37759l-3.07633 2.2047c-5.164342-5.01766-8.461448-7.86002-12.110331-12.63356 4.68502-5.87919 10.403254-11.04494 16.304434-15.8431z"/><g fill-opacity=".5"><path d="m88.239363 117.15686-4.358132 3.38396c-1.382441 5.24647-.611804 10.06232.71781 14.76638l3.435233-2.25598c-1.662787-5.125-.817243-10.50084.205089-15.89436z"/><path d="m144.91412 117.20813 2.97378 2.40979c1.38244 5.24647.30417 13.24119-1.02544 17.94525l-3.43523-2.25598c.75913-3.2451 2.29963-12.68841.40434-17.27506z"/></g></g></svg>