<svg height="512" viewBox="0 0 135.46666 135.46667" width="512" xmlns="http://www.w3.org/2000/svg"><g fill="#273839" transform="matrix(1.1614582 0 0 1.1614584 -9.611246 -10.468166)"><path d="m74.036979 66.858885 4.460677 11.638778 3.845412-2.87124-7.12683-8.767538z"/><path d="m59.116785 66.858879-4.460677 11.638778-3.845412-2.87124 7.12683-8.767538z"/><path d="m62.757107 67.833049-4.358132 11.126057h16.355814l-4.460676-11.279873c-2.512335.450788-5.024671.523269-7.537006.153816z"/><path d="m57.014626 82.701973h18.61179v11.279872h-18.61179z"/><path d="m59.167968 61.560791c5.075684 1.276368 10.151368.963812 15.227052-.07251l-6.235841-49.741699h-3.552978z"/><path d="m79.470701 82.697387v10.115111l9.28125-6.670897v-1.957763l6.779665-11.891602 1.812742 6.308349 6.598392-.362548 3.44421-6.344605-5.00317-15.662108c-.41539-1.156178-.9153-1.731057-2.465335-1.377686-2.142201.722178-4.235643 1.582506-6.090819 3.117919-1.492187 1.254504-.811486 2.453293-.507569 3.661743.329003 1.350315.437276 1.852323-.145018 2.791627l-7.976076 14.248167z"/><path d="m53.628127 82.52871v10.115114l-9.28125-6.6709v-1.957763l-6.779665-11.891602-1.812742 6.308349-6.598392-.362548-3.44421-6.344605 5.00317-15.662108c.41539-1.156178.9153-1.731057 2.465335-1.377686 2.142201.722178 4.235643 1.582506 6.090819 3.117919 1.492187 1.254504.811486 2.453293.507569 3.661743-.329003 1.350315-.437276 1.852323.145018 2.791627l7.976076 14.248167z"/><path d="m64.723761 107.51074c1.648134 2.21685 2.742722 1.9015 4.024291 0 2.186181-3.86823.636852-6.54948-1.85806-6.6709-2.689737-.0307-4.957299 2.86587-2.166231 6.6709z"/><path d="m208.90039 368.38281 15.11523 54.26172h56.00391l13.75781-54.26172zm42.4375 5.42774c17.17053.22317 28.67754 19.92119 11.62695 37.98242-10.05801 10.40292-11.71339 10.17577-21.50976 0-16.88138-17.99361-9.09765-35.89987 9.88281-37.98242z" fill-opacity=".5" transform="scale(.26458333)"/><path d="m108.76465 76.352783-2.46533 6.018569c-.45962.628564-.51982.835367-1.52693.870118l-6.304129.217529 8.918699 37.124741c2.12061-.35344-.20466.88265 3.90907.58927 2.1071-.21048 3.052-1.84129 2.97936-4.21476-.65457-13.86358-1.44623-27.689089-5.51074-40.605467z"/><path d="m24.420646 76.453624 2.46533 6.018564c.45962.62857.51982.83537 1.52693.87012l6.304129.21753-8.918699 37.124742c-2.12061-.35344.20466.88265-3.90907.58927-2.1071-.21048-3.052-1.84129-2.97936-4.21476.65457-13.86358 1.44623-27.689092 5.51074-40.605466z"/><path d="m63.269828 114.43943h6.767925l-2.409791 6.8192h-1.948341z"/><g fill-opacity=".5"><path d="m56.296816 107.62024 1.076717 3.89668c-1.490481-1.08672-1.773302-2.39988-1.076717-3.89668z"/><path d="m76.754404 107.36388c.719328 2.16248 1.42987 2.3647-.922901 3.99922z"/><path d="m79.497462 97.391443-1.307439 4.845217c1.650993-1.5683 3.306829-3.172922 4.691401-2.743059.751925.166398.803108-.23555 1.281806-.871628l4.281223-7.51137z"/><path d="m53.691084 97.363573 1.307439 4.845217c-1.650993-1.5683-3.306829-3.172922-4.691401-2.743059-.751925.166398-.803108-.23555-1.281806-.871628l-4.281223-7.51137z"/><path d="m74.139525 122.69425h20.508856l-9.16537-2.45586 12.087884-12.77197z"/><path d="m58.81348 122.91429h-20.508856l9.16537-2.45586-12.087884-12.77197z"/></g><path d="m82.806153 101.22363c-2.465307 1.02725-4.314127 2.67098-3.806764 6.6709l3.843017.0362c2.077951-.22921 2.280312-2.03362 1.848998-2.71911-1.058209-1.2577-1.365575-2.64054-1.885251-3.98799z"/><path d="m50.646401 101.22654c2.465307 1.02725 4.314127 2.67098 3.806764 6.6709l-3.843017.0362c-2.077951-.22921-2.280312-2.03362-1.848998-2.71911 1.058209-1.2577 1.365575-2.64054 1.885251-3.98799z"/><path d="m42.812242 20.765219-4.050498 16.458359 10.664605 26.04625z" fill-opacity=".5"/><path d="m90.567732 20.765158 4.050498 16.458359-10.664605 26.04625z" fill-opacity=".5"/></g></svg>