<svg height="512" viewBox="0 0 135.46666 135.46667" width="512" xmlns="http://www.w3.org/2000/svg"><g fill="#273839" transform="matrix(1.0421463 0 0 1.0421463 -5.666197 1.100335)"><path d="m59.065514 18.355428-5.973207 2.307247v78.830926l6.024478 2.281609z"/><path d="m81.330441 18.355469 5.973207 2.307247v78.830926l-6.024478 2.281608z"/><path d="m8.4836425 79.76074c15.4931745 12.09458 27.1434065 24.95775 50.6118165 35.45728h-46.40625l19.795165-6.23584z"/><path d="m132.37873 79.782987c-15.49318 12.094582-27.14341 24.957753-50.611818 35.457283h46.406248l-19.79517-6.23584z"/><path d="m40.677978 28.641357v62.430908c-3.307468-3.088358-2.322416-5.606536-4.568116-8.193603-1.545309-3.032445-5.656568-1.299966-5.220703-9.208741l.01755-29.78138c.02432-2.106831.35939-2.262583 1.488584-3.31304l3.787081-3.523011c3.079687-2.278015 2.68971-6.151245 4.495604-8.411133z"/><path d="m100.27112 29.166733v62.430908c1.74851-3.559671 2.28617-6.802947 4.56812-8.193603 1.07399-.639623 5.25776-2.387612 5.2207-9.208741l-.0175-29.78138c-.0243-2.106831-.35939-2.262583-1.48859-3.31304l-3.78708-3.523011c-3.07968-2.278015-2.68971-6.151245-4.4956-8.411133z"/><circle cx="70.499207" cy="59.988415" r="7.301927"/><circle cx="46.753368" cy="78.657669" r="3.171902"/><circle cx="46.841309" cy="40.532959" r="3.171902"/><circle cx="93.827637" cy="40.460449" r="3.171902"/><circle cx="93.827637" cy="78.745605" r="3.171902"/><path d="m67.687866 107.16943c2.36278 2.30642 3.087366 2.41448 5.692016-.0363 4.454047-5.54275.692989-7.761176-2.646608-7.867311-2.691364-.164154-7.927562 2.331681-3.045408 7.903611z"/><path d="m67.907698 14.402108c2.36278-2.30642 3.087366-2.41448 5.692016.0363 4.454047 5.542749.692989 7.761175-2.646608 7.86731-2.691364.164154-7.927562-2.331681-3.045408-7.90361z"/></g></svg>