<?xml version="1.0" encoding="UTF-8" standalone="no"?>
<svg
   xmlns:osb="http://www.openswatchbook.org/uri/2009/osb"
   xmlns:dc="http://purl.org/dc/elements/1.1/"
   xmlns:cc="http://creativecommons.org/ns#"
   xmlns:rdf="http://www.w3.org/1999/02/22-rdf-syntax-ns#"
   xmlns:svg="http://www.w3.org/2000/svg"
   xmlns="http://www.w3.org/2000/svg"
   xmlns:sodipodi="http://sodipodi.sourceforge.net/DTD/sodipodi-0.dtd"
   xmlns:inkscape="http://www.inkscape.org/namespaces/inkscape"
   width="512"
   height="512"
   viewBox="0 0 135.46667 135.46667"
   version="1.1"
   id="svg8"
   inkscape:version="1.0.1 (3bc2e813f5, 2020-09-07)"
   sodipodi:docname="Grenadier.svg">
  <defs
     id="defs2">
    <linearGradient
       id="linearGradient1099-6-5"
       osb:paint="gradient">
      <stop
         style="stop-color:#273839;stop-opacity:0.5"
         offset="0"
         id="stop1151" />
      <stop
         style="stop-color:#273839;stop-opacity:1"
         offset="1"
         id="stop1153" />
    </linearGradient>
  </defs>
  <sodipodi:namedview
     id="base"
     pagecolor="#ffffff"
     bordercolor="#666666"
     borderopacity="1.0"
     inkscape:pageopacity="0.0"
     inkscape:pageshadow="2"
     inkscape:zoom="0.98994949"
     inkscape:cx="154.77677"
     inkscape:cy="285.32431"
     inkscape:document-units="px"
     inkscape:current-layer="g1320"
     inkscape:document-rotation="0"
     showgrid="false"
     inkscape:pagecheckerboard="true"
     inkscape:object-nodes="true"
     fit-margin-top="0"
     fit-margin-left="0"
     fit-margin-right="0"
     fit-margin-bottom="0"
     inkscape:window-width="1600"
     inkscape:window-height="837"
     inkscape:window-x="-8"
     inkscape:window-y="-8"
     inkscape:window-maximized="1"
     units="px" />
  <metadata
     id="metadata5">
    <rdf:RDF>
      <cc:Work
         rdf:about="">
        <dc:format>image/svg+xml</dc:format>
        <dc:type
           rdf:resource="http://purl.org/dc/dcmitype/StillImage" />
        <dc:title></dc:title>
      </cc:Work>
    </rdf:RDF>
  </metadata>
  <g
     inkscape:label="Layer 1"
     inkscape:groupmode="layer"
     id="layer1"
     transform="translate(-59.62574,-110.15787)">
    <path
       style="fill:#000000;stroke-width:0.264583"
       id="path853"
       d="" />
    <path
       style="fill:#000000;stroke-width:0.264583"
       id="path849"
       d="" />
    <g
       id="g1061"
       transform="translate(9.0714285,1.8898814)">
      <g
         id="g1320"
         transform="translate(7.2162774,44.901282)">
        <g
           id="g1545"
           transform="matrix(1.2035149,0,0,1.2035152,-19.561712,-37.157586)">
          <path
             style="fill:#273839;fill-opacity:0.501961;stroke-width:0.352778"
             d="m 88.383854,184.86005 c -2.217699,-1.20437 -1.910144,-4.96543 0.48798,-5.96742 1.556127,-0.65019 2.92319,-0.33066 3.985221,0.93149 2.557639,3.03958 -0.926514,6.96204 -4.473201,5.03593 z m 31.278306,-0.25472 c -0.6145,-0.52857 -0.98844,-1.27896 -1.11775,-2.24301 -0.16721,-1.24668 -0.0521,-1.60785 0.82523,-2.58978 2.55908,-2.86411 7.22401,-0.0175 5.76069,3.51532 -0.85345,2.06041 -3.78368,2.76641 -5.46817,1.31747 z m -15.94138,-9.93488 c -0.8219,-0.70696 -0.98981,-1.13106 -0.98981,-2.49998 0,-1.36893 0.16791,-1.79303 0.98981,-2.49999 2.00498,-1.72461 5.26459,-0.71969 5.73107,1.76686 0.25284,1.34775 -0.51433,3.1477 -1.58607,3.72128 -1.20669,0.6458 -3.08368,0.42475 -4.145,-0.48817 z m -12.172869,-1.33582 c 0.64171,-0.64171 0.507527,-1.86056 -0.283655,-2.57657 -1.369028,-1.23896 -3.371391,0.60637 -2.475145,2.28103 0.432608,0.80832 2.070548,0.98379 2.7588,0.29554 z m 32.533249,-0.29554 c 0.48583,-0.90779 0.15351,-1.99255 -0.76024,-2.48157 -1.51562,-0.81113 -3.21937,1.55631 -1.99856,2.77711 0.68825,0.68825 2.32619,0.51278 2.7588,-0.29554 z m -35.584693,-7.58094 c -2.000412,-1.68323 -1.731179,-4.22463 0.590804,-5.57683 3.415877,-1.98923 6.804795,2.73602 3.904997,5.44483 -1.410805,1.31789 -3.029952,1.36543 -4.495801,0.132 z m 32.186693,-0.14647 c -1.05882,-0.44679 -2.25358,-2.08184 -2.25358,-3.08409 0,-1.26775 0.8837,-2.74069 1.93042,-3.21761 1.58966,-0.7243 2.6413,-0.50641 3.97033,0.82263 1.10036,1.10035 1.21981,1.39364 1.034,2.53867 -0.36802,2.26785 -2.74166,3.75881 -4.68117,2.9404 z m -12.68573,-5.16086 c 0.71395,-0.71393 0.70376,-1.51805 -0.0295,-2.32827 -1.09369,-1.20854 -2.94392,-0.42306 -2.94392,1.24978 0,1.55113 1.83515,2.21676 2.97341,1.07849 z m 26.58937,-0.22174 c 0.71109,-0.7111 0.48644,-1.9885 -0.45861,-2.60772 -0.81699,-0.53531 -0.9469,-0.53531 -1.76389,0 -0.95055,0.62282 -1.09326,1.27148 -0.51676,2.34869 0.4139,0.77336 2.06846,0.92982 2.73926,0.25903 z m -58.374585,15.43129 c -3.236544,-1.40788 -2.08173,-6.54129 1.471529,-6.54129 3.70163,0 4.64924,5.45961 1.158802,6.67638 -1.322334,0.46097 -1.251719,0.46459 -2.630331,-0.13509 z m 58.201125,0.17145 c -1.10754,-0.46524 -2.01376,-2.01861 -2.01376,-3.45181 0,-0.94381 0.26654,-1.47182 1.13445,-2.2473 0.62395,-0.5575 1.52136,-1.01363 1.99424,-1.01363 2.05462,0 3.7152,1.64533 3.7152,3.68108 0,1.99159 -2.92926,3.83016 -4.83013,3.03166 z M 64.717481,160.08783 c -1.769199,-1.97868 0.332219,-5.14866 2.615506,-3.94548 0.454166,0.23932 0.942388,0.6098 1.084938,0.82329 0.491069,0.73544 0.273088,2.56906 -0.375154,3.1557 -0.844544,0.76431 -2.628006,0.74633 -3.32529,-0.0335 z m 0.320939,-13.43334 c -0.920124,-1.01672 -0.745339,-2.70439 0.371027,-3.58253 2.267634,-1.78372 5.05652,1.00517 3.272799,3.2728 -0.906041,1.15185 -2.7406,1.30779 -3.643826,0.30973 z m 12.817984,-4.11287 c 0.628579,-0.75739 0.163189,-1.66377 -0.784841,-1.52854 -0.904142,0.12898 -1.283129,1.28844 -0.569058,1.74096 0.661357,0.41912 0.854982,0.38874 1.353899,-0.21242 z m 74.497356,8.16717 -9.64388,-9.64889 0.43979,-1.46785 0.43978,-1.46786 -2.42387,-2.55603 c -8.2932,-8.74541 -8.81327,-9.20748 -10.59767,-9.41596 l -1.67441,-0.19562 4.98114,-5.02709 c 2.73962,-2.76489 5.10897,-5.02708 5.26521,-5.02708 0.15624,0 5.4052,5.12294 11.66434,11.3843 l 11.38027,11.38431 -0.0934,10.84333 -0.0934,10.84332 z m -96.558275,2.42771 c -0.47625,-0.47625 -0.865909,-1.19784 -0.865909,-1.60353 0,-0.99222 1.533359,-2.46945 2.563278,-2.46945 2.074009,0 3.13525,2.79258 1.603536,4.21959 -1.032058,0.96151 -2.246736,0.90756 -3.300905,-0.14661 z m 19.045936,-1.38163 c -0.274116,-1.09217 0.35238,-2.28118 1.4148,-2.68511 0.854036,-0.3247 2.309467,-0.11519 2.309467,0.33246 0,0.14103 -0.789296,0.92196 -1.753992,1.7354 l -1.753992,1.47899 z m 76.043709,-30.24825 c -5.91784,-5.98179 -11.05858,-10.97723 -11.42387,-11.10096 -0.52466,-0.17773 -2.37756,1.48727 -8.8222,7.92753 l -8.15805,8.15251 h -2.90766 -2.90766 v -8.20415 -8.20415 L 127.9546,98.792671 139.2435,87.5079 l 11.46526,11.461191 11.46526,11.461189 v 11.02634 c 0,6.06449 -0.11906,11.00377 -0.26458,10.97619 -0.14552,-0.0276 -5.10646,-4.94436 -11.02431,-10.92615 z"
             id="path1541"
             sodipodi:nodetypes="sssssscssssssssssssssssssssssssssscssssssssssssssssssssssssssssssssccccsscsssccccssssssssscscsscccccccccsscc" />
          <path
             style="fill:#273839;fill-opacity:1;stroke-width:0.352778"
             d="m 82.774743,188.60464 -5.796555,-3.49777 -0.176389,-2.99338 c -0.127933,-2.17107 -0.345985,-3.18029 -0.79375,-3.67376 -0.590159,-0.6504 -0.852662,-1.85954 -0.403703,-1.85954 0.117511,0 0.685317,0.39687 1.261789,0.88194 0.824828,0.69405 1.440149,0.88195 2.888167,0.88195 h 1.84004 l 0.958511,-3.08681 c 0.527184,-1.69774 0.956988,-3.3453 0.955118,-3.66123 -0.0032,-0.52447 -2.902543,-6.11241 -3.505257,-6.75549 -0.141428,-0.1509 -0.959176,0.33095 -1.817221,1.07079 -1.788159,1.5418 -3.31118,2.55496 -3.840727,2.55496 -0.960657,0 -0.209106,-1.60048 1.486894,-3.16644 l 1.852084,-1.71008 -0.970139,-1.02063 c -0.89256,-0.93901 -0.969707,-1.24477 -0.964737,-3.82354 0.003,-1.54161 0.122034,-2.96701 0.264583,-3.16757 0.14255,-0.20055 2.427746,-2.22461 5.078214,-4.49791 l 4.819033,-4.13328 h 19.990502 19.99051 l 5.1745,4.05649 5.1745,4.05649 0.39303,2.17329 c 0.35917,1.986 0.31496,2.41148 -0.513,4.93703 l -0.90604,2.76373 -1.63441,0.21681 -1.63441,0.21682 -1.72573,3.50742 -1.72573,3.50743 1.13894,2.18711 c 2.36681,4.54498 2.30126,4.48016 4.53079,4.48016 1.89434,0 1.97574,0.0369 1.75258,0.79375 -0.12871,0.43657 -0.32684,1.69355 -0.44029,2.79331 l -0.20628,1.99955 -5.19114,3.73309 -5.19114,3.73308 H 106.72959 88.571299 Z m 8.441288,0.16031 c 1.815952,-0.27642 3.345311,-0.55138 3.398573,-0.61103 0.05327,-0.0597 0.756437,-1.42683 1.562608,-3.03817 l 1.46576,-2.92972 -1.807894,-3.34371 -1.807894,-3.34372 -3.749587,0.0998 -3.749587,0.0998 -1.680514,3.175 c -0.924285,1.74625 -1.683932,3.41525 -1.688105,3.70888 -0.01118,0.78581 3.976885,6.70537 4.508278,6.69174 0.135647,-0.004 1.732411,-0.23249 3.548362,-0.50891 z m 32.857989,-0.0167 1.94028,-0.20999 1.64792,-3.08612 1.64792,-3.08612 -1.67504,-3.07878 c -0.92127,-1.69333 -1.83222,-3.23596 -2.02434,-3.42808 -0.21684,-0.21684 -1.72073,-0.25942 -3.96582,-0.11229 l -3.61652,0.237 -1.7289,3.44524 -1.7289,3.44523 2.18653,3.22494 2.18654,3.22494 1.59503,-0.18299 c 0.87726,-0.10065 2.46815,-0.27749 3.5353,-0.39298 z m -9.462,-2.7579 c -0.0624,-0.22787 -0.22112,-0.51796 -0.35278,-0.64464 -0.13166,-0.12668 -3.93597,-0.28543 -8.45402,-0.35278 -7.009518,-0.10449 -8.263756,-0.0448 -8.54946,0.40671 -0.805498,1.27304 -0.738149,1.28116 9.35576,1.12808 5.9921,-0.0909 8.08424,-0.23139 8.0005,-0.53737 z m -3.55176,-10.59033 1.77443,-3.64962 -1.70047,-3.44447 -1.70048,-3.44446 -2.29305,0.21241 c -1.26118,0.11683 -2.87746,0.21354 -3.59174,0.21492 -1.21013,0.002 -1.43261,0.18591 -3.26319,2.69255 -1.080483,1.47952 -1.964516,2.90636 -1.964516,3.17076 0,0.26439 0.829942,2.1495 1.844316,4.18913 l 1.84431,3.7084 h 3.63798 3.63799 z M 91.618466,173.4052 c 0.388056,-0.38806 0.705556,-0.94368 0.705556,-1.23472 0,-0.71103 -1.267531,-1.94028 -2.000695,-1.94028 -0.875545,0 -1.879861,1.05511 -1.879861,1.97495 0,0.80565 1.165275,1.9056 2.018775,1.9056 0.247868,0 0.76817,-0.3175 1.156225,-0.70555 z m 32.163194,0.12171 c 0.8023,-0.72607 0.82725,-1.80521 0.0613,-2.65157 -1.12969,-1.24829 -3.03213,-0.43568 -3.03213,1.29514 0,1.69643 1.72489,2.48399 2.97083,1.35643 z m -29.19834,-4.90726 c 0.503262,-0.12631 1.242924,-1.15541 2.264749,-3.15095 l 1.51741,-2.96337 -1.816453,-3.36951 -1.816453,-3.36951 -1.468861,0.002 c -0.807871,10e-4 -2.52876,0.10262 -3.824199,0.22498 l -2.355342,0.22247 -1.636504,3.34097 c -0.900081,1.83753 -1.551912,3.56141 -1.448517,3.83086 0.103396,0.26944 1.006539,1.70292 2.006985,3.18552 l 1.818993,2.69563 3.005423,-0.23102 c 1.652983,-0.12705 3.34173,-0.31542 3.752769,-0.41858 z m 28.37391,-0.0846 2.94015,-0.60451 1.55298,-2.96075 1.55298,-2.96075 -1.11186,-1.97485 c -0.61153,-1.08618 -1.44281,-2.56895 -1.8473,-3.29507 l -0.73544,-1.3202 -3.70416,-7e-4 -3.70417,-7.1e-4 -1.8283,3.56397 -1.8283,3.56396 2.18108,3.30477 c 1.55758,2.36005 2.38277,3.30253 2.88663,3.29697 0.38806,-0.004 2.02863,-0.27981 3.64571,-0.61229 z m -15.18948,-8.02628 c 1.47728,-1.03474 0.66842,-3.33139 -1.1733,-3.33139 -1.16401,0 -2.11476,1.45235 -1.59117,2.43068 0.34269,0.64034 1.30337,1.41084 1.79433,1.43915 0.10235,0.006 0.53891,-0.2364 0.97014,-0.53844 z M 80.682355,159.9996 c 0.849108,-0.84911 0.882181,-1.35473 0.156386,-2.39095 -0.650296,-0.92843 -1.787886,-1.01321 -2.686247,-0.2002 -0.877134,0.79379 -0.812031,2.08147 0.138912,2.74754 1.036219,0.72579 1.541841,0.69272 2.390949,-0.15639 z m 53.775285,0.23707 c 1.34497,-0.98346 0.45268,-3.41207 -1.25362,-3.41207 -1.63354,0 -2.30216,2.37563 -0.93761,3.33139 0.95811,0.67108 1.3634,0.68601 2.19123,0.0807 z m -3.81948,-6.79231 c -0.11778,-0.30691 -0.21414,-0.70378 -0.21414,-0.88194 0,-0.19361 -9.86379,-0.32393 -24.51805,-0.32393 H 81.38791 v 0.88195 0.88194 h 24.73219 c 22.40758,0 24.71206,-0.0524 24.51806,-0.55802 z m -69.534972,9.41709 -3.880556,-2.39793 -0.108264,-2.07844 c -0.06675,-1.28138 -0.325215,-2.31817 -0.673994,-2.70357 -0.64502,-0.71273 -0.358347,-1.27463 0.350263,-0.68654 0.256851,0.21317 1.122708,0.49243 1.924128,0.62058 1.624996,0.25985 1.342771,0.68262 2.489876,-3.72984 0.264755,-1.01841 0.168501,-1.54374 -0.549423,-2.99861 -1.384366,-2.80541 -1.334764,-2.78763 -3.408835,-1.2217 -1.018464,0.76895 -1.95639,1.39809 -2.08428,1.39809 -0.603586,0 -0.113311,-1.03547 1.002196,-2.11667 1.336476,-1.29536 1.534753,-1.92604 0.705555,-2.24424 -0.394966,-0.15156 -0.529166,-0.78225 -0.529166,-2.48685 v -2.2838 l 2.005615,-1.69603 c 1.103088,-0.93281 2.668654,-2.29133 3.479035,-3.01894 l 1.473419,-1.32291 h 11.69041 c 6.429724,0 11.686113,0.11906 11.680864,0.26458 -0.0053,0.14552 -0.563012,0.8599 -1.239471,1.5875 l -1.229924,1.32292 H 72.634274 c -11.72887,0 -12.413031,0.0717 -12.413031,1.30064 0,0.35948 2.515162,0.47331 12.082639,0.54681 l 12.08264,0.0928 0.115171,1.00689 c 0.07769,0.67915 -0.148795,1.28785 -0.695815,1.87013 -0.588141,0.62605 -0.813661,1.29053 -0.820727,2.41822 -0.0085,1.35731 -0.163626,1.6685 -1.220333,2.4481 -1.126807,0.83131 -1.254594,0.8533 -1.846379,0.31774 -0.503244,-0.45543 -1.096626,-0.5338 -2.846352,-0.37594 -1.951297,0.17606 -2.328107,0.33703 -3.212743,1.37244 -2.072553,2.42578 -2.115504,2.55438 -1.354238,4.05473 0.586052,1.15503 0.659325,1.84911 0.503851,4.7728 -0.164928,3.10151 -0.249122,3.43118 -0.900939,3.52778 -1.065866,0.15796 -1.185354,0.9885 -0.142214,0.9885 1.279294,0 1.620218,1.91547 0.54469,3.06032 -0.70491,0.75034 -1.058429,0.81888 -4.148661,0.8043 l -3.37809,-0.0159 z m 6.459175,0.0821 1.873065,-0.22494 1.073913,-2.12741 1.073912,-2.12741 -1.183088,-2.22771 -1.183088,-2.22772 -2.729593,-0.003 -2.729593,-0.003 -1.210184,2.4031 -1.210185,2.40311 1.470333,2.17036 c 1.577547,2.32861 1.610359,2.34217 4.754508,1.96457 z m -0.299629,-10.51169 c 0.664261,-0.80039 0.302065,-1.78084 -0.657874,-1.78084 -1.112807,0 -1.743182,0.9792 -1.116492,1.73432 0.577869,0.69629 1.221109,0.71315 1.774366,0.0465 z m 1.299064,-3.21964 c 0.766282,-0.15326 1.343029,-0.7219 2.315799,-2.28325 l 1.295383,-2.07917 -1.435381,-2.47925 c -1.572174,-2.71553 -1.587691,-2.72249 -5.018788,-2.25221 -1.53637,0.21059 -1.715663,0.34486 -2.472995,1.85209 -1.439059,2.86397 -1.435566,2.99373 0.143184,5.31854 1.345107,1.98075 1.537927,2.12733 2.798513,2.12733 0.744628,0 1.813056,-0.0918 2.374285,-0.20408 z m -8.055461,-7.26217 c 0.0802,-0.69346 -0.08082,-1.00001 -0.614204,-1.1693 -0.957772,-0.30398 -1.434779,0.0327 -1.434779,1.01285 0,1.01918 0.315144,1.32894 1.220205,1.19938 0.483845,-0.0693 0.755735,-0.4114 0.828778,-1.04293 z m 17.637462,0.0148 c 0.114269,-0.98535 -0.575594,-1.50456 -1.518389,-1.14278 -0.541115,0.20765 -0.729474,1.57357 -0.2791,2.02394 0.574934,0.57494 1.692143,0.0273 1.797489,-0.88116 z m 7.830223,2.33918 c 0,-0.2894 0.3175,-0.72446 0.705555,-0.9668 0.604524,-0.37753 0.705556,-0.82269 0.705556,-3.10879 0,-2.54787 0.05169,-2.71809 1.146528,-3.77566 l 1.146527,-1.10749 6.157941,-0.067 c 5.981231,-0.0651 6.172661,-0.0449 6.670921,0.70557 0.48319,0.72772 0.40351,0.88345 -1.3721,2.68139 -1.788904,1.81141 -1.892942,2.01738 -2.03902,4.03689 l -0.153931,2.1281 H 92.45801 c -5.511987,0 -6.483988,-0.0789 -6.483988,-0.52618 z m 14.463888,-0.88493 v -1.41111 h 12.17083 12.17084 v 0.86112 c 0,0.47362 0.15875,0.95924 0.35278,1.07915 1.1247,0.69511 -0.21138,0.88195 -6.30681,0.88195 -5.48925,0 -6.73676,-0.093 -7.09875,-0.52917 -0.33813,-0.40742 -1.27152,-0.52917 -4.05694,-0.52917 -2.78543,0 -3.71882,0.12175 -4.05695,0.52917 -0.2522,0.30389 -1.02153,0.52917 -1.80708,0.52917 -1.36072,0 -1.36792,-0.007 -1.36792,-1.41111 z m 28.17041,-0.97014 c -0.68933,-0.72761 -2.10372,-2.59292 -3.14309,-4.14514 -1.03937,-1.55222 -1.93011,-2.88214 -1.97943,-2.95538 -0.0493,-0.0732 -2.03651,-0.34662 -4.41599,-0.60752 l -4.32633,-0.47437 -0.91028,0.87211 c -0.86129,0.82516 -1.1305,0.8721 -5.00161,0.8721 h -4.09132 l -0.38108,-1.09314 c -0.46471,-1.33309 -0.20302,-1.8872 1.70568,-3.61159 1.20345,-1.08725 1.68431,-1.29249 3.02819,-1.29249 1.09461,0 1.66148,-0.16659 1.80061,-0.52917 0.25923,-0.67555 1.5552,-0.6815 2.4414,-0.0112 0.50943,0.38531 1.74434,0.52082 4.82253,0.52916 l 4.13775,0.0112 4.79739,6.37672 c 2.83687,3.7708 4.71858,6.58205 4.60457,6.87916 -0.35588,0.92741 -1.79525,0.5451 -3.08899,-0.82046 z m 0.20537,-6.10723 c -2.5098,-3.31048 -4.61461,-6.24735 -4.67734,-6.52639 -0.086,-0.38234 0.26174,-0.50357 1.41111,-0.49199 3.35701,0.0338 4.26145,0.44272 8.53453,3.85848 2.25673,1.80397 4.10314,3.39715 4.10314,3.5404 0,0.45561 -0.84553,0.96317 -2.02442,1.21521 -1.46883,0.31405 -1.53858,0.46122 -1.07817,2.27507 0.40472,1.59449 0.11622,2.13042 -1.15357,2.14285 -0.30435,0.003 -2.59926,-2.69497 -5.11528,-6.01363 z m -26.71123,4.03822 c -0.14882,-0.14883 0.48137,-1.03403 1.40042,-1.96711 l 1.67101,-1.69652 h 4.14145 4.14145 l 1.10929,1.61229 c 0.61011,0.88676 1.00171,1.7202 0.87022,1.85209 -0.3376,0.33862 -13.00516,0.52792 -13.33384,0.19925 z m 10.26372,-1.64028 c 0.1404,-0.72904 -0.878,-1.22029 -1.41549,-0.6828 -0.5375,0.5375 -0.0463,1.5559 0.6828,1.4155 0.33791,-0.0651 0.66762,-0.39479 0.73269,-0.7327 z m 4.49214,0.54724 -0.90874,-1.33587 3.57927,-0.10105 c 2.99341,-0.0845 3.68974,-0.001 4.25414,0.50971 0.37118,0.33591 0.62819,0.937 0.57115,1.33577 -0.0948,0.66268 -0.38243,0.73371 -3.3454,0.82616 l -3.24168,0.10115 z m -53.462077,-7.10297 c 0,-0.17607 0.238125,-0.51774 0.529167,-0.75929 0.346302,-0.2874 0.529167,-1.07349 0.529167,-2.27476 0,-1.46258 0.165914,-1.99145 0.816487,-2.60263 0.744549,-0.69947 1.189023,-0.76705 5.044722,-0.76705 5.23383,0 5.655187,0.26021 3.687918,2.27754 -1.068823,1.09601 -1.416768,1.75364 -1.501429,2.83774 l -0.110198,1.41111 -4.497917,0.0987 c -2.530073,0.0555 -4.497917,-0.0413 -4.497917,-0.22139 z m 10.230556,-0.75929 v -1.05833 h 8.249134 c 7.538173,0 8.267901,0.0532 8.466892,0.61736 0.119768,0.33955 0.310265,0.8158 0.423323,1.05833 0.259323,0.55632 -8.858525,0.64371 -9.201849,0.0882 -0.119916,-0.19403 -1.469291,-0.35278 -2.998611,-0.35278 -1.52932,0 -2.878695,0.15875 -2.998611,0.35278 -0.119916,0.19403 -0.605535,0.35278 -1.079153,0.35278 -0.72162,0 -0.861125,-0.17146 -0.861125,-1.05834 z m 19.354014,-0.61736 c -0.487479,-0.53358 -1.415528,-1.81709 -2.062336,-2.85226 -1.326469,-2.12294 -1.757489,-2.35682 -4.97901,-2.70182 -1.876044,-0.20091 -2.3778,-0.14325 -2.759869,0.31711 -0.363012,0.4374 -1.161408,0.56267 -3.58636,0.56267 -2.845784,0 -3.155554,-0.0676 -3.531665,-0.77034 -0.364171,-0.68046 -0.263323,-0.90684 0.864351,-1.94028 0.923254,-0.8461 1.609384,-1.16994 2.478786,-1.16994 0.743151,0 1.279691,-0.20205 1.40522,-0.52917 0.258586,-0.67387 1.071545,-0.6805 1.625304,-0.0133 0.300658,0.36227 1.328356,0.54611 3.451091,0.61736 l 3.022931,0.10146 3.333055,4.36531 c 2.543955,3.33182 3.219616,4.43719 2.853909,4.6689 -0.778503,0.49328 -1.179117,0.36909 -2.115407,-0.65574 z m 0.15216,-4.40972 -3.229903,-4.32153 1.564545,-0.27298 c 1.184151,-0.2066 1.842992,-0.12969 2.709781,0.31631 1.377626,0.70885 5.554959,4.31311 5.554959,4.7929 0,0.18718 -0.484247,0.52312 -1.076106,0.74652 -0.853952,0.32233 -1.056912,0.58915 -0.983135,1.29248 0.107378,1.02369 -0.263479,1.76783 -0.881042,1.76783 -0.236057,0 -1.882651,-1.94469 -3.659099,-4.32153 z m -18.447841,2.66514 c 0,-0.13491 0.426576,-0.69053 0.947946,-1.23473 0.894934,-0.93411 1.116881,-0.9892 3.96875,-0.98507 l 3.020805,0.004 0.796992,1.23036 0.796995,1.23035 h -4.765745 c -2.621158,0 -4.765743,-0.11038 -4.765743,-0.24528 z m 6.898164,-0.49102 c 0.363545,-0.58823 -0.454099,-1.26277 -0.940759,-0.77611 -0.407078,0.40708 -0.152301,1.15963 0.392596,1.15963 0.171125,0 0.417798,-0.17259 0.548163,-0.38352 z m 3.19072,-0.0267 c -0.293952,-0.41967 -0.452335,-0.89592 -0.351963,-1.05833 0.100373,-0.16241 1.180398,-0.29529 2.400057,-0.29529 1.700311,0 2.35374,0.15048 2.801401,0.64514 1.078566,1.1918 0.723925,1.47153 -1.865598,1.47153 -2.11104,0 -2.523275,-0.10542 -2.983897,-0.76305 z"
             id="path1539" />
        </g>
      </g>
    </g>
  </g>
</svg>
