<svg height="512" viewBox="0 0 135.46667 135.46667" width="512" xmlns="http://www.w3.org/2000/svg"><path d="m105.39205 184.65397v-5.89862l-2.19842-.23566c-6.624981-.71016-11.730334-2.05512-16.621058-4.3787-11.069988-5.25936-19.706789-14.38468-24.12015-25.48447-1.787523-4.4957-2.543116-7.52877-3.087819-12.39499l-.449364-4.01448-6.201102-.10502-6.201103-.10501v-.94638-.94636h6.255888 6.255888l.267807-3.30056c1.385743-17.07862 13.175909-32.761179 29.582486-39.348899 3.929774-1.57791 10.576-3.23038 12.992647-3.23038.6241 0 1.67238-.10751 2.32951-.23896l1.19479-.23895v-6.06952-6.069507h1.14699 1.14699v6.079757 6.07978l2.38957.24079c5.33187.53728 12.21419 2.08662 12.69019 2.85679.20011.32378-.82792 3.81596-1.27106 4.3178-.12976.14694-1.20724-.0534-2.39439-.44516-2.07206-.68382-8.9061-1.92484-10.59968-1.92484-.79696 0-.81463.13119-.81463 6.05109v6.051079l-1.14699-.16834-1.14699-.16835v-5.926789-5.92679l-2.19842.25238c-7.970334.91505-14.796633 3.3017-20.359134 7.11807-10.618034 7.284929-17.500908 18.739059-18.560648 30.887699l-.272314 3.12175h9.416484c5.179065 0 9.416478-.14082 9.416478-.31294s-.268819-1.21819-.597386-2.32459c-.689985-2.32341-2.078927-9.40253-2.078927-10.59579 0-.61455.436609-.97309 1.816068-1.49133 5.220743-1.96132 13.1447-6.48327 19.771079-11.28273 2.08675-1.51142 4.01241-2.83181 4.27923-2.9342.26684-.10241 2.25525 1.09759 4.41871 2.66664s5.35323 3.73689 7.08838 4.81742l3.15483 1.96459 1.64392-2.58372c.90416-1.42105 2.99202-4.86852 4.63969-7.66105 1.64766-2.792509 3.07588-4.997179 3.17381-4.899249.098.098-1.47404 3.74698-3.49328 8.108999-2.01924 4.36203-3.67134 8.04048-3.67134 8.17436s1.03113.73625 2.29141 1.33861l2.29141 1.09519.86283-.77604c5.90165-5.30805 47.04266-40.290071 47.19934-40.133389.11656.116554-1.65903 4.60875-3.94573 9.98266l-4.15766 9.77076-5.83243 4.10488c-26.60592 18.725389-29.34507 20.731889-29.46451 21.583589-.0673.48027-.6265 3.07923-1.24257 5.77547-.61606 2.69624-1.12013 5.06191-1.12013 5.25705 0 .20879 3.95707.35481 9.61488.35481h9.61487l-.22429-3.34539c-.12685-1.89197-.67112-4.84036-1.25275-6.78639-1.56292-5.22916-1.60442-4.78638.60635-6.46986 2.22972-1.69792 2.16678-1.72859 3.46102 1.68687 1.17573 3.1027 2.29395 8.13863 2.58434 11.63867l.25595 3.08493 6.02172.10534 6.02171.10524v.93641.93641l-6.02171.10535-6.02172.10523-.27401 3.56377c-.79259 10.30817-5.81867 20.88991-13.65756 28.75414-8.15728 8.18367-18.23552 12.82154-30.32327 13.95437l-2.58074.24186v5.89571 5.8957h-1.14699-1.14699zm-.0134-16.94568-.0134-5.63938-3.90546-3.28118c-7.585343-6.3728-13.472997-14.63738-16.74013-23.4983-.461905-1.25274-1.010056-2.49277-1.218118-2.75563-.284469-.35938-2.737233-.47792-9.889757-.47792h-9.511466v1.11934c0 .61562.1862 2.45806.41378 4.09429 2.156933 15.50779 13.705022 29.05282 28.973701 33.98395 3.315512 1.07078 7.98403 1.98705 10.47055 2.05504l1.43375.0392zm7.66142 5.1087c9.41991-1.52923 16.95787-5.33387 23.54317-11.88298 7.09187-7.05292 11.68473-16.60184 12.28391-25.53918l.22472-3.35186-10.07947.10209-10.07946.10198-.99001 2.67633c-3.49666 9.45256-9.5906 17.93238-17.59035 24.47724l-2.66652 2.18155v5.88275 5.88277l1.05141-.001c.57828-.00076 2.51445-.23896 4.30258-.52924zm6.20903-45.97817c10.01254-7.0858 12.74071-9.19413 12.83598-9.9196.0806-.61383-.0683-.92127-.44622-.92127-.31196 0-1.35368-.33712-2.31495-.74917l-1.74775-.74917-4.84402 4.19343c-2.66421 2.30639-4.90073 4.13674-4.97003 4.06743-.0694-.0694.97847-2.52248 2.32841-5.45151 2.43712-5.2879 2.44855-5.32863 1.62079-5.77211-.45852-.24565-.86014-.4177-.8925-.38233-.0541.0591-5.2894 8.81726-12.21698 20.43773-1.54036 2.58383-2.63574 4.59594-2.43419 4.47138.20155-.12457 6.08821-4.27574 13.08146-9.22481zm12.02751-32.859399c-1.00896-.52509-1.92254-1.18424-2.0302-1.46477-.19897-.51849 2.84462-6.35839 3.9509-7.58081.75574-.83508 2.90325-.87513 3.7092-.0692 1.28135 1.28135 1.12658 2.25836-.98949 6.24631-1.12269 2.11585-2.21332 3.84163-2.4236 3.83507-.21027-.007-1.20784-.44155-2.21681-.96664z" fill="#273839" stroke-width=".382331" transform="translate(-43.338034 -63.366707)"/></svg>