<?xml version="1.0" encoding="UTF-8" standalone="no"?>
<svg
   xmlns:osb="http://www.openswatchbook.org/uri/2009/osb"
   xmlns:dc="http://purl.org/dc/elements/1.1/"
   xmlns:cc="http://creativecommons.org/ns#"
   xmlns:rdf="http://www.w3.org/1999/02/22-rdf-syntax-ns#"
   xmlns:svg="http://www.w3.org/2000/svg"
   xmlns="http://www.w3.org/2000/svg"
   xmlns:sodipodi="http://sodipodi.sourceforge.net/DTD/sodipodi-0.dtd"
   xmlns:inkscape="http://www.inkscape.org/namespaces/inkscape"
   width="512"
   height="512"
   viewBox="0 0 135.46667 135.46667"
   version="1.1"
   id="svg8"
   inkscape:version="1.0.1 (3bc2e813f5, 2020-09-07)"
   sodipodi:docname="Gun Shield.svg">
  <defs
     id="defs2">
    <linearGradient
       id="linearGradient1099-6-5"
       osb:paint="gradient">
      <stop
         style="stop-color:#273839;stop-opacity:0.5"
         offset="0"
         id="stop1151" />
      <stop
         style="stop-color:#273839;stop-opacity:1"
         offset="1"
         id="stop1153" />
    </linearGradient>
  </defs>
  <sodipodi:namedview
     id="base"
     pagecolor="#ffffff"
     bordercolor="#666666"
     borderopacity="1.0"
     inkscape:pageopacity="0.0"
     inkscape:pageshadow="2"
     inkscape:zoom="0.98994949"
     inkscape:cx="154.77677"
     inkscape:cy="285.32431"
     inkscape:document-units="px"
     inkscape:current-layer="g1320"
     inkscape:document-rotation="0"
     showgrid="false"
     inkscape:pagecheckerboard="true"
     inkscape:object-nodes="true"
     fit-margin-top="0"
     fit-margin-left="0"
     fit-margin-right="0"
     fit-margin-bottom="0"
     inkscape:window-width="1600"
     inkscape:window-height="837"
     inkscape:window-x="-8"
     inkscape:window-y="-8"
     inkscape:window-maximized="1"
     units="px" />
  <metadata
     id="metadata5">
    <rdf:RDF>
      <cc:Work
         rdf:about="">
        <dc:format>image/svg+xml</dc:format>
        <dc:type
           rdf:resource="http://purl.org/dc/dcmitype/StillImage" />
        <dc:title></dc:title>
      </cc:Work>
    </rdf:RDF>
  </metadata>
  <g
     inkscape:label="Layer 1"
     inkscape:groupmode="layer"
     id="layer1"
     transform="translate(-59.62574,-110.15787)">
    <path
       style="fill:#000000;stroke-width:0.264583"
       id="path853"
       d="" />
    <path
       style="fill:#000000;stroke-width:0.264583"
       id="path849"
       d="" />
    <g
       id="g1061"
       transform="translate(9.0714285,1.8898814)">
      <g
         id="g1320"
         transform="translate(7.2162774,44.901282)">
        <path
           style="fill:#273839;fill-opacity:1;stroke-width:0.382331"
           d="m 105.39205,184.65397 v -5.89862 l -2.19842,-0.23566 c -6.624981,-0.71016 -11.730334,-2.05512 -16.621058,-4.3787 -11.069988,-5.25936 -19.706789,-14.38468 -24.12015,-25.48447 -1.787523,-4.4957 -2.543116,-7.52877 -3.087819,-12.39499 l -0.449364,-4.01448 -6.201102,-0.10502 -6.201103,-0.10501 v -0.94638 -0.94636 h 6.255888 6.255888 l 0.267807,-3.30056 C 60.67836,109.7651 72.468526,94.082541 88.875103,87.494821 c 3.929774,-1.57791 10.576,-3.23038 12.992647,-3.23038 0.6241,0 1.67238,-0.10751 2.32951,-0.23896 l 1.19479,-0.23895 v -6.06952 -6.069507 h 1.14699 1.14699 v 6.079757 6.07978 l 2.38957,0.24079 c 5.33187,0.53728 12.21419,2.08662 12.69019,2.85679 0.20011,0.32378 -0.82792,3.81596 -1.27106,4.3178 -0.12976,0.14694 -1.20724,-0.0534 -2.39439,-0.44516 -2.07206,-0.68382 -8.9061,-1.92484 -10.59968,-1.92484 -0.79696,0 -0.81463,0.13119 -0.81463,6.05109 v 6.051079 l -1.14699,-0.16834 -1.14699,-0.16835 v -5.926789 -5.92679 l -2.19842,0.25238 c -7.970334,0.91505 -14.796633,3.3017 -20.359134,7.11807 C 72.216462,103.4197 65.333588,114.87383 64.273848,127.02247 l -0.272314,3.12175 h 9.416484 c 5.179065,0 9.416478,-0.14082 9.416478,-0.31294 0,-0.17212 -0.268819,-1.21819 -0.597386,-2.32459 -0.689985,-2.32341 -2.078927,-9.40253 -2.078927,-10.59579 0,-0.61455 0.436609,-0.97309 1.816068,-1.49133 5.220743,-1.96132 13.1447,-6.48327 19.771079,-11.28273 2.08675,-1.51142 4.01241,-2.83181 4.27923,-2.9342 0.26684,-0.10241 2.25525,1.09759 4.41871,2.66664 2.16346,1.56905 5.35323,3.73689 7.08838,4.81742 l 3.15483,1.96459 1.64392,-2.58372 c 0.90416,-1.42105 2.99202,-4.86852 4.63969,-7.66105 1.64766,-2.792509 3.07588,-4.997179 3.17381,-4.899249 0.098,0.098 -1.47404,3.74698 -3.49328,8.108999 -2.01924,4.36203 -3.67134,8.04048 -3.67134,8.17436 0,0.13388 1.03113,0.73625 2.29141,1.33861 l 2.29141,1.09519 0.86283,-0.77604 c 5.90165,-5.30805 47.04266,-40.290071 47.19934,-40.133389 0.11656,0.116554 -1.65903,4.60875 -3.94573,9.98266 l -4.15766,9.77076 -5.83243,4.10488 c -26.60592,18.725389 -29.34507,20.731889 -29.46451,21.583589 -0.0673,0.48027 -0.6265,3.07923 -1.24257,5.77547 -0.61606,2.69624 -1.12013,5.06191 -1.12013,5.25705 0,0.20879 3.95707,0.35481 9.61488,0.35481 h 9.61487 l -0.22429,-3.34539 c -0.12685,-1.89197 -0.67112,-4.84036 -1.25275,-6.78639 -1.56292,-5.22916 -1.60442,-4.78638 0.60635,-6.46986 2.22972,-1.69792 2.16678,-1.72859 3.46102,1.68687 1.17573,3.1027 2.29395,8.13863 2.58434,11.63867 l 0.25595,3.08493 6.02172,0.10534 6.02171,0.10524 v 0.93641 0.93641 l -6.02171,0.10535 -6.02172,0.10523 -0.27401,3.56377 c -0.79259,10.30817 -5.81867,20.88991 -13.65756,28.75414 -8.15728,8.18367 -18.23552,12.82154 -30.32327,13.95437 l -2.58074,0.24186 v 5.89571 5.8957 h -1.14699 -1.14699 z m -0.0134,-16.94568 -0.0134,-5.63938 -3.90546,-3.28118 c -7.585343,-6.3728 -13.472997,-14.63738 -16.74013,-23.4983 -0.461905,-1.25274 -1.010056,-2.49277 -1.218118,-2.75563 -0.284469,-0.35938 -2.737233,-0.47792 -9.889757,-0.47792 h -9.511466 v 1.11934 c 0,0.61562 0.1862,2.45806 0.41378,4.09429 2.156933,15.50779 13.705022,29.05282 28.973701,33.98395 3.315512,1.07078 7.98403,1.98705 10.47055,2.05504 l 1.43375,0.0392 z m 7.66142,5.1087 c 9.41991,-1.52923 16.95787,-5.33387 23.54317,-11.88298 7.09187,-7.05292 11.68473,-16.60184 12.28391,-25.53918 l 0.22472,-3.35186 -10.07947,0.10209 -10.07946,0.10198 -0.99001,2.67633 c -3.49666,9.45256 -9.5906,17.93238 -17.59035,24.47724 l -2.66652,2.18155 v 5.88275 5.88277 l 1.05141,-0.001 c 0.57828,-7.6e-4 2.51445,-0.23896 4.30258,-0.52924 z m 6.20903,-45.97817 c 10.01254,-7.0858 12.74071,-9.19413 12.83598,-9.9196 0.0806,-0.61383 -0.0683,-0.92127 -0.44622,-0.92127 -0.31196,0 -1.35368,-0.33712 -2.31495,-0.74917 l -1.74775,-0.74917 -4.84402,4.19343 c -2.66421,2.30639 -4.90073,4.13674 -4.97003,4.06743 -0.0694,-0.0694 0.97847,-2.52248 2.32841,-5.45151 2.43712,-5.2879 2.44855,-5.32863 1.62079,-5.77211 -0.45852,-0.24565 -0.86014,-0.4177 -0.8925,-0.38233 -0.0541,0.0591 -5.2894,8.81726 -12.21698,20.43773 -1.54036,2.58383 -2.63574,4.59594 -2.43419,4.47138 0.20155,-0.12457 6.08821,-4.27574 13.08146,-9.22481 z m 12.02751,-32.859399 c -1.00896,-0.52509 -1.92254,-1.18424 -2.0302,-1.46477 -0.19897,-0.51849 2.84462,-6.35839 3.9509,-7.58081 0.75574,-0.83508 2.90325,-0.87513 3.7092,-0.0692 1.28135,1.28135 1.12658,2.25836 -0.98949,6.24631 -1.12269,2.11585 -2.21332,3.84163 -2.4236,3.83507 -0.21027,-0.007 -1.20784,-0.44155 -2.21681,-0.96664 z"
           id="path1561" />
      </g>
    </g>
  </g>
</svg>
