<svg height="512" viewBox="0 0 135.46667 135.46667" width="512" xmlns="http://www.w3.org/2000/svg"><path d="m112.07003 224.84226c-6.14894-.53333-16.786605-1.86941-20.328545-2.55326-15.347723-2.96315-25.305188-7.44981-28.099915-12.66133-.991055-1.8481-1.13199-9.61264-.284058-15.64973 2.46718-17.56581 9.418498-32.48591 20.534343-44.07432 9.5985-10.00655 19.646135-15.71771 32.455315-18.44788 4.23275-.90219 16.32284-1.01175 20.88192-.18924 10.74425 1.93839 22.26588 7.83873 30.68431 15.71374 10.89804 10.19458 19.14468 25.33673 22.2195 40.79861 2.09459 10.5327 2.36131 18.69828.71527 21.89782-3.63739 7.07031-20.52851 12.61984-45.16563 14.83904-6.01414.54173-28.6017.76118-33.61251.32655zm32.35602-3.55729c20.25224-2.03099 33.91991-6.76744 36.11512-12.51549.64576-1.69088.6377-1.79198-.291-3.65467-2.23701-4.48679-12.41418-8.73635-25.98383-10.8498l-4.1558-.64725v-1.76095c0-.96852.17492-1.76095.38871-1.76095 1.20678 0 10.10244 1.39859 14.27267 2.24397 8.67959 1.75951 16.52259 4.41917 20.70132 7.02008 1.01964.63463 1.91458 1.09316 1.98879 1.01896.31748-.31747-.84486-8.84296-1.77973-13.05378-3.07728-13.86076-9.20736-25.20619-18.8571-34.90032-9.10417-9.14607-18.24898-14.20507-29.9253-16.555-4.85021-.97614-15.09998-.96476-19.79806.0219-7.5837 1.59279-14.80767 4.69983-21.536175 9.26273-4.550979 3.0862-11.617973 10.13988-15.192245 15.16359-6.946234 9.76309-12.445283 24.38974-13.389738 35.61471-.130398 1.5498-.318203 3.33305-.417344 3.96279l-.180256 1.14495 1.305801-.87433c2.501194-1.67478 8.004417-4.04654 12.67194-5.46134 5.180323-1.57023 14.881022-3.62067 19.152652-4.04831l2.743175-.27462-.12663 1.76399-.12663 1.76397-4.226735.85795c-14.309987 2.90467-22.686714 7.06171-23.572053 11.69788-.143362.75073.09866 1.75299.707742 2.93087 2.783456 5.3828 16.125951 9.8669 35.343226 11.87802 7.25276.75901 26.6436.76489 34.16748.0103zm-23.89698-15.99304c-8.86467-8.90289-12.38727-14.55898-16.1077-25.8635-1.49628-4.54641-4.13887-16.14577-3.75707-16.49127.0739-.067 1.58362-.69845 3.35482-1.40339 5.22413-2.07923 13.40831-6.99468 20.58307-12.36227 1.5791-1.18135 2.96661-2.14792 3.08334-2.14792.11674 0 1.80709 1.18901 3.75633 2.64224 7.01457 5.22964 15.9773 10.49258 21.22705 12.4646l1.95453.73422-.26289 2.04245c-.1446 1.12335-.72076 4.12562-1.28038 6.67172-3.54977 16.15067-10.3347 27.67743-21.48671 36.50326-2.32469 1.8398-4.3899 3.34589-4.58934 3.34687-.19943.00081-3.11321-2.76065-6.47505-6.13701zm10.53953-17.80142c2.88396-6.74656 5.15786-12.35216 5.0531-12.45691s-1.52876-.40636-3.16444-.67022c-1.63569-.26386-2.97398-.63355-2.97398-.82151 0-.18797 1.09649-3.08805 2.43666-6.44461 1.34016-3.35658 2.29117-6.23267 2.11336-6.39134-1.24954-1.11499-7.42802-1.68054-8.01332-.73349-.34046.55088-5.80036 18.17616-5.67071 18.30581.0483.0483 1.58408.34626 3.41279.66206 1.8287.3158 3.43807.68735 3.57637.82564s-.59424 4.52305-1.62785 9.74388c-1.03362 5.22083-1.77436 9.66224-1.64609 9.86978.71345 1.15439 1.69665-.64281 6.50411-11.88909z" fill="#273839" stroke-width=".402545" transform="translate(-59.62574 -110.15787)"/></svg>