<svg height="512" viewBox="0 0 135.46667 135.46667" width="512" xmlns="http://www.w3.org/2000/svg"><path d="m111.59254 233.63867c-13.721025-1.6054-23.805897-4.97388-26.587755-8.88064-.524727-.73691-.826224-1.73702-.826224-2.74073 0-3.03648 4.152989-5.98063 11.670824-8.27371 3.6583-1.11585 10.685865-2.4884 12.740815-2.4884 1.14235 0 1.27699.11295 1.27699 1.07129 0 1.05601-.0642 1.08533-4.5051 2.05772-5.972985 1.30786-10.184695 3.0683-12.269195 5.12839-1.9651 1.94209-2.13865 3.34786-.63408 5.13594 2.15087 2.55617 10.511295 5.44121 19.133725 6.60272 5.16017.69512 24.33769.69729 29.52275.003 9.23501-1.23597 16.81242-3.84736 19.11943-6.58909 3.28136-3.89966-1.31307-7.67213-12.40972-10.18957-2.2142-.50232-4.39992-.91489-4.85714-.9168-1.49652-.007-2.04428-.42922-2.04428-1.57825 0-1.31184-.11585-1.29999 5.08274-.51977 10.31316 1.54782 17.57684 4.16387 20.83995 7.5056 1.2758 1.30653 1.49128 1.77118 1.49128 3.21561 0 1.45067-.21594 1.91104-1.53364 3.26959-3.7186 3.83384-12.64182 6.60604-26.45545 8.21894-6.33167.7393-22.31476.72135-28.75592-.0323zm9.02112-25.64062c-3.22476-7.92358-5.78571-14.484-5.691-14.57871.0947-.0947 1.88593 2.19739 3.98052 5.09356 3.1393 4.34072 3.824 5.09738 3.89754 4.30723.0491-.52719.44259-9.41275.8745-19.7457 1.1396-27.26365 2.22698-51.787 2.55011-57.51179.2611-4.62567.30156-4.81881.56222-2.68389.15448 1.26526.4634 6.87265.68649 12.46089 1.20412 30.16245 2.39224 58.69877 2.63274 63.23337l.27296 5.14647 4.01066-4.90441c2.20587-2.69741 4.06504-4.74131 4.13147-4.54198.12587.3776-11.24476 27.29764-11.75443 27.8287-.15982.16652-2.92902-6.18016-6.15378-14.10374zm-40.824408.94388c-9.186978-1.04843-16.260935-3.67033-16.913081-6.26867-.652539-2.59994 2.957856-5.04909 9.696336-6.57767 4.798974-1.0886 6.238283-1.17887 6.238283-.3912 0 .76916-.232702.87061-4.452098 1.94095-6.236125 1.58191-8.44621 3.7783-6.000626 5.96344 2.683518 2.39771 8.874897 3.80758 17.929263 4.08275 12.081576.36716 22.219661-1.92591 23.070961-5.2183.60084-2.32375-2.01282-3.87223-9.07176-5.37461-2.120425-.4513-2.904575-.78562-2.999565-1.27889-.17206-.89346 1.37221-.87675 5.870505.0636 7.80303 1.63115 11.68286 4.18697 10.54094 6.94382-.924 2.23072-5.61997 4.28384-12.65981 5.53497-4.277195.76015-16.699088 1.0991-21.249348.57983zm78.216108 0c-11.92935-1.36139-18.72755-4.79388-16.59992-8.38148 1.15792-1.95249 7.61454-4.49605 13.34113-5.2557 1.75372-.23264 1.89691-.19058 1.89691.55727 0 .57023-.31112.87782-1.05438 1.04244-6.52801 1.44579-9.46694 2.81988-9.9237 4.63977-.5026 2.00251 2.94211 3.97182 9.28813 5.30992 4.52311.95372 15.0052 1.17897 20.47715.44003 15.10453-2.03977 16.57426-7.83861 2.61014-10.29834-1.79111-.31549-2.22672-.53423-2.22672-1.11808 0-.93836 1.04899-.93732 5.55948.005 6.91843 1.44624 10.54383 3.50086 10.54383 5.97554 0 1.61301-.86528 2.6164-3.25901 3.77918-4.63376 2.25093-10.88589 3.33152-20.32085 3.51218-4.00666.0767-8.65615-.0171-10.33219-.20828zm-71.063835-10.02289c-5.180205-12.46972-7.748491-18.90841-7.654598-19.19008.06083-.1825 1.402007 1.44451 2.980386 3.61558 2.423649 3.33375 2.883987 3.79839 2.961166 2.98888.05027-.52718.527103-9.24023 1.059645-19.3623 1.44308-27.42879 1.781517-33.34412 1.915577-33.48121.239012-.2444.59677 5.82862 1.73362 29.42862.634184 13.16508 1.218974 24.00241 1.299534 24.08297.0806.0805 1.48884-1.50176 3.12952-3.51628 1.64067-2.01452 3.05707-3.58873 3.14756-3.49826.18612.18612-8.626739 20.9348-9.099801 21.42426-.168216.17404-.830889-.94744-1.472609-2.49218zm78.385995.37807c-4.979-11.95812-7.9136-19.30085-7.82273-19.57342.0599-.1796 1.40025 1.44978 2.97862 3.62085 2.06802 2.84458 2.89538 3.73317 2.96141 3.18059.0504-.42175.7092-12.49666 1.46404-26.83314.75484-14.33647 1.42589-26.11977 1.49122-26.1851.24217-.24216.61626 5.98878 1.56028 25.9877.53254 11.2819 1.09407 22.15163 1.24785 24.15495l.27958 3.64241 3.04621-3.7274c1.67541-2.05008 3.11856-3.65507 3.20699-3.56663.18476.18477-8.63624 20.93679-9.09982 21.40795-.16835.17111-.75949-.77783-1.31365-2.10876z" fill="#273839" stroke-width=".383412" transform="translate(-59.62574 -110.15787)"/></svg>