<svg height="512" viewBox="0 0 135.46666 135.46667" width="512" xmlns="http://www.w3.org/2000/svg" xmlns:xlink="http://www.w3.org/1999/xlink"><linearGradient id="a" gradientUnits="userSpaceOnUse" x1="110.91042" x2="100.60706" y1="80.100906" y2="100.49244"><stop offset="0" stop-color="#273839" stop-opacity=".501961"/><stop offset="1" stop-color="#273839" stop-opacity="0"/></linearGradient><linearGradient id="b" gradientUnits="userSpaceOnUse" x1="78.255348" x2="50.439632" y1="51.075871" y2="65.349197"><stop offset="0" stop-color="#273839" stop-opacity=".5"/><stop offset="1" stop-color="#273839" stop-opacity="0"/></linearGradient><g transform="matrix(1.0411027 0 0 1.0411027 -2.533757 3.558622)"><path d="m43.683866 29.430209 3.281419 2.153431c-.433353 1.200466-1.071868.810927-1.691982.563993-5.799068-1.643433-8.87148 1.570072-9.254623 3.486504.845991 4.896491-1.169555 6.300665.461449 7.075557.02077.71108-.01064 1.487369.538358 1.538166.137644 1.099157-1.161629 3.236884 1.230532 2.40979 1.120157-1.151054 4.198232-1.792656 4.101771-.25636h1.384349c.589751.547385.123171 1.036084-1.025443 1.486893-2.019769.283359-3.143734 1.417731-3.230146 3.537778l-6.716651 3.947953c-1.224916.838751-2.034516.826106-1.897069-1.127987v-2.717422c2.10102-2.297728-.296224-2.925835 0-4.25559 1.160595-2.670003 1.116865-3.142641 1.076715-4.101772-.08549-1.665309-.90738-2.301552-.974171 0-.08305 1.543883-.118095 1.304689-1.333076 0-1.485695-1.447158-.772726-2.823391-.205088-4.204313 1.210274-4.04252-2.426557-1.078485-2.819969 0-3.118986 8.179973.437197 6.365521 0 10.408245-2.594499.631452-2.045131 3.603948 0 3.896682.367451 5.733936-2.133273 9.848547-.05127 9.895526h17.329984l-12.766764-.563994c-.685602-.216154.210028-.695847 1.127987-1.179261 6.639742-3.059238 12.320263-7.467549 14.920193-6.409018 3.21551 1.112984 5.056395 1.057536 5.537393-.153816 6.132761.02528 7.359002 2.713253 12.305316 1.127988 3.009311.02056 2.692746.490184.615264 1.48689-11.225581 5.498438-20.684028 16.356222-28.558584 22.867378-2.091085-.151238-.783995-1.758836-.153817-3.076329-1.391894.04651-3.458269 3.602714-2.15343 6.409018 1.244985 1.659404-.588406 6.349722 4.409404 4.25559.189705-1.865036 15.355786.174739 17.842708 4.717037 1.037941 1.674089 2.034858 1.050822 3.025055.05127 1.611287-2.112608 10.936737 3.370794 11.792596 9.280254-.04308 2.90617 1.758898 5.67434 2.768695 2.61488.770768-1.92505.426192-4.29051-.228198-6.553633l19.111792.304812-19.025088-1.53013c-.888929-1.221741-.240374-2.392169-.543174-5.011623-.07392-2.275539-.703454-3.517024-2.512335-2.563609-3.325311 2.074953-7.881481-.005-8.800682-2.180886-.05206-3.811805-3.139291-2.45131-5.09718-3.395334-2.341351-1.530104-5.229036-1.892521-8.182308-1.731881-2.223643-.177275-1.568384-.654169 0-1.333077l19.688506-8.049725c2.346737-1.053776 5.059572-1.879379 6.357747-3.845412l46.684649 2.984735-51.094055-5.086892c-1.564286-.293074-2.776425-1.294931-.152307-1.780575l5.185328.317229c-.707592-3.003983.512385-5.396797 1.984693-.226528 1.748121-.340732 4.669359.100614 4.31343-1.642818l.25636-3.332689 1.486892-.666538-.76908-6.973012-9.228987-.615264c-.491265 2.617114-1.521636 1.133707-1.743252 0-1.823875-5.39923-5.59777-8.678873-10.562063-10.664605-.961281-.55437-.9723-.9662 0-1.230532 4.56005-.527336 9.015307-2.102605 13.382029-4.563221 3.171454 4.52849 7.275716 2.961511 10.203157 3.38396-.23918 1.219373.0528 2.146637 1.17926 2.61488.99453.894839 1.48651 1.116519 2.15343 0 1.42979-1.153776 1.67283-.103592 2.20471.410178-1.151372 1.299319.16509 2.037268 1.179254 2.922512 2.426809 3.030859 2.757187 1.333943 1.923387-.171416-2.14786-3.390822.168169-1.624057 1.764279-.52572 2.258505 1.214106 4.988495 6.173876 5.337965 2.594378-.61206-1.087046-8.079573-8.35321-.002-2.051059-.59086-3.617587-3.195371-4.763876-5.170123-6.683048 14.447103.584726 19.508173 1.045531 18.454843.61999-1.11836-.45181-8.77317-1.817942-18.926853-2.082336l-4.202123-.10942c-.18207-1.897907-2.227789-2.010312-3.281419-.769083-1.10853.752721-4.238498-2.230338-9.792979-4.460677-1.695532-.708797-2.653632-1.951965-8.870082.615265-2.64186.66941-5.533082-1.297281-7.742094 3.947956-2.787186 5.436797-8.576597 8.395646-11.741322 4.409406-.550529 2.628014-3.898341 6.581822-2.307246-.153818 1.640249-3.897794-.327351-5.676801 1.230532-7.280643l1.597652.922404 1.021088-1.021088c-1.774532-2.075962-3.82317-3.71336-6.617965-4.156906z" fill="url(#b)"/><g fill="#273839"><path d="m123.55664 52.20703-8.48364 2.320313 14.42944 12.181639z" fill-opacity=".5"/><path d="m103.979 82.008542-3.11792 6.090822 1.81275 1.812743 13.26928-1.667724z" fill-opacity=".5"/><path d="m91.507322 24.218261 15.372068 2.465333 2.03028-8.701172z" fill-opacity=".5"/><path d="m24.302997 30.250566 3.281419 2.153431c-.433353 1.200466-1.071868.810927-1.691982.563993-5.799068-1.643433-8.87148 1.570072-9.254623 3.486504.845991 4.896491-1.169555 6.300665.461449 7.075557.02077.71108-.01064 1.487369.538358 1.538166.137644 1.099157-1.161629 3.236884 1.230532 2.40979 1.120157-1.151054 4.198232-1.792656 4.101771-.25636h1.384349c.589751.547385.123171 1.036084-1.025443 1.486893-2.019769.283359-3.143734 1.417731-3.230146 3.537778l-6.716651 3.947953c-1.224916.838751-2.034516.826106-1.897069-1.127987v-2.717422c2.10102-2.297728-.296224-2.925835 0-4.25559 1.160595-2.670003 1.116865-3.142641 1.076715-4.101772-.08549-1.665309-.90738-2.301552-.974171 0-.08305 1.543883-.118095 1.304689-1.333076 0-1.4856946-1.447158-.7727259-2.823391-.205088-4.204313 1.210274-4.04252-2.4265574-1.078485-2.8199685 0-3.1189861 8.179973.437197 6.365521 0 10.408245-2.5944997.631452-2.045131 3.603948 0 3.896682.3674504 5.733936-2.1332736 9.848547-.051272 9.895526h17.3299855l-12.766764-.563994c-.685602-.216154.210028-.695847 1.127987-1.179261 6.639742-3.059238 12.320263-7.467549 14.920193-6.409018 3.21551 1.112984 5.056395 1.057536 5.537393-.153816 6.132761.02528 7.359002 2.713253 12.305316 1.127988 3.009311.02056 2.692746.490184.615264 1.48689-11.225581 5.498438-20.684028 16.356222-28.558584 22.867378-2.091085-.151238-.783995-1.758836-.153817-3.076329-1.391894.04651-3.458269 3.602714-2.15343 6.409018 1.244985 1.659404-.588406 6.349722 4.409404 4.25559.189705-1.865036 15.355786.174739 17.842708 4.717037 1.037941 1.674089 2.034858 1.050822 3.025055.05127 1.611287-2.112608 10.936737 3.370794 11.792596 9.280257-.04308 2.90617 1.758898 5.67434 2.768695 2.61488.770768-1.92505.426192-4.29051-.228198-6.553636l19.111784.304812-19.02508-1.53013c-.888929-1.221741-.240374-2.392169-.543174-5.011623-.07392-2.275539-.703454-3.517024-2.512335-2.563609-3.325311 2.074953-7.881481-.005-8.800682-2.180886-.05206-3.811805-3.139291-2.45131-5.09718-3.395334-2.341351-1.530104-5.229036-1.892521-8.182308-1.731881-2.223643-.177275-1.568384-.654169 0-1.333077l19.688506-8.049725c2.346737-1.053776 5.059572-1.879379 6.357747-3.845412l46.684648 2.984735-51.094054-5.086892c-1.564286-.293074-1.906308-.642343.71781-1.127987l10.613334-2.204705.25636-3.332689 1.486892-.666538-.76908-6.973012-9.228987-.615264c-.491265 2.617114-1.521636 1.133707-1.743252 0-1.823875-5.39923-5.59777-8.678873-10.562063-10.664605-.961281-.55437-.9723-.9662 0-1.230532 4.56005-.527336 9.015307-2.102605 13.382029-4.563221 3.171454 4.52849 7.275716 2.961511 10.203159 3.38396-.239181 1.219373.05275 2.146637 1.179258 2.61488.994528.894839 1.486505 1.116519 2.153431 0 1.429786-1.153776 1.672825-.103592 2.204701.410178l2.512335 3.332689c2.093544 3.28722 1.885564.89813 1.051754-.607229-2.14785-3.390822.424539-2.264959 2.020649-1.166622 2.576122 1.384852 6.662947 7.540452 3.131529.902224-.580724-.669185-.864881-1.507837-.769083-2.563606-1.38565-4.980482-5.200962-3.051486-7.075556-4.614493.535734-2.820805-2.740507-2.779394-3.794141-1.538165-1.108534.752721-4.238497-2.230338-9.792978-4.460677-1.695532-.708797-2.653632-1.951965-8.870082.615265-2.64186.66941-5.533082-1.297281-7.742094 3.947956-2.787186 5.436797-8.576597 8.395646-11.741322 4.409406-.550529 2.628014-3.898341 6.581822-2.307246-.153818 1.640249-3.897794-.327351-5.676801 1.230532-7.280643l1.597652.922404 1.021088-1.021088c-1.774532-2.075962-3.82317-3.71336-6.617965-4.156906z"/><path d="m35.326507 33.890889c-4.664166 2.605229-3.612527 7.254573 2.922514 4.845216 5.726758-2.334967 3.34753-8.679445-2.922514-4.845216z"/><path d="m27.071693 25.277168c.08609 3.188917 1.036812.840564 1.127987 0 .254161-2.775355.838192-5.45264 3.589049-7.485733 3.532004-2.447344-1.464316-3.02322-2.153428-1.538165-1.908969 2.744358-2.564426 5.802094-2.563608 9.023898z"/><path d="m29.789117 25.584801c-.74773 1.28696.166838 3.632264.807276 1.224299.08069-.193802.24403-.36005.393938-.530778l7.668868-8.435615c.472818-.591615.61076-1.685543.399956-3.302591-.03456-3.313545-2.436271-2.453701-1.548772-.000884.08436.846306-.0637 1.653877-.38935 2.431848-2.028161 3.217749-4.483432 6.079574-7.331916 8.613721z"/><path d="m32.762901 27.763867c-2.093708 2.465355-1.308845 2.714845.794719.717809 3.19144-2.648684 6.494224-5.163755 10.165767-7.236315 1.577282-.853107 3.356805-.593898 5.102241-.522161.282413.01161.499844-.09706.843561.01459 4.702673 1.879429 5.849396-1.221883.942625-1.48645-2.39243.13845-5.049186.05033-6.815917.725098-4.264275 2.229609-7.829694 4.786202-11.032996 7.787427z"/><path d="m35.421019 29.438965c-1.721386 1.372537-1.261671 1.223299.525696.598204 3.263995-1.030428 6.382047-2.338149 8.967684-4.657457 2.346058-2.949448-.459312-2.6542-1.538163-1.230531-2.255399 2.834318-5.552686 3.21346-7.955217 5.289784z"/><path d="m46.805053 11.347778c-.231722-2.7714779 2.507708-1.862524 2.175293 0l-.725099 3.988037c-.237152 1.02214-1.376775 3.252599-1.377685-.326294z" fill-opacity=".5"/><path d="m47.638914 77.802977 12.90674-.145021c2.305451-.80174 4.239699-2.03179 5.293212-4.278074l6.888427 11.8916c.792818 1.338218 2.68614 2.141042 4.858154 1.885254 6.113995.449479 7.396993 5.906057 11.674073 7.903564.672414 1.057789-.582056 2.546723 1.160156 2.972901l1.522706 1.812745c2.124701 1.173434 3.088708.487574 4.542477.380144 3.140151-.1232 2.925135 2.30442 2.708498 3.17283-1.181976 3.00975 1.337583 4.20539 1.522703 5.72827v3.91553c-.1593 1.81753-3.197579 1.09193-3.190428 0 .445648-3.96425-4.378296-6.34615-4.930663-9.28125-3.236245.31963-3.979972-2.23544-5.873293-2.68286h-5.049292l-6.453368-7.105955c-5.345741 2.514727-9.182677-.0144-12.135521-3.625487 1.861083 1.215383 3.722167 1.729967 5.58325 1.015134z"/></g><path d="m66.573592 77.216806 12.906739-.145021c2.30545-.80174 4.2397-2.03179 5.29321-4.278074l6.88843 11.8916c.79282 1.338218 2.68614 2.141042 4.85815 1.885254 6.113999.449479 7.396999 5.906057 11.674079 7.903564.67241 1.057789-.58206 2.546723 1.16015 2.972903l1.52271 1.81274c2.1247 1.173438 3.08871.48758 4.54248.38015 3.14015-.1232 2.92513 2.304418 2.70849 3.172828-1.18197 3.00975 1.33759 4.20539 1.52271 5.72827v3.91553c-.1593 1.81753-3.19758 1.09193-3.19043 0 .44565-3.96425-4.3783-6.34615-4.93066-9.28125-3.23625.31963-3.97998-2.23544-5.8733-2.68286h-5.04929l-6.453369-7.105956c-5.34574 2.514727-9.18267-.0144-12.13552-3.625487 1.86109 1.215383 3.72217 1.729967 5.58325 1.015134z" fill="url(#a)"/><path d="m46.119109 24.815498c.08609 3.188917 1.036812.840564 1.127987 0 .254161-2.775355.838192-5.45264 3.589049-7.485733 3.532004-2.447344-1.464316-3.02322-2.153428-1.538165-1.908969 2.744358-2.564426 5.802094-2.563608 9.023898z" fill="#273839" fill-opacity=".5"/><path d="m48.836533 25.123131c-.74773 1.28696.166838 3.632264.807276 1.224299.08069-.193802.24403-.36005.393938-.530778l7.668868-8.435615c.472818-.591615.61076-1.685543.399956-3.302591-.03456-3.313545-2.436271-2.453701-1.548772-.000884.08436.846306-.0637 1.653877-.38935 2.431848-2.028161 3.217749-4.483432 6.079574-7.331916 8.613721z" fill="#273839" fill-opacity=".5"/><path d="m51.810317 27.302197c-2.093708 2.465355-1.308845 2.714845.794719.717809 3.19144-2.648684 6.494224-5.163755 10.165767-7.236315 1.577282-.853107 3.356805-.593898 5.102241-.522161.282413.01161.499844-.09706.843561.01459 4.702673 1.879429 5.849396-1.221883.942625-1.48645-2.39243.13845-5.049186.05033-6.815917.725098-4.264275 2.229609-7.829694 4.786202-11.032996 7.787427z" fill="#273839" fill-opacity=".5"/><path d="m54.468435 28.977295c-1.721386 1.372537-1.261671 1.223299.525696.598204 3.263995-1.030428 6.382047-2.338149 8.967684-4.657457 2.346058-2.949448-.459312-2.6542-1.538163-1.230531-2.255399 2.834318-5.552686 3.21346-7.955217 5.289784z" fill="#273839" fill-opacity=".5"/><path d="m65.852469 10.886108c-.231722-2.7714777 2.507708-1.8625238 2.175293 0l-.725099 3.988037c-.237152 1.02214-1.376775 3.252599-1.377685-.326294z" fill="#273839" fill-opacity=".5"/></g></svg>