<?xml version="1.0" encoding="UTF-8" standalone="no"?>
<!-- Created with Inkscape (http://www.inkscape.org/) -->

<svg
   width="512"
   height="512"
   viewBox="0 0 135.46666 135.46667"
   version="1.1"
   id="svg5"
   inkscape:version="1.1.1 (3bf5ae0d25, 2021-09-20)"
   sodipodi:docname="Slipstream.svg"
   xmlns:inkscape="http://www.inkscape.org/namespaces/inkscape"
   xmlns:sodipodi="http://sodipodi.sourceforge.net/DTD/sodipodi-0.dtd"
   xmlns:xlink="http://www.w3.org/1999/xlink"
   xmlns="http://www.w3.org/2000/svg"
   xmlns:svg="http://www.w3.org/2000/svg">
  <sodipodi:namedview
     id="namedview7"
     pagecolor="#ffffff"
     bordercolor="#666666"
     borderopacity="1.0"
     inkscape:pageshadow="2"
     inkscape:pageopacity="0.0"
     inkscape:pagecheckerboard="0"
     inkscape:document-units="px"
     showgrid="false"
     units="px"
     inkscape:zoom="0.64504646"
     inkscape:cx="129.44804"
     inkscape:cy="206.96184"
     inkscape:window-width="1366"
     inkscape:window-height="697"
     inkscape:window-x="-8"
     inkscape:window-y="-8"
     inkscape:window-maximized="1"
     inkscape:current-layer="layer1"
     inkscape:object-nodes="false" />
  <defs
     id="defs2">
    <linearGradient
       inkscape:collect="always"
       id="linearGradient10359">
      <stop
         style="stop-color:#273839;stop-opacity:0.5"
         offset="0"
         id="stop10355" />
      <stop
         style="stop-color:#273839;stop-opacity:0;"
         offset="1"
         id="stop10357" />
    </linearGradient>
    <linearGradient
       inkscape:collect="always"
       id="linearGradient6737">
      <stop
         style="stop-color:#273839;stop-opacity:0.50196081"
         offset="0"
         id="stop6733" />
      <stop
         style="stop-color:#273839;stop-opacity:0"
         offset="1"
         id="stop6735" />
    </linearGradient>
    <linearGradient
       inkscape:collect="always"
       xlink:href="#linearGradient6737"
       id="linearGradient6739"
       x1="110.91042"
       y1="80.100906"
       x2="100.60706"
       y2="100.49244"
       gradientUnits="userSpaceOnUse" />
    <linearGradient
       inkscape:collect="always"
       xlink:href="#linearGradient10359"
       id="linearGradient10361"
       x1="78.255348"
       y1="51.075871"
       x2="50.439632"
       y2="65.349197"
       gradientUnits="userSpaceOnUse" />
  </defs>
  <g
     inkscape:label="Layer 1"
     inkscape:groupmode="layer"
     id="layer1">
    <g
       id="g11186"
       transform="matrix(1.0411027,0,0,1.0411027,-2.5337572,3.5586222)">
      <path
         style="fill:url(#linearGradient10361);fill-opacity:1;stroke:none;stroke-width:0.264583px;stroke-linecap:butt;stroke-linejoin:miter;stroke-opacity:1"
         d="m 43.683866,29.430209 3.281419,2.153431 c -0.433353,1.200466 -1.071868,0.810927 -1.691982,0.563993 -5.799068,-1.643433 -8.87148,1.570072 -9.254623,3.486504 0.845991,4.896491 -1.169555,6.300665 0.461449,7.075557 0.02077,0.71108 -0.01064,1.487369 0.538358,1.538166 0.137644,1.099157 -1.161629,3.236884 1.230532,2.40979 1.120157,-1.151054 4.198232,-1.792656 4.101771,-0.25636 h 1.384349 c 0.589751,0.547385 0.123171,1.036084 -1.025443,1.486893 -2.019769,0.283359 -3.143734,1.417731 -3.230146,3.537778 l -6.716651,3.947953 c -1.224916,0.838751 -2.034516,0.826106 -1.897069,-1.127987 v -2.717422 c 2.10102,-2.297728 -0.296224,-2.925835 0,-4.25559 1.160595,-2.670003 1.116865,-3.142641 1.076715,-4.101772 -0.08549,-1.665309 -0.90738,-2.301552 -0.974171,0 -0.08305,1.543883 -0.118095,1.304689 -1.333076,0 -1.485695,-1.447158 -0.772726,-2.823391 -0.205088,-4.204313 1.210274,-4.04252 -2.426557,-1.078485 -2.819969,0 -3.118986,8.179973 0.437197,6.365521 0,10.408245 -2.594499,0.631452 -2.045131,3.603948 0,3.896682 0.367451,5.733936 -2.133273,9.848547 -0.05127,9.895526 H 43.888955 L 31.122191,62.603289 c -0.685602,-0.216154 0.210028,-0.695847 1.127987,-1.179261 6.639742,-3.059238 12.320263,-7.467549 14.920193,-6.409018 3.21551,1.112984 5.056395,1.057536 5.537393,-0.153816 6.132761,0.02528 7.359002,2.713253 12.305316,1.127988 3.009311,0.02056 2.692746,0.490184 0.615264,1.48689 C 54.402763,62.97451 44.944316,73.832294 37.06976,80.34345 c -2.091085,-0.151238 -0.783995,-1.758836 -0.153817,-3.076329 -1.391894,0.04651 -3.458269,3.602714 -2.15343,6.409018 1.244985,1.659404 -0.588406,6.349722 4.409404,4.25559 0.189705,-1.865036 15.355786,0.174739 17.842708,4.717037 1.037941,1.674089 2.034858,1.050822 3.025055,0.05127 1.611287,-2.112608 10.936737,3.370794 11.792596,9.280254 -0.04308,2.90617 1.758898,5.67434 2.768695,2.61488 0.770768,-1.92505 0.426192,-4.29051 -0.228198,-6.553633 l 19.111792,0.304812 -19.025088,-1.53013 c -0.888929,-1.221741 -0.240374,-2.392169 -0.543174,-5.011623 -0.07392,-2.275539 -0.703454,-3.517024 -2.512335,-2.563609 -3.325311,2.074953 -7.881481,-0.005 -8.800682,-2.180886 -0.05206,-3.811805 -3.139291,-2.45131 -5.09718,-3.395334 -2.341351,-1.530104 -5.229036,-1.892521 -8.182308,-1.731881 -2.223643,-0.177275 -1.568384,-0.654169 0,-1.333077 l 19.688506,-8.049725 c 2.346737,-1.053776 5.059572,-1.879379 6.357747,-3.845412 L 122.0547,71.689407 70.960645,66.602515 C 69.396359,66.309441 68.18422,65.307584 70.808338,64.82194 l 5.185328,0.317229 c -0.707592,-3.003983 0.512385,-5.396797 1.984693,-0.226528 1.748121,-0.340732 4.669359,0.100614 4.31343,-1.642818 l 0.25636,-3.332689 1.486892,-0.666538 -0.76908,-6.973012 -9.228987,-0.615264 c -0.491265,2.617114 -1.521636,1.133707 -1.743252,0 -1.823875,-5.39923 -5.59777,-8.678873 -10.562063,-10.664605 -0.961281,-0.55437 -0.9723,-0.9662 0,-1.230532 4.56005,-0.527336 9.015307,-2.102605 13.382029,-4.563221 3.171454,4.52849 7.275716,2.961511 10.203157,3.38396 -0.23918,1.219373 0.0528,2.146637 1.17926,2.61488 0.99453,0.894839 1.48651,1.116519 2.15343,0 1.42979,-1.153776 1.67283,-0.103592 2.20471,0.410178 -1.151372,1.299319 0.16509,2.037268 1.179254,2.922512 2.426809,3.030859 2.757187,1.333943 1.923387,-0.171416 -2.14786,-3.390822 0.168169,-1.624057 1.764279,-0.52572 2.258505,1.214106 4.988495,6.173876 5.337965,2.594378 -0.61206,-1.087046 -8.079573,-8.35321 -0.002,-2.051059 -0.59086,-3.617587 -3.195371,-4.763876 -5.170123,-6.683048 14.447103,0.584726 19.508173,1.045531 18.454843,0.61999 -1.11836,-0.45181 -8.77317,-1.817942 -18.926853,-2.082336 l -4.202123,-0.10942 c -0.18207,-1.897907 -2.227789,-2.010312 -3.281419,-0.769083 -1.10853,0.752721 -4.238498,-2.230338 -9.792979,-4.460677 -1.695532,-0.708797 -2.653632,-1.951965 -8.870082,0.615265 -2.64186,0.66941 -5.533082,-1.297281 -7.742094,3.947956 -2.787186,5.436797 -8.576597,8.395646 -11.741322,4.409406 -0.550529,2.628014 -3.898341,6.581822 -2.307246,-0.153818 1.640249,-3.897794 -0.327351,-5.676801 1.230532,-7.280643 l 1.597652,0.922404 1.021088,-1.021088 c -1.774532,-2.075962 -3.82317,-3.71336 -6.617965,-4.156906 z"
         id="path1035-0"
         sodipodi:nodetypes="cccccccccccccccccccccccccccccccccccccccccccccccccccccccccccccccccccccccccsscccccccccccc" />
      <path
         style="fill:#273839;fill-opacity:0.5;stroke:none;stroke-width:0.264583px;stroke-linecap:butt;stroke-linejoin:miter;stroke-opacity:1"
         d="m 123.55664,52.20703 -8.48364,2.320313 14.42944,12.181639 z"
         id="path1029" />
      <path
         style="fill:#273839;fill-opacity:0.5;stroke:none;stroke-width:0.264583px;stroke-linecap:butt;stroke-linejoin:miter;stroke-opacity:1"
         d="m 103.979,82.008542 -3.11792,6.090822 1.81275,1.812743 13.26928,-1.667724 z"
         id="path1031" />
      <path
         style="fill:#273839;fill-opacity:0.5;stroke:none;stroke-width:0.264583px;stroke-linecap:butt;stroke-linejoin:miter;stroke-opacity:1"
         d="m 91.507322,24.218261 15.372068,2.465333 2.03028,-8.701172 z"
         id="path1033" />
      <path
         style="fill:#273839;fill-opacity:1;stroke:none;stroke-width:0.264583px;stroke-linecap:butt;stroke-linejoin:miter;stroke-opacity:1"
         d="m 24.302997,30.250566 3.281419,2.153431 c -0.433353,1.200466 -1.071868,0.810927 -1.691982,0.563993 -5.799068,-1.643433 -8.87148,1.570072 -9.254623,3.486504 0.845991,4.896491 -1.169555,6.300665 0.461449,7.075557 0.02077,0.71108 -0.01064,1.487369 0.538358,1.538166 0.137644,1.099157 -1.161629,3.236884 1.230532,2.40979 1.120157,-1.151054 4.198232,-1.792656 4.101771,-0.25636 h 1.384349 c 0.589751,0.547385 0.123171,1.036084 -1.025443,1.486893 -2.019769,0.283359 -3.143734,1.417731 -3.230146,3.537778 l -6.716651,3.947953 c -1.224916,0.838751 -2.034516,0.826106 -1.897069,-1.127987 v -2.717422 c 2.10102,-2.297728 -0.296224,-2.925835 0,-4.25559 1.160595,-2.670003 1.116865,-3.142641 1.076715,-4.101772 -0.08549,-1.665309 -0.90738,-2.301552 -0.974171,0 -0.08305,1.543883 -0.118095,1.304689 -1.333076,0 -1.4856946,-1.447158 -0.7727259,-2.823391 -0.205088,-4.204313 1.210274,-4.04252 -2.4265574,-1.078485 -2.8199685,0 -3.1189861,8.179973 0.437197,6.365521 0,10.408245 -2.5944997,0.631452 -2.045131,3.603948 0,3.896682 0.3674504,5.733936 -2.1332736,9.848547 -0.051272,9.895526 H 24.508086 L 11.741322,63.423646 c -0.685602,-0.216154 0.210028,-0.695847 1.127987,-1.179261 6.639742,-3.059238 12.320263,-7.467549 14.920193,-6.409018 3.21551,1.112984 5.056395,1.057536 5.537393,-0.153816 6.132761,0.02528 7.359002,2.713253 12.305316,1.127988 3.009311,0.02056 2.692746,0.490184 0.615264,1.48689 -11.225581,5.498438 -20.684028,16.356222 -28.558584,22.867378 -2.091085,-0.151238 -0.783995,-1.758836 -0.153817,-3.076329 -1.391894,0.04651 -3.458269,3.602714 -2.15343,6.409018 1.244985,1.659404 -0.588406,6.349722 4.409404,4.25559 0.189705,-1.865036 15.355786,0.174739 17.842708,4.717037 1.037941,1.674089 2.034858,1.050822 3.025055,0.05127 1.611287,-2.112608 10.936737,3.370794 11.792596,9.280257 -0.04308,2.90617 1.758898,5.67434 2.768695,2.61488 0.770768,-1.92505 0.426192,-4.29051 -0.228198,-6.553636 l 19.111784,0.304812 -19.02508,-1.53013 c -0.888929,-1.221741 -0.240374,-2.392169 -0.543174,-5.011623 -0.07392,-2.275539 -0.703454,-3.517024 -2.512335,-2.563609 -3.325311,2.074953 -7.881481,-0.005 -8.800682,-2.180886 -0.05206,-3.811805 -3.139291,-2.45131 -5.09718,-3.395334 -2.341351,-1.530104 -5.229036,-1.892521 -8.182308,-1.731881 -2.223643,-0.177275 -1.568384,-0.654169 0,-1.333077 l 19.688506,-8.049725 c 2.346737,-1.053776 5.059572,-1.879379 6.357747,-3.845412 l 46.684648,2.984735 -51.094054,-5.086892 c -1.564286,-0.293074 -1.906308,-0.642343 0.71781,-1.127987 l 10.613334,-2.204705 0.25636,-3.332689 1.486892,-0.666538 -0.76908,-6.973012 -9.228987,-0.615264 c -0.491265,2.617114 -1.521636,1.133707 -1.743252,0 -1.823875,-5.39923 -5.59777,-8.678873 -10.562063,-10.664605 -0.961281,-0.55437 -0.9723,-0.9662 0,-1.230532 4.56005,-0.527336 9.015307,-2.102605 13.382029,-4.563221 3.171454,4.52849 7.275716,2.961511 10.203159,3.38396 -0.239181,1.219373 0.05275,2.146637 1.179258,2.61488 0.994528,0.894839 1.486505,1.116519 2.153431,0 1.429786,-1.153776 1.672825,-0.103592 2.204701,0.410178 l 2.512335,3.332689 c 2.093544,3.28722 1.885564,0.89813 1.051754,-0.607229 -2.14785,-3.390822 0.424539,-2.264959 2.020649,-1.166622 2.576122,1.384852 6.662947,7.540452 3.131529,0.902224 -0.580724,-0.669185 -0.864881,-1.507837 -0.769083,-2.563606 -1.38565,-4.980482 -5.200962,-3.051486 -7.075556,-4.614493 0.535734,-2.820805 -2.740507,-2.779394 -3.794141,-1.538165 -1.108534,0.752721 -4.238497,-2.230338 -9.792978,-4.460677 -1.695532,-0.708797 -2.653632,-1.951965 -8.870082,0.615265 -2.64186,0.66941 -5.533082,-1.297281 -7.742094,3.947956 -2.787186,5.436797 -8.576597,8.395646 -11.741322,4.409406 -0.550529,2.628014 -3.898341,6.581822 -2.307246,-0.153818 1.640249,-3.897794 -0.327351,-5.676801 1.230532,-7.280643 l 1.597652,0.922404 1.021088,-1.021088 c -1.774532,-2.075962 -3.82317,-3.71336 -6.617965,-4.156906 z"
         id="path1035"
         sodipodi:nodetypes="cccccccccccccccccccccccccccccccccccccccccccccccccccccccccccccccccccccccccccccccccc" />
      <path
         style="fill:#273839;fill-opacity:1;stroke:none;stroke-width:0.264583px;stroke-linecap:butt;stroke-linejoin:miter;stroke-opacity:1"
         d="m 35.326507,33.890889 c -4.664166,2.605229 -3.612527,7.254573 2.922514,4.845216 5.726758,-2.334967 3.34753,-8.679445 -2.922514,-4.845216 z"
         id="path2223"
         sodipodi:nodetypes="ccc" />
      <path
         style="fill:#273839;fill-opacity:1;stroke:none;stroke-width:0.264583px;stroke-linecap:butt;stroke-linejoin:miter;stroke-opacity:1"
         d="m 27.071693,25.277168 c 0.08609,3.188917 1.036812,0.840564 1.127987,0 0.254161,-2.775355 0.838192,-5.45264 3.589049,-7.485733 3.532004,-2.447344 -1.464316,-3.02322 -2.153428,-1.538165 -1.908969,2.744358 -2.564426,5.802094 -2.563608,9.023898 z"
         id="path9888"
         sodipodi:nodetypes="ccccc" />
      <path
         style="fill:#273839;fill-opacity:1;stroke:none;stroke-width:0.264583px;stroke-linecap:butt;stroke-linejoin:miter;stroke-opacity:1"
         d="m 29.789117,25.584801 c -0.74773,1.28696 0.166838,3.632264 0.807276,1.224299 0.08069,-0.193802 0.24403,-0.36005 0.393938,-0.530778 l 7.668868,-8.435615 c 0.472818,-0.591615 0.61076,-1.685543 0.399956,-3.302591 -0.03456,-3.313545 -2.436271,-2.453701 -1.548772,-8.84e-4 0.08436,0.846306 -0.0637,1.653877 -0.38935,2.431848 -2.028161,3.217749 -4.483432,6.079574 -7.331916,8.613721 z"
         id="path861"
         sodipodi:nodetypes="cccccccc" />
      <path
         style="fill:#273839;fill-opacity:1;stroke:none;stroke-width:0.264583px;stroke-linecap:butt;stroke-linejoin:miter;stroke-opacity:1"
         d="m 32.762901,27.763867 c -2.093708,2.465355 -1.308845,2.714845 0.794719,0.717809 3.19144,-2.648684 6.494224,-5.163755 10.165767,-7.236315 1.577282,-0.853107 3.356805,-0.593898 5.102241,-0.522161 0.282413,0.01161 0.499844,-0.09706 0.843561,0.01459 4.702673,1.879429 5.849396,-1.221883 0.942625,-1.48645 -2.39243,0.13845 -5.049186,0.05033 -6.815917,0.725098 -4.264275,2.229609 -7.829694,4.786202 -11.032996,7.787427 z"
         id="path2496"
         sodipodi:nodetypes="cccsccccc" />
      <path
         style="fill:#273839;fill-opacity:1;stroke:none;stroke-width:0.264583px;stroke-linecap:butt;stroke-linejoin:miter;stroke-opacity:1"
         d="m 35.421019,29.438965 c -1.721386,1.372537 -1.261671,1.223299 0.525696,0.598204 3.263995,-1.030428 6.382047,-2.338149 8.967684,-4.657457 2.346058,-2.949448 -0.459312,-2.6542 -1.538163,-1.230531 -2.255399,2.834318 -5.552686,3.21346 -7.955217,5.289784 z"
         id="path3751"
         sodipodi:nodetypes="ccccc" />
      <path
         style="fill:#273839;fill-opacity:0.5;stroke:none;stroke-width:0.264583px;stroke-linecap:butt;stroke-linejoin:miter;stroke-opacity:1"
         d="m 46.805053,11.347778 c -0.231722,-2.7714779 2.507708,-1.862524 2.175293,0 l -0.725099,3.988037 c -0.237152,1.02214 -1.376775,3.252599 -1.377685,-0.326294 z"
         id="path4246"
         sodipodi:nodetypes="ccccc" />
      <path
         style="fill:#273839;fill-opacity:1;stroke:none;stroke-width:0.264583px;stroke-linecap:butt;stroke-linejoin:miter;stroke-opacity:1"
         d="m 47.638914,77.802977 12.90674,-0.145021 c 2.305451,-0.80174 4.239699,-2.03179 5.293212,-4.278074 l 6.888427,11.8916 c 0.792818,1.338218 2.68614,2.141042 4.858154,1.885254 6.113995,0.449479 7.396993,5.906057 11.674073,7.903564 0.672414,1.057789 -0.582056,2.546723 1.160156,2.972901 l 1.522706,1.812745 c 2.124701,1.173434 3.088708,0.487574 4.542477,0.380144 3.140151,-0.1232 2.925135,2.30442 2.708498,3.17283 -1.181976,3.00975 1.337583,4.20539 1.522703,5.72827 v 3.91553 c -0.1593,1.81753 -3.197579,1.09193 -3.190428,0 0.445648,-3.96425 -4.378296,-6.34615 -4.930663,-9.28125 -3.236245,0.31963 -3.979972,-2.23544 -5.873293,-2.68286 h -5.049292 l -6.453368,-7.105955 c -5.345741,2.514727 -9.182677,-0.0144 -12.135521,-3.625487 1.861083,1.215383 3.722167,1.729967 5.58325,1.015134 z"
         id="path4741"
         sodipodi:nodetypes="cccccccccccccccccccc" />
      <path
         style="fill:url(#linearGradient6739);fill-opacity:1;stroke:none;stroke-width:0.264583px;stroke-linecap:butt;stroke-linejoin:miter;stroke-opacity:1"
         d="m 66.573592,77.216806 12.906739,-0.145021 c 2.30545,-0.80174 4.2397,-2.03179 5.29321,-4.278074 l 6.88843,11.8916 c 0.79282,1.338218 2.68614,2.141042 4.85815,1.885254 6.113999,0.449479 7.396999,5.906057 11.674079,7.903564 0.67241,1.057789 -0.58206,2.546723 1.16015,2.972903 l 1.52271,1.81274 c 2.1247,1.173438 3.08871,0.48758 4.54248,0.38015 3.14015,-0.1232 2.92513,2.304418 2.70849,3.172828 -1.18197,3.00975 1.33759,4.20539 1.52271,5.72827 v 3.91553 c -0.1593,1.81753 -3.19758,1.09193 -3.19043,0 0.44565,-3.96425 -4.3783,-6.34615 -4.93066,-9.28125 -3.23625,0.31963 -3.97998,-2.23544 -5.8733,-2.68286 h -5.04929 l -6.453369,-7.105956 c -5.34574,2.514727 -9.18267,-0.0144 -12.13552,-3.625487 1.86109,1.215383 3.72217,1.729967 5.58325,1.015134 z"
         id="path4741-0"
         sodipodi:nodetypes="cccccccccccccccccccc" />
      <path
         style="fill:#273839;fill-opacity:0.5;stroke:none;stroke-width:0.264583px;stroke-linecap:butt;stroke-linejoin:miter;stroke-opacity:1"
         d="m 46.119109,24.815498 c 0.08609,3.188917 1.036812,0.840564 1.127987,0 0.254161,-2.775355 0.838192,-5.45264 3.589049,-7.485733 3.532004,-2.447344 -1.464316,-3.02322 -2.153428,-1.538165 -1.908969,2.744358 -2.564426,5.802094 -2.563608,9.023898 z"
         id="path9888-7"
         sodipodi:nodetypes="ccccc" />
      <path
         style="fill:#273839;fill-opacity:0.5;stroke:none;stroke-width:0.264583px;stroke-linecap:butt;stroke-linejoin:miter;stroke-opacity:1"
         d="m 48.836533,25.123131 c -0.74773,1.28696 0.166838,3.632264 0.807276,1.224299 0.08069,-0.193802 0.24403,-0.36005 0.393938,-0.530778 l 7.668868,-8.435615 c 0.472818,-0.591615 0.61076,-1.685543 0.399956,-3.302591 -0.03456,-3.313545 -2.436271,-2.453701 -1.548772,-8.84e-4 0.08436,0.846306 -0.0637,1.653877 -0.38935,2.431848 -2.028161,3.217749 -4.483432,6.079574 -7.331916,8.613721 z"
         id="path861-9"
         sodipodi:nodetypes="cccccccc" />
      <path
         style="fill:#273839;fill-opacity:0.5;stroke:none;stroke-width:0.264583px;stroke-linecap:butt;stroke-linejoin:miter;stroke-opacity:1"
         d="m 51.810317,27.302197 c -2.093708,2.465355 -1.308845,2.714845 0.794719,0.717809 3.19144,-2.648684 6.494224,-5.163755 10.165767,-7.236315 1.577282,-0.853107 3.356805,-0.593898 5.102241,-0.522161 0.282413,0.01161 0.499844,-0.09706 0.843561,0.01459 4.702673,1.879429 5.849396,-1.221883 0.942625,-1.48645 -2.39243,0.13845 -5.049186,0.05033 -6.815917,0.725098 -4.264275,2.229609 -7.829694,4.786202 -11.032996,7.787427 z"
         id="path2496-6"
         sodipodi:nodetypes="cccsccccc" />
      <path
         style="fill:#273839;fill-opacity:0.5;stroke:none;stroke-width:0.264583px;stroke-linecap:butt;stroke-linejoin:miter;stroke-opacity:1"
         d="m 54.468435,28.977295 c -1.721386,1.372537 -1.261671,1.223299 0.525696,0.598204 3.263995,-1.030428 6.382047,-2.338149 8.967684,-4.657457 2.346058,-2.949448 -0.459312,-2.6542 -1.538163,-1.230531 -2.255399,2.834318 -5.552686,3.21346 -7.955217,5.289784 z"
         id="path3751-2"
         sodipodi:nodetypes="ccccc" />
      <path
         style="fill:#273839;fill-opacity:0.5;stroke:none;stroke-width:0.264583px;stroke-linecap:butt;stroke-linejoin:miter;stroke-opacity:1"
         d="m 65.852469,10.886108 c -0.231722,-2.7714777 2.507708,-1.8625238 2.175293,0 l -0.725099,3.988037 c -0.237152,1.02214 -1.376775,3.252599 -1.377685,-0.326294 z"
         id="path4246-9"
         sodipodi:nodetypes="ccccc" />
    </g>
  </g>
</svg>
