<svg height="512" viewBox="0 0 135.46666 135.46667" width="512" xmlns="http://www.w3.org/2000/svg" xmlns:xlink="http://www.w3.org/1999/xlink"><linearGradient id="a"><stop offset="0" stop-color="#273839" stop-opacity=".5"/><stop offset="1" stop-color="#273839" stop-opacity="0"/></linearGradient><linearGradient id="b" gradientUnits="userSpaceOnUse" x1="83.717743" x2="75.733116" xlink:href="#a" y1="42.37035" y2="61.385284"/><linearGradient id="c" gradientUnits="userSpaceOnUse" x1="74.550674" x2="67.292999" xlink:href="#a" y1="47.283394" y2="58.050545"/><g transform="matrix(1.2058451 0 0 1.2058451 -13.837763 -9.723288)"><path d="m96.290003 57.965204-.270421-1.590952c-1.105467 1.802246-2.441503 3.212016-4.112606 4.052687-.09983-.786721-.07407-1.534351.7206-2.041534l.420198-2.431784c.0028-.878396-1.013177-1.978267-1.771094-2.791652-.67485-1.157954-1.302008-2.310877-.480543-3.302571.469809-.667465-.170357-1.225593-.810455-1.560998-3.802003-2.399599-5.204231-6.055897-6.694575-9.666372-.270092-.505027-.07702-1.108186-1.170747-1.59138-.982439-.303149-2.015259-.547323-2.671834-1.230653-.25334.937076-.679603 1.739818-1.441181 2.281589-.06769-2.024539 1.82582-6.848575.180141-6.66462.412924.887119.439223 1.805688-2.551591 2.9718l-2.581979 8.466099c-.349404 1.739986-3.135605 2.226923-3.812635 0l-3.182329-8.555962c-1.660619-.872992-3.6849-1.690173-1.320942-3.18233-2.400318-.02743-1.731387 2.575866-.240054 5.884122.690314 1.353075-.663601 1.21396-.960649.660685l-1.050506-1.29099c-2.211757.04026-1.73178-1.14057-4.833615-.150192-.604586.329817-1.085386.226432-1.531042 0-1.93508-.355354-2.145256.608107-2.101443 1.290987.183549 1.192923-.226553 1.937085-1.681238 1.891341-.820522-.0049-1.890309.805947-1.200702 2.10144.657639 1.138956.08396 2.101698-.930693 3.001754-.734926.57962-1.411322.821388-.630304 2.28159.675782 1.061787-.954654 3.084308 1.410803 3.272616 1.106764-.0089 3.442182.860279.330342 1.590951-.459622 2.641823-.980694 5.283403-2.461737 7.925229-2.252482 1.394994-1.318988 4.076413-1.620904 6.664618-.08966 1.987534.382845 4.308312-1.020981 5.824213-1.419715.446667-.826286 2.510291.09028 3.152377.75123-.0967 1.609273-.589291 1.590951 2.161352-.367891 3.097185.09649 5.332288 2.881942 5.163528.332466-.171925.60407-.567755 1.261034.450147.909531 2.15773 1.280078 1.920392 1.170747-.450147.0877-.960667-.329898-1.921276.360298-2.881943.476584-.700596.755108-1.455175 0-2.491694l-1.380849-3.062082c-.684404-.415026-.774753-1.162218-.150196-1.591382 1.104359-.645318 1.527927-2.501848.210102-2.821607-.258312-3.505233 2.189805-5.466255 2.011153-10.237195.394648-1.62675 1.64117-3.302288 2.461737-4.95343.533145-1.165014.887146-.434753 1.261036.02995.613979 1.880172.795651 5.09769 2.725756 7.359963l.891325 8.06644c.162958 1.585439-.491256 1.536361-1.443323.891755-6.077097-1.686505-5.356091 5.947506-1.740718 6.537956.836779.07568 1.825485-.114861.848964 1.825876-1.552661-.08186-1.088906.822398-.212242 1.188716l12.906906 6.835354c8.614396-9.319051 26.231796-16.736355 24.329813-29.283665zm-25.486868-12.867108c3.202086.00013 5.79779 2.596026 5.797685 5.798111-.000131 3.20192-2.595766 5.797555-5.797685 5.797684-3.202086.000108-5.797984-2.595597-5.798114-5.797684-.000106-3.202253 2.59586-5.798218 5.798114-5.798111zm13.298428 10.855521h.600357c.392806 1.340585 1.204327 2.419872 2.041528 3.482717l.72059 4.983383c.121669.769316.06903 1.418081-.54045 1.681237l-5.404003 2.881939c-.950265.14251-.74725-.382813-.660255-.840832l1.501088-7.384783c1.642303-2.360471.760902-2.897949 1.741145-4.803661z" fill="url(#b)"/><g fill="#273839"><path d="m64.201581 21.980212c-1.739724.473462-.970419 6.392664 0 6.292596 1.363911-.639037 1.815361 2.48583 2.578214 4.326157 2.650853 4.451431 5.621281 5.416573 9.176701 0 .756244-1.228353 1.371438-3.020907 2.053835-4.54465 2.692913.277772 1.856302-7.200247 0-6.860677 1.272286-2.629902-.251982-4.032247-1.223561-4.413555l-2.709312-.873972c-.950872-.578471-.550016-.931652-.0437-1.267258l1.005066-.30589c-2.903876-.650811-5.767673-1.001022-8.346428.786575h1.092464c.820735.364154.865524.728308-.0437 1.092463-2.353098 1.001442-3.250178 2.817832-3.189996 3.845476.396826 1.239827.242066 1.836136-.349589 1.922735z" fill-opacity=".5"/><path d="m67.457124 12.23543c-.796962 1.080383-1.264891 1.897539.240343 1.136164z" fill-opacity=".5"/><path d="m69.000603 12.76674c-.0309-.984543.217878-1.821025 1.575877-2.07027-.198692 1.234424-.637723 2.068282-1.575877 2.07027z" fill-opacity=".5"/><path d="m71.812461 12.334146h1.514079c.183057-.987966 1.53435-1.099755 2.317468-1.637676-1.558638.05974-3.153871.05627-3.831547 1.637676z" fill-opacity=".5"/><path d="m75.038826 13.284197.96137.786574c3.564094.220547 3.702402 3.208073 4.369858 5.768211.129108-7.691683-2.348245-7.853587-5.331228-6.554785z" fill-opacity=".5"/><path d="m81.812107 19.970079c1.402434 1.892528 2.448194 3.977111 4.850542 5.331225 1.709687.866092.255507 2.149471-.917672.961368-2.117591-1.946287-3.117485-4.102142-3.93287-6.292593z" fill-opacity=".5"/><path d="m81.244025 27.879521c.495918 2.145863.509057 4.452652 1.791641 6.336293 1.542731 1.833712-.453051 2.409145-1.136162 1.092464-1.20163-2.476252-.785061-4.952505-.655479-7.428757z" fill-opacity=".5"/><path d="m81.287723 22.635691 3.189996 10.138069c.658787 2.429188 1.955405 2.128066 1.529451 0-1.160214-3.461943-3.006439-6.786684-4.719447-10.138069z" fill-opacity=".5"/><path d="m86.795677 35.58924c-2.035767.01085-2.239274 4.694106.37789 7.794757 3.82142 4.846888 8.63915 4.357637 3.80093-3.738823-1.75304-2.952096-3.18461-4.061231-4.17882-4.055934zm.86588 2.061218c.47026.02776 1.24623.625181 2.44749 2.210966 3.14016 3.854068 1.97708 6.712709-.92711 3.584231l-.0617-2.966304-1.23585.988767c-.73445-.754713-1.33661-3.883402-.22287-3.81766z" fill-opacity=".5"/><path d="m37.838845 38.146476c-2.041242.555519-1.138606 7.500601 0 7.38319 1.600296-.749791 2.129988 2.916659 3.025055 5.075941 3.110282 5.222925 6.595527 6.35534 10.76715 0 .887312-1.441244 1.609128-3.544473 2.409794-5.332301 3.159632.325913 2.178025-8.44815 0-8.049728 1.492791-3.085701-.295654-4.731092-1.435622-5.178486l-3.178873-1.025443c-1.115671-.678728-.645341-1.093121-.05127-1.486892l1.179258-.358905c-3.407158-.763605-6.767291-1.174513-9.79298.922899h1.281803c.96298.427268 1.015531.854535-.05127 1.281803-2.760923 1.175005-3.81348 3.306201-3.742867 4.51195.465601 1.454706.284019 2.154364-.410178 2.255972z"/><path d="m41.658619 26.712788c-.935086 1.267628-1.484114 2.226408.281998 1.333077z"/><path d="m43.469604 27.336181c-.03625-1.155178.25564-2.136634 1.848999-2.429077-.233128 1.448367-.74825 2.426744-1.848999 2.429077z"/><path d="m46.768797 26.828612h1.776489c.214784-1.159194 1.800275-1.290358 2.719118-1.921508-1.828772.07009-3.700481.06602-4.495607 1.921508z"/><path d="m50.554336 27.94332 1.127988.922899c4.181801.25877 4.34408 3.764076 5.127215 6.767922.151485-9.024759-2.755228-9.214723-6.255203-7.690821z"/><path d="m58.50152 35.787959c1.645496 2.220529 2.872501 4.6664 5.691209 6.2552 2.005996 1.016198.299793 2.522005-1.076717 1.127987-2.4846-2.283606-3.657789-4.813101-4.614492-7.383187z"/><path d="m57.834982 45.068217c.581867 2.517771.597283 5.224359 2.102157 7.434461 1.810108 2.15152-.531571 2.826683-1.333074 1.281803-1.40989-2.905421-.921123-5.810843-.769083-8.716264z"/><path d="m57.886253 38.915559 3.742867 11.895137c.772964 2.8502 2.294304 2.49689 1.794526 0-1.361295-4.061946-3.527497-7.962911-5.537393-11.895137z"/><circle cx="46.401291" cy="73.267899" r="4.267072"/></g><circle cx="71.280739" cy="50.257179" fill="url(#c)" r="4.010711"/><path d="m247.30078 210.4375c-9.02776.0481-9.93023 20.81635 1.67578 34.56641 16.94635 21.49388 38.31092 19.32426 16.85547-16.58008-7.77396-13.09128-14.12234-18.00982-18.53125-17.98633zm3.83984 9.14062c2.08536.1231 5.52644 2.77241 10.85352 9.80469 13.92526 17.09114 8.76749 29.76799-4.11133 15.89453l-.27343-13.15429-5.48047 4.38476c-3.25697-3.34683-5.92728-17.22123-.98829-16.92969z" fill="#273839" transform="scale(.26458333)"/><path d="m410.53125 180.875c-24.52161 42.5831-59.25438 85.9512-112.22461 130.72266-4.76224 3.99125-7.07596 5.37193-7.81055-.13672l-1.23437-7.26172c-5.04579 8.22616-11.14392 14.6609-18.77149 18.49805-.45569-3.5909-.33818-7.00338 3.28907-9.31836l1.91797-11.09961c.01-4.00934-4.62456-9.02958-8.08399-12.74219-3.08029-5.28535-5.94286-10.54774-2.19336-15.07422 2.14439-3.04657-.77759-5.59408-3.69922-7.125-17.35383-10.95271-23.75415-27.64148-30.55664-44.12109-1.23283-2.30514-.35149-5.0582-5.34375-7.26368-4.48424-1.38369-9.19845-2.4982-12.19531-5.61718-1.15634 4.27718-3.10196 7.9412-6.57812 10.41406-.30894-9.24079 8.33374-31.25957.82226-30.41992 1.88473 4.04915 2.00477 8.24186-11.64648 13.56445l-11.78516 38.64258c-1.59481 7.94197-14.31211 10.16454-17.40234 0l-14.52539-39.05273c-7.57971-3.98468-16.81932-7.71461-6.0293-14.5254-10.95598-.12525-7.90272 11.75726-1.0957 26.85743 3.15087 6.17596-3.02893 5.54098-4.38477 3.01562l-4.79492-5.89258c-10.09532.18376-7.90452-5.20601-22.0625-.68554-2.75957 1.50542-4.95413 1.03353-6.98828 0-8.832452-1.62197-9.791782 2.77564-9.5918 5.89257.837789 5.44497-1.034075 8.84161-7.673828 8.63282-3.745183-.0227-8.628105 3.67866-5.480469 9.59179 3.00172 5.19864.383228 9.59297-4.248047 13.70118-3.354489 2.64561-6.441822 3.74913-2.876953 10.41406 3.084529 4.84641-4.35741 14.07799 6.439453 14.9375 5.051705-.0408 15.711463 3.92665 1.507813 7.26172-2.097895 12.05831-4.476273 24.11551-11.236328 36.17383-10.281207 6.3673-6.020381 18.60634-7.398438 30.41992-.409228 9.07188 1.747451 19.6648-4.660156 26.58398-6.480132 2.03878-3.771488 11.45795.412109 14.38867 3.428901-.44133 7.345341-2.68975 7.261719 9.86524-1.679203 14.13679.440442 24.33866 13.154297 23.56836 1.517507-.78471 2.75722-2.59145 5.755859 2.05468 4.151452 9.8487 5.842769 8.76539 5.34375-2.05468.400271-4.38486-1.505791-8.76944 1.644531-13.1543 2.175319-3.19778 3.446608-6.64199 0-11.37305l-6.302734-13.97656c-3.123885-1.89434-3.536271-5.30482-.685547-7.26367 5.040726-2.94545 6.974046-11.4194.958985-12.87891-1.179035-15.99926 9.995124-24.95013 9.179687-46.72656 1.801327-7.42512 7.490937-15.07293 11.236327-22.60938 2.43348-5.31759 4.04928-1.98439 5.75586.13672 2.80244 8.58184 3.63166 23.26785 12.44141 33.59375l4.06836 36.81836c.7438 7.23656-2.24229 7.01258-6.58789 4.07032-27.738241-7.69785-24.44729 27.14676-7.94532 29.84179 3.81939.34545 8.33223-.52428 3.875 8.33399-7.08694-.37342-4.97019 3.75375-.96875 5.42578l58.91211 31.19922c154.10935-100.81867 224.84479-186.09304 257.39453-264.24805zm-236.36719 71.85547a26.463967 26.463967 0 0 1 26.46289 26.46484 26.463967 26.463967 0 0 1 -26.46289 26.46289 26.463967 26.463967 0 0 1 -26.46484-26.46289 26.463967 26.463967 0 0 1 26.46484-26.46484zm60.69922 49.54883h2.74024c1.79296 6.11895 5.49704 11.04524 9.31836 15.89648l3.28906 22.7461c.55533 3.51146.315 6.47267-2.4668 7.67382l-24.66602 13.1543c-4.33738.65045-3.41075-1.74733-3.01367-3.83789l6.85157-33.70703c7.49612-10.77411 3.47305-13.22737 7.94726-21.92578z" fill="#273839" transform="scale(.26458333)"/><path d="m99.262876 30.5582-3.076329 8.511175 4.511943 3.076329z" fill="#273839" fill-opacity=".5"/><path d="m102.85193 36.300679h3.28141v5.127215z" fill="#273839" fill-opacity=".5"/><path d="m91.572052 13.946024.820357 11.895138s4.306858-8.921354 3.896683-9.023898c-.410179-.102544-4.71704-2.87124-4.71704-2.87124z" fill="#273839" fill-opacity=".5"/><path d="m112.90127 54.24593 4.20431 3.076329-3.69159 19.996139-3.07633-19.278327z" fill="#273839" fill-opacity=".5"/><path d="m97.21199 77.831118 3.07633 8.921353 1.33307-7.998454z" fill="#273839" fill-opacity=".5"/><path d="m98.545067 94.135661 7.075553 5.74248 4.20432-4.922126z" fill="#273839" fill-opacity=".5"/><path d="m83.983776 92.494951-1.640708 7.38319 3.896683 1.435619z" fill="#273839" fill-opacity=".5"/><path d="m74.139525 98.134888 1.948341 10.049342 5.639935 1.64071-6.767923-13.433304z" fill="#273839" fill-opacity=".5"/><path d="m114.27539 35.747315-3.11792 7.831054 6.74341-1.740236 2.03027-8.846189z" fill="#273839"/><path d="m112.46264 28.496336 2.03028 2.320314 4.35059-3.480469-2.68287-3.262939z" fill="#273839"/><path d="m109.05469 23.493-2.1753 4.35075h2.03028l2.90039-4.35075z" fill="#273839"/><path d="m106.44433 16.024658-19.432612 17.547363 17.402342-5.583251 1.66773-4.133057-2.1753.07251z" fill="#273839"/></g></svg>