<?xml version="1.0" encoding="UTF-8" standalone="no"?>
<!-- Created with Inkscape (http://www.inkscape.org/) -->

<svg
   width="512"
   height="512"
   viewBox="0 0 135.46666 135.46667"
   version="1.1"
   id="svg5"
   inkscape:version="1.1.1 (3bf5ae0d25, 2021-09-20)"
   sodipodi:docname="Flashback.svg"
   xmlns:inkscape="http://www.inkscape.org/namespaces/inkscape"
   xmlns:sodipodi="http://sodipodi.sourceforge.net/DTD/sodipodi-0.dtd"
   xmlns:xlink="http://www.w3.org/1999/xlink"
   xmlns="http://www.w3.org/2000/svg"
   xmlns:svg="http://www.w3.org/2000/svg">
  <sodipodi:namedview
     id="namedview7"
     pagecolor="#ffffff"
     bordercolor="#666666"
     borderopacity="1.0"
     inkscape:pageshadow="2"
     inkscape:pageopacity="0.0"
     inkscape:pagecheckerboard="0"
     inkscape:document-units="mm"
     showgrid="false"
     units="px"
     width="512px"
     inkscape:zoom="0.45611672"
     inkscape:cx="75.638533"
     inkscape:cy="134.83391"
     inkscape:window-width="1366"
     inkscape:window-height="697"
     inkscape:window-x="-8"
     inkscape:window-y="-8"
     inkscape:window-maximized="1"
     inkscape:current-layer="layer1"
     inkscape:snap-others="false"
     inkscape:object-nodes="false" />
  <defs
     id="defs2">
    <linearGradient
       inkscape:collect="always"
       id="linearGradient28811">
      <stop
         style="stop-color:#273839;stop-opacity:0.5"
         offset="0"
         id="stop28807" />
      <stop
         style="stop-color:#273839;stop-opacity:0;"
         offset="1"
         id="stop28809" />
    </linearGradient>
    <linearGradient
       inkscape:collect="always"
       id="linearGradient28530">
      <stop
         style="stop-color:#273839;stop-opacity:0.5"
         offset="0"
         id="stop28526" />
      <stop
         style="stop-color:#273839;stop-opacity:0"
         offset="1"
         id="stop28528" />
    </linearGradient>
    <linearGradient
       inkscape:collect="always"
       xlink:href="#linearGradient28530"
       id="linearGradient28532"
       x1="83.717743"
       y1="42.37035"
       x2="75.733116"
       y2="61.385284"
       gradientUnits="userSpaceOnUse" />
    <linearGradient
       inkscape:collect="always"
       xlink:href="#linearGradient28811"
       id="linearGradient28813"
       x1="74.550674"
       y1="47.283394"
       x2="67.292999"
       y2="58.050545"
       gradientUnits="userSpaceOnUse" />
  </defs>
  <g
     inkscape:label="Layer 1"
     inkscape:groupmode="layer"
     id="layer1">
    <g
       id="g30352"
       transform="matrix(1.2058451,0,0,1.2058451,-13.837763,-9.7232879)">
      <path
         id="path21658-4"
         style="fill:url(#linearGradient28532);fill-opacity:1;stroke:none;stroke-width:0.219087px;stroke-linecap:butt;stroke-linejoin:miter;stroke-opacity:1"
         d="m 96.290003,57.965204 -0.270421,-1.590952 c -1.105467,1.802246 -2.441503,3.212016 -4.112606,4.052687 -0.09983,-0.786721 -0.07407,-1.534351 0.7206,-2.041534 l 0.420198,-2.431784 c 0.0028,-0.878396 -1.013177,-1.978267 -1.771094,-2.791652 -0.67485,-1.157954 -1.302008,-2.310877 -0.480543,-3.302571 0.469809,-0.667465 -0.170357,-1.225593 -0.810455,-1.560998 -3.802003,-2.399599 -5.204231,-6.055897 -6.694575,-9.666372 -0.270092,-0.505027 -0.07702,-1.108186 -1.170747,-1.59138 -0.982439,-0.303149 -2.015259,-0.547323 -2.671834,-1.230653 -0.25334,0.937076 -0.679603,1.739818 -1.441181,2.281589 -0.06769,-2.024539 1.82582,-6.848575 0.180141,-6.66462 0.412924,0.887119 0.439223,1.805688 -2.551591,2.9718 l -2.581979,8.466099 c -0.349404,1.739986 -3.135605,2.226923 -3.812635,0 l -3.182329,-8.555962 c -1.660619,-0.872992 -3.6849,-1.690173 -1.320942,-3.18233 -2.400318,-0.02743 -1.731387,2.575866 -0.240054,5.884122 0.690314,1.353075 -0.663601,1.21396 -0.960649,0.660685 l -1.050506,-1.29099 c -2.211757,0.04026 -1.73178,-1.14057 -4.833615,-0.150192 -0.604586,0.329817 -1.085386,0.226432 -1.531042,0 -1.93508,-0.355354 -2.145256,0.608107 -2.101443,1.290987 0.183549,1.192923 -0.226553,1.937085 -1.681238,1.891341 -0.820522,-0.0049 -1.890309,0.805947 -1.200702,2.10144 0.657639,1.138956 0.08396,2.101698 -0.930693,3.001754 -0.734926,0.57962 -1.411322,0.821388 -0.630304,2.28159 0.675782,1.061787 -0.954654,3.084308 1.410803,3.272616 1.106764,-0.0089 3.442182,0.860279 0.330342,1.590951 -0.459622,2.641823 -0.980694,5.283403 -2.461737,7.925229 -2.252482,1.394994 -1.318988,4.076413 -1.620904,6.664618 -0.08966,1.987534 0.382845,4.308312 -1.020981,5.824213 -1.419715,0.446667 -0.826286,2.510291 0.09028,3.152377 0.75123,-0.0967 1.609273,-0.589291 1.590951,2.161352 -0.367891,3.097185 0.09649,5.332288 2.881942,5.163528 0.332466,-0.171925 0.60407,-0.567755 1.261034,0.450147 0.909531,2.15773 1.280078,1.920392 1.170747,-0.450147 0.0877,-0.960667 -0.329898,-1.921276 0.360298,-2.881943 0.476584,-0.700596 0.755108,-1.455175 0,-2.491694 L 52.18969,74.116473 c -0.684404,-0.415026 -0.774753,-1.162218 -0.150196,-1.591382 1.104359,-0.645318 1.527927,-2.501848 0.210102,-2.821607 -0.258312,-3.505233 2.189805,-5.466255 2.011153,-10.237195 0.394648,-1.62675 1.64117,-3.302288 2.461737,-4.95343 0.533145,-1.165014 0.887146,-0.434753 1.261036,0.02995 0.613979,1.880172 0.795651,5.09769 2.725756,7.359963 l 0.891325,8.06644 c 0.162958,1.585439 -0.491256,1.536361 -1.443323,0.891755 -6.077097,-1.686505 -5.356091,5.947506 -1.740718,6.537956 0.836779,0.07568 1.825485,-0.114861 0.848964,1.825876 -1.552661,-0.08186 -1.088906,0.822398 -0.212242,1.188716 L 71.96019,87.248869 C 80.574586,77.929818 98.191986,70.512514 96.290003,57.965204 Z M 70.803135,45.098096 c 3.202086,1.3e-4 5.79779,2.596026 5.797685,5.798111 -1.31e-4,3.20192 -2.595766,5.797555 -5.797685,5.797684 -3.202086,1.08e-4 -5.797984,-2.595597 -5.798114,-5.797684 -1.06e-4,-3.202253 2.59586,-5.798218 5.798114,-5.798111 z m 13.298428,10.855521 h 0.600357 c 0.392806,1.340585 1.204327,2.419872 2.041528,3.482717 l 0.72059,4.983383 c 0.121669,0.769316 0.06903,1.418081 -0.54045,1.681237 l -5.404003,2.881939 c -0.950265,0.14251 -0.74725,-0.382813 -0.660255,-0.840832 l 1.501088,-7.384783 c 1.642303,-2.360471 0.760902,-2.897949 1.741145,-4.803661 z"
         sodipodi:nodetypes="cccccccccccccccccccccccccccccccccccccccccccccccccccccccccccccccccccc" />
      <path
         style="fill:#273839;fill-opacity:0.5;stroke:none;stroke-width:0.225501px;stroke-linecap:butt;stroke-linejoin:miter;stroke-opacity:1"
         d="m 64.201581,21.980212 c -1.739724,0.473462 -0.970419,6.392664 0,6.292596 1.363911,-0.639037 1.815361,2.48583 2.578214,4.326157 2.650853,4.451431 5.621281,5.416573 9.176701,0 0.756244,-1.228353 1.371438,-3.020907 2.053835,-4.54465 2.692913,0.277772 1.856302,-7.200247 0,-6.860677 1.272286,-2.629902 -0.251982,-4.032247 -1.223561,-4.413555 l -2.709312,-0.873972 c -0.950872,-0.578471 -0.550016,-0.931652 -0.0437,-1.267258 l 1.005066,-0.30589 c -2.903876,-0.650811 -5.767673,-1.001022 -8.346428,0.786575 h 1.092464 c 0.820735,0.364154 0.865524,0.728308 -0.0437,1.092463 -2.353098,1.001442 -3.250178,2.817832 -3.189996,3.845476 0.396826,1.239827 0.242066,1.836136 -0.349589,1.922735 z"
         id="path16914-6"
         sodipodi:nodetypes="ccccccccccccccc" />
      <path
         style="fill:#273839;fill-opacity:0.5;stroke:none;stroke-width:0.225501px;stroke-linecap:butt;stroke-linejoin:miter;stroke-opacity:1"
         d="m 67.457124,12.23543 c -0.796962,1.080383 -1.264891,1.897539 0.240343,1.136164 z"
         id="path18253-3"
         sodipodi:nodetypes="ccc" />
      <path
         style="fill:#273839;fill-opacity:0.5;stroke:none;stroke-width:0.225501px;stroke-linecap:butt;stroke-linejoin:miter;stroke-opacity:1"
         d="m 69.000603,12.76674 c -0.0309,-0.984543 0.217878,-1.821025 1.575877,-2.07027 -0.198692,1.234424 -0.637723,2.068282 -1.575877,2.07027 z"
         id="path18345-9"
         sodipodi:nodetypes="ccc" />
      <path
         style="fill:#273839;fill-opacity:0.5;stroke:none;stroke-width:0.225501px;stroke-linecap:butt;stroke-linejoin:miter;stroke-opacity:1"
         d="m 71.812461,12.334146 h 1.514079 c 0.183057,-0.987966 1.53435,-1.099755 2.317468,-1.637676 -1.558638,0.05974 -3.153871,0.05627 -3.831547,1.637676 z"
         id="path18570-1"
         sodipodi:nodetypes="cccc" />
      <path
         style="fill:#273839;fill-opacity:0.5;stroke:none;stroke-width:0.225501px;stroke-linecap:butt;stroke-linejoin:miter;stroke-opacity:1"
         d="m 75.038826,13.284197 0.96137,0.786574 c 3.564094,0.220547 3.702402,3.208073 4.369858,5.768211 0.129108,-7.691683 -2.348245,-7.853587 -5.331228,-6.554785 z"
         id="path18814-0"
         sodipodi:nodetypes="cccc" />
      <path
         style="fill:#273839;fill-opacity:0.5;stroke:none;stroke-width:0.225501px;stroke-linecap:butt;stroke-linejoin:miter;stroke-opacity:1"
         d="m 81.812107,19.970079 c 1.402434,1.892528 2.448194,3.977111 4.850542,5.331225 1.709687,0.866092 0.255507,2.149471 -0.917672,0.961368 -2.117591,-1.946287 -3.117485,-4.102142 -3.93287,-6.292593 z"
         id="path19048-2"
         sodipodi:nodetypes="cccc" />
      <path
         style="fill:#273839;fill-opacity:0.5;stroke:none;stroke-width:0.225501px;stroke-linecap:butt;stroke-linejoin:miter;stroke-opacity:1"
         d="m 81.244025,27.879521 c 0.495918,2.145863 0.509057,4.452652 1.791641,6.336293 1.542731,1.833712 -0.453051,2.409145 -1.136162,1.092464 -1.20163,-2.476252 -0.785061,-4.952505 -0.655479,-7.428757 z"
         id="path19434-6"
         sodipodi:nodetypes="cccc" />
      <path
         style="fill:#273839;fill-opacity:0.5;stroke:none;stroke-width:0.225501px;stroke-linecap:butt;stroke-linejoin:miter;stroke-opacity:1"
         d="m 81.287723,22.635691 3.189996,10.138069 c 0.658787,2.429188 1.955405,2.128066 1.529451,0 -1.160214,-3.461943 -3.006439,-6.786684 -4.719447,-10.138069 z"
         id="path19436-5"
         sodipodi:nodetypes="cccc" />
      <path
         id="path20701-4"
         style="fill:#273839;fill-opacity:0.5;stroke:none;stroke-width:0.225501px;stroke-linecap:butt;stroke-linejoin:miter;stroke-opacity:1"
         d="m 86.795677,35.58924 c -2.035767,0.01085 -2.239274,4.694106 0.37789,7.794757 3.82142,4.846888 8.63915,4.357637 3.80093,-3.738823 -1.75304,-2.952096 -3.18461,-4.061231 -4.17882,-4.055934 z m 0.86588,2.061218 c 0.47026,0.02776 1.24623,0.625181 2.44749,2.210966 3.14016,3.854068 1.97708,6.712709 -0.92711,3.584231 l -0.0617,-2.966304 -1.23585,0.988767 c -0.73445,-0.754713 -1.33661,-3.883402 -0.22287,-3.81766 z" />
      <path
         style="fill:#273839;fill-opacity:1;stroke:none;stroke-width:0.264583px;stroke-linecap:butt;stroke-linejoin:miter;stroke-opacity:1"
         d="m 37.838845,38.146476 c -2.041242,0.555519 -1.138606,7.500601 0,7.38319 1.600296,-0.749791 2.129988,2.916659 3.025055,5.075941 3.110282,5.222925 6.595527,6.35534 10.76715,0 0.887312,-1.441244 1.609128,-3.544473 2.409794,-5.332301 3.159632,0.325913 2.178025,-8.44815 0,-8.049728 1.492791,-3.085701 -0.295654,-4.731092 -1.435622,-5.178486 l -3.178873,-1.025443 c -1.115671,-0.678728 -0.645341,-1.093121 -0.05127,-1.486892 l 1.179258,-0.358905 c -3.407158,-0.763605 -6.767291,-1.174513 -9.79298,0.922899 h 1.281803 c 0.96298,0.427268 1.015531,0.854535 -0.05127,1.281803 -2.760923,1.175005 -3.81348,3.306201 -3.742867,4.51195 0.465601,1.454706 0.284019,2.154364 -0.410178,2.255972 z"
         id="path16914"
         sodipodi:nodetypes="ccccccccccccccc" />
      <path
         style="fill:#273839;fill-opacity:1;stroke:none;stroke-width:0.264583px;stroke-linecap:butt;stroke-linejoin:miter;stroke-opacity:1"
         d="m 41.658619,26.712788 c -0.935086,1.267628 -1.484114,2.226408 0.281998,1.333077 z"
         id="path18253"
         sodipodi:nodetypes="ccc" />
      <path
         style="fill:#273839;fill-opacity:1;stroke:none;stroke-width:0.264583px;stroke-linecap:butt;stroke-linejoin:miter;stroke-opacity:1"
         d="m 43.469604,27.336181 c -0.03625,-1.155178 0.25564,-2.136634 1.848999,-2.429077 -0.233128,1.448367 -0.74825,2.426744 -1.848999,2.429077 z"
         id="path18345"
         sodipodi:nodetypes="ccc" />
      <path
         style="fill:#273839;fill-opacity:1;stroke:none;stroke-width:0.264583px;stroke-linecap:butt;stroke-linejoin:miter;stroke-opacity:1"
         d="m 46.768797,26.828612 h 1.776489 c 0.214784,-1.159194 1.800275,-1.290358 2.719118,-1.921508 -1.828772,0.07009 -3.700481,0.06602 -4.495607,1.921508 z"
         id="path18570"
         sodipodi:nodetypes="cccc" />
      <path
         style="fill:#273839;fill-opacity:1;stroke:none;stroke-width:0.264583px;stroke-linecap:butt;stroke-linejoin:miter;stroke-opacity:1"
         d="m 50.554336,27.94332 1.127988,0.922899 c 4.181801,0.25877 4.34408,3.764076 5.127215,6.767922 0.151485,-9.024759 -2.755228,-9.214723 -6.255203,-7.690821 z"
         id="path18814"
         sodipodi:nodetypes="cccc" />
      <path
         style="fill:#273839;fill-opacity:1;stroke:none;stroke-width:0.264583px;stroke-linecap:butt;stroke-linejoin:miter;stroke-opacity:1"
         d="m 58.50152,35.787959 c 1.645496,2.220529 2.872501,4.6664 5.691209,6.2552 2.005996,1.016198 0.299793,2.522005 -1.076717,1.127987 -2.4846,-2.283606 -3.657789,-4.813101 -4.614492,-7.383187 z"
         id="path19048"
         sodipodi:nodetypes="cccc" />
      <path
         style="fill:#273839;fill-opacity:1;stroke:none;stroke-width:0.264583px;stroke-linecap:butt;stroke-linejoin:miter;stroke-opacity:1"
         d="m 57.834982,45.068217 c 0.581867,2.517771 0.597283,5.224359 2.102157,7.434461 1.810108,2.15152 -0.531571,2.826683 -1.333074,1.281803 -1.40989,-2.905421 -0.921123,-5.810843 -0.769083,-8.716264 z"
         id="path19434"
         sodipodi:nodetypes="cccc" />
      <path
         style="fill:#273839;fill-opacity:1;stroke:none;stroke-width:0.264583px;stroke-linecap:butt;stroke-linejoin:miter;stroke-opacity:1"
         d="m 57.886253,38.915559 3.742867,11.895137 c 0.772964,2.8502 2.294304,2.49689 1.794526,0 -1.361295,-4.061946 -3.527497,-7.962911 -5.537393,-11.895137 z"
         id="path19436"
         sodipodi:nodetypes="cccc" />
      <circle
         style="fill:#273839;fill-opacity:1;stroke:none;stroke-width:0.5062;stroke-linejoin:round;stroke-opacity:1"
         id="path20048"
         cx="46.401291"
         cy="73.267899"
         r="4.2670717" />
      <circle
         style="fill:url(#linearGradient28813);fill-opacity:1;stroke:none;stroke-width:0.475788;stroke-linejoin:round;stroke-opacity:1"
         id="path20048-8"
         r="4.0107112"
         cy="50.257179"
         cx="71.280739" />
      <path
         id="path20701"
         style="fill:#273839;fill-opacity:1;stroke:none;stroke-width:0.999999px;stroke-linecap:butt;stroke-linejoin:miter;stroke-opacity:1"
         d="m 247.30078,210.4375 c -9.02776,0.0481 -9.93023,20.81635 1.67578,34.56641 16.94635,21.49388 38.31092,19.32426 16.85547,-16.58008 -7.77396,-13.09128 -14.12234,-18.00982 -18.53125,-17.98633 z m 3.83984,9.14062 c 2.08536,0.1231 5.52644,2.77241 10.85352,9.80469 13.92526,17.09114 8.76749,29.76799 -4.11133,15.89453 l -0.27343,-13.15429 -5.48047,4.38476 c -3.25697,-3.34683 -5.92728,-17.22123 -0.98829,-16.92969 z"
         transform="scale(0.26458333)" />
      <path
         id="path21658"
         style="fill:#273839;fill-opacity:1;stroke:none;stroke-width:0.999999px;stroke-linecap:butt;stroke-linejoin:miter;stroke-opacity:1"
         d="m 410.53125,180.875 c -24.52161,42.5831 -59.25438,85.9512 -112.22461,130.72266 -4.76224,3.99125 -7.07596,5.37193 -7.81055,-0.13672 l -1.23437,-7.26172 c -5.04579,8.22616 -11.14392,14.6609 -18.77149,18.49805 -0.45569,-3.5909 -0.33818,-7.00338 3.28907,-9.31836 l 1.91797,-11.09961 c 0.01,-4.00934 -4.62456,-9.02958 -8.08399,-12.74219 -3.08029,-5.28535 -5.94286,-10.54774 -2.19336,-15.07422 2.14439,-3.04657 -0.77759,-5.59408 -3.69922,-7.125 -17.35383,-10.95271 -23.75415,-27.64148 -30.55664,-44.12109 -1.23283,-2.30514 -0.35149,-5.0582 -5.34375,-7.26368 -4.48424,-1.38369 -9.19845,-2.4982 -12.19531,-5.61718 -1.15634,4.27718 -3.10196,7.9412 -6.57812,10.41406 -0.30894,-9.24079 8.33374,-31.25957 0.82226,-30.41992 1.88473,4.04915 2.00477,8.24186 -11.64648,13.56445 l -11.78516,38.64258 c -1.59481,7.94197 -14.31211,10.16454 -17.40234,0 l -14.52539,-39.05273 c -7.57971,-3.98468 -16.81932,-7.71461 -6.0293,-14.5254 -10.95598,-0.12525 -7.90272,11.75726 -1.0957,26.85743 3.15087,6.17596 -3.02893,5.54098 -4.38477,3.01562 l -4.79492,-5.89258 c -10.09532,0.18376 -7.90452,-5.20601 -22.0625,-0.68554 -2.75957,1.50542 -4.95413,1.03353 -6.98828,0 -8.832452,-1.62197 -9.791782,2.77564 -9.5918,5.89257 0.837789,5.44497 -1.034075,8.84161 -7.673828,8.63282 -3.745183,-0.0227 -8.628105,3.67866 -5.480469,9.59179 3.00172,5.19864 0.383228,9.59297 -4.248047,13.70118 -3.354489,2.64561 -6.441822,3.74913 -2.876953,10.41406 3.084529,4.84641 -4.35741,14.07799 6.439453,14.9375 5.051705,-0.0408 15.711463,3.92665 1.507813,7.26172 -2.097895,12.05831 -4.476273,24.11551 -11.236328,36.17383 -10.281207,6.3673 -6.020381,18.60634 -7.398438,30.41992 -0.409228,9.07188 1.747451,19.6648 -4.660156,26.58398 -6.480132,2.03878 -3.771488,11.45795 0.412109,14.38867 3.428901,-0.44133 7.345341,-2.68975 7.261719,9.86524 -1.679203,14.13679 0.440442,24.33866 13.154297,23.56836 1.517507,-0.78471 2.75722,-2.59145 5.755859,2.05468 4.151452,9.8487 5.842769,8.76539 5.34375,-2.05468 0.400271,-4.38486 -1.505791,-8.76944 1.644531,-13.1543 2.175319,-3.19778 3.446608,-6.64199 0,-11.37305 l -6.302734,-13.97656 c -3.123885,-1.89434 -3.536271,-5.30482 -0.685547,-7.26367 5.040726,-2.94545 6.974046,-11.4194 0.958985,-12.87891 -1.179035,-15.99926 9.995124,-24.95013 9.179687,-46.72656 1.801327,-7.42512 7.490937,-15.07293 11.236327,-22.60938 2.43348,-5.31759 4.04928,-1.98439 5.75586,0.13672 2.80244,8.58184 3.63166,23.26785 12.44141,33.59375 l 4.06836,36.81836 c 0.7438,7.23656 -2.24229,7.01258 -6.58789,4.07032 -27.738241,-7.69785 -24.44729,27.14676 -7.94532,29.84179 3.81939,0.34545 8.33223,-0.52428 3.875,8.33399 -7.08694,-0.37342 -4.97019,3.75375 -0.96875,5.42578 l 58.91211,31.19922 C 333.55466,344.30438 404.2901,259.03001 436.83984,180.875 Z m -236.36719,71.85547 a 26.463967,26.463967 0 0 1 26.46289,26.46484 26.463967,26.463967 0 0 1 -26.46289,26.46289 26.463967,26.463967 0 0 1 -26.46484,-26.46289 26.463967,26.463967 0 0 1 26.46484,-26.46484 z m 60.69922,49.54883 h 2.74024 c 1.79296,6.11895 5.49704,11.04524 9.31836,15.89648 l 3.28906,22.7461 c 0.55533,3.51146 0.315,6.47267 -2.4668,7.67382 L 223.07812,361.75 c -4.33738,0.65045 -3.41075,-1.74733 -3.01367,-3.83789 l 6.85157,-33.70703 c 7.49612,-10.77411 3.47305,-13.22737 7.94726,-21.92578 z"
         transform="scale(0.26458333)" />
      <path
         style="fill:#273839;fill-opacity:0.5;stroke:none;stroke-width:0.264583px;stroke-linecap:butt;stroke-linejoin:miter;stroke-opacity:1"
         d="m 99.262876,30.5582 -3.076329,8.511175 4.511943,3.076329 z"
         id="path29227" />
      <path
         style="fill:#273839;fill-opacity:0.5;stroke:none;stroke-width:0.264583px;stroke-linecap:butt;stroke-linejoin:miter;stroke-opacity:1"
         d="m 102.85193,36.300679 h 3.28141 v 5.127215 z"
         id="path29229" />
      <path
         style="fill:#273839;fill-opacity:0.5;stroke:none;stroke-width:0.264583px;stroke-linecap:butt;stroke-linejoin:miter;stroke-opacity:1"
         d="m 91.572052,13.946024 0.820357,11.895138 c 0,0 4.306858,-8.921354 3.896683,-9.023898 -0.410179,-0.102544 -4.71704,-2.87124 -4.71704,-2.87124 z"
         id="path29231" />
      <path
         style="fill:#273839;fill-opacity:0.5;stroke:none;stroke-width:0.264583px;stroke-linecap:butt;stroke-linejoin:miter;stroke-opacity:1"
         d="m 112.90127,54.24593 4.20431,3.076329 -3.69159,19.996139 -3.07633,-19.278327 z"
         id="path29233" />
      <path
         style="fill:#273839;fill-opacity:0.5;stroke:none;stroke-width:0.264583px;stroke-linecap:butt;stroke-linejoin:miter;stroke-opacity:1"
         d="m 97.21199,77.831118 3.07633,8.921353 1.33307,-7.998454 z"
         id="path29235" />
      <path
         style="fill:#273839;fill-opacity:0.5;stroke:none;stroke-width:0.264583px;stroke-linecap:butt;stroke-linejoin:miter;stroke-opacity:1"
         d="m 98.545067,94.135661 7.075553,5.74248 4.20432,-4.922126 z"
         id="path29237" />
      <path
         style="fill:#273839;fill-opacity:0.5;stroke:none;stroke-width:0.264583px;stroke-linecap:butt;stroke-linejoin:miter;stroke-opacity:1"
         d="m 83.983776,92.494951 -1.640708,7.38319 3.896683,1.435619 z"
         id="path29239" />
      <path
         style="fill:#273839;fill-opacity:0.5;stroke:none;stroke-width:0.264583px;stroke-linecap:butt;stroke-linejoin:miter;stroke-opacity:1"
         d="m 74.139525,98.134888 1.948341,10.049342 5.639935,1.64071 -6.767923,-13.433304 z"
         id="path29241" />
      <path
         style="fill:#273839;fill-opacity:1;stroke:none;stroke-width:0.264583px;stroke-linecap:butt;stroke-linejoin:miter;stroke-opacity:1"
         d="m 114.27539,35.747315 -3.11792,7.831054 6.74341,-1.740236 2.03027,-8.846189 z"
         id="path29392"
         sodipodi:nodetypes="ccccc" />
      <path
         style="fill:#273839;fill-opacity:1;stroke:none;stroke-width:0.264583px;stroke-linecap:butt;stroke-linejoin:miter;stroke-opacity:1"
         d="m 112.46264,28.496336 2.03028,2.320314 4.35059,-3.480469 -2.68287,-3.262939 z"
         id="path29522" />
      <path
         style="fill:#273839;fill-opacity:1;stroke:none;stroke-width:0.264583px;stroke-linecap:butt;stroke-linejoin:miter;stroke-opacity:1"
         d="m 109.05469,23.493 -2.1753,4.35075 h 2.03028 l 2.90039,-4.35075 z"
         id="path29524"
         sodipodi:nodetypes="ccccc" />
      <path
         style="fill:#273839;fill-opacity:1;stroke:none;stroke-width:0.264583px;stroke-linecap:butt;stroke-linejoin:miter;stroke-opacity:1"
         d="m 106.44433,16.024658 -19.432612,17.547363 17.402342,-5.583251 1.66773,-4.133057 -2.1753,0.07251 z"
         id="path29616" />
    </g>
  </g>
</svg>
