<svg height="512" viewBox="0 0 135.46666 135.46667" width="512" xmlns="http://www.w3.org/2000/svg"><g fill="#273839" transform="matrix(1.0634434 0 0 1.0634434 -43.93462 -91.344658)"><path d="m359.46484 395.45508c-2.72801.003-5.08977.62501-6.63672 2.3164l-85.96874 88.60352c-3.39816 4.0614-3.15136 5.19756-2.01368 11.73633l17.75 63.01367c.87594 2.72077 1.86911 2.94233 3.7168 5.17773 21.49104 25.30458 44.00592 50.39234 73.79297 72.24024l46.58789 12.05859c9.74982 3.14759 11.85371.34701 15.34766-1.37109 34.87721-25.53793 69.51419-51.2781 95.0957-84.68164 2.65693-3.74105 5.92016-7.75012 4.38476-15.6211l-30.41992-111.53906c-1.91527-6.51129-3.04922-10.09282-13.42773-12.60742l-111.38867-28.42187c-2.35445-.53503-4.69853-.90678-6.82032-.9043zm10.37891 10.59375c3.12189-.0102 6.8215.97065 8.07422 1.19336l59.74414 14.79883c13.57682 3.46257 10.36901 8.78746-5.20703 9.86523l-44.66992 3.28906c-5.97623.15957-12.4279 2.57781-16.44336-6.57617l-5.48242-16.16992c-2.21228-4.80401.13554-6.22462 3.36914-6.38477.20209-.01.4071-.0149.61523-.0156zm-29.41211 17.25586c2.27618-.0563 4.16973 1.9693 5.42188 7.50586l1.64453 6.30273c1.90727 11.74084-1.14177 14.39631-9.5918 18.08789l-37.81836 19.52735c-9.11459 4.14931-18.92958 4.64058-6.16601-8.42774l37.68164-36.85937c3.17843-3.33396 6.24845-6.07296 8.82812-6.13672zm28.92188 19.4707a15.784126 15.921152 0 0 1 15.78515 15.91992 15.784126 15.921152 0 0 1 -15.78515 15.92188 15.784126 15.921152 0 0 1 -15.78321-15.92188 15.784126 15.921152 0 0 1 15.78321-15.91992zm94.83789 8.99414c9.58872.48941 12.30485 6.56362 9.41797 17.18945l-7.75196 32.16797c-4.01272 14.71578-11.23325 17.05607-22.47851 3.875l-33.52539-34.6875c-11.77641-13.33107 5.14798-14.43151 14.53515-15.50195l35.26758-2.90625c1.654-.16098 3.16534-.20663 4.53516-.13672zm29.12304 20.70899c2.5146.1101 5.09483 4.37944 5.67969 7.71875l11.24024 48.05859c3.90541 17.60084-1.03281 16.35235-6.78321 13.37109l-15.30859-9.10742c-6.09695-4.54998-8.87632-7.44022-6.58789-17.43945l7.75195-37.20703c1.01483-4.02845 2.49906-5.4606 4.00781-5.39453zm-160.36523 8.74414c.10188-.00062.20085.00082.29883.004 6.07479.19112 4.75158 7.58404 3.54883 14.86133l-20.15235 59.29883c-5.40604 13.70506-11.26669 18.3384-18.2168 1.16211l-10.85156-33.33008c-4.91847-15.83528-.85406-19.65504 7.75195-24.80469l27.51758-13.95312c4.3722-2.15611 7.53385-3.13373 9.79102-3.23047.1058-.005.21061-.007.3125-.008zm43.60156 8.28515c.11915-.00034.23934.001.35938.006 3.84113.15184 8.13353 2.88243 12.5957 6.57422l34.49414 32.5565c16.22978 14.44668 15.73953 23.8414-6.97656 30.61719l-47.28321 15.5039c-16.21845 4.40149-26.84185 2.39458-20.54101-18.99218l17.82812-57.35938c2.56941-6.41756 5.82996-8.89563 9.52344-8.90625zm87.07813 39.51563a13.120294 14.559071 0 0 1 13.11914 14.56054 13.120294 14.559071 0 0 1 -13.11914 14.5586 13.120294 14.559071 0 0 1 -13.1211-14.5586 13.120294 14.559071 0 0 1 13.1211-14.56054zm22.08789 29.16211c.50611.001 1.02253.0208 1.54882.0605l13.42774 1.64258c8.86061.6802 10.2976 3.69925 5.20703 8.77149l-35.62695 37.26953c-10.03431 10.3096-15.56285 12.60524-10.41211-4.10938l9.86523-30.41992c2.84687-8.26084 7.69344-12.62452 14.50196-13.16016.48632-.0383.98216-.0558 1.48828-.0547zm-44.61133 15.75c.10261.00027.20434.003.30469.006 5.35152.16645 7.75734 4.20041 5.84375 13.90234l-8.4961 35.35156c-4.26739 18.47978-10.8436 16.93554-26.85742 12.33203l-37.54492-12.33203c-16.53025-8.16211-12.8259-15.61401 0-22.74609l54.53711-23.01953c4.72133-2.15219 8.769-3.42213 11.90234-3.49024.10445-.002.20794-.004.31055-.004zm-115.38086 6.58007c3.44927.0188 7.46601 1.37534 11.63477 4.58594 22.73551 16.65906.2102 33.37652-16.16993 17.54102-11.05704-10.18709-5.81265-22.18339 4.53516-22.12696z" transform="scale(.26458333)"/><g fill-opacity=".5"><path d="m108.4021 176.77881 9.28125 5.00317 2.9729-2.75537c-2.25576-.0846-3.03377-1.26498-.87012-2.46533 12.70125-7.29784 24.10148-16.57525 32.41187-25.45093-11.38467 7.83011-22.72 15.73422-35.16724 21.97046 16.37884-11.30108 33.99389-24.74111 45.82617-37.05249-2.90687 1.09358-11.66578 6.86546-5.36572-.94263 5.38604-6.44896 8.86797-11.5653 8.12109-26.7561-.82522 2.46326-1.74705 4.86857-3.91552 6.52588.64093-5.41154-.76175-10.24832-4.49561-14.42945.62948 2.3844 1.55663 5.19779-2.32031 1.08765l-4.71314-4.568115c12.49329 30.019495-6.41532 55.987125-41.76562 79.833255z"/><path d="m152.17573 154.84188-5.94757 6.56284c3.22852 7.24587 5.82863 14.5159 1.64071 22.04702 4.12821-1.46102 8.06268-3.23687 10.66461-7.1781-2.05008 1.33348-3.03557.67012-.82036-1.74325 2.54468-2.72796 4.76901-5.30642 3.28142-6.15266-5.38168 1.34769-7.16288-.76663-5.43485-6.2552z"/><path d="m60.808766 148.86868 4.486312 6.74229c-4.075015 7.74032-11.221921 16.99627-6.997226 34.21959-.807654-1.7242-2.587694-5.63689-1.667725-.72509l1.232665 4.4956c-2.646413-.041-1.918344 1.40276-1.232665 2.82788l2.972898 5.80078c-6.250828-4.91725-10.75105-11.40084-11.81909-20.95532l-2.247802 8.33862c-.962193-8.00871-.974961-16.35824 8.556151-28.13378 1.095567-1.2886 3.539126-3.95586-.435057-3.19043-1.716065.29494-3.432129 1.7672-5.148194 2.9729 4.021279-4.36691 8.086446-8.60215 12.299733-12.39304z"/><path d="m59.167968 180.83935c.838622 6.02462 2.068133 12.07095 16.532225 18.85254 2.764236 1.07117 4.158712.27449 3.915529-2.75537-.07709-5.43031 5.807837-4.173 9.28125-4.06055l13.196778-4.20556-6.960938-5.80078c-8.685967 3.91227-29.278447 10.31063-35.964844-2.03028z"/><path d="m61.321486 112.69618c-4.86157 3.92348-9.366062 8.40808-10.459516 18.25288-.206172 2.44251-.458567 4.94019 2.255972 3.89669 4.783506-1.24917 6.3425 2.01476 6.665381 7.69082 5.588417 8.84738 10.986519 17.75819 18.252884 26.04625.619206.82435 2.440938 1.89203 1.948342-.0256-.882415-3.23266 2.124921-.3853 3.101964.46145 8.596602 8.47702 18.195677 15.95157 27.866407 23.35446 1.97711 1.59728 3.47437.9206.9229-1.23053-8.14046-5.35934-23.03206-20.22587-26.558967-26.45643 13.523776 12.73469 27.883757 24.78521 44.401677 35.07015l-2.87124-3.89668c-2.75772-3.51273-.4244-3.03943 2.56361-1.53817 9.48039 4.67416 18.85138 7.26977 27.7895 1.64071-3.15123-.38182-4.55943-2.56234-1.35871-4.76831 4.69431-2.55409 5.80103-6.53477 7.92155-10.10061-2.09656 2.08478-4.39967 3.54989-6.76793 4.81958-2.49124 1.34017-4.81651 1.78555-1.33307-1.43562l2.76869-2.56361c-38.06114 23.49778-81.408316-26.04871-90.238974-36.60831-8.521054-10.13921-13.730261-24.82835-6.87047-32.60912z"/><path d="m90.546609 103.15956-6.460288 6.97301c-10.083522-2.71448-20.167045-.69166-30.250567 4.10177.237762-5.44628-6.678992-.0903-9.53662 2.15343.957838-3.33885 2.736982-6.78368 7.89591-10.66461 6.86408-1.16516 4.580962-4.55931 1.025443-5.3323 9.275001-5.422744 23.098861-.432525 27.994594 1.94834 2.291293 1.17954 5.803496 2.60082 2.768695-1.23053l-3.486507-3.89668c3.413566 1.663594 6.772375 3.60097 10.04934 5.94757z"/><path d="m140.28059 144.48491 3.6916-4.61449c-.73401-1.95589-2.25483-3.28233-3.64032-4.71704-2.37783-2.15978-2.99206-.67024-2.20471 2.2047z"/><path d="m112.08091 105.31299 17.43253 4.81958c10.91984-2.1057 18.86556-.856 22.25211 5.53739-.24125-4.13998-.69238-8.25372-2.46106-12.20277-.38457-.71418-1.47288-1.86132-1.43562-.51272-.0854 1.58969-1.13062.35411-1.94834-.30763l-6.66538-5.43485c-.84197 6.98279-3.9382 6.07569-7.48573 3.58905z"/></g></g></svg>