<?xml version="1.0" encoding="UTF-8" standalone="no"?>
<svg
   xmlns:osb="http://www.openswatchbook.org/uri/2009/osb"
   xmlns:dc="http://purl.org/dc/elements/1.1/"
   xmlns:cc="http://creativecommons.org/ns#"
   xmlns:rdf="http://www.w3.org/1999/02/22-rdf-syntax-ns#"
   xmlns:svg="http://www.w3.org/2000/svg"
   xmlns="http://www.w3.org/2000/svg"
   xmlns:sodipodi="http://sodipodi.sourceforge.net/DTD/sodipodi-0.dtd"
   xmlns:inkscape="http://www.inkscape.org/namespaces/inkscape"
   width="512"
   height="512"
   viewBox="0 0 135.46667 135.46667"
   version="1.1"
   id="svg8"
   inkscape:version="1.0.1 (3bc2e813f5, 2020-09-07)"
   sodipodi:docname="Double Time.svg">
  <defs
     id="defs2">
    <linearGradient
       id="linearGradient1099-6-5"
       osb:paint="gradient">
      <stop
         style="stop-color:#273839;stop-opacity:0.5"
         offset="0"
         id="stop1151" />
      <stop
         style="stop-color:#273839;stop-opacity:1"
         offset="1"
         id="stop1153" />
    </linearGradient>
  </defs>
  <sodipodi:namedview
     id="base"
     pagecolor="#ffffff"
     bordercolor="#666666"
     borderopacity="1.0"
     inkscape:pageopacity="0.0"
     inkscape:pageshadow="2"
     inkscape:zoom="0.98994949"
     inkscape:cx="270.56443"
     inkscape:cy="219.32198"
     inkscape:document-units="px"
     inkscape:current-layer="g1320"
     inkscape:document-rotation="0"
     showgrid="false"
     inkscape:pagecheckerboard="true"
     inkscape:object-nodes="true"
     fit-margin-top="0"
     fit-margin-left="0"
     fit-margin-right="0"
     fit-margin-bottom="0"
     inkscape:window-width="1600"
     inkscape:window-height="837"
     inkscape:window-x="-8"
     inkscape:window-y="-8"
     inkscape:window-maximized="1"
     units="px" />
  <metadata
     id="metadata5">
    <rdf:RDF>
      <cc:Work
         rdf:about="">
        <dc:format>image/svg+xml</dc:format>
        <dc:type
           rdf:resource="http://purl.org/dc/dcmitype/StillImage" />
        <dc:title></dc:title>
      </cc:Work>
    </rdf:RDF>
  </metadata>
  <g
     inkscape:label="Layer 1"
     inkscape:groupmode="layer"
     id="layer1"
     transform="translate(-59.62574,-110.15787)">
    <path
       style="fill:#000000;stroke-width:0.264583"
       id="path853"
       d="" />
    <path
       style="fill:#000000;stroke-width:0.264583"
       id="path849"
       d="" />
    <g
       id="g1061"
       transform="translate(9.0714285,1.8898814)">
      <g
         id="g1320"
         transform="translate(7.2162774,44.901282)">
        <g
           id="g1340"
           transform="matrix(1.0027412,0,0,1.0027412,-3.0593744,-1.0043614)">
          <g
             id="g1298"
             transform="translate(-5.8799298,-41.426778)">
            <path
               id="path1111-1"
               style="fill:#273839;fill-opacity:0.5;stroke-width:0.352777"
               d="m 123.57932,151.77856 c 0,-0.10259 2.49844,-2.68829 5.55212,-5.74642 l 5.55211,-5.56039 h -6.97218 -6.97219 l 0.56689,1.09658 c 0.66379,1.28363 1.45533,7.98086 0.99581,8.42584 l 0.0687,0.86399 c 0.13281,0.0327 0.14962,0.18821 0.1504,0.3607 0.30748,0.22059 0.61363,0.43098 1.05834,0.5597 z"
               sodipodi:nodetypes="cccccccccc" />
            <g
               id="g1280">
              <path
                 style="fill:#273839;fill-opacity:0.5;stroke-width:0.352778"
                 d="m 126.00317,203.20285 c 0.60305,-0.61682 1.17913,-1.38193 1.28015,-1.70025 0.10104,-0.31832 0.71561,-0.83242 1.36572,-1.14243 l 1.18201,-0.56367 2.2438,2.26392 2.2438,2.26392 h -4.70598 -4.70597 z"
                 id="path1125" />
              <path
                 style="fill:#273839;fill-opacity:1;stroke-width:0.352778"
                 d="m 116.11329,225.8495 c -1.29291,-0.31583 -2.6026,-0.78326 -2.91042,-1.03873 -1.39578,-1.15839 0.0413,-2.95837 2.84146,-3.55889 1.12394,-0.24104 2.0775,-0.70834 2.5468,-1.24809 0.4126,-0.47453 0.90998,-0.86278 1.10529,-0.86278 0.65312,0 0.3669,-0.67456 -1.32058,-3.11228 -2.86775,-4.14272 -3.86302,-5.11095 -5.01655,-4.88025 -0.86725,0.17345 -1.03072,0.0731 -1.22937,-0.7544 -0.12601,-0.52495 -0.70359,-1.62449 -1.28351,-2.44341 l -1.0544,-1.48895 0.98462,-0.2236 c 0.54154,-0.12297 2.17525,-0.58652 3.63046,-1.03009 5.39662,-1.64498 8.04655,-1.90137 7.03331,-0.68049 -0.31882,0.38415 -0.21437,0.86594 0.4725,2.17955 0.48498,0.92752 1.20174,2.71553 1.59279,3.97335 0.39105,1.25783 1.58132,4.11258 2.64504,6.3439 2.23574,4.68982 2.63989,6.63011 1.61103,7.73446 -0.47228,0.50694 -1.11922,0.73221 -2.10272,0.73221 -0.78131,0 -1.69471,0.14672 -2.02977,0.32604 -1.13661,0.60829 -5.08884,0.62536 -7.51598,0.0325 z"
                 id="path1107" />
              <path
                 style="fill:#273838;fill-opacity:0.5;stroke-width:0.352777"
                 d="m 102.71185,187.39132 c 0.0676,-0.48507 0.31218,-1.43756 0.54312,-2.11666 0.33472,-0.98416 0.32463,-1.4137 -0.0496,-2.11667 -0.83263,-1.56397 -0.37065,-3.9665 1.09141,-5.67459 1.21066,-1.41438 1.25332,-1.54382 0.7059,-2.14871 -0.67437,-0.74518 -3.6851,-0.85119 -6.64714,-0.23409 -3.742362,0.77967 -7.471222,0.46736 -12.099004,-1.01286 -3.075329,-0.98367 -4.183113,-1.50912 -4.850866,-2.3027 -0.915411,-1.08791 -1.127932,-2.76597 -0.534852,-4.22093 0.181676,-0.4457 0.431371,-1.42963 0.555005,-2.18643 0.134745,-0.8248 0.62733,-1.77868 1.229898,-2.38125 1.367213,-1.36726 3.182815,-1.34607 6.217708,0.0729 1.495565,0.6992 2.451415,0.96464 2.719216,0.75448 0.7313,-0.57391 2.279605,-0.78492 3.198254,-0.43564 1.37373,0.5223 1.411859,-0.0844 0.159163,-2.52956 -1.228739,-2.39837 -1.467686,-4.80977 -0.85421,-8.61911 l 0.29197,-1.81436 -1.130681,-0.24856 c -0.6682,-0.14676 -1.660506,-0.83587 -2.425689,-1.68414 -0.712267,-0.7896 -1.888607,-2.0483 -2.613795,-2.79724 -0.725189,-0.74895 -1.413741,-1.79388 -1.530139,-2.32234 -0.116401,-0.52847 -0.247853,-1.11071 -0.291973,-1.29398 -0.04412,-0.18327 -7.054771,6.59607 -15.579411,15.06523 l -15.499312,15.39855 15.883268,15.89051 15.882753,15.89102 h 5.942272 5.942274 l -0.23151,-0.79375 c -0.542999,-1.86371 -0.616805,-3.11159 -0.247015,-4.17236 0.290703,-0.83391 0.290441,-1.4773 -5.29e-4,-2.44843 -0.320622,-1.07014 -0.282303,-1.65625 0.20412,-3.12074 -0.163646,-1.51493 0.696575,-1.96147 1.530265,-2.4357 2.21507,-0.73185 1.88487,-2.54545 2.48913,-3.96189 z"
                 id="path1111-2"
                 sodipodi:nodetypes="cccsssssssccssscccsssscccccccssccc" />
              <g
                 id="g1264">
                <path
                   style="fill:#273839;fill-opacity:1;stroke-width:0.352778"
                   d="m 127.57465,136.46324 c -2.75028,-0.80594 -5.10786,-1.57272 -5.23908,-1.70394 -0.13123,-0.13122 0.45212,-0.42193 1.29632,-0.64602 0.84421,-0.22408 3.24413,-0.86952 5.33316,-1.43429 4.65707,-1.25906 5.17182,-1.2662 2.90454,-0.0403 l -1.76389,0.95372 26.8993,0.0904 26.89931,0.0904 v 0.87974 0.87974 h -8.23224 c -4.52773,0 -16.61366,0.10561 -26.85762,0.23467 l -18.62538,0.23467 1.63401,0.83043 c 1.63233,0.82957 2.0248,1.20226 1.19303,1.13291 -0.24253,-0.0202 -2.69119,-0.69617 -5.44146,-1.50211 z"
                   id="path1129" />
                <g
                   id="g1252">
                  <path
                     style="fill:#273839;fill-opacity:1;stroke-width:0.352778"
                     d="m 157.97514,175.69799 c -1.94028,-0.57268 -4.36121,-1.27609 -5.37986,-1.56313 -1.69007,-0.47624 -2.52597,-1.20774 -1.38011,-1.20774 0.25958,0 2.75508,-0.62657 5.54557,-1.39239 2.79049,-0.76581 5.13363,-1.33237 5.20698,-1.25901 0.0733,0.0734 -0.63622,0.53378 -1.57683,1.02318 l -1.71019,0.88981 12.6118,0.0164 12.61181,0.0164 v 1.05834 1.05833 l -7.49653,0.0882 c -4.12309,0.0485 -9.75871,0.0704 -12.52361,0.0487 -2.7649,-0.0217 -5.02708,0.003 -5.02708,0.0547 0,0.0518 0.71437,0.51286 1.5875,1.02454 1.48011,0.86741 1.9498,1.30025 1.32291,1.21915 -0.14552,-0.0188 -1.85208,-0.50279 -3.79236,-1.07546 z"
                     id="path1127" />
                  <g
                     id="g1242">
                    <path
                       style="fill:#273839;fill-opacity:1;stroke:none;stroke-width:0.264583px;stroke-linecap:butt;stroke-linejoin:miter;stroke-opacity:1"
                       d="m 88.021202,185.98935 -11.481026,3.16555 10.96131,3.49628 -3.307291,-2.12612 c -0.581252,-0.33674 -0.59299,-0.55957 0.708705,-0.51972 l 20.93043,0.18899 -0.003,-1.71056 -21.116103,-0.0376 c -1.117351,-0.17854 -0.807678,-0.45222 -0.04725,-0.75595 z"
                       id="path1133"
                       sodipodi:nodetypes="cccccccccc" />
                    <g
                       id="g1234">
                      <g
                         id="g1228">
                        <path
                           id="path1111"
                           style="fill:#273839;fill-opacity:1;stroke-width:1.33333"
                           d="M 156.58984,44.554688 C 156.17357,44.572708 156,44.894508 156,45.457031 c 0,0.592252 6.50972,7.492901 14.4668,15.333985 7.95706,7.841121 13.80706,14.237521 13,14.214843 -0.80708,-0.02332 -2.6312,-0.923326 -4.05469,-2 -5.47301,-4.139603 -24.423,-0.556705 -32.61133,6.166016 -4.41496,3.624756 -5.60725,14.704494 -2.00976,18.679687 1.46844,1.622635 2.63515,5.239288 2.875,8.916018 0.22194,3.40233 1.168,7.40793 2.10351,8.90039 1.04478,1.66677 1.3505,4.25593 0.79102,6.71289 -1.63381,7.17475 -1.38082,8.66602 1.47265,8.66602 1.71338,0 3.20579,1.33076 4.08399,3.64062 0.76106,2.00175 1.7947,3.95237 2.29883,4.33398 0.50411,0.38159 1.59637,1.8927 2.42578,3.35938 0.9701,1.71549 2.63401,2.53625 4.66601,2.30078 6.11558,-0.70877 12.02073,-0.54856 12.91797,0.34961 1.43565,1.43709 0.6252,22.80621 -0.97851,25.80273 -2.50427,4.67929 -1.78906,16.75434 1.21875,20.57813 1.46666,1.86455 2.66796,3.87298 2.66796,4.46289 0,0.58991 2.45231,3.57136 5.45118,6.62695 l 5.45312,5.55664 -11.54883,6.97461 c -9.19745,5.55553 -12.33232,6.81873 -15.40039,6.20508 -2.11877,-0.42376 -4.21202,-0.18977 -4.65039,0.51953 -1.40939,2.28046 -2.76139,1.39388 -4.98242,-3.26367 -2.66352,-5.58546 -6.63261,-7.09082 -11.05469,-4.19336 -3.09721,2.02934 -3.26758,1.99976 -3.26758,-0.55664 0,-2.00421 -0.87758,-2.69726 -3.41015,-2.69726 -2.36707,0 -5.44048,2.12272 -10.0625,6.94335 -5.77399,6.02215 -6.60454,7.56686 -6.25977,11.66602 0.37409,4.44756 1.01572,5.03844 10.90625,10.05859 l 10.50781,5.33204 18.82422,-0.0391 c 13.1219,-0.0278 24.98549,-1.00649 39.1543,-3.22851 11.18026,-1.75336 20.7697,-2.74398 21.31055,-2.20313 0.54085,0.54085 0.97019,4.39275 0.95508,8.56055 -0.0269,6.85742 -0.62821,8.42673 -6.3125,16.50195 -6.63357,9.4238 -7.54374,12.30666 -4.28125,13.5586 2.76559,1.06125 2.50321,5.92991 -0.875,16.2207 l -2.875,8.75976 -1.29688,9.60743 c -0.36658,0.95527 -1.71599,5.47378 -2.99805,10.04296 -2.14556,7.64686 -2.45205,8.06688 -3.84375,5.2754 -2.0251,-4.06194 -5.64884,-4.61348 -6.78515,-1.03321 -0.95577,3.01134 0.56695,8.06677 4.93945,16.39844 2.84905,5.42876 2.4338,7.70656 -0.90039,4.93945 -1.57153,-1.30431 -2.46272,-1.33008 -3.93359,-0.10937 -3.46632,2.87679 0.057,9.05794 7.7207,13.54492 6.05159,3.54327 7.70198,3.92333 14.18164,3.26758 15.25175,-1.54349 42.50459,-7.73728 47.26562,-10.74219 1.50369,-0.949 4.83372,-2.15438 7.4004,-2.67773 5.95638,-1.21448 8.25128,-3.0861 7.33203,-5.98243 -1.0088,-3.17843 14.25802,-11.01257 27.02734,-13.86914 9.59308,-2.14601 9.7324,-2.13812 13.7207,0.81055 2.67432,1.97722 4.51524,4.91258 5.47657,8.73047 1.65142,6.55827 5.22155,9.66797 11.10351,9.66797 3.27058,0 4.55248,-0.90238 6.54883,-4.60938 2.29625,-4.26391 2.35578,-5.57275 0.78516,-17.43945 -1.3047,-9.85754 -2.27307,-13.18625 -4.17969,-14.37695 l -4.67383,-15.54493 c -1.23825,-6.19116 -3.4702,-7.32379 -10.53516,-5.3457 -3.32451,0.93079 -8.20376,3.40744 -10.84179,5.50391 -4.29589,3.41393 -5.82104,3.81048 -14.61328,3.81055 -5.39917,0 -9.81641,-0.22857 -9.81641,-0.50977 0,-0.28116 4.95,-4.11279 11,-8.51367 17.24625,-12.54524 16.52421,-10.08537 8.89648,-30.3086 -3.59576,-9.53333 -7.16822,-19.26217 -7.17578,-20.41768 3.7888,-15.83399 35.60493,-13.02252 33.04242,-17.16698 l -23.11957,-37.39234 -29.79916,-4.5274 -1.52573,5.91885 c -0.36938,1.43296 5.32056,2.36515 3.75545,6.84736 -0.51974,1.48846 -2.34805,-1.01228 -2.55263,-0.87313 -0.80058,0.51945 -1.72429,1.78097 -2.05273,2.80273 C 277.95674,200.49965 268,185.74282 268,183.39062 l -10.125,-40.95117 -0.90625,-10.60742 -9.69531,-9.72461 c -5.33174,-5.34909 -10.28729,-9.72656 -11.01367,-9.72656 -0.72639,0 -9.88268,-8.99999 -20.34766,-20.000001 -10.46498,-10.999974 -19.52682,-20 -20.13672,-20 -3.58008,0 0.9085,5.925243 17.22461,22.738282 10.08333,10.390409 18.54869,19.575029 18.8125,20.410159 0.2637,0.83512 -15.9392,-14.83115 -36.00781,-34.814456 C 168.18832,53.215825 158.83771,44.457369 156.58984,44.554688 Z m 42.25782,45.316406 c 0.69563,0.203437 3.16122,2.589342 8.42968,7.810547 5.53123,5.481679 10.05664,10.130209 10.05664,10.332029 0,0.20145 -2.43156,0.36719 -5.40234,0.36719 -5.00999,0 -5.54011,-0.36229 -7.32812,-5 -1.06028,-2.74998 -3.15601,-7.400656 -4.65625,-10.333985 -1.11142,-2.173087 -1.64066,-3.33401 -1.09961,-3.175781 z M 267.24805,309.7832 c 1.51328,0.0382 -1.1474,1.52955 -5.91407,3.3125 -4.76666,1.78296 -8.96737,3.21982 -9.33398,3.19336 -2.06774,-0.14914 12.96578,-6.56331 15.24805,-6.50586 z"
                           transform="matrix(0.26458334,0,0,0.26458334,50.554312,108.26799)"
                           sodipodi:nodetypes="ssccsssssssssscsssscccsssssssscccsscsscccsssssscssssssssssccsssssscsccssccccccsssscsssssscsscscc" />
                        <path
                           style="fill:#273839;fill-opacity:1;stroke:none;stroke-width:0.264583px;stroke-linecap:butt;stroke-linejoin:miter;stroke-opacity:1"
                           d="m 184.08053,153.02284 -63.50568,-1.28152 3.41177,-1.8461 -4.84426,1.67043 -0.31739,-5.17834 -3.06976,8.419 3.18917,-0.0118 4.77195,1.45285 -3.35454,-2.23243 z"
                           id="path1212" />
                      </g>
                      <path
                         style="fill:#273839;fill-opacity:1;stroke:none;stroke-width:0.264583px;stroke-linecap:butt;stroke-linejoin:miter;stroke-opacity:1"
                         d="m 138.65303,188.84975 0.21716,0.81852 45.11844,-0.31738 z"
                         id="path1224" />
                    </g>
                  </g>
                </g>
              </g>
            </g>
          </g>
          <path
             style="fill:#273839;fill-opacity:0.5;stroke:none;stroke-width:0.264583px;stroke-linecap:butt;stroke-linejoin:miter;stroke-opacity:1"
             d="m 136.14738,98.980372 -11.89349,11.592818 c 1.90904,0.68402 3.41566,1.61873 2.63928,3.97563 l 0.40091,0.46772 c 1.74052,-0.73199 4.15262,0.58037 4.00904,3.17383 l 4.14268,5.81311 c 2.11825,2.55979 1.72374,4.67875 -1.23612,6.34765 l -6.1472,1.9043 3.14041,8.55262 c 4.72555,0.29902 5.03708,3.66865 5.81312,6.71515 l 0.60135,1.33635 c 1.25201,3.75561 3.93857,10.09855 -2.13815,13.8312 l 31.1369,0.0668 -31.77167,-31.60463 32.10575,-32.239378 z"
             id="path1300"
             sodipodi:nodetypes="cccccccccccccccc" />
        </g>
      </g>
    </g>
  </g>
</svg>
