<svg height="512" viewBox="0 0 135.46667 135.46667" width="512" xmlns="http://www.w3.org/2000/svg"><g transform="matrix(1.0027412 0 0 1.0027412 -46.397408 -64.371068)"><g transform="translate(-5.87993 -41.426778)"><path d="m123.57932 151.77856c0-.10259 2.49844-2.68829 5.55212-5.74642l5.55211-5.56039h-6.97218-6.97219l.56689 1.09658c.66379 1.28363 1.45533 7.98086.99581 8.42584l.0687.86399c.13281.0327.14962.18821.1504.3607.30748.22059.61363.43098 1.05834.5597z" fill="#273839" fill-opacity=".5" stroke-width=".352777"/><path d="m126.00317 203.20285c.60305-.61682 1.17913-1.38193 1.28015-1.70025.10104-.31832.71561-.83242 1.36572-1.14243l1.18201-.56367 2.2438 2.26392 2.2438 2.26392h-4.70598-4.70597z" fill="#273839" fill-opacity=".5" stroke-width=".352778"/><path d="m116.11329 225.8495c-1.29291-.31583-2.6026-.78326-2.91042-1.03873-1.39578-1.15839.0413-2.95837 2.84146-3.55889 1.12394-.24104 2.0775-.70834 2.5468-1.24809.4126-.47453.90998-.86278 1.10529-.86278.65312 0 .3669-.67456-1.32058-3.11228-2.86775-4.14272-3.86302-5.11095-5.01655-4.88025-.86725.17345-1.03072.0731-1.22937-.7544-.12601-.52495-.70359-1.62449-1.28351-2.44341l-1.0544-1.48895.98462-.2236c.54154-.12297 2.17525-.58652 3.63046-1.03009 5.39662-1.64498 8.04655-1.90137 7.03331-.68049-.31882.38415-.21437.86594.4725 2.17955.48498.92752 1.20174 2.71553 1.59279 3.97335.39105 1.25783 1.58132 4.11258 2.64504 6.3439 2.23574 4.68982 2.63989 6.63011 1.61103 7.73446-.47228.50694-1.11922.73221-2.10272.73221-.78131 0-1.69471.14672-2.02977.32604-1.13661.60829-5.08884.62536-7.51598.0325z" fill="#273839" stroke-width=".352778"/><path d="m102.71185 187.39132c.0676-.48507.31218-1.43756.54312-2.11666.33472-.98416.32463-1.4137-.0496-2.11667-.83263-1.56397-.37065-3.9665 1.09141-5.67459 1.21066-1.41438 1.25332-1.54382.7059-2.14871-.67437-.74518-3.6851-.85119-6.64714-.23409-3.742362.77967-7.471222.46736-12.099004-1.01286-3.075329-.98367-4.183113-1.50912-4.850866-2.3027-.915411-1.08791-1.127932-2.76597-.534852-4.22093.181676-.4457.431371-1.42963.555005-2.18643.134745-.8248.62733-1.77868 1.229898-2.38125 1.367213-1.36726 3.182815-1.34607 6.217708.0729 1.495565.6992 2.451415.96464 2.719216.75448.7313-.57391 2.279605-.78492 3.198254-.43564 1.37373.5223 1.411859-.0844.159163-2.52956-1.228739-2.39837-1.467686-4.80977-.85421-8.61911l.29197-1.81436-1.130681-.24856c-.6682-.14676-1.660506-.83587-2.425689-1.68414-.712267-.7896-1.888607-2.0483-2.613795-2.79724-.725189-.74895-1.413741-1.79388-1.530139-2.32234-.116401-.52847-.247853-1.11071-.291973-1.29398s-7.054771 6.59607-15.579411 15.06523l-15.499312 15.39855 15.883268 15.89051 15.882753 15.89102h5.942272 5.942274l-.23151-.79375c-.542999-1.86371-.616805-3.11159-.247015-4.17236.290703-.83391.290441-1.4773-.000529-2.44843-.320622-1.07014-.282303-1.65625.20412-3.12074-.163646-1.51493.696575-1.96147 1.530265-2.4357 2.21507-.73185 1.88487-2.54545 2.48913-3.96189z" fill="#273838" fill-opacity=".5" stroke-width=".352777"/><g fill="#273839"><path d="m127.57465 136.46324c-2.75028-.80594-5.10786-1.57272-5.23908-1.70394-.13123-.13122.45212-.42193 1.29632-.64602.84421-.22408 3.24413-.86952 5.33316-1.43429 4.65707-1.25906 5.17182-1.2662 2.90454-.0403l-1.76389.95372 26.8993.0904 26.89931.0904v.87974.87974h-8.23224c-4.52773 0-16.61366.10561-26.85762.23467l-18.62538.23467 1.63401.83043c1.63233.82957 2.0248 1.20226 1.19303 1.13291-.24253-.0202-2.69119-.69617-5.44146-1.50211z" stroke-width=".352778"/><path d="m157.97514 175.69799c-1.94028-.57268-4.36121-1.27609-5.37986-1.56313-1.69007-.47624-2.52597-1.20774-1.38011-1.20774.25958 0 2.75508-.62657 5.54557-1.39239 2.79049-.76581 5.13363-1.33237 5.20698-1.25901.0733.0734-.63622.53378-1.57683 1.02318l-1.71019.88981 12.6118.0164 12.61181.0164v1.05834 1.05833l-7.49653.0882c-4.12309.0485-9.75871.0704-12.52361.0487s-5.02708.003-5.02708.0547c0 .0518.71437.51286 1.5875 1.02454 1.48011.86741 1.9498 1.30025 1.32291 1.21915-.14552-.0188-1.85208-.50279-3.79236-1.07546z" stroke-width=".352778"/><path d="m88.021202 185.98935-11.481026 3.16555 10.96131 3.49628-3.307291-2.12612c-.581252-.33674-.59299-.55957.708705-.51972l20.93043.18899-.003-1.71056-21.116103-.0376c-1.117351-.17854-.807678-.45222-.04725-.75595z"/><path d="m156.58984 44.554688c-.41627.01802-.58984.33982-.58984.902343 0 .592252 6.50972 7.492901 14.4668 15.333985 7.95706 7.841121 13.80706 14.237521 13 14.214843-.80708-.02332-2.6312-.923326-4.05469-2-5.47301-4.139603-24.423-.556705-32.61133 6.166016-4.41496 3.624756-5.60725 14.704494-2.00976 18.679687 1.46844 1.622635 2.63515 5.239288 2.875 8.916018.22194 3.40233 1.168 7.40793 2.10351 8.90039 1.04478 1.66677 1.3505 4.25593.79102 6.71289-1.63381 7.17475-1.38082 8.66602 1.47265 8.66602 1.71338 0 3.20579 1.33076 4.08399 3.64062.76106 2.00175 1.7947 3.95237 2.29883 4.33398.50411.38159 1.59637 1.8927 2.42578 3.35938.9701 1.71549 2.63401 2.53625 4.66601 2.30078 6.11558-.70877 12.02073-.54856 12.91797.34961 1.43565 1.43709.6252 22.80621-.97851 25.80273-2.50427 4.67929-1.78906 16.75434 1.21875 20.57813 1.46666 1.86455 2.66796 3.87298 2.66796 4.46289s2.45231 3.57136 5.45118 6.62695l5.45312 5.55664-11.54883 6.97461c-9.19745 5.55553-12.33232 6.81873-15.40039 6.20508-2.11877-.42376-4.21202-.18977-4.65039.51953-1.40939 2.28046-2.76139 1.39388-4.98242-3.26367-2.66352-5.58546-6.63261-7.09082-11.05469-4.19336-3.09721 2.02934-3.26758 1.99976-3.26758-.55664 0-2.00421-.87758-2.69726-3.41015-2.69726-2.36707 0-5.44048 2.12272-10.0625 6.94335-5.77399 6.02215-6.60454 7.56686-6.25977 11.66602.37409 4.44756 1.01572 5.03844 10.90625 10.05859l10.50781 5.33204 18.82422-.0391c13.1219-.0278 24.98549-1.00649 39.1543-3.22851 11.18026-1.75336 20.7697-2.74398 21.31055-2.20313s.97019 4.39275.95508 8.56055c-.0269 6.85742-.62821 8.42673-6.3125 16.50195-6.63357 9.4238-7.54374 12.30666-4.28125 13.5586 2.76559 1.06125 2.50321 5.92991-.875 16.2207l-2.875 8.75976-1.29688 9.60743c-.36658.95527-1.71599 5.47378-2.99805 10.04296-2.14556 7.64686-2.45205 8.06688-3.84375 5.2754-2.0251-4.06194-5.64884-4.61348-6.78515-1.03321-.95577 3.01134.56695 8.06677 4.93945 16.39844 2.84905 5.42876 2.4338 7.70656-.90039 4.93945-1.57153-1.30431-2.46272-1.33008-3.93359-.10937-3.46632 2.87679.057 9.05794 7.7207 13.54492 6.05159 3.54327 7.70198 3.92333 14.18164 3.26758 15.25175-1.54349 42.50459-7.73728 47.26562-10.74219 1.50369-.949 4.83372-2.15438 7.4004-2.67773 5.95638-1.21448 8.25128-3.0861 7.33203-5.98243-1.0088-3.17843 14.25802-11.01257 27.02734-13.86914 9.59308-2.14601 9.7324-2.13812 13.7207.81055 2.67432 1.97722 4.51524 4.91258 5.47657 8.73047 1.65142 6.55827 5.22155 9.66797 11.10351 9.66797 3.27058 0 4.55248-.90238 6.54883-4.60938 2.29625-4.26391 2.35578-5.57275.78516-17.43945-1.3047-9.85754-2.27307-13.18625-4.17969-14.37695l-4.67383-15.54493c-1.23825-6.19116-3.4702-7.32379-10.53516-5.3457-3.32451.93079-8.20376 3.40744-10.84179 5.50391-4.29589 3.41393-5.82104 3.81048-14.61328 3.81055-5.39917 0-9.81641-.22857-9.81641-.50977 0-.28116 4.95-4.11279 11-8.51367 17.24625-12.54524 16.52421-10.08537 8.89648-30.3086-3.59576-9.53333-7.16822-19.26217-7.17578-20.41768 3.7888-15.83399 35.60493-13.02252 33.04242-17.16698l-23.11957-37.39234-29.79916-4.5274-1.52573 5.91885c-.36938 1.43296 5.32056 2.36515 3.75545 6.84736-.51974 1.48846-2.34805-1.01228-2.55263-.87313-.80058.51945-1.72429 1.78097-2.05273 2.80273-.51201 1.59343-10.46875-13.1634-10.46875-15.5156l-10.125-40.95117-.90625-10.60742-9.69531-9.72461c-5.33174-5.34909-10.28729-9.72656-11.01367-9.72656-.72639 0-9.88268-8.99999-20.34766-20.000001-10.46498-10.999974-19.52682-20-20.13672-20-3.58008 0 .9085 5.925243 17.22461 22.738282 10.08333 10.390409 18.54869 19.575029 18.8125 20.410159.2637.83512-15.9392-14.83115-36.00781-34.814456-27.61637-27.499019-36.96698-36.257475-39.21485-36.160156zm42.25782 45.316406c.69563.203437 3.16122 2.589342 8.42968 7.810547 5.53123 5.481679 10.05664 10.130209 10.05664 10.332029 0 .20145-2.43156.36719-5.40234.36719-5.00999 0-5.54011-.36229-7.32812-5-1.06028-2.74998-3.15601-7.400656-4.65625-10.333985-1.11142-2.173087-1.64066-3.33401-1.09961-3.175781zm68.40039 219.912106c1.51328.0382-1.1474 1.52955-5.91407 3.3125-4.76666 1.78296-8.96737 3.21982-9.33398 3.19336-2.06774-.14914 12.96578-6.56331 15.24805-6.50586z" stroke-width="1.33333" transform="matrix(.26458334 0 0 .26458334 50.554312 108.26799)"/><path d="m184.08053 153.02284-63.50568-1.28152 3.41177-1.8461-4.84426 1.67043-.31739-5.17834-3.06976 8.419 3.18917-.0118 4.77195 1.45285-3.35454-2.23243z"/><path d="m138.65303 188.84975.21716.81852 45.11844-.31738z"/></g></g><path d="m136.14738 98.980372-11.89349 11.592818c1.90904.68402 3.41566 1.61873 2.63928 3.97563l.40091.46772c1.74052-.73199 4.15262.58037 4.00904 3.17383l4.14268 5.81311c2.11825 2.55979 1.72374 4.67875-1.23612 6.34765l-6.1472 1.9043 3.14041 8.55262c4.72555.29902 5.03708 3.66865 5.81312 6.71515l.60135 1.33635c1.25201 3.75561 3.93857 10.09855-2.13815 13.8312l31.1369.0668-31.77167-31.60463 32.10575-32.239378z" fill="#273839" fill-opacity=".5"/></g></svg>