<svg height="512" viewBox="0 0 135.46667 135.46667" width="512" xmlns="http://www.w3.org/2000/svg"><g fill="#273839" transform="matrix(1.0914221 0 0 1.0914223 -48.632739 -73.364048)"><path d="m88.260046 118.63515c-.118001-.30751-.114914-1.7378.0069-3.17842.239293-2.83081 1.418064-5.69074 2.923738-7.09354.796565-.74216.833857-.98851.833857-5.50832v-4.731421l1.60964-.614729 1.609641-.614726 1.300776 1.529023c2.490745 2.927803 2.127187 2.772773 6.680632 2.848583 2.27983.0379 6.12604.0603 8.54715.0497l4.402-.0193 1.06605-1.343098c2.6558-3.345988 2.40272-3.176418 4.01825-2.692393l1.45753.436683v5.081118c0 4.642.0596 5.12285.6896 5.56412.37928.26566 1.17303 1.40203 1.76389 2.52528.96371 1.83204 1.07429 2.36537 1.07429 5.18143v3.13918h-18.88469c-16.910462 0-18.90711-.0584-19.099233-.55911z" stroke-width=".352778"/><path d="m47.688865 132.51162c.121418-1.79476.551853-4.45382.956522-5.90903 2.240771-8.0579 8.941499-14.49439 17.11724-16.44224 1.347166-.32096 2.680555-.69472 2.963086-.8306.298145-.14338.701288-1.26346.960763-2.66935 1.265062-6.854399 4.466932-12.903934 9.734066-18.391318 13.56534-14.132585 35.612808-15.197074 50.777348-2.451617 2.92751 2.46051 6.48523 6.844614 8.19533 10.098953l1.22686 2.334715 2.10768-.152456c4.88892-.353635 10.43339 1.816192 14.19028 5.553363 5.6104 5.58095 7.18322 13.85481 4.00439 21.06517l-.80185 1.81879 1.0601 1.00344c1.32172 1.25107 3.83161 4.74923 4.83304 6.73607l.7557 1.49931h-17.82245-17.82245v-5.07119c0-5.81397-.15905-6.93505-1.13205-7.97945-.68246-.73253-.68375-.77117-.049-1.47258.56255-.62162.65088-1.33148.64465-5.18118-.007-4.24947-.0589-4.56956-1.09827-6.75394-.60008-1.26118-1.43028-2.59547-1.84487-2.96509-.69459-.61924-.75381-1.02188-.75381-5.12498 0-5.235993-.19455-5.67786-3.05735-6.943927-3.37793-1.493877-4.74482-1.032315-7.1732 2.422192l-1.17795 1.675695h-6.77651-6.77651l-1.69669-1.985994c-.933178-1.092299-2.242301-2.21397-2.909164-2.492603-1.10785-.462888-1.406095-.438253-3.456157.285481-1.234024.435647-2.675509 1.242818-3.2033 1.793716-.921212.961534-.965602 1.181195-1.108971 5.48768-.132292 3.97378-.240277 4.60749-.945646 5.54958-2.054115 2.74346-2.431097 4.0014-2.577056 8.59926-.128139 4.03656-.08168 4.4375.62496 5.39328l.76339 1.03254-.726038 1.17476c-.654311 1.05869-.726034 1.73696-.726034 6.86574v5.69101h-18.75041-18.750429z" fill-opacity=".501961" stroke-width=".352778"/><path d="m242.56641 229.66797c-61.41404 0-69.26599.23473-71.15821 2.12695-1.80816 1.8082-2.07201 5.45494-1.76172 24.33399l.36524 22.20703 15.125.37695c12.45672.31143 14.99636.71485 14.39453 2.2832-.40191 1.04735-6.29318 13.89268-13.0918 28.54493-8.15469 17.5748-13.16508 26.85142-14.72656 27.25976-2.2171.57978-2.36719 3.98379-2.36719 53.8086 0 39.59338.40864 53.602 1.59961 54.79296 1.20401 1.20405 19.01183 1.59961 71.95313 1.59961 68.46119 0 70.3898-.0695 71.74804-2.60742.92183-1.72244 1.27743-20.39846 1.04688-55l-.34766-52.39258-15.51758-.66601-15.51757-.66797 12.90625-27.86719c9.64803-20.83188 13.65074-28.14288 15.85156-28.95703 2.87078-1.06193 2.94336-1.62775 2.94336-22.69336 0-18.23221-.34486-21.98528-2.20703-24.04297-2.08366-2.30226-6.05504-2.43945-71.23828-2.43945zm2.64648 49.25586-3.8125 8.37109c-2.09749 4.60498-7.99465 17.37304-13.10351 28.37305l-9.28711 20-16.77735.37305-16.77539.37304 3.14649-7.03906c1.73033-3.87171 7.66393-16.63973 13.18554-28.37305l10.03906-21.33398 16.69336-.37305zm31.79883.0898c8.98333-.007 16.32371.43829 16.30859.98828-.0136.55-4.85196 11.19932-10.75195 23.66602-5.89996 12.46666-11.65439 24.91798-12.78711 27.66797l-2.05859 4.99804h-16.52149c-9.08704 0-16.52344-.32903-16.52344-.73242s3.47516-8.0531 7.72071-17c4.2455-8.94663 10.09554-21.51198 13-27.92187l5.27929-11.6543z" stroke-width="1.33333" transform="matrix(.26458334 0 0 .26458334 43.338034 63.366707)"/></g></svg>