<svg height="512" viewBox="0 0 135.46667 135.46667" width="512" xmlns="http://www.w3.org/2000/svg"><g fill="#273839" stroke-width=".352778" transform="matrix(1.0867718 0 0 1.0867718 -55.607437 -74.162376)"><path d="m94.057339 170.49108-19.659866-19.48429-.703763-5.29167c-1.204727-9.05847-1.313417-10.05417-1.097518-10.05417.1154 0 2.055201 1.86531 4.31067 4.14514l4.100853 4.14514.236031 3.11722c.304026 4.0152 1.221865 6.90213 3.098978 9.7474 1.7047 2.58394 2.858414 3.41056 4.266756 3.05709.819693-.20573 2.317076-1.84579 3.424576-3.75088.465395-.80056 15.156754 13.91369 15.156754 15.18037 0 2.97071 4.08017 11.44697 5.92563 12.31008 2.15827 1.00942 3.41012.24431 5.61637-3.43262 2.19058-3.65081 2.74073-5.12075 3.31116-8.84703l.42964-2.8066 7.48974-7.48366c7.42535-7.41932 7.4968-7.4787 8.3121-6.90765.85205.5968 2.28273.74546 3.32502.3455 1.19074-.45693 3.25246-4.23795 3.7115-6.80656l.43548-2.43678 4.61845-4.69519c2.75204-2.79776 4.65361-4.48324 4.70545-4.17072.0479.28846-.36229 3.773-.91145 7.74342l-.99845 7.21893-19.54573 19.31554c-10.75016 10.62354-19.62511 19.31796-19.72213 19.32091-.097.003-9.02333-8.76255-19.836251-19.47892zm6.505701-13.77452-6.072225-6.10827v-6.57283-6.57283l1.273693-2.17322 1.27369-2.17323 1.871331 1.84809 1.871331 1.84808.12092 3.74582c.11113 3.44247.22637 3.97439 1.423 6.56805.71614 1.55222 2.02459 4.08838 2.90766 5.6359l1.6056 2.81368v3.62452c0 1.99348-.0456 3.62451-.10138 3.62451-.0558 0-2.83389-2.74872-6.17362-6.10827zm21.8041 1.87494c.001-2.59166.12677-3.21406.92381-4.58611.50721-.87313 1.81499-3.33375 2.90617-5.46806l1.98397-3.88055.11465-4.62682.11464-4.62681 1.49776-1.46994 1.49776-1.46994 1.47441 2.97546c1.45442 2.93514 1.47451 3.02732 1.48281 6.80231.005 2.10477.15543 4.46101.3351 5.2361l.32668 1.40925-6.32969 6.35186-6.3297 6.35186.002-2.99861zm24.33479-22.0723c0-.0951.51593-1.16048 1.14652-2.36763l1.14653-2.1948-.0204-5.29166c-.0221-5.73934-.46786-7.65303-1.88772-8.10367-.40577-.12879-.73776-.34413-.73776-.47854 0-.13442 2.94004-3.17965 6.53342-6.7672 5.5348-5.52583 6.5053-6.36105 6.3495-5.46448-.10115.58208-.50125 3.51896-.88911 6.52639-1.36329 10.57092-1.84928 13.93853-2.06981 14.34261-.28508.52235-9.57122 10.02946-9.57122 9.79898zm-71.247308-5.60692-4.385328-4.39588-.609442-4.86454c-.335193-2.67549-.94957-7.46021-1.365283-10.6327-.415712-3.17249-.699223-5.82479-.630023-5.89399s1.865606 1.60558 3.992015 3.72172l3.866198 3.84754.176389 7.87419.176388 7.87419 1.660494 3.43268c.913271 1.88797 1.625264 3.43267 1.582206 3.43267-.04306 0-2.051684-1.97814-4.463614-4.39588z" fill-opacity=".501961"/><path d="m70.507727 185.53697c.0032-.17091 2.265378-1.17053 5.027083-2.22137 2.761705-1.05085 5.695031-2.19575 6.518502-2.54421l1.497218-.63358-2.757547-3.98218c-10.623303-15.34113-13.152986-19.05232-13.051709-19.14759.06315-.0594 2.188114 1.741 4.722143 4.00092s9.551529 8.51778 15.594442 13.90636c6.042917 5.38858 11.08305 9.95265 11.200303 10.14236.137417.22235-4.464378.34632-12.94861.34882-7.238987.002-13.757106.10228-14.48471.22255s-1.320306.0788-1.317115-.0921zm70.461563-.046c-7.51858-.0531-13.66043-.2138-13.64856-.35705.0118-.14324 2.59155-2.51886 5.73264-5.27915 3.14108-2.76029 10.23543-9.0539 15.76522-13.9858 5.5298-4.9319 10.10524-8.91949 10.16765-8.86132.0624.0582-2.01152 3.17677-4.60874 6.93024s-6.178 8.93462-7.95729 11.51368l-3.23507 4.6892 1.49381.63828c.8216.35105 3.75334 1.49529 6.51498 2.54274 4.71623 1.78881 6.07918 2.54426 4.23925 2.34971-.43657-.0462-6.94532-.1274-14.46389-.18053zm-27.52947-6.12571c-3.17532-4.97807-3.4546-6.30404-3.46358-16.44455l-.007-7.84412-1.23849-2.03489c-.68117-1.11919-2.06039-3.70176-3.06493-5.73905l-1.82644-3.70417-.1049-9.08403-.1049-9.08402h2.2784c2.44075 0 2.5046.0417 4.56245 2.97658.45925.65498.94994.90397 1.78153.90397 1.49231 0 1.99436-.54535 1.99436-2.1664 0-.72585.15875-1.41785.35278-1.53777.21458-.13261.35278.3844.35278 1.31974 0 1.83723.45827 2.38443 1.99692 2.38443 1.23048 0 1.33549-.0848 2.9504-2.38125l1.05432-1.4993h2.29085 2.29084v8.80487 8.80487l-1.70282 3.63054c-.93655 1.9968-2.37598 4.73593-3.19874 6.08694l-1.49593 2.45639.2423 6.36305c.35832 9.40968-.19455 12.21722-3.46815 17.61178l-1.26009 2.0765zm-2.1688-31.40204c.60838-1.17648.66842-4.98794.0955-6.06362-.4893-.91868-1.41589-1.65559-1.79057-1.42402-.32779.20259-.36202 8.73259-.0363 9.05827.32354.32354 1.13039-.40837 1.73141-1.57063zm8.6198-2.95363c0-2.40244-.13471-4.45133-.29936-4.55309-.16464-.10175-.64089.13319-1.05833.52209-.66605.62052-.75898 1.08833-.75898 3.82078 0 2.61946.11647 3.26175.7338 4.04657.4036.51308.87985.84262 1.05833.73231.1785-.11032.32454-2.16621.32454-4.56866zm-8.17755-10.35068c.10453-.7064.31445-.76182 2.88588-.76182 2.60727 0 2.77989.0475 2.88588.79375.074.52099.35518.79375.81829.79375.59371 0 .72284-.27153.8146-1.71307.17033-2.67568-.36809-3.04943-4.39303-3.04943-4.0609 0-4.71185.39261-4.71185 2.84183 0 .89468.0902 1.71689.20044 1.82713.44523.44523 1.39411-.018 1.49979-.73214zm-24.615217 21.13227c-.409166-.57461-1.173064-1.96555-1.697556-3.09095-.913349-1.95979-.961345-2.35157-1.136647-9.27814l-.183032-7.23194-1.33398-2.19751c-.73369-1.20863-1.804566-3.30337-2.379725-4.65497-1.036573-2.43591-1.045743-2.5164-1.045743-9.17958v-6.72211h1.767242c1.664991 0 1.823178.0816 2.734026 1.40964.883133 1.28768 1.088887 1.40215 2.377899 1.32292 1.351195-.083 1.408902-.13541 1.359094-1.23325-.02861-.63059.08039-1.14653.242231-1.14653.161837 0 .343994.51594.404795 1.14653.09962 1.03324.234072 1.15691 1.360787 1.25168 1.093022.0919 1.394563-.0744 2.397877-1.32292 1.050061-1.30666 1.289801-1.42807 2.819862-1.42807h1.67223l-.01316 7.04199-.01316 7.04199-2.383049 4.68787-2.383053 4.68787.0018 5.71528c.0011 3.1434-.172794 6.55653-.386182 7.58472-.365097 1.75919-2.426318 6.01461-3.121414 6.4442-.174466.10782-.651979-.2741-1.061145-.84872zm-2.112328-24.09898c.472204-.56603.66554-1.36741.673908-2.79337.01383-2.35464-.190556-3.0103-1.088101-3.49065-.630685-.33753-.664051-.16864-.664051 3.36119 0 2.04412.09362 3.71658.208037 3.71658.11442 0 .506014-.35719.870207-.79375zm7.035645-2.95344v-3.7472l-.79375.52536c-1.511787 1.0006-1.127164 6.96903.449104 6.96903.202713 0 .344646-1.5432.344646-3.74719zm-6.35-7.89448c.306885-.57341.738653-.70555 2.305466-.70555 1.412667 0 1.927867.13133 1.927867.49142 0 .51869 1.020735 1.07488 1.356477.73914.321571-.32157.05447-2.74597-.357181-3.24197-.245865-.29626-1.258443-.45804-2.866795-.45804-2.89523 0-3.776945.53435-3.776945 2.28894 0 1.69599.731749 2.15546 1.411111.88606zm53.5317 29.78586c-1.33856-1.53204-1.61838-2.90993-1.64653-8.10766-.0147-2.72609-.17366-5.10734-.35312-5.29167-.17946-.18432-.97321-1.63656-1.76389-3.22719l-1.4376-2.89206v-5.13364-5.13364h1.2107c.9475 0 1.37759.23438 1.97837 1.07809.96794 1.35936 2.46954 1.34894 2.84723-.0198l.24337-.88195.0352.97014c.0303.83494.18266.97014 1.0935.97014.58208 0 1.05833-.12882 1.05833-.28626s.32368-.63369.7193-1.05833c.8383-.89981 2.28538-1.01921 2.59435-.21406.11777.30691.21413 2.65849.21413 5.22573v4.66772l-1.54745 3.03264-1.54744 3.03265-.1313 5.05899c-.12176 4.69159-.20341 5.20628-1.12433 7.08745-.54617 1.11566-1.14117 2.02847-1.3222 2.02847-.18105 0-.68531-.40762-1.12059-.90581zm-.61503-18.86363c0-1.1311-.67956-2.45556-1.25992-2.45556-.0832 0-.14591 1.23031-.13946 2.73403l.0118 2.73403.69382-.83283c.42331-.50814.69381-1.35792.69381-2.17967zm4.23333.14708c0-2.35025-.0667-2.6337-.52917-2.24986-.93177.7733-.57472 4.93889.42334 4.93889.0582 0 .10583-1.21006.10583-2.68903zm-4.23333-5.77764c0-.19403.635-.35278 1.41111-.35278s1.41111.15875 1.41111.35278.24818.35278.55152.35278c.40972 0 .52309-.29479.44097-1.14653l-.11055-1.14653h-2.29305-2.29306l-.11054 1.14653c-.0821.85174.0312 1.14653.44097 1.14653.30334 0 .55152-.15875.55152-.35278zm-24.90742-4.02506c-.1154-.30072-.075-11.85891.0898-25.684864.28034-23.523705.33923-25.145702.91694-25.256617.58035-.111419.62244.930124.70196 17.369841.0465 9.618602.0862 21.17931.0882 25.69045l.004 8.20208-.79532.11294c-.47347.0672-.88024-.10833-1.00515-.43383zm25.61297-24.913789c0-17.490434.0627-19.790683.54439-19.975526.29941-.114895.5985-.1496.66466-.07712.0662.07248.18821 9.061464.27122 19.975526l.15093 19.843749h-.8156-.8156zm-52.211109-1.752817c0-14.68462.02148-15.169445.672359-15.169445.648332 0 .677009.520145.802379 14.552084.07151 8.003647.06793 14.829897-.0079 15.169447-.07588.33955-.436954.61736-.802379.61736-.640405 0-.664422-.54832-.664422-15.169446z"/></g></svg>